M48
; DRILL file KiCad 10.0.4 date 2026-08-04T15:23:51
; FORMAT={-:-/ absolute / metric / decimal}
; #@! TF.CreationDate,2026-08-04T15:23:51+02:00
; #@! TF.GenerationSoftware,Kicad,Pcbnew,10.0.4
; #@! TF.FileFunction,MixedPlating,1,4
FMAT,2
METRIC
; #@! TA.AperFunction,Plated,PTH,ViaDrill
T1C0.300
; #@! TA.AperFunction,Plated,PTH,ViaDrill
T2C0.500
; #@! TA.AperFunction,Plated,PTH,ComponentDrill
T3C0.500
; #@! TA.AperFunction,Plated,PTH,ComponentDrill
T4C0.600
; #@! TA.AperFunction,Plated,PTH,ComponentDrill
T5C0.800
; #@! TA.AperFunction,Plated,PTH,ComponentDrill
T6C0.900
; #@! TA.AperFunction,Plated,PTH,ComponentDrill
T7C1.000
; #@! TA.AperFunction,Plated,PTH,ComponentDrill
T8C1.100
; #@! TA.AperFunction,Plated,PTH,ComponentDrill
T9C1.200
; #@! TA.AperFunction,Plated,PTH,ComponentDrill
T10C1.500
; #@! TA.AperFunction,Plated,PTH,ComponentDrill
T11C1.600
; #@! TA.AperFunction,Plated,PTH,ComponentDrill
T12C2.500
; #@! TA.AperFunction,Plated,PTH,ViaDrill
T13C3.000
; #@! TA.AperFunction,NonPlated,NPTH,ComponentDrill
T14C0.600
; #@! TA.AperFunction,NonPlated,NPTH,ComponentDrill
T15C2.130
; #@! TA.AperFunction,NonPlated,NPTH,ComponentDrill
T16C3.500
%
G90
G05
T1
X49.5Y-78.713
X49.8Y-85.7
X49.8Y-86.5
X52.1Y-78.613
X52.7Y-58.413
X53.4Y-77.313
X54.3Y-76.413
X54.4Y-60.713
X55.1Y-82.3
X55.2Y-75.413
X55.2Y-81.0
X55.3Y-67.913
X55.8Y-81.613
X56.2Y-58.413
X56.4Y-81.0
X56.4Y-82.3
X56.9Y-74.113
X57.0Y-69.713
X57.4Y-65.913
X58.1Y-74.113
X60.2Y-81.713
X65.3Y-95.013
X65.8Y-55.913
X66.3Y-100.713
X67.0Y-54.013
X68.3Y-55.913
X68.8Y-97.413
X69.525Y-67.775
X69.6Y-63.6
X71.175Y-65.95
X73.0Y-95.113
X73.15Y-63.675
X73.225Y-67.775
X75.0Y-100.913
X76.2Y-99.413
X78.1Y-97.713
X78.5Y-87.113
X80.2Y-85.413
X81.7Y-55.613
X83.1Y-53.913
X84.2Y-88.513
X85.4Y-53.513
X86.3Y-90.213
X88.1Y-88.513
X89.1Y-52.113
X90.5Y-50.313
X92.0Y-52.113
X97.25Y-54.5
X97.3Y-56.375
X97.425Y-58.275
X97.425Y-60.0
X101.9Y-62.413
X102.3Y-66.113
X102.65Y-55.025
X102.7Y-73.613
X102.8Y-72.213
X103.0Y-67.013
X103.1Y-83.113
X105.5Y-62.213
X105.9Y-83.113
X108.4Y-76.713
X112.0Y-55.075
X112.725Y-60.175
X114.8Y-58.075
X116.925Y-56.2
X119.25Y-65.625
X119.25Y-67.825
X119.375Y-71.7
X119.4Y-53.8
X122.475Y-50.675
X128.4Y-63.713
X128.4Y-68.513
X129.2Y-57.613
X129.3Y-59.6
X130.396Y-61.717
X131.4Y-83.313
X134.2Y-83.313
X135.875Y-50.575
X136.0Y-61.717
X139.3Y-50.525
X141.4Y-61.717
X143.1Y-79.913
X143.75Y-50.525
X145.2Y-60.113
X145.3Y-72.213
X147.2Y-68.713
X147.5Y-79.913
X148.7Y-72.213
X149.775Y-50.525
X150.4Y-77.213
X150.9Y-71.6
X152.075Y-55.8
X152.2Y-84.813
X153.2Y-73.913
X153.8Y-69.213
X154.075Y-58.7
X155.75Y-57.175
X157.775Y-50.85
X158.35Y-55.25
X158.5Y-77.713
X158.9Y-49.825
X159.0Y-69.213
X159.0Y-73.013
X160.075Y-52.95
X160.45Y-60.563
X161.0Y-67.613
X161.575Y-51.575
X161.7Y-57.313
X161.8Y-78.413
X162.0Y-77.2
X163.0Y-69.513
X163.1Y-50.375
X163.1Y-83.613
X163.8Y-59.613
X163.9Y-53.813
X164.2Y-51.325
X164.4Y-75.513
X164.9Y-49.113
X165.4Y-78.313
X165.8Y-83.613
X166.1Y-74.413
X166.9Y-69.547
X170.3Y-66.413
X170.5Y-77.713
X173.3Y-76.113
X173.5Y-74.113
X173.5Y-78.413
X175.2Y-59.313
X176.4Y-60.313
X177.0Y-74.313
X179.3Y-62.013
X181.9Y-49.613
X183.0Y-65.613
X183.824Y-63.089
X185.0Y-52.613
X186.0Y-64.913
X187.0Y-64.913
X188.4Y-55.613
X189.35Y-68.263
X189.5Y-69.313
X190.5Y-68.413
X197.05Y-83.25
X198.05Y-84.55
X198.55Y-86.575
X199.1Y-52.713
X203.35Y-83.05
X204.95Y-81.325
X206.45Y-83.075
X211.7Y-53.613
X213.0Y-56.313
X216.0Y-56.313
X242.6Y-112.8
X243.7Y-121.113
X244.1Y-130.613
X246.912Y-129.326
X247.4Y-111.813
X247.4Y-120.513
X248.1Y-126.613
X248.5Y-107.113
X248.5Y-117.113
T2
X89.763Y-85.351
X93.7Y-62.313
X93.7Y-64.013
X93.7Y-65.813
X111.1Y-81.313
X120.9Y-80.513
T3
X143.255Y-64.843
X143.255Y-67.383
T5
X94.3Y-88.493
X94.3Y-96.113
X96.84Y-88.493
X96.84Y-96.113
X99.38Y-88.493
X99.38Y-96.113
X101.92Y-88.493
X101.92Y-96.113
X104.46Y-88.493
X104.46Y-96.113
X107.0Y-88.493
X107.0Y-96.113
X109.54Y-88.493
X109.54Y-96.113
X112.08Y-96.113
X112.08Y-88.493
X122.61Y-88.303
X122.61Y-95.923
X125.15Y-88.303
X125.15Y-95.923
X127.69Y-88.303
X127.69Y-95.923
X130.23Y-88.303
X130.23Y-95.923
X132.77Y-88.303
X132.77Y-95.923
X135.31Y-88.303
X135.31Y-95.923
X137.85Y-88.303
X137.85Y-95.923
X140.39Y-95.923
X140.39Y-88.303
X154.42Y-88.613
X154.42Y-96.233
X156.96Y-88.613
X156.96Y-96.233
X159.5Y-88.613
X159.5Y-96.233
X162.04Y-88.613
X162.04Y-96.233
X164.58Y-88.613
X164.58Y-96.233
X167.12Y-88.613
X167.12Y-96.233
X169.66Y-88.613
X169.66Y-96.233
X172.2Y-96.233
X172.2Y-88.613
X194.61Y-88.803
X194.61Y-96.423
X197.15Y-88.803
X197.15Y-96.423
X199.69Y-88.803
X199.69Y-96.423
X202.23Y-88.803
X202.23Y-96.423
X204.77Y-88.803
X204.77Y-96.423
X207.31Y-88.803
X207.31Y-96.423
X209.85Y-88.803
X209.85Y-96.423
X212.39Y-96.423
X212.39Y-88.803
T6
X111.5Y-73.138
T7
X145.498Y-83.712
X147.294Y-85.508
X167.1Y-50.513
X167.1Y-53.053
X190.69Y-50.113
X193.23Y-50.113
X195.77Y-50.113
X198.31Y-50.113
T8
X48.26Y-81.643
X50.8Y-81.643
X53.34Y-81.643
X81.06Y-82.343
X83.6Y-82.343
X86.14Y-82.343
X204.0Y-57.013
X204.0Y-64.613
T9
X51.5Y-97.613
X81.5Y-97.613
T10
X226.5Y-53.613
X226.5Y-74.413
T11
X52.38Y-89.113
X67.62Y-89.113
T12
X64.333Y-118.576
X65.343Y-126.59
X67.817Y-111.292
X70.575Y-132.825
X74.682Y-107.03
X78.291Y-135.211
X82.766Y-107.161
X86.07Y-133.045
X89.493Y-111.639
X91.46Y-127.025
X92.734Y-119.04
X106.833Y-118.576
X107.843Y-126.59
X110.317Y-111.292
X113.075Y-132.825
X117.182Y-107.03
X120.791Y-135.211
X125.266Y-107.161
X128.57Y-133.045
X131.993Y-111.639
X133.96Y-127.025
X135.234Y-119.04
X148.833Y-118.576
X149.843Y-126.59
X152.317Y-111.292
X155.075Y-132.825
X159.182Y-107.03
X162.791Y-135.211
X167.266Y-107.161
X170.57Y-133.045
X173.993Y-111.639
X175.96Y-127.025
X177.234Y-119.04
X191.333Y-117.576
X192.343Y-125.59
X194.817Y-110.292
X197.575Y-131.825
X201.682Y-106.03
X205.291Y-134.211
X209.766Y-106.161
X213.07Y-132.045
X216.493Y-110.639
X218.46Y-126.025
X219.734Y-118.04
T13
X48.3Y-51.613
X48.7Y-137.213
X246.9Y-136.513
X247.9Y-51.113
T14
X103.75Y-52.85
X110.75Y-52.85
T15
X59.7Y-52.113
T16
X50.8Y-64.983
X83.6Y-65.683
T4
X53.5Y-51.913G85X53.5Y-50.313
G05
X63.3Y-51.913G85X63.3Y-50.313
G05
X101.33Y-48.55G85X101.33Y-49.45
G05
X102.6Y-53.02G85X102.6Y-53.62
G05
X111.9Y-53.02G85X111.9Y-53.62
G05
X113.17Y-48.55G85X113.17Y-49.45
G05
T5
X54.4Y-59.013G85X54.4Y-57.813
G05
X59.7Y-59.013G85X59.7Y-57.813
G05
X62.9Y-59.013G85X62.9Y-57.813
G05
M30
