%TF.GenerationSoftware,KiCad,Pcbnew,10.0.4*%
%TF.CreationDate,2026-08-04T15:23:52+02:00*%
%TF.ProjectId,zegarek,7a656761-7265-46b2-9e6b-696361645f70,rev?*%
%TF.SameCoordinates,Original*%
%TF.FileFunction,Legend,Bot*%
%TF.FilePolarity,Positive*%
%FSLAX45Y45*%
G04 Gerber Fmt 4.5, Leading zero omitted, Abs format (unit mm)*
G04 Created by KiCad (PCBNEW 10.0.4) date 2026-08-04 15:23:52*
%MOMM*%
%LPD*%
G01*
G04 APERTURE LIST*
G04 Aperture macros list*
%AMRoundRect*
0 Rectangle with rounded corners*
0 $1 Rounding radius*
0 $2 $3 $4 $5 $6 $7 $8 $9 X,Y pos of 4 corners*
0 Add a 4 corners polygon primitive as box body*
4,1,4,$2,$3,$4,$5,$6,$7,$8,$9,$2,$3,0*
0 Add four circle primitives for the rounded corners*
1,1,$1+$1,$2,$3*
1,1,$1+$1,$4,$5*
1,1,$1+$1,$6,$7*
1,1,$1+$1,$8,$9*
0 Add four rect primitives between the rounded corners*
20,1,$1+$1,$2,$3,$4,$5,0*
20,1,$1+$1,$4,$5,$6,$7,0*
20,1,$1+$1,$6,$7,$8,$9,0*
20,1,$1+$1,$8,$9,$2,$3,0*%
%AMRotRect*
0 Rectangle, with rotation*
0 The origin of the aperture is its center*
0 $1 length*
0 $2 width*
0 $3 Rotation angle, in degrees counterclockwise*
0 Add horizontal line*
21,1,$1,$2,0,0,$3*%
%AMFreePoly0*
4,1,9,3.862500,-0.866500,0.737500,-0.866500,0.737500,-0.450000,-0.737500,-0.450000,-0.737500,0.450000,0.737500,0.450000,0.737500,0.866500,3.862500,0.866500,3.862500,-0.866500,3.862500,-0.866500,$1*%
%AMFreePoly1*
4,1,23,0.499999,-0.750000,0.000000,-0.750000,0.000000,-0.745722,-0.065263,-0.745722,-0.191342,-0.711940,-0.304381,-0.646677,-0.396677,-0.554382,-0.461940,-0.441342,-0.495722,-0.315263,-0.495722,-0.250000,-0.500000,-0.250000,-0.500000,0.250000,-0.495722,0.250000,-0.495722,0.315263,-0.461940,0.441342,-0.396677,0.554382,-0.304381,0.646677,-0.191342,0.711940,-0.065263,0.745722,0.000000,0.745722,
0.000000,0.750000,0.499999,0.750000,0.499999,-0.750000,0.499999,-0.750000,$1*%
%AMFreePoly2*
4,1,23,0.000000,0.745722,0.065263,0.745722,0.191342,0.711940,0.304381,0.646677,0.396677,0.554382,0.461940,0.441342,0.495722,0.315263,0.495722,0.250000,0.500000,0.250000,0.500000,-0.250000,0.495722,-0.250000,0.495722,-0.315263,0.461940,-0.441342,0.396677,-0.554382,0.304381,-0.646677,0.191342,-0.711940,0.065263,-0.745722,0.000000,-0.745722,0.000000,-0.750000,-0.499999,-0.750000,
-0.499999,0.750000,0.000000,0.750000,0.000000,0.745722,0.000000,0.745722,$1*%
G04 Aperture macros list end*
%ADD10C,0.150000*%
%ADD11C,0.120000*%
%ADD12C,0.000000*%
%ADD13R,1.700000X1.700000*%
%ADD14C,1.700000*%
%ADD15RoundRect,1.125000X-1.101193X1.148313X-1.148313X-1.101193X1.101193X-1.148313X1.148313X1.101193X0*%
%ADD16C,4.500000*%
%ADD17RotRect,1.700000X1.700000X45.000000*%
%ADD18RoundRect,0.237500X0.044194X0.380070X-0.380070X-0.044194X-0.044194X-0.380070X0.380070X0.044194X0*%
%ADD19RoundRect,0.237500X-0.344715X0.008839X0.008839X-0.344715X0.344715X-0.008839X-0.008839X0.344715X0*%
%ADD20RoundRect,0.150000X-0.150000X0.825000X-0.150000X-0.825000X0.150000X-0.825000X0.150000X0.825000X0*%
%ADD21RoundRect,0.237500X-0.250000X-0.237500X0.250000X-0.237500X0.250000X0.237500X-0.250000X0.237500X0*%
%ADD22RoundRect,0.250000X-0.650000X0.412500X-0.650000X-0.412500X0.650000X-0.412500X0.650000X0.412500X0*%
%ADD23RoundRect,0.250000X0.751301X0.167938X0.167938X0.751301X-0.751301X-0.167938X-0.167938X-0.751301X0*%
%ADD24RoundRect,0.250000X0.650000X-0.412500X0.650000X0.412500X-0.650000X0.412500X-0.650000X-0.412500X0*%
%ADD25RoundRect,0.237500X-0.008839X-0.344715X0.344715X0.008839X0.008839X0.344715X-0.344715X-0.008839X0*%
%ADD26RoundRect,0.250000X0.400000X0.625000X-0.400000X0.625000X-0.400000X-0.625000X0.400000X-0.625000X0*%
%ADD27RoundRect,0.150000X0.150000X-0.825000X0.150000X0.825000X-0.150000X0.825000X-0.150000X-0.825000X0*%
%ADD28RoundRect,0.237500X0.237500X-0.250000X0.237500X0.250000X-0.237500X0.250000X-0.237500X-0.250000X0*%
%ADD29C,2.130000*%
%ADD30R,1.800000X3.000000*%
%ADD31O,1.800000X3.000000*%
%ADD32O,1.600000X3.000000*%
%ADD33RoundRect,0.237500X0.035355X0.371231X-0.371231X-0.035355X-0.035355X-0.371231X0.371231X0.035355X0*%
%ADD34C,3.500000*%
%ADD35R,1.905000X2.000000*%
%ADD36O,1.905000X2.000000*%
%ADD37RoundRect,0.075000X-0.548008X0.441942X0.441942X-0.548008X0.548008X-0.441942X-0.441942X0.548008X0*%
%ADD38RoundRect,0.075000X-0.548008X-0.441942X-0.441942X-0.548008X0.548008X0.441942X0.441942X0.548008X0*%
%ADD39RoundRect,0.250000X-0.550000X0.950000X-0.550000X-0.950000X0.550000X-0.950000X0.550000X0.950000X0*%
%ADD40O,1.600000X2.400000*%
%ADD41RoundRect,0.225000X-0.225000X0.425000X-0.225000X-0.425000X0.225000X-0.425000X0.225000X0.425000X0*%
%ADD42FreePoly0,270.000000*%
%ADD43C,1.800000*%
%ADD44R,0.900000X1.000000*%
%ADD45RoundRect,0.250001X-0.949999X-0.949999X0.949999X-0.949999X0.949999X0.949999X-0.949999X0.949999X0*%
%ADD46C,2.400000*%
%ADD47RoundRect,0.237500X0.287500X0.237500X-0.287500X0.237500X-0.287500X-0.237500X0.287500X-0.237500X0*%
%ADD48RoundRect,0.250000X0.412500X0.650000X-0.412500X0.650000X-0.412500X-0.650000X0.412500X-0.650000X0*%
%ADD49FreePoly1,225.000000*%
%ADD50FreePoly2,225.000000*%
%ADD51R,2.000000X2.000000*%
%ADD52C,2.000000*%
%ADD53RoundRect,0.250000X-0.412500X-0.650000X0.412500X-0.650000X0.412500X0.650000X-0.412500X0.650000X0*%
%ADD54RoundRect,0.250000X-1.350000X-1.350000X1.350000X-1.350000X1.350000X1.350000X-1.350000X1.350000X0*%
%ADD55C,3.200000*%
%ADD56RoundRect,0.250000X-0.625000X0.400000X-0.625000X-0.400000X0.625000X-0.400000X0.625000X0.400000X0*%
%ADD57RoundRect,0.237500X0.008839X0.344715X-0.344715X-0.008839X-0.008839X-0.344715X0.344715X0.008839X0*%
%ADD58R,3.600000X2.700000*%
%ADD59RoundRect,0.237500X0.344715X-0.008839X-0.008839X0.344715X-0.344715X0.008839X0.008839X-0.344715X0*%
%ADD60C,0.600000*%
%ADD61RoundRect,0.200000X-0.200000X-0.500000X0.200000X-0.500000X0.200000X0.500000X-0.200000X0.500000X0*%
%ADD62RoundRect,0.075000X-0.075000X-0.625000X0.075000X-0.625000X0.075000X0.625000X-0.075000X0.625000X0*%
%ADD63O,0.900000X1.800000*%
%ADD64O,0.900000X1.500000*%
%ADD65RoundRect,0.237500X0.250000X0.237500X-0.250000X0.237500X-0.250000X-0.237500X0.250000X-0.237500X0*%
%ADD66C,1.000000*%
%TA.AperFunction,Profile*%
%ADD67C,0.050000*%
%TD*%
%TA.AperFunction,Profile*%
%ADD68C,0.100000*%
%TD*%
G04 APERTURE END LIST*
D10*
X14899767Y-6100182D02*
X14906501Y-6100182D01*
X14906501Y-6100182D02*
X14919970Y-6093448D01*
X14919970Y-6093448D02*
X14926704Y-6086713D01*
X14926704Y-6086713D02*
X14933438Y-6073245D01*
X14933438Y-6073245D02*
X14933438Y-6059776D01*
X14933438Y-6059776D02*
X14930071Y-6049674D01*
X14930071Y-6049674D02*
X14919970Y-6032838D01*
X14919970Y-6032838D02*
X14909868Y-6022737D01*
X14909868Y-6022737D02*
X14893032Y-6012635D01*
X14893032Y-6012635D02*
X14882931Y-6009268D01*
X14882931Y-6009268D02*
X14869462Y-6009268D01*
X14869462Y-6009268D02*
X14855993Y-6016003D01*
X14855993Y-6016003D02*
X14849259Y-6022737D01*
X14849259Y-6022737D02*
X14842525Y-6036206D01*
X14842525Y-6036206D02*
X14842525Y-6042940D01*
X14839158Y-6174260D02*
X14879564Y-6133854D01*
X14859361Y-6154057D02*
X14788650Y-6083346D01*
X14788650Y-6083346D02*
X14805486Y-6086713D01*
X14805486Y-6086713D02*
X14818954Y-6086713D01*
X14818954Y-6086713D02*
X14829056Y-6083346D01*
X14744877Y-6127119D02*
X14701103Y-6170893D01*
X14701103Y-6170893D02*
X14751611Y-6174260D01*
X14751611Y-6174260D02*
X14741509Y-6184361D01*
X14741509Y-6184361D02*
X14738142Y-6194463D01*
X14738142Y-6194463D02*
X14738142Y-6201197D01*
X14738142Y-6201197D02*
X14741509Y-6211299D01*
X14741509Y-6211299D02*
X14758345Y-6228135D01*
X14758345Y-6228135D02*
X14768447Y-6231502D01*
X14768447Y-6231502D02*
X14775181Y-6231502D01*
X14775181Y-6231502D02*
X14785283Y-6228135D01*
X14785283Y-6228135D02*
X14805486Y-6207932D01*
X14805486Y-6207932D02*
X14808853Y-6197830D01*
X14808853Y-6197830D02*
X14808853Y-6191096D01*
X14862180Y-8580063D02*
X14919422Y-8569961D01*
X14902586Y-8620469D02*
X14973297Y-8549758D01*
X14973297Y-8549758D02*
X14946359Y-8522821D01*
X14946359Y-8522821D02*
X14936258Y-8519454D01*
X14936258Y-8519454D02*
X14929523Y-8519454D01*
X14929523Y-8519454D02*
X14919422Y-8522821D01*
X14919422Y-8522821D02*
X14909320Y-8532922D01*
X14909320Y-8532922D02*
X14905953Y-8543024D01*
X14905953Y-8543024D02*
X14905953Y-8549758D01*
X14905953Y-8549758D02*
X14909320Y-8559860D01*
X14909320Y-8559860D02*
X14936258Y-8586797D01*
X14794836Y-8512719D02*
X14835243Y-8553125D01*
X14815039Y-8532922D02*
X14885750Y-8462212D01*
X14885750Y-8462212D02*
X14882383Y-8479047D01*
X14882383Y-8479047D02*
X14882383Y-8492516D01*
X14882383Y-8492516D02*
X14885750Y-8502618D01*
X14804938Y-8381399D02*
X14818407Y-8394868D01*
X14818407Y-8394868D02*
X14821774Y-8404970D01*
X14821774Y-8404970D02*
X14821774Y-8411704D01*
X14821774Y-8411704D02*
X14818407Y-8428540D01*
X14818407Y-8428540D02*
X14808305Y-8445376D01*
X14808305Y-8445376D02*
X14781368Y-8472313D01*
X14781368Y-8472313D02*
X14771266Y-8475680D01*
X14771266Y-8475680D02*
X14764532Y-8475680D01*
X14764532Y-8475680D02*
X14754430Y-8472313D01*
X14754430Y-8472313D02*
X14740962Y-8458844D01*
X14740962Y-8458844D02*
X14737594Y-8448743D01*
X14737594Y-8448743D02*
X14737594Y-8442009D01*
X14737594Y-8442009D02*
X14740962Y-8431907D01*
X14740962Y-8431907D02*
X14757797Y-8415071D01*
X14757797Y-8415071D02*
X14767899Y-8411704D01*
X14767899Y-8411704D02*
X14774633Y-8411704D01*
X14774633Y-8411704D02*
X14784735Y-8415071D01*
X14784735Y-8415071D02*
X14798204Y-8428540D01*
X14798204Y-8428540D02*
X14801571Y-8438641D01*
X14801571Y-8438641D02*
X14801571Y-8445376D01*
X14801571Y-8445376D02*
X14798204Y-8455477D01*
X9954982Y-6582638D02*
X10035934Y-6582638D01*
X10035934Y-6582638D02*
X10045458Y-6587400D01*
X10045458Y-6587400D02*
X10050220Y-6592162D01*
X10050220Y-6592162D02*
X10054982Y-6601686D01*
X10054982Y-6601686D02*
X10054982Y-6620734D01*
X10054982Y-6620734D02*
X10050220Y-6630257D01*
X10050220Y-6630257D02*
X10045458Y-6635019D01*
X10045458Y-6635019D02*
X10035934Y-6639781D01*
X10035934Y-6639781D02*
X9954982Y-6639781D01*
X9954982Y-6735019D02*
X9954982Y-6687400D01*
X9954982Y-6687400D02*
X10002601Y-6682638D01*
X10002601Y-6682638D02*
X9997839Y-6687400D01*
X9997839Y-6687400D02*
X9993077Y-6696924D01*
X9993077Y-6696924D02*
X9993077Y-6720734D01*
X9993077Y-6720734D02*
X9997839Y-6730257D01*
X9997839Y-6730257D02*
X10002601Y-6735019D01*
X10002601Y-6735019D02*
X10012125Y-6739781D01*
X10012125Y-6739781D02*
X10035934Y-6739781D01*
X10035934Y-6739781D02*
X10045458Y-6735019D01*
X10045458Y-6735019D02*
X10050220Y-6730257D01*
X10050220Y-6730257D02*
X10054982Y-6720734D01*
X10054982Y-6720734D02*
X10054982Y-6696924D01*
X10054982Y-6696924D02*
X10050220Y-6687400D01*
X10050220Y-6687400D02*
X10045458Y-6682638D01*
X14673036Y-5699811D02*
X14706369Y-5652192D01*
X14730178Y-5699811D02*
X14730178Y-5599811D01*
X14730178Y-5599811D02*
X14692083Y-5599811D01*
X14692083Y-5599811D02*
X14682559Y-5604573D01*
X14682559Y-5604573D02*
X14677798Y-5609335D01*
X14677798Y-5609335D02*
X14673036Y-5618858D01*
X14673036Y-5618858D02*
X14673036Y-5633144D01*
X14673036Y-5633144D02*
X14677798Y-5642668D01*
X14677798Y-5642668D02*
X14682559Y-5647430D01*
X14682559Y-5647430D02*
X14692083Y-5652192D01*
X14692083Y-5652192D02*
X14730178Y-5652192D01*
X14634940Y-5609335D02*
X14630178Y-5604573D01*
X14630178Y-5604573D02*
X14620655Y-5599811D01*
X14620655Y-5599811D02*
X14596845Y-5599811D01*
X14596845Y-5599811D02*
X14587321Y-5604573D01*
X14587321Y-5604573D02*
X14582559Y-5609335D01*
X14582559Y-5609335D02*
X14577798Y-5618858D01*
X14577798Y-5618858D02*
X14577798Y-5628382D01*
X14577798Y-5628382D02*
X14582559Y-5642668D01*
X14582559Y-5642668D02*
X14639702Y-5699811D01*
X14639702Y-5699811D02*
X14577798Y-5699811D01*
X14487321Y-5599811D02*
X14534940Y-5599811D01*
X14534940Y-5599811D02*
X14539702Y-5647430D01*
X14539702Y-5647430D02*
X14534940Y-5642668D01*
X14534940Y-5642668D02*
X14525417Y-5637906D01*
X14525417Y-5637906D02*
X14501607Y-5637906D01*
X14501607Y-5637906D02*
X14492083Y-5642668D01*
X14492083Y-5642668D02*
X14487321Y-5647430D01*
X14487321Y-5647430D02*
X14482559Y-5656954D01*
X14482559Y-5656954D02*
X14482559Y-5680763D01*
X14482559Y-5680763D02*
X14487321Y-5690287D01*
X14487321Y-5690287D02*
X14492083Y-5695049D01*
X14492083Y-5695049D02*
X14501607Y-5699811D01*
X14501607Y-5699811D02*
X14525417Y-5699811D01*
X14525417Y-5699811D02*
X14534940Y-5695049D01*
X14534940Y-5695049D02*
X14539702Y-5690287D01*
X16711286Y-6734148D02*
X16716048Y-6729386D01*
X16716048Y-6729386D02*
X16720810Y-6715101D01*
X16720810Y-6715101D02*
X16720810Y-6705577D01*
X16720810Y-6705577D02*
X16716048Y-6691291D01*
X16716048Y-6691291D02*
X16706525Y-6681767D01*
X16706525Y-6681767D02*
X16697001Y-6677006D01*
X16697001Y-6677006D02*
X16677953Y-6672244D01*
X16677953Y-6672244D02*
X16663667Y-6672244D01*
X16663667Y-6672244D02*
X16644620Y-6677006D01*
X16644620Y-6677006D02*
X16635096Y-6681767D01*
X16635096Y-6681767D02*
X16625572Y-6691291D01*
X16625572Y-6691291D02*
X16620810Y-6705577D01*
X16620810Y-6705577D02*
X16620810Y-6715101D01*
X16620810Y-6715101D02*
X16625572Y-6729386D01*
X16625572Y-6729386D02*
X16630334Y-6734148D01*
X16630334Y-6772244D02*
X16625572Y-6777006D01*
X16625572Y-6777006D02*
X16620810Y-6786529D01*
X16620810Y-6786529D02*
X16620810Y-6810339D01*
X16620810Y-6810339D02*
X16625572Y-6819863D01*
X16625572Y-6819863D02*
X16630334Y-6824625D01*
X16630334Y-6824625D02*
X16639858Y-6829386D01*
X16639858Y-6829386D02*
X16649382Y-6829386D01*
X16649382Y-6829386D02*
X16663667Y-6824625D01*
X16663667Y-6824625D02*
X16720810Y-6767482D01*
X16720810Y-6767482D02*
X16720810Y-6829386D01*
X16620810Y-6862720D02*
X16620810Y-6924625D01*
X16620810Y-6924625D02*
X16658906Y-6891291D01*
X16658906Y-6891291D02*
X16658906Y-6905577D01*
X16658906Y-6905577D02*
X16663667Y-6915101D01*
X16663667Y-6915101D02*
X16668429Y-6919863D01*
X16668429Y-6919863D02*
X16677953Y-6924625D01*
X16677953Y-6924625D02*
X16701763Y-6924625D01*
X16701763Y-6924625D02*
X16711286Y-6919863D01*
X16711286Y-6919863D02*
X16716048Y-6915101D01*
X16716048Y-6915101D02*
X16720810Y-6905577D01*
X16720810Y-6905577D02*
X16720810Y-6877006D01*
X16720810Y-6877006D02*
X16716048Y-6867482D01*
X16716048Y-6867482D02*
X16711286Y-6862720D01*
X15554675Y-5817567D02*
X15554675Y-5824302D01*
X15554675Y-5824302D02*
X15561410Y-5837770D01*
X15561410Y-5837770D02*
X15568144Y-5844505D01*
X15568144Y-5844505D02*
X15581613Y-5851239D01*
X15581613Y-5851239D02*
X15595081Y-5851239D01*
X15595081Y-5851239D02*
X15605183Y-5847872D01*
X15605183Y-5847872D02*
X15622019Y-5837770D01*
X15622019Y-5837770D02*
X15632120Y-5827669D01*
X15632120Y-5827669D02*
X15642222Y-5810833D01*
X15642222Y-5810833D02*
X15645589Y-5800731D01*
X15645589Y-5800731D02*
X15645589Y-5787263D01*
X15645589Y-5787263D02*
X15638855Y-5773794D01*
X15638855Y-5773794D02*
X15632120Y-5767060D01*
X15632120Y-5767060D02*
X15618652Y-5760325D01*
X15618652Y-5760325D02*
X15611917Y-5760325D01*
X15480597Y-5756958D02*
X15521004Y-5797364D01*
X15500800Y-5777161D02*
X15571511Y-5706451D01*
X15571511Y-5706451D02*
X15568144Y-5723286D01*
X15568144Y-5723286D02*
X15568144Y-5736755D01*
X15568144Y-5736755D02*
X15571511Y-5746857D01*
X15487332Y-5622271D02*
X15521004Y-5655943D01*
X15521004Y-5655943D02*
X15490699Y-5692982D01*
X15490699Y-5692982D02*
X15490699Y-5686247D01*
X15490699Y-5686247D02*
X15487332Y-5676146D01*
X15487332Y-5676146D02*
X15470496Y-5659310D01*
X15470496Y-5659310D02*
X15460394Y-5655943D01*
X15460394Y-5655943D02*
X15453660Y-5655943D01*
X15453660Y-5655943D02*
X15443558Y-5659310D01*
X15443558Y-5659310D02*
X15426723Y-5676146D01*
X15426723Y-5676146D02*
X15423355Y-5686247D01*
X15423355Y-5686247D02*
X15423355Y-5692982D01*
X15423355Y-5692982D02*
X15426723Y-5703083D01*
X15426723Y-5703083D02*
X15443558Y-5719919D01*
X15443558Y-5719919D02*
X15453660Y-5723286D01*
X15453660Y-5723286D02*
X15460394Y-5723286D01*
X13500958Y-8367043D02*
X13505720Y-8362281D01*
X13505720Y-8362281D02*
X13510482Y-8347996D01*
X13510482Y-8347996D02*
X13510482Y-8338472D01*
X13510482Y-8338472D02*
X13505720Y-8324186D01*
X13505720Y-8324186D02*
X13496196Y-8314662D01*
X13496196Y-8314662D02*
X13486672Y-8309900D01*
X13486672Y-8309900D02*
X13467625Y-8305138D01*
X13467625Y-8305138D02*
X13453339Y-8305138D01*
X13453339Y-8305138D02*
X13434291Y-8309900D01*
X13434291Y-8309900D02*
X13424768Y-8314662D01*
X13424768Y-8314662D02*
X13415244Y-8324186D01*
X13415244Y-8324186D02*
X13410482Y-8338472D01*
X13410482Y-8338472D02*
X13410482Y-8347996D01*
X13410482Y-8347996D02*
X13415244Y-8362281D01*
X13415244Y-8362281D02*
X13420006Y-8367043D01*
X13420006Y-8405139D02*
X13415244Y-8409900D01*
X13415244Y-8409900D02*
X13410482Y-8419424D01*
X13410482Y-8419424D02*
X13410482Y-8443234D01*
X13410482Y-8443234D02*
X13415244Y-8452758D01*
X13415244Y-8452758D02*
X13420006Y-8457519D01*
X13420006Y-8457519D02*
X13429530Y-8462281D01*
X13429530Y-8462281D02*
X13439053Y-8462281D01*
X13439053Y-8462281D02*
X13453339Y-8457519D01*
X13453339Y-8457519D02*
X13510482Y-8400377D01*
X13510482Y-8400377D02*
X13510482Y-8462281D01*
X13410482Y-8547996D02*
X13410482Y-8528948D01*
X13410482Y-8528948D02*
X13415244Y-8519424D01*
X13415244Y-8519424D02*
X13420006Y-8514662D01*
X13420006Y-8514662D02*
X13434291Y-8505139D01*
X13434291Y-8505139D02*
X13453339Y-8500377D01*
X13453339Y-8500377D02*
X13491434Y-8500377D01*
X13491434Y-8500377D02*
X13500958Y-8505139D01*
X13500958Y-8505139D02*
X13505720Y-8509900D01*
X13505720Y-8509900D02*
X13510482Y-8519424D01*
X13510482Y-8519424D02*
X13510482Y-8538472D01*
X13510482Y-8538472D02*
X13505720Y-8547996D01*
X13505720Y-8547996D02*
X13500958Y-8552758D01*
X13500958Y-8552758D02*
X13491434Y-8557519D01*
X13491434Y-8557519D02*
X13467625Y-8557519D01*
X13467625Y-8557519D02*
X13458101Y-8552758D01*
X13458101Y-8552758D02*
X13453339Y-8547996D01*
X13453339Y-8547996D02*
X13448577Y-8538472D01*
X13448577Y-8538472D02*
X13448577Y-8519424D01*
X13448577Y-8519424D02*
X13453339Y-8509900D01*
X13453339Y-8509900D02*
X13458101Y-8505139D01*
X13458101Y-8505139D02*
X13467625Y-8500377D01*
X17548734Y-6169149D02*
X17538632Y-6111907D01*
X17589140Y-6128743D02*
X17518429Y-6058032D01*
X17518429Y-6058032D02*
X17491492Y-6084970D01*
X17491492Y-6084970D02*
X17488125Y-6095071D01*
X17488125Y-6095071D02*
X17488125Y-6101805D01*
X17488125Y-6101805D02*
X17491492Y-6111907D01*
X17491492Y-6111907D02*
X17501593Y-6122008D01*
X17501593Y-6122008D02*
X17511695Y-6125376D01*
X17511695Y-6125376D02*
X17518429Y-6125376D01*
X17518429Y-6125376D02*
X17528531Y-6122008D01*
X17528531Y-6122008D02*
X17555468Y-6095071D01*
X17457820Y-6132110D02*
X17451086Y-6132110D01*
X17451086Y-6132110D02*
X17440984Y-6135477D01*
X17440984Y-6135477D02*
X17424148Y-6152313D01*
X17424148Y-6152313D02*
X17420781Y-6162415D01*
X17420781Y-6162415D02*
X17420781Y-6169149D01*
X17420781Y-6169149D02*
X17424148Y-6179250D01*
X17424148Y-6179250D02*
X17430883Y-6185985D01*
X17430883Y-6185985D02*
X17444351Y-6192719D01*
X17444351Y-6192719D02*
X17525164Y-6192719D01*
X17525164Y-6192719D02*
X17481390Y-6236492D01*
X17400578Y-6236492D02*
X17403945Y-6226391D01*
X17403945Y-6226391D02*
X17403945Y-6219657D01*
X17403945Y-6219657D02*
X17400578Y-6209555D01*
X17400578Y-6209555D02*
X17397211Y-6206188D01*
X17397211Y-6206188D02*
X17387109Y-6202821D01*
X17387109Y-6202821D02*
X17380375Y-6202821D01*
X17380375Y-6202821D02*
X17370273Y-6206188D01*
X17370273Y-6206188D02*
X17356805Y-6219657D01*
X17356805Y-6219657D02*
X17353438Y-6229758D01*
X17353438Y-6229758D02*
X17353438Y-6236492D01*
X17353438Y-6236492D02*
X17356805Y-6246594D01*
X17356805Y-6246594D02*
X17360172Y-6249961D01*
X17360172Y-6249961D02*
X17370273Y-6253328D01*
X17370273Y-6253328D02*
X17377008Y-6253328D01*
X17377008Y-6253328D02*
X17387109Y-6249961D01*
X17387109Y-6249961D02*
X17400578Y-6236492D01*
X17400578Y-6236492D02*
X17410680Y-6233125D01*
X17410680Y-6233125D02*
X17417414Y-6233125D01*
X17417414Y-6233125D02*
X17427515Y-6236492D01*
X17427515Y-6236492D02*
X17440984Y-6249961D01*
X17440984Y-6249961D02*
X17444351Y-6260063D01*
X17444351Y-6260063D02*
X17444351Y-6266797D01*
X17444351Y-6266797D02*
X17440984Y-6276899D01*
X17440984Y-6276899D02*
X17427515Y-6290367D01*
X17427515Y-6290367D02*
X17417414Y-6293734D01*
X17417414Y-6293734D02*
X17410680Y-6293734D01*
X17410680Y-6293734D02*
X17400578Y-6290367D01*
X17400578Y-6290367D02*
X17387109Y-6276899D01*
X17387109Y-6276899D02*
X17383742Y-6266797D01*
X17383742Y-6266797D02*
X17383742Y-6260063D01*
X17383742Y-6260063D02*
X17387109Y-6249961D01*
X6426667Y-6663811D02*
X6460000Y-6616192D01*
X6483809Y-6663811D02*
X6483809Y-6563811D01*
X6483809Y-6563811D02*
X6445714Y-6563811D01*
X6445714Y-6563811D02*
X6436190Y-6568573D01*
X6436190Y-6568573D02*
X6431428Y-6573335D01*
X6431428Y-6573335D02*
X6426667Y-6582859D01*
X6426667Y-6582859D02*
X6426667Y-6597144D01*
X6426667Y-6597144D02*
X6431428Y-6606668D01*
X6431428Y-6606668D02*
X6436190Y-6611430D01*
X6436190Y-6611430D02*
X6445714Y-6616192D01*
X6445714Y-6616192D02*
X6483809Y-6616192D01*
X6369524Y-6606668D02*
X6379047Y-6601906D01*
X6379047Y-6601906D02*
X6383809Y-6597144D01*
X6383809Y-6597144D02*
X6388571Y-6587620D01*
X6388571Y-6587620D02*
X6388571Y-6582859D01*
X6388571Y-6582859D02*
X6383809Y-6573335D01*
X6383809Y-6573335D02*
X6379047Y-6568573D01*
X6379047Y-6568573D02*
X6369524Y-6563811D01*
X6369524Y-6563811D02*
X6350476Y-6563811D01*
X6350476Y-6563811D02*
X6340952Y-6568573D01*
X6340952Y-6568573D02*
X6336190Y-6573335D01*
X6336190Y-6573335D02*
X6331428Y-6582859D01*
X6331428Y-6582859D02*
X6331428Y-6587620D01*
X6331428Y-6587620D02*
X6336190Y-6597144D01*
X6336190Y-6597144D02*
X6340952Y-6601906D01*
X6340952Y-6601906D02*
X6350476Y-6606668D01*
X6350476Y-6606668D02*
X6369524Y-6606668D01*
X6369524Y-6606668D02*
X6379047Y-6611430D01*
X6379047Y-6611430D02*
X6383809Y-6616192D01*
X6383809Y-6616192D02*
X6388571Y-6625716D01*
X6388571Y-6625716D02*
X6388571Y-6644763D01*
X6388571Y-6644763D02*
X6383809Y-6654287D01*
X6383809Y-6654287D02*
X6379047Y-6659049D01*
X6379047Y-6659049D02*
X6369524Y-6663811D01*
X6369524Y-6663811D02*
X6350476Y-6663811D01*
X6350476Y-6663811D02*
X6340952Y-6659049D01*
X6340952Y-6659049D02*
X6336190Y-6654287D01*
X6336190Y-6654287D02*
X6331428Y-6644763D01*
X6331428Y-6644763D02*
X6331428Y-6625716D01*
X6331428Y-6625716D02*
X6336190Y-6616192D01*
X6336190Y-6616192D02*
X6340952Y-6611430D01*
X6340952Y-6611430D02*
X6350476Y-6606668D01*
X14972180Y-8480063D02*
X15029422Y-8469961D01*
X15012586Y-8520469D02*
X15083297Y-8449758D01*
X15083297Y-8449758D02*
X15056359Y-8422821D01*
X15056359Y-8422821D02*
X15046258Y-8419454D01*
X15046258Y-8419454D02*
X15039523Y-8419454D01*
X15039523Y-8419454D02*
X15029422Y-8422821D01*
X15029422Y-8422821D02*
X15019320Y-8432922D01*
X15019320Y-8432922D02*
X15015953Y-8443024D01*
X15015953Y-8443024D02*
X15015953Y-8449758D01*
X15015953Y-8449758D02*
X15019320Y-8459860D01*
X15019320Y-8459860D02*
X15046258Y-8486797D01*
X14904836Y-8412719D02*
X14945243Y-8453125D01*
X14925039Y-8432922D02*
X14995750Y-8362212D01*
X14995750Y-8362212D02*
X14992383Y-8379047D01*
X14992383Y-8379047D02*
X14992383Y-8392516D01*
X14992383Y-8392516D02*
X14995750Y-8402618D01*
X14951977Y-8318438D02*
X14904836Y-8271298D01*
X14904836Y-8271298D02*
X14864430Y-8372313D01*
X11118036Y-7862311D02*
X11151369Y-7814692D01*
X11175179Y-7862311D02*
X11175179Y-7762311D01*
X11175179Y-7762311D02*
X11137083Y-7762311D01*
X11137083Y-7762311D02*
X11127560Y-7767073D01*
X11127560Y-7767073D02*
X11122798Y-7771835D01*
X11122798Y-7771835D02*
X11118036Y-7781358D01*
X11118036Y-7781358D02*
X11118036Y-7795644D01*
X11118036Y-7795644D02*
X11122798Y-7805168D01*
X11122798Y-7805168D02*
X11127560Y-7809930D01*
X11127560Y-7809930D02*
X11137083Y-7814692D01*
X11137083Y-7814692D02*
X11175179Y-7814692D01*
X11079940Y-7771835D02*
X11075179Y-7767073D01*
X11075179Y-7767073D02*
X11065655Y-7762311D01*
X11065655Y-7762311D02*
X11041845Y-7762311D01*
X11041845Y-7762311D02*
X11032321Y-7767073D01*
X11032321Y-7767073D02*
X11027560Y-7771835D01*
X11027560Y-7771835D02*
X11022798Y-7781358D01*
X11022798Y-7781358D02*
X11022798Y-7790882D01*
X11022798Y-7790882D02*
X11027560Y-7805168D01*
X11027560Y-7805168D02*
X11084702Y-7862311D01*
X11084702Y-7862311D02*
X11022798Y-7862311D01*
X10960893Y-7762311D02*
X10951369Y-7762311D01*
X10951369Y-7762311D02*
X10941845Y-7767073D01*
X10941845Y-7767073D02*
X10937083Y-7771835D01*
X10937083Y-7771835D02*
X10932321Y-7781358D01*
X10932321Y-7781358D02*
X10927560Y-7800406D01*
X10927560Y-7800406D02*
X10927560Y-7824216D01*
X10927560Y-7824216D02*
X10932321Y-7843263D01*
X10932321Y-7843263D02*
X10937083Y-7852787D01*
X10937083Y-7852787D02*
X10941845Y-7857549D01*
X10941845Y-7857549D02*
X10951369Y-7862311D01*
X10951369Y-7862311D02*
X10960893Y-7862311D01*
X10960893Y-7862311D02*
X10970417Y-7857549D01*
X10970417Y-7857549D02*
X10975179Y-7852787D01*
X10975179Y-7852787D02*
X10979940Y-7843263D01*
X10979940Y-7843263D02*
X10984702Y-7824216D01*
X10984702Y-7824216D02*
X10984702Y-7800406D01*
X10984702Y-7800406D02*
X10979940Y-7781358D01*
X10979940Y-7781358D02*
X10975179Y-7771835D01*
X10975179Y-7771835D02*
X10970417Y-7767073D01*
X10970417Y-7767073D02*
X10960893Y-7762311D01*
X15720845Y-5651397D02*
X15720845Y-5658132D01*
X15720845Y-5658132D02*
X15727580Y-5671600D01*
X15727580Y-5671600D02*
X15734314Y-5678335D01*
X15734314Y-5678335D02*
X15747783Y-5685069D01*
X15747783Y-5685069D02*
X15761251Y-5685069D01*
X15761251Y-5685069D02*
X15771353Y-5681702D01*
X15771353Y-5681702D02*
X15788189Y-5671600D01*
X15788189Y-5671600D02*
X15798290Y-5661499D01*
X15798290Y-5661499D02*
X15808392Y-5644663D01*
X15808392Y-5644663D02*
X15811759Y-5634561D01*
X15811759Y-5634561D02*
X15811759Y-5621093D01*
X15811759Y-5621093D02*
X15805025Y-5607624D01*
X15805025Y-5607624D02*
X15798290Y-5600890D01*
X15798290Y-5600890D02*
X15784822Y-5594155D01*
X15784822Y-5594155D02*
X15778087Y-5594155D01*
X15646768Y-5590788D02*
X15687174Y-5631194D01*
X15666971Y-5610991D02*
X15737681Y-5540281D01*
X15737681Y-5540281D02*
X15734314Y-5557116D01*
X15734314Y-5557116D02*
X15734314Y-5570585D01*
X15734314Y-5570585D02*
X15737681Y-5580687D01*
X15656869Y-5459468D02*
X15670338Y-5472937D01*
X15670338Y-5472937D02*
X15673705Y-5483039D01*
X15673705Y-5483039D02*
X15673705Y-5489773D01*
X15673705Y-5489773D02*
X15670338Y-5506609D01*
X15670338Y-5506609D02*
X15660236Y-5523445D01*
X15660236Y-5523445D02*
X15633299Y-5550382D01*
X15633299Y-5550382D02*
X15623197Y-5553749D01*
X15623197Y-5553749D02*
X15616463Y-5553749D01*
X15616463Y-5553749D02*
X15606361Y-5550382D01*
X15606361Y-5550382D02*
X15592893Y-5536913D01*
X15592893Y-5536913D02*
X15589526Y-5526812D01*
X15589526Y-5526812D02*
X15589526Y-5520077D01*
X15589526Y-5520077D02*
X15592893Y-5509976D01*
X15592893Y-5509976D02*
X15609729Y-5493140D01*
X15609729Y-5493140D02*
X15619830Y-5489773D01*
X15619830Y-5489773D02*
X15626564Y-5489773D01*
X15626564Y-5489773D02*
X15636666Y-5493140D01*
X15636666Y-5493140D02*
X15650135Y-5506609D01*
X15650135Y-5506609D02*
X15653502Y-5516710D01*
X15653502Y-5516710D02*
X15653502Y-5523445D01*
X15653502Y-5523445D02*
X15650135Y-5533546D01*
X6165482Y-7315138D02*
X6246434Y-7315138D01*
X6246434Y-7315138D02*
X6255958Y-7319900D01*
X6255958Y-7319900D02*
X6260720Y-7324662D01*
X6260720Y-7324662D02*
X6265482Y-7334186D01*
X6265482Y-7334186D02*
X6265482Y-7353234D01*
X6265482Y-7353234D02*
X6260720Y-7362757D01*
X6260720Y-7362757D02*
X6255958Y-7367519D01*
X6255958Y-7367519D02*
X6246434Y-7372281D01*
X6246434Y-7372281D02*
X6165482Y-7372281D01*
X6175006Y-7415138D02*
X6170244Y-7419900D01*
X6170244Y-7419900D02*
X6165482Y-7429424D01*
X6165482Y-7429424D02*
X6165482Y-7453234D01*
X6165482Y-7453234D02*
X6170244Y-7462757D01*
X6170244Y-7462757D02*
X6175006Y-7467519D01*
X6175006Y-7467519D02*
X6184529Y-7472281D01*
X6184529Y-7472281D02*
X6194053Y-7472281D01*
X6194053Y-7472281D02*
X6208339Y-7467519D01*
X6208339Y-7467519D02*
X6265482Y-7410377D01*
X6265482Y-7410377D02*
X6265482Y-7472281D01*
X5168482Y-8817043D02*
X5120863Y-8783710D01*
X5168482Y-8759900D02*
X5068482Y-8759900D01*
X5068482Y-8759900D02*
X5068482Y-8797996D01*
X5068482Y-8797996D02*
X5073244Y-8807519D01*
X5073244Y-8807519D02*
X5078006Y-8812281D01*
X5078006Y-8812281D02*
X5087530Y-8817043D01*
X5087530Y-8817043D02*
X5101815Y-8817043D01*
X5101815Y-8817043D02*
X5111339Y-8812281D01*
X5111339Y-8812281D02*
X5116101Y-8807519D01*
X5116101Y-8807519D02*
X5120863Y-8797996D01*
X5120863Y-8797996D02*
X5120863Y-8759900D01*
X5168482Y-8912281D02*
X5168482Y-8855139D01*
X5168482Y-8883710D02*
X5068482Y-8883710D01*
X5068482Y-8883710D02*
X5082768Y-8874186D01*
X5082768Y-8874186D02*
X5092291Y-8864662D01*
X5092291Y-8864662D02*
X5097053Y-8855139D01*
X5168482Y-9007519D02*
X5168482Y-8950377D01*
X5168482Y-8978948D02*
X5068482Y-8978948D01*
X5068482Y-8978948D02*
X5082768Y-8969424D01*
X5082768Y-8969424D02*
X5092291Y-8959900D01*
X5092291Y-8959900D02*
X5097053Y-8950377D01*
X5438916Y-6046811D02*
X5438916Y-6118239D01*
X5438916Y-6118239D02*
X5443678Y-6132525D01*
X5443678Y-6132525D02*
X5453202Y-6142049D01*
X5453202Y-6142049D02*
X5467487Y-6146811D01*
X5467487Y-6146811D02*
X5477011Y-6146811D01*
X5338916Y-6146811D02*
X5396059Y-6146811D01*
X5367487Y-6146811D02*
X5367487Y-6046811D01*
X5367487Y-6046811D02*
X5377011Y-6061097D01*
X5377011Y-6061097D02*
X5386535Y-6070620D01*
X5386535Y-6070620D02*
X5396059Y-6075382D01*
X17122180Y-7450063D02*
X17179422Y-7439961D01*
X17162586Y-7490469D02*
X17233297Y-7419758D01*
X17233297Y-7419758D02*
X17206359Y-7392821D01*
X17206359Y-7392821D02*
X17196258Y-7389453D01*
X17196258Y-7389453D02*
X17189524Y-7389453D01*
X17189524Y-7389453D02*
X17179422Y-7392821D01*
X17179422Y-7392821D02*
X17169320Y-7402922D01*
X17169320Y-7402922D02*
X17165953Y-7413024D01*
X17165953Y-7413024D02*
X17165953Y-7419758D01*
X17165953Y-7419758D02*
X17169320Y-7429860D01*
X17169320Y-7429860D02*
X17196258Y-7456797D01*
X17169320Y-7355782D02*
X17125547Y-7312008D01*
X17125547Y-7312008D02*
X17122180Y-7362516D01*
X17122180Y-7362516D02*
X17112078Y-7352415D01*
X17112078Y-7352415D02*
X17101977Y-7349047D01*
X17101977Y-7349047D02*
X17095243Y-7349047D01*
X17095243Y-7349047D02*
X17085141Y-7352415D01*
X17085141Y-7352415D02*
X17068305Y-7369250D01*
X17068305Y-7369250D02*
X17064938Y-7379352D01*
X17064938Y-7379352D02*
X17064938Y-7386086D01*
X17064938Y-7386086D02*
X17068305Y-7396188D01*
X17068305Y-7396188D02*
X17088508Y-7416391D01*
X17088508Y-7416391D02*
X17098610Y-7419758D01*
X17098610Y-7419758D02*
X17105344Y-7419758D01*
X17101977Y-7288438D02*
X17058204Y-7244665D01*
X17058204Y-7244665D02*
X17054836Y-7295173D01*
X17054836Y-7295173D02*
X17044735Y-7285071D01*
X17044735Y-7285071D02*
X17034633Y-7281704D01*
X17034633Y-7281704D02*
X17027899Y-7281704D01*
X17027899Y-7281704D02*
X17017798Y-7285071D01*
X17017798Y-7285071D02*
X17000962Y-7301907D01*
X17000962Y-7301907D02*
X16997595Y-7312008D01*
X16997595Y-7312008D02*
X16997595Y-7318743D01*
X16997595Y-7318743D02*
X17000962Y-7328844D01*
X17000962Y-7328844D02*
X17021165Y-7349047D01*
X17021165Y-7349047D02*
X17031266Y-7352415D01*
X17031266Y-7352415D02*
X17038001Y-7352415D01*
X15874959Y-5473670D02*
X15898529Y-5450100D01*
X15935568Y-5487139D02*
X15864857Y-5416428D01*
X15864857Y-5416428D02*
X15831186Y-5450100D01*
X15814350Y-5534279D02*
X15807615Y-5547748D01*
X15807615Y-5547748D02*
X15807615Y-5554482D01*
X15807615Y-5554482D02*
X15810982Y-5564584D01*
X15810982Y-5564584D02*
X15821084Y-5574685D01*
X15821084Y-5574685D02*
X15831186Y-5578053D01*
X15831186Y-5578053D02*
X15837920Y-5578053D01*
X15837920Y-5578053D02*
X15848021Y-5574685D01*
X15848021Y-5574685D02*
X15874959Y-5547748D01*
X15874959Y-5547748D02*
X15804248Y-5477037D01*
X15804248Y-5477037D02*
X15780678Y-5500608D01*
X15780678Y-5500608D02*
X15777311Y-5510709D01*
X15777311Y-5510709D02*
X15777311Y-5517443D01*
X15777311Y-5517443D02*
X15780678Y-5527545D01*
X15780678Y-5527545D02*
X15787412Y-5534279D01*
X15787412Y-5534279D02*
X15797514Y-5537647D01*
X15797514Y-5537647D02*
X15804248Y-5537647D01*
X15804248Y-5537647D02*
X15814350Y-5534279D01*
X15814350Y-5534279D02*
X15837920Y-5510709D01*
X15767209Y-5655498D02*
X15807615Y-5615091D01*
X15787412Y-5635294D02*
X15716702Y-5564584D01*
X15716702Y-5564584D02*
X15733537Y-5567951D01*
X15733537Y-5567951D02*
X15747006Y-5567951D01*
X15747006Y-5567951D02*
X15757108Y-5564584D01*
X5089524Y-8414335D02*
X5099048Y-8409573D01*
X5099048Y-8409573D02*
X5108571Y-8400049D01*
X5108571Y-8400049D02*
X5122857Y-8385763D01*
X5122857Y-8385763D02*
X5132381Y-8381001D01*
X5132381Y-8381001D02*
X5141905Y-8381001D01*
X5137143Y-8404811D02*
X5146667Y-8400049D01*
X5146667Y-8400049D02*
X5156190Y-8390525D01*
X5156190Y-8390525D02*
X5160952Y-8371477D01*
X5160952Y-8371477D02*
X5160952Y-8338144D01*
X5160952Y-8338144D02*
X5156190Y-8319097D01*
X5156190Y-8319097D02*
X5146667Y-8309573D01*
X5146667Y-8309573D02*
X5137143Y-8304811D01*
X5137143Y-8304811D02*
X5118095Y-8304811D01*
X5118095Y-8304811D02*
X5108571Y-8309573D01*
X5108571Y-8309573D02*
X5099048Y-8319097D01*
X5099048Y-8319097D02*
X5094286Y-8338144D01*
X5094286Y-8338144D02*
X5094286Y-8371477D01*
X5094286Y-8371477D02*
X5099048Y-8390525D01*
X5099048Y-8390525D02*
X5108571Y-8400049D01*
X5108571Y-8400049D02*
X5118095Y-8404811D01*
X5118095Y-8404811D02*
X5137143Y-8404811D01*
X4999048Y-8404811D02*
X5056190Y-8404811D01*
X5027619Y-8404811D02*
X5027619Y-8304811D01*
X5027619Y-8304811D02*
X5037143Y-8319097D01*
X5037143Y-8319097D02*
X5046667Y-8328620D01*
X5046667Y-8328620D02*
X5056190Y-8333382D01*
X6920958Y-5684662D02*
X6925720Y-5679900D01*
X6925720Y-5679900D02*
X6930482Y-5665615D01*
X6930482Y-5665615D02*
X6930482Y-5656091D01*
X6930482Y-5656091D02*
X6925720Y-5641805D01*
X6925720Y-5641805D02*
X6916196Y-5632281D01*
X6916196Y-5632281D02*
X6906672Y-5627519D01*
X6906672Y-5627519D02*
X6887625Y-5622758D01*
X6887625Y-5622758D02*
X6873339Y-5622758D01*
X6873339Y-5622758D02*
X6854291Y-5627519D01*
X6854291Y-5627519D02*
X6844768Y-5632281D01*
X6844768Y-5632281D02*
X6835244Y-5641805D01*
X6835244Y-5641805D02*
X6830482Y-5656091D01*
X6830482Y-5656091D02*
X6830482Y-5665615D01*
X6830482Y-5665615D02*
X6835244Y-5679900D01*
X6835244Y-5679900D02*
X6840006Y-5684662D01*
X6830482Y-5770377D02*
X6830482Y-5751329D01*
X6830482Y-5751329D02*
X6835244Y-5741805D01*
X6835244Y-5741805D02*
X6840006Y-5737043D01*
X6840006Y-5737043D02*
X6854291Y-5727519D01*
X6854291Y-5727519D02*
X6873339Y-5722758D01*
X6873339Y-5722758D02*
X6911434Y-5722758D01*
X6911434Y-5722758D02*
X6920958Y-5727519D01*
X6920958Y-5727519D02*
X6925720Y-5732281D01*
X6925720Y-5732281D02*
X6930482Y-5741805D01*
X6930482Y-5741805D02*
X6930482Y-5760853D01*
X6930482Y-5760853D02*
X6925720Y-5770377D01*
X6925720Y-5770377D02*
X6920958Y-5775138D01*
X6920958Y-5775138D02*
X6911434Y-5779900D01*
X6911434Y-5779900D02*
X6887625Y-5779900D01*
X6887625Y-5779900D02*
X6878101Y-5775138D01*
X6878101Y-5775138D02*
X6873339Y-5770377D01*
X6873339Y-5770377D02*
X6868577Y-5760853D01*
X6868577Y-5760853D02*
X6868577Y-5741805D01*
X6868577Y-5741805D02*
X6873339Y-5732281D01*
X6873339Y-5732281D02*
X6878101Y-5727519D01*
X6878101Y-5727519D02*
X6887625Y-5722758D01*
X20720958Y-8397043D02*
X20725720Y-8392281D01*
X20725720Y-8392281D02*
X20730482Y-8377996D01*
X20730482Y-8377996D02*
X20730482Y-8368472D01*
X20730482Y-8368472D02*
X20725720Y-8354186D01*
X20725720Y-8354186D02*
X20716196Y-8344662D01*
X20716196Y-8344662D02*
X20706672Y-8339900D01*
X20706672Y-8339900D02*
X20687625Y-8335138D01*
X20687625Y-8335138D02*
X20673339Y-8335138D01*
X20673339Y-8335138D02*
X20654292Y-8339900D01*
X20654292Y-8339900D02*
X20644768Y-8344662D01*
X20644768Y-8344662D02*
X20635244Y-8354186D01*
X20635244Y-8354186D02*
X20630482Y-8368472D01*
X20630482Y-8368472D02*
X20630482Y-8377996D01*
X20630482Y-8377996D02*
X20635244Y-8392281D01*
X20635244Y-8392281D02*
X20640006Y-8397043D01*
X20640006Y-8435139D02*
X20635244Y-8439900D01*
X20635244Y-8439900D02*
X20630482Y-8449424D01*
X20630482Y-8449424D02*
X20630482Y-8473234D01*
X20630482Y-8473234D02*
X20635244Y-8482758D01*
X20635244Y-8482758D02*
X20640006Y-8487519D01*
X20640006Y-8487519D02*
X20649530Y-8492281D01*
X20649530Y-8492281D02*
X20659053Y-8492281D01*
X20659053Y-8492281D02*
X20673339Y-8487519D01*
X20673339Y-8487519D02*
X20730482Y-8430377D01*
X20730482Y-8430377D02*
X20730482Y-8492281D01*
X20673339Y-8549424D02*
X20668577Y-8539900D01*
X20668577Y-8539900D02*
X20663815Y-8535139D01*
X20663815Y-8535139D02*
X20654292Y-8530377D01*
X20654292Y-8530377D02*
X20649530Y-8530377D01*
X20649530Y-8530377D02*
X20640006Y-8535139D01*
X20640006Y-8535139D02*
X20635244Y-8539900D01*
X20635244Y-8539900D02*
X20630482Y-8549424D01*
X20630482Y-8549424D02*
X20630482Y-8568472D01*
X20630482Y-8568472D02*
X20635244Y-8577996D01*
X20635244Y-8577996D02*
X20640006Y-8582758D01*
X20640006Y-8582758D02*
X20649530Y-8587519D01*
X20649530Y-8587519D02*
X20654292Y-8587519D01*
X20654292Y-8587519D02*
X20663815Y-8582758D01*
X20663815Y-8582758D02*
X20668577Y-8577996D01*
X20668577Y-8577996D02*
X20673339Y-8568472D01*
X20673339Y-8568472D02*
X20673339Y-8549424D01*
X20673339Y-8549424D02*
X20678101Y-8539900D01*
X20678101Y-8539900D02*
X20682863Y-8535139D01*
X20682863Y-8535139D02*
X20692387Y-8530377D01*
X20692387Y-8530377D02*
X20711434Y-8530377D01*
X20711434Y-8530377D02*
X20720958Y-8535139D01*
X20720958Y-8535139D02*
X20725720Y-8539900D01*
X20725720Y-8539900D02*
X20730482Y-8549424D01*
X20730482Y-8549424D02*
X20730482Y-8568472D01*
X20730482Y-8568472D02*
X20725720Y-8577996D01*
X20725720Y-8577996D02*
X20720958Y-8582758D01*
X20720958Y-8582758D02*
X20711434Y-8587519D01*
X20711434Y-8587519D02*
X20692387Y-8587519D01*
X20692387Y-8587519D02*
X20682863Y-8582758D01*
X20682863Y-8582758D02*
X20678101Y-8577996D01*
X20678101Y-8577996D02*
X20673339Y-8568472D01*
X8470958Y-8674662D02*
X8475720Y-8669900D01*
X8475720Y-8669900D02*
X8480482Y-8655615D01*
X8480482Y-8655615D02*
X8480482Y-8646091D01*
X8480482Y-8646091D02*
X8475720Y-8631805D01*
X8475720Y-8631805D02*
X8466196Y-8622281D01*
X8466196Y-8622281D02*
X8456672Y-8617520D01*
X8456672Y-8617520D02*
X8437625Y-8612758D01*
X8437625Y-8612758D02*
X8423339Y-8612758D01*
X8423339Y-8612758D02*
X8404291Y-8617520D01*
X8404291Y-8617520D02*
X8394768Y-8622281D01*
X8394768Y-8622281D02*
X8385244Y-8631805D01*
X8385244Y-8631805D02*
X8380482Y-8646091D01*
X8380482Y-8646091D02*
X8380482Y-8655615D01*
X8380482Y-8655615D02*
X8385244Y-8669900D01*
X8385244Y-8669900D02*
X8390006Y-8674662D01*
X8480482Y-8722281D02*
X8480482Y-8741329D01*
X8480482Y-8741329D02*
X8475720Y-8750853D01*
X8475720Y-8750853D02*
X8470958Y-8755615D01*
X8470958Y-8755615D02*
X8456672Y-8765139D01*
X8456672Y-8765139D02*
X8437625Y-8769900D01*
X8437625Y-8769900D02*
X8399530Y-8769900D01*
X8399530Y-8769900D02*
X8390006Y-8765139D01*
X8390006Y-8765139D02*
X8385244Y-8760377D01*
X8385244Y-8760377D02*
X8380482Y-8750853D01*
X8380482Y-8750853D02*
X8380482Y-8731805D01*
X8380482Y-8731805D02*
X8385244Y-8722281D01*
X8385244Y-8722281D02*
X8390006Y-8717520D01*
X8390006Y-8717520D02*
X8399530Y-8712758D01*
X8399530Y-8712758D02*
X8423339Y-8712758D01*
X8423339Y-8712758D02*
X8432863Y-8717520D01*
X8432863Y-8717520D02*
X8437625Y-8722281D01*
X8437625Y-8722281D02*
X8442387Y-8731805D01*
X8442387Y-8731805D02*
X8442387Y-8750853D01*
X8442387Y-8750853D02*
X8437625Y-8760377D01*
X8437625Y-8760377D02*
X8432863Y-8765139D01*
X8432863Y-8765139D02*
X8423339Y-8769900D01*
X15469166Y-7449913D02*
X15411924Y-7507155D01*
X15411924Y-7507155D02*
X15401822Y-7510522D01*
X15401822Y-7510522D02*
X15395088Y-7510522D01*
X15395088Y-7510522D02*
X15384986Y-7507155D01*
X15384986Y-7507155D02*
X15371518Y-7493686D01*
X15371518Y-7493686D02*
X15368151Y-7483584D01*
X15368151Y-7483584D02*
X15368151Y-7476850D01*
X15368151Y-7476850D02*
X15371518Y-7466748D01*
X15371518Y-7466748D02*
X15428760Y-7409506D01*
X15341213Y-7369100D02*
X15294073Y-7416241D01*
X15384986Y-7358999D02*
X15351315Y-7426342D01*
X15351315Y-7426342D02*
X15307541Y-7382569D01*
X19173482Y-9185139D02*
X19254434Y-9185139D01*
X19254434Y-9185139D02*
X19263958Y-9189900D01*
X19263958Y-9189900D02*
X19268720Y-9194662D01*
X19268720Y-9194662D02*
X19273482Y-9204186D01*
X19273482Y-9204186D02*
X19273482Y-9223234D01*
X19273482Y-9223234D02*
X19268720Y-9232758D01*
X19268720Y-9232758D02*
X19263958Y-9237519D01*
X19263958Y-9237519D02*
X19254434Y-9242281D01*
X19254434Y-9242281D02*
X19173482Y-9242281D01*
X19273482Y-9294662D02*
X19273482Y-9313710D01*
X19273482Y-9313710D02*
X19268720Y-9323234D01*
X19268720Y-9323234D02*
X19263958Y-9327996D01*
X19263958Y-9327996D02*
X19249672Y-9337519D01*
X19249672Y-9337519D02*
X19230625Y-9342281D01*
X19230625Y-9342281D02*
X19192530Y-9342281D01*
X19192530Y-9342281D02*
X19183006Y-9337519D01*
X19183006Y-9337519D02*
X19178244Y-9332758D01*
X19178244Y-9332758D02*
X19173482Y-9323234D01*
X19173482Y-9323234D02*
X19173482Y-9304186D01*
X19173482Y-9304186D02*
X19178244Y-9294662D01*
X19178244Y-9294662D02*
X19183006Y-9289900D01*
X19183006Y-9289900D02*
X19192530Y-9285139D01*
X19192530Y-9285139D02*
X19216339Y-9285139D01*
X19216339Y-9285139D02*
X19225863Y-9289900D01*
X19225863Y-9289900D02*
X19230625Y-9294662D01*
X19230625Y-9294662D02*
X19235387Y-9304186D01*
X19235387Y-9304186D02*
X19235387Y-9323234D01*
X19235387Y-9323234D02*
X19230625Y-9332758D01*
X19230625Y-9332758D02*
X19225863Y-9337519D01*
X19225863Y-9337519D02*
X19216339Y-9342281D01*
X8279232Y-5615138D02*
X8360184Y-5615138D01*
X8360184Y-5615138D02*
X8369708Y-5619900D01*
X8369708Y-5619900D02*
X8374470Y-5624662D01*
X8374470Y-5624662D02*
X8379232Y-5634186D01*
X8379232Y-5634186D02*
X8379232Y-5653234D01*
X8379232Y-5653234D02*
X8374470Y-5662757D01*
X8374470Y-5662757D02*
X8369708Y-5667519D01*
X8369708Y-5667519D02*
X8360184Y-5672281D01*
X8360184Y-5672281D02*
X8279232Y-5672281D01*
X8379232Y-5772281D02*
X8379232Y-5715138D01*
X8379232Y-5743710D02*
X8279232Y-5743710D01*
X8279232Y-5743710D02*
X8293518Y-5734186D01*
X8293518Y-5734186D02*
X8303041Y-5724662D01*
X8303041Y-5724662D02*
X8307803Y-5715138D01*
X10845482Y-7117638D02*
X10845482Y-7174781D01*
X10945482Y-7146210D02*
X10845482Y-7146210D01*
X10945482Y-7208115D02*
X10845482Y-7208115D01*
X10845482Y-7208115D02*
X10845482Y-7246210D01*
X10845482Y-7246210D02*
X10850244Y-7255734D01*
X10850244Y-7255734D02*
X10855006Y-7260496D01*
X10855006Y-7260496D02*
X10864530Y-7265257D01*
X10864530Y-7265257D02*
X10878815Y-7265257D01*
X10878815Y-7265257D02*
X10888339Y-7260496D01*
X10888339Y-7260496D02*
X10893101Y-7255734D01*
X10893101Y-7255734D02*
X10897863Y-7246210D01*
X10897863Y-7246210D02*
X10897863Y-7208115D01*
X10945482Y-7360496D02*
X10945482Y-7303353D01*
X10945482Y-7331924D02*
X10845482Y-7331924D01*
X10845482Y-7331924D02*
X10859768Y-7322400D01*
X10859768Y-7322400D02*
X10869291Y-7312877D01*
X10869291Y-7312877D02*
X10874053Y-7303353D01*
X10670958Y-8347043D02*
X10675720Y-8342281D01*
X10675720Y-8342281D02*
X10680482Y-8327996D01*
X10680482Y-8327996D02*
X10680482Y-8318472D01*
X10680482Y-8318472D02*
X10675720Y-8304186D01*
X10675720Y-8304186D02*
X10666196Y-8294662D01*
X10666196Y-8294662D02*
X10656672Y-8289900D01*
X10656672Y-8289900D02*
X10637625Y-8285138D01*
X10637625Y-8285138D02*
X10623339Y-8285138D01*
X10623339Y-8285138D02*
X10604292Y-8289900D01*
X10604292Y-8289900D02*
X10594768Y-8294662D01*
X10594768Y-8294662D02*
X10585244Y-8304186D01*
X10585244Y-8304186D02*
X10580482Y-8318472D01*
X10580482Y-8318472D02*
X10580482Y-8327996D01*
X10580482Y-8327996D02*
X10585244Y-8342281D01*
X10585244Y-8342281D02*
X10590006Y-8347043D01*
X10590006Y-8385138D02*
X10585244Y-8389900D01*
X10585244Y-8389900D02*
X10580482Y-8399424D01*
X10580482Y-8399424D02*
X10580482Y-8423234D01*
X10580482Y-8423234D02*
X10585244Y-8432758D01*
X10585244Y-8432758D02*
X10590006Y-8437519D01*
X10590006Y-8437519D02*
X10599530Y-8442281D01*
X10599530Y-8442281D02*
X10609053Y-8442281D01*
X10609053Y-8442281D02*
X10623339Y-8437519D01*
X10623339Y-8437519D02*
X10680482Y-8380377D01*
X10680482Y-8380377D02*
X10680482Y-8442281D01*
X10580482Y-8532758D02*
X10580482Y-8485139D01*
X10580482Y-8485139D02*
X10628101Y-8480377D01*
X10628101Y-8480377D02*
X10623339Y-8485139D01*
X10623339Y-8485139D02*
X10618577Y-8494662D01*
X10618577Y-8494662D02*
X10618577Y-8518472D01*
X10618577Y-8518472D02*
X10623339Y-8527996D01*
X10623339Y-8527996D02*
X10628101Y-8532758D01*
X10628101Y-8532758D02*
X10637625Y-8537519D01*
X10637625Y-8537519D02*
X10661434Y-8537519D01*
X10661434Y-8537519D02*
X10670958Y-8532758D01*
X10670958Y-8532758D02*
X10675720Y-8527996D01*
X10675720Y-8527996D02*
X10680482Y-8518472D01*
X10680482Y-8518472D02*
X10680482Y-8494662D01*
X10680482Y-8494662D02*
X10675720Y-8485139D01*
X10675720Y-8485139D02*
X10670958Y-8480377D01*
X16300845Y-5901397D02*
X16300845Y-5908132D01*
X16300845Y-5908132D02*
X16307580Y-5921600D01*
X16307580Y-5921600D02*
X16314314Y-5928335D01*
X16314314Y-5928335D02*
X16327783Y-5935069D01*
X16327783Y-5935069D02*
X16341251Y-5935069D01*
X16341251Y-5935069D02*
X16351353Y-5931702D01*
X16351353Y-5931702D02*
X16368189Y-5921600D01*
X16368189Y-5921600D02*
X16378290Y-5911499D01*
X16378290Y-5911499D02*
X16388392Y-5894663D01*
X16388392Y-5894663D02*
X16391759Y-5884561D01*
X16391759Y-5884561D02*
X16391759Y-5871093D01*
X16391759Y-5871093D02*
X16385025Y-5857624D01*
X16385025Y-5857624D02*
X16378290Y-5850890D01*
X16378290Y-5850890D02*
X16364822Y-5844155D01*
X16364822Y-5844155D02*
X16358087Y-5844155D01*
X16331150Y-5817218D02*
X16331150Y-5810483D01*
X16331150Y-5810483D02*
X16327783Y-5800382D01*
X16327783Y-5800382D02*
X16310947Y-5783546D01*
X16310947Y-5783546D02*
X16300845Y-5780179D01*
X16300845Y-5780179D02*
X16294111Y-5780179D01*
X16294111Y-5780179D02*
X16284009Y-5783546D01*
X16284009Y-5783546D02*
X16277275Y-5790280D01*
X16277275Y-5790280D02*
X16270541Y-5803749D01*
X16270541Y-5803749D02*
X16270541Y-5884561D01*
X16270541Y-5884561D02*
X16226768Y-5840788D01*
X16263806Y-5749874D02*
X16263806Y-5743140D01*
X16263806Y-5743140D02*
X16260439Y-5733038D01*
X16260439Y-5733038D02*
X16243603Y-5716203D01*
X16243603Y-5716203D02*
X16233502Y-5712835D01*
X16233502Y-5712835D02*
X16226767Y-5712835D01*
X16226767Y-5712835D02*
X16216666Y-5716203D01*
X16216666Y-5716203D02*
X16209932Y-5722937D01*
X16209932Y-5722937D02*
X16203197Y-5736406D01*
X16203197Y-5736406D02*
X16203197Y-5817218D01*
X16203197Y-5817218D02*
X16159424Y-5773445D01*
X14893353Y-6681404D02*
X14926686Y-6633784D01*
X14950496Y-6681404D02*
X14950496Y-6581404D01*
X14950496Y-6581404D02*
X14912401Y-6581404D01*
X14912401Y-6581404D02*
X14902877Y-6586165D01*
X14902877Y-6586165D02*
X14898115Y-6590927D01*
X14898115Y-6590927D02*
X14893353Y-6600451D01*
X14893353Y-6600451D02*
X14893353Y-6614737D01*
X14893353Y-6614737D02*
X14898115Y-6624261D01*
X14898115Y-6624261D02*
X14902877Y-6629023D01*
X14902877Y-6629023D02*
X14912401Y-6633784D01*
X14912401Y-6633784D02*
X14950496Y-6633784D01*
X14798115Y-6681404D02*
X14855258Y-6681404D01*
X14826686Y-6681404D02*
X14826686Y-6581404D01*
X14826686Y-6581404D02*
X14836210Y-6595689D01*
X14836210Y-6595689D02*
X14845734Y-6605213D01*
X14845734Y-6605213D02*
X14855258Y-6609975D01*
X14740972Y-6624261D02*
X14750496Y-6619499D01*
X14750496Y-6619499D02*
X14755258Y-6614737D01*
X14755258Y-6614737D02*
X14760020Y-6605213D01*
X14760020Y-6605213D02*
X14760020Y-6600451D01*
X14760020Y-6600451D02*
X14755258Y-6590927D01*
X14755258Y-6590927D02*
X14750496Y-6586165D01*
X14750496Y-6586165D02*
X14740972Y-6581404D01*
X14740972Y-6581404D02*
X14721925Y-6581404D01*
X14721925Y-6581404D02*
X14712401Y-6586165D01*
X14712401Y-6586165D02*
X14707639Y-6590927D01*
X14707639Y-6590927D02*
X14702877Y-6600451D01*
X14702877Y-6600451D02*
X14702877Y-6605213D01*
X14702877Y-6605213D02*
X14707639Y-6614737D01*
X14707639Y-6614737D02*
X14712401Y-6619499D01*
X14712401Y-6619499D02*
X14721925Y-6624261D01*
X14721925Y-6624261D02*
X14740972Y-6624261D01*
X14740972Y-6624261D02*
X14750496Y-6629023D01*
X14750496Y-6629023D02*
X14755258Y-6633784D01*
X14755258Y-6633784D02*
X14760020Y-6643308D01*
X14760020Y-6643308D02*
X14760020Y-6662356D01*
X14760020Y-6662356D02*
X14755258Y-6671880D01*
X14755258Y-6671880D02*
X14750496Y-6676642D01*
X14750496Y-6676642D02*
X14740972Y-6681404D01*
X14740972Y-6681404D02*
X14721925Y-6681404D01*
X14721925Y-6681404D02*
X14712401Y-6676642D01*
X14712401Y-6676642D02*
X14707639Y-6671880D01*
X14707639Y-6671880D02*
X14702877Y-6662356D01*
X14702877Y-6662356D02*
X14702877Y-6643308D01*
X14702877Y-6643308D02*
X14707639Y-6633784D01*
X14707639Y-6633784D02*
X14712401Y-6629023D01*
X14712401Y-6629023D02*
X14721925Y-6624261D01*
X19814286Y-7973811D02*
X19847619Y-7926192D01*
X19871429Y-7973811D02*
X19871429Y-7873811D01*
X19871429Y-7873811D02*
X19833333Y-7873811D01*
X19833333Y-7873811D02*
X19823810Y-7878573D01*
X19823810Y-7878573D02*
X19819048Y-7883335D01*
X19819048Y-7883335D02*
X19814286Y-7892858D01*
X19814286Y-7892858D02*
X19814286Y-7907144D01*
X19814286Y-7907144D02*
X19819048Y-7916668D01*
X19819048Y-7916668D02*
X19823810Y-7921430D01*
X19823810Y-7921430D02*
X19833333Y-7926192D01*
X19833333Y-7926192D02*
X19871429Y-7926192D01*
X19728571Y-7907144D02*
X19728571Y-7973811D01*
X19752381Y-7869049D02*
X19776190Y-7940477D01*
X19776190Y-7940477D02*
X19714286Y-7940477D01*
X19657143Y-7873811D02*
X19647619Y-7873811D01*
X19647619Y-7873811D02*
X19638095Y-7878573D01*
X19638095Y-7878573D02*
X19633333Y-7883335D01*
X19633333Y-7883335D02*
X19628571Y-7892858D01*
X19628571Y-7892858D02*
X19623810Y-7911906D01*
X19623810Y-7911906D02*
X19623810Y-7935716D01*
X19623810Y-7935716D02*
X19628571Y-7954763D01*
X19628571Y-7954763D02*
X19633333Y-7964287D01*
X19633333Y-7964287D02*
X19638095Y-7969049D01*
X19638095Y-7969049D02*
X19647619Y-7973811D01*
X19647619Y-7973811D02*
X19657143Y-7973811D01*
X19657143Y-7973811D02*
X19666667Y-7969049D01*
X19666667Y-7969049D02*
X19671429Y-7964287D01*
X19671429Y-7964287D02*
X19676190Y-7954763D01*
X19676190Y-7954763D02*
X19680952Y-7935716D01*
X19680952Y-7935716D02*
X19680952Y-7911906D01*
X19680952Y-7911906D02*
X19676190Y-7892858D01*
X19676190Y-7892858D02*
X19671429Y-7883335D01*
X19671429Y-7883335D02*
X19666667Y-7878573D01*
X19666667Y-7878573D02*
X19657143Y-7873811D01*
X9270958Y-5304662D02*
X9275720Y-5299900D01*
X9275720Y-5299900D02*
X9280482Y-5285615D01*
X9280482Y-5285615D02*
X9280482Y-5276091D01*
X9280482Y-5276091D02*
X9275720Y-5261805D01*
X9275720Y-5261805D02*
X9266196Y-5252281D01*
X9266196Y-5252281D02*
X9256672Y-5247520D01*
X9256672Y-5247520D02*
X9237625Y-5242758D01*
X9237625Y-5242758D02*
X9223339Y-5242758D01*
X9223339Y-5242758D02*
X9204291Y-5247520D01*
X9204291Y-5247520D02*
X9194768Y-5252281D01*
X9194768Y-5252281D02*
X9185244Y-5261805D01*
X9185244Y-5261805D02*
X9180482Y-5276091D01*
X9180482Y-5276091D02*
X9180482Y-5285615D01*
X9180482Y-5285615D02*
X9185244Y-5299900D01*
X9185244Y-5299900D02*
X9190006Y-5304662D01*
X9180482Y-5395139D02*
X9180482Y-5347520D01*
X9180482Y-5347520D02*
X9228101Y-5342758D01*
X9228101Y-5342758D02*
X9223339Y-5347520D01*
X9223339Y-5347520D02*
X9218577Y-5357043D01*
X9218577Y-5357043D02*
X9218577Y-5380853D01*
X9218577Y-5380853D02*
X9223339Y-5390377D01*
X9223339Y-5390377D02*
X9228101Y-5395139D01*
X9228101Y-5395139D02*
X9237625Y-5399900D01*
X9237625Y-5399900D02*
X9261434Y-5399900D01*
X9261434Y-5399900D02*
X9270958Y-5395139D01*
X9270958Y-5395139D02*
X9275720Y-5390377D01*
X9275720Y-5390377D02*
X9280482Y-5380853D01*
X9280482Y-5380853D02*
X9280482Y-5357043D01*
X9280482Y-5357043D02*
X9275720Y-5347520D01*
X9275720Y-5347520D02*
X9270958Y-5342758D01*
X13762622Y-6147049D02*
X13748337Y-6151811D01*
X13748337Y-6151811D02*
X13724527Y-6151811D01*
X13724527Y-6151811D02*
X13715003Y-6147049D01*
X13715003Y-6147049D02*
X13710242Y-6142287D01*
X13710242Y-6142287D02*
X13705480Y-6132763D01*
X13705480Y-6132763D02*
X13705480Y-6123239D01*
X13705480Y-6123239D02*
X13710242Y-6113716D01*
X13710242Y-6113716D02*
X13715003Y-6108954D01*
X13715003Y-6108954D02*
X13724527Y-6104192D01*
X13724527Y-6104192D02*
X13743575Y-6099430D01*
X13743575Y-6099430D02*
X13753099Y-6094668D01*
X13753099Y-6094668D02*
X13757861Y-6089906D01*
X13757861Y-6089906D02*
X13762622Y-6080382D01*
X13762622Y-6080382D02*
X13762622Y-6070859D01*
X13762622Y-6070859D02*
X13757861Y-6061335D01*
X13757861Y-6061335D02*
X13753099Y-6056573D01*
X13753099Y-6056573D02*
X13743575Y-6051811D01*
X13743575Y-6051811D02*
X13719765Y-6051811D01*
X13719765Y-6051811D02*
X13705480Y-6056573D01*
X13672146Y-6051811D02*
X13648337Y-6151811D01*
X13648337Y-6151811D02*
X13629289Y-6080382D01*
X13629289Y-6080382D02*
X13610242Y-6151811D01*
X13610242Y-6151811D02*
X13586432Y-6051811D01*
X13505480Y-6085144D02*
X13505480Y-6151811D01*
X13529289Y-6047049D02*
X13553099Y-6118478D01*
X13553099Y-6118478D02*
X13491194Y-6118478D01*
X18037536Y-5149811D02*
X18070869Y-5102192D01*
X18094679Y-5149811D02*
X18094679Y-5049811D01*
X18094679Y-5049811D02*
X18056583Y-5049811D01*
X18056583Y-5049811D02*
X18047060Y-5054573D01*
X18047060Y-5054573D02*
X18042298Y-5059335D01*
X18042298Y-5059335D02*
X18037536Y-5068859D01*
X18037536Y-5068859D02*
X18037536Y-5083144D01*
X18037536Y-5083144D02*
X18042298Y-5092668D01*
X18042298Y-5092668D02*
X18047060Y-5097430D01*
X18047060Y-5097430D02*
X18056583Y-5102192D01*
X18056583Y-5102192D02*
X18094679Y-5102192D01*
X17942298Y-5149811D02*
X17999440Y-5149811D01*
X17970869Y-5149811D02*
X17970869Y-5049811D01*
X17970869Y-5049811D02*
X17980393Y-5064097D01*
X17980393Y-5064097D02*
X17989917Y-5073620D01*
X17989917Y-5073620D02*
X17999440Y-5078382D01*
X17894679Y-5149811D02*
X17875631Y-5149811D01*
X17875631Y-5149811D02*
X17866107Y-5145049D01*
X17866107Y-5145049D02*
X17861345Y-5140287D01*
X17861345Y-5140287D02*
X17851821Y-5126001D01*
X17851821Y-5126001D02*
X17847060Y-5106954D01*
X17847060Y-5106954D02*
X17847060Y-5068859D01*
X17847060Y-5068859D02*
X17851821Y-5059335D01*
X17851821Y-5059335D02*
X17856583Y-5054573D01*
X17856583Y-5054573D02*
X17866107Y-5049811D01*
X17866107Y-5049811D02*
X17885155Y-5049811D01*
X17885155Y-5049811D02*
X17894679Y-5054573D01*
X17894679Y-5054573D02*
X17899440Y-5059335D01*
X17899440Y-5059335D02*
X17904202Y-5068859D01*
X17904202Y-5068859D02*
X17904202Y-5092668D01*
X17904202Y-5092668D02*
X17899440Y-5102192D01*
X17899440Y-5102192D02*
X17894679Y-5106954D01*
X17894679Y-5106954D02*
X17885155Y-5111716D01*
X17885155Y-5111716D02*
X17866107Y-5111716D01*
X17866107Y-5111716D02*
X17856583Y-5106954D01*
X17856583Y-5106954D02*
X17851821Y-5102192D01*
X17851821Y-5102192D02*
X17847060Y-5092668D01*
X18693036Y-5749811D02*
X18726369Y-5702192D01*
X18750179Y-5749811D02*
X18750179Y-5649811D01*
X18750179Y-5649811D02*
X18712083Y-5649811D01*
X18712083Y-5649811D02*
X18702560Y-5654573D01*
X18702560Y-5654573D02*
X18697798Y-5659335D01*
X18697798Y-5659335D02*
X18693036Y-5668858D01*
X18693036Y-5668858D02*
X18693036Y-5683144D01*
X18693036Y-5683144D02*
X18697798Y-5692668D01*
X18697798Y-5692668D02*
X18702560Y-5697430D01*
X18702560Y-5697430D02*
X18712083Y-5702192D01*
X18712083Y-5702192D02*
X18750179Y-5702192D01*
X18654940Y-5659335D02*
X18650179Y-5654573D01*
X18650179Y-5654573D02*
X18640655Y-5649811D01*
X18640655Y-5649811D02*
X18616845Y-5649811D01*
X18616845Y-5649811D02*
X18607321Y-5654573D01*
X18607321Y-5654573D02*
X18602560Y-5659335D01*
X18602560Y-5659335D02*
X18597798Y-5668858D01*
X18597798Y-5668858D02*
X18597798Y-5678382D01*
X18597798Y-5678382D02*
X18602560Y-5692668D01*
X18602560Y-5692668D02*
X18659702Y-5749811D01*
X18659702Y-5749811D02*
X18597798Y-5749811D01*
X18559702Y-5659335D02*
X18554940Y-5654573D01*
X18554940Y-5654573D02*
X18545417Y-5649811D01*
X18545417Y-5649811D02*
X18521607Y-5649811D01*
X18521607Y-5649811D02*
X18512083Y-5654573D01*
X18512083Y-5654573D02*
X18507321Y-5659335D01*
X18507321Y-5659335D02*
X18502560Y-5668858D01*
X18502560Y-5668858D02*
X18502560Y-5678382D01*
X18502560Y-5678382D02*
X18507321Y-5692668D01*
X18507321Y-5692668D02*
X18564464Y-5749811D01*
X18564464Y-5749811D02*
X18502560Y-5749811D01*
X13243575Y-5949811D02*
X13276908Y-5902192D01*
X13300718Y-5949811D02*
X13300718Y-5849811D01*
X13300718Y-5849811D02*
X13262623Y-5849811D01*
X13262623Y-5849811D02*
X13253099Y-5854573D01*
X13253099Y-5854573D02*
X13248337Y-5859335D01*
X13248337Y-5859335D02*
X13243575Y-5868858D01*
X13243575Y-5868858D02*
X13243575Y-5883144D01*
X13243575Y-5883144D02*
X13248337Y-5892668D01*
X13248337Y-5892668D02*
X13253099Y-5897430D01*
X13253099Y-5897430D02*
X13262623Y-5902192D01*
X13262623Y-5902192D02*
X13300718Y-5902192D01*
X13148337Y-5949811D02*
X13205480Y-5949811D01*
X13176908Y-5949811D02*
X13176908Y-5849811D01*
X13176908Y-5849811D02*
X13186432Y-5864096D01*
X13186432Y-5864096D02*
X13195956Y-5873620D01*
X13195956Y-5873620D02*
X13205480Y-5878382D01*
X13057861Y-5849811D02*
X13105480Y-5849811D01*
X13105480Y-5849811D02*
X13110242Y-5897430D01*
X13110242Y-5897430D02*
X13105480Y-5892668D01*
X13105480Y-5892668D02*
X13095956Y-5887906D01*
X13095956Y-5887906D02*
X13072147Y-5887906D01*
X13072147Y-5887906D02*
X13062623Y-5892668D01*
X13062623Y-5892668D02*
X13057861Y-5897430D01*
X13057861Y-5897430D02*
X13053099Y-5906954D01*
X13053099Y-5906954D02*
X13053099Y-5930763D01*
X13053099Y-5930763D02*
X13057861Y-5940287D01*
X13057861Y-5940287D02*
X13062623Y-5945049D01*
X13062623Y-5945049D02*
X13072147Y-5949811D01*
X13072147Y-5949811D02*
X13095956Y-5949811D01*
X13095956Y-5949811D02*
X13105480Y-5945049D01*
X13105480Y-5945049D02*
X13110242Y-5940287D01*
X6714286Y-10409287D02*
X6719048Y-10414049D01*
X6719048Y-10414049D02*
X6733333Y-10418811D01*
X6733333Y-10418811D02*
X6742857Y-10418811D01*
X6742857Y-10418811D02*
X6757143Y-10414049D01*
X6757143Y-10414049D02*
X6766667Y-10404525D01*
X6766667Y-10404525D02*
X6771428Y-10395001D01*
X6771428Y-10395001D02*
X6776190Y-10375954D01*
X6776190Y-10375954D02*
X6776190Y-10361668D01*
X6776190Y-10361668D02*
X6771428Y-10342620D01*
X6771428Y-10342620D02*
X6766667Y-10333097D01*
X6766667Y-10333097D02*
X6757143Y-10323573D01*
X6757143Y-10323573D02*
X6742857Y-10318811D01*
X6742857Y-10318811D02*
X6733333Y-10318811D01*
X6733333Y-10318811D02*
X6719048Y-10323573D01*
X6719048Y-10323573D02*
X6714286Y-10328335D01*
X6619048Y-10418811D02*
X6676190Y-10418811D01*
X6647619Y-10418811D02*
X6647619Y-10318811D01*
X6647619Y-10318811D02*
X6657143Y-10333097D01*
X6657143Y-10333097D02*
X6666667Y-10342620D01*
X6666667Y-10342620D02*
X6676190Y-10347382D01*
X6557143Y-10318811D02*
X6547619Y-10318811D01*
X6547619Y-10318811D02*
X6538095Y-10323573D01*
X6538095Y-10323573D02*
X6533333Y-10328335D01*
X6533333Y-10328335D02*
X6528571Y-10337859D01*
X6528571Y-10337859D02*
X6523809Y-10356906D01*
X6523809Y-10356906D02*
X6523809Y-10380716D01*
X6523809Y-10380716D02*
X6528571Y-10399763D01*
X6528571Y-10399763D02*
X6533333Y-10409287D01*
X6533333Y-10409287D02*
X6538095Y-10414049D01*
X6538095Y-10414049D02*
X6547619Y-10418811D01*
X6547619Y-10418811D02*
X6557143Y-10418811D01*
X6557143Y-10418811D02*
X6566667Y-10414049D01*
X6566667Y-10414049D02*
X6571428Y-10409287D01*
X6571428Y-10409287D02*
X6576190Y-10399763D01*
X6576190Y-10399763D02*
X6580952Y-10380716D01*
X6580952Y-10380716D02*
X6580952Y-10356906D01*
X6580952Y-10356906D02*
X6576190Y-10337859D01*
X6576190Y-10337859D02*
X6571428Y-10328335D01*
X6571428Y-10328335D02*
X6566667Y-10323573D01*
X6566667Y-10323573D02*
X6557143Y-10318811D01*
X18009559Y-5163811D02*
X18009559Y-5063811D01*
X18009559Y-5063811D02*
X17985750Y-5063811D01*
X17985750Y-5063811D02*
X17971464Y-5068573D01*
X17971464Y-5068573D02*
X17961940Y-5078097D01*
X17961940Y-5078097D02*
X17957179Y-5087620D01*
X17957179Y-5087620D02*
X17952417Y-5106668D01*
X17952417Y-5106668D02*
X17952417Y-5120954D01*
X17952417Y-5120954D02*
X17957179Y-5140001D01*
X17957179Y-5140001D02*
X17961940Y-5149525D01*
X17961940Y-5149525D02*
X17971464Y-5159049D01*
X17971464Y-5159049D02*
X17985750Y-5163811D01*
X17985750Y-5163811D02*
X18009559Y-5163811D01*
X17919083Y-5063811D02*
X17857179Y-5063811D01*
X17857179Y-5063811D02*
X17890512Y-5101906D01*
X17890512Y-5101906D02*
X17876226Y-5101906D01*
X17876226Y-5101906D02*
X17866702Y-5106668D01*
X17866702Y-5106668D02*
X17861940Y-5111430D01*
X17861940Y-5111430D02*
X17857179Y-5120954D01*
X17857179Y-5120954D02*
X17857179Y-5144763D01*
X17857179Y-5144763D02*
X17861940Y-5154287D01*
X17861940Y-5154287D02*
X17866702Y-5159049D01*
X17866702Y-5159049D02*
X17876226Y-5163811D01*
X17876226Y-5163811D02*
X17904798Y-5163811D01*
X17904798Y-5163811D02*
X17914321Y-5159049D01*
X17914321Y-5159049D02*
X17919083Y-5154287D01*
X16902180Y-7670063D02*
X16959422Y-7659961D01*
X16942586Y-7710469D02*
X17013297Y-7639758D01*
X17013297Y-7639758D02*
X16986359Y-7612821D01*
X16986359Y-7612821D02*
X16976258Y-7609453D01*
X16976258Y-7609453D02*
X16969524Y-7609453D01*
X16969524Y-7609453D02*
X16959422Y-7612821D01*
X16959422Y-7612821D02*
X16949320Y-7622922D01*
X16949320Y-7622922D02*
X16945953Y-7633024D01*
X16945953Y-7633024D02*
X16945953Y-7639758D01*
X16945953Y-7639758D02*
X16949320Y-7649860D01*
X16949320Y-7649860D02*
X16976258Y-7676797D01*
X16949320Y-7575782D02*
X16905547Y-7532008D01*
X16905547Y-7532008D02*
X16902180Y-7582516D01*
X16902180Y-7582516D02*
X16892078Y-7572415D01*
X16892078Y-7572415D02*
X16881977Y-7569047D01*
X16881977Y-7569047D02*
X16875243Y-7569047D01*
X16875243Y-7569047D02*
X16865141Y-7572415D01*
X16865141Y-7572415D02*
X16848305Y-7589250D01*
X16848305Y-7589250D02*
X16844938Y-7599352D01*
X16844938Y-7599352D02*
X16844938Y-7606086D01*
X16844938Y-7606086D02*
X16848305Y-7616188D01*
X16848305Y-7616188D02*
X16868508Y-7636391D01*
X16868508Y-7636391D02*
X16878610Y-7639758D01*
X16878610Y-7639758D02*
X16885344Y-7639758D01*
X16821368Y-7494970D02*
X16774227Y-7542110D01*
X16865141Y-7484868D02*
X16831469Y-7552211D01*
X16831469Y-7552211D02*
X16787696Y-7508438D01*
X9142482Y-9154139D02*
X9223434Y-9154139D01*
X9223434Y-9154139D02*
X9232958Y-9158900D01*
X9232958Y-9158900D02*
X9237720Y-9163662D01*
X9237720Y-9163662D02*
X9242482Y-9173186D01*
X9242482Y-9173186D02*
X9242482Y-9192234D01*
X9242482Y-9192234D02*
X9237720Y-9201758D01*
X9237720Y-9201758D02*
X9232958Y-9206519D01*
X9232958Y-9206519D02*
X9223434Y-9211281D01*
X9223434Y-9211281D02*
X9142482Y-9211281D01*
X9142482Y-9301758D02*
X9142482Y-9282710D01*
X9142482Y-9282710D02*
X9147244Y-9273186D01*
X9147244Y-9273186D02*
X9152006Y-9268424D01*
X9152006Y-9268424D02*
X9166291Y-9258900D01*
X9166291Y-9258900D02*
X9185339Y-9254139D01*
X9185339Y-9254139D02*
X9223434Y-9254139D01*
X9223434Y-9254139D02*
X9232958Y-9258900D01*
X9232958Y-9258900D02*
X9237720Y-9263662D01*
X9237720Y-9263662D02*
X9242482Y-9273186D01*
X9242482Y-9273186D02*
X9242482Y-9292234D01*
X9242482Y-9292234D02*
X9237720Y-9301758D01*
X9237720Y-9301758D02*
X9232958Y-9306519D01*
X9232958Y-9306519D02*
X9223434Y-9311281D01*
X9223434Y-9311281D02*
X9199625Y-9311281D01*
X9199625Y-9311281D02*
X9190101Y-9306519D01*
X9190101Y-9306519D02*
X9185339Y-9301758D01*
X9185339Y-9301758D02*
X9180577Y-9292234D01*
X9180577Y-9292234D02*
X9180577Y-9273186D01*
X9180577Y-9273186D02*
X9185339Y-9263662D01*
X9185339Y-9263662D02*
X9190101Y-9258900D01*
X9190101Y-9258900D02*
X9199625Y-9254139D01*
X16792180Y-7780063D02*
X16849422Y-7769961D01*
X16832586Y-7820469D02*
X16903297Y-7749758D01*
X16903297Y-7749758D02*
X16876359Y-7722821D01*
X16876359Y-7722821D02*
X16866258Y-7719453D01*
X16866258Y-7719453D02*
X16859524Y-7719453D01*
X16859524Y-7719453D02*
X16849422Y-7722821D01*
X16849422Y-7722821D02*
X16839320Y-7732922D01*
X16839320Y-7732922D02*
X16835953Y-7743024D01*
X16835953Y-7743024D02*
X16835953Y-7749758D01*
X16835953Y-7749758D02*
X16839320Y-7759860D01*
X16839320Y-7759860D02*
X16866258Y-7786797D01*
X16839320Y-7685782D02*
X16795547Y-7642008D01*
X16795547Y-7642008D02*
X16792180Y-7692516D01*
X16792180Y-7692516D02*
X16782078Y-7682415D01*
X16782078Y-7682415D02*
X16771977Y-7679047D01*
X16771977Y-7679047D02*
X16765243Y-7679047D01*
X16765243Y-7679047D02*
X16755141Y-7682415D01*
X16755141Y-7682415D02*
X16738305Y-7699250D01*
X16738305Y-7699250D02*
X16734938Y-7709352D01*
X16734938Y-7709352D02*
X16734938Y-7716086D01*
X16734938Y-7716086D02*
X16738305Y-7726188D01*
X16738305Y-7726188D02*
X16758508Y-7746391D01*
X16758508Y-7746391D02*
X16768610Y-7749758D01*
X16768610Y-7749758D02*
X16775344Y-7749758D01*
X16734938Y-7581399D02*
X16748407Y-7594868D01*
X16748407Y-7594868D02*
X16751774Y-7604970D01*
X16751774Y-7604970D02*
X16751774Y-7611704D01*
X16751774Y-7611704D02*
X16748407Y-7628540D01*
X16748407Y-7628540D02*
X16738305Y-7645376D01*
X16738305Y-7645376D02*
X16711368Y-7672313D01*
X16711368Y-7672313D02*
X16701266Y-7675680D01*
X16701266Y-7675680D02*
X16694532Y-7675680D01*
X16694532Y-7675680D02*
X16684430Y-7672313D01*
X16684430Y-7672313D02*
X16670962Y-7658844D01*
X16670962Y-7658844D02*
X16667594Y-7648743D01*
X16667594Y-7648743D02*
X16667594Y-7642008D01*
X16667594Y-7642008D02*
X16670962Y-7631907D01*
X16670962Y-7631907D02*
X16687797Y-7615071D01*
X16687797Y-7615071D02*
X16697899Y-7611704D01*
X16697899Y-7611704D02*
X16704633Y-7611704D01*
X16704633Y-7611704D02*
X16714735Y-7615071D01*
X16714735Y-7615071D02*
X16728204Y-7628540D01*
X16728204Y-7628540D02*
X16731571Y-7638641D01*
X16731571Y-7638641D02*
X16731571Y-7645376D01*
X16731571Y-7645376D02*
X16728204Y-7655477D01*
X10664286Y-7162287D02*
X10669048Y-7167049D01*
X10669048Y-7167049D02*
X10683333Y-7171811D01*
X10683333Y-7171811D02*
X10692857Y-7171811D01*
X10692857Y-7171811D02*
X10707143Y-7167049D01*
X10707143Y-7167049D02*
X10716667Y-7157525D01*
X10716667Y-7157525D02*
X10721429Y-7148001D01*
X10721429Y-7148001D02*
X10726190Y-7128954D01*
X10726190Y-7128954D02*
X10726190Y-7114668D01*
X10726190Y-7114668D02*
X10721429Y-7095620D01*
X10721429Y-7095620D02*
X10716667Y-7086097D01*
X10716667Y-7086097D02*
X10707143Y-7076573D01*
X10707143Y-7076573D02*
X10692857Y-7071811D01*
X10692857Y-7071811D02*
X10683333Y-7071811D01*
X10683333Y-7071811D02*
X10669048Y-7076573D01*
X10669048Y-7076573D02*
X10664286Y-7081335D01*
X10626190Y-7081335D02*
X10621429Y-7076573D01*
X10621429Y-7076573D02*
X10611905Y-7071811D01*
X10611905Y-7071811D02*
X10588095Y-7071811D01*
X10588095Y-7071811D02*
X10578571Y-7076573D01*
X10578571Y-7076573D02*
X10573810Y-7081335D01*
X10573810Y-7081335D02*
X10569048Y-7090858D01*
X10569048Y-7090858D02*
X10569048Y-7100382D01*
X10569048Y-7100382D02*
X10573810Y-7114668D01*
X10573810Y-7114668D02*
X10630952Y-7171811D01*
X10630952Y-7171811D02*
X10569048Y-7171811D01*
X10483333Y-7105144D02*
X10483333Y-7171811D01*
X10507143Y-7067049D02*
X10530952Y-7138477D01*
X10530952Y-7138477D02*
X10469048Y-7138477D01*
X15577134Y-5192536D02*
X15627642Y-5243044D01*
X15627642Y-5243044D02*
X15641111Y-5249778D01*
X15641111Y-5249778D02*
X15654579Y-5249778D01*
X15654579Y-5249778D02*
X15668048Y-5243044D01*
X15668048Y-5243044D02*
X15674782Y-5236309D01*
X15614173Y-5296918D02*
X15543462Y-5226208D01*
X15543462Y-5226208D02*
X15516525Y-5253145D01*
X15516525Y-5253145D02*
X15513158Y-5263247D01*
X15513158Y-5263247D02*
X15513158Y-5269981D01*
X15513158Y-5269981D02*
X15516525Y-5280083D01*
X15516525Y-5280083D02*
X15526627Y-5290184D01*
X15526627Y-5290184D02*
X15536728Y-5293551D01*
X15536728Y-5293551D02*
X15543462Y-5293551D01*
X15543462Y-5293551D02*
X15553564Y-5290184D01*
X15553564Y-5290184D02*
X15580501Y-5263247D01*
X15506424Y-5404668D02*
X15546830Y-5364262D01*
X15526627Y-5384465D02*
X15455916Y-5313754D01*
X15455916Y-5313754D02*
X15472752Y-5317122D01*
X15472752Y-5317122D02*
X15486221Y-5317122D01*
X15486221Y-5317122D02*
X15496322Y-5313754D01*
X21293101Y-5993234D02*
X21297863Y-6007519D01*
X21297863Y-6007519D02*
X21302625Y-6012281D01*
X21302625Y-6012281D02*
X21312149Y-6017043D01*
X21312149Y-6017043D02*
X21326434Y-6017043D01*
X21326434Y-6017043D02*
X21335958Y-6012281D01*
X21335958Y-6012281D02*
X21340720Y-6007519D01*
X21340720Y-6007519D02*
X21345482Y-5997996D01*
X21345482Y-5997996D02*
X21345482Y-5959900D01*
X21345482Y-5959900D02*
X21245482Y-5959900D01*
X21245482Y-5959900D02*
X21245482Y-5993234D01*
X21245482Y-5993234D02*
X21250244Y-6002757D01*
X21250244Y-6002757D02*
X21255006Y-6007519D01*
X21255006Y-6007519D02*
X21264530Y-6012281D01*
X21264530Y-6012281D02*
X21274053Y-6012281D01*
X21274053Y-6012281D02*
X21283577Y-6007519D01*
X21283577Y-6007519D02*
X21288339Y-6002757D01*
X21288339Y-6002757D02*
X21293101Y-5993234D01*
X21293101Y-5993234D02*
X21293101Y-5959900D01*
X21245482Y-6050377D02*
X21245482Y-6117043D01*
X21245482Y-6117043D02*
X21345482Y-6050377D01*
X21345482Y-6050377D02*
X21345482Y-6117043D01*
X21345482Y-6207519D02*
X21345482Y-6150377D01*
X21345482Y-6178948D02*
X21245482Y-6178948D01*
X21245482Y-6178948D02*
X21259768Y-6169424D01*
X21259768Y-6169424D02*
X21269291Y-6159900D01*
X21269291Y-6159900D02*
X21274053Y-6150377D01*
X20607387Y-6423234D02*
X20607387Y-6499424D01*
X20645482Y-6461329D02*
X20569292Y-6461329D01*
X16670958Y-8397043D02*
X16675720Y-8392281D01*
X16675720Y-8392281D02*
X16680482Y-8377996D01*
X16680482Y-8377996D02*
X16680482Y-8368472D01*
X16680482Y-8368472D02*
X16675720Y-8354186D01*
X16675720Y-8354186D02*
X16666196Y-8344662D01*
X16666196Y-8344662D02*
X16656672Y-8339900D01*
X16656672Y-8339900D02*
X16637625Y-8335138D01*
X16637625Y-8335138D02*
X16623339Y-8335138D01*
X16623339Y-8335138D02*
X16604291Y-8339900D01*
X16604291Y-8339900D02*
X16594768Y-8344662D01*
X16594768Y-8344662D02*
X16585244Y-8354186D01*
X16585244Y-8354186D02*
X16580482Y-8368472D01*
X16580482Y-8368472D02*
X16580482Y-8377996D01*
X16580482Y-8377996D02*
X16585244Y-8392281D01*
X16585244Y-8392281D02*
X16590006Y-8397043D01*
X16590006Y-8435139D02*
X16585244Y-8439900D01*
X16585244Y-8439900D02*
X16580482Y-8449424D01*
X16580482Y-8449424D02*
X16580482Y-8473234D01*
X16580482Y-8473234D02*
X16585244Y-8482758D01*
X16585244Y-8482758D02*
X16590006Y-8487519D01*
X16590006Y-8487519D02*
X16599530Y-8492281D01*
X16599530Y-8492281D02*
X16609053Y-8492281D01*
X16609053Y-8492281D02*
X16623339Y-8487519D01*
X16623339Y-8487519D02*
X16680482Y-8430377D01*
X16680482Y-8430377D02*
X16680482Y-8492281D01*
X16580482Y-8525615D02*
X16580482Y-8592281D01*
X16580482Y-8592281D02*
X16680482Y-8549424D01*
X22223101Y-5132758D02*
X22227863Y-5147043D01*
X22227863Y-5147043D02*
X22232625Y-5151805D01*
X22232625Y-5151805D02*
X22242149Y-5156567D01*
X22242149Y-5156567D02*
X22256434Y-5156567D01*
X22256434Y-5156567D02*
X22265958Y-5151805D01*
X22265958Y-5151805D02*
X22270720Y-5147043D01*
X22270720Y-5147043D02*
X22275482Y-5137519D01*
X22275482Y-5137519D02*
X22275482Y-5099424D01*
X22275482Y-5099424D02*
X22175482Y-5099424D01*
X22175482Y-5099424D02*
X22175482Y-5132758D01*
X22175482Y-5132758D02*
X22180244Y-5142281D01*
X22180244Y-5142281D02*
X22185006Y-5147043D01*
X22185006Y-5147043D02*
X22194530Y-5151805D01*
X22194530Y-5151805D02*
X22204053Y-5151805D01*
X22204053Y-5151805D02*
X22213577Y-5147043D01*
X22213577Y-5147043D02*
X22218339Y-5142281D01*
X22218339Y-5142281D02*
X22223101Y-5132758D01*
X22223101Y-5132758D02*
X22223101Y-5099424D01*
X22175482Y-5185139D02*
X22175482Y-5242281D01*
X22275482Y-5213710D02*
X22175482Y-5213710D01*
X22275482Y-5327996D02*
X22275482Y-5270853D01*
X22275482Y-5299424D02*
X22175482Y-5299424D01*
X22175482Y-5299424D02*
X22189768Y-5289900D01*
X22189768Y-5289900D02*
X22199291Y-5280377D01*
X22199291Y-5280377D02*
X22204053Y-5270853D01*
X16146097Y-5255435D02*
X16146097Y-5262170D01*
X16146097Y-5262170D02*
X16152831Y-5275638D01*
X16152831Y-5275638D02*
X16159565Y-5282373D01*
X16159565Y-5282373D02*
X16173034Y-5289107D01*
X16173034Y-5289107D02*
X16186503Y-5289107D01*
X16186503Y-5289107D02*
X16196604Y-5285740D01*
X16196604Y-5285740D02*
X16213440Y-5275638D01*
X16213440Y-5275638D02*
X16223542Y-5265537D01*
X16223542Y-5265537D02*
X16233643Y-5248701D01*
X16233643Y-5248701D02*
X16237010Y-5238600D01*
X16237010Y-5238600D02*
X16237010Y-5225131D01*
X16237010Y-5225131D02*
X16230276Y-5211662D01*
X16230276Y-5211662D02*
X16223542Y-5204928D01*
X16223542Y-5204928D02*
X16210073Y-5198193D01*
X16210073Y-5198193D02*
X16203339Y-5198193D01*
X16072019Y-5194826D02*
X16112425Y-5235232D01*
X16092222Y-5215029D02*
X16162933Y-5144319D01*
X16162933Y-5144319D02*
X16159565Y-5161154D01*
X16159565Y-5161154D02*
X16159565Y-5174623D01*
X16159565Y-5174623D02*
X16162933Y-5184725D01*
X16004675Y-5127483D02*
X16045081Y-5167889D01*
X16024878Y-5147686D02*
X16095589Y-5076975D01*
X16095589Y-5076975D02*
X16092222Y-5093811D01*
X16092222Y-5093811D02*
X16092222Y-5107280D01*
X16092222Y-5107280D02*
X16095589Y-5117381D01*
X16284286Y-8062287D02*
X16289048Y-8067049D01*
X16289048Y-8067049D02*
X16303333Y-8071811D01*
X16303333Y-8071811D02*
X16312857Y-8071811D01*
X16312857Y-8071811D02*
X16327143Y-8067049D01*
X16327143Y-8067049D02*
X16336667Y-8057525D01*
X16336667Y-8057525D02*
X16341428Y-8048001D01*
X16341428Y-8048001D02*
X16346190Y-8028954D01*
X16346190Y-8028954D02*
X16346190Y-8014668D01*
X16346190Y-8014668D02*
X16341428Y-7995620D01*
X16341428Y-7995620D02*
X16336667Y-7986097D01*
X16336667Y-7986097D02*
X16327143Y-7976573D01*
X16327143Y-7976573D02*
X16312857Y-7971811D01*
X16312857Y-7971811D02*
X16303333Y-7971811D01*
X16303333Y-7971811D02*
X16289048Y-7976573D01*
X16289048Y-7976573D02*
X16284286Y-7981335D01*
X16246190Y-7981335D02*
X16241428Y-7976573D01*
X16241428Y-7976573D02*
X16231905Y-7971811D01*
X16231905Y-7971811D02*
X16208095Y-7971811D01*
X16208095Y-7971811D02*
X16198571Y-7976573D01*
X16198571Y-7976573D02*
X16193809Y-7981335D01*
X16193809Y-7981335D02*
X16189048Y-7990859D01*
X16189048Y-7990859D02*
X16189048Y-8000382D01*
X16189048Y-8000382D02*
X16193809Y-8014668D01*
X16193809Y-8014668D02*
X16250952Y-8071811D01*
X16250952Y-8071811D02*
X16189048Y-8071811D01*
X16093809Y-8071811D02*
X16150952Y-8071811D01*
X16122381Y-8071811D02*
X16122381Y-7971811D01*
X16122381Y-7971811D02*
X16131905Y-7986097D01*
X16131905Y-7986097D02*
X16141428Y-7995620D01*
X16141428Y-7995620D02*
X16150952Y-8000382D01*
X6073809Y-9328811D02*
X6073809Y-9228811D01*
X6073809Y-9228811D02*
X6050000Y-9228811D01*
X6050000Y-9228811D02*
X6035714Y-9233573D01*
X6035714Y-9233573D02*
X6026190Y-9243097D01*
X6026190Y-9243097D02*
X6021428Y-9252620D01*
X6021428Y-9252620D02*
X6016667Y-9271668D01*
X6016667Y-9271668D02*
X6016667Y-9285954D01*
X6016667Y-9285954D02*
X6021428Y-9305001D01*
X6021428Y-9305001D02*
X6026190Y-9314525D01*
X6026190Y-9314525D02*
X6035714Y-9324049D01*
X6035714Y-9324049D02*
X6050000Y-9328811D01*
X6050000Y-9328811D02*
X6073809Y-9328811D01*
X5921428Y-9328811D02*
X5978571Y-9328811D01*
X5950000Y-9328811D02*
X5950000Y-9228811D01*
X5950000Y-9228811D02*
X5959524Y-9243097D01*
X5959524Y-9243097D02*
X5969047Y-9252620D01*
X5969047Y-9252620D02*
X5978571Y-9257382D01*
X5264190Y-9216811D02*
X5264190Y-9116811D01*
X5207048Y-9216811D02*
X5249905Y-9159668D01*
X5207048Y-9116811D02*
X5264190Y-9173954D01*
X14743643Y-6263675D02*
X14748405Y-6258913D01*
X14748405Y-6258913D02*
X14753167Y-6244628D01*
X14753167Y-6244628D02*
X14753167Y-6235104D01*
X14753167Y-6235104D02*
X14748405Y-6220818D01*
X14748405Y-6220818D02*
X14738882Y-6211294D01*
X14738882Y-6211294D02*
X14729358Y-6206532D01*
X14729358Y-6206532D02*
X14710310Y-6201770D01*
X14710310Y-6201770D02*
X14696024Y-6201770D01*
X14696024Y-6201770D02*
X14676977Y-6206532D01*
X14676977Y-6206532D02*
X14667453Y-6211294D01*
X14667453Y-6211294D02*
X14657929Y-6220818D01*
X14657929Y-6220818D02*
X14653167Y-6235104D01*
X14653167Y-6235104D02*
X14653167Y-6244628D01*
X14653167Y-6244628D02*
X14657929Y-6258913D01*
X14657929Y-6258913D02*
X14662691Y-6263675D01*
X14753167Y-6358913D02*
X14753167Y-6301770D01*
X14753167Y-6330342D02*
X14653167Y-6330342D01*
X14653167Y-6330342D02*
X14667453Y-6320818D01*
X14667453Y-6320818D02*
X14676977Y-6311294D01*
X14676977Y-6311294D02*
X14681739Y-6301770D01*
X14696024Y-6416056D02*
X14691263Y-6406532D01*
X14691263Y-6406532D02*
X14686501Y-6401770D01*
X14686501Y-6401770D02*
X14676977Y-6397009D01*
X14676977Y-6397009D02*
X14672215Y-6397009D01*
X14672215Y-6397009D02*
X14662691Y-6401770D01*
X14662691Y-6401770D02*
X14657929Y-6406532D01*
X14657929Y-6406532D02*
X14653167Y-6416056D01*
X14653167Y-6416056D02*
X14653167Y-6435104D01*
X14653167Y-6435104D02*
X14657929Y-6444628D01*
X14657929Y-6444628D02*
X14662691Y-6449389D01*
X14662691Y-6449389D02*
X14672215Y-6454151D01*
X14672215Y-6454151D02*
X14676977Y-6454151D01*
X14676977Y-6454151D02*
X14686501Y-6449389D01*
X14686501Y-6449389D02*
X14691263Y-6444628D01*
X14691263Y-6444628D02*
X14696024Y-6435104D01*
X14696024Y-6435104D02*
X14696024Y-6416056D01*
X14696024Y-6416056D02*
X14700786Y-6406532D01*
X14700786Y-6406532D02*
X14705548Y-6401770D01*
X14705548Y-6401770D02*
X14715072Y-6397009D01*
X14715072Y-6397009D02*
X14734120Y-6397009D01*
X14734120Y-6397009D02*
X14743643Y-6401770D01*
X14743643Y-6401770D02*
X14748405Y-6406532D01*
X14748405Y-6406532D02*
X14753167Y-6416056D01*
X14753167Y-6416056D02*
X14753167Y-6435104D01*
X14753167Y-6435104D02*
X14748405Y-6444628D01*
X14748405Y-6444628D02*
X14743643Y-6449389D01*
X14743643Y-6449389D02*
X14734120Y-6454151D01*
X14734120Y-6454151D02*
X14715072Y-6454151D01*
X14715072Y-6454151D02*
X14705548Y-6449389D01*
X14705548Y-6449389D02*
X14700786Y-6444628D01*
X14700786Y-6444628D02*
X14696024Y-6435104D01*
X6142482Y-7344662D02*
X6094863Y-7311329D01*
X6142482Y-7287519D02*
X6042482Y-7287519D01*
X6042482Y-7287519D02*
X6042482Y-7325615D01*
X6042482Y-7325615D02*
X6047244Y-7335138D01*
X6047244Y-7335138D02*
X6052006Y-7339900D01*
X6052006Y-7339900D02*
X6061530Y-7344662D01*
X6061530Y-7344662D02*
X6075815Y-7344662D01*
X6075815Y-7344662D02*
X6085339Y-7339900D01*
X6085339Y-7339900D02*
X6090101Y-7335138D01*
X6090101Y-7335138D02*
X6094863Y-7325615D01*
X6094863Y-7325615D02*
X6094863Y-7287519D01*
X6142482Y-7392281D02*
X6142482Y-7411329D01*
X6142482Y-7411329D02*
X6137720Y-7420853D01*
X6137720Y-7420853D02*
X6132958Y-7425615D01*
X6132958Y-7425615D02*
X6118672Y-7435138D01*
X6118672Y-7435138D02*
X6099625Y-7439900D01*
X6099625Y-7439900D02*
X6061530Y-7439900D01*
X6061530Y-7439900D02*
X6052006Y-7435138D01*
X6052006Y-7435138D02*
X6047244Y-7430377D01*
X6047244Y-7430377D02*
X6042482Y-7420853D01*
X6042482Y-7420853D02*
X6042482Y-7401805D01*
X6042482Y-7401805D02*
X6047244Y-7392281D01*
X6047244Y-7392281D02*
X6052006Y-7387519D01*
X6052006Y-7387519D02*
X6061530Y-7382758D01*
X6061530Y-7382758D02*
X6085339Y-7382758D01*
X6085339Y-7382758D02*
X6094863Y-7387519D01*
X6094863Y-7387519D02*
X6099625Y-7392281D01*
X6099625Y-7392281D02*
X6104387Y-7401805D01*
X6104387Y-7401805D02*
X6104387Y-7420853D01*
X6104387Y-7420853D02*
X6099625Y-7430377D01*
X6099625Y-7430377D02*
X6094863Y-7435138D01*
X6094863Y-7435138D02*
X6085339Y-7439900D01*
X5008482Y-8647043D02*
X4960863Y-8613710D01*
X5008482Y-8589900D02*
X4908482Y-8589900D01*
X4908482Y-8589900D02*
X4908482Y-8627996D01*
X4908482Y-8627996D02*
X4913244Y-8637519D01*
X4913244Y-8637519D02*
X4918006Y-8642281D01*
X4918006Y-8642281D02*
X4927530Y-8647043D01*
X4927530Y-8647043D02*
X4941815Y-8647043D01*
X4941815Y-8647043D02*
X4951339Y-8642281D01*
X4951339Y-8642281D02*
X4956101Y-8637519D01*
X4956101Y-8637519D02*
X4960863Y-8627996D01*
X4960863Y-8627996D02*
X4960863Y-8589900D01*
X5008482Y-8742281D02*
X5008482Y-8685139D01*
X5008482Y-8713710D02*
X4908482Y-8713710D01*
X4908482Y-8713710D02*
X4922768Y-8704186D01*
X4922768Y-8704186D02*
X4932291Y-8694662D01*
X4932291Y-8694662D02*
X4937053Y-8685139D01*
X4918006Y-8780377D02*
X4913244Y-8785139D01*
X4913244Y-8785139D02*
X4908482Y-8794662D01*
X4908482Y-8794662D02*
X4908482Y-8818472D01*
X4908482Y-8818472D02*
X4913244Y-8827996D01*
X4913244Y-8827996D02*
X4918006Y-8832758D01*
X4918006Y-8832758D02*
X4927530Y-8837519D01*
X4927530Y-8837519D02*
X4937053Y-8837519D01*
X4937053Y-8837519D02*
X4951339Y-8832758D01*
X4951339Y-8832758D02*
X5008482Y-8775615D01*
X5008482Y-8775615D02*
X5008482Y-8837519D01*
X14386501Y-7566916D02*
X14376400Y-7509674D01*
X14426907Y-7526510D02*
X14356196Y-7455800D01*
X14356196Y-7455800D02*
X14329259Y-7482737D01*
X14329259Y-7482737D02*
X14325892Y-7492838D01*
X14325892Y-7492838D02*
X14325892Y-7499573D01*
X14325892Y-7499573D02*
X14329259Y-7509674D01*
X14329259Y-7509674D02*
X14339361Y-7519776D01*
X14339361Y-7519776D02*
X14349462Y-7523143D01*
X14349462Y-7523143D02*
X14356196Y-7523143D01*
X14356196Y-7523143D02*
X14366298Y-7519776D01*
X14366298Y-7519776D02*
X14393235Y-7492838D01*
X14295587Y-7529877D02*
X14288853Y-7529877D01*
X14288853Y-7529877D02*
X14278751Y-7533245D01*
X14278751Y-7533245D02*
X14261916Y-7550080D01*
X14261916Y-7550080D02*
X14258548Y-7560182D01*
X14258548Y-7560182D02*
X14258548Y-7566916D01*
X14258548Y-7566916D02*
X14261916Y-7577018D01*
X14261916Y-7577018D02*
X14268650Y-7583752D01*
X14268650Y-7583752D02*
X14282119Y-7590487D01*
X14282119Y-7590487D02*
X14362931Y-7590487D01*
X14362931Y-7590487D02*
X14319158Y-7634260D01*
X14224877Y-7587119D02*
X14181103Y-7630893D01*
X14181103Y-7630893D02*
X14231611Y-7634260D01*
X14231611Y-7634260D02*
X14221509Y-7644361D01*
X14221509Y-7644361D02*
X14218142Y-7654463D01*
X14218142Y-7654463D02*
X14218142Y-7661197D01*
X14218142Y-7661197D02*
X14221509Y-7671299D01*
X14221509Y-7671299D02*
X14238345Y-7688135D01*
X14238345Y-7688135D02*
X14248447Y-7691502D01*
X14248447Y-7691502D02*
X14255181Y-7691502D01*
X14255181Y-7691502D02*
X14265283Y-7688135D01*
X14265283Y-7688135D02*
X14285486Y-7667932D01*
X14285486Y-7667932D02*
X14288853Y-7657830D01*
X14288853Y-7657830D02*
X14288853Y-7651096D01*
X5670958Y-8004662D02*
X5675720Y-7999900D01*
X5675720Y-7999900D02*
X5680482Y-7985615D01*
X5680482Y-7985615D02*
X5680482Y-7976091D01*
X5680482Y-7976091D02*
X5675720Y-7961805D01*
X5675720Y-7961805D02*
X5666196Y-7952281D01*
X5666196Y-7952281D02*
X5656672Y-7947519D01*
X5656672Y-7947519D02*
X5637625Y-7942758D01*
X5637625Y-7942758D02*
X5623339Y-7942758D01*
X5623339Y-7942758D02*
X5604291Y-7947519D01*
X5604291Y-7947519D02*
X5594767Y-7952281D01*
X5594767Y-7952281D02*
X5585244Y-7961805D01*
X5585244Y-7961805D02*
X5580482Y-7976091D01*
X5580482Y-7976091D02*
X5580482Y-7985615D01*
X5580482Y-7985615D02*
X5585244Y-7999900D01*
X5585244Y-7999900D02*
X5590006Y-8004662D01*
X5580482Y-8037996D02*
X5580482Y-8104662D01*
X5580482Y-8104662D02*
X5680482Y-8061805D01*
X8530958Y-5644662D02*
X8535720Y-5639900D01*
X8535720Y-5639900D02*
X8540482Y-5625615D01*
X8540482Y-5625615D02*
X8540482Y-5616091D01*
X8540482Y-5616091D02*
X8535720Y-5601805D01*
X8535720Y-5601805D02*
X8526196Y-5592281D01*
X8526196Y-5592281D02*
X8516672Y-5587520D01*
X8516672Y-5587520D02*
X8497625Y-5582758D01*
X8497625Y-5582758D02*
X8483339Y-5582758D01*
X8483339Y-5582758D02*
X8464291Y-5587520D01*
X8464291Y-5587520D02*
X8454768Y-5592281D01*
X8454768Y-5592281D02*
X8445244Y-5601805D01*
X8445244Y-5601805D02*
X8440482Y-5616091D01*
X8440482Y-5616091D02*
X8440482Y-5625615D01*
X8440482Y-5625615D02*
X8445244Y-5639900D01*
X8445244Y-5639900D02*
X8450006Y-5644662D01*
X8473815Y-5730377D02*
X8540482Y-5730377D01*
X8435720Y-5706567D02*
X8507149Y-5682758D01*
X8507149Y-5682758D02*
X8507149Y-5744662D01*
X7700958Y-8364662D02*
X7705720Y-8359900D01*
X7705720Y-8359900D02*
X7710482Y-8345615D01*
X7710482Y-8345615D02*
X7710482Y-8336091D01*
X7710482Y-8336091D02*
X7705720Y-8321805D01*
X7705720Y-8321805D02*
X7696196Y-8312281D01*
X7696196Y-8312281D02*
X7686672Y-8307519D01*
X7686672Y-8307519D02*
X7667625Y-8302758D01*
X7667625Y-8302758D02*
X7653339Y-8302758D01*
X7653339Y-8302758D02*
X7634291Y-8307519D01*
X7634291Y-8307519D02*
X7624767Y-8312281D01*
X7624767Y-8312281D02*
X7615244Y-8321805D01*
X7615244Y-8321805D02*
X7610482Y-8336091D01*
X7610482Y-8336091D02*
X7610482Y-8345615D01*
X7610482Y-8345615D02*
X7615244Y-8359900D01*
X7615244Y-8359900D02*
X7620006Y-8364662D01*
X7653339Y-8421805D02*
X7648577Y-8412281D01*
X7648577Y-8412281D02*
X7643815Y-8407520D01*
X7643815Y-8407520D02*
X7634291Y-8402758D01*
X7634291Y-8402758D02*
X7629529Y-8402758D01*
X7629529Y-8402758D02*
X7620006Y-8407520D01*
X7620006Y-8407520D02*
X7615244Y-8412281D01*
X7615244Y-8412281D02*
X7610482Y-8421805D01*
X7610482Y-8421805D02*
X7610482Y-8440853D01*
X7610482Y-8440853D02*
X7615244Y-8450377D01*
X7615244Y-8450377D02*
X7620006Y-8455139D01*
X7620006Y-8455139D02*
X7629529Y-8459900D01*
X7629529Y-8459900D02*
X7634291Y-8459900D01*
X7634291Y-8459900D02*
X7643815Y-8455139D01*
X7643815Y-8455139D02*
X7648577Y-8450377D01*
X7648577Y-8450377D02*
X7653339Y-8440853D01*
X7653339Y-8440853D02*
X7653339Y-8421805D01*
X7653339Y-8421805D02*
X7658101Y-8412281D01*
X7658101Y-8412281D02*
X7662863Y-8407520D01*
X7662863Y-8407520D02*
X7672386Y-8402758D01*
X7672386Y-8402758D02*
X7691434Y-8402758D01*
X7691434Y-8402758D02*
X7700958Y-8407520D01*
X7700958Y-8407520D02*
X7705720Y-8412281D01*
X7705720Y-8412281D02*
X7710482Y-8421805D01*
X7710482Y-8421805D02*
X7710482Y-8440853D01*
X7710482Y-8440853D02*
X7705720Y-8450377D01*
X7705720Y-8450377D02*
X7700958Y-8455139D01*
X7700958Y-8455139D02*
X7691434Y-8459900D01*
X7691434Y-8459900D02*
X7672386Y-8459900D01*
X7672386Y-8459900D02*
X7662863Y-8455139D01*
X7662863Y-8455139D02*
X7658101Y-8450377D01*
X7658101Y-8450377D02*
X7653339Y-8440853D01*
X17691559Y-4864811D02*
X17691559Y-4764811D01*
X17691559Y-4764811D02*
X17667750Y-4764811D01*
X17667750Y-4764811D02*
X17653464Y-4769573D01*
X17653464Y-4769573D02*
X17643940Y-4779097D01*
X17643940Y-4779097D02*
X17639179Y-4788620D01*
X17639179Y-4788620D02*
X17634417Y-4807668D01*
X17634417Y-4807668D02*
X17634417Y-4821954D01*
X17634417Y-4821954D02*
X17639179Y-4841001D01*
X17639179Y-4841001D02*
X17643940Y-4850525D01*
X17643940Y-4850525D02*
X17653464Y-4860049D01*
X17653464Y-4860049D02*
X17667750Y-4864811D01*
X17667750Y-4864811D02*
X17691559Y-4864811D01*
X17596321Y-4774335D02*
X17591559Y-4769573D01*
X17591559Y-4769573D02*
X17582036Y-4764811D01*
X17582036Y-4764811D02*
X17558226Y-4764811D01*
X17558226Y-4764811D02*
X17548702Y-4769573D01*
X17548702Y-4769573D02*
X17543940Y-4774335D01*
X17543940Y-4774335D02*
X17539179Y-4783859D01*
X17539179Y-4783859D02*
X17539179Y-4793382D01*
X17539179Y-4793382D02*
X17543940Y-4807668D01*
X17543940Y-4807668D02*
X17601083Y-4864811D01*
X17601083Y-4864811D02*
X17539179Y-4864811D01*
X15154482Y-9166139D02*
X15235434Y-9166139D01*
X15235434Y-9166139D02*
X15244958Y-9170900D01*
X15244958Y-9170900D02*
X15249720Y-9175662D01*
X15249720Y-9175662D02*
X15254482Y-9185186D01*
X15254482Y-9185186D02*
X15254482Y-9204234D01*
X15254482Y-9204234D02*
X15249720Y-9213758D01*
X15249720Y-9213758D02*
X15244958Y-9218519D01*
X15244958Y-9218519D02*
X15235434Y-9223281D01*
X15235434Y-9223281D02*
X15154482Y-9223281D01*
X15197339Y-9285186D02*
X15192577Y-9275662D01*
X15192577Y-9275662D02*
X15187815Y-9270900D01*
X15187815Y-9270900D02*
X15178291Y-9266139D01*
X15178291Y-9266139D02*
X15173530Y-9266139D01*
X15173530Y-9266139D02*
X15164006Y-9270900D01*
X15164006Y-9270900D02*
X15159244Y-9275662D01*
X15159244Y-9275662D02*
X15154482Y-9285186D01*
X15154482Y-9285186D02*
X15154482Y-9304234D01*
X15154482Y-9304234D02*
X15159244Y-9313758D01*
X15159244Y-9313758D02*
X15164006Y-9318519D01*
X15164006Y-9318519D02*
X15173530Y-9323281D01*
X15173530Y-9323281D02*
X15178291Y-9323281D01*
X15178291Y-9323281D02*
X15187815Y-9318519D01*
X15187815Y-9318519D02*
X15192577Y-9313758D01*
X15192577Y-9313758D02*
X15197339Y-9304234D01*
X15197339Y-9304234D02*
X15197339Y-9285186D01*
X15197339Y-9285186D02*
X15202101Y-9275662D01*
X15202101Y-9275662D02*
X15206863Y-9270900D01*
X15206863Y-9270900D02*
X15216387Y-9266139D01*
X15216387Y-9266139D02*
X15235434Y-9266139D01*
X15235434Y-9266139D02*
X15244958Y-9270900D01*
X15244958Y-9270900D02*
X15249720Y-9275662D01*
X15249720Y-9275662D02*
X15254482Y-9285186D01*
X15254482Y-9285186D02*
X15254482Y-9304234D01*
X15254482Y-9304234D02*
X15249720Y-9313758D01*
X15249720Y-9313758D02*
X15244958Y-9318519D01*
X15244958Y-9318519D02*
X15235434Y-9323281D01*
X15235434Y-9323281D02*
X15216387Y-9323281D01*
X15216387Y-9323281D02*
X15206863Y-9318519D01*
X15206863Y-9318519D02*
X15202101Y-9313758D01*
X15202101Y-9313758D02*
X15197339Y-9304234D01*
X6360482Y-7954662D02*
X6360482Y-7907043D01*
X6360482Y-7907043D02*
X6260482Y-7907043D01*
X6360482Y-8040377D02*
X6360482Y-7983234D01*
X6360482Y-8011805D02*
X6260482Y-8011805D01*
X6260482Y-8011805D02*
X6274768Y-8002281D01*
X6274768Y-8002281D02*
X6284291Y-7992758D01*
X6284291Y-7992758D02*
X6289053Y-7983234D01*
X17012180Y-7560063D02*
X17069422Y-7549961D01*
X17052586Y-7600469D02*
X17123297Y-7529758D01*
X17123297Y-7529758D02*
X17096359Y-7502821D01*
X17096359Y-7502821D02*
X17086258Y-7499453D01*
X17086258Y-7499453D02*
X17079524Y-7499453D01*
X17079524Y-7499453D02*
X17069422Y-7502821D01*
X17069422Y-7502821D02*
X17059320Y-7512922D01*
X17059320Y-7512922D02*
X17055953Y-7523024D01*
X17055953Y-7523024D02*
X17055953Y-7529758D01*
X17055953Y-7529758D02*
X17059320Y-7539860D01*
X17059320Y-7539860D02*
X17086258Y-7566797D01*
X17059320Y-7465782D02*
X17015547Y-7422008D01*
X17015547Y-7422008D02*
X17012180Y-7472516D01*
X17012180Y-7472516D02*
X17002078Y-7462415D01*
X17002078Y-7462415D02*
X16991977Y-7459047D01*
X16991977Y-7459047D02*
X16985243Y-7459047D01*
X16985243Y-7459047D02*
X16975141Y-7462415D01*
X16975141Y-7462415D02*
X16958305Y-7479250D01*
X16958305Y-7479250D02*
X16954938Y-7489352D01*
X16954938Y-7489352D02*
X16954938Y-7496086D01*
X16954938Y-7496086D02*
X16958305Y-7506188D01*
X16958305Y-7506188D02*
X16978508Y-7526391D01*
X16978508Y-7526391D02*
X16988610Y-7529758D01*
X16988610Y-7529758D02*
X16995344Y-7529758D01*
X16951571Y-7358032D02*
X16985243Y-7391704D01*
X16985243Y-7391704D02*
X16954938Y-7428743D01*
X16954938Y-7428743D02*
X16954938Y-7422008D01*
X16954938Y-7422008D02*
X16951571Y-7411907D01*
X16951571Y-7411907D02*
X16934735Y-7395071D01*
X16934735Y-7395071D02*
X16924633Y-7391704D01*
X16924633Y-7391704D02*
X16917899Y-7391704D01*
X16917899Y-7391704D02*
X16907798Y-7395071D01*
X16907798Y-7395071D02*
X16890962Y-7411907D01*
X16890962Y-7411907D02*
X16887595Y-7422008D01*
X16887595Y-7422008D02*
X16887595Y-7428743D01*
X16887595Y-7428743D02*
X16890962Y-7438844D01*
X16890962Y-7438844D02*
X16907798Y-7455680D01*
X16907798Y-7455680D02*
X16917899Y-7459047D01*
X16917899Y-7459047D02*
X16924633Y-7459047D01*
X14824413Y-8127830D02*
X14881654Y-8117729D01*
X14864819Y-8168236D02*
X14935529Y-8097525D01*
X14935529Y-8097525D02*
X14908592Y-8070588D01*
X14908592Y-8070588D02*
X14898490Y-8067221D01*
X14898490Y-8067221D02*
X14891756Y-8067221D01*
X14891756Y-8067221D02*
X14881654Y-8070588D01*
X14881654Y-8070588D02*
X14871553Y-8080690D01*
X14871553Y-8080690D02*
X14868186Y-8090791D01*
X14868186Y-8090791D02*
X14868186Y-8097525D01*
X14868186Y-8097525D02*
X14871553Y-8107627D01*
X14871553Y-8107627D02*
X14898490Y-8134564D01*
X14757069Y-8060487D02*
X14797475Y-8100893D01*
X14777272Y-8080690D02*
X14847983Y-8009979D01*
X14847983Y-8009979D02*
X14844616Y-8026815D01*
X14844616Y-8026815D02*
X14844616Y-8040283D01*
X14844616Y-8040283D02*
X14847983Y-8050385D01*
X14743600Y-7952737D02*
X14696460Y-7999877D01*
X14787374Y-7942635D02*
X14753702Y-8009979D01*
X14753702Y-8009979D02*
X14709929Y-7966206D01*
X21310958Y-5457043D02*
X21315720Y-5452281D01*
X21315720Y-5452281D02*
X21320482Y-5437996D01*
X21320482Y-5437996D02*
X21320482Y-5428472D01*
X21320482Y-5428472D02*
X21315720Y-5414186D01*
X21315720Y-5414186D02*
X21306196Y-5404662D01*
X21306196Y-5404662D02*
X21296672Y-5399900D01*
X21296672Y-5399900D02*
X21277625Y-5395139D01*
X21277625Y-5395139D02*
X21263339Y-5395139D01*
X21263339Y-5395139D02*
X21244291Y-5399900D01*
X21244291Y-5399900D02*
X21234768Y-5404662D01*
X21234768Y-5404662D02*
X21225244Y-5414186D01*
X21225244Y-5414186D02*
X21220482Y-5428472D01*
X21220482Y-5428472D02*
X21220482Y-5437996D01*
X21220482Y-5437996D02*
X21225244Y-5452281D01*
X21225244Y-5452281D02*
X21230006Y-5457043D01*
X21320482Y-5552281D02*
X21320482Y-5495139D01*
X21320482Y-5523710D02*
X21220482Y-5523710D01*
X21220482Y-5523710D02*
X21234768Y-5514186D01*
X21234768Y-5514186D02*
X21244291Y-5504662D01*
X21244291Y-5504662D02*
X21249053Y-5495139D01*
X21320482Y-5599900D02*
X21320482Y-5618948D01*
X21320482Y-5618948D02*
X21315720Y-5628472D01*
X21315720Y-5628472D02*
X21310958Y-5633234D01*
X21310958Y-5633234D02*
X21296672Y-5642757D01*
X21296672Y-5642757D02*
X21277625Y-5647519D01*
X21277625Y-5647519D02*
X21239530Y-5647519D01*
X21239530Y-5647519D02*
X21230006Y-5642757D01*
X21230006Y-5642757D02*
X21225244Y-5637996D01*
X21225244Y-5637996D02*
X21220482Y-5628472D01*
X21220482Y-5628472D02*
X21220482Y-5609424D01*
X21220482Y-5609424D02*
X21225244Y-5599900D01*
X21225244Y-5599900D02*
X21230006Y-5595138D01*
X21230006Y-5595138D02*
X21239530Y-5590377D01*
X21239530Y-5590377D02*
X21263339Y-5590377D01*
X21263339Y-5590377D02*
X21272863Y-5595138D01*
X21272863Y-5595138D02*
X21277625Y-5599900D01*
X21277625Y-5599900D02*
X21282387Y-5609424D01*
X21282387Y-5609424D02*
X21282387Y-5628472D01*
X21282387Y-5628472D02*
X21277625Y-5637996D01*
X21277625Y-5637996D02*
X21272863Y-5642757D01*
X21272863Y-5642757D02*
X21263339Y-5647519D01*
X14673036Y-5850811D02*
X14706369Y-5803192D01*
X14730178Y-5850811D02*
X14730178Y-5750811D01*
X14730178Y-5750811D02*
X14692083Y-5750811D01*
X14692083Y-5750811D02*
X14682559Y-5755573D01*
X14682559Y-5755573D02*
X14677798Y-5760335D01*
X14677798Y-5760335D02*
X14673036Y-5769858D01*
X14673036Y-5769858D02*
X14673036Y-5784144D01*
X14673036Y-5784144D02*
X14677798Y-5793668D01*
X14677798Y-5793668D02*
X14682559Y-5798430D01*
X14682559Y-5798430D02*
X14692083Y-5803192D01*
X14692083Y-5803192D02*
X14730178Y-5803192D01*
X14634940Y-5760335D02*
X14630178Y-5755573D01*
X14630178Y-5755573D02*
X14620655Y-5750811D01*
X14620655Y-5750811D02*
X14596845Y-5750811D01*
X14596845Y-5750811D02*
X14587321Y-5755573D01*
X14587321Y-5755573D02*
X14582559Y-5760335D01*
X14582559Y-5760335D02*
X14577798Y-5769858D01*
X14577798Y-5769858D02*
X14577798Y-5779382D01*
X14577798Y-5779382D02*
X14582559Y-5793668D01*
X14582559Y-5793668D02*
X14639702Y-5850811D01*
X14639702Y-5850811D02*
X14577798Y-5850811D01*
X14530178Y-5850811D02*
X14511131Y-5850811D01*
X14511131Y-5850811D02*
X14501607Y-5846049D01*
X14501607Y-5846049D02*
X14496845Y-5841287D01*
X14496845Y-5841287D02*
X14487321Y-5827001D01*
X14487321Y-5827001D02*
X14482559Y-5807954D01*
X14482559Y-5807954D02*
X14482559Y-5769858D01*
X14482559Y-5769858D02*
X14487321Y-5760335D01*
X14487321Y-5760335D02*
X14492083Y-5755573D01*
X14492083Y-5755573D02*
X14501607Y-5750811D01*
X14501607Y-5750811D02*
X14520655Y-5750811D01*
X14520655Y-5750811D02*
X14530178Y-5755573D01*
X14530178Y-5755573D02*
X14534940Y-5760335D01*
X14534940Y-5760335D02*
X14539702Y-5769858D01*
X14539702Y-5769858D02*
X14539702Y-5793668D01*
X14539702Y-5793668D02*
X14534940Y-5803192D01*
X14534940Y-5803192D02*
X14530178Y-5807954D01*
X14530178Y-5807954D02*
X14520655Y-5812716D01*
X14520655Y-5812716D02*
X14501607Y-5812716D01*
X14501607Y-5812716D02*
X14492083Y-5807954D01*
X14492083Y-5807954D02*
X14487321Y-5803192D01*
X14487321Y-5803192D02*
X14482559Y-5793668D01*
X14720958Y-6847043D02*
X14725720Y-6842281D01*
X14725720Y-6842281D02*
X14730482Y-6827996D01*
X14730482Y-6827996D02*
X14730482Y-6818472D01*
X14730482Y-6818472D02*
X14725720Y-6804186D01*
X14725720Y-6804186D02*
X14716196Y-6794662D01*
X14716196Y-6794662D02*
X14706672Y-6789900D01*
X14706672Y-6789900D02*
X14687625Y-6785138D01*
X14687625Y-6785138D02*
X14673339Y-6785138D01*
X14673339Y-6785138D02*
X14654291Y-6789900D01*
X14654291Y-6789900D02*
X14644767Y-6794662D01*
X14644767Y-6794662D02*
X14635244Y-6804186D01*
X14635244Y-6804186D02*
X14630482Y-6818472D01*
X14630482Y-6818472D02*
X14630482Y-6827996D01*
X14630482Y-6827996D02*
X14635244Y-6842281D01*
X14635244Y-6842281D02*
X14640006Y-6847043D01*
X14640006Y-6885138D02*
X14635244Y-6889900D01*
X14635244Y-6889900D02*
X14630482Y-6899424D01*
X14630482Y-6899424D02*
X14630482Y-6923234D01*
X14630482Y-6923234D02*
X14635244Y-6932757D01*
X14635244Y-6932757D02*
X14640006Y-6937519D01*
X14640006Y-6937519D02*
X14649529Y-6942281D01*
X14649529Y-6942281D02*
X14659053Y-6942281D01*
X14659053Y-6942281D02*
X14673339Y-6937519D01*
X14673339Y-6937519D02*
X14730482Y-6880377D01*
X14730482Y-6880377D02*
X14730482Y-6942281D01*
X14630482Y-7004186D02*
X14630482Y-7013710D01*
X14630482Y-7013710D02*
X14635244Y-7023234D01*
X14635244Y-7023234D02*
X14640006Y-7027996D01*
X14640006Y-7027996D02*
X14649529Y-7032757D01*
X14649529Y-7032757D02*
X14668577Y-7037519D01*
X14668577Y-7037519D02*
X14692386Y-7037519D01*
X14692386Y-7037519D02*
X14711434Y-7032757D01*
X14711434Y-7032757D02*
X14720958Y-7027996D01*
X14720958Y-7027996D02*
X14725720Y-7023234D01*
X14725720Y-7023234D02*
X14730482Y-7013710D01*
X14730482Y-7013710D02*
X14730482Y-7004186D01*
X14730482Y-7004186D02*
X14725720Y-6994662D01*
X14725720Y-6994662D02*
X14720958Y-6989900D01*
X14720958Y-6989900D02*
X14711434Y-6985138D01*
X14711434Y-6985138D02*
X14692386Y-6980377D01*
X14692386Y-6980377D02*
X14668577Y-6980377D01*
X14668577Y-6980377D02*
X14649529Y-6985138D01*
X14649529Y-6985138D02*
X14640006Y-6989900D01*
X14640006Y-6989900D02*
X14635244Y-6994662D01*
X14635244Y-6994662D02*
X14630482Y-7004186D01*
X11973482Y-9135139D02*
X12054434Y-9135139D01*
X12054434Y-9135139D02*
X12063958Y-9139900D01*
X12063958Y-9139900D02*
X12068720Y-9144662D01*
X12068720Y-9144662D02*
X12073482Y-9154186D01*
X12073482Y-9154186D02*
X12073482Y-9173234D01*
X12073482Y-9173234D02*
X12068720Y-9182758D01*
X12068720Y-9182758D02*
X12063958Y-9187519D01*
X12063958Y-9187519D02*
X12054434Y-9192281D01*
X12054434Y-9192281D02*
X11973482Y-9192281D01*
X11973482Y-9230377D02*
X11973482Y-9297043D01*
X11973482Y-9297043D02*
X12073482Y-9254186D01*
X17236501Y-5856916D02*
X17226400Y-5799674D01*
X17276907Y-5816510D02*
X17206197Y-5745800D01*
X17206197Y-5745800D02*
X17179259Y-5772737D01*
X17179259Y-5772737D02*
X17175892Y-5782838D01*
X17175892Y-5782838D02*
X17175892Y-5789573D01*
X17175892Y-5789573D02*
X17179259Y-5799674D01*
X17179259Y-5799674D02*
X17189361Y-5809776D01*
X17189361Y-5809776D02*
X17199462Y-5813143D01*
X17199462Y-5813143D02*
X17206197Y-5813143D01*
X17206197Y-5813143D02*
X17216298Y-5809776D01*
X17216298Y-5809776D02*
X17243235Y-5782838D01*
X17142220Y-5809776D02*
X17098447Y-5853549D01*
X17098447Y-5853549D02*
X17148955Y-5856916D01*
X17148955Y-5856916D02*
X17138853Y-5867018D01*
X17138853Y-5867018D02*
X17135486Y-5877119D01*
X17135486Y-5877119D02*
X17135486Y-5883854D01*
X17135486Y-5883854D02*
X17138853Y-5893955D01*
X17138853Y-5893955D02*
X17155689Y-5910791D01*
X17155689Y-5910791D02*
X17165790Y-5914158D01*
X17165790Y-5914158D02*
X17172525Y-5914158D01*
X17172525Y-5914158D02*
X17182626Y-5910791D01*
X17182626Y-5910791D02*
X17202829Y-5890588D01*
X17202829Y-5890588D02*
X17206197Y-5880487D01*
X17206197Y-5880487D02*
X17206197Y-5873752D01*
X17088345Y-5924260D02*
X17091713Y-5914158D01*
X17091713Y-5914158D02*
X17091713Y-5907424D01*
X17091713Y-5907424D02*
X17088345Y-5897322D01*
X17088345Y-5897322D02*
X17084978Y-5893955D01*
X17084978Y-5893955D02*
X17074877Y-5890588D01*
X17074877Y-5890588D02*
X17068142Y-5890588D01*
X17068142Y-5890588D02*
X17058041Y-5893955D01*
X17058041Y-5893955D02*
X17044572Y-5907424D01*
X17044572Y-5907424D02*
X17041205Y-5917525D01*
X17041205Y-5917525D02*
X17041205Y-5924260D01*
X17041205Y-5924260D02*
X17044572Y-5934361D01*
X17044572Y-5934361D02*
X17047939Y-5937729D01*
X17047939Y-5937729D02*
X17058041Y-5941096D01*
X17058041Y-5941096D02*
X17064775Y-5941096D01*
X17064775Y-5941096D02*
X17074877Y-5937729D01*
X17074877Y-5937729D02*
X17088345Y-5924260D01*
X17088345Y-5924260D02*
X17098447Y-5920893D01*
X17098447Y-5920893D02*
X17105181Y-5920893D01*
X17105181Y-5920893D02*
X17115283Y-5924260D01*
X17115283Y-5924260D02*
X17128752Y-5937729D01*
X17128752Y-5937729D02*
X17132119Y-5947830D01*
X17132119Y-5947830D02*
X17132119Y-5954564D01*
X17132119Y-5954564D02*
X17128752Y-5964666D01*
X17128752Y-5964666D02*
X17115283Y-5978135D01*
X17115283Y-5978135D02*
X17105181Y-5981502D01*
X17105181Y-5981502D02*
X17098447Y-5981502D01*
X17098447Y-5981502D02*
X17088345Y-5978135D01*
X17088345Y-5978135D02*
X17074877Y-5964666D01*
X17074877Y-5964666D02*
X17071510Y-5954564D01*
X17071510Y-5954564D02*
X17071510Y-5947830D01*
X17071510Y-5947830D02*
X17074877Y-5937729D01*
X14486501Y-7676916D02*
X14476400Y-7619674D01*
X14526907Y-7636510D02*
X14456196Y-7565800D01*
X14456196Y-7565800D02*
X14429259Y-7592737D01*
X14429259Y-7592737D02*
X14425892Y-7602838D01*
X14425892Y-7602838D02*
X14425892Y-7609573D01*
X14425892Y-7609573D02*
X14429259Y-7619674D01*
X14429259Y-7619674D02*
X14439361Y-7629776D01*
X14439361Y-7629776D02*
X14449462Y-7633143D01*
X14449462Y-7633143D02*
X14456196Y-7633143D01*
X14456196Y-7633143D02*
X14466298Y-7629776D01*
X14466298Y-7629776D02*
X14493235Y-7602838D01*
X14395587Y-7639877D02*
X14388853Y-7639877D01*
X14388853Y-7639877D02*
X14378751Y-7643245D01*
X14378751Y-7643245D02*
X14361916Y-7660080D01*
X14361916Y-7660080D02*
X14358548Y-7670182D01*
X14358548Y-7670182D02*
X14358548Y-7676916D01*
X14358548Y-7676916D02*
X14361916Y-7687018D01*
X14361916Y-7687018D02*
X14368650Y-7693752D01*
X14368650Y-7693752D02*
X14382119Y-7700487D01*
X14382119Y-7700487D02*
X14462931Y-7700487D01*
X14462931Y-7700487D02*
X14419158Y-7744260D01*
X14324877Y-7697119D02*
X14277736Y-7744260D01*
X14277736Y-7744260D02*
X14378751Y-7784666D01*
X18347059Y-5463811D02*
X18347059Y-5363811D01*
X18347059Y-5363811D02*
X18323250Y-5363811D01*
X18323250Y-5363811D02*
X18308964Y-5368573D01*
X18308964Y-5368573D02*
X18299440Y-5378097D01*
X18299440Y-5378097D02*
X18294679Y-5387620D01*
X18294679Y-5387620D02*
X18289917Y-5406668D01*
X18289917Y-5406668D02*
X18289917Y-5420954D01*
X18289917Y-5420954D02*
X18294679Y-5440001D01*
X18294679Y-5440001D02*
X18299440Y-5449525D01*
X18299440Y-5449525D02*
X18308964Y-5459049D01*
X18308964Y-5459049D02*
X18323250Y-5463811D01*
X18323250Y-5463811D02*
X18347059Y-5463811D01*
X18204202Y-5397144D02*
X18204202Y-5463811D01*
X18228012Y-5359049D02*
X18251821Y-5430478D01*
X18251821Y-5430478D02*
X18189917Y-5430478D01*
X10798809Y-5645482D02*
X10798809Y-5545482D01*
X10798809Y-5545482D02*
X10760714Y-5545482D01*
X10760714Y-5545482D02*
X10751190Y-5550244D01*
X10751190Y-5550244D02*
X10746429Y-5555006D01*
X10746429Y-5555006D02*
X10741667Y-5564530D01*
X10741667Y-5564530D02*
X10741667Y-5578815D01*
X10741667Y-5578815D02*
X10746429Y-5588339D01*
X10746429Y-5588339D02*
X10751190Y-5593101D01*
X10751190Y-5593101D02*
X10760714Y-5597863D01*
X10760714Y-5597863D02*
X10798809Y-5597863D01*
X10646429Y-5645482D02*
X10703571Y-5645482D01*
X10675000Y-5645482D02*
X10675000Y-5545482D01*
X10675000Y-5545482D02*
X10684524Y-5559768D01*
X10684524Y-5559768D02*
X10694048Y-5569291D01*
X10694048Y-5569291D02*
X10703571Y-5574053D01*
X13243575Y-5863811D02*
X13276908Y-5816192D01*
X13300718Y-5863811D02*
X13300718Y-5763811D01*
X13300718Y-5763811D02*
X13262623Y-5763811D01*
X13262623Y-5763811D02*
X13253099Y-5768573D01*
X13253099Y-5768573D02*
X13248337Y-5773335D01*
X13248337Y-5773335D02*
X13243575Y-5782859D01*
X13243575Y-5782859D02*
X13243575Y-5797144D01*
X13243575Y-5797144D02*
X13248337Y-5806668D01*
X13248337Y-5806668D02*
X13253099Y-5811430D01*
X13253099Y-5811430D02*
X13262623Y-5816192D01*
X13262623Y-5816192D02*
X13300718Y-5816192D01*
X13148337Y-5863811D02*
X13205480Y-5863811D01*
X13176908Y-5863811D02*
X13176908Y-5763811D01*
X13176908Y-5763811D02*
X13186432Y-5778097D01*
X13186432Y-5778097D02*
X13195956Y-5787620D01*
X13195956Y-5787620D02*
X13205480Y-5792382D01*
X13115003Y-5763811D02*
X13053099Y-5763811D01*
X13053099Y-5763811D02*
X13086432Y-5801906D01*
X13086432Y-5801906D02*
X13072146Y-5801906D01*
X13072146Y-5801906D02*
X13062623Y-5806668D01*
X13062623Y-5806668D02*
X13057861Y-5811430D01*
X13057861Y-5811430D02*
X13053099Y-5820954D01*
X13053099Y-5820954D02*
X13053099Y-5844763D01*
X13053099Y-5844763D02*
X13057861Y-5854287D01*
X13057861Y-5854287D02*
X13062623Y-5859049D01*
X13062623Y-5859049D02*
X13072146Y-5863811D01*
X13072146Y-5863811D02*
X13100718Y-5863811D01*
X13100718Y-5863811D02*
X13110242Y-5859049D01*
X13110242Y-5859049D02*
X13115003Y-5854287D01*
X14072869Y-6903192D02*
X14072869Y-6950811D01*
X14106202Y-6850811D02*
X14072869Y-6903192D01*
X14072869Y-6903192D02*
X14039536Y-6850811D01*
X13953821Y-6950811D02*
X14010964Y-6950811D01*
X13982393Y-6950811D02*
X13982393Y-6850811D01*
X13982393Y-6850811D02*
X13991917Y-6865097D01*
X13991917Y-6865097D02*
X14001440Y-6874620D01*
X14001440Y-6874620D02*
X14010964Y-6879382D01*
X14664286Y-5549811D02*
X14697619Y-5502192D01*
X14721428Y-5549811D02*
X14721428Y-5449811D01*
X14721428Y-5449811D02*
X14683333Y-5449811D01*
X14683333Y-5449811D02*
X14673809Y-5454573D01*
X14673809Y-5454573D02*
X14669048Y-5459335D01*
X14669048Y-5459335D02*
X14664286Y-5468859D01*
X14664286Y-5468859D02*
X14664286Y-5483144D01*
X14664286Y-5483144D02*
X14669048Y-5492668D01*
X14669048Y-5492668D02*
X14673809Y-5497430D01*
X14673809Y-5497430D02*
X14683333Y-5502192D01*
X14683333Y-5502192D02*
X14721428Y-5502192D01*
X14630952Y-5449811D02*
X14569048Y-5449811D01*
X14569048Y-5449811D02*
X14602381Y-5487906D01*
X14602381Y-5487906D02*
X14588095Y-5487906D01*
X14588095Y-5487906D02*
X14578571Y-5492668D01*
X14578571Y-5492668D02*
X14573809Y-5497430D01*
X14573809Y-5497430D02*
X14569048Y-5506954D01*
X14569048Y-5506954D02*
X14569048Y-5530763D01*
X14569048Y-5530763D02*
X14573809Y-5540287D01*
X14573809Y-5540287D02*
X14578571Y-5545049D01*
X14578571Y-5545049D02*
X14588095Y-5549811D01*
X14588095Y-5549811D02*
X14616667Y-5549811D01*
X14616667Y-5549811D02*
X14626190Y-5545049D01*
X14626190Y-5545049D02*
X14630952Y-5540287D01*
X14507143Y-5449811D02*
X14497619Y-5449811D01*
X14497619Y-5449811D02*
X14488095Y-5454573D01*
X14488095Y-5454573D02*
X14483333Y-5459335D01*
X14483333Y-5459335D02*
X14478571Y-5468859D01*
X14478571Y-5468859D02*
X14473809Y-5487906D01*
X14473809Y-5487906D02*
X14473809Y-5511716D01*
X14473809Y-5511716D02*
X14478571Y-5530763D01*
X14478571Y-5530763D02*
X14483333Y-5540287D01*
X14483333Y-5540287D02*
X14488095Y-5545049D01*
X14488095Y-5545049D02*
X14497619Y-5549811D01*
X14497619Y-5549811D02*
X14507143Y-5549811D01*
X14507143Y-5549811D02*
X14516667Y-5545049D01*
X14516667Y-5545049D02*
X14521428Y-5540287D01*
X14521428Y-5540287D02*
X14526190Y-5530763D01*
X14526190Y-5530763D02*
X14530952Y-5511716D01*
X14530952Y-5511716D02*
X14530952Y-5487906D01*
X14530952Y-5487906D02*
X14526190Y-5468859D01*
X14526190Y-5468859D02*
X14521428Y-5459335D01*
X14521428Y-5459335D02*
X14516667Y-5454573D01*
X14516667Y-5454573D02*
X14507143Y-5449811D01*
X17016501Y-5636916D02*
X17006400Y-5579674D01*
X17056907Y-5596510D02*
X16986197Y-5525800D01*
X16986197Y-5525800D02*
X16959259Y-5552737D01*
X16959259Y-5552737D02*
X16955892Y-5562839D01*
X16955892Y-5562839D02*
X16955892Y-5569573D01*
X16955892Y-5569573D02*
X16959259Y-5579674D01*
X16959259Y-5579674D02*
X16969361Y-5589776D01*
X16969361Y-5589776D02*
X16979462Y-5593143D01*
X16979462Y-5593143D02*
X16986197Y-5593143D01*
X16986197Y-5593143D02*
X16996298Y-5589776D01*
X16996298Y-5589776D02*
X17023235Y-5562839D01*
X16922220Y-5589776D02*
X16878447Y-5633549D01*
X16878447Y-5633549D02*
X16928955Y-5636916D01*
X16928955Y-5636916D02*
X16918853Y-5647018D01*
X16918853Y-5647018D02*
X16915486Y-5657119D01*
X16915486Y-5657119D02*
X16915486Y-5663854D01*
X16915486Y-5663854D02*
X16918853Y-5673955D01*
X16918853Y-5673955D02*
X16935689Y-5690791D01*
X16935689Y-5690791D02*
X16945790Y-5694158D01*
X16945790Y-5694158D02*
X16952525Y-5694158D01*
X16952525Y-5694158D02*
X16962626Y-5690791D01*
X16962626Y-5690791D02*
X16982829Y-5670588D01*
X16982829Y-5670588D02*
X16986197Y-5660487D01*
X16986197Y-5660487D02*
X16986197Y-5653752D01*
X16854877Y-5657119D02*
X16807736Y-5704260D01*
X16807736Y-5704260D02*
X16908752Y-5744666D01*
X15170845Y-7901397D02*
X15170845Y-7908132D01*
X15170845Y-7908132D02*
X15177580Y-7921600D01*
X15177580Y-7921600D02*
X15184314Y-7928335D01*
X15184314Y-7928335D02*
X15197783Y-7935069D01*
X15197783Y-7935069D02*
X15211251Y-7935069D01*
X15211251Y-7935069D02*
X15221353Y-7931702D01*
X15221353Y-7931702D02*
X15238189Y-7921600D01*
X15238189Y-7921600D02*
X15248290Y-7911499D01*
X15248290Y-7911499D02*
X15258392Y-7894663D01*
X15258392Y-7894663D02*
X15261759Y-7884561D01*
X15261759Y-7884561D02*
X15261759Y-7871093D01*
X15261759Y-7871093D02*
X15255025Y-7857624D01*
X15255025Y-7857624D02*
X15248290Y-7850890D01*
X15248290Y-7850890D02*
X15234822Y-7844155D01*
X15234822Y-7844155D02*
X15228087Y-7844155D01*
X15096768Y-7840788D02*
X15137174Y-7881194D01*
X15116971Y-7860991D02*
X15187681Y-7790280D01*
X15187681Y-7790280D02*
X15184314Y-7807116D01*
X15184314Y-7807116D02*
X15184314Y-7820585D01*
X15184314Y-7820585D02*
X15187681Y-7830687D01*
X15083299Y-7733038D02*
X15036158Y-7780179D01*
X15127072Y-7722937D02*
X15093400Y-7790280D01*
X15093400Y-7790280D02*
X15049627Y-7746507D01*
X18355536Y-5449811D02*
X18388869Y-5402192D01*
X18412679Y-5449811D02*
X18412679Y-5349811D01*
X18412679Y-5349811D02*
X18374583Y-5349811D01*
X18374583Y-5349811D02*
X18365060Y-5354573D01*
X18365060Y-5354573D02*
X18360298Y-5359335D01*
X18360298Y-5359335D02*
X18355536Y-5368859D01*
X18355536Y-5368859D02*
X18355536Y-5383144D01*
X18355536Y-5383144D02*
X18360298Y-5392668D01*
X18360298Y-5392668D02*
X18365060Y-5397430D01*
X18365060Y-5397430D02*
X18374583Y-5402192D01*
X18374583Y-5402192D02*
X18412679Y-5402192D01*
X18317440Y-5359335D02*
X18312679Y-5354573D01*
X18312679Y-5354573D02*
X18303155Y-5349811D01*
X18303155Y-5349811D02*
X18279345Y-5349811D01*
X18279345Y-5349811D02*
X18269821Y-5354573D01*
X18269821Y-5354573D02*
X18265060Y-5359335D01*
X18265060Y-5359335D02*
X18260298Y-5368859D01*
X18260298Y-5368859D02*
X18260298Y-5378382D01*
X18260298Y-5378382D02*
X18265060Y-5392668D01*
X18265060Y-5392668D02*
X18322202Y-5449811D01*
X18322202Y-5449811D02*
X18260298Y-5449811D01*
X18165060Y-5449811D02*
X18222202Y-5449811D01*
X18193631Y-5449811D02*
X18193631Y-5349811D01*
X18193631Y-5349811D02*
X18203155Y-5364097D01*
X18203155Y-5364097D02*
X18212679Y-5373620D01*
X18212679Y-5373620D02*
X18222202Y-5378382D01*
X16310845Y-5091397D02*
X16310845Y-5098132D01*
X16310845Y-5098132D02*
X16317580Y-5111600D01*
X16317580Y-5111600D02*
X16324314Y-5118335D01*
X16324314Y-5118335D02*
X16337783Y-5125069D01*
X16337783Y-5125069D02*
X16351251Y-5125069D01*
X16351251Y-5125069D02*
X16361353Y-5121702D01*
X16361353Y-5121702D02*
X16378189Y-5111600D01*
X16378189Y-5111600D02*
X16388290Y-5101499D01*
X16388290Y-5101499D02*
X16398392Y-5084663D01*
X16398392Y-5084663D02*
X16401759Y-5074561D01*
X16401759Y-5074561D02*
X16401759Y-5061093D01*
X16401759Y-5061093D02*
X16395025Y-5047624D01*
X16395025Y-5047624D02*
X16388290Y-5040890D01*
X16388290Y-5040890D02*
X16374822Y-5034155D01*
X16374822Y-5034155D02*
X16368087Y-5034155D01*
X16236768Y-5030788D02*
X16277174Y-5071194D01*
X16256971Y-5050991D02*
X16327681Y-4980281D01*
X16327681Y-4980281D02*
X16324314Y-4997116D01*
X16324314Y-4997116D02*
X16324314Y-5010585D01*
X16324314Y-5010585D02*
X16327681Y-5020687D01*
X16273806Y-4939874D02*
X16273806Y-4933140D01*
X16273806Y-4933140D02*
X16270439Y-4923039D01*
X16270439Y-4923039D02*
X16253603Y-4906203D01*
X16253603Y-4906203D02*
X16243502Y-4902835D01*
X16243502Y-4902835D02*
X16236767Y-4902835D01*
X16236767Y-4902835D02*
X16226666Y-4906203D01*
X16226666Y-4906203D02*
X16219932Y-4912937D01*
X16219932Y-4912937D02*
X16213197Y-4926406D01*
X16213197Y-4926406D02*
X16213197Y-5007218D01*
X16213197Y-5007218D02*
X16169424Y-4963445D01*
X17658734Y-6279149D02*
X17648632Y-6221907D01*
X17699140Y-6238743D02*
X17628429Y-6168032D01*
X17628429Y-6168032D02*
X17601492Y-6194970D01*
X17601492Y-6194970D02*
X17598125Y-6205071D01*
X17598125Y-6205071D02*
X17598125Y-6211805D01*
X17598125Y-6211805D02*
X17601492Y-6221907D01*
X17601492Y-6221907D02*
X17611593Y-6232008D01*
X17611593Y-6232008D02*
X17621695Y-6235376D01*
X17621695Y-6235376D02*
X17628429Y-6235376D01*
X17628429Y-6235376D02*
X17638531Y-6232008D01*
X17638531Y-6232008D02*
X17665468Y-6205071D01*
X17567820Y-6242110D02*
X17561086Y-6242110D01*
X17561086Y-6242110D02*
X17550984Y-6245477D01*
X17550984Y-6245477D02*
X17534148Y-6262313D01*
X17534148Y-6262313D02*
X17530781Y-6272415D01*
X17530781Y-6272415D02*
X17530781Y-6279149D01*
X17530781Y-6279149D02*
X17534148Y-6289250D01*
X17534148Y-6289250D02*
X17540883Y-6295985D01*
X17540883Y-6295985D02*
X17554351Y-6302719D01*
X17554351Y-6302719D02*
X17635164Y-6302719D01*
X17635164Y-6302719D02*
X17591390Y-6346492D01*
X17483641Y-6359961D02*
X17530781Y-6407102D01*
X17473539Y-6316188D02*
X17540883Y-6349860D01*
X17540883Y-6349860D02*
X17497109Y-6393633D01*
X5896667Y-7012287D02*
X5901428Y-7017049D01*
X5901428Y-7017049D02*
X5915714Y-7021811D01*
X5915714Y-7021811D02*
X5925238Y-7021811D01*
X5925238Y-7021811D02*
X5939524Y-7017049D01*
X5939524Y-7017049D02*
X5949047Y-7007525D01*
X5949047Y-7007525D02*
X5953809Y-6998001D01*
X5953809Y-6998001D02*
X5958571Y-6978954D01*
X5958571Y-6978954D02*
X5958571Y-6964668D01*
X5958571Y-6964668D02*
X5953809Y-6945620D01*
X5953809Y-6945620D02*
X5949047Y-6936097D01*
X5949047Y-6936097D02*
X5939524Y-6926573D01*
X5939524Y-6926573D02*
X5925238Y-6921811D01*
X5925238Y-6921811D02*
X5915714Y-6921811D01*
X5915714Y-6921811D02*
X5901428Y-6926573D01*
X5901428Y-6926573D02*
X5896667Y-6931335D01*
X5810952Y-6921811D02*
X5830000Y-6921811D01*
X5830000Y-6921811D02*
X5839524Y-6926573D01*
X5839524Y-6926573D02*
X5844286Y-6931335D01*
X5844286Y-6931335D02*
X5853809Y-6945620D01*
X5853809Y-6945620D02*
X5858571Y-6964668D01*
X5858571Y-6964668D02*
X5858571Y-7002763D01*
X5858571Y-7002763D02*
X5853809Y-7012287D01*
X5853809Y-7012287D02*
X5849047Y-7017049D01*
X5849047Y-7017049D02*
X5839524Y-7021811D01*
X5839524Y-7021811D02*
X5820476Y-7021811D01*
X5820476Y-7021811D02*
X5810952Y-7017049D01*
X5810952Y-7017049D02*
X5806190Y-7012287D01*
X5806190Y-7012287D02*
X5801428Y-7002763D01*
X5801428Y-7002763D02*
X5801428Y-6978954D01*
X5801428Y-6978954D02*
X5806190Y-6969430D01*
X5806190Y-6969430D02*
X5810952Y-6964668D01*
X5810952Y-6964668D02*
X5820476Y-6959906D01*
X5820476Y-6959906D02*
X5839524Y-6959906D01*
X5839524Y-6959906D02*
X5849047Y-6964668D01*
X5849047Y-6964668D02*
X5853809Y-6969430D01*
X5853809Y-6969430D02*
X5858571Y-6978954D01*
X14673036Y-5400811D02*
X14706369Y-5353192D01*
X14730178Y-5400811D02*
X14730178Y-5300811D01*
X14730178Y-5300811D02*
X14692083Y-5300811D01*
X14692083Y-5300811D02*
X14682559Y-5305573D01*
X14682559Y-5305573D02*
X14677798Y-5310335D01*
X14677798Y-5310335D02*
X14673036Y-5319859D01*
X14673036Y-5319859D02*
X14673036Y-5334144D01*
X14673036Y-5334144D02*
X14677798Y-5343668D01*
X14677798Y-5343668D02*
X14682559Y-5348430D01*
X14682559Y-5348430D02*
X14692083Y-5353192D01*
X14692083Y-5353192D02*
X14730178Y-5353192D01*
X14634940Y-5310335D02*
X14630178Y-5305573D01*
X14630178Y-5305573D02*
X14620655Y-5300811D01*
X14620655Y-5300811D02*
X14596845Y-5300811D01*
X14596845Y-5300811D02*
X14587321Y-5305573D01*
X14587321Y-5305573D02*
X14582559Y-5310335D01*
X14582559Y-5310335D02*
X14577798Y-5319859D01*
X14577798Y-5319859D02*
X14577798Y-5329382D01*
X14577798Y-5329382D02*
X14582559Y-5343668D01*
X14582559Y-5343668D02*
X14639702Y-5400811D01*
X14639702Y-5400811D02*
X14577798Y-5400811D01*
X14492083Y-5300811D02*
X14511131Y-5300811D01*
X14511131Y-5300811D02*
X14520655Y-5305573D01*
X14520655Y-5305573D02*
X14525417Y-5310335D01*
X14525417Y-5310335D02*
X14534940Y-5324620D01*
X14534940Y-5324620D02*
X14539702Y-5343668D01*
X14539702Y-5343668D02*
X14539702Y-5381763D01*
X14539702Y-5381763D02*
X14534940Y-5391287D01*
X14534940Y-5391287D02*
X14530178Y-5396049D01*
X14530178Y-5396049D02*
X14520655Y-5400811D01*
X14520655Y-5400811D02*
X14501607Y-5400811D01*
X14501607Y-5400811D02*
X14492083Y-5396049D01*
X14492083Y-5396049D02*
X14487321Y-5391287D01*
X14487321Y-5391287D02*
X14482559Y-5381763D01*
X14482559Y-5381763D02*
X14482559Y-5357954D01*
X14482559Y-5357954D02*
X14487321Y-5348430D01*
X14487321Y-5348430D02*
X14492083Y-5343668D01*
X14492083Y-5343668D02*
X14501607Y-5338906D01*
X14501607Y-5338906D02*
X14520655Y-5338906D01*
X14520655Y-5338906D02*
X14530178Y-5343668D01*
X14530178Y-5343668D02*
X14534940Y-5348430D01*
X14534940Y-5348430D02*
X14539702Y-5357954D01*
X4934286Y-8619811D02*
X4967619Y-8572192D01*
X4991429Y-8619811D02*
X4991429Y-8519811D01*
X4991429Y-8519811D02*
X4953333Y-8519811D01*
X4953333Y-8519811D02*
X4943810Y-8524573D01*
X4943810Y-8524573D02*
X4939048Y-8529335D01*
X4939048Y-8529335D02*
X4934286Y-8538859D01*
X4934286Y-8538859D02*
X4934286Y-8553144D01*
X4934286Y-8553144D02*
X4939048Y-8562668D01*
X4939048Y-8562668D02*
X4943810Y-8567430D01*
X4943810Y-8567430D02*
X4953333Y-8572192D01*
X4953333Y-8572192D02*
X4991429Y-8572192D01*
X4839048Y-8619811D02*
X4896190Y-8619811D01*
X4867619Y-8619811D02*
X4867619Y-8519811D01*
X4867619Y-8519811D02*
X4877143Y-8534097D01*
X4877143Y-8534097D02*
X4886667Y-8543620D01*
X4886667Y-8543620D02*
X4896190Y-8548382D01*
X4777143Y-8519811D02*
X4767619Y-8519811D01*
X4767619Y-8519811D02*
X4758095Y-8524573D01*
X4758095Y-8524573D02*
X4753333Y-8529335D01*
X4753333Y-8529335D02*
X4748571Y-8538859D01*
X4748571Y-8538859D02*
X4743810Y-8557906D01*
X4743810Y-8557906D02*
X4743810Y-8581716D01*
X4743810Y-8581716D02*
X4748571Y-8600763D01*
X4748571Y-8600763D02*
X4753333Y-8610287D01*
X4753333Y-8610287D02*
X4758095Y-8615049D01*
X4758095Y-8615049D02*
X4767619Y-8619811D01*
X4767619Y-8619811D02*
X4777143Y-8619811D01*
X4777143Y-8619811D02*
X4786667Y-8615049D01*
X4786667Y-8615049D02*
X4791429Y-8610287D01*
X4791429Y-8610287D02*
X4796190Y-8600763D01*
X4796190Y-8600763D02*
X4800952Y-8581716D01*
X4800952Y-8581716D02*
X4800952Y-8557906D01*
X4800952Y-8557906D02*
X4796190Y-8538859D01*
X4796190Y-8538859D02*
X4791429Y-8529335D01*
X4791429Y-8529335D02*
X4786667Y-8524573D01*
X4786667Y-8524573D02*
X4777143Y-8519811D01*
X17126501Y-5746916D02*
X17116400Y-5689674D01*
X17166907Y-5706510D02*
X17096197Y-5635800D01*
X17096197Y-5635800D02*
X17069259Y-5662737D01*
X17069259Y-5662737D02*
X17065892Y-5672838D01*
X17065892Y-5672838D02*
X17065892Y-5679573D01*
X17065892Y-5679573D02*
X17069259Y-5689674D01*
X17069259Y-5689674D02*
X17079361Y-5699776D01*
X17079361Y-5699776D02*
X17089462Y-5703143D01*
X17089462Y-5703143D02*
X17096197Y-5703143D01*
X17096197Y-5703143D02*
X17106298Y-5699776D01*
X17106298Y-5699776D02*
X17133235Y-5672838D01*
X17032220Y-5699776D02*
X16988447Y-5743549D01*
X16988447Y-5743549D02*
X17038955Y-5746916D01*
X17038955Y-5746916D02*
X17028853Y-5757018D01*
X17028853Y-5757018D02*
X17025486Y-5767119D01*
X17025486Y-5767119D02*
X17025486Y-5773854D01*
X17025486Y-5773854D02*
X17028853Y-5783955D01*
X17028853Y-5783955D02*
X17045689Y-5800791D01*
X17045689Y-5800791D02*
X17055790Y-5804158D01*
X17055790Y-5804158D02*
X17062525Y-5804158D01*
X17062525Y-5804158D02*
X17072626Y-5800791D01*
X17072626Y-5800791D02*
X17092829Y-5780588D01*
X17092829Y-5780588D02*
X17096197Y-5770487D01*
X17096197Y-5770487D02*
X17096197Y-5763752D01*
X17025486Y-5847932D02*
X17012017Y-5861400D01*
X17012017Y-5861400D02*
X17001916Y-5864767D01*
X17001916Y-5864767D02*
X16995181Y-5864767D01*
X16995181Y-5864767D02*
X16978345Y-5861400D01*
X16978345Y-5861400D02*
X16961510Y-5851299D01*
X16961510Y-5851299D02*
X16934572Y-5824361D01*
X16934572Y-5824361D02*
X16931205Y-5814260D01*
X16931205Y-5814260D02*
X16931205Y-5807525D01*
X16931205Y-5807525D02*
X16934572Y-5797424D01*
X16934572Y-5797424D02*
X16948041Y-5783955D01*
X16948041Y-5783955D02*
X16958142Y-5780588D01*
X16958142Y-5780588D02*
X16964877Y-5780588D01*
X16964877Y-5780588D02*
X16974978Y-5783955D01*
X16974978Y-5783955D02*
X16991814Y-5800791D01*
X16991814Y-5800791D02*
X16995181Y-5810893D01*
X16995181Y-5810893D02*
X16995181Y-5817627D01*
X16995181Y-5817627D02*
X16991814Y-5827729D01*
X16991814Y-5827729D02*
X16978345Y-5841197D01*
X16978345Y-5841197D02*
X16968244Y-5844564D01*
X16968244Y-5844564D02*
X16961510Y-5844564D01*
X16961510Y-5844564D02*
X16951408Y-5841197D01*
X19909585Y-5538297D02*
X19899484Y-5481055D01*
X19949992Y-5497891D02*
X19879281Y-5427181D01*
X19879281Y-5427181D02*
X19852343Y-5454118D01*
X19852343Y-5454118D02*
X19848976Y-5464219D01*
X19848976Y-5464219D02*
X19848976Y-5470954D01*
X19848976Y-5470954D02*
X19852343Y-5481055D01*
X19852343Y-5481055D02*
X19862445Y-5491157D01*
X19862445Y-5491157D02*
X19872547Y-5494524D01*
X19872547Y-5494524D02*
X19879281Y-5494524D01*
X19879281Y-5494524D02*
X19889382Y-5491157D01*
X19889382Y-5491157D02*
X19916320Y-5464219D01*
X19815305Y-5491157D02*
X19768164Y-5538297D01*
X19768164Y-5538297D02*
X19869179Y-5578703D01*
X14743643Y-6829361D02*
X14748405Y-6824599D01*
X14748405Y-6824599D02*
X14753167Y-6810313D01*
X14753167Y-6810313D02*
X14753167Y-6800789D01*
X14753167Y-6800789D02*
X14748405Y-6786503D01*
X14748405Y-6786503D02*
X14738882Y-6776980D01*
X14738882Y-6776980D02*
X14729358Y-6772218D01*
X14729358Y-6772218D02*
X14710310Y-6767456D01*
X14710310Y-6767456D02*
X14696024Y-6767456D01*
X14696024Y-6767456D02*
X14676977Y-6772218D01*
X14676977Y-6772218D02*
X14667453Y-6776980D01*
X14667453Y-6776980D02*
X14657929Y-6786503D01*
X14657929Y-6786503D02*
X14653167Y-6800789D01*
X14653167Y-6800789D02*
X14653167Y-6810313D01*
X14653167Y-6810313D02*
X14657929Y-6824599D01*
X14657929Y-6824599D02*
X14662691Y-6829361D01*
X14753167Y-6924599D02*
X14753167Y-6867456D01*
X14753167Y-6896027D02*
X14653167Y-6896027D01*
X14653167Y-6896027D02*
X14667453Y-6886503D01*
X14667453Y-6886503D02*
X14676977Y-6876980D01*
X14676977Y-6876980D02*
X14681739Y-6867456D01*
X14653167Y-6957932D02*
X14653167Y-7024599D01*
X14653167Y-7024599D02*
X14753167Y-6981742D01*
X8436190Y-8374811D02*
X8436190Y-8455763D01*
X8436190Y-8455763D02*
X8431429Y-8465287D01*
X8431429Y-8465287D02*
X8426667Y-8470049D01*
X8426667Y-8470049D02*
X8417143Y-8474811D01*
X8417143Y-8474811D02*
X8398095Y-8474811D01*
X8398095Y-8474811D02*
X8388571Y-8470049D01*
X8388571Y-8470049D02*
X8383809Y-8465287D01*
X8383809Y-8465287D02*
X8379048Y-8455763D01*
X8379048Y-8455763D02*
X8379048Y-8374811D01*
X8340952Y-8374811D02*
X8279048Y-8374811D01*
X8279048Y-8374811D02*
X8312381Y-8412906D01*
X8312381Y-8412906D02*
X8298095Y-8412906D01*
X8298095Y-8412906D02*
X8288571Y-8417668D01*
X8288571Y-8417668D02*
X8283809Y-8422430D01*
X8283809Y-8422430D02*
X8279048Y-8431954D01*
X8279048Y-8431954D02*
X8279048Y-8455763D01*
X8279048Y-8455763D02*
X8283809Y-8465287D01*
X8283809Y-8465287D02*
X8288571Y-8470049D01*
X8288571Y-8470049D02*
X8298095Y-8474811D01*
X8298095Y-8474811D02*
X8326667Y-8474811D01*
X8326667Y-8474811D02*
X8336190Y-8470049D01*
X8336190Y-8470049D02*
X8340952Y-8465287D01*
%TO.C,C13*%
D11*
X14904280Y-6174924D02*
X14883595Y-6195609D01*
X14976405Y-6247049D02*
X14955720Y-6267734D01*
%TO.C,R16*%
X14895042Y-8420264D02*
X14931065Y-8456287D01*
X14968935Y-8346371D02*
X15004958Y-8382394D01*
%TO.C,U5*%
X10093500Y-6452829D02*
X10093500Y-6864829D01*
X10093500Y-6864829D02*
X10099000Y-6864829D01*
X10099000Y-6452829D02*
X10093500Y-6452829D01*
X11100000Y-6864829D02*
X11105500Y-6864829D01*
X11105500Y-6452829D02*
X11100000Y-6452829D01*
X11105500Y-6864829D02*
X11105500Y-6452829D01*
X10098500Y-6398829D02*
X10065500Y-6374829D01*
X10065500Y-6422829D01*
X10098500Y-6398829D01*
G36*
X10098500Y-6398829D02*
G01*
X10065500Y-6422829D01*
X10065500Y-6374829D01*
X10098500Y-6398829D01*
G37*
%TO.C,R25*%
X14583278Y-5459079D02*
X14634222Y-5459079D01*
X14583278Y-5563579D02*
X14634222Y-5563579D01*
%TO.C,C23*%
X16769329Y-6727309D02*
X16769329Y-6869559D01*
X16951329Y-6727309D02*
X16951329Y-6869559D01*
%TO.C,C15*%
X15389776Y-5992139D02*
X15289190Y-5891553D01*
X15518470Y-5863445D02*
X15417883Y-5762859D01*
%TO.C,C26*%
X13189000Y-8502454D02*
X13189000Y-8360204D01*
X13371000Y-8502454D02*
X13371000Y-8360204D01*
%TO.C,R28*%
X17315042Y-6062394D02*
X17351065Y-6026371D01*
X17388935Y-6136287D02*
X17424958Y-6100264D01*
%TO.C,R8*%
X6482706Y-6710329D02*
X6337294Y-6710329D01*
X6482706Y-6892329D02*
X6337294Y-6892329D01*
%TO.C,R17*%
X15005042Y-8320264D02*
X15041065Y-8356287D01*
X15078935Y-8246371D02*
X15114958Y-8282394D01*
%TO.C,R20*%
X11028278Y-7621579D02*
X11079222Y-7621579D01*
X11028278Y-7726079D02*
X11079222Y-7726079D01*
%TO.C,C16*%
X15555946Y-5825969D02*
X15455360Y-5725383D01*
X15684640Y-5697275D02*
X15584054Y-5596689D01*
%TO.C,U2*%
X5624000Y-7185329D02*
X5624000Y-7597329D01*
X5624000Y-7597329D02*
X5633500Y-7597329D01*
X5633500Y-7185329D02*
X5624000Y-7185329D01*
X6126500Y-7597329D02*
X6136000Y-7597329D01*
X6136000Y-7185329D02*
X6126500Y-7185329D01*
X6136000Y-7597329D02*
X6136000Y-7185329D01*
X6127000Y-7651329D02*
X6160000Y-7675329D01*
X6160000Y-7627329D01*
X6127000Y-7651329D01*
G36*
X6160000Y-7675329D02*
G01*
X6127000Y-7651329D01*
X6160000Y-7627329D01*
X6160000Y-7675329D01*
G37*
%TO.C,R11*%
X4927750Y-8906801D02*
X4927750Y-8855857D01*
X5032250Y-8906801D02*
X5032250Y-8855857D01*
%TO.C,J1*%
X5310000Y-5281329D02*
X5310000Y-5991329D01*
X5360000Y-5991329D02*
X5310000Y-5991329D01*
X5890000Y-5991329D02*
X5520000Y-5991329D01*
X6170000Y-5991329D02*
X6050000Y-5991329D01*
X6380000Y-5281329D02*
X6380000Y-5661329D01*
X6410000Y-6021329D02*
X6310000Y-6021329D01*
X6410000Y-6021329D02*
X6410000Y-5921329D01*
%TO.C,R33*%
X17155042Y-7290264D02*
X17191065Y-7326287D01*
X17228935Y-7216371D02*
X17264958Y-7252394D01*
%TO.C,FB1*%
X15898076Y-5590418D02*
X15873855Y-5614638D01*
X15970201Y-5662542D02*
X15945980Y-5686763D01*
%TO.C,Q1*%
X4569000Y-6207329D02*
X4605000Y-6207329D01*
X4569000Y-6319329D02*
X4569000Y-6283329D01*
X4569000Y-6391329D02*
X4569000Y-6355329D01*
X4569000Y-6463329D02*
X4569000Y-6427329D01*
X4569000Y-6535329D02*
X4569000Y-6499329D01*
X4569000Y-6607329D02*
X4569000Y-6571329D01*
X4569000Y-6679329D02*
X4569000Y-6643329D01*
X4569000Y-6751329D02*
X4569000Y-6715329D01*
X4569000Y-6847329D02*
X5591000Y-6847329D01*
X4569000Y-7794329D02*
X4569000Y-6847329D01*
X4569000Y-7794329D02*
X5591000Y-7794329D01*
X4569000Y-6247329D02*
X4569000Y-6211329D01*
X4569000Y-6823329D02*
X4569000Y-6787329D01*
X4641000Y-6207329D02*
X4677000Y-6207329D01*
X4713000Y-6207329D02*
X4749000Y-6207329D01*
X4777500Y-7794329D02*
X4777500Y-8038329D01*
X4785000Y-6207329D02*
X4821000Y-6207329D01*
X4857000Y-6207329D02*
X4893000Y-6207329D01*
X4874500Y-7794329D02*
X4874500Y-8038329D01*
X4929000Y-6207329D02*
X4965000Y-6207329D01*
X5001000Y-6207329D02*
X5037000Y-6207329D01*
X5031500Y-7794329D02*
X5031500Y-8038329D01*
X5073000Y-6207329D02*
X5109000Y-6207329D01*
X5128500Y-7794329D02*
X5128500Y-8038329D01*
X5145000Y-6207329D02*
X5181000Y-6207329D01*
X5217000Y-6207329D02*
X5253000Y-6207329D01*
X5285500Y-7794329D02*
X5285500Y-8038329D01*
X5289000Y-6207329D02*
X5325000Y-6207329D01*
X5361000Y-6207329D02*
X5397000Y-6207329D01*
X5382500Y-7794329D02*
X5382500Y-8038329D01*
X5433000Y-6207329D02*
X5469000Y-6207329D01*
X5505000Y-6207329D02*
X5541000Y-6207329D01*
X5577000Y-6207329D02*
X5591000Y-6207329D01*
X5591000Y-6535329D02*
X5591000Y-6499329D01*
X5591000Y-6607329D02*
X5591000Y-6571329D01*
X5591000Y-6247329D02*
X5591000Y-6211329D01*
X5591000Y-6319329D02*
X5591000Y-6283329D01*
X5591000Y-6391329D02*
X5591000Y-6355329D01*
X5591000Y-6463329D02*
X5591000Y-6427329D01*
X5591000Y-6679329D02*
X5591000Y-6643329D01*
X5591000Y-6751329D02*
X5591000Y-6715329D01*
X5591000Y-6823329D02*
X5591000Y-6787329D01*
X5591000Y-7794329D02*
X5591000Y-6847329D01*
%TO.C,C6*%
X6609000Y-5772454D02*
X6609000Y-5630204D01*
X6791000Y-5772454D02*
X6791000Y-5630204D01*
%TO.C,C28*%
X20409000Y-8532454D02*
X20409000Y-8390204D01*
X20591000Y-8532454D02*
X20591000Y-8390204D01*
%TO.C,C9*%
X8529000Y-8620204D02*
X8529000Y-8762454D01*
X8711000Y-8620204D02*
X8711000Y-8762454D01*
%TO.C,U4*%
X15177337Y-6911329D02*
X15244512Y-6978504D01*
X15244512Y-6844154D02*
X15177337Y-6911329D01*
X15832825Y-7566817D02*
X15900000Y-7633992D01*
X15900000Y-6188666D02*
X15832825Y-6255841D01*
X15900000Y-7633992D02*
X15967175Y-7566817D01*
X15967175Y-6255841D02*
X15900000Y-6188666D01*
X16555488Y-6978504D02*
X16622663Y-6911329D01*
X16622663Y-6911329D02*
X16555488Y-6844154D01*
X15199257Y-6798899D02*
X15141981Y-6808091D01*
X15190065Y-6856175D01*
X15199257Y-6798899D01*
G36*
X15190065Y-6856175D02*
G01*
X15141981Y-6808091D01*
X15199257Y-6798899D01*
X15190065Y-6856175D01*
G37*
%TO.C,U9*%
X19328000Y-9036329D02*
X21372000Y-9036329D01*
X19328000Y-9161329D02*
X19328000Y-9036329D01*
X19328000Y-9486329D02*
X19328000Y-9361329D01*
X21372000Y-9036329D02*
X21372000Y-9486329D01*
X21372000Y-9486329D02*
X19328000Y-9486329D01*
X19328000Y-9161329D02*
G75*
G02*
X19328000Y-9361329I0J-100000D01*
G01*
%TO.C,U1*%
X8447750Y-5569329D02*
X8447750Y-5827329D01*
X8545750Y-5827329D02*
X8447750Y-5827329D01*
X8821750Y-5827329D02*
X8919750Y-5827329D01*
X8919750Y-5827329D02*
X8919750Y-5555329D01*
X8462750Y-5514329D02*
X8429750Y-5490329D01*
X8429750Y-5538329D01*
X8462750Y-5514329D01*
G36*
X8462750Y-5514329D02*
G01*
X8429750Y-5538329D01*
X8429750Y-5490329D01*
X8462750Y-5514329D01*
G37*
%TO.C,TP1*%
X11320000Y-7313829D02*
G75*
G02*
X10980000Y-7313829I-170000J0D01*
G01*
X10980000Y-7313829D02*
G75*
G02*
X11320000Y-7313829I170000J0D01*
G01*
%TO.C,C25*%
X10359000Y-8482454D02*
X10359000Y-8340204D01*
X10541000Y-8482454D02*
X10541000Y-8340204D01*
%TO.C,C22*%
X16135946Y-6075969D02*
X16035360Y-5975383D01*
X16264640Y-5947275D02*
X16164054Y-5846689D01*
%TO.C,R18*%
X14803595Y-6440672D02*
X14854540Y-6440672D01*
X14803595Y-6545172D02*
X14854540Y-6545172D01*
%TO.C,R40*%
X19822706Y-8020329D02*
X19677294Y-8020329D01*
X19822706Y-8202329D02*
X19677294Y-8202329D01*
%TO.C,C5*%
X8959000Y-5392454D02*
X8959000Y-5250204D01*
X9141000Y-5392454D02*
X9141000Y-5250204D01*
%TO.C,SW4*%
X13409289Y-5856329D02*
X13409289Y-5866329D01*
X13409289Y-5706329D02*
X13849289Y-5706329D01*
X13849289Y-6016329D02*
X13409289Y-6016329D01*
X13849289Y-5856329D02*
X13849289Y-5866329D01*
%TO.C,R19*%
X17947778Y-4909079D02*
X17998722Y-4909079D01*
X17947778Y-5013579D02*
X17998722Y-5013579D01*
%TO.C,R22*%
X18603278Y-5509079D02*
X18654222Y-5509079D01*
X18603278Y-5613579D02*
X18654222Y-5613579D01*
%TO.C,R15*%
X13153817Y-5709079D02*
X13204762Y-5709079D01*
X13153817Y-5813579D02*
X13204762Y-5813579D01*
%TO.C,C10*%
X5178000Y-10021329D02*
X5358000Y-10021329D01*
X5268000Y-10111329D02*
X5268000Y-9931329D01*
X5294000Y-9761329D02*
X5388000Y-9761329D01*
X5388000Y-10273329D02*
X5388000Y-9249329D01*
X5388000Y-10273329D02*
X5568000Y-10273329D01*
X5388000Y-9249329D02*
X5568000Y-9249329D01*
X5568000Y-10273329D02*
X5658000Y-10183329D01*
X5568000Y-9249329D02*
X5658000Y-9339329D01*
X5658000Y-9339329D02*
X5748000Y-9249329D01*
X5658000Y-10183329D02*
X5748000Y-10273329D01*
X5748000Y-10273329D02*
X7912000Y-10273329D01*
X5748000Y-9249329D02*
X7912000Y-9249329D01*
X7912000Y-10273329D02*
X7912000Y-9249329D01*
X8006000Y-9761329D02*
X7912000Y-9761329D01*
%TO.C,D3*%
X17855750Y-5187829D02*
X18101750Y-5187829D01*
X18101750Y-5187829D02*
X18101750Y-5334829D01*
X18101750Y-5334829D02*
X17855750Y-5334829D01*
%TO.C,R34*%
X16935042Y-7510264D02*
X16971065Y-7546287D01*
X17008935Y-7436371D02*
X17044958Y-7472394D01*
%TO.C,U6*%
X9297000Y-9005329D02*
X11341000Y-9005329D01*
X9297000Y-9130329D02*
X9297000Y-9005329D01*
X9297000Y-9455329D02*
X9297000Y-9330329D01*
X11341000Y-9005329D02*
X11341000Y-9455329D01*
X11341000Y-9455329D02*
X9297000Y-9455329D01*
X9297000Y-9130329D02*
G75*
G02*
X9297000Y-9330329I0J-100000D01*
G01*
%TO.C,R36*%
X16825042Y-7620264D02*
X16861065Y-7656287D01*
X16898935Y-7546371D02*
X16934958Y-7582394D01*
%TO.C,C24*%
X10671125Y-7220329D02*
X10528875Y-7220329D01*
X10671125Y-7402329D02*
X10528875Y-7402329D01*
%TO.C,JP1*%
X15563830Y-5495073D02*
X15606256Y-5537499D01*
X15662825Y-5297083D02*
X15563830Y-5396078D01*
X15705251Y-5537499D02*
X15804246Y-5438504D01*
X15804246Y-5339509D02*
X15761820Y-5297083D01*
X15563830Y-5495073D02*
G75*
G02*
X15563830Y-5396078I49498J49497D01*
G01*
X15662825Y-5297083D02*
G75*
G02*
X15761820Y-5297083I49498J-49497D01*
G01*
X15705251Y-5537499D02*
G75*
G02*
X15606256Y-5537499I-49498J49498D01*
G01*
X15804246Y-5339509D02*
G75*
G02*
X15804246Y-5438504I-49497J-49497D01*
G01*
%TO.C,BZ1*%
X21210000Y-6081329D02*
G75*
G02*
X19590000Y-6081329I-810000J0D01*
G01*
X19590000Y-6081329D02*
G75*
G02*
X21210000Y-6081329I810000J0D01*
G01*
%TO.C,C27*%
X16359000Y-8532454D02*
X16359000Y-8390204D01*
X16541000Y-8532454D02*
X16541000Y-8390204D01*
%TO.C,BT1*%
X22600000Y-5551329D02*
X22700000Y-5551329D01*
X22650000Y-5501329D02*
X22650000Y-5601329D01*
X22960000Y-5451329D02*
G75*
G02*
X22340000Y-5451329I-310000J-1150000D01*
G01*
%TO.C,C11*%
X15981198Y-5430007D02*
X15880611Y-5329421D01*
X16109891Y-5301314D02*
X16009305Y-5200727D01*
%TO.C,C21*%
X16148875Y-7750329D02*
X16291125Y-7750329D01*
X16148875Y-7932329D02*
X16291125Y-7932329D01*
%TO.C,D1*%
X5422000Y-8911329D02*
X5513000Y-8911329D01*
X5655500Y-9183329D02*
X5655500Y-8639329D01*
X5667500Y-9183329D02*
X5667500Y-8639329D01*
X5679500Y-9183329D02*
X5679500Y-8639329D01*
X6578000Y-8911329D02*
X6487000Y-8911329D01*
X5513000Y-8639329D02*
X6487000Y-8639329D01*
X6487000Y-9183329D01*
X5513000Y-9183329D01*
X5513000Y-8639329D01*
%TO.C,C18*%
X14431685Y-6399086D02*
X14431685Y-6256836D01*
X14613685Y-6399086D02*
X14613685Y-6256836D01*
%TO.C,R9*%
X6189000Y-7288623D02*
X6189000Y-7434035D01*
X6371000Y-7288623D02*
X6371000Y-7434035D01*
%TO.C,R12*%
X4767750Y-8736801D02*
X4767750Y-8685857D01*
X4872250Y-8736801D02*
X4872250Y-8685857D01*
%TO.C,R23*%
X14391065Y-7626371D02*
X14355042Y-7662394D01*
X14464958Y-7700264D02*
X14428935Y-7736287D01*
%TO.C,C7*%
X5729000Y-7950204D02*
X5729000Y-8092454D01*
X5911000Y-7950204D02*
X5911000Y-8092454D01*
%TO.C,C4*%
X8219000Y-5732454D02*
X8219000Y-5590204D01*
X8401000Y-5732454D02*
X8401000Y-5590204D01*
%TO.C,C8*%
X7759000Y-8310204D02*
X7759000Y-8452454D01*
X7941000Y-8310204D02*
X7941000Y-8452454D01*
%TO.C,D2*%
X17537750Y-4888829D02*
X17783750Y-4888829D01*
X17783750Y-4888829D02*
X17783750Y-5035829D01*
X17783750Y-5035829D02*
X17537750Y-5035829D01*
%TO.C,U8*%
X15309000Y-9017329D02*
X17353000Y-9017329D01*
X15309000Y-9142329D02*
X15309000Y-9017329D01*
X15309000Y-9467329D02*
X15309000Y-9342329D01*
X17353000Y-9017329D02*
X17353000Y-9467329D01*
X17353000Y-9467329D02*
X15309000Y-9467329D01*
X15309000Y-9142329D02*
G75*
G02*
X15309000Y-9342329I0J-100000D01*
G01*
%TO.C,L1*%
X6420000Y-7441329D02*
X6420000Y-8501329D01*
X6420000Y-8501329D02*
X6740000Y-8501329D01*
X6740000Y-7441329D02*
X6420000Y-7441329D01*
X7160000Y-8501329D02*
X7480000Y-8501329D01*
X7480000Y-7441329D02*
X7160000Y-7441329D01*
X7480000Y-8501329D02*
X7480000Y-7441329D01*
%TO.C,R35*%
X17045042Y-7400264D02*
X17081065Y-7436287D01*
X17118935Y-7326371D02*
X17154958Y-7362394D01*
%TO.C,R14*%
X14691065Y-8206287D02*
X14655042Y-8170264D01*
X14764958Y-8132394D02*
X14728935Y-8096371D01*
%TO.C,C19*%
X21369000Y-5450204D02*
X21369000Y-5592454D01*
X21551000Y-5450204D02*
X21551000Y-5592454D01*
%TO.C,R29*%
X14583278Y-5610079D02*
X14634222Y-5610079D01*
X14583278Y-5714579D02*
X14634222Y-5714579D01*
%TO.C,C20*%
X14779000Y-6840204D02*
X14779000Y-6982454D01*
X14961000Y-6840204D02*
X14961000Y-6982454D01*
%TO.C,U7*%
X12128000Y-8986329D02*
X14172000Y-8986329D01*
X12128000Y-9111329D02*
X12128000Y-8986329D01*
X12128000Y-9436329D02*
X12128000Y-9311329D01*
X14172000Y-8986329D02*
X14172000Y-9436329D01*
X14172000Y-9436329D02*
X12128000Y-9436329D01*
X12128000Y-9111329D02*
G75*
G02*
X12128000Y-9311329I0J-100000D01*
G01*
%TO.C,R38*%
X17241065Y-5916371D02*
X17205042Y-5952394D01*
X17314958Y-5990264D02*
X17278935Y-6026287D01*
%TO.C,R27*%
X14491065Y-7736371D02*
X14455042Y-7772394D01*
X14564958Y-7810264D02*
X14528935Y-7846287D01*
%TO.C,D4*%
X18193250Y-5487829D02*
X18439250Y-5487829D01*
X18439250Y-5487829D02*
X18439250Y-5634829D01*
X18439250Y-5634829D02*
X18193250Y-5634829D01*
%TO.C,P1*%
X10122000Y-5066000D02*
X10122000Y-5016000D01*
X10122000Y-5066000D02*
X10235000Y-5066000D01*
X10235000Y-5241000D02*
X10235000Y-5066000D01*
X10235000Y-5433000D02*
X10235000Y-5423000D01*
X10235000Y-5433400D02*
X10309000Y-5433400D01*
X11141000Y-5433400D02*
X11215000Y-5433400D01*
X11215000Y-5066000D02*
X11328000Y-5066000D01*
X11215000Y-5241000D02*
X11215000Y-5066000D01*
X11215000Y-5433000D02*
X11215000Y-5423000D01*
X11328000Y-5016000D02*
X11328000Y-5066000D01*
%TO.C,R13*%
X13204762Y-5909079D02*
X13153817Y-5909079D01*
X13204762Y-6013579D02*
X13153817Y-6013579D01*
%TO.C,Y1*%
X14051500Y-6551329D02*
X14188500Y-6484329D01*
X14051500Y-6671329D02*
X14188500Y-6738329D01*
X14188500Y-6484329D02*
X14269500Y-6484329D01*
X14188500Y-6738329D02*
X14269500Y-6738329D01*
X12949500Y-6435329D02*
X12949500Y-6787329D01*
X14051500Y-6787329D01*
X14051500Y-6435329D01*
X12949500Y-6435329D01*
%TO.C,R30*%
X14574528Y-5309079D02*
X14625472Y-5309079D01*
X14574528Y-5413579D02*
X14625472Y-5413579D01*
%TO.C,R37*%
X17021065Y-5696371D02*
X16985042Y-5732394D01*
X17094958Y-5770264D02*
X17058935Y-5806287D01*
%TO.C,C14*%
X15005946Y-8075969D02*
X14905360Y-7975383D01*
X15134640Y-7947275D02*
X15034054Y-7846689D01*
%TO.C,R21*%
X18265778Y-5209079D02*
X18316722Y-5209079D01*
X18265778Y-5313579D02*
X18316722Y-5313579D01*
%TO.C,C12*%
X16145946Y-5265969D02*
X16045360Y-5165383D01*
X16274640Y-5137275D02*
X16174054Y-5036689D01*
%TO.C,R24*%
X17425042Y-6172394D02*
X17461065Y-6136371D01*
X17498935Y-6246287D02*
X17534958Y-6210264D01*
%TO.C,C6*%
X5808875Y-6700329D02*
X5951125Y-6700329D01*
X5808875Y-6882329D02*
X5951125Y-6882329D01*
%TO.C,R26*%
X14583278Y-5160079D02*
X14634222Y-5160079D01*
X14583278Y-5264579D02*
X14634222Y-5264579D01*
%TO.C,R10*%
X4844528Y-8379079D02*
X4895472Y-8379079D01*
X4844528Y-8483579D02*
X4895472Y-8483579D01*
%TO.C,R39*%
X17131065Y-5806371D02*
X17095042Y-5842394D01*
X17204958Y-5880264D02*
X17168935Y-5916287D01*
%TO.C,R7*%
X19709566Y-5397871D02*
X19745589Y-5361848D01*
X19783458Y-5471764D02*
X19819482Y-5435740D01*
%TO.C,C17*%
X14431685Y-6964772D02*
X14431685Y-6822521D01*
X14613685Y-6964772D02*
X14613685Y-6822521D01*
%TO.C,U3*%
X7849000Y-6277329D02*
X7885000Y-6277329D01*
X7849000Y-6389329D02*
X7849000Y-6353329D01*
X7849000Y-6461329D02*
X7849000Y-6425329D01*
X7849000Y-6533329D02*
X7849000Y-6497329D01*
X7849000Y-6605329D02*
X7849000Y-6569329D01*
X7849000Y-6677329D02*
X7849000Y-6641329D01*
X7849000Y-6749329D02*
X7849000Y-6713329D01*
X7849000Y-6821329D02*
X7849000Y-6785329D01*
X7849000Y-6917329D02*
X8871000Y-6917329D01*
X7849000Y-7864329D02*
X7849000Y-6917329D01*
X7849000Y-7864329D02*
X8871000Y-7864329D01*
X7849000Y-6317329D02*
X7849000Y-6281329D01*
X7849000Y-6893329D02*
X7849000Y-6857329D01*
X7921000Y-6277329D02*
X7957000Y-6277329D01*
X7993000Y-6277329D02*
X8029000Y-6277329D01*
X8057500Y-7864329D02*
X8057500Y-8108329D01*
X8065000Y-6277329D02*
X8101000Y-6277329D01*
X8137000Y-6277329D02*
X8173000Y-6277329D01*
X8154500Y-7864329D02*
X8154500Y-8108329D01*
X8209000Y-6277329D02*
X8245000Y-6277329D01*
X8281000Y-6277329D02*
X8317000Y-6277329D01*
X8311500Y-7864329D02*
X8311500Y-8108329D01*
X8353000Y-6277329D02*
X8389000Y-6277329D01*
X8408500Y-7864329D02*
X8408500Y-8108329D01*
X8425000Y-6277329D02*
X8461000Y-6277329D01*
X8497000Y-6277329D02*
X8533000Y-6277329D01*
X8565500Y-7864329D02*
X8565500Y-8108329D01*
X8569000Y-6277329D02*
X8605000Y-6277329D01*
X8641000Y-6277329D02*
X8677000Y-6277329D01*
X8662500Y-7864329D02*
X8662500Y-8108329D01*
X8713000Y-6277329D02*
X8749000Y-6277329D01*
X8785000Y-6277329D02*
X8821000Y-6277329D01*
X8857000Y-6277329D02*
X8871000Y-6277329D01*
X8871000Y-6605329D02*
X8871000Y-6569329D01*
X8871000Y-6677329D02*
X8871000Y-6641329D01*
X8871000Y-6317329D02*
X8871000Y-6281329D01*
X8871000Y-6389329D02*
X8871000Y-6353329D01*
X8871000Y-6461329D02*
X8871000Y-6425329D01*
X8871000Y-6533329D02*
X8871000Y-6497329D01*
X8871000Y-6749329D02*
X8871000Y-6713329D01*
X8871000Y-6821329D02*
X8871000Y-6785329D01*
X8871000Y-6893329D02*
X8871000Y-6857329D01*
X8871000Y-7864329D02*
X8871000Y-6917329D01*
%TD*%
%LPC*%
D12*
%TO.C,JP1*%
G36*
X15747678Y-5459717D02*
G01*
X15726464Y-5480931D01*
X15620398Y-5374865D01*
X15641612Y-5353651D01*
X15747678Y-5459717D01*
G37*
%TD*%
D13*
%TO.C,J3*%
X16710000Y-5051329D03*
D14*
X16710000Y-5305329D03*
%TD*%
D15*
%TO.C,IN3*%
X16279142Y-13521106D03*
D16*
X17057008Y-13304549D03*
X17595966Y-12702461D03*
X17723378Y-11904037D03*
X17399274Y-11163858D03*
X16726620Y-10716147D03*
X15918200Y-10702978D03*
X15231671Y-11129197D03*
X14883329Y-11857640D03*
X14984266Y-12659028D03*
X15507457Y-13282543D03*
%TD*%
D15*
%TO.C,IN1*%
X7829142Y-13521106D03*
D16*
X8607008Y-13304549D03*
X9145966Y-12702461D03*
X9273378Y-11904037D03*
X8949274Y-11163858D03*
X8276620Y-10716147D03*
X7468201Y-10702978D03*
X6781671Y-11129197D03*
X6433329Y-11857640D03*
X6534266Y-12659028D03*
X7057457Y-13282543D03*
%TD*%
D15*
%TO.C,IN4*%
X20529142Y-13421106D03*
D16*
X21307008Y-13204549D03*
X21845966Y-12602461D03*
X21973378Y-11804037D03*
X21649274Y-11063858D03*
X20976620Y-10616147D03*
X20168201Y-10602978D03*
X19481671Y-11029197D03*
X19133329Y-11757640D03*
X19234266Y-12559028D03*
X19757457Y-13182543D03*
%TD*%
D17*
%TO.C,J2*%
X14549844Y-8371173D03*
D14*
X14729449Y-8550778D03*
%TD*%
D13*
%TO.C,J4*%
X19069000Y-5011329D03*
D14*
X19323000Y-5011329D03*
X19577000Y-5011329D03*
X19831000Y-5011329D03*
%TD*%
D15*
%TO.C,IN2*%
X12079142Y-13521106D03*
D16*
X12857008Y-13304549D03*
X13395966Y-12702461D03*
X13523378Y-11904037D03*
X13199274Y-11163858D03*
X12526620Y-10716147D03*
X11718201Y-10702978D03*
X11031671Y-11129197D03*
X10683329Y-11857640D03*
X10784266Y-12659028D03*
X11307457Y-13282543D03*
%TD*%
D18*
%TO.C,C13*%
X14990988Y-6160341D03*
X14869012Y-6282317D03*
%TD*%
D19*
%TO.C,R16*%
X14885476Y-8336805D03*
X15014523Y-8465853D03*
%TD*%
D20*
%TO.C,U5*%
X10155000Y-6411329D03*
X10282000Y-6411329D03*
X10409000Y-6411329D03*
X10536000Y-6411329D03*
X10663000Y-6411329D03*
X10790000Y-6411329D03*
X10917000Y-6411329D03*
X11044000Y-6411329D03*
X11044000Y-6906329D03*
X10917000Y-6906329D03*
X10790000Y-6906329D03*
X10663000Y-6906329D03*
X10536000Y-6906329D03*
X10409000Y-6906329D03*
X10282000Y-6906329D03*
X10155000Y-6906329D03*
%TD*%
D21*
%TO.C,R25*%
X14517500Y-5511329D03*
X14700000Y-5511329D03*
%TD*%
D22*
%TO.C,C23*%
X16860329Y-6642184D03*
X16860329Y-6954684D03*
%TD*%
D23*
%TO.C,C15*%
X15514315Y-5987984D03*
X15293344Y-5767014D03*
%TD*%
D24*
%TO.C,C26*%
X13280000Y-8587579D03*
X13280000Y-8275079D03*
%TD*%
D25*
%TO.C,R28*%
X17305477Y-6145852D03*
X17434524Y-6016805D03*
%TD*%
D26*
%TO.C,R8*%
X6565000Y-6801329D03*
X6255000Y-6801329D03*
%TD*%
D19*
%TO.C,R17*%
X14995476Y-8236805D03*
X15124523Y-8365852D03*
%TD*%
D21*
%TO.C,R20*%
X10962500Y-7673829D03*
X11145000Y-7673829D03*
%TD*%
D23*
%TO.C,C16*%
X15680485Y-5821814D03*
X15459515Y-5600844D03*
%TD*%
D27*
%TO.C,U2*%
X6070500Y-7638829D03*
X5943500Y-7638829D03*
X5816500Y-7638829D03*
X5689500Y-7638829D03*
X5689500Y-7143829D03*
X5816500Y-7143829D03*
X5943500Y-7143829D03*
X6070500Y-7143829D03*
%TD*%
D28*
%TO.C,R11*%
X4980000Y-8972579D03*
X4980000Y-8790079D03*
%TD*%
D29*
%TO.C,J1*%
X5970000Y-5211329D03*
D30*
X6290000Y-5841329D03*
D31*
X5440000Y-5841329D03*
X5970000Y-5841329D03*
D32*
X5350000Y-5111329D03*
X6330000Y-5111329D03*
%TD*%
D19*
%TO.C,R33*%
X17145477Y-7206805D03*
X17274524Y-7335852D03*
%TD*%
D33*
%TO.C,FB1*%
X15983900Y-5576719D03*
X15860156Y-5700462D03*
%TD*%
D34*
%TO.C,Q1*%
X5080000Y-6498329D03*
D35*
X4826000Y-8164329D03*
D36*
X5080000Y-8164329D03*
X5334000Y-8164329D03*
%TD*%
D24*
%TO.C,C6*%
X6700000Y-5857579D03*
X6700000Y-5545079D03*
%TD*%
%TO.C,C28*%
X20500000Y-8617579D03*
X20500000Y-8305079D03*
%TD*%
D22*
%TO.C,C9*%
X8620000Y-8535079D03*
X8620000Y-8847579D03*
%TD*%
D37*
%TO.C,U4*%
X15233552Y-6775211D03*
X15268907Y-6739856D03*
X15304262Y-6704500D03*
X15339618Y-6669145D03*
X15374973Y-6633790D03*
X15410329Y-6598434D03*
X15445684Y-6563079D03*
X15481039Y-6527724D03*
X15516395Y-6492368D03*
X15551750Y-6457013D03*
X15587105Y-6421658D03*
X15622461Y-6386302D03*
X15657816Y-6350947D03*
X15693171Y-6315591D03*
X15728527Y-6280236D03*
X15763882Y-6244881D03*
D38*
X16036118Y-6244881D03*
X16071473Y-6280236D03*
X16106829Y-6315591D03*
X16142184Y-6350947D03*
X16177539Y-6386302D03*
X16212895Y-6421658D03*
X16248250Y-6457013D03*
X16283605Y-6492368D03*
X16318961Y-6527724D03*
X16354316Y-6563079D03*
X16389671Y-6598434D03*
X16425027Y-6633790D03*
X16460382Y-6669145D03*
X16495737Y-6704500D03*
X16531093Y-6739856D03*
X16566448Y-6775211D03*
D37*
X16566448Y-7047447D03*
X16531093Y-7082802D03*
X16495737Y-7118158D03*
X16460382Y-7153513D03*
X16425027Y-7188868D03*
X16389671Y-7224224D03*
X16354316Y-7259579D03*
X16318961Y-7294934D03*
X16283605Y-7330290D03*
X16248250Y-7365645D03*
X16212895Y-7401000D03*
X16177539Y-7436356D03*
X16142184Y-7471711D03*
X16106829Y-7507066D03*
X16071473Y-7542422D03*
X16036118Y-7577777D03*
D38*
X15763882Y-7577777D03*
X15728527Y-7542422D03*
X15693171Y-7507066D03*
X15657816Y-7471711D03*
X15622461Y-7436356D03*
X15587105Y-7401000D03*
X15551750Y-7365645D03*
X15516395Y-7330290D03*
X15481039Y-7294934D03*
X15445684Y-7259579D03*
X15410329Y-7224224D03*
X15374973Y-7188868D03*
X15339618Y-7153513D03*
X15304262Y-7118158D03*
X15268907Y-7082802D03*
X15233552Y-7047447D03*
%TD*%
D39*
%TO.C,U9*%
X19461000Y-8880329D03*
D40*
X19715000Y-8880329D03*
X19969000Y-8880329D03*
X20223000Y-8880329D03*
X20477000Y-8880329D03*
X20731000Y-8880329D03*
X20985000Y-8880329D03*
X21239000Y-8880329D03*
X21239000Y-9642329D03*
X20985000Y-9642329D03*
X20731000Y-9642329D03*
X20477000Y-9642329D03*
X20223000Y-9642329D03*
X19969000Y-9642329D03*
X19715000Y-9642329D03*
X19461000Y-9642329D03*
%TD*%
D41*
%TO.C,U1*%
X8533750Y-5496329D03*
D42*
X8683750Y-5505079D03*
D41*
X8833750Y-5496329D03*
%TD*%
D43*
%TO.C,TP1*%
X11150000Y-7313829D03*
%TD*%
D24*
%TO.C,C25*%
X10450000Y-8567579D03*
X10450000Y-8255079D03*
%TD*%
D23*
%TO.C,C22*%
X16260485Y-6071814D03*
X16039515Y-5850844D03*
%TD*%
D21*
%TO.C,R18*%
X14737817Y-6492922D03*
X14920317Y-6492922D03*
%TD*%
D26*
%TO.C,R40*%
X19905000Y-8111329D03*
X19595000Y-8111329D03*
%TD*%
D24*
%TO.C,C5*%
X9050000Y-5477579D03*
X9050000Y-5165079D03*
%TD*%
D44*
%TO.C,SW4*%
X13424289Y-5941329D03*
X13834289Y-5941329D03*
X13424289Y-5781329D03*
X13834289Y-5781329D03*
%TD*%
D21*
%TO.C,R19*%
X17882000Y-4961329D03*
X18064500Y-4961329D03*
%TD*%
%TO.C,R22*%
X18537500Y-5561329D03*
X18720000Y-5561329D03*
%TD*%
%TO.C,R15*%
X13088039Y-5761329D03*
X13270539Y-5761329D03*
%TD*%
D45*
%TO.C,C10*%
X5150000Y-9761329D03*
D46*
X8150000Y-9761329D03*
%TD*%
D47*
%TO.C,D3*%
X18023250Y-5261329D03*
X17848250Y-5261329D03*
%TD*%
D19*
%TO.C,R34*%
X16925477Y-7426805D03*
X17054524Y-7555852D03*
%TD*%
D39*
%TO.C,U6*%
X9430000Y-8849329D03*
D40*
X9684000Y-8849329D03*
X9938000Y-8849329D03*
X10192000Y-8849329D03*
X10446000Y-8849329D03*
X10700000Y-8849329D03*
X10954000Y-8849329D03*
X11208000Y-8849329D03*
X11208000Y-9611329D03*
X10954000Y-9611329D03*
X10700000Y-9611329D03*
X10446000Y-9611329D03*
X10192000Y-9611329D03*
X9938000Y-9611329D03*
X9684000Y-9611329D03*
X9430000Y-9611329D03*
%TD*%
D19*
%TO.C,R36*%
X16815477Y-7536805D03*
X16944524Y-7665852D03*
%TD*%
D48*
%TO.C,C24*%
X10756250Y-7311329D03*
X10443750Y-7311329D03*
%TD*%
D49*
%TO.C,JP1*%
X15730000Y-5371329D03*
D50*
X15638076Y-5463253D03*
%TD*%
D51*
%TO.C,BZ1*%
X20400000Y-6461329D03*
D52*
X20400000Y-5701329D03*
%TD*%
D24*
%TO.C,C27*%
X16450000Y-8617579D03*
X16450000Y-8305079D03*
%TD*%
D51*
%TO.C,BT1*%
X22650000Y-5361329D03*
D52*
X22650000Y-7441329D03*
%TD*%
D23*
%TO.C,C11*%
X16105737Y-5425853D03*
X15884766Y-5204882D03*
%TD*%
D53*
%TO.C,C21*%
X16063750Y-7841329D03*
X16376250Y-7841329D03*
%TD*%
D54*
%TO.C,D1*%
X5238000Y-8911329D03*
D55*
X6762000Y-8911329D03*
%TD*%
D24*
%TO.C,C18*%
X14522685Y-6484211D03*
X14522685Y-6171711D03*
%TD*%
D56*
%TO.C,R9*%
X6280000Y-7206329D03*
X6280000Y-7516329D03*
%TD*%
D28*
%TO.C,R12*%
X4820000Y-8802579D03*
X4820000Y-8620079D03*
%TD*%
D57*
%TO.C,R23*%
X14474523Y-7616805D03*
X14345476Y-7745852D03*
%TD*%
D22*
%TO.C,C7*%
X5820000Y-7865079D03*
X5820000Y-8177579D03*
%TD*%
D24*
%TO.C,C4*%
X8310000Y-5817579D03*
X8310000Y-5505079D03*
%TD*%
D22*
%TO.C,C8*%
X7850000Y-8225079D03*
X7850000Y-8537579D03*
%TD*%
D47*
%TO.C,D2*%
X17705250Y-4962329D03*
X17530250Y-4962329D03*
%TD*%
D39*
%TO.C,U8*%
X15442000Y-8861329D03*
D40*
X15696000Y-8861329D03*
X15950000Y-8861329D03*
X16204000Y-8861329D03*
X16458000Y-8861329D03*
X16712000Y-8861329D03*
X16966000Y-8861329D03*
X17220000Y-8861329D03*
X17220000Y-9623329D03*
X16966000Y-9623329D03*
X16712000Y-9623329D03*
X16458000Y-9623329D03*
X16204000Y-9623329D03*
X15950000Y-9623329D03*
X15696000Y-9623329D03*
X15442000Y-9623329D03*
%TD*%
D58*
%TO.C,L1*%
X6950000Y-7556329D03*
X6950000Y-8386329D03*
%TD*%
D19*
%TO.C,R35*%
X17035477Y-7316805D03*
X17164524Y-7445852D03*
%TD*%
D59*
%TO.C,R14*%
X14774523Y-8215852D03*
X14645476Y-8086805D03*
%TD*%
D22*
%TO.C,C19*%
X21460000Y-5365079D03*
X21460000Y-5677579D03*
%TD*%
D21*
%TO.C,R29*%
X14517500Y-5662329D03*
X14700000Y-5662329D03*
%TD*%
D22*
%TO.C,C20*%
X14870000Y-6755079D03*
X14870000Y-7067579D03*
%TD*%
D39*
%TO.C,U7*%
X12261000Y-8830329D03*
D40*
X12515000Y-8830329D03*
X12769000Y-8830329D03*
X13023000Y-8830329D03*
X13277000Y-8830329D03*
X13531000Y-8830329D03*
X13785000Y-8830329D03*
X14039000Y-8830329D03*
X14039000Y-9592329D03*
X13785000Y-9592329D03*
X13531000Y-9592329D03*
X13277000Y-9592329D03*
X13023000Y-9592329D03*
X12769000Y-9592329D03*
X12515000Y-9592329D03*
X12261000Y-9592329D03*
%TD*%
D57*
%TO.C,R38*%
X17324524Y-5906805D03*
X17195477Y-6035852D03*
%TD*%
%TO.C,R27*%
X14574523Y-7726805D03*
X14445476Y-7855852D03*
%TD*%
D47*
%TO.C,D4*%
X18360750Y-5561329D03*
X18185750Y-5561329D03*
%TD*%
D60*
%TO.C,P1*%
X10375000Y-5285000D03*
X11075000Y-5285000D03*
D61*
X10375000Y-5410000D03*
X10475000Y-5410000D03*
D62*
X10600000Y-5410000D03*
X10700000Y-5410000D03*
X10750000Y-5410000D03*
X10850000Y-5410000D03*
D61*
X10975000Y-5410000D03*
X11075000Y-5410000D03*
X11075000Y-5410000D03*
X10975000Y-5410000D03*
D62*
X10900000Y-5410000D03*
X10800000Y-5410000D03*
X10650000Y-5410000D03*
X10550000Y-5410000D03*
D61*
X10475000Y-5410000D03*
X10375000Y-5410000D03*
D63*
X10133000Y-4900000D03*
D64*
X10260000Y-5332000D03*
X11190000Y-5332000D03*
D63*
X11317000Y-4900000D03*
%TD*%
D65*
%TO.C,R13*%
X13270539Y-5961329D03*
X13088039Y-5961329D03*
%TD*%
D66*
%TO.C,Y1*%
X14325500Y-6738329D03*
X14325500Y-6484329D03*
%TD*%
D21*
%TO.C,R30*%
X14508750Y-5361329D03*
X14691250Y-5361329D03*
%TD*%
D57*
%TO.C,R37*%
X17104524Y-5686805D03*
X16975477Y-5815852D03*
%TD*%
D23*
%TO.C,C14*%
X15130485Y-8071814D03*
X14909515Y-7850844D03*
%TD*%
D21*
%TO.C,R21*%
X18200000Y-5261329D03*
X18382500Y-5261329D03*
%TD*%
D23*
%TO.C,C12*%
X16270485Y-5261814D03*
X16049515Y-5040844D03*
%TD*%
D25*
%TO.C,R24*%
X17415477Y-6255852D03*
X17544524Y-6126805D03*
%TD*%
D53*
%TO.C,C6*%
X5723750Y-6791329D03*
X6036250Y-6791329D03*
%TD*%
D21*
%TO.C,R26*%
X14517500Y-5212329D03*
X14700000Y-5212329D03*
%TD*%
%TO.C,R10*%
X4778750Y-8431329D03*
X4961250Y-8431329D03*
%TD*%
D57*
%TO.C,R39*%
X17214524Y-5796805D03*
X17085477Y-5925852D03*
%TD*%
D25*
%TO.C,R7*%
X19700000Y-5481329D03*
X19829047Y-5352282D03*
%TD*%
D24*
%TO.C,C17*%
X14522685Y-7049896D03*
X14522685Y-6737396D03*
%TD*%
D34*
%TO.C,U3*%
X8360000Y-6568329D03*
D35*
X8106000Y-8234329D03*
D36*
X8360000Y-8234329D03*
X8614000Y-8234329D03*
%TD*%
%LPD*%
D67*
X4500000Y-4764000D02*
X4500000Y-14060000D01*
X4500000Y-14060000D02*
X25150000Y-14060000D01*
X10055000Y-4764000D02*
X4500000Y-4764000D01*
X11395000Y-4760000D02*
X11395000Y-4764000D01*
X25150000Y-4760000D02*
X11395000Y-4760000D01*
X25150000Y-14060000D02*
X25150000Y-4760000D01*
%TO.C,P1*%
D68*
X10055000Y-4764000D02*
X10268000Y-4764000D01*
X10268000Y-5200000D02*
X10268000Y-4764000D01*
X10283000Y-5215000D02*
X11167000Y-5215000D01*
X11182000Y-4764000D02*
X11395000Y-4764000D01*
X11182000Y-5200000D02*
X11182000Y-4764000D01*
X10283000Y-5215000D02*
G75*
G02*
X10268000Y-5200000I0J15000D01*
G01*
X11182000Y-5200000D02*
G75*
G02*
X11167000Y-5215000I-15000J0D01*
G01*
%TD*%
M02*
