%TF.GenerationSoftware,KiCad,Pcbnew,10.0.4*%
%TF.CreationDate,2026-08-04T15:23:51+02:00*%
%TF.ProjectId,zegarek,7a656761-7265-46b2-9e6b-696361645f70,rev?*%
%TF.SameCoordinates,Original*%
%TF.FileFunction,Copper,L2,Inr*%
%TF.FilePolarity,Positive*%
%FSLAX45Y45*%
G04 Gerber Fmt 4.5, Leading zero omitted, Abs format (unit mm)*
G04 Created by KiCad (PCBNEW 10.0.4) date 2026-08-04 15:23:51*
%MOMM*%
%LPD*%
G01*
G04 APERTURE LIST*
G04 Aperture macros list*
%AMRoundRect*
0 Rectangle with rounded corners*
0 $1 Rounding radius*
0 $2 $3 $4 $5 $6 $7 $8 $9 X,Y pos of 4 corners*
0 Add a 4 corners polygon primitive as box body*
4,1,4,$2,$3,$4,$5,$6,$7,$8,$9,$2,$3,0*
0 Add four circle primitives for the rounded corners*
1,1,$1+$1,$2,$3*
1,1,$1+$1,$4,$5*
1,1,$1+$1,$6,$7*
1,1,$1+$1,$8,$9*
0 Add four rect primitives between the rounded corners*
20,1,$1+$1,$2,$3,$4,$5,0*
20,1,$1+$1,$4,$5,$6,$7,0*
20,1,$1+$1,$6,$7,$8,$9,0*
20,1,$1+$1,$8,$9,$2,$3,0*%
%AMRotRect*
0 Rectangle, with rotation*
0 The origin of the aperture is its center*
0 $1 length*
0 $2 width*
0 $3 Rotation angle, in degrees counterclockwise*
0 Add horizontal line*
21,1,$1,$2,0,0,$3*%
G04 Aperture macros list end*
%TA.AperFunction,ComponentPad*%
%ADD10R,1.700000X1.700000*%
%TD*%
%TA.AperFunction,ComponentPad*%
%ADD11C,1.700000*%
%TD*%
%TA.AperFunction,ComponentPad*%
%ADD12RoundRect,1.125000X-1.101193X1.148313X-1.148313X-1.101193X1.101193X-1.148313X1.148313X1.101193X0*%
%TD*%
%TA.AperFunction,ComponentPad*%
%ADD13C,4.500000*%
%TD*%
%TA.AperFunction,ComponentPad*%
%ADD14RotRect,1.700000X1.700000X45.000000*%
%TD*%
%TA.AperFunction,ComponentPad*%
%ADD15R,1.800000X3.000000*%
%TD*%
%TA.AperFunction,ComponentPad*%
%ADD16O,1.800000X3.000000*%
%TD*%
%TA.AperFunction,ComponentPad*%
%ADD17O,1.600000X3.000000*%
%TD*%
%TA.AperFunction,ComponentPad*%
%ADD18R,1.905000X2.000000*%
%TD*%
%TA.AperFunction,ComponentPad*%
%ADD19O,1.905000X2.000000*%
%TD*%
%TA.AperFunction,ComponentPad*%
%ADD20RoundRect,0.250000X-0.550000X0.950000X-0.550000X-0.950000X0.550000X-0.950000X0.550000X0.950000X0*%
%TD*%
%TA.AperFunction,ComponentPad*%
%ADD21O,1.600000X2.400000*%
%TD*%
%TA.AperFunction,ComponentPad*%
%ADD22C,1.800000*%
%TD*%
%TA.AperFunction,ComponentPad*%
%ADD23RoundRect,0.250001X-0.949999X-0.949999X0.949999X-0.949999X0.949999X0.949999X-0.949999X0.949999X0*%
%TD*%
%TA.AperFunction,ComponentPad*%
%ADD24C,2.400000*%
%TD*%
%TA.AperFunction,ComponentPad*%
%ADD25R,2.000000X2.000000*%
%TD*%
%TA.AperFunction,ComponentPad*%
%ADD26C,2.000000*%
%TD*%
%TA.AperFunction,ComponentPad*%
%ADD27RoundRect,0.250000X-1.350000X-1.350000X1.350000X-1.350000X1.350000X1.350000X-1.350000X1.350000X0*%
%TD*%
%TA.AperFunction,ComponentPad*%
%ADD28C,3.200000*%
%TD*%
%TA.AperFunction,ComponentPad*%
%ADD29O,0.900000X1.800000*%
%TD*%
%TA.AperFunction,ComponentPad*%
%ADD30O,0.900000X1.500000*%
%TD*%
%TA.AperFunction,ComponentPad*%
%ADD31C,1.000000*%
%TD*%
%TA.AperFunction,ViaPad*%
%ADD32C,0.600000*%
%TD*%
%TA.AperFunction,ViaPad*%
%ADD33C,3.500000*%
%TD*%
%TA.AperFunction,ViaPad*%
%ADD34C,1.000000*%
%TD*%
%TA.AperFunction,ViaPad*%
%ADD35C,0.500000*%
%TD*%
%TA.AperFunction,Conductor*%
%ADD36C,0.300000*%
%TD*%
%TA.AperFunction,Conductor*%
%ADD37C,1.000000*%
%TD*%
%TA.AperFunction,Conductor*%
%ADD38C,0.500000*%
%TD*%
%TA.AperFunction,Conductor*%
%ADD39C,0.200000*%
%TD*%
%TA.AperFunction,Profile*%
%ADD40C,0.050000*%
%TD*%
%TA.AperFunction,Profile*%
%ADD41C,0.100000*%
%TD*%
G04 APERTURE END LIST*
D10*
%TO.N,/MCU/DEBUG_RX*%
%TO.C,J3*%
X16710000Y-5051329D03*
D11*
%TO.N,/MCU/DEBUG_TX*%
X16710000Y-5305329D03*
%TD*%
D12*
%TO.N,Net-(IN3-A)*%
%TO.C,IN3*%
X16279142Y-13521106D03*
D13*
%TO.N,Net-(IN3-K_1)*%
X17057008Y-13304549D03*
%TO.N,Net-(IN3-K_2)*%
X17595966Y-12702461D03*
%TO.N,Net-(IN3-K_3)*%
X17723378Y-11904037D03*
%TO.N,Net-(IN3-K_4)*%
X17399274Y-11163858D03*
%TO.N,Net-(IN3-K_5)*%
X16726620Y-10716147D03*
%TO.N,Net-(IN3-K_6)*%
X15918200Y-10702978D03*
%TO.N,Net-(IN3-K_7)*%
X15231671Y-11129197D03*
%TO.N,Net-(IN3-K_8)*%
X14883329Y-11857640D03*
%TO.N,Net-(IN3-K_9)*%
X14984266Y-12659028D03*
%TO.N,Net-(IN3-K_0)*%
X15507457Y-13282543D03*
%TD*%
D12*
%TO.N,Net-(IN1-A)*%
%TO.C,IN1*%
X7829142Y-13521106D03*
D13*
%TO.N,Net-(IN1-K_1)*%
X8607008Y-13304549D03*
%TO.N,Net-(IN1-K_2)*%
X9145966Y-12702461D03*
%TO.N,Net-(IN1-K_3)*%
X9273378Y-11904037D03*
%TO.N,Net-(IN1-K_4)*%
X8949274Y-11163858D03*
%TO.N,Net-(IN1-K_5)*%
X8276620Y-10716147D03*
%TO.N,Net-(IN1-K_6)*%
X7468201Y-10702978D03*
%TO.N,Net-(IN1-K_7)*%
X6781671Y-11129197D03*
%TO.N,Net-(IN1-K_8)*%
X6433329Y-11857640D03*
%TO.N,Net-(IN1-K_9)*%
X6534266Y-12659028D03*
%TO.N,Net-(IN1-K_0)*%
X7057457Y-13282543D03*
%TD*%
D12*
%TO.N,Net-(IN4-A)*%
%TO.C,IN4*%
X20529142Y-13421106D03*
D13*
%TO.N,Net-(IN4-K_1)*%
X21307008Y-13204549D03*
%TO.N,Net-(IN4-K_2)*%
X21845966Y-12602461D03*
%TO.N,Net-(IN4-K_3)*%
X21973378Y-11804037D03*
%TO.N,Net-(IN4-K_4)*%
X21649274Y-11063858D03*
%TO.N,Net-(IN4-K_5)*%
X20976620Y-10616147D03*
%TO.N,Net-(IN4-K_6)*%
X20168201Y-10602978D03*
%TO.N,Net-(IN4-K_7)*%
X19481671Y-11029197D03*
%TO.N,Net-(IN4-K_8)*%
X19133329Y-11757640D03*
%TO.N,Net-(IN4-K_9)*%
X19234266Y-12559028D03*
%TO.N,Net-(IN4-K_0)*%
X19757457Y-13182543D03*
%TD*%
D14*
%TO.N,Net-(J2-Pin_1)*%
%TO.C,J2*%
X14549844Y-8371173D03*
D11*
%TO.N,Net-(J2-Pin_2)*%
X14729449Y-8550778D03*
%TD*%
D10*
%TO.N,+3V3*%
%TO.C,J4*%
X19069000Y-5011329D03*
D11*
%TO.N,/MCU/TMS*%
X19323000Y-5011329D03*
%TO.N,/MCU/TCK*%
X19577000Y-5011329D03*
%TO.N,GND*%
X19831000Y-5011329D03*
%TD*%
D12*
%TO.N,Net-(IN2-A)*%
%TO.C,IN2*%
X12079142Y-13521106D03*
D13*
%TO.N,Net-(IN2-K_1)*%
X12857008Y-13304549D03*
%TO.N,Net-(IN2-K_2)*%
X13395966Y-12702461D03*
%TO.N,Net-(IN2-K_3)*%
X13523378Y-11904037D03*
%TO.N,Net-(IN2-K_4)*%
X13199274Y-11163858D03*
%TO.N,Net-(IN2-K_5)*%
X12526620Y-10716147D03*
%TO.N,Net-(IN2-K_6)*%
X11718201Y-10702978D03*
%TO.N,Net-(IN2-K_7)*%
X11031671Y-11129197D03*
%TO.N,Net-(IN2-K_8)*%
X10683329Y-11857640D03*
%TO.N,Net-(IN2-K_9)*%
X10784266Y-12659028D03*
%TO.N,Net-(IN2-K_0)*%
X11307457Y-13282543D03*
%TD*%
D15*
%TO.N,+12V*%
%TO.C,J1*%
X6290000Y-5841329D03*
D16*
%TO.N,GND*%
X5440000Y-5841329D03*
%TO.N,N/C*%
X5970000Y-5841329D03*
D17*
X5350000Y-5111329D03*
X6330000Y-5111329D03*
%TD*%
D18*
%TO.N,Net-(Q1-G)*%
%TO.C,Q1*%
X4826000Y-8164329D03*
D19*
%TO.N,Net-(D1-A)*%
X5080000Y-8164329D03*
%TO.N,GND*%
X5334000Y-8164329D03*
%TD*%
D20*
%TO.N,Net-(IN4-K_8)*%
%TO.C,U9*%
X19461000Y-8880329D03*
D21*
%TO.N,Net-(IN4-K_9)*%
X19715000Y-8880329D03*
%TO.N,Net-(U9-A)*%
X19969000Y-8880329D03*
%TO.N,Net-(U9-D)*%
X20223000Y-8880329D03*
%TO.N,+5V*%
X20477000Y-8880329D03*
%TO.N,Net-(U9-B)*%
X20731000Y-8880329D03*
%TO.N,Net-(U9-C)*%
X20985000Y-8880329D03*
%TO.N,Net-(IN4-K_2)*%
X21239000Y-8880329D03*
%TO.N,Net-(IN4-K_3)*%
X21239000Y-9642329D03*
%TO.N,Net-(IN4-K_7)*%
X20985000Y-9642329D03*
%TO.N,Net-(IN4-K_6)*%
X20731000Y-9642329D03*
%TO.N,GND*%
X20477000Y-9642329D03*
%TO.N,Net-(IN4-K_4)*%
X20223000Y-9642329D03*
%TO.N,Net-(IN4-K_5)*%
X19969000Y-9642329D03*
%TO.N,Net-(IN4-K_1)*%
X19715000Y-9642329D03*
%TO.N,Net-(IN4-K_0)*%
X19461000Y-9642329D03*
%TD*%
D22*
%TO.N,Net-(U5-~{RTS})*%
%TO.C,TP1*%
X11150000Y-7313829D03*
%TD*%
D23*
%TO.N,+100V*%
%TO.C,C10*%
X5150000Y-9761329D03*
D24*
%TO.N,GND*%
X8150000Y-9761329D03*
%TD*%
D20*
%TO.N,Net-(IN1-K_8)*%
%TO.C,U6*%
X9430000Y-8849329D03*
D21*
%TO.N,Net-(IN1-K_9)*%
X9684000Y-8849329D03*
%TO.N,Net-(U6-A)*%
X9938000Y-8849329D03*
%TO.N,Net-(U6-D)*%
X10192000Y-8849329D03*
%TO.N,+5V*%
X10446000Y-8849329D03*
%TO.N,Net-(U6-B)*%
X10700000Y-8849329D03*
%TO.N,Net-(U6-C)*%
X10954000Y-8849329D03*
%TO.N,Net-(IN1-K_2)*%
X11208000Y-8849329D03*
%TO.N,Net-(IN1-K_3)*%
X11208000Y-9611329D03*
%TO.N,Net-(IN1-K_7)*%
X10954000Y-9611329D03*
%TO.N,Net-(IN1-K_6)*%
X10700000Y-9611329D03*
%TO.N,GND*%
X10446000Y-9611329D03*
%TO.N,Net-(IN1-K_4)*%
X10192000Y-9611329D03*
%TO.N,Net-(IN1-K_5)*%
X9938000Y-9611329D03*
%TO.N,Net-(IN1-K_1)*%
X9684000Y-9611329D03*
%TO.N,Net-(IN1-K_0)*%
X9430000Y-9611329D03*
%TD*%
D25*
%TO.N,/MCU/BUZZER*%
%TO.C,BZ1*%
X20400000Y-6461329D03*
D26*
%TO.N,Net-(BZ1--)*%
X20400000Y-5701329D03*
%TD*%
D25*
%TO.N,+BATT*%
%TO.C,BT1*%
X22650000Y-5361329D03*
D26*
%TO.N,GND*%
X22650000Y-7441329D03*
%TD*%
D27*
%TO.N,+100V*%
%TO.C,D1*%
X5238000Y-8911329D03*
D28*
%TO.N,Net-(D1-A)*%
X6762000Y-8911329D03*
%TD*%
D20*
%TO.N,Net-(IN3-K_8)*%
%TO.C,U8*%
X15442000Y-8861329D03*
D21*
%TO.N,Net-(IN3-K_9)*%
X15696000Y-8861329D03*
%TO.N,Net-(U8-A)*%
X15950000Y-8861329D03*
%TO.N,Net-(U8-D)*%
X16204000Y-8861329D03*
%TO.N,+5V*%
X16458000Y-8861329D03*
%TO.N,Net-(U8-B)*%
X16712000Y-8861329D03*
%TO.N,Net-(U8-C)*%
X16966000Y-8861329D03*
%TO.N,Net-(IN3-K_2)*%
X17220000Y-8861329D03*
%TO.N,Net-(IN3-K_3)*%
X17220000Y-9623329D03*
%TO.N,Net-(IN3-K_7)*%
X16966000Y-9623329D03*
%TO.N,Net-(IN3-K_6)*%
X16712000Y-9623329D03*
%TO.N,GND*%
X16458000Y-9623329D03*
%TO.N,Net-(IN3-K_4)*%
X16204000Y-9623329D03*
%TO.N,Net-(IN3-K_5)*%
X15950000Y-9623329D03*
%TO.N,Net-(IN3-K_1)*%
X15696000Y-9623329D03*
%TO.N,Net-(IN3-K_0)*%
X15442000Y-9623329D03*
%TD*%
D20*
%TO.N,Net-(IN2-K_8)*%
%TO.C,U7*%
X12261000Y-8830329D03*
D21*
%TO.N,Net-(IN2-K_9)*%
X12515000Y-8830329D03*
%TO.N,Net-(U7-A)*%
X12769000Y-8830329D03*
%TO.N,Net-(U7-D)*%
X13023000Y-8830329D03*
%TO.N,+5V*%
X13277000Y-8830329D03*
%TO.N,Net-(U7-B)*%
X13531000Y-8830329D03*
%TO.N,Net-(U7-C)*%
X13785000Y-8830329D03*
%TO.N,Net-(IN2-K_2)*%
X14039000Y-8830329D03*
%TO.N,Net-(IN2-K_3)*%
X14039000Y-9592329D03*
%TO.N,Net-(IN2-K_7)*%
X13785000Y-9592329D03*
%TO.N,Net-(IN2-K_6)*%
X13531000Y-9592329D03*
%TO.N,GND*%
X13277000Y-9592329D03*
%TO.N,Net-(IN2-K_4)*%
X13023000Y-9592329D03*
%TO.N,Net-(IN2-K_5)*%
X12769000Y-9592329D03*
%TO.N,Net-(IN2-K_1)*%
X12515000Y-9592329D03*
%TO.N,Net-(IN2-K_0)*%
X12261000Y-9592329D03*
%TD*%
D29*
%TO.N,unconnected-(P1-SHIELD-PadSH)_1*%
%TO.C,P1*%
X10133000Y-4900000D03*
D30*
%TO.N,unconnected-(P1-SHIELD-PadSH)_3*%
X10260000Y-5332000D03*
%TO.N,unconnected-(P1-SHIELD-PadSH)*%
X11190000Y-5332000D03*
D29*
%TO.N,unconnected-(P1-SHIELD-PadSH)_2*%
X11317000Y-4900000D03*
%TD*%
D31*
%TO.N,Net-(U4-PC14)*%
%TO.C,Y1*%
X14325500Y-6738329D03*
%TO.N,Net-(C18-Pad1)*%
X14325500Y-6484329D03*
%TD*%
D18*
%TO.N,+12V*%
%TO.C,U3*%
X8106000Y-8234329D03*
D19*
%TO.N,GND*%
X8360000Y-8234329D03*
%TO.N,+5V*%
X8614000Y-8234329D03*
%TD*%
D32*
%TO.N,/MCU/DEBUG_TX*%
X16490000Y-4911329D03*
D33*
%TO.N,GND*%
X4870000Y-13721329D03*
D32*
X8020000Y-8541329D03*
X16007500Y-5295000D03*
X6630000Y-10071329D03*
X6020000Y-8171329D03*
X8910000Y-5211329D03*
X13600000Y-6171711D03*
X15040000Y-7721329D03*
X16100000Y-6761329D03*
X5580000Y-8161329D03*
X18190000Y-4961329D03*
X8630000Y-9021329D03*
X21300000Y-5631329D03*
X15090000Y-7160000D03*
X6960000Y-6360000D03*
X12840000Y-6371329D03*
X5510000Y-8230000D03*
X6830000Y-5591329D03*
X20495000Y-8132500D03*
X17700000Y-7431329D03*
X4950000Y-7871329D03*
X20645000Y-8307500D03*
X19805000Y-8455000D03*
X5210000Y-7861329D03*
X7300000Y-9511329D03*
X11272500Y-6017500D03*
X17930000Y-6201329D03*
X14140000Y-6171711D03*
X24410000Y-13061329D03*
X15407500Y-5870000D03*
X15900000Y-7301329D03*
X5690000Y-7411329D03*
X5620000Y-5841329D03*
X21600000Y-5631329D03*
X5530000Y-6791329D03*
X10300000Y-6701329D03*
X19910000Y-5271329D03*
X15850000Y-7771329D03*
X10230000Y-6611329D03*
X11692500Y-5620000D03*
X10265000Y-5502500D03*
X15835000Y-5525000D03*
X9725000Y-5450000D03*
X16300000Y-6951329D03*
X8540000Y-5351329D03*
X5700000Y-6971329D03*
X24810000Y-12661329D03*
X16540000Y-7831329D03*
X7850000Y-8711329D03*
X4980000Y-8570000D03*
X9730000Y-5637500D03*
X18500000Y-5261329D03*
X11925000Y-6562500D03*
X16310000Y-5037500D03*
X6880000Y-9741329D03*
X8810000Y-8851329D03*
X15890000Y-4982500D03*
X16157500Y-5157500D03*
X5640000Y-8230000D03*
X15575000Y-5717500D03*
X16310000Y-8361329D03*
X6952500Y-6777500D03*
X4980000Y-8650000D03*
X8420000Y-8851329D03*
X16420000Y-5132500D03*
X24260000Y-11280000D03*
X10280000Y-7221329D03*
X14870000Y-7221329D03*
X11937500Y-7170000D03*
X7620000Y-9941329D03*
X5270000Y-5841329D03*
X24370000Y-12111329D03*
X16170000Y-5731329D03*
X10310000Y-8311329D03*
X13930000Y-5052500D03*
X11940000Y-5380000D03*
X5520000Y-7541329D03*
X9200000Y-5211329D03*
X5430000Y-7641329D03*
X8170000Y-5561329D03*
D33*
X24790000Y-5111329D03*
D32*
X15777500Y-5085000D03*
X6530000Y-9501329D03*
X11480000Y-5807500D03*
X5640000Y-8100000D03*
X12247500Y-5067500D03*
X8310000Y-5391329D03*
X14520000Y-6011329D03*
X16690000Y-6954684D03*
X16045000Y-6056329D03*
X11925000Y-6782500D03*
X5520000Y-8100000D03*
D33*
X24690000Y-13651329D03*
D32*
X7500000Y-10091329D03*
X13587500Y-5057500D03*
X13039618Y-6171711D03*
X24850000Y-10711329D03*
X9050000Y-5031329D03*
X16200000Y-7720000D03*
X15900000Y-6921329D03*
X13140000Y-8331329D03*
X5740000Y-6591329D03*
X5440000Y-6071329D03*
X9742500Y-6000000D03*
X12840000Y-6851329D03*
X24850000Y-11711329D03*
X7117500Y-6595000D03*
X18300000Y-6561329D03*
X6580000Y-5591329D03*
X16580000Y-8361329D03*
D33*
X4830000Y-5161329D03*
D32*
X6700000Y-5401329D03*
X7315000Y-6367500D03*
X11200000Y-5507500D03*
X9742500Y-5827500D03*
X20335000Y-8305000D03*
X14530000Y-7221329D03*
X7810000Y-9771329D03*
X5340000Y-7731329D03*
X13420000Y-8331329D03*
X10270000Y-7361329D03*
X15207500Y-5580000D03*
X14375000Y-5052500D03*
X7322500Y-6777500D03*
X5810000Y-7411329D03*
X10190000Y-6241329D03*
X12930000Y-5960000D03*
X14977500Y-5052500D03*
X18840000Y-5561329D03*
X15220000Y-8481329D03*
X19705000Y-8325000D03*
X19855000Y-8657500D03*
X10590000Y-8311329D03*
%TO.N,/MCU/BTNUP*%
X16440000Y-7551329D03*
%TO.N,/MCU/BTNOK*%
X15320000Y-7391329D03*
%TO.N,/MCU/BTNDN*%
X16610000Y-7441329D03*
%TO.N,+3V3*%
X14750000Y-7991329D03*
X16380000Y-5961329D03*
X14720000Y-6871329D03*
X10840000Y-7671329D03*
X17030000Y-6641329D03*
X16180000Y-7841329D03*
X24691250Y-12932579D03*
X12920000Y-5761329D03*
X24740000Y-11181329D03*
D34*
X9370000Y-6231329D03*
X9370000Y-6401329D03*
D32*
X24740000Y-12051329D03*
X10550000Y-6221329D03*
X16390000Y-5381329D03*
D34*
X9370000Y-6581329D03*
%TO.N,Net-(U6-B)*%
X11110000Y-8131329D03*
%TO.N,+5V*%
X8976250Y-8535079D03*
D32*
%TO.N,Net-(U7-C)*%
X17520000Y-5931329D03*
%TO.N,Net-(U8-A)*%
X17350000Y-7411329D03*
D35*
%TO.N,+BATT*%
X15380000Y-6921329D03*
D32*
X21170000Y-5361329D03*
%TO.N,Net-(U9-A)*%
X18382427Y-6308902D03*
X18950000Y-6931329D03*
%TO.N,Net-(U9-B)*%
X18935000Y-6826329D03*
X18600000Y-6491329D03*
%TO.N,Net-(U9-C)*%
X18700000Y-6491329D03*
X19050000Y-6841329D03*
%TO.N,Net-(U8-C)*%
X17350000Y-7841329D03*
D34*
%TO.N,Net-(U6-A)*%
X12090000Y-8051329D03*
D32*
%TO.N,Net-(U8-D)*%
X17050000Y-7771329D03*
%TO.N,Net-(U8-B)*%
X17330000Y-7611329D03*
%TO.N,Net-(U7-A)*%
X14310000Y-7991329D03*
%TO.N,Net-(U7-D)*%
X17640000Y-6031329D03*
%TD*%
%TO.N,+3V3*%
D36*
X14750000Y-7991329D02*
X14750000Y-7051329D01*
X12910000Y-5761329D02*
X12620000Y-6051329D01*
D37*
X17010000Y-7051329D02*
X19310000Y-7051329D01*
D36*
X24478750Y-12932579D02*
X24691250Y-12932579D01*
X19310000Y-6211329D02*
X19310000Y-7051329D01*
D37*
X16678894Y-7085000D02*
X16797500Y-7085000D01*
D36*
X16017500Y-7051329D02*
X16017500Y-7680000D01*
D37*
X10840000Y-7051329D02*
X12750000Y-7051329D01*
D36*
X19069000Y-5011329D02*
X19069000Y-5970329D01*
X24740000Y-11181329D02*
X24470000Y-11181329D01*
X16178829Y-7841329D02*
X16180000Y-7841329D01*
X24470000Y-12941329D02*
X24478750Y-12932579D01*
D37*
X16540000Y-7051329D02*
X16645223Y-7051329D01*
X16797500Y-7085000D02*
X16831171Y-7051329D01*
D38*
X16540000Y-5531329D02*
X16390000Y-5381329D01*
D37*
X16160000Y-7051329D02*
X16390000Y-7051329D01*
D36*
X16390000Y-7051329D02*
X16380000Y-7041329D01*
D37*
X9840000Y-7051329D02*
X10550000Y-7051329D01*
D39*
X10840000Y-7671329D02*
X10840000Y-7051329D01*
D37*
X9370000Y-6581329D02*
X9370000Y-6231329D01*
X14750000Y-7051329D02*
X16160000Y-7051329D01*
D36*
X17030000Y-6641329D02*
X17030000Y-7031329D01*
X16017500Y-7680000D02*
X16178829Y-7841329D01*
D37*
X9370000Y-6581329D02*
X9840000Y-7051329D01*
D38*
X16540000Y-7051329D02*
X16540000Y-5531329D01*
D37*
X24470000Y-11181329D02*
X24470000Y-12071329D01*
X16831171Y-7051329D02*
X17010000Y-7051329D01*
X24470000Y-12071329D02*
X24470000Y-12941329D01*
D36*
X14720000Y-7021329D02*
X14720000Y-6871329D01*
D37*
X16390000Y-7051329D02*
X16540000Y-7051329D01*
D36*
X16160000Y-7051329D02*
X16017500Y-7051329D01*
D37*
X16645223Y-7051329D02*
X16678894Y-7085000D01*
X20340000Y-7051329D02*
X24470000Y-11181329D01*
D36*
X24470000Y-12071329D02*
X24490000Y-12051329D01*
X12620000Y-6051329D02*
X12620000Y-7051329D01*
D37*
X10550000Y-7051329D02*
X10840000Y-7051329D01*
D39*
X10550000Y-6221329D02*
X10550000Y-7051329D01*
D36*
X16380000Y-7041329D02*
X16380000Y-5961329D01*
X17030000Y-7031329D02*
X17010000Y-7051329D01*
X12620000Y-7051329D02*
X12750000Y-7051329D01*
X12920000Y-5761329D02*
X12910000Y-5761329D01*
X24490000Y-12051329D02*
X24740000Y-12051329D01*
X19069000Y-5970329D02*
X19310000Y-6211329D01*
X14750000Y-7051329D02*
X14720000Y-7021329D01*
D37*
X12750000Y-7051329D02*
X14750000Y-7051329D01*
X19310000Y-7051329D02*
X20340000Y-7051329D01*
%TO.N,+5V*%
X8976250Y-8535079D02*
X10373750Y-8535079D01*
X14920000Y-9181329D02*
X16400000Y-9181329D01*
X20480000Y-9071329D02*
X20477000Y-9068329D01*
X10373750Y-8535079D02*
X10450000Y-8611329D01*
X13277000Y-8648329D02*
X13277000Y-8830329D01*
X10446000Y-8615329D02*
X10446000Y-8849329D01*
X20370000Y-9181329D02*
X20480000Y-9071329D01*
X14273750Y-8535079D02*
X14920000Y-9181329D01*
X13163750Y-8535079D02*
X13277000Y-8648329D01*
X16458000Y-9123329D02*
X16458000Y-8861329D01*
X13163750Y-8535079D02*
X14273750Y-8535079D01*
X10450000Y-8611329D02*
X10446000Y-8615329D01*
X16400000Y-9181329D02*
X20370000Y-9181329D01*
X10373750Y-8535079D02*
X13163750Y-8535079D01*
X20477000Y-9068329D02*
X20477000Y-8880329D01*
X16400000Y-9181329D02*
X16458000Y-9123329D01*
%TD*%
D40*
X4500000Y-4764000D02*
X4500000Y-14060000D01*
X4500000Y-14060000D02*
X25150000Y-14060000D01*
X10055000Y-4764000D02*
X4500000Y-4764000D01*
X11395000Y-4760000D02*
X11395000Y-4764000D01*
X25150000Y-4760000D02*
X11395000Y-4760000D01*
X25150000Y-14060000D02*
X25150000Y-4760000D01*
%TO.C,P1*%
D41*
X10055000Y-4764000D02*
X10268000Y-4764000D01*
X10268000Y-5200000D02*
X10268000Y-4764000D01*
X10283000Y-5215000D02*
X11167000Y-5215000D01*
X11182000Y-4764000D02*
X11395000Y-4764000D01*
X11182000Y-5200000D02*
X11182000Y-4764000D01*
X10283000Y-5215000D02*
G75*
G02*
X10268000Y-5200000I0J15000D01*
G01*
X11182000Y-5200000D02*
G75*
G02*
X11167000Y-5215000I-15000J0D01*
G01*
%TD*%
M02*
