%TF.GenerationSoftware,KiCad,Pcbnew,10.0.4*%
%TF.CreationDate,2026-08-04T15:23:52+02:00*%
%TF.ProjectId,zegarek,7a656761-7265-46b2-9e6b-696361645f70,rev?*%
%TF.SameCoordinates,Original*%
%TF.FileFunction,Paste,Top*%
%TF.FilePolarity,Positive*%
%FSLAX45Y45*%
G04 Gerber Fmt 4.5, Leading zero omitted, Abs format (unit mm)*
G04 Created by KiCad (PCBNEW 10.0.4) date 2026-08-04 15:23:52*
%MOMM*%
%LPD*%
G01*
G04 APERTURE LIST*
G04 Aperture macros list*
%AMRoundRect*
0 Rectangle with rounded corners*
0 $1 Rounding radius*
0 $2 $3 $4 $5 $6 $7 $8 $9 X,Y pos of 4 corners*
0 Add a 4 corners polygon primitive as box body*
4,1,4,$2,$3,$4,$5,$6,$7,$8,$9,$2,$3,0*
0 Add four circle primitives for the rounded corners*
1,1,$1+$1,$2,$3*
1,1,$1+$1,$4,$5*
1,1,$1+$1,$6,$7*
1,1,$1+$1,$8,$9*
0 Add four rect primitives between the rounded corners*
20,1,$1+$1,$2,$3,$4,$5,0*
20,1,$1+$1,$4,$5,$6,$7,0*
20,1,$1+$1,$6,$7,$8,$9,0*
20,1,$1+$1,$8,$9,$2,$3,0*%
G04 Aperture macros list end*
%ADD10RoundRect,0.237500X0.237500X-0.250000X0.237500X0.250000X-0.237500X0.250000X-0.237500X-0.250000X0*%
%ADD11RoundRect,0.237500X-0.300000X-0.237500X0.300000X-0.237500X0.300000X0.237500X-0.300000X0.237500X0*%
%ADD12RoundRect,0.250000X-0.412500X-0.650000X0.412500X-0.650000X0.412500X0.650000X-0.412500X0.650000X0*%
%ADD13R,0.900000X1.000000*%
%ADD14RoundRect,0.237500X-0.237500X0.250000X-0.237500X-0.250000X0.237500X-0.250000X0.237500X0.250000X0*%
%ADD15RoundRect,0.237500X0.250000X0.237500X-0.250000X0.237500X-0.250000X-0.237500X0.250000X-0.237500X0*%
%ADD16RoundRect,0.237500X-0.250000X-0.237500X0.250000X-0.237500X0.250000X0.237500X-0.250000X0.237500X0*%
%TA.AperFunction,Profile*%
%ADD17C,0.050000*%
%TD*%
%TA.AperFunction,Profile*%
%ADD18C,0.100000*%
%TD*%
G04 APERTURE END LIST*
D10*
%TO.C,R32*%
X10700000Y-13852579D03*
X10700000Y-13670079D03*
%TD*%
D11*
%TO.C,R2*%
X24563750Y-11711329D03*
X24736250Y-11711329D03*
%TD*%
D12*
%TO.C,C2*%
X23943750Y-12111329D03*
X24256250Y-12111329D03*
%TD*%
%TO.C,C1*%
X23943750Y-11111329D03*
X24256250Y-11111329D03*
%TD*%
%TO.C,C3*%
X23943750Y-13061329D03*
X24256250Y-13061329D03*
%TD*%
D13*
%TO.C,SW2*%
X23945000Y-11731329D03*
X24355000Y-11731329D03*
X23945000Y-11891329D03*
X24355000Y-11891329D03*
%TD*%
D14*
%TO.C,R42*%
X19100000Y-13670079D03*
X19100000Y-13852579D03*
%TD*%
D15*
%TO.C,R4*%
X24741250Y-10911329D03*
X24558750Y-10911329D03*
%TD*%
D13*
%TO.C,SW3*%
X23940000Y-12651329D03*
X24350000Y-12651329D03*
X23940000Y-12811329D03*
X24350000Y-12811329D03*
%TD*%
D16*
%TO.C,R1*%
X24558750Y-10711329D03*
X24741250Y-10711329D03*
%TD*%
D15*
%TO.C,R5*%
X24741250Y-11911329D03*
X24558750Y-11911329D03*
%TD*%
D16*
%TO.C,R3*%
X24508750Y-12661329D03*
X24691250Y-12661329D03*
%TD*%
D14*
%TO.C,R31*%
X6550000Y-13670079D03*
X6550000Y-13852579D03*
%TD*%
%TO.C,R41*%
X14850000Y-13670079D03*
X14850000Y-13852579D03*
%TD*%
D15*
%TO.C,R6*%
X24691250Y-12811329D03*
X24508750Y-12811329D03*
%TD*%
D13*
%TO.C,SW1*%
X23945000Y-10731329D03*
X24355000Y-10731329D03*
X23945000Y-10891329D03*
X24355000Y-10891329D03*
%TD*%
D17*
X4500000Y-4764000D02*
X4500000Y-14060000D01*
X4500000Y-14060000D02*
X25150000Y-14060000D01*
X10055000Y-4764000D02*
X4500000Y-4764000D01*
X11395000Y-4760000D02*
X11395000Y-4764000D01*
X25150000Y-4760000D02*
X11395000Y-4760000D01*
X25150000Y-14060000D02*
X25150000Y-4760000D01*
%TO.C,P1*%
D18*
X10055000Y-4764000D02*
X10268000Y-4764000D01*
X10268000Y-5200000D02*
X10268000Y-4764000D01*
X10283000Y-5215000D02*
X11167000Y-5215000D01*
X11182000Y-4764000D02*
X11395000Y-4764000D01*
X11182000Y-5200000D02*
X11182000Y-4764000D01*
X10283000Y-5215000D02*
G75*
G02*
X10268000Y-5200000I0J15000D01*
G01*
X11182000Y-5200000D02*
G75*
G02*
X11167000Y-5215000I-15000J0D01*
G01*
%TD*%
M02*
