%TF.GenerationSoftware,KiCad,Pcbnew,10.0.4*%
%TF.CreationDate,2026-08-04T15:23:52+02:00*%
%TF.ProjectId,zegarek,7a656761-7265-46b2-9e6b-696361645f70,rev?*%
%TF.SameCoordinates,Original*%
%TF.FileFunction,Soldermask,Top*%
%TF.FilePolarity,Negative*%
%FSLAX45Y45*%
G04 Gerber Fmt 4.5, Leading zero omitted, Abs format (unit mm)*
G04 Created by KiCad (PCBNEW 10.0.4) date 2026-08-04 15:23:52*
%MOMM*%
%LPD*%
G01*
G04 APERTURE LIST*
G04 Aperture macros list*
%AMRoundRect*
0 Rectangle with rounded corners*
0 $1 Rounding radius*
0 $2 $3 $4 $5 $6 $7 $8 $9 X,Y pos of 4 corners*
0 Add a 4 corners polygon primitive as box body*
4,1,4,$2,$3,$4,$5,$6,$7,$8,$9,$2,$3,0*
0 Add four circle primitives for the rounded corners*
1,1,$1+$1,$2,$3*
1,1,$1+$1,$4,$5*
1,1,$1+$1,$6,$7*
1,1,$1+$1,$8,$9*
0 Add four rect primitives between the rounded corners*
20,1,$1+$1,$2,$3,$4,$5,0*
20,1,$1+$1,$4,$5,$6,$7,0*
20,1,$1+$1,$6,$7,$8,$9,0*
20,1,$1+$1,$8,$9,$2,$3,0*%
%AMRotRect*
0 Rectangle, with rotation*
0 The origin of the aperture is its center*
0 $1 length*
0 $2 width*
0 $3 Rotation angle, in degrees counterclockwise*
0 Add horizontal line*
21,1,$1,$2,0,0,$3*%
G04 Aperture macros list end*
%ADD10RoundRect,0.237500X0.237500X-0.250000X0.237500X0.250000X-0.237500X0.250000X-0.237500X-0.250000X0*%
%ADD11R,1.700000X1.700000*%
%ADD12C,1.700000*%
%ADD13RoundRect,1.125000X-1.101193X1.148313X-1.148313X-1.101193X1.101193X-1.148313X1.148313X1.101193X0*%
%ADD14C,4.500000*%
%ADD15RoundRect,0.237500X-0.300000X-0.237500X0.300000X-0.237500X0.300000X0.237500X-0.300000X0.237500X0*%
%ADD16RoundRect,0.250000X-0.412500X-0.650000X0.412500X-0.650000X0.412500X0.650000X-0.412500X0.650000X0*%
%ADD17R,0.900000X1.000000*%
%ADD18RoundRect,0.237500X-0.237500X0.250000X-0.237500X-0.250000X0.237500X-0.250000X0.237500X0.250000X0*%
%ADD19RoundRect,0.237500X0.250000X0.237500X-0.250000X0.237500X-0.250000X-0.237500X0.250000X-0.237500X0*%
%ADD20RoundRect,0.237500X-0.250000X-0.237500X0.250000X-0.237500X0.250000X0.237500X-0.250000X0.237500X0*%
%ADD21RotRect,1.700000X1.700000X45.000000*%
%ADD22C,2.130000*%
%ADD23R,1.800000X3.000000*%
%ADD24O,1.800000X3.000000*%
%ADD25O,1.600000X3.000000*%
%ADD26C,3.500000*%
%ADD27R,1.905000X2.000000*%
%ADD28O,1.905000X2.000000*%
%ADD29RoundRect,0.250000X-0.550000X0.950000X-0.550000X-0.950000X0.550000X-0.950000X0.550000X0.950000X0*%
%ADD30O,1.600000X2.400000*%
%ADD31C,1.800000*%
%ADD32RoundRect,0.250001X-0.949999X-0.949999X0.949999X-0.949999X0.949999X0.949999X-0.949999X0.949999X0*%
%ADD33C,2.400000*%
%ADD34R,2.000000X2.000000*%
%ADD35C,2.000000*%
%ADD36RoundRect,0.250000X-1.350000X-1.350000X1.350000X-1.350000X1.350000X1.350000X-1.350000X1.350000X0*%
%ADD37C,3.200000*%
%ADD38C,0.600000*%
%ADD39O,0.900000X1.800000*%
%ADD40O,0.900000X1.500000*%
%ADD41C,1.000000*%
%TA.AperFunction,Profile*%
%ADD42C,0.050000*%
%TD*%
%TA.AperFunction,Profile*%
%ADD43C,0.100000*%
%TD*%
G04 APERTURE END LIST*
D10*
%TO.C,R32*%
X10700000Y-13852579D03*
X10700000Y-13670079D03*
%TD*%
D11*
%TO.C,J3*%
X16710000Y-5051329D03*
D12*
X16710000Y-5305329D03*
%TD*%
D13*
%TO.C,IN3*%
X16279142Y-13521106D03*
D14*
X17057008Y-13304549D03*
X17595966Y-12702461D03*
X17723378Y-11904037D03*
X17399274Y-11163858D03*
X16726620Y-10716147D03*
X15918200Y-10702978D03*
X15231671Y-11129197D03*
X14883329Y-11857640D03*
X14984266Y-12659028D03*
X15507457Y-13282543D03*
%TD*%
D15*
%TO.C,R2*%
X24563750Y-11711329D03*
X24736250Y-11711329D03*
%TD*%
D16*
%TO.C,C2*%
X23943750Y-12111329D03*
X24256250Y-12111329D03*
%TD*%
%TO.C,C1*%
X23943750Y-11111329D03*
X24256250Y-11111329D03*
%TD*%
%TO.C,C3*%
X23943750Y-13061329D03*
X24256250Y-13061329D03*
%TD*%
D13*
%TO.C,IN1*%
X7829142Y-13521106D03*
D14*
X8607008Y-13304549D03*
X9145966Y-12702461D03*
X9273378Y-11904037D03*
X8949274Y-11163858D03*
X8276620Y-10716147D03*
X7468201Y-10702978D03*
X6781671Y-11129197D03*
X6433329Y-11857640D03*
X6534266Y-12659028D03*
X7057457Y-13282543D03*
%TD*%
D17*
%TO.C,SW2*%
X23945000Y-11731329D03*
X24355000Y-11731329D03*
X23945000Y-11891329D03*
X24355000Y-11891329D03*
%TD*%
D18*
%TO.C,R42*%
X19100000Y-13670079D03*
X19100000Y-13852579D03*
%TD*%
D19*
%TO.C,R4*%
X24741250Y-10911329D03*
X24558750Y-10911329D03*
%TD*%
D17*
%TO.C,SW3*%
X23940000Y-12651329D03*
X24350000Y-12651329D03*
X23940000Y-12811329D03*
X24350000Y-12811329D03*
%TD*%
D13*
%TO.C,IN4*%
X20529142Y-13421106D03*
D14*
X21307008Y-13204549D03*
X21845966Y-12602461D03*
X21973378Y-11804037D03*
X21649274Y-11063858D03*
X20976620Y-10616147D03*
X20168201Y-10602978D03*
X19481671Y-11029197D03*
X19133329Y-11757640D03*
X19234266Y-12559028D03*
X19757457Y-13182543D03*
%TD*%
D20*
%TO.C,R1*%
X24558750Y-10711329D03*
X24741250Y-10711329D03*
%TD*%
D19*
%TO.C,R5*%
X24741250Y-11911329D03*
X24558750Y-11911329D03*
%TD*%
D20*
%TO.C,R3*%
X24508750Y-12661329D03*
X24691250Y-12661329D03*
%TD*%
D18*
%TO.C,R31*%
X6550000Y-13670079D03*
X6550000Y-13852579D03*
%TD*%
%TO.C,R41*%
X14850000Y-13670079D03*
X14850000Y-13852579D03*
%TD*%
D21*
%TO.C,J2*%
X14549844Y-8371173D03*
D12*
X14729449Y-8550778D03*
%TD*%
D11*
%TO.C,J4*%
X19069000Y-5011329D03*
D12*
X19323000Y-5011329D03*
X19577000Y-5011329D03*
X19831000Y-5011329D03*
%TD*%
D19*
%TO.C,R6*%
X24691250Y-12811329D03*
X24508750Y-12811329D03*
%TD*%
D13*
%TO.C,IN2*%
X12079142Y-13521106D03*
D14*
X12857008Y-13304549D03*
X13395966Y-12702461D03*
X13523378Y-11904037D03*
X13199274Y-11163858D03*
X12526620Y-10716147D03*
X11718201Y-10702978D03*
X11031671Y-11129197D03*
X10683329Y-11857640D03*
X10784266Y-12659028D03*
X11307457Y-13282543D03*
%TD*%
D17*
%TO.C,SW1*%
X23945000Y-10731329D03*
X24355000Y-10731329D03*
X23945000Y-10891329D03*
X24355000Y-10891329D03*
%TD*%
D22*
%TO.C,J1*%
X5970000Y-5211329D03*
D23*
X6290000Y-5841329D03*
D24*
X5440000Y-5841329D03*
X5970000Y-5841329D03*
D25*
X5350000Y-5111329D03*
X6330000Y-5111329D03*
%TD*%
D26*
%TO.C,Q1*%
X5080000Y-6498329D03*
D27*
X4826000Y-8164329D03*
D28*
X5080000Y-8164329D03*
X5334000Y-8164329D03*
%TD*%
D29*
%TO.C,U9*%
X19461000Y-8880329D03*
D30*
X19715000Y-8880329D03*
X19969000Y-8880329D03*
X20223000Y-8880329D03*
X20477000Y-8880329D03*
X20731000Y-8880329D03*
X20985000Y-8880329D03*
X21239000Y-8880329D03*
X21239000Y-9642329D03*
X20985000Y-9642329D03*
X20731000Y-9642329D03*
X20477000Y-9642329D03*
X20223000Y-9642329D03*
X19969000Y-9642329D03*
X19715000Y-9642329D03*
X19461000Y-9642329D03*
%TD*%
D31*
%TO.C,TP1*%
X11150000Y-7313829D03*
%TD*%
D32*
%TO.C,C10*%
X5150000Y-9761329D03*
D33*
X8150000Y-9761329D03*
%TD*%
D29*
%TO.C,U6*%
X9430000Y-8849329D03*
D30*
X9684000Y-8849329D03*
X9938000Y-8849329D03*
X10192000Y-8849329D03*
X10446000Y-8849329D03*
X10700000Y-8849329D03*
X10954000Y-8849329D03*
X11208000Y-8849329D03*
X11208000Y-9611329D03*
X10954000Y-9611329D03*
X10700000Y-9611329D03*
X10446000Y-9611329D03*
X10192000Y-9611329D03*
X9938000Y-9611329D03*
X9684000Y-9611329D03*
X9430000Y-9611329D03*
%TD*%
D34*
%TO.C,BZ1*%
X20400000Y-6461329D03*
D35*
X20400000Y-5701329D03*
%TD*%
D34*
%TO.C,BT1*%
X22650000Y-5361329D03*
D35*
X22650000Y-7441329D03*
%TD*%
D36*
%TO.C,D1*%
X5238000Y-8911329D03*
D37*
X6762000Y-8911329D03*
%TD*%
D29*
%TO.C,U8*%
X15442000Y-8861329D03*
D30*
X15696000Y-8861329D03*
X15950000Y-8861329D03*
X16204000Y-8861329D03*
X16458000Y-8861329D03*
X16712000Y-8861329D03*
X16966000Y-8861329D03*
X17220000Y-8861329D03*
X17220000Y-9623329D03*
X16966000Y-9623329D03*
X16712000Y-9623329D03*
X16458000Y-9623329D03*
X16204000Y-9623329D03*
X15950000Y-9623329D03*
X15696000Y-9623329D03*
X15442000Y-9623329D03*
%TD*%
D29*
%TO.C,U7*%
X12261000Y-8830329D03*
D30*
X12515000Y-8830329D03*
X12769000Y-8830329D03*
X13023000Y-8830329D03*
X13277000Y-8830329D03*
X13531000Y-8830329D03*
X13785000Y-8830329D03*
X14039000Y-8830329D03*
X14039000Y-9592329D03*
X13785000Y-9592329D03*
X13531000Y-9592329D03*
X13277000Y-9592329D03*
X13023000Y-9592329D03*
X12769000Y-9592329D03*
X12515000Y-9592329D03*
X12261000Y-9592329D03*
%TD*%
D38*
%TO.C,P1*%
X10375000Y-5285000D03*
X11075000Y-5285000D03*
D39*
X10133000Y-4900000D03*
D40*
X10260000Y-5332000D03*
X11190000Y-5332000D03*
D39*
X11317000Y-4900000D03*
%TD*%
D41*
%TO.C,Y1*%
X14325500Y-6738329D03*
X14325500Y-6484329D03*
%TD*%
D26*
%TO.C,U3*%
X8360000Y-6568329D03*
D27*
X8106000Y-8234329D03*
D28*
X8360000Y-8234329D03*
X8614000Y-8234329D03*
%TD*%
D42*
X4500000Y-4764000D02*
X4500000Y-14060000D01*
X4500000Y-14060000D02*
X25150000Y-14060000D01*
X10055000Y-4764000D02*
X4500000Y-4764000D01*
X11395000Y-4760000D02*
X11395000Y-4764000D01*
X25150000Y-4760000D02*
X11395000Y-4760000D01*
X25150000Y-14060000D02*
X25150000Y-4760000D01*
%TO.C,P1*%
D43*
X10055000Y-4764000D02*
X10268000Y-4764000D01*
X10268000Y-5200000D02*
X10268000Y-4764000D01*
X10283000Y-5215000D02*
X11167000Y-5215000D01*
X11182000Y-4764000D02*
X11395000Y-4764000D01*
X11182000Y-5200000D02*
X11182000Y-4764000D01*
X10283000Y-5215000D02*
G75*
G02*
X10268000Y-5200000I0J15000D01*
G01*
X11182000Y-5200000D02*
G75*
G02*
X11167000Y-5215000I-15000J0D01*
G01*
%TD*%
M02*
