%TF.GenerationSoftware,KiCad,Pcbnew,10.0.4*%
%TF.CreationDate,2026-08-04T15:23:52+02:00*%
%TF.ProjectId,zegarek,7a656761-7265-46b2-9e6b-696361645f70,rev?*%
%TF.SameCoordinates,Original*%
%TF.FileFunction,Legend,Top*%
%TF.FilePolarity,Positive*%
%FSLAX45Y45*%
G04 Gerber Fmt 4.5, Leading zero omitted, Abs format (unit mm)*
G04 Created by KiCad (PCBNEW 10.0.4) date 2026-08-04 15:23:52*
%MOMM*%
%LPD*%
G01*
G04 APERTURE LIST*
G04 Aperture macros list*
%AMRoundRect*
0 Rectangle with rounded corners*
0 $1 Rounding radius*
0 $2 $3 $4 $5 $6 $7 $8 $9 X,Y pos of 4 corners*
0 Add a 4 corners polygon primitive as box body*
4,1,4,$2,$3,$4,$5,$6,$7,$8,$9,$2,$3,0*
0 Add four circle primitives for the rounded corners*
1,1,$1+$1,$2,$3*
1,1,$1+$1,$4,$5*
1,1,$1+$1,$6,$7*
1,1,$1+$1,$8,$9*
0 Add four rect primitives between the rounded corners*
20,1,$1+$1,$2,$3,$4,$5,0*
20,1,$1+$1,$4,$5,$6,$7,0*
20,1,$1+$1,$6,$7,$8,$9,0*
20,1,$1+$1,$8,$9,$2,$3,0*%
%AMRotRect*
0 Rectangle, with rotation*
0 The origin of the aperture is its center*
0 $1 length*
0 $2 width*
0 $3 Rotation angle, in degrees counterclockwise*
0 Add horizontal line*
21,1,$1,$2,0,0,$3*%
G04 Aperture macros list end*
%ADD10C,0.300000*%
%ADD11C,0.150000*%
%ADD12C,0.120000*%
%ADD13C,0.400000*%
%ADD14RoundRect,0.237500X0.237500X-0.250000X0.237500X0.250000X-0.237500X0.250000X-0.237500X-0.250000X0*%
%ADD15R,1.700000X1.700000*%
%ADD16C,1.700000*%
%ADD17RoundRect,1.125000X-1.101193X1.148313X-1.148313X-1.101193X1.101193X-1.148313X1.148313X1.101193X0*%
%ADD18C,4.500000*%
%ADD19RoundRect,0.237500X-0.300000X-0.237500X0.300000X-0.237500X0.300000X0.237500X-0.300000X0.237500X0*%
%ADD20RoundRect,0.250000X-0.412500X-0.650000X0.412500X-0.650000X0.412500X0.650000X-0.412500X0.650000X0*%
%ADD21R,0.900000X1.000000*%
%ADD22RoundRect,0.237500X-0.237500X0.250000X-0.237500X-0.250000X0.237500X-0.250000X0.237500X0.250000X0*%
%ADD23RoundRect,0.237500X0.250000X0.237500X-0.250000X0.237500X-0.250000X-0.237500X0.250000X-0.237500X0*%
%ADD24RoundRect,0.237500X-0.250000X-0.237500X0.250000X-0.237500X0.250000X0.237500X-0.250000X0.237500X0*%
%ADD25RotRect,1.700000X1.700000X45.000000*%
%ADD26C,2.130000*%
%ADD27R,1.800000X3.000000*%
%ADD28O,1.800000X3.000000*%
%ADD29O,1.600000X3.000000*%
%ADD30C,3.500000*%
%ADD31R,1.905000X2.000000*%
%ADD32O,1.905000X2.000000*%
%ADD33RoundRect,0.250000X-0.550000X0.950000X-0.550000X-0.950000X0.550000X-0.950000X0.550000X0.950000X0*%
%ADD34O,1.600000X2.400000*%
%ADD35C,1.800000*%
%ADD36RoundRect,0.250001X-0.949999X-0.949999X0.949999X-0.949999X0.949999X0.949999X-0.949999X0.949999X0*%
%ADD37C,2.400000*%
%ADD38R,2.000000X2.000000*%
%ADD39C,2.000000*%
%ADD40RoundRect,0.250000X-1.350000X-1.350000X1.350000X-1.350000X1.350000X1.350000X-1.350000X1.350000X0*%
%ADD41C,3.200000*%
%ADD42C,0.600000*%
%ADD43O,0.900000X1.800000*%
%ADD44O,0.900000X1.500000*%
%ADD45C,1.000000*%
%TA.AperFunction,Profile*%
%ADD46C,0.050000*%
%TD*%
%TA.AperFunction,Profile*%
%ADD47C,0.100000*%
%TD*%
G04 APERTURE END LIST*
D10*
X5485451Y-6342583D02*
X5485451Y-6192583D01*
X5485451Y-6192583D02*
X5542594Y-6192583D01*
X5542594Y-6192583D02*
X5556880Y-6199726D01*
X5556880Y-6199726D02*
X5564023Y-6206868D01*
X5564023Y-6206868D02*
X5571165Y-6221154D01*
X5571165Y-6221154D02*
X5571165Y-6242583D01*
X5571165Y-6242583D02*
X5564023Y-6256868D01*
X5564023Y-6256868D02*
X5556880Y-6264011D01*
X5556880Y-6264011D02*
X5542594Y-6271154D01*
X5542594Y-6271154D02*
X5485451Y-6271154D01*
X5621165Y-6192583D02*
X5656880Y-6342583D01*
X5656880Y-6342583D02*
X5685451Y-6235440D01*
X5685451Y-6235440D02*
X5714022Y-6342583D01*
X5714022Y-6342583D02*
X5749737Y-6192583D01*
X5892594Y-6342583D02*
X5842594Y-6271154D01*
X5806880Y-6342583D02*
X5806880Y-6192583D01*
X5806880Y-6192583D02*
X5864022Y-6192583D01*
X5864022Y-6192583D02*
X5878308Y-6199726D01*
X5878308Y-6199726D02*
X5885451Y-6206868D01*
X5885451Y-6206868D02*
X5892594Y-6221154D01*
X5892594Y-6221154D02*
X5892594Y-6242583D01*
X5892594Y-6242583D02*
X5885451Y-6256868D01*
X5885451Y-6256868D02*
X5878308Y-6264011D01*
X5878308Y-6264011D02*
X5864022Y-6271154D01*
X5864022Y-6271154D02*
X5806880Y-6271154D01*
X6071165Y-6342583D02*
X6071165Y-6192583D01*
X6142594Y-6342583D02*
X6142594Y-6192583D01*
X6142594Y-6192583D02*
X6228308Y-6342583D01*
X6228308Y-6342583D02*
X6228308Y-6192583D01*
X10400451Y-5762583D02*
X10400451Y-5612583D01*
X10400451Y-5612583D02*
X10436165Y-5612583D01*
X10436165Y-5612583D02*
X10457594Y-5619726D01*
X10457594Y-5619726D02*
X10471880Y-5634011D01*
X10471880Y-5634011D02*
X10479023Y-5648297D01*
X10479023Y-5648297D02*
X10486165Y-5676868D01*
X10486165Y-5676868D02*
X10486165Y-5698297D01*
X10486165Y-5698297D02*
X10479023Y-5726868D01*
X10479023Y-5726868D02*
X10471880Y-5741154D01*
X10471880Y-5741154D02*
X10457594Y-5755440D01*
X10457594Y-5755440D02*
X10436165Y-5762583D01*
X10436165Y-5762583D02*
X10400451Y-5762583D01*
X10550451Y-5684011D02*
X10600451Y-5684011D01*
X10621880Y-5762583D02*
X10550451Y-5762583D01*
X10550451Y-5762583D02*
X10550451Y-5612583D01*
X10550451Y-5612583D02*
X10621880Y-5612583D01*
X10736165Y-5684011D02*
X10757594Y-5691154D01*
X10757594Y-5691154D02*
X10764737Y-5698297D01*
X10764737Y-5698297D02*
X10771880Y-5712583D01*
X10771880Y-5712583D02*
X10771880Y-5734011D01*
X10771880Y-5734011D02*
X10764737Y-5748297D01*
X10764737Y-5748297D02*
X10757594Y-5755440D01*
X10757594Y-5755440D02*
X10743308Y-5762583D01*
X10743308Y-5762583D02*
X10686165Y-5762583D01*
X10686165Y-5762583D02*
X10686165Y-5612583D01*
X10686165Y-5612583D02*
X10736165Y-5612583D01*
X10736165Y-5612583D02*
X10750451Y-5619726D01*
X10750451Y-5619726D02*
X10757594Y-5626868D01*
X10757594Y-5626868D02*
X10764737Y-5641154D01*
X10764737Y-5641154D02*
X10764737Y-5655440D01*
X10764737Y-5655440D02*
X10757594Y-5669726D01*
X10757594Y-5669726D02*
X10750451Y-5676868D01*
X10750451Y-5676868D02*
X10736165Y-5684011D01*
X10736165Y-5684011D02*
X10686165Y-5684011D01*
X10836165Y-5612583D02*
X10836165Y-5734011D01*
X10836165Y-5734011D02*
X10843308Y-5748297D01*
X10843308Y-5748297D02*
X10850451Y-5755440D01*
X10850451Y-5755440D02*
X10864737Y-5762583D01*
X10864737Y-5762583D02*
X10893308Y-5762583D01*
X10893308Y-5762583D02*
X10907594Y-5755440D01*
X10907594Y-5755440D02*
X10914737Y-5748297D01*
X10914737Y-5748297D02*
X10921880Y-5734011D01*
X10921880Y-5734011D02*
X10921880Y-5612583D01*
X11071880Y-5619726D02*
X11057594Y-5612583D01*
X11057594Y-5612583D02*
X11036165Y-5612583D01*
X11036165Y-5612583D02*
X11014737Y-5619726D01*
X11014737Y-5619726D02*
X11000451Y-5634011D01*
X11000451Y-5634011D02*
X10993308Y-5648297D01*
X10993308Y-5648297D02*
X10986165Y-5676868D01*
X10986165Y-5676868D02*
X10986165Y-5698297D01*
X10986165Y-5698297D02*
X10993308Y-5726868D01*
X10993308Y-5726868D02*
X11000451Y-5741154D01*
X11000451Y-5741154D02*
X11014737Y-5755440D01*
X11014737Y-5755440D02*
X11036165Y-5762583D01*
X11036165Y-5762583D02*
X11050451Y-5762583D01*
X11050451Y-5762583D02*
X11071880Y-5755440D01*
X11071880Y-5755440D02*
X11079023Y-5748297D01*
X11079023Y-5748297D02*
X11079023Y-5698297D01*
X11079023Y-5698297D02*
X11050451Y-5698297D01*
X16985451Y-5390083D02*
X16985451Y-5240083D01*
X16985451Y-5240083D02*
X17021165Y-5240083D01*
X17021165Y-5240083D02*
X17042594Y-5247226D01*
X17042594Y-5247226D02*
X17056880Y-5261511D01*
X17056880Y-5261511D02*
X17064023Y-5275797D01*
X17064023Y-5275797D02*
X17071165Y-5304369D01*
X17071165Y-5304369D02*
X17071165Y-5325797D01*
X17071165Y-5325797D02*
X17064023Y-5354369D01*
X17064023Y-5354369D02*
X17056880Y-5368654D01*
X17056880Y-5368654D02*
X17042594Y-5382940D01*
X17042594Y-5382940D02*
X17021165Y-5390083D01*
X17021165Y-5390083D02*
X16985451Y-5390083D01*
X17135451Y-5311511D02*
X17185451Y-5311511D01*
X17206880Y-5390083D02*
X17135451Y-5390083D01*
X17135451Y-5390083D02*
X17135451Y-5240083D01*
X17135451Y-5240083D02*
X17206880Y-5240083D01*
X17321165Y-5311511D02*
X17342594Y-5318654D01*
X17342594Y-5318654D02*
X17349737Y-5325797D01*
X17349737Y-5325797D02*
X17356880Y-5340083D01*
X17356880Y-5340083D02*
X17356880Y-5361511D01*
X17356880Y-5361511D02*
X17349737Y-5375797D01*
X17349737Y-5375797D02*
X17342594Y-5382940D01*
X17342594Y-5382940D02*
X17328308Y-5390083D01*
X17328308Y-5390083D02*
X17271165Y-5390083D01*
X17271165Y-5390083D02*
X17271165Y-5240083D01*
X17271165Y-5240083D02*
X17321165Y-5240083D01*
X17321165Y-5240083D02*
X17335451Y-5247226D01*
X17335451Y-5247226D02*
X17342594Y-5254369D01*
X17342594Y-5254369D02*
X17349737Y-5268654D01*
X17349737Y-5268654D02*
X17349737Y-5282940D01*
X17349737Y-5282940D02*
X17342594Y-5297226D01*
X17342594Y-5297226D02*
X17335451Y-5304369D01*
X17335451Y-5304369D02*
X17321165Y-5311511D01*
X17321165Y-5311511D02*
X17271165Y-5311511D01*
X17421165Y-5240083D02*
X17421165Y-5361511D01*
X17421165Y-5361511D02*
X17428308Y-5375797D01*
X17428308Y-5375797D02*
X17435451Y-5382940D01*
X17435451Y-5382940D02*
X17449737Y-5390083D01*
X17449737Y-5390083D02*
X17478308Y-5390083D01*
X17478308Y-5390083D02*
X17492594Y-5382940D01*
X17492594Y-5382940D02*
X17499737Y-5375797D01*
X17499737Y-5375797D02*
X17506880Y-5361511D01*
X17506880Y-5361511D02*
X17506880Y-5240083D01*
X17656880Y-5247226D02*
X17642594Y-5240083D01*
X17642594Y-5240083D02*
X17621165Y-5240083D01*
X17621165Y-5240083D02*
X17599737Y-5247226D01*
X17599737Y-5247226D02*
X17585451Y-5261511D01*
X17585451Y-5261511D02*
X17578308Y-5275797D01*
X17578308Y-5275797D02*
X17571165Y-5304369D01*
X17571165Y-5304369D02*
X17571165Y-5325797D01*
X17571165Y-5325797D02*
X17578308Y-5354369D01*
X17578308Y-5354369D02*
X17585451Y-5368654D01*
X17585451Y-5368654D02*
X17599737Y-5382940D01*
X17599737Y-5382940D02*
X17621165Y-5390083D01*
X17621165Y-5390083D02*
X17635451Y-5390083D01*
X17635451Y-5390083D02*
X17656880Y-5382940D01*
X17656880Y-5382940D02*
X17664023Y-5375797D01*
X17664023Y-5375797D02*
X17664023Y-5325797D01*
X17664023Y-5325797D02*
X17635451Y-5325797D01*
X17821165Y-5240083D02*
X17906880Y-5240083D01*
X17864023Y-5390083D02*
X17864023Y-5240083D01*
X17942594Y-5240083D02*
X18042594Y-5390083D01*
X18042594Y-5240083D02*
X17942594Y-5390083D01*
X16995451Y-5110083D02*
X16995451Y-4960083D01*
X16995451Y-4960083D02*
X17031165Y-4960083D01*
X17031165Y-4960083D02*
X17052594Y-4967226D01*
X17052594Y-4967226D02*
X17066880Y-4981511D01*
X17066880Y-4981511D02*
X17074023Y-4995797D01*
X17074023Y-4995797D02*
X17081165Y-5024369D01*
X17081165Y-5024369D02*
X17081165Y-5045797D01*
X17081165Y-5045797D02*
X17074023Y-5074369D01*
X17074023Y-5074369D02*
X17066880Y-5088654D01*
X17066880Y-5088654D02*
X17052594Y-5102940D01*
X17052594Y-5102940D02*
X17031165Y-5110083D01*
X17031165Y-5110083D02*
X16995451Y-5110083D01*
X17145451Y-5031511D02*
X17195451Y-5031511D01*
X17216880Y-5110083D02*
X17145451Y-5110083D01*
X17145451Y-5110083D02*
X17145451Y-4960083D01*
X17145451Y-4960083D02*
X17216880Y-4960083D01*
X17331165Y-5031511D02*
X17352594Y-5038654D01*
X17352594Y-5038654D02*
X17359737Y-5045797D01*
X17359737Y-5045797D02*
X17366880Y-5060083D01*
X17366880Y-5060083D02*
X17366880Y-5081511D01*
X17366880Y-5081511D02*
X17359737Y-5095797D01*
X17359737Y-5095797D02*
X17352594Y-5102940D01*
X17352594Y-5102940D02*
X17338308Y-5110083D01*
X17338308Y-5110083D02*
X17281165Y-5110083D01*
X17281165Y-5110083D02*
X17281165Y-4960083D01*
X17281165Y-4960083D02*
X17331165Y-4960083D01*
X17331165Y-4960083D02*
X17345451Y-4967226D01*
X17345451Y-4967226D02*
X17352594Y-4974369D01*
X17352594Y-4974369D02*
X17359737Y-4988654D01*
X17359737Y-4988654D02*
X17359737Y-5002940D01*
X17359737Y-5002940D02*
X17352594Y-5017226D01*
X17352594Y-5017226D02*
X17345451Y-5024369D01*
X17345451Y-5024369D02*
X17331165Y-5031511D01*
X17331165Y-5031511D02*
X17281165Y-5031511D01*
X17431165Y-4960083D02*
X17431165Y-5081511D01*
X17431165Y-5081511D02*
X17438308Y-5095797D01*
X17438308Y-5095797D02*
X17445451Y-5102940D01*
X17445451Y-5102940D02*
X17459737Y-5110083D01*
X17459737Y-5110083D02*
X17488308Y-5110083D01*
X17488308Y-5110083D02*
X17502594Y-5102940D01*
X17502594Y-5102940D02*
X17509737Y-5095797D01*
X17509737Y-5095797D02*
X17516880Y-5081511D01*
X17516880Y-5081511D02*
X17516880Y-4960083D01*
X17666880Y-4967226D02*
X17652594Y-4960083D01*
X17652594Y-4960083D02*
X17631165Y-4960083D01*
X17631165Y-4960083D02*
X17609737Y-4967226D01*
X17609737Y-4967226D02*
X17595451Y-4981511D01*
X17595451Y-4981511D02*
X17588308Y-4995797D01*
X17588308Y-4995797D02*
X17581165Y-5024369D01*
X17581165Y-5024369D02*
X17581165Y-5045797D01*
X17581165Y-5045797D02*
X17588308Y-5074369D01*
X17588308Y-5074369D02*
X17595451Y-5088654D01*
X17595451Y-5088654D02*
X17609737Y-5102940D01*
X17609737Y-5102940D02*
X17631165Y-5110083D01*
X17631165Y-5110083D02*
X17645451Y-5110083D01*
X17645451Y-5110083D02*
X17666880Y-5102940D01*
X17666880Y-5102940D02*
X17674023Y-5095797D01*
X17674023Y-5095797D02*
X17674023Y-5045797D01*
X17674023Y-5045797D02*
X17645451Y-5045797D01*
X17938308Y-5110083D02*
X17888308Y-5038654D01*
X17852594Y-5110083D02*
X17852594Y-4960083D01*
X17852594Y-4960083D02*
X17909737Y-4960083D01*
X17909737Y-4960083D02*
X17924023Y-4967226D01*
X17924023Y-4967226D02*
X17931165Y-4974369D01*
X17931165Y-4974369D02*
X17938308Y-4988654D01*
X17938308Y-4988654D02*
X17938308Y-5010083D01*
X17938308Y-5010083D02*
X17931165Y-5024369D01*
X17931165Y-5024369D02*
X17924023Y-5031511D01*
X17924023Y-5031511D02*
X17909737Y-5038654D01*
X17909737Y-5038654D02*
X17852594Y-5038654D01*
X17988308Y-4960083D02*
X18088308Y-5110083D01*
X18088308Y-4960083D02*
X17988308Y-5110083D01*
X20098308Y-5067940D02*
X20119737Y-5075083D01*
X20119737Y-5075083D02*
X20155451Y-5075083D01*
X20155451Y-5075083D02*
X20169737Y-5067940D01*
X20169737Y-5067940D02*
X20176880Y-5060797D01*
X20176880Y-5060797D02*
X20184023Y-5046511D01*
X20184023Y-5046511D02*
X20184023Y-5032226D01*
X20184023Y-5032226D02*
X20176880Y-5017940D01*
X20176880Y-5017940D02*
X20169737Y-5010797D01*
X20169737Y-5010797D02*
X20155451Y-5003654D01*
X20155451Y-5003654D02*
X20126880Y-4996511D01*
X20126880Y-4996511D02*
X20112594Y-4989369D01*
X20112594Y-4989369D02*
X20105451Y-4982226D01*
X20105451Y-4982226D02*
X20098308Y-4967940D01*
X20098308Y-4967940D02*
X20098308Y-4953654D01*
X20098308Y-4953654D02*
X20105451Y-4939369D01*
X20105451Y-4939369D02*
X20112594Y-4932226D01*
X20112594Y-4932226D02*
X20126880Y-4925083D01*
X20126880Y-4925083D02*
X20162594Y-4925083D01*
X20162594Y-4925083D02*
X20184023Y-4932226D01*
X20234022Y-4925083D02*
X20269737Y-5075083D01*
X20269737Y-5075083D02*
X20298308Y-4967940D01*
X20298308Y-4967940D02*
X20326880Y-5075083D01*
X20326880Y-5075083D02*
X20362594Y-4925083D01*
X20419737Y-5075083D02*
X20419737Y-4925083D01*
X20419737Y-4925083D02*
X20455451Y-4925083D01*
X20455451Y-4925083D02*
X20476880Y-4932226D01*
X20476880Y-4932226D02*
X20491165Y-4946511D01*
X20491165Y-4946511D02*
X20498308Y-4960797D01*
X20498308Y-4960797D02*
X20505451Y-4989369D01*
X20505451Y-4989369D02*
X20505451Y-5010797D01*
X20505451Y-5010797D02*
X20498308Y-5039369D01*
X20498308Y-5039369D02*
X20491165Y-5053654D01*
X20491165Y-5053654D02*
X20476880Y-5067940D01*
X20476880Y-5067940D02*
X20455451Y-5075083D01*
X20455451Y-5075083D02*
X20419737Y-5075083D01*
X19152417Y-5253665D02*
X19152417Y-5346523D01*
X19152417Y-5346523D02*
X19095274Y-5296523D01*
X19095274Y-5296523D02*
X19095274Y-5317951D01*
X19095274Y-5317951D02*
X19088131Y-5332237D01*
X19088131Y-5332237D02*
X19080989Y-5339380D01*
X19080989Y-5339380D02*
X19066703Y-5346523D01*
X19066703Y-5346523D02*
X19030989Y-5346523D01*
X19030989Y-5346523D02*
X19016703Y-5339380D01*
X19016703Y-5339380D02*
X19009560Y-5332237D01*
X19009560Y-5332237D02*
X19002417Y-5317951D01*
X19002417Y-5317951D02*
X19002417Y-5275094D01*
X19002417Y-5275094D02*
X19009560Y-5260808D01*
X19009560Y-5260808D02*
X19016703Y-5253665D01*
X19152417Y-5389380D02*
X19002417Y-5439380D01*
X19002417Y-5439380D02*
X19152417Y-5489380D01*
X19152417Y-5525094D02*
X19152417Y-5617951D01*
X19152417Y-5617951D02*
X19095274Y-5567951D01*
X19095274Y-5567951D02*
X19095274Y-5589380D01*
X19095274Y-5589380D02*
X19088131Y-5603665D01*
X19088131Y-5603665D02*
X19080989Y-5610808D01*
X19080989Y-5610808D02*
X19066703Y-5617951D01*
X19066703Y-5617951D02*
X19030989Y-5617951D01*
X19030989Y-5617951D02*
X19016703Y-5610808D01*
X19016703Y-5610808D02*
X19009560Y-5603665D01*
X19009560Y-5603665D02*
X19002417Y-5589380D01*
X19002417Y-5589380D02*
X19002417Y-5546522D01*
X19002417Y-5546522D02*
X19009560Y-5532237D01*
X19009560Y-5532237D02*
X19016703Y-5525094D01*
X19413417Y-5234023D02*
X19413417Y-5319737D01*
X19263417Y-5276880D02*
X19413417Y-5276880D01*
X19263417Y-5369737D02*
X19413417Y-5369737D01*
X19413417Y-5369737D02*
X19306274Y-5419737D01*
X19306274Y-5419737D02*
X19413417Y-5469737D01*
X19413417Y-5469737D02*
X19263417Y-5469737D01*
X19270560Y-5534023D02*
X19263417Y-5555451D01*
X19263417Y-5555451D02*
X19263417Y-5591165D01*
X19263417Y-5591165D02*
X19270560Y-5605451D01*
X19270560Y-5605451D02*
X19277703Y-5612594D01*
X19277703Y-5612594D02*
X19291989Y-5619737D01*
X19291989Y-5619737D02*
X19306274Y-5619737D01*
X19306274Y-5619737D02*
X19320560Y-5612594D01*
X19320560Y-5612594D02*
X19327703Y-5605451D01*
X19327703Y-5605451D02*
X19334846Y-5591165D01*
X19334846Y-5591165D02*
X19341989Y-5562594D01*
X19341989Y-5562594D02*
X19349131Y-5548308D01*
X19349131Y-5548308D02*
X19356274Y-5541165D01*
X19356274Y-5541165D02*
X19370560Y-5534023D01*
X19370560Y-5534023D02*
X19384846Y-5534023D01*
X19384846Y-5534023D02*
X19399131Y-5541165D01*
X19399131Y-5541165D02*
X19406274Y-5548308D01*
X19406274Y-5548308D02*
X19413417Y-5562594D01*
X19413417Y-5562594D02*
X19413417Y-5598308D01*
X19413417Y-5598308D02*
X19406274Y-5619737D01*
X19658417Y-5229023D02*
X19658417Y-5314737D01*
X19508417Y-5271880D02*
X19658417Y-5271880D01*
X19522703Y-5450451D02*
X19515560Y-5443308D01*
X19515560Y-5443308D02*
X19508417Y-5421880D01*
X19508417Y-5421880D02*
X19508417Y-5407594D01*
X19508417Y-5407594D02*
X19515560Y-5386165D01*
X19515560Y-5386165D02*
X19529846Y-5371880D01*
X19529846Y-5371880D02*
X19544131Y-5364737D01*
X19544131Y-5364737D02*
X19572703Y-5357594D01*
X19572703Y-5357594D02*
X19594131Y-5357594D01*
X19594131Y-5357594D02*
X19622703Y-5364737D01*
X19622703Y-5364737D02*
X19636989Y-5371880D01*
X19636989Y-5371880D02*
X19651274Y-5386165D01*
X19651274Y-5386165D02*
X19658417Y-5407594D01*
X19658417Y-5407594D02*
X19658417Y-5421880D01*
X19658417Y-5421880D02*
X19651274Y-5443308D01*
X19651274Y-5443308D02*
X19644131Y-5450451D01*
X19508417Y-5514737D02*
X19658417Y-5514737D01*
X19508417Y-5600451D02*
X19594131Y-5536165D01*
X19658417Y-5600451D02*
X19572703Y-5514737D01*
X19881274Y-5311523D02*
X19888417Y-5297237D01*
X19888417Y-5297237D02*
X19888417Y-5275808D01*
X19888417Y-5275808D02*
X19881274Y-5254380D01*
X19881274Y-5254380D02*
X19866989Y-5240094D01*
X19866989Y-5240094D02*
X19852703Y-5232951D01*
X19852703Y-5232951D02*
X19824131Y-5225808D01*
X19824131Y-5225808D02*
X19802703Y-5225808D01*
X19802703Y-5225808D02*
X19774131Y-5232951D01*
X19774131Y-5232951D02*
X19759846Y-5240094D01*
X19759846Y-5240094D02*
X19745560Y-5254380D01*
X19745560Y-5254380D02*
X19738417Y-5275808D01*
X19738417Y-5275808D02*
X19738417Y-5290094D01*
X19738417Y-5290094D02*
X19745560Y-5311523D01*
X19745560Y-5311523D02*
X19752703Y-5318665D01*
X19752703Y-5318665D02*
X19802703Y-5318665D01*
X19802703Y-5318665D02*
X19802703Y-5290094D01*
X19738417Y-5382951D02*
X19888417Y-5382951D01*
X19888417Y-5382951D02*
X19738417Y-5468665D01*
X19738417Y-5468665D02*
X19888417Y-5468665D01*
X19738417Y-5540094D02*
X19888417Y-5540094D01*
X19888417Y-5540094D02*
X19888417Y-5575808D01*
X19888417Y-5575808D02*
X19881274Y-5597237D01*
X19881274Y-5597237D02*
X19866989Y-5611522D01*
X19866989Y-5611522D02*
X19852703Y-5618665D01*
X19852703Y-5618665D02*
X19824131Y-5625808D01*
X19824131Y-5625808D02*
X19802703Y-5625808D01*
X19802703Y-5625808D02*
X19774131Y-5618665D01*
X19774131Y-5618665D02*
X19759846Y-5611522D01*
X19759846Y-5611522D02*
X19745560Y-5597237D01*
X19745560Y-5597237D02*
X19738417Y-5575808D01*
X19738417Y-5575808D02*
X19738417Y-5540094D01*
X14274207Y-8532423D02*
X14284309Y-8552626D01*
X14284309Y-8552626D02*
X14284309Y-8562728D01*
X14284309Y-8562728D02*
X14279258Y-8577880D01*
X14279258Y-8577880D02*
X14264105Y-8593032D01*
X14264105Y-8593032D02*
X14248953Y-8598083D01*
X14248953Y-8598083D02*
X14238852Y-8598083D01*
X14238852Y-8598083D02*
X14223699Y-8593032D01*
X14223699Y-8593032D02*
X14183293Y-8552626D01*
X14183293Y-8552626D02*
X14289359Y-8446560D01*
X14289359Y-8446560D02*
X14324715Y-8481916D01*
X14324715Y-8481916D02*
X14329765Y-8497068D01*
X14329765Y-8497068D02*
X14329765Y-8507169D01*
X14329765Y-8507169D02*
X14324715Y-8522322D01*
X14324715Y-8522322D02*
X14314613Y-8532423D01*
X14314613Y-8532423D02*
X14299461Y-8537474D01*
X14299461Y-8537474D02*
X14289359Y-8537474D01*
X14289359Y-8537474D02*
X14274207Y-8532423D01*
X14274207Y-8532423D02*
X14238852Y-8497068D01*
X14415628Y-8572829D02*
X14435831Y-8593032D01*
X14435831Y-8593032D02*
X14440882Y-8608185D01*
X14440882Y-8608185D02*
X14440882Y-8628388D01*
X14440882Y-8628388D02*
X14425730Y-8653642D01*
X14425730Y-8653642D02*
X14390375Y-8688997D01*
X14390375Y-8688997D02*
X14365121Y-8704149D01*
X14365121Y-8704149D02*
X14344918Y-8704149D01*
X14344918Y-8704149D02*
X14329765Y-8699098D01*
X14329765Y-8699098D02*
X14309562Y-8678895D01*
X14309562Y-8678895D02*
X14304512Y-8663743D01*
X14304512Y-8663743D02*
X14304512Y-8643540D01*
X14304512Y-8643540D02*
X14319664Y-8618286D01*
X14319664Y-8618286D02*
X14355019Y-8582931D01*
X14355019Y-8582931D02*
X14380273Y-8567779D01*
X14380273Y-8567779D02*
X14400476Y-8567779D01*
X14400476Y-8567779D02*
X14415628Y-8572829D01*
X14526745Y-8683946D02*
X14546948Y-8704149D01*
X14546948Y-8704149D02*
X14551999Y-8719301D01*
X14551999Y-8719301D02*
X14551999Y-8739505D01*
X14551999Y-8739505D02*
X14536847Y-8764758D01*
X14536847Y-8764758D02*
X14501491Y-8800114D01*
X14501491Y-8800114D02*
X14476238Y-8815266D01*
X14476238Y-8815266D02*
X14456035Y-8815266D01*
X14456035Y-8815266D02*
X14440882Y-8810215D01*
X14440882Y-8810215D02*
X14420679Y-8790012D01*
X14420679Y-8790012D02*
X14415628Y-8774860D01*
X14415628Y-8774860D02*
X14415628Y-8754657D01*
X14415628Y-8754657D02*
X14430781Y-8729403D01*
X14430781Y-8729403D02*
X14466136Y-8694048D01*
X14466136Y-8694048D02*
X14491390Y-8678895D01*
X14491390Y-8678895D02*
X14511593Y-8678895D01*
X14511593Y-8678895D02*
X14526745Y-8683946D01*
X14602507Y-8759708D02*
X14663116Y-8820317D01*
X14526745Y-8896078D02*
X14632811Y-8790012D01*
D11*
X10602482Y-13825615D02*
X10554863Y-13858948D01*
X10602482Y-13882757D02*
X10502482Y-13882757D01*
X10502482Y-13882757D02*
X10502482Y-13844662D01*
X10502482Y-13844662D02*
X10507244Y-13835138D01*
X10507244Y-13835138D02*
X10512006Y-13830377D01*
X10512006Y-13830377D02*
X10521530Y-13825615D01*
X10521530Y-13825615D02*
X10535815Y-13825615D01*
X10535815Y-13825615D02*
X10545339Y-13830377D01*
X10545339Y-13830377D02*
X10550101Y-13835138D01*
X10550101Y-13835138D02*
X10554863Y-13844662D01*
X10554863Y-13844662D02*
X10554863Y-13882757D01*
X10502482Y-13792281D02*
X10502482Y-13730377D01*
X10502482Y-13730377D02*
X10540577Y-13763710D01*
X10540577Y-13763710D02*
X10540577Y-13749424D01*
X10540577Y-13749424D02*
X10545339Y-13739900D01*
X10545339Y-13739900D02*
X10550101Y-13735138D01*
X10550101Y-13735138D02*
X10559625Y-13730377D01*
X10559625Y-13730377D02*
X10583434Y-13730377D01*
X10583434Y-13730377D02*
X10592958Y-13735138D01*
X10592958Y-13735138D02*
X10597720Y-13739900D01*
X10597720Y-13739900D02*
X10602482Y-13749424D01*
X10602482Y-13749424D02*
X10602482Y-13777996D01*
X10602482Y-13777996D02*
X10597720Y-13787519D01*
X10597720Y-13787519D02*
X10592958Y-13792281D01*
X10512006Y-13692281D02*
X10507244Y-13687519D01*
X10507244Y-13687519D02*
X10502482Y-13677996D01*
X10502482Y-13677996D02*
X10502482Y-13654186D01*
X10502482Y-13654186D02*
X10507244Y-13644662D01*
X10507244Y-13644662D02*
X10512006Y-13639900D01*
X10512006Y-13639900D02*
X10521530Y-13635138D01*
X10521530Y-13635138D02*
X10531053Y-13635138D01*
X10531053Y-13635138D02*
X10545339Y-13639900D01*
X10545339Y-13639900D02*
X10602482Y-13697043D01*
X10602482Y-13697043D02*
X10602482Y-13635138D01*
X16676667Y-4758811D02*
X16676667Y-4830239D01*
X16676667Y-4830239D02*
X16671905Y-4844525D01*
X16671905Y-4844525D02*
X16662381Y-4854049D01*
X16662381Y-4854049D02*
X16648095Y-4858811D01*
X16648095Y-4858811D02*
X16638571Y-4858811D01*
X16714762Y-4758811D02*
X16776667Y-4758811D01*
X16776667Y-4758811D02*
X16743333Y-4796906D01*
X16743333Y-4796906D02*
X16757619Y-4796906D01*
X16757619Y-4796906D02*
X16767143Y-4801668D01*
X16767143Y-4801668D02*
X16771905Y-4806430D01*
X16771905Y-4806430D02*
X16776667Y-4815954D01*
X16776667Y-4815954D02*
X16776667Y-4839763D01*
X16776667Y-4839763D02*
X16771905Y-4849287D01*
X16771905Y-4849287D02*
X16767143Y-4854049D01*
X16767143Y-4854049D02*
X16757619Y-4858811D01*
X16757619Y-4858811D02*
X16729048Y-4858811D01*
X16729048Y-4858811D02*
X16719524Y-4854049D01*
X16719524Y-4854049D02*
X16714762Y-4849287D01*
X16080794Y-14040000D02*
X16157399Y-13975721D01*
X16111403Y-14076478D02*
X16188008Y-14012199D01*
X16188008Y-14012199D02*
X16148134Y-14120252D01*
X16148134Y-14120252D02*
X16224738Y-14055973D01*
X16249225Y-14085156D02*
X16289017Y-14132577D01*
X16289017Y-14132577D02*
X16238408Y-14131530D01*
X16238408Y-14131530D02*
X16247591Y-14142473D01*
X16247591Y-14142473D02*
X16250065Y-14152830D01*
X16250065Y-14152830D02*
X16249478Y-14159539D01*
X16249478Y-14159539D02*
X16245243Y-14169308D01*
X16245243Y-14169308D02*
X16227004Y-14184613D01*
X16227004Y-14184613D02*
X16216647Y-14187087D01*
X16216647Y-14187087D02*
X16209939Y-14186500D01*
X16209939Y-14186500D02*
X16200169Y-14182265D01*
X16200169Y-14182265D02*
X16181804Y-14160378D01*
X16181804Y-14160378D02*
X16179330Y-14150021D01*
X16179330Y-14150021D02*
X16179917Y-14143313D01*
X24633333Y-11613811D02*
X24600000Y-11566192D01*
X24576190Y-11613811D02*
X24576190Y-11513811D01*
X24576190Y-11513811D02*
X24614286Y-11513811D01*
X24614286Y-11513811D02*
X24623809Y-11518573D01*
X24623809Y-11518573D02*
X24628571Y-11523335D01*
X24628571Y-11523335D02*
X24633333Y-11532858D01*
X24633333Y-11532858D02*
X24633333Y-11547144D01*
X24633333Y-11547144D02*
X24628571Y-11556668D01*
X24628571Y-11556668D02*
X24623809Y-11561430D01*
X24623809Y-11561430D02*
X24614286Y-11566192D01*
X24614286Y-11566192D02*
X24576190Y-11566192D01*
X24671429Y-11523335D02*
X24676190Y-11518573D01*
X24676190Y-11518573D02*
X24685714Y-11513811D01*
X24685714Y-11513811D02*
X24709524Y-11513811D01*
X24709524Y-11513811D02*
X24719048Y-11518573D01*
X24719048Y-11518573D02*
X24723809Y-11523335D01*
X24723809Y-11523335D02*
X24728571Y-11532858D01*
X24728571Y-11532858D02*
X24728571Y-11542382D01*
X24728571Y-11542382D02*
X24723809Y-11556668D01*
X24723809Y-11556668D02*
X24666667Y-11613811D01*
X24666667Y-11613811D02*
X24728571Y-11613811D01*
X24083333Y-11962287D02*
X24078571Y-11967049D01*
X24078571Y-11967049D02*
X24064286Y-11971811D01*
X24064286Y-11971811D02*
X24054762Y-11971811D01*
X24054762Y-11971811D02*
X24040476Y-11967049D01*
X24040476Y-11967049D02*
X24030952Y-11957525D01*
X24030952Y-11957525D02*
X24026190Y-11948001D01*
X24026190Y-11948001D02*
X24021429Y-11928954D01*
X24021429Y-11928954D02*
X24021429Y-11914668D01*
X24021429Y-11914668D02*
X24026190Y-11895620D01*
X24026190Y-11895620D02*
X24030952Y-11886097D01*
X24030952Y-11886097D02*
X24040476Y-11876573D01*
X24040476Y-11876573D02*
X24054762Y-11871811D01*
X24054762Y-11871811D02*
X24064286Y-11871811D01*
X24064286Y-11871811D02*
X24078571Y-11876573D01*
X24078571Y-11876573D02*
X24083333Y-11881335D01*
X24121429Y-11881335D02*
X24126190Y-11876573D01*
X24126190Y-11876573D02*
X24135714Y-11871811D01*
X24135714Y-11871811D02*
X24159524Y-11871811D01*
X24159524Y-11871811D02*
X24169048Y-11876573D01*
X24169048Y-11876573D02*
X24173809Y-11881335D01*
X24173809Y-11881335D02*
X24178571Y-11890858D01*
X24178571Y-11890858D02*
X24178571Y-11900382D01*
X24178571Y-11900382D02*
X24173809Y-11914668D01*
X24173809Y-11914668D02*
X24116667Y-11971811D01*
X24116667Y-11971811D02*
X24178571Y-11971811D01*
X24083333Y-10962287D02*
X24078571Y-10967049D01*
X24078571Y-10967049D02*
X24064286Y-10971811D01*
X24064286Y-10971811D02*
X24054762Y-10971811D01*
X24054762Y-10971811D02*
X24040476Y-10967049D01*
X24040476Y-10967049D02*
X24030952Y-10957525D01*
X24030952Y-10957525D02*
X24026190Y-10948001D01*
X24026190Y-10948001D02*
X24021429Y-10928954D01*
X24021429Y-10928954D02*
X24021429Y-10914668D01*
X24021429Y-10914668D02*
X24026190Y-10895620D01*
X24026190Y-10895620D02*
X24030952Y-10886097D01*
X24030952Y-10886097D02*
X24040476Y-10876573D01*
X24040476Y-10876573D02*
X24054762Y-10871811D01*
X24054762Y-10871811D02*
X24064286Y-10871811D01*
X24064286Y-10871811D02*
X24078571Y-10876573D01*
X24078571Y-10876573D02*
X24083333Y-10881335D01*
X24178571Y-10971811D02*
X24121429Y-10971811D01*
X24150000Y-10971811D02*
X24150000Y-10871811D01*
X24150000Y-10871811D02*
X24140476Y-10886097D01*
X24140476Y-10886097D02*
X24130952Y-10895620D01*
X24130952Y-10895620D02*
X24121429Y-10900382D01*
X24083333Y-12912287D02*
X24078571Y-12917049D01*
X24078571Y-12917049D02*
X24064286Y-12921811D01*
X24064286Y-12921811D02*
X24054762Y-12921811D01*
X24054762Y-12921811D02*
X24040476Y-12917049D01*
X24040476Y-12917049D02*
X24030952Y-12907525D01*
X24030952Y-12907525D02*
X24026190Y-12898001D01*
X24026190Y-12898001D02*
X24021429Y-12878954D01*
X24021429Y-12878954D02*
X24021429Y-12864668D01*
X24021429Y-12864668D02*
X24026190Y-12845620D01*
X24026190Y-12845620D02*
X24030952Y-12836097D01*
X24030952Y-12836097D02*
X24040476Y-12826573D01*
X24040476Y-12826573D02*
X24054762Y-12821811D01*
X24054762Y-12821811D02*
X24064286Y-12821811D01*
X24064286Y-12821811D02*
X24078571Y-12826573D01*
X24078571Y-12826573D02*
X24083333Y-12831335D01*
X24116667Y-12821811D02*
X24178571Y-12821811D01*
X24178571Y-12821811D02*
X24145238Y-12859906D01*
X24145238Y-12859906D02*
X24159524Y-12859906D01*
X24159524Y-12859906D02*
X24169048Y-12864668D01*
X24169048Y-12864668D02*
X24173809Y-12869430D01*
X24173809Y-12869430D02*
X24178571Y-12878954D01*
X24178571Y-12878954D02*
X24178571Y-12902763D01*
X24178571Y-12902763D02*
X24173809Y-12912287D01*
X24173809Y-12912287D02*
X24169048Y-12917049D01*
X24169048Y-12917049D02*
X24159524Y-12921811D01*
X24159524Y-12921811D02*
X24130952Y-12921811D01*
X24130952Y-12921811D02*
X24121429Y-12917049D01*
X24121429Y-12917049D02*
X24116667Y-12912287D01*
X7630794Y-14039999D02*
X7707399Y-13975721D01*
X7661403Y-14076478D02*
X7738008Y-14012199D01*
X7738008Y-14012199D02*
X7698134Y-14120252D01*
X7698134Y-14120252D02*
X7774738Y-14055973D01*
X7762413Y-14196856D02*
X7725682Y-14153082D01*
X7744047Y-14174969D02*
X7820652Y-14110690D01*
X7820652Y-14110690D02*
X7803587Y-14112577D01*
X7803587Y-14112577D02*
X7790169Y-14111404D01*
X7790169Y-14111404D02*
X7780400Y-14107169D01*
X24016667Y-11607049D02*
X24030952Y-11611811D01*
X24030952Y-11611811D02*
X24054762Y-11611811D01*
X24054762Y-11611811D02*
X24064286Y-11607049D01*
X24064286Y-11607049D02*
X24069048Y-11602287D01*
X24069048Y-11602287D02*
X24073809Y-11592763D01*
X24073809Y-11592763D02*
X24073809Y-11583239D01*
X24073809Y-11583239D02*
X24069048Y-11573716D01*
X24069048Y-11573716D02*
X24064286Y-11568954D01*
X24064286Y-11568954D02*
X24054762Y-11564192D01*
X24054762Y-11564192D02*
X24035714Y-11559430D01*
X24035714Y-11559430D02*
X24026190Y-11554668D01*
X24026190Y-11554668D02*
X24021429Y-11549906D01*
X24021429Y-11549906D02*
X24016667Y-11540382D01*
X24016667Y-11540382D02*
X24016667Y-11530858D01*
X24016667Y-11530858D02*
X24021429Y-11521335D01*
X24021429Y-11521335D02*
X24026190Y-11516573D01*
X24026190Y-11516573D02*
X24035714Y-11511811D01*
X24035714Y-11511811D02*
X24059524Y-11511811D01*
X24059524Y-11511811D02*
X24073809Y-11516573D01*
X24107143Y-11511811D02*
X24130952Y-11611811D01*
X24130952Y-11611811D02*
X24150000Y-11540382D01*
X24150000Y-11540382D02*
X24169048Y-11611811D01*
X24169048Y-11611811D02*
X24192857Y-11511811D01*
X24226190Y-11521335D02*
X24230952Y-11516573D01*
X24230952Y-11516573D02*
X24240476Y-11511811D01*
X24240476Y-11511811D02*
X24264286Y-11511811D01*
X24264286Y-11511811D02*
X24273809Y-11516573D01*
X24273809Y-11516573D02*
X24278571Y-11521335D01*
X24278571Y-11521335D02*
X24283333Y-11530858D01*
X24283333Y-11530858D02*
X24283333Y-11540382D01*
X24283333Y-11540382D02*
X24278571Y-11554668D01*
X24278571Y-11554668D02*
X24221429Y-11611811D01*
X24221429Y-11611811D02*
X24283333Y-11611811D01*
X19288482Y-13825615D02*
X19240863Y-13858948D01*
X19288482Y-13882757D02*
X19188482Y-13882757D01*
X19188482Y-13882757D02*
X19188482Y-13844662D01*
X19188482Y-13844662D02*
X19193244Y-13835138D01*
X19193244Y-13835138D02*
X19198006Y-13830377D01*
X19198006Y-13830377D02*
X19207530Y-13825615D01*
X19207530Y-13825615D02*
X19221815Y-13825615D01*
X19221815Y-13825615D02*
X19231339Y-13830377D01*
X19231339Y-13830377D02*
X19236101Y-13835138D01*
X19236101Y-13835138D02*
X19240863Y-13844662D01*
X19240863Y-13844662D02*
X19240863Y-13882757D01*
X19221815Y-13739900D02*
X19288482Y-13739900D01*
X19183720Y-13763710D02*
X19255149Y-13787519D01*
X19255149Y-13787519D02*
X19255149Y-13725615D01*
X19198006Y-13692281D02*
X19193244Y-13687519D01*
X19193244Y-13687519D02*
X19188482Y-13677996D01*
X19188482Y-13677996D02*
X19188482Y-13654186D01*
X19188482Y-13654186D02*
X19193244Y-13644662D01*
X19193244Y-13644662D02*
X19198006Y-13639900D01*
X19198006Y-13639900D02*
X19207530Y-13635138D01*
X19207530Y-13635138D02*
X19217053Y-13635138D01*
X19217053Y-13635138D02*
X19231339Y-13639900D01*
X19231339Y-13639900D02*
X19288482Y-13697043D01*
X19288482Y-13697043D02*
X19288482Y-13635138D01*
X24633333Y-11099811D02*
X24600000Y-11052192D01*
X24576190Y-11099811D02*
X24576190Y-10999811D01*
X24576190Y-10999811D02*
X24614286Y-10999811D01*
X24614286Y-10999811D02*
X24623809Y-11004573D01*
X24623809Y-11004573D02*
X24628571Y-11009335D01*
X24628571Y-11009335D02*
X24633333Y-11018859D01*
X24633333Y-11018859D02*
X24633333Y-11033144D01*
X24633333Y-11033144D02*
X24628571Y-11042668D01*
X24628571Y-11042668D02*
X24623809Y-11047430D01*
X24623809Y-11047430D02*
X24614286Y-11052192D01*
X24614286Y-11052192D02*
X24576190Y-11052192D01*
X24719048Y-11033144D02*
X24719048Y-11099811D01*
X24695238Y-10995049D02*
X24671429Y-11066478D01*
X24671429Y-11066478D02*
X24733333Y-11066478D01*
X24011667Y-12527049D02*
X24025952Y-12531811D01*
X24025952Y-12531811D02*
X24049762Y-12531811D01*
X24049762Y-12531811D02*
X24059286Y-12527049D01*
X24059286Y-12527049D02*
X24064048Y-12522287D01*
X24064048Y-12522287D02*
X24068809Y-12512763D01*
X24068809Y-12512763D02*
X24068809Y-12503239D01*
X24068809Y-12503239D02*
X24064048Y-12493716D01*
X24064048Y-12493716D02*
X24059286Y-12488954D01*
X24059286Y-12488954D02*
X24049762Y-12484192D01*
X24049762Y-12484192D02*
X24030714Y-12479430D01*
X24030714Y-12479430D02*
X24021190Y-12474668D01*
X24021190Y-12474668D02*
X24016429Y-12469906D01*
X24016429Y-12469906D02*
X24011667Y-12460382D01*
X24011667Y-12460382D02*
X24011667Y-12450858D01*
X24011667Y-12450858D02*
X24016429Y-12441335D01*
X24016429Y-12441335D02*
X24021190Y-12436573D01*
X24021190Y-12436573D02*
X24030714Y-12431811D01*
X24030714Y-12431811D02*
X24054524Y-12431811D01*
X24054524Y-12431811D02*
X24068809Y-12436573D01*
X24102143Y-12431811D02*
X24125952Y-12531811D01*
X24125952Y-12531811D02*
X24145000Y-12460382D01*
X24145000Y-12460382D02*
X24164048Y-12531811D01*
X24164048Y-12531811D02*
X24187857Y-12431811D01*
X24216429Y-12431811D02*
X24278333Y-12431811D01*
X24278333Y-12431811D02*
X24245000Y-12469906D01*
X24245000Y-12469906D02*
X24259286Y-12469906D01*
X24259286Y-12469906D02*
X24268809Y-12474668D01*
X24268809Y-12474668D02*
X24273571Y-12479430D01*
X24273571Y-12479430D02*
X24278333Y-12488954D01*
X24278333Y-12488954D02*
X24278333Y-12512763D01*
X24278333Y-12512763D02*
X24273571Y-12522287D01*
X24273571Y-12522287D02*
X24268809Y-12527049D01*
X24268809Y-12527049D02*
X24259286Y-12531811D01*
X24259286Y-12531811D02*
X24230714Y-12531811D01*
X24230714Y-12531811D02*
X24221190Y-12527049D01*
X24221190Y-12527049D02*
X24216429Y-12522287D01*
X20330794Y-13940000D02*
X20407399Y-13875721D01*
X20361403Y-13976478D02*
X20438008Y-13912199D01*
X20438008Y-13912199D02*
X20398134Y-14020252D01*
X20398134Y-14020252D02*
X20474738Y-13955973D01*
X20507361Y-14046708D02*
X20456291Y-14089561D01*
X20521239Y-14003982D02*
X20451217Y-14031656D01*
X20451217Y-14031656D02*
X20491008Y-14079078D01*
X24633333Y-10613811D02*
X24600000Y-10566192D01*
X24576190Y-10613811D02*
X24576190Y-10513811D01*
X24576190Y-10513811D02*
X24614286Y-10513811D01*
X24614286Y-10513811D02*
X24623809Y-10518573D01*
X24623809Y-10518573D02*
X24628571Y-10523335D01*
X24628571Y-10523335D02*
X24633333Y-10532859D01*
X24633333Y-10532859D02*
X24633333Y-10547144D01*
X24633333Y-10547144D02*
X24628571Y-10556668D01*
X24628571Y-10556668D02*
X24623809Y-10561430D01*
X24623809Y-10561430D02*
X24614286Y-10566192D01*
X24614286Y-10566192D02*
X24576190Y-10566192D01*
X24728571Y-10613811D02*
X24671429Y-10613811D01*
X24700000Y-10613811D02*
X24700000Y-10513811D01*
X24700000Y-10513811D02*
X24690476Y-10528097D01*
X24690476Y-10528097D02*
X24680952Y-10537620D01*
X24680952Y-10537620D02*
X24671429Y-10542382D01*
X24633333Y-12099811D02*
X24600000Y-12052192D01*
X24576190Y-12099811D02*
X24576190Y-11999811D01*
X24576190Y-11999811D02*
X24614286Y-11999811D01*
X24614286Y-11999811D02*
X24623809Y-12004573D01*
X24623809Y-12004573D02*
X24628571Y-12009335D01*
X24628571Y-12009335D02*
X24633333Y-12018858D01*
X24633333Y-12018858D02*
X24633333Y-12033144D01*
X24633333Y-12033144D02*
X24628571Y-12042668D01*
X24628571Y-12042668D02*
X24623809Y-12047430D01*
X24623809Y-12047430D02*
X24614286Y-12052192D01*
X24614286Y-12052192D02*
X24576190Y-12052192D01*
X24723809Y-11999811D02*
X24676190Y-11999811D01*
X24676190Y-11999811D02*
X24671429Y-12047430D01*
X24671429Y-12047430D02*
X24676190Y-12042668D01*
X24676190Y-12042668D02*
X24685714Y-12037906D01*
X24685714Y-12037906D02*
X24709524Y-12037906D01*
X24709524Y-12037906D02*
X24719048Y-12042668D01*
X24719048Y-12042668D02*
X24723809Y-12047430D01*
X24723809Y-12047430D02*
X24728571Y-12056954D01*
X24728571Y-12056954D02*
X24728571Y-12080763D01*
X24728571Y-12080763D02*
X24723809Y-12090287D01*
X24723809Y-12090287D02*
X24719048Y-12095049D01*
X24719048Y-12095049D02*
X24709524Y-12099811D01*
X24709524Y-12099811D02*
X24685714Y-12099811D01*
X24685714Y-12099811D02*
X24676190Y-12095049D01*
X24676190Y-12095049D02*
X24671429Y-12090287D01*
X24583333Y-12563811D02*
X24550000Y-12516192D01*
X24526190Y-12563811D02*
X24526190Y-12463811D01*
X24526190Y-12463811D02*
X24564286Y-12463811D01*
X24564286Y-12463811D02*
X24573809Y-12468573D01*
X24573809Y-12468573D02*
X24578571Y-12473335D01*
X24578571Y-12473335D02*
X24583333Y-12482858D01*
X24583333Y-12482858D02*
X24583333Y-12497144D01*
X24583333Y-12497144D02*
X24578571Y-12506668D01*
X24578571Y-12506668D02*
X24573809Y-12511430D01*
X24573809Y-12511430D02*
X24564286Y-12516192D01*
X24564286Y-12516192D02*
X24526190Y-12516192D01*
X24616667Y-12463811D02*
X24678571Y-12463811D01*
X24678571Y-12463811D02*
X24645238Y-12501906D01*
X24645238Y-12501906D02*
X24659524Y-12501906D01*
X24659524Y-12501906D02*
X24669048Y-12506668D01*
X24669048Y-12506668D02*
X24673809Y-12511430D01*
X24673809Y-12511430D02*
X24678571Y-12520954D01*
X24678571Y-12520954D02*
X24678571Y-12544763D01*
X24678571Y-12544763D02*
X24673809Y-12554287D01*
X24673809Y-12554287D02*
X24669048Y-12559049D01*
X24669048Y-12559049D02*
X24659524Y-12563811D01*
X24659524Y-12563811D02*
X24630952Y-12563811D01*
X24630952Y-12563811D02*
X24621429Y-12559049D01*
X24621429Y-12559049D02*
X24616667Y-12554287D01*
X6738482Y-13825615D02*
X6690863Y-13858948D01*
X6738482Y-13882757D02*
X6638482Y-13882757D01*
X6638482Y-13882757D02*
X6638482Y-13844662D01*
X6638482Y-13844662D02*
X6643244Y-13835138D01*
X6643244Y-13835138D02*
X6648006Y-13830377D01*
X6648006Y-13830377D02*
X6657529Y-13825615D01*
X6657529Y-13825615D02*
X6671815Y-13825615D01*
X6671815Y-13825615D02*
X6681339Y-13830377D01*
X6681339Y-13830377D02*
X6686101Y-13835138D01*
X6686101Y-13835138D02*
X6690863Y-13844662D01*
X6690863Y-13844662D02*
X6690863Y-13882757D01*
X6638482Y-13792281D02*
X6638482Y-13730377D01*
X6638482Y-13730377D02*
X6676577Y-13763710D01*
X6676577Y-13763710D02*
X6676577Y-13749424D01*
X6676577Y-13749424D02*
X6681339Y-13739900D01*
X6681339Y-13739900D02*
X6686101Y-13735138D01*
X6686101Y-13735138D02*
X6695625Y-13730377D01*
X6695625Y-13730377D02*
X6719434Y-13730377D01*
X6719434Y-13730377D02*
X6728958Y-13735138D01*
X6728958Y-13735138D02*
X6733720Y-13739900D01*
X6733720Y-13739900D02*
X6738482Y-13749424D01*
X6738482Y-13749424D02*
X6738482Y-13777996D01*
X6738482Y-13777996D02*
X6733720Y-13787519D01*
X6733720Y-13787519D02*
X6728958Y-13792281D01*
X6738482Y-13635138D02*
X6738482Y-13692281D01*
X6738482Y-13663710D02*
X6638482Y-13663710D01*
X6638482Y-13663710D02*
X6652768Y-13673234D01*
X6652768Y-13673234D02*
X6662291Y-13682757D01*
X6662291Y-13682757D02*
X6667053Y-13692281D01*
X15038482Y-13825615D02*
X14990863Y-13858948D01*
X15038482Y-13882757D02*
X14938482Y-13882757D01*
X14938482Y-13882757D02*
X14938482Y-13844662D01*
X14938482Y-13844662D02*
X14943244Y-13835138D01*
X14943244Y-13835138D02*
X14948006Y-13830377D01*
X14948006Y-13830377D02*
X14957529Y-13825615D01*
X14957529Y-13825615D02*
X14971815Y-13825615D01*
X14971815Y-13825615D02*
X14981339Y-13830377D01*
X14981339Y-13830377D02*
X14986101Y-13835138D01*
X14986101Y-13835138D02*
X14990863Y-13844662D01*
X14990863Y-13844662D02*
X14990863Y-13882757D01*
X14971815Y-13739900D02*
X15038482Y-13739900D01*
X14933720Y-13763710D02*
X15005148Y-13787519D01*
X15005148Y-13787519D02*
X15005148Y-13725615D01*
X15038482Y-13635138D02*
X15038482Y-13692281D01*
X15038482Y-13663710D02*
X14938482Y-13663710D01*
X14938482Y-13663710D02*
X14952768Y-13673234D01*
X14952768Y-13673234D02*
X14962291Y-13682757D01*
X14962291Y-13682757D02*
X14967053Y-13692281D01*
X14319432Y-8187902D02*
X14369940Y-8238409D01*
X14369940Y-8238409D02*
X14376674Y-8251878D01*
X14376674Y-8251878D02*
X14376674Y-8265347D01*
X14376674Y-8265347D02*
X14369940Y-8278815D01*
X14369940Y-8278815D02*
X14363205Y-8285550D01*
X14356471Y-8164331D02*
X14356471Y-8157597D01*
X14356471Y-8157597D02*
X14359838Y-8147495D01*
X14359838Y-8147495D02*
X14376674Y-8130660D01*
X14376674Y-8130660D02*
X14386776Y-8127292D01*
X14386776Y-8127292D02*
X14393510Y-8127292D01*
X14393510Y-8127292D02*
X14403611Y-8130660D01*
X14403611Y-8130660D02*
X14410346Y-8137394D01*
X14410346Y-8137394D02*
X14417080Y-8150863D01*
X14417080Y-8150863D02*
X14417080Y-8231675D01*
X14417080Y-8231675D02*
X14460853Y-8187902D01*
X18776482Y-5044662D02*
X18847910Y-5044662D01*
X18847910Y-5044662D02*
X18862196Y-5049424D01*
X18862196Y-5049424D02*
X18871720Y-5058948D01*
X18871720Y-5058948D02*
X18876482Y-5073234D01*
X18876482Y-5073234D02*
X18876482Y-5082758D01*
X18809815Y-4954186D02*
X18876482Y-4954186D01*
X18771720Y-4977996D02*
X18843149Y-5001805D01*
X18843149Y-5001805D02*
X18843149Y-4939900D01*
X24583333Y-12999811D02*
X24550000Y-12952192D01*
X24526190Y-12999811D02*
X24526190Y-12899811D01*
X24526190Y-12899811D02*
X24564286Y-12899811D01*
X24564286Y-12899811D02*
X24573809Y-12904573D01*
X24573809Y-12904573D02*
X24578571Y-12909335D01*
X24578571Y-12909335D02*
X24583333Y-12918858D01*
X24583333Y-12918858D02*
X24583333Y-12933144D01*
X24583333Y-12933144D02*
X24578571Y-12942668D01*
X24578571Y-12942668D02*
X24573809Y-12947430D01*
X24573809Y-12947430D02*
X24564286Y-12952192D01*
X24564286Y-12952192D02*
X24526190Y-12952192D01*
X24669048Y-12899811D02*
X24650000Y-12899811D01*
X24650000Y-12899811D02*
X24640476Y-12904573D01*
X24640476Y-12904573D02*
X24635714Y-12909335D01*
X24635714Y-12909335D02*
X24626190Y-12923620D01*
X24626190Y-12923620D02*
X24621429Y-12942668D01*
X24621429Y-12942668D02*
X24621429Y-12980763D01*
X24621429Y-12980763D02*
X24626190Y-12990287D01*
X24626190Y-12990287D02*
X24630952Y-12995049D01*
X24630952Y-12995049D02*
X24640476Y-12999811D01*
X24640476Y-12999811D02*
X24659524Y-12999811D01*
X24659524Y-12999811D02*
X24669048Y-12995049D01*
X24669048Y-12995049D02*
X24673809Y-12990287D01*
X24673809Y-12990287D02*
X24678571Y-12980763D01*
X24678571Y-12980763D02*
X24678571Y-12956954D01*
X24678571Y-12956954D02*
X24673809Y-12947430D01*
X24673809Y-12947430D02*
X24669048Y-12942668D01*
X24669048Y-12942668D02*
X24659524Y-12937906D01*
X24659524Y-12937906D02*
X24640476Y-12937906D01*
X24640476Y-12937906D02*
X24630952Y-12942668D01*
X24630952Y-12942668D02*
X24626190Y-12947430D01*
X24626190Y-12947430D02*
X24621429Y-12956954D01*
X11880794Y-14039999D02*
X11957399Y-13975721D01*
X11911403Y-14076478D02*
X11988008Y-14012199D01*
X11988008Y-14012199D02*
X11948134Y-14120252D01*
X11948134Y-14120252D02*
X12024738Y-14055973D01*
X12044991Y-14094925D02*
X12051700Y-14095512D01*
X12051700Y-14095512D02*
X12061469Y-14099747D01*
X12061469Y-14099747D02*
X12076774Y-14117986D01*
X12076774Y-14117986D02*
X12079248Y-14128343D01*
X12079248Y-14128343D02*
X12078661Y-14135051D01*
X12078661Y-14135051D02*
X12074426Y-14144821D01*
X12074426Y-14144821D02*
X12067130Y-14150943D01*
X12067130Y-14150943D02*
X12053126Y-14156478D01*
X12053126Y-14156478D02*
X11972621Y-14149434D01*
X11972621Y-14149434D02*
X12012413Y-14196856D01*
X24016667Y-10607049D02*
X24030952Y-10611811D01*
X24030952Y-10611811D02*
X24054762Y-10611811D01*
X24054762Y-10611811D02*
X24064286Y-10607049D01*
X24064286Y-10607049D02*
X24069048Y-10602287D01*
X24069048Y-10602287D02*
X24073809Y-10592763D01*
X24073809Y-10592763D02*
X24073809Y-10583239D01*
X24073809Y-10583239D02*
X24069048Y-10573716D01*
X24069048Y-10573716D02*
X24064286Y-10568954D01*
X24064286Y-10568954D02*
X24054762Y-10564192D01*
X24054762Y-10564192D02*
X24035714Y-10559430D01*
X24035714Y-10559430D02*
X24026190Y-10554668D01*
X24026190Y-10554668D02*
X24021429Y-10549906D01*
X24021429Y-10549906D02*
X24016667Y-10540382D01*
X24016667Y-10540382D02*
X24016667Y-10530859D01*
X24016667Y-10530859D02*
X24021429Y-10521335D01*
X24021429Y-10521335D02*
X24026190Y-10516573D01*
X24026190Y-10516573D02*
X24035714Y-10511811D01*
X24035714Y-10511811D02*
X24059524Y-10511811D01*
X24059524Y-10511811D02*
X24073809Y-10516573D01*
X24107143Y-10511811D02*
X24130952Y-10611811D01*
X24130952Y-10611811D02*
X24150000Y-10540382D01*
X24150000Y-10540382D02*
X24169048Y-10611811D01*
X24169048Y-10611811D02*
X24192857Y-10511811D01*
X24283333Y-10611811D02*
X24226190Y-10611811D01*
X24254762Y-10611811D02*
X24254762Y-10511811D01*
X24254762Y-10511811D02*
X24245238Y-10526097D01*
X24245238Y-10526097D02*
X24235714Y-10535620D01*
X24235714Y-10535620D02*
X24226190Y-10540382D01*
%TO.C,R32*%
D12*
X10647750Y-13786801D02*
X10647750Y-13735857D01*
X10752250Y-13786801D02*
X10752250Y-13735857D01*
%TO.C,J3*%
X16572000Y-4913329D02*
X16710000Y-4913329D01*
X16572000Y-5178329D02*
X16572000Y-5443329D01*
X16572000Y-5178329D02*
X16848000Y-5178329D01*
X16572000Y-5443329D02*
X16848000Y-5443329D01*
X16572000Y-5051329D02*
X16572000Y-4913329D01*
X16848000Y-5178329D02*
X16848000Y-5443329D01*
%TO.C,IN3*%
X14905319Y-13190220D02*
X14970626Y-13268050D01*
X14963692Y-13141239D02*
X14905319Y-13190220D01*
X14970626Y-13268050D02*
X15028999Y-13219069D01*
X14963692Y-13141239D02*
G75*
G02*
X15028999Y-13219069I1336308J1054981D01*
G01*
D13*
X16546565Y-13811369D02*
G75*
G02*
X15994087Y-13801839I-246565J1725117D01*
G01*
%TO.C,R2*%
D12*
X24635373Y-11660329D02*
X24664627Y-11660329D01*
X24635373Y-11762329D02*
X24664627Y-11762329D01*
%TO.C,C2*%
X24028875Y-12020329D02*
X24171125Y-12020329D01*
X24028875Y-12202329D02*
X24171125Y-12202329D01*
%TO.C,C1*%
X24028875Y-11020329D02*
X24171125Y-11020329D01*
X24028875Y-11202329D02*
X24171125Y-11202329D01*
%TO.C,C3*%
X24028875Y-12970329D02*
X24171125Y-12970329D01*
X24028875Y-13152329D02*
X24171125Y-13152329D01*
%TO.C,IN1*%
X6455319Y-13190220D02*
X6520627Y-13268050D01*
X6513692Y-13141239D02*
X6455319Y-13190220D01*
X6520627Y-13268050D02*
X6578999Y-13219069D01*
X6513692Y-13141239D02*
G75*
G02*
X6578999Y-13219069I1336308J1054981D01*
G01*
D13*
X8096565Y-13811369D02*
G75*
G02*
X7544087Y-13801839I-246565J1725117D01*
G01*
%TO.C,SW2*%
D12*
X23930000Y-11816329D02*
X23930000Y-11806329D01*
X23930000Y-11966329D02*
X24370000Y-11966329D01*
X24370000Y-11656329D02*
X23930000Y-11656329D01*
X24370000Y-11816329D02*
X24370000Y-11806329D01*
%TO.C,R42*%
X19047750Y-13735857D02*
X19047750Y-13786801D01*
X19152250Y-13735857D02*
X19152250Y-13786801D01*
%TO.C,R4*%
X24675472Y-10859079D02*
X24624528Y-10859079D01*
X24675472Y-10963579D02*
X24624528Y-10963579D01*
%TO.C,SW3*%
X23925000Y-12736329D02*
X23925000Y-12726329D01*
X23925000Y-12886329D02*
X24365000Y-12886329D01*
X24365000Y-12576329D02*
X23925000Y-12576329D01*
X24365000Y-12736329D02*
X24365000Y-12726329D01*
%TO.C,IN4*%
X19155319Y-13090220D02*
X19220627Y-13168050D01*
X19213692Y-13041239D02*
X19155319Y-13090220D01*
X19220627Y-13168050D02*
X19278999Y-13119069D01*
X19213692Y-13041239D02*
G75*
G02*
X19278999Y-13119069I1336308J1054981D01*
G01*
D13*
X20796565Y-13711369D02*
G75*
G02*
X20244087Y-13701839I-246565J1725110D01*
G01*
%TO.C,R1*%
D12*
X24624528Y-10659079D02*
X24675472Y-10659079D01*
X24624528Y-10763579D02*
X24675472Y-10763579D01*
%TO.C,R5*%
X24675472Y-11859079D02*
X24624528Y-11859079D01*
X24675472Y-11963579D02*
X24624528Y-11963579D01*
%TO.C,R3*%
X24574528Y-12609079D02*
X24625472Y-12609079D01*
X24574528Y-12713579D02*
X24625472Y-12713579D01*
%TO.C,R31*%
X6497750Y-13735857D02*
X6497750Y-13786801D01*
X6602250Y-13735857D02*
X6602250Y-13786801D01*
%TO.C,R41*%
X14797750Y-13735857D02*
X14797750Y-13786801D01*
X14902250Y-13735857D02*
X14902250Y-13786801D01*
%TO.C,J2*%
X14354682Y-8371173D02*
X14452263Y-8273592D01*
X14452263Y-8468754D02*
X14354682Y-8371173D01*
X14542066Y-8558556D02*
X14729449Y-8745940D01*
X14542066Y-8558556D02*
X14737227Y-8363395D01*
X14729449Y-8745940D02*
X14924610Y-8550778D01*
X14737227Y-8363395D02*
X14924610Y-8550778D01*
%TO.C,J4*%
X18931000Y-5149329D02*
X18931000Y-5011329D01*
X19069000Y-5149329D02*
X18931000Y-5149329D01*
X19196000Y-4873329D02*
X19969000Y-4873329D01*
X19196000Y-5149329D02*
X19196000Y-4873329D01*
X19196000Y-5149329D02*
X19969000Y-5149329D01*
X19969000Y-5149329D02*
X19969000Y-4873329D01*
%TO.C,R6*%
X24625472Y-12759079D02*
X24574528Y-12759079D01*
X24625472Y-12863579D02*
X24574528Y-12863579D01*
%TO.C,IN2*%
X10705319Y-13190220D02*
X10770627Y-13268050D01*
X10763692Y-13141239D02*
X10705319Y-13190220D01*
X10770627Y-13268050D02*
X10828999Y-13219069D01*
X10763692Y-13141239D02*
G75*
G02*
X10828999Y-13219069I1336308J1054981D01*
G01*
D13*
X12346565Y-13811369D02*
G75*
G02*
X11794087Y-13801839I-246565J1725117D01*
G01*
%TO.C,SW1*%
D12*
X23930000Y-10816329D02*
X23930000Y-10806329D01*
X23930000Y-10966329D02*
X24370000Y-10966329D01*
X24370000Y-10656329D02*
X23930000Y-10656329D01*
X24370000Y-10816329D02*
X24370000Y-10806329D01*
%TD*%
%LPC*%
D14*
%TO.C,R32*%
X10700000Y-13852579D03*
X10700000Y-13670079D03*
%TD*%
D15*
%TO.C,J3*%
X16710000Y-5051329D03*
D16*
X16710000Y-5305329D03*
%TD*%
D17*
%TO.C,IN3*%
X16279142Y-13521106D03*
D18*
X17057008Y-13304549D03*
X17595966Y-12702461D03*
X17723378Y-11904037D03*
X17399274Y-11163858D03*
X16726620Y-10716147D03*
X15918200Y-10702978D03*
X15231671Y-11129197D03*
X14883329Y-11857640D03*
X14984266Y-12659028D03*
X15507457Y-13282543D03*
%TD*%
D19*
%TO.C,R2*%
X24563750Y-11711329D03*
X24736250Y-11711329D03*
%TD*%
D20*
%TO.C,C2*%
X23943750Y-12111329D03*
X24256250Y-12111329D03*
%TD*%
%TO.C,C1*%
X23943750Y-11111329D03*
X24256250Y-11111329D03*
%TD*%
%TO.C,C3*%
X23943750Y-13061329D03*
X24256250Y-13061329D03*
%TD*%
D17*
%TO.C,IN1*%
X7829142Y-13521106D03*
D18*
X8607008Y-13304549D03*
X9145966Y-12702461D03*
X9273378Y-11904037D03*
X8949274Y-11163858D03*
X8276620Y-10716147D03*
X7468201Y-10702978D03*
X6781671Y-11129197D03*
X6433329Y-11857640D03*
X6534266Y-12659028D03*
X7057457Y-13282543D03*
%TD*%
D21*
%TO.C,SW2*%
X23945000Y-11731329D03*
X24355000Y-11731329D03*
X23945000Y-11891329D03*
X24355000Y-11891329D03*
%TD*%
D22*
%TO.C,R42*%
X19100000Y-13670079D03*
X19100000Y-13852579D03*
%TD*%
D23*
%TO.C,R4*%
X24741250Y-10911329D03*
X24558750Y-10911329D03*
%TD*%
D21*
%TO.C,SW3*%
X23940000Y-12651329D03*
X24350000Y-12651329D03*
X23940000Y-12811329D03*
X24350000Y-12811329D03*
%TD*%
D17*
%TO.C,IN4*%
X20529142Y-13421106D03*
D18*
X21307008Y-13204549D03*
X21845966Y-12602461D03*
X21973378Y-11804037D03*
X21649274Y-11063858D03*
X20976620Y-10616147D03*
X20168201Y-10602978D03*
X19481671Y-11029197D03*
X19133329Y-11757640D03*
X19234266Y-12559028D03*
X19757457Y-13182543D03*
%TD*%
D24*
%TO.C,R1*%
X24558750Y-10711329D03*
X24741250Y-10711329D03*
%TD*%
D23*
%TO.C,R5*%
X24741250Y-11911329D03*
X24558750Y-11911329D03*
%TD*%
D24*
%TO.C,R3*%
X24508750Y-12661329D03*
X24691250Y-12661329D03*
%TD*%
D22*
%TO.C,R31*%
X6550000Y-13670079D03*
X6550000Y-13852579D03*
%TD*%
%TO.C,R41*%
X14850000Y-13670079D03*
X14850000Y-13852579D03*
%TD*%
D25*
%TO.C,J2*%
X14549844Y-8371173D03*
D16*
X14729449Y-8550778D03*
%TD*%
D15*
%TO.C,J4*%
X19069000Y-5011329D03*
D16*
X19323000Y-5011329D03*
X19577000Y-5011329D03*
X19831000Y-5011329D03*
%TD*%
D23*
%TO.C,R6*%
X24691250Y-12811329D03*
X24508750Y-12811329D03*
%TD*%
D17*
%TO.C,IN2*%
X12079142Y-13521106D03*
D18*
X12857008Y-13304549D03*
X13395966Y-12702461D03*
X13523378Y-11904037D03*
X13199274Y-11163858D03*
X12526620Y-10716147D03*
X11718201Y-10702978D03*
X11031671Y-11129197D03*
X10683329Y-11857640D03*
X10784266Y-12659028D03*
X11307457Y-13282543D03*
%TD*%
D21*
%TO.C,SW1*%
X23945000Y-10731329D03*
X24355000Y-10731329D03*
X23945000Y-10891329D03*
X24355000Y-10891329D03*
%TD*%
D26*
%TO.C,J1*%
X5970000Y-5211329D03*
D27*
X6290000Y-5841329D03*
D28*
X5440000Y-5841329D03*
X5970000Y-5841329D03*
D29*
X5350000Y-5111329D03*
X6330000Y-5111329D03*
%TD*%
D30*
%TO.C,Q1*%
X5080000Y-6498329D03*
D31*
X4826000Y-8164329D03*
D32*
X5080000Y-8164329D03*
X5334000Y-8164329D03*
%TD*%
D33*
%TO.C,U9*%
X19461000Y-8880329D03*
D34*
X19715000Y-8880329D03*
X19969000Y-8880329D03*
X20223000Y-8880329D03*
X20477000Y-8880329D03*
X20731000Y-8880329D03*
X20985000Y-8880329D03*
X21239000Y-8880329D03*
X21239000Y-9642329D03*
X20985000Y-9642329D03*
X20731000Y-9642329D03*
X20477000Y-9642329D03*
X20223000Y-9642329D03*
X19969000Y-9642329D03*
X19715000Y-9642329D03*
X19461000Y-9642329D03*
%TD*%
D35*
%TO.C,TP1*%
X11150000Y-7313829D03*
%TD*%
D36*
%TO.C,C10*%
X5150000Y-9761329D03*
D37*
X8150000Y-9761329D03*
%TD*%
D33*
%TO.C,U6*%
X9430000Y-8849329D03*
D34*
X9684000Y-8849329D03*
X9938000Y-8849329D03*
X10192000Y-8849329D03*
X10446000Y-8849329D03*
X10700000Y-8849329D03*
X10954000Y-8849329D03*
X11208000Y-8849329D03*
X11208000Y-9611329D03*
X10954000Y-9611329D03*
X10700000Y-9611329D03*
X10446000Y-9611329D03*
X10192000Y-9611329D03*
X9938000Y-9611329D03*
X9684000Y-9611329D03*
X9430000Y-9611329D03*
%TD*%
D38*
%TO.C,BZ1*%
X20400000Y-6461329D03*
D39*
X20400000Y-5701329D03*
%TD*%
D38*
%TO.C,BT1*%
X22650000Y-5361329D03*
D39*
X22650000Y-7441329D03*
%TD*%
D40*
%TO.C,D1*%
X5238000Y-8911329D03*
D41*
X6762000Y-8911329D03*
%TD*%
D33*
%TO.C,U8*%
X15442000Y-8861329D03*
D34*
X15696000Y-8861329D03*
X15950000Y-8861329D03*
X16204000Y-8861329D03*
X16458000Y-8861329D03*
X16712000Y-8861329D03*
X16966000Y-8861329D03*
X17220000Y-8861329D03*
X17220000Y-9623329D03*
X16966000Y-9623329D03*
X16712000Y-9623329D03*
X16458000Y-9623329D03*
X16204000Y-9623329D03*
X15950000Y-9623329D03*
X15696000Y-9623329D03*
X15442000Y-9623329D03*
%TD*%
D33*
%TO.C,U7*%
X12261000Y-8830329D03*
D34*
X12515000Y-8830329D03*
X12769000Y-8830329D03*
X13023000Y-8830329D03*
X13277000Y-8830329D03*
X13531000Y-8830329D03*
X13785000Y-8830329D03*
X14039000Y-8830329D03*
X14039000Y-9592329D03*
X13785000Y-9592329D03*
X13531000Y-9592329D03*
X13277000Y-9592329D03*
X13023000Y-9592329D03*
X12769000Y-9592329D03*
X12515000Y-9592329D03*
X12261000Y-9592329D03*
%TD*%
D42*
%TO.C,P1*%
X10375000Y-5285000D03*
X11075000Y-5285000D03*
D43*
X10133000Y-4900000D03*
D44*
X10260000Y-5332000D03*
X11190000Y-5332000D03*
D43*
X11317000Y-4900000D03*
%TD*%
D45*
%TO.C,Y1*%
X14325500Y-6738329D03*
X14325500Y-6484329D03*
%TD*%
D30*
%TO.C,U3*%
X8360000Y-6568329D03*
D31*
X8106000Y-8234329D03*
D32*
X8360000Y-8234329D03*
X8614000Y-8234329D03*
%TD*%
%LPD*%
D46*
X4500000Y-4764000D02*
X4500000Y-14060000D01*
X4500000Y-14060000D02*
X25150000Y-14060000D01*
X10055000Y-4764000D02*
X4500000Y-4764000D01*
X11395000Y-4760000D02*
X11395000Y-4764000D01*
X25150000Y-4760000D02*
X11395000Y-4760000D01*
X25150000Y-14060000D02*
X25150000Y-4760000D01*
%TO.C,P1*%
D47*
X10055000Y-4764000D02*
X10268000Y-4764000D01*
X10268000Y-5200000D02*
X10268000Y-4764000D01*
X10283000Y-5215000D02*
X11167000Y-5215000D01*
X11182000Y-4764000D02*
X11395000Y-4764000D01*
X11182000Y-5200000D02*
X11182000Y-4764000D01*
X10283000Y-5215000D02*
G75*
G02*
X10268000Y-5200000I0J15000D01*
G01*
X11182000Y-5200000D02*
G75*
G02*
X11167000Y-5215000I-15000J0D01*
G01*
%TD*%
M02*
