%TF.GenerationSoftware,KiCad,Pcbnew,10.0.4*%
%TF.CreationDate,2026-08-04T15:23:52+02:00*%
%TF.ProjectId,zegarek,7a656761-7265-46b2-9e6b-696361645f70,rev?*%
%TF.SameCoordinates,Original*%
%TF.FileFunction,Soldermask,Bot*%
%TF.FilePolarity,Negative*%
%FSLAX45Y45*%
G04 Gerber Fmt 4.5, Leading zero omitted, Abs format (unit mm)*
G04 Created by KiCad (PCBNEW 10.0.4) date 2026-08-04 15:23:52*
%MOMM*%
%LPD*%
G01*
G04 APERTURE LIST*
G04 Aperture macros list*
%AMRoundRect*
0 Rectangle with rounded corners*
0 $1 Rounding radius*
0 $2 $3 $4 $5 $6 $7 $8 $9 X,Y pos of 4 corners*
0 Add a 4 corners polygon primitive as box body*
4,1,4,$2,$3,$4,$5,$6,$7,$8,$9,$2,$3,0*
0 Add four circle primitives for the rounded corners*
1,1,$1+$1,$2,$3*
1,1,$1+$1,$4,$5*
1,1,$1+$1,$6,$7*
1,1,$1+$1,$8,$9*
0 Add four rect primitives between the rounded corners*
20,1,$1+$1,$2,$3,$4,$5,0*
20,1,$1+$1,$4,$5,$6,$7,0*
20,1,$1+$1,$6,$7,$8,$9,0*
20,1,$1+$1,$8,$9,$2,$3,0*%
%AMRotRect*
0 Rectangle, with rotation*
0 The origin of the aperture is its center*
0 $1 length*
0 $2 width*
0 $3 Rotation angle, in degrees counterclockwise*
0 Add horizontal line*
21,1,$1,$2,0,0,$3*%
%AMFreePoly0*
4,1,9,3.862500,-0.866500,0.737500,-0.866500,0.737500,-0.450000,-0.737500,-0.450000,-0.737500,0.450000,0.737500,0.450000,0.737500,0.866500,3.862500,0.866500,3.862500,-0.866500,3.862500,-0.866500,$1*%
%AMFreePoly1*
4,1,23,0.499999,-0.750000,0.000000,-0.750000,0.000000,-0.745722,-0.065263,-0.745722,-0.191342,-0.711940,-0.304381,-0.646677,-0.396677,-0.554382,-0.461940,-0.441342,-0.495722,-0.315263,-0.495722,-0.250000,-0.500000,-0.250000,-0.500000,0.250000,-0.495722,0.250000,-0.495722,0.315263,-0.461940,0.441342,-0.396677,0.554382,-0.304381,0.646677,-0.191342,0.711940,-0.065263,0.745722,0.000000,0.745722,
0.000000,0.750000,0.499999,0.750000,0.499999,-0.750000,0.499999,-0.750000,$1*%
%AMFreePoly2*
4,1,23,0.000000,0.745722,0.065263,0.745722,0.191342,0.711940,0.304381,0.646677,0.396677,0.554382,0.461940,0.441342,0.495722,0.315263,0.495722,0.250000,0.500000,0.250000,0.500000,-0.250000,0.495722,-0.250000,0.495722,-0.315263,0.461940,-0.441342,0.396677,-0.554382,0.304381,-0.646677,0.191342,-0.711940,0.065263,-0.745722,0.000000,-0.745722,0.000000,-0.750000,-0.499999,-0.750000,
-0.499999,0.750000,0.000000,0.750000,0.000000,0.745722,0.000000,0.745722,$1*%
G04 Aperture macros list end*
%ADD10C,0.000000*%
%ADD11R,1.700000X1.700000*%
%ADD12C,1.700000*%
%ADD13RoundRect,1.125000X-1.101193X1.148313X-1.148313X-1.101193X1.101193X-1.148313X1.148313X1.101193X0*%
%ADD14C,4.500000*%
%ADD15RotRect,1.700000X1.700000X45.000000*%
%ADD16RoundRect,0.237500X0.044194X0.380070X-0.380070X-0.044194X-0.044194X-0.380070X0.380070X0.044194X0*%
%ADD17RoundRect,0.237500X-0.344715X0.008839X0.008839X-0.344715X0.344715X-0.008839X-0.008839X0.344715X0*%
%ADD18RoundRect,0.150000X-0.150000X0.825000X-0.150000X-0.825000X0.150000X-0.825000X0.150000X0.825000X0*%
%ADD19RoundRect,0.237500X-0.250000X-0.237500X0.250000X-0.237500X0.250000X0.237500X-0.250000X0.237500X0*%
%ADD20RoundRect,0.250000X-0.650000X0.412500X-0.650000X-0.412500X0.650000X-0.412500X0.650000X0.412500X0*%
%ADD21RoundRect,0.250000X0.751301X0.167938X0.167938X0.751301X-0.751301X-0.167938X-0.167938X-0.751301X0*%
%ADD22RoundRect,0.250000X0.650000X-0.412500X0.650000X0.412500X-0.650000X0.412500X-0.650000X-0.412500X0*%
%ADD23RoundRect,0.237500X-0.008839X-0.344715X0.344715X0.008839X0.008839X0.344715X-0.344715X-0.008839X0*%
%ADD24RoundRect,0.250000X0.400000X0.625000X-0.400000X0.625000X-0.400000X-0.625000X0.400000X-0.625000X0*%
%ADD25RoundRect,0.150000X0.150000X-0.825000X0.150000X0.825000X-0.150000X0.825000X-0.150000X-0.825000X0*%
%ADD26RoundRect,0.237500X0.237500X-0.250000X0.237500X0.250000X-0.237500X0.250000X-0.237500X-0.250000X0*%
%ADD27C,2.130000*%
%ADD28R,1.800000X3.000000*%
%ADD29O,1.800000X3.000000*%
%ADD30O,1.600000X3.000000*%
%ADD31RoundRect,0.237500X0.035355X0.371231X-0.371231X-0.035355X-0.035355X-0.371231X0.371231X0.035355X0*%
%ADD32C,3.500000*%
%ADD33R,1.905000X2.000000*%
%ADD34O,1.905000X2.000000*%
%ADD35RoundRect,0.075000X-0.548008X0.441942X0.441942X-0.548008X0.548008X-0.441942X-0.441942X0.548008X0*%
%ADD36RoundRect,0.075000X-0.548008X-0.441942X-0.441942X-0.548008X0.548008X0.441942X0.441942X0.548008X0*%
%ADD37RoundRect,0.250000X-0.550000X0.950000X-0.550000X-0.950000X0.550000X-0.950000X0.550000X0.950000X0*%
%ADD38O,1.600000X2.400000*%
%ADD39RoundRect,0.225000X-0.225000X0.425000X-0.225000X-0.425000X0.225000X-0.425000X0.225000X0.425000X0*%
%ADD40FreePoly0,270.000000*%
%ADD41C,1.800000*%
%ADD42R,0.900000X1.000000*%
%ADD43RoundRect,0.250001X-0.949999X-0.949999X0.949999X-0.949999X0.949999X0.949999X-0.949999X0.949999X0*%
%ADD44C,2.400000*%
%ADD45RoundRect,0.237500X0.287500X0.237500X-0.287500X0.237500X-0.287500X-0.237500X0.287500X-0.237500X0*%
%ADD46RoundRect,0.250000X0.412500X0.650000X-0.412500X0.650000X-0.412500X-0.650000X0.412500X-0.650000X0*%
%ADD47FreePoly1,225.000000*%
%ADD48FreePoly2,225.000000*%
%ADD49R,2.000000X2.000000*%
%ADD50C,2.000000*%
%ADD51RoundRect,0.250000X-0.412500X-0.650000X0.412500X-0.650000X0.412500X0.650000X-0.412500X0.650000X0*%
%ADD52RoundRect,0.250000X-1.350000X-1.350000X1.350000X-1.350000X1.350000X1.350000X-1.350000X1.350000X0*%
%ADD53C,3.200000*%
%ADD54RoundRect,0.250000X-0.625000X0.400000X-0.625000X-0.400000X0.625000X-0.400000X0.625000X0.400000X0*%
%ADD55RoundRect,0.237500X0.008839X0.344715X-0.344715X-0.008839X-0.008839X-0.344715X0.344715X0.008839X0*%
%ADD56R,3.600000X2.700000*%
%ADD57RoundRect,0.237500X0.344715X-0.008839X-0.008839X0.344715X-0.344715X0.008839X0.008839X-0.344715X0*%
%ADD58C,0.600000*%
%ADD59RoundRect,0.200000X-0.200000X-0.500000X0.200000X-0.500000X0.200000X0.500000X-0.200000X0.500000X0*%
%ADD60RoundRect,0.075000X-0.075000X-0.625000X0.075000X-0.625000X0.075000X0.625000X-0.075000X0.625000X0*%
%ADD61O,0.900000X1.800000*%
%ADD62O,0.900000X1.500000*%
%ADD63RoundRect,0.237500X0.250000X0.237500X-0.250000X0.237500X-0.250000X-0.237500X0.250000X-0.237500X0*%
%ADD64C,1.000000*%
%TA.AperFunction,Profile*%
%ADD65C,0.050000*%
%TD*%
%TA.AperFunction,Profile*%
%ADD66C,0.100000*%
%TD*%
G04 APERTURE END LIST*
D10*
%TO.C,JP1*%
G36*
X15747678Y-5459717D02*
G01*
X15726464Y-5480931D01*
X15620398Y-5374865D01*
X15641612Y-5353651D01*
X15747678Y-5459717D01*
G37*
%TD*%
D11*
%TO.C,J3*%
X16710000Y-5051329D03*
D12*
X16710000Y-5305329D03*
%TD*%
D13*
%TO.C,IN3*%
X16279142Y-13521106D03*
D14*
X17057008Y-13304549D03*
X17595966Y-12702461D03*
X17723378Y-11904037D03*
X17399274Y-11163858D03*
X16726620Y-10716147D03*
X15918200Y-10702978D03*
X15231671Y-11129197D03*
X14883329Y-11857640D03*
X14984266Y-12659028D03*
X15507457Y-13282543D03*
%TD*%
D13*
%TO.C,IN1*%
X7829142Y-13521106D03*
D14*
X8607008Y-13304549D03*
X9145966Y-12702461D03*
X9273378Y-11904037D03*
X8949274Y-11163858D03*
X8276620Y-10716147D03*
X7468201Y-10702978D03*
X6781671Y-11129197D03*
X6433329Y-11857640D03*
X6534266Y-12659028D03*
X7057457Y-13282543D03*
%TD*%
D13*
%TO.C,IN4*%
X20529142Y-13421106D03*
D14*
X21307008Y-13204549D03*
X21845966Y-12602461D03*
X21973378Y-11804037D03*
X21649274Y-11063858D03*
X20976620Y-10616147D03*
X20168201Y-10602978D03*
X19481671Y-11029197D03*
X19133329Y-11757640D03*
X19234266Y-12559028D03*
X19757457Y-13182543D03*
%TD*%
D15*
%TO.C,J2*%
X14549844Y-8371173D03*
D12*
X14729449Y-8550778D03*
%TD*%
D11*
%TO.C,J4*%
X19069000Y-5011329D03*
D12*
X19323000Y-5011329D03*
X19577000Y-5011329D03*
X19831000Y-5011329D03*
%TD*%
D13*
%TO.C,IN2*%
X12079142Y-13521106D03*
D14*
X12857008Y-13304549D03*
X13395966Y-12702461D03*
X13523378Y-11904037D03*
X13199274Y-11163858D03*
X12526620Y-10716147D03*
X11718201Y-10702978D03*
X11031671Y-11129197D03*
X10683329Y-11857640D03*
X10784266Y-12659028D03*
X11307457Y-13282543D03*
%TD*%
D16*
%TO.C,C13*%
X14990988Y-6160341D03*
X14869012Y-6282317D03*
%TD*%
D17*
%TO.C,R16*%
X14885476Y-8336805D03*
X15014523Y-8465853D03*
%TD*%
D18*
%TO.C,U5*%
X10155000Y-6411329D03*
X10282000Y-6411329D03*
X10409000Y-6411329D03*
X10536000Y-6411329D03*
X10663000Y-6411329D03*
X10790000Y-6411329D03*
X10917000Y-6411329D03*
X11044000Y-6411329D03*
X11044000Y-6906329D03*
X10917000Y-6906329D03*
X10790000Y-6906329D03*
X10663000Y-6906329D03*
X10536000Y-6906329D03*
X10409000Y-6906329D03*
X10282000Y-6906329D03*
X10155000Y-6906329D03*
%TD*%
D19*
%TO.C,R25*%
X14517500Y-5511329D03*
X14700000Y-5511329D03*
%TD*%
D20*
%TO.C,C23*%
X16860329Y-6642184D03*
X16860329Y-6954684D03*
%TD*%
D21*
%TO.C,C15*%
X15514315Y-5987984D03*
X15293344Y-5767014D03*
%TD*%
D22*
%TO.C,C26*%
X13280000Y-8587579D03*
X13280000Y-8275079D03*
%TD*%
D23*
%TO.C,R28*%
X17305477Y-6145852D03*
X17434524Y-6016805D03*
%TD*%
D24*
%TO.C,R8*%
X6565000Y-6801329D03*
X6255000Y-6801329D03*
%TD*%
D17*
%TO.C,R17*%
X14995476Y-8236805D03*
X15124523Y-8365852D03*
%TD*%
D19*
%TO.C,R20*%
X10962500Y-7673829D03*
X11145000Y-7673829D03*
%TD*%
D21*
%TO.C,C16*%
X15680485Y-5821814D03*
X15459515Y-5600844D03*
%TD*%
D25*
%TO.C,U2*%
X6070500Y-7638829D03*
X5943500Y-7638829D03*
X5816500Y-7638829D03*
X5689500Y-7638829D03*
X5689500Y-7143829D03*
X5816500Y-7143829D03*
X5943500Y-7143829D03*
X6070500Y-7143829D03*
%TD*%
D26*
%TO.C,R11*%
X4980000Y-8972579D03*
X4980000Y-8790079D03*
%TD*%
D27*
%TO.C,J1*%
X5970000Y-5211329D03*
D28*
X6290000Y-5841329D03*
D29*
X5440000Y-5841329D03*
X5970000Y-5841329D03*
D30*
X5350000Y-5111329D03*
X6330000Y-5111329D03*
%TD*%
D17*
%TO.C,R33*%
X17145477Y-7206805D03*
X17274524Y-7335852D03*
%TD*%
D31*
%TO.C,FB1*%
X15983900Y-5576719D03*
X15860156Y-5700462D03*
%TD*%
D32*
%TO.C,Q1*%
X5080000Y-6498329D03*
D33*
X4826000Y-8164329D03*
D34*
X5080000Y-8164329D03*
X5334000Y-8164329D03*
%TD*%
D22*
%TO.C,C6*%
X6700000Y-5857579D03*
X6700000Y-5545079D03*
%TD*%
%TO.C,C28*%
X20500000Y-8617579D03*
X20500000Y-8305079D03*
%TD*%
D20*
%TO.C,C9*%
X8620000Y-8535079D03*
X8620000Y-8847579D03*
%TD*%
D35*
%TO.C,U4*%
X15233552Y-6775211D03*
X15268907Y-6739856D03*
X15304262Y-6704500D03*
X15339618Y-6669145D03*
X15374973Y-6633790D03*
X15410329Y-6598434D03*
X15445684Y-6563079D03*
X15481039Y-6527724D03*
X15516395Y-6492368D03*
X15551750Y-6457013D03*
X15587105Y-6421658D03*
X15622461Y-6386302D03*
X15657816Y-6350947D03*
X15693171Y-6315591D03*
X15728527Y-6280236D03*
X15763882Y-6244881D03*
D36*
X16036118Y-6244881D03*
X16071473Y-6280236D03*
X16106829Y-6315591D03*
X16142184Y-6350947D03*
X16177539Y-6386302D03*
X16212895Y-6421658D03*
X16248250Y-6457013D03*
X16283605Y-6492368D03*
X16318961Y-6527724D03*
X16354316Y-6563079D03*
X16389671Y-6598434D03*
X16425027Y-6633790D03*
X16460382Y-6669145D03*
X16495737Y-6704500D03*
X16531093Y-6739856D03*
X16566448Y-6775211D03*
D35*
X16566448Y-7047447D03*
X16531093Y-7082802D03*
X16495737Y-7118158D03*
X16460382Y-7153513D03*
X16425027Y-7188868D03*
X16389671Y-7224224D03*
X16354316Y-7259579D03*
X16318961Y-7294934D03*
X16283605Y-7330290D03*
X16248250Y-7365645D03*
X16212895Y-7401000D03*
X16177539Y-7436356D03*
X16142184Y-7471711D03*
X16106829Y-7507066D03*
X16071473Y-7542422D03*
X16036118Y-7577777D03*
D36*
X15763882Y-7577777D03*
X15728527Y-7542422D03*
X15693171Y-7507066D03*
X15657816Y-7471711D03*
X15622461Y-7436356D03*
X15587105Y-7401000D03*
X15551750Y-7365645D03*
X15516395Y-7330290D03*
X15481039Y-7294934D03*
X15445684Y-7259579D03*
X15410329Y-7224224D03*
X15374973Y-7188868D03*
X15339618Y-7153513D03*
X15304262Y-7118158D03*
X15268907Y-7082802D03*
X15233552Y-7047447D03*
%TD*%
D37*
%TO.C,U9*%
X19461000Y-8880329D03*
D38*
X19715000Y-8880329D03*
X19969000Y-8880329D03*
X20223000Y-8880329D03*
X20477000Y-8880329D03*
X20731000Y-8880329D03*
X20985000Y-8880329D03*
X21239000Y-8880329D03*
X21239000Y-9642329D03*
X20985000Y-9642329D03*
X20731000Y-9642329D03*
X20477000Y-9642329D03*
X20223000Y-9642329D03*
X19969000Y-9642329D03*
X19715000Y-9642329D03*
X19461000Y-9642329D03*
%TD*%
D39*
%TO.C,U1*%
X8533750Y-5496329D03*
D40*
X8683750Y-5505079D03*
D39*
X8833750Y-5496329D03*
%TD*%
D41*
%TO.C,TP1*%
X11150000Y-7313829D03*
%TD*%
D22*
%TO.C,C25*%
X10450000Y-8567579D03*
X10450000Y-8255079D03*
%TD*%
D21*
%TO.C,C22*%
X16260485Y-6071814D03*
X16039515Y-5850844D03*
%TD*%
D19*
%TO.C,R18*%
X14737817Y-6492922D03*
X14920317Y-6492922D03*
%TD*%
D24*
%TO.C,R40*%
X19905000Y-8111329D03*
X19595000Y-8111329D03*
%TD*%
D22*
%TO.C,C5*%
X9050000Y-5477579D03*
X9050000Y-5165079D03*
%TD*%
D42*
%TO.C,SW4*%
X13424289Y-5941329D03*
X13834289Y-5941329D03*
X13424289Y-5781329D03*
X13834289Y-5781329D03*
%TD*%
D19*
%TO.C,R19*%
X17882000Y-4961329D03*
X18064500Y-4961329D03*
%TD*%
%TO.C,R22*%
X18537500Y-5561329D03*
X18720000Y-5561329D03*
%TD*%
%TO.C,R15*%
X13088039Y-5761329D03*
X13270539Y-5761329D03*
%TD*%
D43*
%TO.C,C10*%
X5150000Y-9761329D03*
D44*
X8150000Y-9761329D03*
%TD*%
D45*
%TO.C,D3*%
X18023250Y-5261329D03*
X17848250Y-5261329D03*
%TD*%
D17*
%TO.C,R34*%
X16925477Y-7426805D03*
X17054524Y-7555852D03*
%TD*%
D37*
%TO.C,U6*%
X9430000Y-8849329D03*
D38*
X9684000Y-8849329D03*
X9938000Y-8849329D03*
X10192000Y-8849329D03*
X10446000Y-8849329D03*
X10700000Y-8849329D03*
X10954000Y-8849329D03*
X11208000Y-8849329D03*
X11208000Y-9611329D03*
X10954000Y-9611329D03*
X10700000Y-9611329D03*
X10446000Y-9611329D03*
X10192000Y-9611329D03*
X9938000Y-9611329D03*
X9684000Y-9611329D03*
X9430000Y-9611329D03*
%TD*%
D17*
%TO.C,R36*%
X16815477Y-7536805D03*
X16944524Y-7665852D03*
%TD*%
D46*
%TO.C,C24*%
X10756250Y-7311329D03*
X10443750Y-7311329D03*
%TD*%
D47*
%TO.C,JP1*%
X15730000Y-5371329D03*
D48*
X15638076Y-5463253D03*
%TD*%
D49*
%TO.C,BZ1*%
X20400000Y-6461329D03*
D50*
X20400000Y-5701329D03*
%TD*%
D22*
%TO.C,C27*%
X16450000Y-8617579D03*
X16450000Y-8305079D03*
%TD*%
D49*
%TO.C,BT1*%
X22650000Y-5361329D03*
D50*
X22650000Y-7441329D03*
%TD*%
D21*
%TO.C,C11*%
X16105737Y-5425853D03*
X15884766Y-5204882D03*
%TD*%
D51*
%TO.C,C21*%
X16063750Y-7841329D03*
X16376250Y-7841329D03*
%TD*%
D52*
%TO.C,D1*%
X5238000Y-8911329D03*
D53*
X6762000Y-8911329D03*
%TD*%
D22*
%TO.C,C18*%
X14522685Y-6484211D03*
X14522685Y-6171711D03*
%TD*%
D54*
%TO.C,R9*%
X6280000Y-7206329D03*
X6280000Y-7516329D03*
%TD*%
D26*
%TO.C,R12*%
X4820000Y-8802579D03*
X4820000Y-8620079D03*
%TD*%
D55*
%TO.C,R23*%
X14474523Y-7616805D03*
X14345476Y-7745852D03*
%TD*%
D20*
%TO.C,C7*%
X5820000Y-7865079D03*
X5820000Y-8177579D03*
%TD*%
D22*
%TO.C,C4*%
X8310000Y-5817579D03*
X8310000Y-5505079D03*
%TD*%
D20*
%TO.C,C8*%
X7850000Y-8225079D03*
X7850000Y-8537579D03*
%TD*%
D45*
%TO.C,D2*%
X17705250Y-4962329D03*
X17530250Y-4962329D03*
%TD*%
D37*
%TO.C,U8*%
X15442000Y-8861329D03*
D38*
X15696000Y-8861329D03*
X15950000Y-8861329D03*
X16204000Y-8861329D03*
X16458000Y-8861329D03*
X16712000Y-8861329D03*
X16966000Y-8861329D03*
X17220000Y-8861329D03*
X17220000Y-9623329D03*
X16966000Y-9623329D03*
X16712000Y-9623329D03*
X16458000Y-9623329D03*
X16204000Y-9623329D03*
X15950000Y-9623329D03*
X15696000Y-9623329D03*
X15442000Y-9623329D03*
%TD*%
D56*
%TO.C,L1*%
X6950000Y-7556329D03*
X6950000Y-8386329D03*
%TD*%
D17*
%TO.C,R35*%
X17035477Y-7316805D03*
X17164524Y-7445852D03*
%TD*%
D57*
%TO.C,R14*%
X14774523Y-8215852D03*
X14645476Y-8086805D03*
%TD*%
D20*
%TO.C,C19*%
X21460000Y-5365079D03*
X21460000Y-5677579D03*
%TD*%
D19*
%TO.C,R29*%
X14517500Y-5662329D03*
X14700000Y-5662329D03*
%TD*%
D20*
%TO.C,C20*%
X14870000Y-6755079D03*
X14870000Y-7067579D03*
%TD*%
D37*
%TO.C,U7*%
X12261000Y-8830329D03*
D38*
X12515000Y-8830329D03*
X12769000Y-8830329D03*
X13023000Y-8830329D03*
X13277000Y-8830329D03*
X13531000Y-8830329D03*
X13785000Y-8830329D03*
X14039000Y-8830329D03*
X14039000Y-9592329D03*
X13785000Y-9592329D03*
X13531000Y-9592329D03*
X13277000Y-9592329D03*
X13023000Y-9592329D03*
X12769000Y-9592329D03*
X12515000Y-9592329D03*
X12261000Y-9592329D03*
%TD*%
D55*
%TO.C,R38*%
X17324524Y-5906805D03*
X17195477Y-6035852D03*
%TD*%
%TO.C,R27*%
X14574523Y-7726805D03*
X14445476Y-7855852D03*
%TD*%
D45*
%TO.C,D4*%
X18360750Y-5561329D03*
X18185750Y-5561329D03*
%TD*%
D58*
%TO.C,P1*%
X10375000Y-5285000D03*
X11075000Y-5285000D03*
D59*
X10375000Y-5410000D03*
X10475000Y-5410000D03*
D60*
X10600000Y-5410000D03*
X10700000Y-5410000D03*
X10750000Y-5410000D03*
X10850000Y-5410000D03*
D59*
X10975000Y-5410000D03*
X11075000Y-5410000D03*
X11075000Y-5410000D03*
X10975000Y-5410000D03*
D60*
X10900000Y-5410000D03*
X10800000Y-5410000D03*
X10650000Y-5410000D03*
X10550000Y-5410000D03*
D59*
X10475000Y-5410000D03*
X10375000Y-5410000D03*
D61*
X10133000Y-4900000D03*
D62*
X10260000Y-5332000D03*
X11190000Y-5332000D03*
D61*
X11317000Y-4900000D03*
%TD*%
D63*
%TO.C,R13*%
X13270539Y-5961329D03*
X13088039Y-5961329D03*
%TD*%
D64*
%TO.C,Y1*%
X14325500Y-6738329D03*
X14325500Y-6484329D03*
%TD*%
D19*
%TO.C,R30*%
X14508750Y-5361329D03*
X14691250Y-5361329D03*
%TD*%
D55*
%TO.C,R37*%
X17104524Y-5686805D03*
X16975477Y-5815852D03*
%TD*%
D21*
%TO.C,C14*%
X15130485Y-8071814D03*
X14909515Y-7850844D03*
%TD*%
D19*
%TO.C,R21*%
X18200000Y-5261329D03*
X18382500Y-5261329D03*
%TD*%
D21*
%TO.C,C12*%
X16270485Y-5261814D03*
X16049515Y-5040844D03*
%TD*%
D23*
%TO.C,R24*%
X17415477Y-6255852D03*
X17544524Y-6126805D03*
%TD*%
D51*
%TO.C,C6*%
X5723750Y-6791329D03*
X6036250Y-6791329D03*
%TD*%
D19*
%TO.C,R26*%
X14517500Y-5212329D03*
X14700000Y-5212329D03*
%TD*%
%TO.C,R10*%
X4778750Y-8431329D03*
X4961250Y-8431329D03*
%TD*%
D55*
%TO.C,R39*%
X17214524Y-5796805D03*
X17085477Y-5925852D03*
%TD*%
D23*
%TO.C,R7*%
X19700000Y-5481329D03*
X19829047Y-5352282D03*
%TD*%
D22*
%TO.C,C17*%
X14522685Y-7049896D03*
X14522685Y-6737396D03*
%TD*%
D32*
%TO.C,U3*%
X8360000Y-6568329D03*
D33*
X8106000Y-8234329D03*
D34*
X8360000Y-8234329D03*
X8614000Y-8234329D03*
%TD*%
D65*
X4500000Y-4764000D02*
X4500000Y-14060000D01*
X4500000Y-14060000D02*
X25150000Y-14060000D01*
X10055000Y-4764000D02*
X4500000Y-4764000D01*
X11395000Y-4760000D02*
X11395000Y-4764000D01*
X25150000Y-4760000D02*
X11395000Y-4760000D01*
X25150000Y-14060000D02*
X25150000Y-4760000D01*
%TO.C,P1*%
D66*
X10055000Y-4764000D02*
X10268000Y-4764000D01*
X10268000Y-5200000D02*
X10268000Y-4764000D01*
X10283000Y-5215000D02*
X11167000Y-5215000D01*
X11182000Y-4764000D02*
X11395000Y-4764000D01*
X11182000Y-5200000D02*
X11182000Y-4764000D01*
X10283000Y-5215000D02*
G75*
G02*
X10268000Y-5200000I0J15000D01*
G01*
X11182000Y-5200000D02*
G75*
G02*
X11167000Y-5215000I-15000J0D01*
G01*
%TD*%
M02*
