%TF.GenerationSoftware,KiCad,Pcbnew,10.0.4*%
%TF.CreationDate,2026-08-04T15:23:52+02:00*%
%TF.ProjectId,zegarek,7a656761-7265-46b2-9e6b-696361645f70,rev?*%
%TF.SameCoordinates,Original*%
%TF.FileFunction,Paste,Bot*%
%TF.FilePolarity,Positive*%
%FSLAX45Y45*%
G04 Gerber Fmt 4.5, Leading zero omitted, Abs format (unit mm)*
G04 Created by KiCad (PCBNEW 10.0.4) date 2026-08-04 15:23:52*
%MOMM*%
%LPD*%
G01*
G04 APERTURE LIST*
G04 Aperture macros list*
%AMRoundRect*
0 Rectangle with rounded corners*
0 $1 Rounding radius*
0 $2 $3 $4 $5 $6 $7 $8 $9 X,Y pos of 4 corners*
0 Add a 4 corners polygon primitive as box body*
4,1,4,$2,$3,$4,$5,$6,$7,$8,$9,$2,$3,0*
0 Add four circle primitives for the rounded corners*
1,1,$1+$1,$2,$3*
1,1,$1+$1,$4,$5*
1,1,$1+$1,$6,$7*
1,1,$1+$1,$8,$9*
0 Add four rect primitives between the rounded corners*
20,1,$1+$1,$2,$3,$4,$5,0*
20,1,$1+$1,$4,$5,$6,$7,0*
20,1,$1+$1,$6,$7,$8,$9,0*
20,1,$1+$1,$8,$9,$2,$3,0*%
%AMFreePoly0*
4,1,9,3.862500,-0.866500,0.737500,-0.866500,0.737500,-0.450000,-0.737500,-0.450000,-0.737500,0.450000,0.737500,0.450000,0.737500,0.866500,3.862500,0.866500,3.862500,-0.866500,3.862500,-0.866500,$1*%
G04 Aperture macros list end*
%ADD10RoundRect,0.237500X0.044194X0.380070X-0.380070X-0.044194X-0.044194X-0.380070X0.380070X0.044194X0*%
%ADD11RoundRect,0.237500X-0.344715X0.008839X0.008839X-0.344715X0.344715X-0.008839X-0.008839X0.344715X0*%
%ADD12RoundRect,0.150000X-0.150000X0.825000X-0.150000X-0.825000X0.150000X-0.825000X0.150000X0.825000X0*%
%ADD13RoundRect,0.237500X-0.250000X-0.237500X0.250000X-0.237500X0.250000X0.237500X-0.250000X0.237500X0*%
%ADD14RoundRect,0.250000X-0.650000X0.412500X-0.650000X-0.412500X0.650000X-0.412500X0.650000X0.412500X0*%
%ADD15RoundRect,0.250000X0.751301X0.167938X0.167938X0.751301X-0.751301X-0.167938X-0.167938X-0.751301X0*%
%ADD16RoundRect,0.250000X0.650000X-0.412500X0.650000X0.412500X-0.650000X0.412500X-0.650000X-0.412500X0*%
%ADD17RoundRect,0.237500X-0.008839X-0.344715X0.344715X0.008839X0.008839X0.344715X-0.344715X-0.008839X0*%
%ADD18RoundRect,0.250000X0.400000X0.625000X-0.400000X0.625000X-0.400000X-0.625000X0.400000X-0.625000X0*%
%ADD19RoundRect,0.150000X0.150000X-0.825000X0.150000X0.825000X-0.150000X0.825000X-0.150000X-0.825000X0*%
%ADD20RoundRect,0.237500X0.237500X-0.250000X0.237500X0.250000X-0.237500X0.250000X-0.237500X-0.250000X0*%
%ADD21RoundRect,0.237500X0.035355X0.371231X-0.371231X-0.035355X-0.035355X-0.371231X0.371231X0.035355X0*%
%ADD22RoundRect,0.075000X-0.548008X0.441942X0.441942X-0.548008X0.548008X-0.441942X-0.441942X0.548008X0*%
%ADD23RoundRect,0.075000X-0.548008X-0.441942X-0.441942X-0.548008X0.548008X0.441942X0.441942X0.548008X0*%
%ADD24RoundRect,0.225000X-0.225000X0.425000X-0.225000X-0.425000X0.225000X-0.425000X0.225000X0.425000X0*%
%ADD25FreePoly0,270.000000*%
%ADD26R,0.900000X1.000000*%
%ADD27RoundRect,0.237500X0.287500X0.237500X-0.287500X0.237500X-0.287500X-0.237500X0.287500X-0.237500X0*%
%ADD28RoundRect,0.250000X0.412500X0.650000X-0.412500X0.650000X-0.412500X-0.650000X0.412500X-0.650000X0*%
%ADD29RoundRect,0.250000X-0.412500X-0.650000X0.412500X-0.650000X0.412500X0.650000X-0.412500X0.650000X0*%
%ADD30RoundRect,0.250000X-0.625000X0.400000X-0.625000X-0.400000X0.625000X-0.400000X0.625000X0.400000X0*%
%ADD31RoundRect,0.237500X0.008839X0.344715X-0.344715X-0.008839X-0.008839X-0.344715X0.344715X0.008839X0*%
%ADD32R,3.600000X2.700000*%
%ADD33RoundRect,0.237500X0.344715X-0.008839X-0.008839X0.344715X-0.344715X0.008839X0.008839X-0.344715X0*%
%ADD34RoundRect,0.200000X-0.200000X-0.500000X0.200000X-0.500000X0.200000X0.500000X-0.200000X0.500000X0*%
%ADD35RoundRect,0.075000X-0.075000X-0.625000X0.075000X-0.625000X0.075000X0.625000X-0.075000X0.625000X0*%
%ADD36RoundRect,0.237500X0.250000X0.237500X-0.250000X0.237500X-0.250000X-0.237500X0.250000X-0.237500X0*%
%TA.AperFunction,Profile*%
%ADD37C,0.050000*%
%TD*%
%TA.AperFunction,Profile*%
%ADD38C,0.100000*%
%TD*%
G04 APERTURE END LIST*
D10*
%TO.C,C13*%
X14990988Y-6160341D03*
X14869012Y-6282317D03*
%TD*%
D11*
%TO.C,R16*%
X14885476Y-8336805D03*
X15014523Y-8465853D03*
%TD*%
D12*
%TO.C,U5*%
X10155000Y-6411329D03*
X10282000Y-6411329D03*
X10409000Y-6411329D03*
X10536000Y-6411329D03*
X10663000Y-6411329D03*
X10790000Y-6411329D03*
X10917000Y-6411329D03*
X11044000Y-6411329D03*
X11044000Y-6906329D03*
X10917000Y-6906329D03*
X10790000Y-6906329D03*
X10663000Y-6906329D03*
X10536000Y-6906329D03*
X10409000Y-6906329D03*
X10282000Y-6906329D03*
X10155000Y-6906329D03*
%TD*%
D13*
%TO.C,R25*%
X14517500Y-5511329D03*
X14700000Y-5511329D03*
%TD*%
D14*
%TO.C,C23*%
X16860329Y-6642184D03*
X16860329Y-6954684D03*
%TD*%
D15*
%TO.C,C15*%
X15514315Y-5987984D03*
X15293344Y-5767014D03*
%TD*%
D16*
%TO.C,C26*%
X13280000Y-8587579D03*
X13280000Y-8275079D03*
%TD*%
D17*
%TO.C,R28*%
X17305477Y-6145852D03*
X17434524Y-6016805D03*
%TD*%
D18*
%TO.C,R8*%
X6565000Y-6801329D03*
X6255000Y-6801329D03*
%TD*%
D11*
%TO.C,R17*%
X14995476Y-8236805D03*
X15124523Y-8365852D03*
%TD*%
D13*
%TO.C,R20*%
X10962500Y-7673829D03*
X11145000Y-7673829D03*
%TD*%
D15*
%TO.C,C16*%
X15680485Y-5821814D03*
X15459515Y-5600844D03*
%TD*%
D19*
%TO.C,U2*%
X6070500Y-7638829D03*
X5943500Y-7638829D03*
X5816500Y-7638829D03*
X5689500Y-7638829D03*
X5689500Y-7143829D03*
X5816500Y-7143829D03*
X5943500Y-7143829D03*
X6070500Y-7143829D03*
%TD*%
D20*
%TO.C,R11*%
X4980000Y-8972579D03*
X4980000Y-8790079D03*
%TD*%
D11*
%TO.C,R33*%
X17145477Y-7206805D03*
X17274524Y-7335852D03*
%TD*%
D21*
%TO.C,FB1*%
X15983900Y-5576719D03*
X15860156Y-5700462D03*
%TD*%
D16*
%TO.C,C6*%
X6700000Y-5857579D03*
X6700000Y-5545079D03*
%TD*%
%TO.C,C28*%
X20500000Y-8617579D03*
X20500000Y-8305079D03*
%TD*%
D14*
%TO.C,C9*%
X8620000Y-8535079D03*
X8620000Y-8847579D03*
%TD*%
D22*
%TO.C,U4*%
X15233552Y-6775211D03*
X15268907Y-6739856D03*
X15304262Y-6704500D03*
X15339618Y-6669145D03*
X15374973Y-6633790D03*
X15410329Y-6598434D03*
X15445684Y-6563079D03*
X15481039Y-6527724D03*
X15516395Y-6492368D03*
X15551750Y-6457013D03*
X15587105Y-6421658D03*
X15622461Y-6386302D03*
X15657816Y-6350947D03*
X15693171Y-6315591D03*
X15728527Y-6280236D03*
X15763882Y-6244881D03*
D23*
X16036118Y-6244881D03*
X16071473Y-6280236D03*
X16106829Y-6315591D03*
X16142184Y-6350947D03*
X16177539Y-6386302D03*
X16212895Y-6421658D03*
X16248250Y-6457013D03*
X16283605Y-6492368D03*
X16318961Y-6527724D03*
X16354316Y-6563079D03*
X16389671Y-6598434D03*
X16425027Y-6633790D03*
X16460382Y-6669145D03*
X16495737Y-6704500D03*
X16531093Y-6739856D03*
X16566448Y-6775211D03*
D22*
X16566448Y-7047447D03*
X16531093Y-7082802D03*
X16495737Y-7118158D03*
X16460382Y-7153513D03*
X16425027Y-7188868D03*
X16389671Y-7224224D03*
X16354316Y-7259579D03*
X16318961Y-7294934D03*
X16283605Y-7330290D03*
X16248250Y-7365645D03*
X16212895Y-7401000D03*
X16177539Y-7436356D03*
X16142184Y-7471711D03*
X16106829Y-7507066D03*
X16071473Y-7542422D03*
X16036118Y-7577777D03*
D23*
X15763882Y-7577777D03*
X15728527Y-7542422D03*
X15693171Y-7507066D03*
X15657816Y-7471711D03*
X15622461Y-7436356D03*
X15587105Y-7401000D03*
X15551750Y-7365645D03*
X15516395Y-7330290D03*
X15481039Y-7294934D03*
X15445684Y-7259579D03*
X15410329Y-7224224D03*
X15374973Y-7188868D03*
X15339618Y-7153513D03*
X15304262Y-7118158D03*
X15268907Y-7082802D03*
X15233552Y-7047447D03*
%TD*%
D24*
%TO.C,U1*%
X8533750Y-5496329D03*
D25*
X8683750Y-5505079D03*
D24*
X8833750Y-5496329D03*
%TD*%
D16*
%TO.C,C25*%
X10450000Y-8567579D03*
X10450000Y-8255079D03*
%TD*%
D15*
%TO.C,C22*%
X16260485Y-6071814D03*
X16039515Y-5850844D03*
%TD*%
D13*
%TO.C,R18*%
X14737817Y-6492922D03*
X14920317Y-6492922D03*
%TD*%
D18*
%TO.C,R40*%
X19905000Y-8111329D03*
X19595000Y-8111329D03*
%TD*%
D16*
%TO.C,C5*%
X9050000Y-5477579D03*
X9050000Y-5165079D03*
%TD*%
D26*
%TO.C,SW4*%
X13424289Y-5941329D03*
X13834289Y-5941329D03*
X13424289Y-5781329D03*
X13834289Y-5781329D03*
%TD*%
D13*
%TO.C,R19*%
X17882000Y-4961329D03*
X18064500Y-4961329D03*
%TD*%
%TO.C,R22*%
X18537500Y-5561329D03*
X18720000Y-5561329D03*
%TD*%
%TO.C,R15*%
X13088039Y-5761329D03*
X13270539Y-5761329D03*
%TD*%
D27*
%TO.C,D3*%
X18023250Y-5261329D03*
X17848250Y-5261329D03*
%TD*%
D11*
%TO.C,R34*%
X16925477Y-7426805D03*
X17054524Y-7555852D03*
%TD*%
%TO.C,R36*%
X16815477Y-7536805D03*
X16944524Y-7665852D03*
%TD*%
D28*
%TO.C,C24*%
X10756250Y-7311329D03*
X10443750Y-7311329D03*
%TD*%
D16*
%TO.C,C27*%
X16450000Y-8617579D03*
X16450000Y-8305079D03*
%TD*%
D15*
%TO.C,C11*%
X16105737Y-5425853D03*
X15884766Y-5204882D03*
%TD*%
D29*
%TO.C,C21*%
X16063750Y-7841329D03*
X16376250Y-7841329D03*
%TD*%
D16*
%TO.C,C18*%
X14522685Y-6484211D03*
X14522685Y-6171711D03*
%TD*%
D30*
%TO.C,R9*%
X6280000Y-7206329D03*
X6280000Y-7516329D03*
%TD*%
D20*
%TO.C,R12*%
X4820000Y-8802579D03*
X4820000Y-8620079D03*
%TD*%
D31*
%TO.C,R23*%
X14474523Y-7616805D03*
X14345476Y-7745852D03*
%TD*%
D14*
%TO.C,C7*%
X5820000Y-7865079D03*
X5820000Y-8177579D03*
%TD*%
D16*
%TO.C,C4*%
X8310000Y-5817579D03*
X8310000Y-5505079D03*
%TD*%
D14*
%TO.C,C8*%
X7850000Y-8225079D03*
X7850000Y-8537579D03*
%TD*%
D27*
%TO.C,D2*%
X17705250Y-4962329D03*
X17530250Y-4962329D03*
%TD*%
D32*
%TO.C,L1*%
X6950000Y-7556329D03*
X6950000Y-8386329D03*
%TD*%
D11*
%TO.C,R35*%
X17035477Y-7316805D03*
X17164524Y-7445852D03*
%TD*%
D33*
%TO.C,R14*%
X14774523Y-8215852D03*
X14645476Y-8086805D03*
%TD*%
D14*
%TO.C,C19*%
X21460000Y-5365079D03*
X21460000Y-5677579D03*
%TD*%
D13*
%TO.C,R29*%
X14517500Y-5662329D03*
X14700000Y-5662329D03*
%TD*%
D14*
%TO.C,C20*%
X14870000Y-6755079D03*
X14870000Y-7067579D03*
%TD*%
D31*
%TO.C,R38*%
X17324524Y-5906805D03*
X17195477Y-6035852D03*
%TD*%
%TO.C,R27*%
X14574523Y-7726805D03*
X14445476Y-7855852D03*
%TD*%
D27*
%TO.C,D4*%
X18360750Y-5561329D03*
X18185750Y-5561329D03*
%TD*%
D34*
%TO.C,P1*%
X10375000Y-5410000D03*
X10475000Y-5410000D03*
D35*
X10600000Y-5410000D03*
X10700000Y-5410000D03*
X10750000Y-5410000D03*
X10850000Y-5410000D03*
D34*
X10975000Y-5410000D03*
X11075000Y-5410000D03*
X11075000Y-5410000D03*
X10975000Y-5410000D03*
D35*
X10900000Y-5410000D03*
X10800000Y-5410000D03*
X10650000Y-5410000D03*
X10550000Y-5410000D03*
D34*
X10475000Y-5410000D03*
X10375000Y-5410000D03*
%TD*%
D36*
%TO.C,R13*%
X13270539Y-5961329D03*
X13088039Y-5961329D03*
%TD*%
D13*
%TO.C,R30*%
X14508750Y-5361329D03*
X14691250Y-5361329D03*
%TD*%
D31*
%TO.C,R37*%
X17104524Y-5686805D03*
X16975477Y-5815852D03*
%TD*%
D15*
%TO.C,C14*%
X15130485Y-8071814D03*
X14909515Y-7850844D03*
%TD*%
D13*
%TO.C,R21*%
X18200000Y-5261329D03*
X18382500Y-5261329D03*
%TD*%
D15*
%TO.C,C12*%
X16270485Y-5261814D03*
X16049515Y-5040844D03*
%TD*%
D17*
%TO.C,R24*%
X17415477Y-6255852D03*
X17544524Y-6126805D03*
%TD*%
D29*
%TO.C,C6*%
X5723750Y-6791329D03*
X6036250Y-6791329D03*
%TD*%
D13*
%TO.C,R26*%
X14517500Y-5212329D03*
X14700000Y-5212329D03*
%TD*%
%TO.C,R10*%
X4778750Y-8431329D03*
X4961250Y-8431329D03*
%TD*%
D31*
%TO.C,R39*%
X17214524Y-5796805D03*
X17085477Y-5925852D03*
%TD*%
D17*
%TO.C,R7*%
X19700000Y-5481329D03*
X19829047Y-5352282D03*
%TD*%
D16*
%TO.C,C17*%
X14522685Y-7049896D03*
X14522685Y-6737396D03*
%TD*%
D37*
X4500000Y-4764000D02*
X4500000Y-14060000D01*
X4500000Y-14060000D02*
X25150000Y-14060000D01*
X10055000Y-4764000D02*
X4500000Y-4764000D01*
X11395000Y-4760000D02*
X11395000Y-4764000D01*
X25150000Y-4760000D02*
X11395000Y-4760000D01*
X25150000Y-14060000D02*
X25150000Y-4760000D01*
%TO.C,P1*%
D38*
X10055000Y-4764000D02*
X10268000Y-4764000D01*
X10268000Y-5200000D02*
X10268000Y-4764000D01*
X10283000Y-5215000D02*
X11167000Y-5215000D01*
X11182000Y-4764000D02*
X11395000Y-4764000D01*
X11182000Y-5200000D02*
X11182000Y-4764000D01*
X10283000Y-5215000D02*
G75*
G02*
X10268000Y-5200000I0J15000D01*
G01*
X11182000Y-5200000D02*
G75*
G02*
X11167000Y-5215000I-15000J0D01*
G01*
%TD*%
M02*
