%TF.GenerationSoftware,KiCad,Pcbnew,8.0.7*%
%TF.CreationDate,2025-02-26T20:45:26+01:00*%
%TF.ProjectId,zegarek,7a656761-7265-46b2-9e6b-696361645f70,rev?*%
%TF.SameCoordinates,Original*%
%TF.FileFunction,Legend,Top*%
%TF.FilePolarity,Positive*%
%FSLAX46Y46*%
G04 Gerber Fmt 4.6, Leading zero omitted, Abs format (unit mm)*
G04 Created by KiCad (PCBNEW 8.0.7) date 2025-02-26 20:45:26*
%MOMM*%
%LPD*%
G01*
G04 APERTURE LIST*
%ADD10C,0.150000*%
%ADD11C,0.120000*%
G04 APERTURE END LIST*
D10*
X134738095Y-103454819D02*
X134738095Y-104264342D01*
X134738095Y-104264342D02*
X134785714Y-104359580D01*
X134785714Y-104359580D02*
X134833333Y-104407200D01*
X134833333Y-104407200D02*
X134928571Y-104454819D01*
X134928571Y-104454819D02*
X135119047Y-104454819D01*
X135119047Y-104454819D02*
X135214285Y-104407200D01*
X135214285Y-104407200D02*
X135261904Y-104359580D01*
X135261904Y-104359580D02*
X135309523Y-104264342D01*
X135309523Y-104264342D02*
X135309523Y-103454819D01*
X136309523Y-104454819D02*
X135738095Y-104454819D01*
X136023809Y-104454819D02*
X136023809Y-103454819D01*
X136023809Y-103454819D02*
X135928571Y-103597676D01*
X135928571Y-103597676D02*
X135833333Y-103692914D01*
X135833333Y-103692914D02*
X135738095Y-103740533D01*
X161104819Y-105666666D02*
X160628628Y-105999999D01*
X161104819Y-106238094D02*
X160104819Y-106238094D01*
X160104819Y-106238094D02*
X160104819Y-105857142D01*
X160104819Y-105857142D02*
X160152438Y-105761904D01*
X160152438Y-105761904D02*
X160200057Y-105714285D01*
X160200057Y-105714285D02*
X160295295Y-105666666D01*
X160295295Y-105666666D02*
X160438152Y-105666666D01*
X160438152Y-105666666D02*
X160533390Y-105714285D01*
X160533390Y-105714285D02*
X160581009Y-105761904D01*
X160581009Y-105761904D02*
X160628628Y-105857142D01*
X160628628Y-105857142D02*
X160628628Y-106238094D01*
X160104819Y-104761904D02*
X160104819Y-105238094D01*
X160104819Y-105238094D02*
X160581009Y-105285713D01*
X160581009Y-105285713D02*
X160533390Y-105238094D01*
X160533390Y-105238094D02*
X160485771Y-105142856D01*
X160485771Y-105142856D02*
X160485771Y-104904761D01*
X160485771Y-104904761D02*
X160533390Y-104809523D01*
X160533390Y-104809523D02*
X160581009Y-104761904D01*
X160581009Y-104761904D02*
X160676247Y-104714285D01*
X160676247Y-104714285D02*
X160914342Y-104714285D01*
X160914342Y-104714285D02*
X161009580Y-104761904D01*
X161009580Y-104761904D02*
X161057200Y-104809523D01*
X161057200Y-104809523D02*
X161104819Y-104904761D01*
X161104819Y-104904761D02*
X161104819Y-105142856D01*
X161104819Y-105142856D02*
X161057200Y-105238094D01*
X161057200Y-105238094D02*
X161009580Y-105285713D01*
X161104819Y-97166666D02*
X160628628Y-97499999D01*
X161104819Y-97738094D02*
X160104819Y-97738094D01*
X160104819Y-97738094D02*
X160104819Y-97357142D01*
X160104819Y-97357142D02*
X160152438Y-97261904D01*
X160152438Y-97261904D02*
X160200057Y-97214285D01*
X160200057Y-97214285D02*
X160295295Y-97166666D01*
X160295295Y-97166666D02*
X160438152Y-97166666D01*
X160438152Y-97166666D02*
X160533390Y-97214285D01*
X160533390Y-97214285D02*
X160581009Y-97261904D01*
X160581009Y-97261904D02*
X160628628Y-97357142D01*
X160628628Y-97357142D02*
X160628628Y-97738094D01*
X160438152Y-96309523D02*
X161104819Y-96309523D01*
X160057200Y-96547618D02*
X160771485Y-96785713D01*
X160771485Y-96785713D02*
X160771485Y-96166666D01*
X143104819Y-106166666D02*
X142628628Y-106499999D01*
X143104819Y-106738094D02*
X142104819Y-106738094D01*
X142104819Y-106738094D02*
X142104819Y-106357142D01*
X142104819Y-106357142D02*
X142152438Y-106261904D01*
X142152438Y-106261904D02*
X142200057Y-106214285D01*
X142200057Y-106214285D02*
X142295295Y-106166666D01*
X142295295Y-106166666D02*
X142438152Y-106166666D01*
X142438152Y-106166666D02*
X142533390Y-106214285D01*
X142533390Y-106214285D02*
X142581009Y-106261904D01*
X142581009Y-106261904D02*
X142628628Y-106357142D01*
X142628628Y-106357142D02*
X142628628Y-106738094D01*
X142104819Y-105833332D02*
X142104819Y-105214285D01*
X142104819Y-105214285D02*
X142485771Y-105547618D01*
X142485771Y-105547618D02*
X142485771Y-105404761D01*
X142485771Y-105404761D02*
X142533390Y-105309523D01*
X142533390Y-105309523D02*
X142581009Y-105261904D01*
X142581009Y-105261904D02*
X142676247Y-105214285D01*
X142676247Y-105214285D02*
X142914342Y-105214285D01*
X142914342Y-105214285D02*
X143009580Y-105261904D01*
X143009580Y-105261904D02*
X143057200Y-105309523D01*
X143057200Y-105309523D02*
X143104819Y-105404761D01*
X143104819Y-105404761D02*
X143104819Y-105690475D01*
X143104819Y-105690475D02*
X143057200Y-105785713D01*
X143057200Y-105785713D02*
X143009580Y-105833332D01*
X132158333Y-107954819D02*
X131825000Y-107478628D01*
X131586905Y-107954819D02*
X131586905Y-106954819D01*
X131586905Y-106954819D02*
X131967857Y-106954819D01*
X131967857Y-106954819D02*
X132063095Y-107002438D01*
X132063095Y-107002438D02*
X132110714Y-107050057D01*
X132110714Y-107050057D02*
X132158333Y-107145295D01*
X132158333Y-107145295D02*
X132158333Y-107288152D01*
X132158333Y-107288152D02*
X132110714Y-107383390D01*
X132110714Y-107383390D02*
X132063095Y-107431009D01*
X132063095Y-107431009D02*
X131967857Y-107478628D01*
X131967857Y-107478628D02*
X131586905Y-107478628D01*
X132539286Y-107050057D02*
X132586905Y-107002438D01*
X132586905Y-107002438D02*
X132682143Y-106954819D01*
X132682143Y-106954819D02*
X132920238Y-106954819D01*
X132920238Y-106954819D02*
X133015476Y-107002438D01*
X133015476Y-107002438D02*
X133063095Y-107050057D01*
X133063095Y-107050057D02*
X133110714Y-107145295D01*
X133110714Y-107145295D02*
X133110714Y-107240533D01*
X133110714Y-107240533D02*
X133063095Y-107383390D01*
X133063095Y-107383390D02*
X132491667Y-107954819D01*
X132491667Y-107954819D02*
X133110714Y-107954819D01*
X130774819Y-104666666D02*
X130298628Y-104999999D01*
X130774819Y-105238094D02*
X129774819Y-105238094D01*
X129774819Y-105238094D02*
X129774819Y-104857142D01*
X129774819Y-104857142D02*
X129822438Y-104761904D01*
X129822438Y-104761904D02*
X129870057Y-104714285D01*
X129870057Y-104714285D02*
X129965295Y-104666666D01*
X129965295Y-104666666D02*
X130108152Y-104666666D01*
X130108152Y-104666666D02*
X130203390Y-104714285D01*
X130203390Y-104714285D02*
X130251009Y-104761904D01*
X130251009Y-104761904D02*
X130298628Y-104857142D01*
X130298628Y-104857142D02*
X130298628Y-105238094D01*
X130774819Y-103714285D02*
X130774819Y-104285713D01*
X130774819Y-103999999D02*
X129774819Y-103999999D01*
X129774819Y-103999999D02*
X129917676Y-104095237D01*
X129917676Y-104095237D02*
X130012914Y-104190475D01*
X130012914Y-104190475D02*
X130060533Y-104285713D01*
X154320057Y-107095238D02*
X154272438Y-107190476D01*
X154272438Y-107190476D02*
X154177200Y-107285714D01*
X154177200Y-107285714D02*
X154034342Y-107428571D01*
X154034342Y-107428571D02*
X153986723Y-107523809D01*
X153986723Y-107523809D02*
X153986723Y-107619047D01*
X154224819Y-107571428D02*
X154177200Y-107666666D01*
X154177200Y-107666666D02*
X154081961Y-107761904D01*
X154081961Y-107761904D02*
X153891485Y-107809523D01*
X153891485Y-107809523D02*
X153558152Y-107809523D01*
X153558152Y-107809523D02*
X153367676Y-107761904D01*
X153367676Y-107761904D02*
X153272438Y-107666666D01*
X153272438Y-107666666D02*
X153224819Y-107571428D01*
X153224819Y-107571428D02*
X153224819Y-107380952D01*
X153224819Y-107380952D02*
X153272438Y-107285714D01*
X153272438Y-107285714D02*
X153367676Y-107190476D01*
X153367676Y-107190476D02*
X153558152Y-107142857D01*
X153558152Y-107142857D02*
X153891485Y-107142857D01*
X153891485Y-107142857D02*
X154081961Y-107190476D01*
X154081961Y-107190476D02*
X154177200Y-107285714D01*
X154177200Y-107285714D02*
X154224819Y-107380952D01*
X154224819Y-107380952D02*
X154224819Y-107571428D01*
X154224819Y-106190476D02*
X154224819Y-106761904D01*
X154224819Y-106476190D02*
X153224819Y-106476190D01*
X153224819Y-106476190D02*
X153367676Y-106571428D01*
X153367676Y-106571428D02*
X153462914Y-106666666D01*
X153462914Y-106666666D02*
X153510533Y-106761904D01*
X179647319Y-99815833D02*
X180361604Y-99815833D01*
X180361604Y-99815833D02*
X180504461Y-99863452D01*
X180504461Y-99863452D02*
X180599700Y-99958690D01*
X180599700Y-99958690D02*
X180647319Y-100101547D01*
X180647319Y-100101547D02*
X180647319Y-100196785D01*
X179742557Y-99387261D02*
X179694938Y-99339642D01*
X179694938Y-99339642D02*
X179647319Y-99244404D01*
X179647319Y-99244404D02*
X179647319Y-99006309D01*
X179647319Y-99006309D02*
X179694938Y-98911071D01*
X179694938Y-98911071D02*
X179742557Y-98863452D01*
X179742557Y-98863452D02*
X179837795Y-98815833D01*
X179837795Y-98815833D02*
X179933033Y-98815833D01*
X179933033Y-98815833D02*
X180075890Y-98863452D01*
X180075890Y-98863452D02*
X180647319Y-99434880D01*
X180647319Y-99434880D02*
X180647319Y-98815833D01*
X129641666Y-111859819D02*
X129641666Y-112574104D01*
X129641666Y-112574104D02*
X129594047Y-112716961D01*
X129594047Y-112716961D02*
X129498809Y-112812200D01*
X129498809Y-112812200D02*
X129355952Y-112859819D01*
X129355952Y-112859819D02*
X129260714Y-112859819D01*
X130641666Y-112859819D02*
X130070238Y-112859819D01*
X130355952Y-112859819D02*
X130355952Y-111859819D01*
X130355952Y-111859819D02*
X130260714Y-112002676D01*
X130260714Y-112002676D02*
X130165476Y-112097914D01*
X130165476Y-112097914D02*
X130070238Y-112145533D01*
X157858095Y-90554819D02*
X157858095Y-89554819D01*
X158429523Y-90554819D02*
X158000952Y-89983390D01*
X158429523Y-89554819D02*
X157858095Y-90126247D01*
X142833333Y-98859580D02*
X142785714Y-98907200D01*
X142785714Y-98907200D02*
X142642857Y-98954819D01*
X142642857Y-98954819D02*
X142547619Y-98954819D01*
X142547619Y-98954819D02*
X142404762Y-98907200D01*
X142404762Y-98907200D02*
X142309524Y-98811961D01*
X142309524Y-98811961D02*
X142261905Y-98716723D01*
X142261905Y-98716723D02*
X142214286Y-98526247D01*
X142214286Y-98526247D02*
X142214286Y-98383390D01*
X142214286Y-98383390D02*
X142261905Y-98192914D01*
X142261905Y-98192914D02*
X142309524Y-98097676D01*
X142309524Y-98097676D02*
X142404762Y-98002438D01*
X142404762Y-98002438D02*
X142547619Y-97954819D01*
X142547619Y-97954819D02*
X142642857Y-97954819D01*
X142642857Y-97954819D02*
X142785714Y-98002438D01*
X142785714Y-98002438D02*
X142833333Y-98050057D01*
X143214286Y-98050057D02*
X143261905Y-98002438D01*
X143261905Y-98002438D02*
X143357143Y-97954819D01*
X143357143Y-97954819D02*
X143595238Y-97954819D01*
X143595238Y-97954819D02*
X143690476Y-98002438D01*
X143690476Y-98002438D02*
X143738095Y-98050057D01*
X143738095Y-98050057D02*
X143785714Y-98145295D01*
X143785714Y-98145295D02*
X143785714Y-98240533D01*
X143785714Y-98240533D02*
X143738095Y-98383390D01*
X143738095Y-98383390D02*
X143166667Y-98954819D01*
X143166667Y-98954819D02*
X143785714Y-98954819D01*
X131395833Y-97454580D02*
X131348214Y-97502200D01*
X131348214Y-97502200D02*
X131205357Y-97549819D01*
X131205357Y-97549819D02*
X131110119Y-97549819D01*
X131110119Y-97549819D02*
X130967262Y-97502200D01*
X130967262Y-97502200D02*
X130872024Y-97406961D01*
X130872024Y-97406961D02*
X130824405Y-97311723D01*
X130824405Y-97311723D02*
X130776786Y-97121247D01*
X130776786Y-97121247D02*
X130776786Y-96978390D01*
X130776786Y-96978390D02*
X130824405Y-96787914D01*
X130824405Y-96787914D02*
X130872024Y-96692676D01*
X130872024Y-96692676D02*
X130967262Y-96597438D01*
X130967262Y-96597438D02*
X131110119Y-96549819D01*
X131110119Y-96549819D02*
X131205357Y-96549819D01*
X131205357Y-96549819D02*
X131348214Y-96597438D01*
X131348214Y-96597438D02*
X131395833Y-96645057D01*
X132348214Y-97549819D02*
X131776786Y-97549819D01*
X132062500Y-97549819D02*
X132062500Y-96549819D01*
X132062500Y-96549819D02*
X131967262Y-96692676D01*
X131967262Y-96692676D02*
X131872024Y-96787914D01*
X131872024Y-96787914D02*
X131776786Y-96835533D01*
D11*
%TO.C,U1*%
X135500000Y-106560000D02*
X137450000Y-106560000D01*
X135500000Y-106560000D02*
X133550000Y-106560000D01*
X135500000Y-101440000D02*
X137450000Y-101440000D01*
X135500000Y-101440000D02*
X133550000Y-101440000D01*
X138440000Y-106795000D02*
X137960000Y-106795000D01*
X138200000Y-106465000D01*
X138440000Y-106795000D01*
G36*
X138440000Y-106795000D02*
G01*
X137960000Y-106795000D01*
X138200000Y-106465000D01*
X138440000Y-106795000D01*
G37*
%TO.C,R5*%
X159735000Y-105272936D02*
X159735000Y-105727064D01*
X158265000Y-105272936D02*
X158265000Y-105727064D01*
%TO.C,R4*%
X159735000Y-96772936D02*
X159735000Y-97227064D01*
X158265000Y-96772936D02*
X158265000Y-97227064D01*
%TO.C,R3*%
X141735000Y-105772936D02*
X141735000Y-106227064D01*
X140265000Y-105772936D02*
X140265000Y-106227064D01*
%TO.C,R2*%
X132639564Y-110235000D02*
X132185436Y-110235000D01*
X132639564Y-108765000D02*
X132185436Y-108765000D01*
%TO.C,R1*%
X127590000Y-103772936D02*
X127590000Y-105227064D01*
X129410000Y-103772936D02*
X129410000Y-105227064D01*
%TO.C,Q1*%
X152770000Y-101880000D02*
X148129000Y-101880000D01*
X152770000Y-101880000D02*
X152770000Y-112120000D01*
X151260000Y-101880000D02*
X151260000Y-112120000D01*
X148129000Y-101880000D02*
X148129000Y-112120000D01*
X152770000Y-105150000D02*
X151260000Y-105150000D01*
X152770000Y-108851000D02*
X151260000Y-108851000D01*
X152770000Y-112120000D02*
X148129000Y-112120000D01*
%TO.C,L1*%
X127700000Y-84700000D02*
X138300000Y-84700000D01*
X127700000Y-87900000D02*
X127700000Y-84700000D01*
X127700000Y-95300000D02*
X127700000Y-92100000D01*
X138300000Y-84700000D02*
X138300000Y-87900000D01*
X138300000Y-92100000D02*
X138300000Y-95300000D01*
X138300000Y-95300000D02*
X127700000Y-95300000D01*
%TO.C,J2*%
X180892500Y-105062500D02*
X180892500Y-103062500D01*
X182142500Y-105062500D02*
X180892500Y-105062500D01*
X181282500Y-104672500D02*
X188752500Y-104672500D01*
X188752500Y-104672500D02*
X188752500Y-94292500D01*
X182242500Y-103522500D02*
X182242500Y-100522500D01*
X183592500Y-103522500D02*
X183592500Y-102772500D01*
X187892500Y-103522500D02*
X183592500Y-103522500D01*
X183242500Y-103272500D02*
X182242500Y-103522500D01*
X183242500Y-102772500D02*
X183242500Y-103272500D01*
X183592500Y-102772500D02*
X183242500Y-102772500D01*
X187892500Y-102772500D02*
X187892500Y-103522500D01*
X183242500Y-101272500D02*
X183592500Y-101272500D01*
X183592500Y-101272500D02*
X183592500Y-100522500D01*
X183242500Y-100772500D02*
X183242500Y-101272500D01*
X182242500Y-100522500D02*
X183242500Y-100772500D01*
X183592500Y-100522500D02*
X187892500Y-100522500D01*
X187892500Y-100522500D02*
X187892500Y-101272500D01*
X182242500Y-98442500D02*
X182242500Y-95442500D01*
X183592500Y-98442500D02*
X183592500Y-97692500D01*
X187892500Y-98442500D02*
X183592500Y-98442500D01*
X183242500Y-98192500D02*
X182242500Y-98442500D01*
X183242500Y-97692500D02*
X183242500Y-98192500D01*
X183592500Y-97692500D02*
X183242500Y-97692500D01*
X187892500Y-97692500D02*
X187892500Y-98442500D01*
X183242500Y-96192500D02*
X183592500Y-96192500D01*
X183592500Y-96192500D02*
X183592500Y-95442500D01*
X183242500Y-95692500D02*
X183242500Y-96192500D01*
X182242500Y-95442500D02*
X183242500Y-95692500D01*
X183592500Y-95442500D02*
X187892500Y-95442500D01*
X187892500Y-95442500D02*
X187892500Y-96192500D01*
X181282500Y-94292500D02*
X181282500Y-104672500D01*
X188752500Y-94292500D02*
X181282500Y-94292500D01*
X187892500Y-102772500D02*
G75*
G02*
X187892344Y-101272853I1700000J750000D01*
G01*
X187892500Y-97692500D02*
G75*
G02*
X187892344Y-96192853I1700000J750000D01*
G01*
%TO.C,J1*%
X128305000Y-113370000D02*
X126975000Y-113370000D01*
X128305000Y-112040000D02*
X128305000Y-113370000D01*
X128305000Y-110770000D02*
X128305000Y-108170000D01*
X128305000Y-110770000D02*
X125645000Y-110770000D01*
X128305000Y-108170000D02*
X125645000Y-108170000D01*
X125645000Y-110770000D02*
X125645000Y-108170000D01*
%TO.C,D1*%
X156280000Y-87500000D02*
X155370000Y-87500000D01*
X155370000Y-90220000D02*
X155370000Y-84780000D01*
X155370000Y-84780000D02*
X145630000Y-84780000D01*
X153945000Y-90220000D02*
X153945000Y-84780000D01*
X153825000Y-90220000D02*
X153825000Y-84780000D01*
X153705000Y-90220000D02*
X153705000Y-84780000D01*
X145630000Y-90220000D02*
X155370000Y-90220000D01*
X145630000Y-84780000D02*
X145630000Y-90220000D01*
X144720000Y-87500000D02*
X145630000Y-87500000D01*
%TO.C,C3*%
X169600000Y-84280000D02*
X169600000Y-86080000D01*
X170500000Y-85180000D02*
X168700000Y-85180000D01*
X167000000Y-85440000D02*
X167000000Y-86380000D01*
X172120000Y-86380000D02*
X161880000Y-86380000D01*
X172120000Y-86380000D02*
X172120000Y-88180000D01*
X161880000Y-86380000D02*
X161880000Y-88180000D01*
X172120000Y-88180000D02*
X171220000Y-89080000D01*
X161880000Y-88180000D02*
X162780000Y-89080000D01*
X171220000Y-89080000D02*
X172120000Y-89980000D01*
X162780000Y-89080000D02*
X161880000Y-89980000D01*
X172120000Y-89980000D02*
X172120000Y-111620000D01*
X161880000Y-89980000D02*
X161880000Y-111620000D01*
X172120000Y-111620000D02*
X161880000Y-111620000D01*
X167000000Y-112560000D02*
X167000000Y-111620000D01*
%TO.C,C2*%
X138726248Y-98090000D02*
X140148752Y-98090000D01*
X138726248Y-99910000D02*
X140148752Y-99910000D01*
%TO.C,C1*%
X131273752Y-100005000D02*
X129851248Y-100005000D01*
X131273752Y-98185000D02*
X129851248Y-98185000D01*
%TD*%
M02*
