%TF.GenerationSoftware,KiCad,Pcbnew,10.0.4*%
%TF.CreationDate,2026-08-05T15:57:54+02:00*%
%TF.ProjectId,zegarek,7a656761-7265-46b2-9e6b-696361645f70,rev?*%
%TF.SameCoordinates,Original*%
%TF.FileFunction,Legend,Top*%
%TF.FilePolarity,Positive*%
%FSLAX46Y46*%
G04 Gerber Fmt 4.6, Leading zero omitted, Abs format (unit mm)*
G04 Created by KiCad (PCBNEW 10.0.4) date 2026-08-05 15:57:54*
%MOMM*%
%LPD*%
G01*
G04 APERTURE LIST*
G04 Aperture macros list*
%AMRoundRect*
0 Rectangle with rounded corners*
0 $1 Rounding radius*
0 $2 $3 $4 $5 $6 $7 $8 $9 X,Y pos of 4 corners*
0 Add a 4 corners polygon primitive as box body*
4,1,4,$2,$3,$4,$5,$6,$7,$8,$9,$2,$3,0*
0 Add four circle primitives for the rounded corners*
1,1,$1+$1,$2,$3*
1,1,$1+$1,$4,$5*
1,1,$1+$1,$6,$7*
1,1,$1+$1,$8,$9*
0 Add four rect primitives between the rounded corners*
20,1,$1+$1,$2,$3,$4,$5,0*
20,1,$1+$1,$4,$5,$6,$7,0*
20,1,$1+$1,$6,$7,$8,$9,0*
20,1,$1+$1,$8,$9,$2,$3,0*%
%AMRotRect*
0 Rectangle, with rotation*
0 The origin of the aperture is its center*
0 $1 length*
0 $2 width*
0 $3 Rotation angle, in degrees counterclockwise*
0 Add horizontal line*
21,1,$1,$2,0,0,$3*%
G04 Aperture macros list end*
%ADD10C,0.300000*%
%ADD11C,0.150000*%
%ADD12C,0.120000*%
%ADD13C,0.400000*%
%ADD14C,3.500000*%
%ADD15R,1.905000X2.000000*%
%ADD16O,1.905000X2.000000*%
%ADD17RoundRect,0.237500X-0.250000X-0.237500X0.250000X-0.237500X0.250000X0.237500X-0.250000X0.237500X0*%
%ADD18C,2.130000*%
%ADD19R,1.800000X3.000000*%
%ADD20O,1.800000X3.000000*%
%ADD21O,1.600000X3.000000*%
%ADD22C,0.600000*%
%ADD23O,0.900000X1.800000*%
%ADD24O,0.900000X1.500000*%
%ADD25R,1.700000X1.700000*%
%ADD26C,1.700000*%
%ADD27R,0.900000X1.000000*%
%ADD28RoundRect,1.125000X-1.101193X1.148313X-1.148313X-1.101193X1.101193X-1.148313X1.148313X1.101193X0*%
%ADD29C,4.500000*%
%ADD30RoundRect,0.237500X0.250000X0.237500X-0.250000X0.237500X-0.250000X-0.237500X0.250000X-0.237500X0*%
%ADD31C,1.000000*%
%ADD32RoundRect,0.250000X-0.550000X0.950000X-0.550000X-0.950000X0.550000X-0.950000X0.550000X0.950000X0*%
%ADD33O,1.600000X2.400000*%
%ADD34RotRect,1.700000X1.700000X45.000000*%
%ADD35RoundRect,0.237500X-0.237500X0.250000X-0.237500X-0.250000X0.237500X-0.250000X0.237500X0.250000X0*%
%ADD36RoundRect,0.250000X-1.350000X-1.350000X1.350000X-1.350000X1.350000X1.350000X-1.350000X1.350000X0*%
%ADD37C,3.200000*%
%ADD38R,2.000000X2.000000*%
%ADD39C,2.000000*%
%ADD40RoundRect,0.250001X-0.949999X-0.949999X0.949999X-0.949999X0.949999X0.949999X-0.949999X0.949999X0*%
%ADD41C,2.400000*%
%ADD42C,1.800000*%
%ADD43RoundRect,0.250000X-0.412500X-0.650000X0.412500X-0.650000X0.412500X0.650000X-0.412500X0.650000X0*%
%ADD44RoundRect,0.237500X0.237500X-0.250000X0.237500X0.250000X-0.237500X0.250000X-0.237500X-0.250000X0*%
G04 APERTURE END LIST*
D10*
X169954510Y-51100828D02*
X169954510Y-49600828D01*
X169954510Y-49600828D02*
X170311653Y-49600828D01*
X170311653Y-49600828D02*
X170525939Y-49672257D01*
X170525939Y-49672257D02*
X170668796Y-49815114D01*
X170668796Y-49815114D02*
X170740225Y-49957971D01*
X170740225Y-49957971D02*
X170811653Y-50243685D01*
X170811653Y-50243685D02*
X170811653Y-50457971D01*
X170811653Y-50457971D02*
X170740225Y-50743685D01*
X170740225Y-50743685D02*
X170668796Y-50886542D01*
X170668796Y-50886542D02*
X170525939Y-51029400D01*
X170525939Y-51029400D02*
X170311653Y-51100828D01*
X170311653Y-51100828D02*
X169954510Y-51100828D01*
X171454510Y-50315114D02*
X171954510Y-50315114D01*
X172168796Y-51100828D02*
X171454510Y-51100828D01*
X171454510Y-51100828D02*
X171454510Y-49600828D01*
X171454510Y-49600828D02*
X172168796Y-49600828D01*
X173311653Y-50315114D02*
X173525939Y-50386542D01*
X173525939Y-50386542D02*
X173597368Y-50457971D01*
X173597368Y-50457971D02*
X173668796Y-50600828D01*
X173668796Y-50600828D02*
X173668796Y-50815114D01*
X173668796Y-50815114D02*
X173597368Y-50957971D01*
X173597368Y-50957971D02*
X173525939Y-51029400D01*
X173525939Y-51029400D02*
X173383082Y-51100828D01*
X173383082Y-51100828D02*
X172811653Y-51100828D01*
X172811653Y-51100828D02*
X172811653Y-49600828D01*
X172811653Y-49600828D02*
X173311653Y-49600828D01*
X173311653Y-49600828D02*
X173454511Y-49672257D01*
X173454511Y-49672257D02*
X173525939Y-49743685D01*
X173525939Y-49743685D02*
X173597368Y-49886542D01*
X173597368Y-49886542D02*
X173597368Y-50029400D01*
X173597368Y-50029400D02*
X173525939Y-50172257D01*
X173525939Y-50172257D02*
X173454511Y-50243685D01*
X173454511Y-50243685D02*
X173311653Y-50315114D01*
X173311653Y-50315114D02*
X172811653Y-50315114D01*
X174311653Y-49600828D02*
X174311653Y-50815114D01*
X174311653Y-50815114D02*
X174383082Y-50957971D01*
X174383082Y-50957971D02*
X174454511Y-51029400D01*
X174454511Y-51029400D02*
X174597368Y-51100828D01*
X174597368Y-51100828D02*
X174883082Y-51100828D01*
X174883082Y-51100828D02*
X175025939Y-51029400D01*
X175025939Y-51029400D02*
X175097368Y-50957971D01*
X175097368Y-50957971D02*
X175168796Y-50815114D01*
X175168796Y-50815114D02*
X175168796Y-49600828D01*
X176668797Y-49672257D02*
X176525940Y-49600828D01*
X176525940Y-49600828D02*
X176311654Y-49600828D01*
X176311654Y-49600828D02*
X176097368Y-49672257D01*
X176097368Y-49672257D02*
X175954511Y-49815114D01*
X175954511Y-49815114D02*
X175883082Y-49957971D01*
X175883082Y-49957971D02*
X175811654Y-50243685D01*
X175811654Y-50243685D02*
X175811654Y-50457971D01*
X175811654Y-50457971D02*
X175883082Y-50743685D01*
X175883082Y-50743685D02*
X175954511Y-50886542D01*
X175954511Y-50886542D02*
X176097368Y-51029400D01*
X176097368Y-51029400D02*
X176311654Y-51100828D01*
X176311654Y-51100828D02*
X176454511Y-51100828D01*
X176454511Y-51100828D02*
X176668797Y-51029400D01*
X176668797Y-51029400D02*
X176740225Y-50957971D01*
X176740225Y-50957971D02*
X176740225Y-50457971D01*
X176740225Y-50457971D02*
X176454511Y-50457971D01*
X179383082Y-51100828D02*
X178883082Y-50386542D01*
X178525939Y-51100828D02*
X178525939Y-49600828D01*
X178525939Y-49600828D02*
X179097368Y-49600828D01*
X179097368Y-49600828D02*
X179240225Y-49672257D01*
X179240225Y-49672257D02*
X179311654Y-49743685D01*
X179311654Y-49743685D02*
X179383082Y-49886542D01*
X179383082Y-49886542D02*
X179383082Y-50100828D01*
X179383082Y-50100828D02*
X179311654Y-50243685D01*
X179311654Y-50243685D02*
X179240225Y-50315114D01*
X179240225Y-50315114D02*
X179097368Y-50386542D01*
X179097368Y-50386542D02*
X178525939Y-50386542D01*
X179883082Y-49600828D02*
X180883082Y-51100828D01*
X180883082Y-49600828D02*
X179883082Y-51100828D01*
X198812742Y-53115225D02*
X198884171Y-52972368D01*
X198884171Y-52972368D02*
X198884171Y-52758082D01*
X198884171Y-52758082D02*
X198812742Y-52543796D01*
X198812742Y-52543796D02*
X198669885Y-52400939D01*
X198669885Y-52400939D02*
X198527028Y-52329510D01*
X198527028Y-52329510D02*
X198241314Y-52258082D01*
X198241314Y-52258082D02*
X198027028Y-52258082D01*
X198027028Y-52258082D02*
X197741314Y-52329510D01*
X197741314Y-52329510D02*
X197598457Y-52400939D01*
X197598457Y-52400939D02*
X197455600Y-52543796D01*
X197455600Y-52543796D02*
X197384171Y-52758082D01*
X197384171Y-52758082D02*
X197384171Y-52900939D01*
X197384171Y-52900939D02*
X197455600Y-53115225D01*
X197455600Y-53115225D02*
X197527028Y-53186653D01*
X197527028Y-53186653D02*
X198027028Y-53186653D01*
X198027028Y-53186653D02*
X198027028Y-52900939D01*
X197384171Y-53829510D02*
X198884171Y-53829510D01*
X198884171Y-53829510D02*
X197384171Y-54686653D01*
X197384171Y-54686653D02*
X198884171Y-54686653D01*
X197384171Y-55400939D02*
X198884171Y-55400939D01*
X198884171Y-55400939D02*
X198884171Y-55758082D01*
X198884171Y-55758082D02*
X198812742Y-55972368D01*
X198812742Y-55972368D02*
X198669885Y-56115225D01*
X198669885Y-56115225D02*
X198527028Y-56186654D01*
X198527028Y-56186654D02*
X198241314Y-56258082D01*
X198241314Y-56258082D02*
X198027028Y-56258082D01*
X198027028Y-56258082D02*
X197741314Y-56186654D01*
X197741314Y-56186654D02*
X197598457Y-56115225D01*
X197598457Y-56115225D02*
X197455600Y-55972368D01*
X197455600Y-55972368D02*
X197384171Y-55758082D01*
X197384171Y-55758082D02*
X197384171Y-55400939D01*
X200983082Y-50679400D02*
X201197368Y-50750828D01*
X201197368Y-50750828D02*
X201554510Y-50750828D01*
X201554510Y-50750828D02*
X201697368Y-50679400D01*
X201697368Y-50679400D02*
X201768796Y-50607971D01*
X201768796Y-50607971D02*
X201840225Y-50465114D01*
X201840225Y-50465114D02*
X201840225Y-50322257D01*
X201840225Y-50322257D02*
X201768796Y-50179400D01*
X201768796Y-50179400D02*
X201697368Y-50107971D01*
X201697368Y-50107971D02*
X201554510Y-50036542D01*
X201554510Y-50036542D02*
X201268796Y-49965114D01*
X201268796Y-49965114D02*
X201125939Y-49893685D01*
X201125939Y-49893685D02*
X201054510Y-49822257D01*
X201054510Y-49822257D02*
X200983082Y-49679400D01*
X200983082Y-49679400D02*
X200983082Y-49536542D01*
X200983082Y-49536542D02*
X201054510Y-49393685D01*
X201054510Y-49393685D02*
X201125939Y-49322257D01*
X201125939Y-49322257D02*
X201268796Y-49250828D01*
X201268796Y-49250828D02*
X201625939Y-49250828D01*
X201625939Y-49250828D02*
X201840225Y-49322257D01*
X202340224Y-49250828D02*
X202697367Y-50750828D01*
X202697367Y-50750828D02*
X202983081Y-49679400D01*
X202983081Y-49679400D02*
X203268796Y-50750828D01*
X203268796Y-50750828D02*
X203625939Y-49250828D01*
X204197367Y-50750828D02*
X204197367Y-49250828D01*
X204197367Y-49250828D02*
X204554510Y-49250828D01*
X204554510Y-49250828D02*
X204768796Y-49322257D01*
X204768796Y-49322257D02*
X204911653Y-49465114D01*
X204911653Y-49465114D02*
X204983082Y-49607971D01*
X204983082Y-49607971D02*
X205054510Y-49893685D01*
X205054510Y-49893685D02*
X205054510Y-50107971D01*
X205054510Y-50107971D02*
X204983082Y-50393685D01*
X204983082Y-50393685D02*
X204911653Y-50536542D01*
X204911653Y-50536542D02*
X204768796Y-50679400D01*
X204768796Y-50679400D02*
X204554510Y-50750828D01*
X204554510Y-50750828D02*
X204197367Y-50750828D01*
X54854510Y-63425828D02*
X54854510Y-61925828D01*
X54854510Y-61925828D02*
X55425939Y-61925828D01*
X55425939Y-61925828D02*
X55568796Y-61997257D01*
X55568796Y-61997257D02*
X55640225Y-62068685D01*
X55640225Y-62068685D02*
X55711653Y-62211542D01*
X55711653Y-62211542D02*
X55711653Y-62425828D01*
X55711653Y-62425828D02*
X55640225Y-62568685D01*
X55640225Y-62568685D02*
X55568796Y-62640114D01*
X55568796Y-62640114D02*
X55425939Y-62711542D01*
X55425939Y-62711542D02*
X54854510Y-62711542D01*
X56211653Y-61925828D02*
X56568796Y-63425828D01*
X56568796Y-63425828D02*
X56854510Y-62354400D01*
X56854510Y-62354400D02*
X57140225Y-63425828D01*
X57140225Y-63425828D02*
X57497368Y-61925828D01*
X58925939Y-63425828D02*
X58425939Y-62711542D01*
X58068796Y-63425828D02*
X58068796Y-61925828D01*
X58068796Y-61925828D02*
X58640225Y-61925828D01*
X58640225Y-61925828D02*
X58783082Y-61997257D01*
X58783082Y-61997257D02*
X58854511Y-62068685D01*
X58854511Y-62068685D02*
X58925939Y-62211542D01*
X58925939Y-62211542D02*
X58925939Y-62425828D01*
X58925939Y-62425828D02*
X58854511Y-62568685D01*
X58854511Y-62568685D02*
X58783082Y-62640114D01*
X58783082Y-62640114D02*
X58640225Y-62711542D01*
X58640225Y-62711542D02*
X58068796Y-62711542D01*
X60711653Y-63425828D02*
X60711653Y-61925828D01*
X61425939Y-63425828D02*
X61425939Y-61925828D01*
X61425939Y-61925828D02*
X62283082Y-63425828D01*
X62283082Y-63425828D02*
X62283082Y-61925828D01*
X169854510Y-53900828D02*
X169854510Y-52400828D01*
X169854510Y-52400828D02*
X170211653Y-52400828D01*
X170211653Y-52400828D02*
X170425939Y-52472257D01*
X170425939Y-52472257D02*
X170568796Y-52615114D01*
X170568796Y-52615114D02*
X170640225Y-52757971D01*
X170640225Y-52757971D02*
X170711653Y-53043685D01*
X170711653Y-53043685D02*
X170711653Y-53257971D01*
X170711653Y-53257971D02*
X170640225Y-53543685D01*
X170640225Y-53543685D02*
X170568796Y-53686542D01*
X170568796Y-53686542D02*
X170425939Y-53829400D01*
X170425939Y-53829400D02*
X170211653Y-53900828D01*
X170211653Y-53900828D02*
X169854510Y-53900828D01*
X171354510Y-53115114D02*
X171854510Y-53115114D01*
X172068796Y-53900828D02*
X171354510Y-53900828D01*
X171354510Y-53900828D02*
X171354510Y-52400828D01*
X171354510Y-52400828D02*
X172068796Y-52400828D01*
X173211653Y-53115114D02*
X173425939Y-53186542D01*
X173425939Y-53186542D02*
X173497368Y-53257971D01*
X173497368Y-53257971D02*
X173568796Y-53400828D01*
X173568796Y-53400828D02*
X173568796Y-53615114D01*
X173568796Y-53615114D02*
X173497368Y-53757971D01*
X173497368Y-53757971D02*
X173425939Y-53829400D01*
X173425939Y-53829400D02*
X173283082Y-53900828D01*
X173283082Y-53900828D02*
X172711653Y-53900828D01*
X172711653Y-53900828D02*
X172711653Y-52400828D01*
X172711653Y-52400828D02*
X173211653Y-52400828D01*
X173211653Y-52400828D02*
X173354511Y-52472257D01*
X173354511Y-52472257D02*
X173425939Y-52543685D01*
X173425939Y-52543685D02*
X173497368Y-52686542D01*
X173497368Y-52686542D02*
X173497368Y-52829400D01*
X173497368Y-52829400D02*
X173425939Y-52972257D01*
X173425939Y-52972257D02*
X173354511Y-53043685D01*
X173354511Y-53043685D02*
X173211653Y-53115114D01*
X173211653Y-53115114D02*
X172711653Y-53115114D01*
X174211653Y-52400828D02*
X174211653Y-53615114D01*
X174211653Y-53615114D02*
X174283082Y-53757971D01*
X174283082Y-53757971D02*
X174354511Y-53829400D01*
X174354511Y-53829400D02*
X174497368Y-53900828D01*
X174497368Y-53900828D02*
X174783082Y-53900828D01*
X174783082Y-53900828D02*
X174925939Y-53829400D01*
X174925939Y-53829400D02*
X174997368Y-53757971D01*
X174997368Y-53757971D02*
X175068796Y-53615114D01*
X175068796Y-53615114D02*
X175068796Y-52400828D01*
X176568797Y-52472257D02*
X176425940Y-52400828D01*
X176425940Y-52400828D02*
X176211654Y-52400828D01*
X176211654Y-52400828D02*
X175997368Y-52472257D01*
X175997368Y-52472257D02*
X175854511Y-52615114D01*
X175854511Y-52615114D02*
X175783082Y-52757971D01*
X175783082Y-52757971D02*
X175711654Y-53043685D01*
X175711654Y-53043685D02*
X175711654Y-53257971D01*
X175711654Y-53257971D02*
X175783082Y-53543685D01*
X175783082Y-53543685D02*
X175854511Y-53686542D01*
X175854511Y-53686542D02*
X175997368Y-53829400D01*
X175997368Y-53829400D02*
X176211654Y-53900828D01*
X176211654Y-53900828D02*
X176354511Y-53900828D01*
X176354511Y-53900828D02*
X176568797Y-53829400D01*
X176568797Y-53829400D02*
X176640225Y-53757971D01*
X176640225Y-53757971D02*
X176640225Y-53257971D01*
X176640225Y-53257971D02*
X176354511Y-53257971D01*
X178211654Y-52400828D02*
X179068797Y-52400828D01*
X178640225Y-53900828D02*
X178640225Y-52400828D01*
X179425939Y-52400828D02*
X180425939Y-53900828D01*
X180425939Y-52400828D02*
X179425939Y-53900828D01*
X196584171Y-52290225D02*
X196584171Y-53147368D01*
X195084171Y-52718796D02*
X196584171Y-52718796D01*
X195227028Y-54504510D02*
X195155600Y-54433082D01*
X195155600Y-54433082D02*
X195084171Y-54218796D01*
X195084171Y-54218796D02*
X195084171Y-54075939D01*
X195084171Y-54075939D02*
X195155600Y-53861653D01*
X195155600Y-53861653D02*
X195298457Y-53718796D01*
X195298457Y-53718796D02*
X195441314Y-53647367D01*
X195441314Y-53647367D02*
X195727028Y-53575939D01*
X195727028Y-53575939D02*
X195941314Y-53575939D01*
X195941314Y-53575939D02*
X196227028Y-53647367D01*
X196227028Y-53647367D02*
X196369885Y-53718796D01*
X196369885Y-53718796D02*
X196512742Y-53861653D01*
X196512742Y-53861653D02*
X196584171Y-54075939D01*
X196584171Y-54075939D02*
X196584171Y-54218796D01*
X196584171Y-54218796D02*
X196512742Y-54433082D01*
X196512742Y-54433082D02*
X196441314Y-54504510D01*
X195084171Y-55147367D02*
X196584171Y-55147367D01*
X195084171Y-56004510D02*
X195941314Y-55361653D01*
X196584171Y-56004510D02*
X195727028Y-55147367D01*
X194134171Y-52340225D02*
X194134171Y-53197368D01*
X192634171Y-52768796D02*
X194134171Y-52768796D01*
X192634171Y-53697367D02*
X194134171Y-53697367D01*
X194134171Y-53697367D02*
X193062742Y-54197367D01*
X193062742Y-54197367D02*
X194134171Y-54697367D01*
X194134171Y-54697367D02*
X192634171Y-54697367D01*
X192705600Y-55340225D02*
X192634171Y-55554511D01*
X192634171Y-55554511D02*
X192634171Y-55911653D01*
X192634171Y-55911653D02*
X192705600Y-56054511D01*
X192705600Y-56054511D02*
X192777028Y-56125939D01*
X192777028Y-56125939D02*
X192919885Y-56197368D01*
X192919885Y-56197368D02*
X193062742Y-56197368D01*
X193062742Y-56197368D02*
X193205600Y-56125939D01*
X193205600Y-56125939D02*
X193277028Y-56054511D01*
X193277028Y-56054511D02*
X193348457Y-55911653D01*
X193348457Y-55911653D02*
X193419885Y-55625939D01*
X193419885Y-55625939D02*
X193491314Y-55483082D01*
X193491314Y-55483082D02*
X193562742Y-55411653D01*
X193562742Y-55411653D02*
X193705600Y-55340225D01*
X193705600Y-55340225D02*
X193848457Y-55340225D01*
X193848457Y-55340225D02*
X193991314Y-55411653D01*
X193991314Y-55411653D02*
X194062742Y-55483082D01*
X194062742Y-55483082D02*
X194134171Y-55625939D01*
X194134171Y-55625939D02*
X194134171Y-55983082D01*
X194134171Y-55983082D02*
X194062742Y-56197368D01*
X191524171Y-52536653D02*
X191524171Y-53465225D01*
X191524171Y-53465225D02*
X190952742Y-52965225D01*
X190952742Y-52965225D02*
X190952742Y-53179510D01*
X190952742Y-53179510D02*
X190881314Y-53322368D01*
X190881314Y-53322368D02*
X190809885Y-53393796D01*
X190809885Y-53393796D02*
X190667028Y-53465225D01*
X190667028Y-53465225D02*
X190309885Y-53465225D01*
X190309885Y-53465225D02*
X190167028Y-53393796D01*
X190167028Y-53393796D02*
X190095600Y-53322368D01*
X190095600Y-53322368D02*
X190024171Y-53179510D01*
X190024171Y-53179510D02*
X190024171Y-52750939D01*
X190024171Y-52750939D02*
X190095600Y-52608082D01*
X190095600Y-52608082D02*
X190167028Y-52536653D01*
X191524171Y-53893796D02*
X190024171Y-54393796D01*
X190024171Y-54393796D02*
X191524171Y-54893796D01*
X191524171Y-55250938D02*
X191524171Y-56179510D01*
X191524171Y-56179510D02*
X190952742Y-55679510D01*
X190952742Y-55679510D02*
X190952742Y-55893795D01*
X190952742Y-55893795D02*
X190881314Y-56036653D01*
X190881314Y-56036653D02*
X190809885Y-56108081D01*
X190809885Y-56108081D02*
X190667028Y-56179510D01*
X190667028Y-56179510D02*
X190309885Y-56179510D01*
X190309885Y-56179510D02*
X190167028Y-56108081D01*
X190167028Y-56108081D02*
X190095600Y-56036653D01*
X190095600Y-56036653D02*
X190024171Y-55893795D01*
X190024171Y-55893795D02*
X190024171Y-55465224D01*
X190024171Y-55465224D02*
X190095600Y-55322367D01*
X190095600Y-55322367D02*
X190167028Y-55250938D01*
X104004510Y-57625828D02*
X104004510Y-56125828D01*
X104004510Y-56125828D02*
X104361653Y-56125828D01*
X104361653Y-56125828D02*
X104575939Y-56197257D01*
X104575939Y-56197257D02*
X104718796Y-56340114D01*
X104718796Y-56340114D02*
X104790225Y-56482971D01*
X104790225Y-56482971D02*
X104861653Y-56768685D01*
X104861653Y-56768685D02*
X104861653Y-56982971D01*
X104861653Y-56982971D02*
X104790225Y-57268685D01*
X104790225Y-57268685D02*
X104718796Y-57411542D01*
X104718796Y-57411542D02*
X104575939Y-57554400D01*
X104575939Y-57554400D02*
X104361653Y-57625828D01*
X104361653Y-57625828D02*
X104004510Y-57625828D01*
X105504510Y-56840114D02*
X106004510Y-56840114D01*
X106218796Y-57625828D02*
X105504510Y-57625828D01*
X105504510Y-57625828D02*
X105504510Y-56125828D01*
X105504510Y-56125828D02*
X106218796Y-56125828D01*
X107361653Y-56840114D02*
X107575939Y-56911542D01*
X107575939Y-56911542D02*
X107647368Y-56982971D01*
X107647368Y-56982971D02*
X107718796Y-57125828D01*
X107718796Y-57125828D02*
X107718796Y-57340114D01*
X107718796Y-57340114D02*
X107647368Y-57482971D01*
X107647368Y-57482971D02*
X107575939Y-57554400D01*
X107575939Y-57554400D02*
X107433082Y-57625828D01*
X107433082Y-57625828D02*
X106861653Y-57625828D01*
X106861653Y-57625828D02*
X106861653Y-56125828D01*
X106861653Y-56125828D02*
X107361653Y-56125828D01*
X107361653Y-56125828D02*
X107504511Y-56197257D01*
X107504511Y-56197257D02*
X107575939Y-56268685D01*
X107575939Y-56268685D02*
X107647368Y-56411542D01*
X107647368Y-56411542D02*
X107647368Y-56554400D01*
X107647368Y-56554400D02*
X107575939Y-56697257D01*
X107575939Y-56697257D02*
X107504511Y-56768685D01*
X107504511Y-56768685D02*
X107361653Y-56840114D01*
X107361653Y-56840114D02*
X106861653Y-56840114D01*
X108361653Y-56125828D02*
X108361653Y-57340114D01*
X108361653Y-57340114D02*
X108433082Y-57482971D01*
X108433082Y-57482971D02*
X108504511Y-57554400D01*
X108504511Y-57554400D02*
X108647368Y-57625828D01*
X108647368Y-57625828D02*
X108933082Y-57625828D01*
X108933082Y-57625828D02*
X109075939Y-57554400D01*
X109075939Y-57554400D02*
X109147368Y-57482971D01*
X109147368Y-57482971D02*
X109218796Y-57340114D01*
X109218796Y-57340114D02*
X109218796Y-56125828D01*
X110718797Y-56197257D02*
X110575940Y-56125828D01*
X110575940Y-56125828D02*
X110361654Y-56125828D01*
X110361654Y-56125828D02*
X110147368Y-56197257D01*
X110147368Y-56197257D02*
X110004511Y-56340114D01*
X110004511Y-56340114D02*
X109933082Y-56482971D01*
X109933082Y-56482971D02*
X109861654Y-56768685D01*
X109861654Y-56768685D02*
X109861654Y-56982971D01*
X109861654Y-56982971D02*
X109933082Y-57268685D01*
X109933082Y-57268685D02*
X110004511Y-57411542D01*
X110004511Y-57411542D02*
X110147368Y-57554400D01*
X110147368Y-57554400D02*
X110361654Y-57625828D01*
X110361654Y-57625828D02*
X110504511Y-57625828D01*
X110504511Y-57625828D02*
X110718797Y-57554400D01*
X110718797Y-57554400D02*
X110790225Y-57482971D01*
X110790225Y-57482971D02*
X110790225Y-56982971D01*
X110790225Y-56982971D02*
X110504511Y-56982971D01*
X142742071Y-85324232D02*
X142843086Y-85526262D01*
X142843086Y-85526262D02*
X142843086Y-85627278D01*
X142843086Y-85627278D02*
X142792578Y-85778801D01*
X142792578Y-85778801D02*
X142641055Y-85930323D01*
X142641055Y-85930323D02*
X142489533Y-85980831D01*
X142489533Y-85980831D02*
X142388517Y-85980831D01*
X142388517Y-85980831D02*
X142236994Y-85930323D01*
X142236994Y-85930323D02*
X141832933Y-85526262D01*
X141832933Y-85526262D02*
X142893594Y-84465602D01*
X142893594Y-84465602D02*
X143247147Y-84819156D01*
X143247147Y-84819156D02*
X143297655Y-84970679D01*
X143297655Y-84970679D02*
X143297655Y-85071694D01*
X143297655Y-85071694D02*
X143247147Y-85223217D01*
X143247147Y-85223217D02*
X143146132Y-85324232D01*
X143146132Y-85324232D02*
X142994609Y-85374740D01*
X142994609Y-85374740D02*
X142893594Y-85374740D01*
X142893594Y-85374740D02*
X142742071Y-85324232D01*
X142742071Y-85324232D02*
X142388517Y-84970679D01*
X144156284Y-85728293D02*
X144358315Y-85930323D01*
X144358315Y-85930323D02*
X144408822Y-86081846D01*
X144408822Y-86081846D02*
X144408822Y-86283877D01*
X144408822Y-86283877D02*
X144257299Y-86536415D01*
X144257299Y-86536415D02*
X143903746Y-86889968D01*
X143903746Y-86889968D02*
X143651208Y-87041491D01*
X143651208Y-87041491D02*
X143449177Y-87041491D01*
X143449177Y-87041491D02*
X143297655Y-86990984D01*
X143297655Y-86990984D02*
X143095624Y-86788953D01*
X143095624Y-86788953D02*
X143045116Y-86637430D01*
X143045116Y-86637430D02*
X143045116Y-86435400D01*
X143045116Y-86435400D02*
X143196639Y-86182862D01*
X143196639Y-86182862D02*
X143550193Y-85829308D01*
X143550193Y-85829308D02*
X143802731Y-85677785D01*
X143802731Y-85677785D02*
X144004761Y-85677785D01*
X144004761Y-85677785D02*
X144156284Y-85728293D01*
X145267452Y-86839461D02*
X145469483Y-87041492D01*
X145469483Y-87041492D02*
X145519990Y-87193014D01*
X145519990Y-87193014D02*
X145519990Y-87395045D01*
X145519990Y-87395045D02*
X145368468Y-87647583D01*
X145368468Y-87647583D02*
X145014914Y-88001136D01*
X145014914Y-88001136D02*
X144762376Y-88152659D01*
X144762376Y-88152659D02*
X144560346Y-88152659D01*
X144560346Y-88152659D02*
X144408823Y-88102152D01*
X144408823Y-88102152D02*
X144206792Y-87900121D01*
X144206792Y-87900121D02*
X144156285Y-87748598D01*
X144156285Y-87748598D02*
X144156285Y-87546568D01*
X144156285Y-87546568D02*
X144307807Y-87294030D01*
X144307807Y-87294030D02*
X144661361Y-86940476D01*
X144661361Y-86940476D02*
X144913899Y-86788953D01*
X144913899Y-86788953D02*
X145115929Y-86788953D01*
X145115929Y-86788953D02*
X145267452Y-86839461D01*
X146025067Y-87597076D02*
X146631159Y-88203167D01*
X145267453Y-88960782D02*
X146328113Y-87900122D01*
D11*
X246333333Y-116138109D02*
X246000000Y-115661918D01*
X245761905Y-116138109D02*
X245761905Y-115138109D01*
X245761905Y-115138109D02*
X246142857Y-115138109D01*
X246142857Y-115138109D02*
X246238095Y-115185728D01*
X246238095Y-115185728D02*
X246285714Y-115233347D01*
X246285714Y-115233347D02*
X246333333Y-115328585D01*
X246333333Y-115328585D02*
X246333333Y-115471442D01*
X246333333Y-115471442D02*
X246285714Y-115566680D01*
X246285714Y-115566680D02*
X246238095Y-115614299D01*
X246238095Y-115614299D02*
X246142857Y-115661918D01*
X246142857Y-115661918D02*
X245761905Y-115661918D01*
X246714286Y-115233347D02*
X246761905Y-115185728D01*
X246761905Y-115185728D02*
X246857143Y-115138109D01*
X246857143Y-115138109D02*
X247095238Y-115138109D01*
X247095238Y-115138109D02*
X247190476Y-115185728D01*
X247190476Y-115185728D02*
X247238095Y-115233347D01*
X247238095Y-115233347D02*
X247285714Y-115328585D01*
X247285714Y-115328585D02*
X247285714Y-115423823D01*
X247285714Y-115423823D02*
X247238095Y-115566680D01*
X247238095Y-115566680D02*
X246666667Y-116138109D01*
X246666667Y-116138109D02*
X247285714Y-116138109D01*
X187764819Y-50446623D02*
X188479104Y-50446623D01*
X188479104Y-50446623D02*
X188621961Y-50494242D01*
X188621961Y-50494242D02*
X188717200Y-50589480D01*
X188717200Y-50589480D02*
X188764819Y-50732337D01*
X188764819Y-50732337D02*
X188764819Y-50827575D01*
X188098152Y-49541861D02*
X188764819Y-49541861D01*
X187717200Y-49779956D02*
X188431485Y-50018051D01*
X188431485Y-50018051D02*
X188431485Y-49399004D01*
X240166667Y-106070490D02*
X240309524Y-106118109D01*
X240309524Y-106118109D02*
X240547619Y-106118109D01*
X240547619Y-106118109D02*
X240642857Y-106070490D01*
X240642857Y-106070490D02*
X240690476Y-106022870D01*
X240690476Y-106022870D02*
X240738095Y-105927632D01*
X240738095Y-105927632D02*
X240738095Y-105832394D01*
X240738095Y-105832394D02*
X240690476Y-105737156D01*
X240690476Y-105737156D02*
X240642857Y-105689537D01*
X240642857Y-105689537D02*
X240547619Y-105641918D01*
X240547619Y-105641918D02*
X240357143Y-105594299D01*
X240357143Y-105594299D02*
X240261905Y-105546680D01*
X240261905Y-105546680D02*
X240214286Y-105499061D01*
X240214286Y-105499061D02*
X240166667Y-105403823D01*
X240166667Y-105403823D02*
X240166667Y-105308585D01*
X240166667Y-105308585D02*
X240214286Y-105213347D01*
X240214286Y-105213347D02*
X240261905Y-105165728D01*
X240261905Y-105165728D02*
X240357143Y-105118109D01*
X240357143Y-105118109D02*
X240595238Y-105118109D01*
X240595238Y-105118109D02*
X240738095Y-105165728D01*
X241071429Y-105118109D02*
X241309524Y-106118109D01*
X241309524Y-106118109D02*
X241500000Y-105403823D01*
X241500000Y-105403823D02*
X241690476Y-106118109D01*
X241690476Y-106118109D02*
X241928572Y-105118109D01*
X242833333Y-106118109D02*
X242261905Y-106118109D01*
X242547619Y-106118109D02*
X242547619Y-105118109D01*
X242547619Y-105118109D02*
X242452381Y-105260966D01*
X242452381Y-105260966D02*
X242357143Y-105356204D01*
X242357143Y-105356204D02*
X242261905Y-105403823D01*
X118807944Y-140399995D02*
X119573989Y-139757208D01*
X119114033Y-140764778D02*
X119880078Y-140121990D01*
X119880078Y-140121990D02*
X119481341Y-141202518D01*
X119481341Y-141202518D02*
X120247385Y-140559730D01*
X120449909Y-140949253D02*
X120516996Y-140955122D01*
X120516996Y-140955122D02*
X120614692Y-140997470D01*
X120614692Y-140997470D02*
X120767737Y-141179861D01*
X120767737Y-141179861D02*
X120792477Y-141283427D01*
X120792477Y-141283427D02*
X120786607Y-141350514D01*
X120786607Y-141350514D02*
X120744259Y-141448210D01*
X120744259Y-141448210D02*
X120671303Y-141509428D01*
X120671303Y-141509428D02*
X120531259Y-141564777D01*
X120531259Y-141564777D02*
X119726212Y-141494344D01*
X119726212Y-141494344D02*
X120124128Y-141968562D01*
X245833333Y-129998109D02*
X245500000Y-129521918D01*
X245261905Y-129998109D02*
X245261905Y-128998109D01*
X245261905Y-128998109D02*
X245642857Y-128998109D01*
X245642857Y-128998109D02*
X245738095Y-129045728D01*
X245738095Y-129045728D02*
X245785714Y-129093347D01*
X245785714Y-129093347D02*
X245833333Y-129188585D01*
X245833333Y-129188585D02*
X245833333Y-129331442D01*
X245833333Y-129331442D02*
X245785714Y-129426680D01*
X245785714Y-129426680D02*
X245738095Y-129474299D01*
X245738095Y-129474299D02*
X245642857Y-129521918D01*
X245642857Y-129521918D02*
X245261905Y-129521918D01*
X246690476Y-128998109D02*
X246500000Y-128998109D01*
X246500000Y-128998109D02*
X246404762Y-129045728D01*
X246404762Y-129045728D02*
X246357143Y-129093347D01*
X246357143Y-129093347D02*
X246261905Y-129236204D01*
X246261905Y-129236204D02*
X246214286Y-129426680D01*
X246214286Y-129426680D02*
X246214286Y-129807632D01*
X246214286Y-129807632D02*
X246261905Y-129902870D01*
X246261905Y-129902870D02*
X246309524Y-129950490D01*
X246309524Y-129950490D02*
X246404762Y-129998109D01*
X246404762Y-129998109D02*
X246595238Y-129998109D01*
X246595238Y-129998109D02*
X246690476Y-129950490D01*
X246690476Y-129950490D02*
X246738095Y-129902870D01*
X246738095Y-129902870D02*
X246785714Y-129807632D01*
X246785714Y-129807632D02*
X246785714Y-129569537D01*
X246785714Y-129569537D02*
X246738095Y-129474299D01*
X246738095Y-129474299D02*
X246690476Y-129426680D01*
X246690476Y-129426680D02*
X246595238Y-129379061D01*
X246595238Y-129379061D02*
X246404762Y-129379061D01*
X246404762Y-129379061D02*
X246309524Y-129426680D01*
X246309524Y-129426680D02*
X246261905Y-129474299D01*
X246261905Y-129474299D02*
X246214286Y-129569537D01*
X143194321Y-81879016D02*
X143699397Y-82384092D01*
X143699397Y-82384092D02*
X143766741Y-82518779D01*
X143766741Y-82518779D02*
X143766741Y-82653466D01*
X143766741Y-82653466D02*
X143699397Y-82788153D01*
X143699397Y-82788153D02*
X143632054Y-82855497D01*
X143564710Y-81643313D02*
X143564710Y-81575970D01*
X143564710Y-81575970D02*
X143598382Y-81474955D01*
X143598382Y-81474955D02*
X143766741Y-81306596D01*
X143766741Y-81306596D02*
X143867756Y-81272924D01*
X143867756Y-81272924D02*
X143935100Y-81272924D01*
X143935100Y-81272924D02*
X144036115Y-81306596D01*
X144036115Y-81306596D02*
X144103458Y-81373939D01*
X144103458Y-81373939D02*
X144170802Y-81508626D01*
X144170802Y-81508626D02*
X144170802Y-82316748D01*
X144170802Y-82316748D02*
X144608535Y-81879016D01*
X150384819Y-138256147D02*
X149908628Y-138589480D01*
X150384819Y-138827575D02*
X149384819Y-138827575D01*
X149384819Y-138827575D02*
X149384819Y-138446623D01*
X149384819Y-138446623D02*
X149432438Y-138351385D01*
X149432438Y-138351385D02*
X149480057Y-138303766D01*
X149480057Y-138303766D02*
X149575295Y-138256147D01*
X149575295Y-138256147D02*
X149718152Y-138256147D01*
X149718152Y-138256147D02*
X149813390Y-138303766D01*
X149813390Y-138303766D02*
X149861009Y-138351385D01*
X149861009Y-138351385D02*
X149908628Y-138446623D01*
X149908628Y-138446623D02*
X149908628Y-138827575D01*
X149718152Y-137399004D02*
X150384819Y-137399004D01*
X149337200Y-137637099D02*
X150051485Y-137875194D01*
X150051485Y-137875194D02*
X150051485Y-137256147D01*
X150384819Y-136351385D02*
X150384819Y-136922813D01*
X150384819Y-136637099D02*
X149384819Y-136637099D01*
X149384819Y-136637099D02*
X149527676Y-136732337D01*
X149527676Y-136732337D02*
X149622914Y-136827575D01*
X149622914Y-136827575D02*
X149670533Y-136922813D01*
X67384819Y-138256147D02*
X66908628Y-138589480D01*
X67384819Y-138827575D02*
X66384819Y-138827575D01*
X66384819Y-138827575D02*
X66384819Y-138446623D01*
X66384819Y-138446623D02*
X66432438Y-138351385D01*
X66432438Y-138351385D02*
X66480057Y-138303766D01*
X66480057Y-138303766D02*
X66575295Y-138256147D01*
X66575295Y-138256147D02*
X66718152Y-138256147D01*
X66718152Y-138256147D02*
X66813390Y-138303766D01*
X66813390Y-138303766D02*
X66861009Y-138351385D01*
X66861009Y-138351385D02*
X66908628Y-138446623D01*
X66908628Y-138446623D02*
X66908628Y-138827575D01*
X66384819Y-137922813D02*
X66384819Y-137303766D01*
X66384819Y-137303766D02*
X66765771Y-137637099D01*
X66765771Y-137637099D02*
X66765771Y-137494242D01*
X66765771Y-137494242D02*
X66813390Y-137399004D01*
X66813390Y-137399004D02*
X66861009Y-137351385D01*
X66861009Y-137351385D02*
X66956247Y-137303766D01*
X66956247Y-137303766D02*
X67194342Y-137303766D01*
X67194342Y-137303766D02*
X67289580Y-137351385D01*
X67289580Y-137351385D02*
X67337200Y-137399004D01*
X67337200Y-137399004D02*
X67384819Y-137494242D01*
X67384819Y-137494242D02*
X67384819Y-137779956D01*
X67384819Y-137779956D02*
X67337200Y-137875194D01*
X67337200Y-137875194D02*
X67289580Y-137922813D01*
X67384819Y-136351385D02*
X67384819Y-136922813D01*
X67384819Y-136637099D02*
X66384819Y-136637099D01*
X66384819Y-136637099D02*
X66527676Y-136732337D01*
X66527676Y-136732337D02*
X66622914Y-136827575D01*
X66622914Y-136827575D02*
X66670533Y-136922813D01*
X245833333Y-125638109D02*
X245500000Y-125161918D01*
X245261905Y-125638109D02*
X245261905Y-124638109D01*
X245261905Y-124638109D02*
X245642857Y-124638109D01*
X245642857Y-124638109D02*
X245738095Y-124685728D01*
X245738095Y-124685728D02*
X245785714Y-124733347D01*
X245785714Y-124733347D02*
X245833333Y-124828585D01*
X245833333Y-124828585D02*
X245833333Y-124971442D01*
X245833333Y-124971442D02*
X245785714Y-125066680D01*
X245785714Y-125066680D02*
X245738095Y-125114299D01*
X245738095Y-125114299D02*
X245642857Y-125161918D01*
X245642857Y-125161918D02*
X245261905Y-125161918D01*
X246166667Y-124638109D02*
X246785714Y-124638109D01*
X246785714Y-124638109D02*
X246452381Y-125019061D01*
X246452381Y-125019061D02*
X246595238Y-125019061D01*
X246595238Y-125019061D02*
X246690476Y-125066680D01*
X246690476Y-125066680D02*
X246738095Y-125114299D01*
X246738095Y-125114299D02*
X246785714Y-125209537D01*
X246785714Y-125209537D02*
X246785714Y-125447632D01*
X246785714Y-125447632D02*
X246738095Y-125542870D01*
X246738095Y-125542870D02*
X246690476Y-125590490D01*
X246690476Y-125590490D02*
X246595238Y-125638109D01*
X246595238Y-125638109D02*
X246309524Y-125638109D01*
X246309524Y-125638109D02*
X246214286Y-125590490D01*
X246214286Y-125590490D02*
X246166667Y-125542870D01*
X246333333Y-120998109D02*
X246000000Y-120521918D01*
X245761905Y-120998109D02*
X245761905Y-119998109D01*
X245761905Y-119998109D02*
X246142857Y-119998109D01*
X246142857Y-119998109D02*
X246238095Y-120045728D01*
X246238095Y-120045728D02*
X246285714Y-120093347D01*
X246285714Y-120093347D02*
X246333333Y-120188585D01*
X246333333Y-120188585D02*
X246333333Y-120331442D01*
X246333333Y-120331442D02*
X246285714Y-120426680D01*
X246285714Y-120426680D02*
X246238095Y-120474299D01*
X246238095Y-120474299D02*
X246142857Y-120521918D01*
X246142857Y-120521918D02*
X245761905Y-120521918D01*
X247238095Y-119998109D02*
X246761905Y-119998109D01*
X246761905Y-119998109D02*
X246714286Y-120474299D01*
X246714286Y-120474299D02*
X246761905Y-120426680D01*
X246761905Y-120426680D02*
X246857143Y-120379061D01*
X246857143Y-120379061D02*
X247095238Y-120379061D01*
X247095238Y-120379061D02*
X247190476Y-120426680D01*
X247190476Y-120426680D02*
X247238095Y-120474299D01*
X247238095Y-120474299D02*
X247285714Y-120569537D01*
X247285714Y-120569537D02*
X247285714Y-120807632D01*
X247285714Y-120807632D02*
X247238095Y-120902870D01*
X247238095Y-120902870D02*
X247190476Y-120950490D01*
X247190476Y-120950490D02*
X247095238Y-120998109D01*
X247095238Y-120998109D02*
X246857143Y-120998109D01*
X246857143Y-120998109D02*
X246761905Y-120950490D01*
X246761905Y-120950490D02*
X246714286Y-120902870D01*
X246333333Y-106138109D02*
X246000000Y-105661918D01*
X245761905Y-106138109D02*
X245761905Y-105138109D01*
X245761905Y-105138109D02*
X246142857Y-105138109D01*
X246142857Y-105138109D02*
X246238095Y-105185728D01*
X246238095Y-105185728D02*
X246285714Y-105233347D01*
X246285714Y-105233347D02*
X246333333Y-105328585D01*
X246333333Y-105328585D02*
X246333333Y-105471442D01*
X246333333Y-105471442D02*
X246285714Y-105566680D01*
X246285714Y-105566680D02*
X246238095Y-105614299D01*
X246238095Y-105614299D02*
X246142857Y-105661918D01*
X246142857Y-105661918D02*
X245761905Y-105661918D01*
X247285714Y-106138109D02*
X246714286Y-106138109D01*
X247000000Y-106138109D02*
X247000000Y-105138109D01*
X247000000Y-105138109D02*
X246904762Y-105280966D01*
X246904762Y-105280966D02*
X246809524Y-105376204D01*
X246809524Y-105376204D02*
X246714286Y-105423823D01*
X203307942Y-139399996D02*
X204073987Y-138757209D01*
X203614031Y-139764779D02*
X204380076Y-139121991D01*
X204380076Y-139121991D02*
X203981339Y-140202519D01*
X203981339Y-140202519D02*
X204747383Y-139559731D01*
X205073605Y-140467081D02*
X204562908Y-140895606D01*
X205212386Y-140039818D02*
X204512167Y-140316561D01*
X204512167Y-140316561D02*
X204910083Y-140790779D01*
X240116667Y-125270490D02*
X240259524Y-125318109D01*
X240259524Y-125318109D02*
X240497619Y-125318109D01*
X240497619Y-125318109D02*
X240592857Y-125270490D01*
X240592857Y-125270490D02*
X240640476Y-125222870D01*
X240640476Y-125222870D02*
X240688095Y-125127632D01*
X240688095Y-125127632D02*
X240688095Y-125032394D01*
X240688095Y-125032394D02*
X240640476Y-124937156D01*
X240640476Y-124937156D02*
X240592857Y-124889537D01*
X240592857Y-124889537D02*
X240497619Y-124841918D01*
X240497619Y-124841918D02*
X240307143Y-124794299D01*
X240307143Y-124794299D02*
X240211905Y-124746680D01*
X240211905Y-124746680D02*
X240164286Y-124699061D01*
X240164286Y-124699061D02*
X240116667Y-124603823D01*
X240116667Y-124603823D02*
X240116667Y-124508585D01*
X240116667Y-124508585D02*
X240164286Y-124413347D01*
X240164286Y-124413347D02*
X240211905Y-124365728D01*
X240211905Y-124365728D02*
X240307143Y-124318109D01*
X240307143Y-124318109D02*
X240545238Y-124318109D01*
X240545238Y-124318109D02*
X240688095Y-124365728D01*
X241021429Y-124318109D02*
X241259524Y-125318109D01*
X241259524Y-125318109D02*
X241450000Y-124603823D01*
X241450000Y-124603823D02*
X241640476Y-125318109D01*
X241640476Y-125318109D02*
X241878572Y-124318109D01*
X242164286Y-124318109D02*
X242783333Y-124318109D01*
X242783333Y-124318109D02*
X242450000Y-124699061D01*
X242450000Y-124699061D02*
X242592857Y-124699061D01*
X242592857Y-124699061D02*
X242688095Y-124746680D01*
X242688095Y-124746680D02*
X242735714Y-124794299D01*
X242735714Y-124794299D02*
X242783333Y-124889537D01*
X242783333Y-124889537D02*
X242783333Y-125127632D01*
X242783333Y-125127632D02*
X242735714Y-125222870D01*
X242735714Y-125222870D02*
X242688095Y-125270490D01*
X242688095Y-125270490D02*
X242592857Y-125318109D01*
X242592857Y-125318109D02*
X242307143Y-125318109D01*
X242307143Y-125318109D02*
X242211905Y-125270490D01*
X242211905Y-125270490D02*
X242164286Y-125222870D01*
X246333333Y-110998109D02*
X246000000Y-110521918D01*
X245761905Y-110998109D02*
X245761905Y-109998109D01*
X245761905Y-109998109D02*
X246142857Y-109998109D01*
X246142857Y-109998109D02*
X246238095Y-110045728D01*
X246238095Y-110045728D02*
X246285714Y-110093347D01*
X246285714Y-110093347D02*
X246333333Y-110188585D01*
X246333333Y-110188585D02*
X246333333Y-110331442D01*
X246333333Y-110331442D02*
X246285714Y-110426680D01*
X246285714Y-110426680D02*
X246238095Y-110474299D01*
X246238095Y-110474299D02*
X246142857Y-110521918D01*
X246142857Y-110521918D02*
X245761905Y-110521918D01*
X247190476Y-110331442D02*
X247190476Y-110998109D01*
X246952381Y-109950490D02*
X246714286Y-110664775D01*
X246714286Y-110664775D02*
X247333333Y-110664775D01*
X192884819Y-138256147D02*
X192408628Y-138589480D01*
X192884819Y-138827575D02*
X191884819Y-138827575D01*
X191884819Y-138827575D02*
X191884819Y-138446623D01*
X191884819Y-138446623D02*
X191932438Y-138351385D01*
X191932438Y-138351385D02*
X191980057Y-138303766D01*
X191980057Y-138303766D02*
X192075295Y-138256147D01*
X192075295Y-138256147D02*
X192218152Y-138256147D01*
X192218152Y-138256147D02*
X192313390Y-138303766D01*
X192313390Y-138303766D02*
X192361009Y-138351385D01*
X192361009Y-138351385D02*
X192408628Y-138446623D01*
X192408628Y-138446623D02*
X192408628Y-138827575D01*
X192218152Y-137399004D02*
X192884819Y-137399004D01*
X191837200Y-137637099D02*
X192551485Y-137875194D01*
X192551485Y-137875194D02*
X192551485Y-137256147D01*
X191980057Y-136922813D02*
X191932438Y-136875194D01*
X191932438Y-136875194D02*
X191884819Y-136779956D01*
X191884819Y-136779956D02*
X191884819Y-136541861D01*
X191884819Y-136541861D02*
X191932438Y-136446623D01*
X191932438Y-136446623D02*
X191980057Y-136399004D01*
X191980057Y-136399004D02*
X192075295Y-136351385D01*
X192075295Y-136351385D02*
X192170533Y-136351385D01*
X192170533Y-136351385D02*
X192313390Y-136399004D01*
X192313390Y-136399004D02*
X192884819Y-136970432D01*
X192884819Y-136970432D02*
X192884819Y-136351385D01*
X240166667Y-116070490D02*
X240309524Y-116118109D01*
X240309524Y-116118109D02*
X240547619Y-116118109D01*
X240547619Y-116118109D02*
X240642857Y-116070490D01*
X240642857Y-116070490D02*
X240690476Y-116022870D01*
X240690476Y-116022870D02*
X240738095Y-115927632D01*
X240738095Y-115927632D02*
X240738095Y-115832394D01*
X240738095Y-115832394D02*
X240690476Y-115737156D01*
X240690476Y-115737156D02*
X240642857Y-115689537D01*
X240642857Y-115689537D02*
X240547619Y-115641918D01*
X240547619Y-115641918D02*
X240357143Y-115594299D01*
X240357143Y-115594299D02*
X240261905Y-115546680D01*
X240261905Y-115546680D02*
X240214286Y-115499061D01*
X240214286Y-115499061D02*
X240166667Y-115403823D01*
X240166667Y-115403823D02*
X240166667Y-115308585D01*
X240166667Y-115308585D02*
X240214286Y-115213347D01*
X240214286Y-115213347D02*
X240261905Y-115165728D01*
X240261905Y-115165728D02*
X240357143Y-115118109D01*
X240357143Y-115118109D02*
X240595238Y-115118109D01*
X240595238Y-115118109D02*
X240738095Y-115165728D01*
X241071429Y-115118109D02*
X241309524Y-116118109D01*
X241309524Y-116118109D02*
X241500000Y-115403823D01*
X241500000Y-115403823D02*
X241690476Y-116118109D01*
X241690476Y-116118109D02*
X241928572Y-115118109D01*
X242261905Y-115213347D02*
X242309524Y-115165728D01*
X242309524Y-115165728D02*
X242404762Y-115118109D01*
X242404762Y-115118109D02*
X242642857Y-115118109D01*
X242642857Y-115118109D02*
X242738095Y-115165728D01*
X242738095Y-115165728D02*
X242785714Y-115213347D01*
X242785714Y-115213347D02*
X242833333Y-115308585D01*
X242833333Y-115308585D02*
X242833333Y-115403823D01*
X242833333Y-115403823D02*
X242785714Y-115546680D01*
X242785714Y-115546680D02*
X242214286Y-116118109D01*
X242214286Y-116118109D02*
X242833333Y-116118109D01*
X76307944Y-140399995D02*
X77073989Y-139757208D01*
X76614033Y-140764778D02*
X77380078Y-140121990D01*
X77380078Y-140121990D02*
X76981341Y-141202518D01*
X76981341Y-141202518D02*
X77747385Y-140559730D01*
X77624128Y-141968562D02*
X77256821Y-141530822D01*
X77440475Y-141749692D02*
X78206519Y-141106905D01*
X78206519Y-141106905D02*
X78035866Y-141125775D01*
X78035866Y-141125775D02*
X77901692Y-141114036D01*
X77901692Y-141114036D02*
X77803996Y-141071688D01*
X240833333Y-129122870D02*
X240785714Y-129170490D01*
X240785714Y-129170490D02*
X240642857Y-129218109D01*
X240642857Y-129218109D02*
X240547619Y-129218109D01*
X240547619Y-129218109D02*
X240404762Y-129170490D01*
X240404762Y-129170490D02*
X240309524Y-129075251D01*
X240309524Y-129075251D02*
X240261905Y-128980013D01*
X240261905Y-128980013D02*
X240214286Y-128789537D01*
X240214286Y-128789537D02*
X240214286Y-128646680D01*
X240214286Y-128646680D02*
X240261905Y-128456204D01*
X240261905Y-128456204D02*
X240309524Y-128360966D01*
X240309524Y-128360966D02*
X240404762Y-128265728D01*
X240404762Y-128265728D02*
X240547619Y-128218109D01*
X240547619Y-128218109D02*
X240642857Y-128218109D01*
X240642857Y-128218109D02*
X240785714Y-128265728D01*
X240785714Y-128265728D02*
X240833333Y-128313347D01*
X241166667Y-128218109D02*
X241785714Y-128218109D01*
X241785714Y-128218109D02*
X241452381Y-128599061D01*
X241452381Y-128599061D02*
X241595238Y-128599061D01*
X241595238Y-128599061D02*
X241690476Y-128646680D01*
X241690476Y-128646680D02*
X241738095Y-128694299D01*
X241738095Y-128694299D02*
X241785714Y-128789537D01*
X241785714Y-128789537D02*
X241785714Y-129027632D01*
X241785714Y-129027632D02*
X241738095Y-129122870D01*
X241738095Y-129122870D02*
X241690476Y-129170490D01*
X241690476Y-129170490D02*
X241595238Y-129218109D01*
X241595238Y-129218109D02*
X241309524Y-129218109D01*
X241309524Y-129218109D02*
X241214286Y-129170490D01*
X241214286Y-129170490D02*
X241166667Y-129122870D01*
X240833333Y-109622870D02*
X240785714Y-109670490D01*
X240785714Y-109670490D02*
X240642857Y-109718109D01*
X240642857Y-109718109D02*
X240547619Y-109718109D01*
X240547619Y-109718109D02*
X240404762Y-109670490D01*
X240404762Y-109670490D02*
X240309524Y-109575251D01*
X240309524Y-109575251D02*
X240261905Y-109480013D01*
X240261905Y-109480013D02*
X240214286Y-109289537D01*
X240214286Y-109289537D02*
X240214286Y-109146680D01*
X240214286Y-109146680D02*
X240261905Y-108956204D01*
X240261905Y-108956204D02*
X240309524Y-108860966D01*
X240309524Y-108860966D02*
X240404762Y-108765728D01*
X240404762Y-108765728D02*
X240547619Y-108718109D01*
X240547619Y-108718109D02*
X240642857Y-108718109D01*
X240642857Y-108718109D02*
X240785714Y-108765728D01*
X240785714Y-108765728D02*
X240833333Y-108813347D01*
X241785714Y-109718109D02*
X241214286Y-109718109D01*
X241500000Y-109718109D02*
X241500000Y-108718109D01*
X241500000Y-108718109D02*
X241404762Y-108860966D01*
X241404762Y-108860966D02*
X241309524Y-108956204D01*
X241309524Y-108956204D02*
X241214286Y-109003823D01*
X240833333Y-119622870D02*
X240785714Y-119670490D01*
X240785714Y-119670490D02*
X240642857Y-119718109D01*
X240642857Y-119718109D02*
X240547619Y-119718109D01*
X240547619Y-119718109D02*
X240404762Y-119670490D01*
X240404762Y-119670490D02*
X240309524Y-119575251D01*
X240309524Y-119575251D02*
X240261905Y-119480013D01*
X240261905Y-119480013D02*
X240214286Y-119289537D01*
X240214286Y-119289537D02*
X240214286Y-119146680D01*
X240214286Y-119146680D02*
X240261905Y-118956204D01*
X240261905Y-118956204D02*
X240309524Y-118860966D01*
X240309524Y-118860966D02*
X240404762Y-118765728D01*
X240404762Y-118765728D02*
X240547619Y-118718109D01*
X240547619Y-118718109D02*
X240642857Y-118718109D01*
X240642857Y-118718109D02*
X240785714Y-118765728D01*
X240785714Y-118765728D02*
X240833333Y-118813347D01*
X241214286Y-118813347D02*
X241261905Y-118765728D01*
X241261905Y-118765728D02*
X241357143Y-118718109D01*
X241357143Y-118718109D02*
X241595238Y-118718109D01*
X241595238Y-118718109D02*
X241690476Y-118765728D01*
X241690476Y-118765728D02*
X241738095Y-118813347D01*
X241738095Y-118813347D02*
X241785714Y-118908585D01*
X241785714Y-118908585D02*
X241785714Y-119003823D01*
X241785714Y-119003823D02*
X241738095Y-119146680D01*
X241738095Y-119146680D02*
X241166667Y-119718109D01*
X241166667Y-119718109D02*
X241785714Y-119718109D01*
X160807942Y-140399996D02*
X161573987Y-139757209D01*
X161114031Y-140764779D02*
X161880076Y-140121991D01*
X161880076Y-140121991D02*
X161481339Y-141202519D01*
X161481339Y-141202519D02*
X162247383Y-140559731D01*
X162492255Y-140851557D02*
X162890171Y-141325775D01*
X162890171Y-141325775D02*
X162384082Y-141315299D01*
X162384082Y-141315299D02*
X162475909Y-141424734D01*
X162475909Y-141424734D02*
X162500648Y-141528299D01*
X162500648Y-141528299D02*
X162494779Y-141595387D01*
X162494779Y-141595387D02*
X162452431Y-141693083D01*
X162452431Y-141693083D02*
X162270039Y-141846127D01*
X162270039Y-141846127D02*
X162166474Y-141870867D01*
X162166474Y-141870867D02*
X162099387Y-141864998D01*
X162099387Y-141864998D02*
X162001691Y-141822650D01*
X162001691Y-141822650D02*
X161818037Y-141603780D01*
X161818037Y-141603780D02*
X161793297Y-141500214D01*
X161793297Y-141500214D02*
X161799167Y-141433127D01*
X166766666Y-47588109D02*
X166766666Y-48302394D01*
X166766666Y-48302394D02*
X166719047Y-48445251D01*
X166719047Y-48445251D02*
X166623809Y-48540490D01*
X166623809Y-48540490D02*
X166480952Y-48588109D01*
X166480952Y-48588109D02*
X166385714Y-48588109D01*
X167147619Y-47588109D02*
X167766666Y-47588109D01*
X167766666Y-47588109D02*
X167433333Y-47969061D01*
X167433333Y-47969061D02*
X167576190Y-47969061D01*
X167576190Y-47969061D02*
X167671428Y-48016680D01*
X167671428Y-48016680D02*
X167719047Y-48064299D01*
X167719047Y-48064299D02*
X167766666Y-48159537D01*
X167766666Y-48159537D02*
X167766666Y-48397632D01*
X167766666Y-48397632D02*
X167719047Y-48492870D01*
X167719047Y-48492870D02*
X167671428Y-48540490D01*
X167671428Y-48540490D02*
X167576190Y-48588109D01*
X167576190Y-48588109D02*
X167290476Y-48588109D01*
X167290476Y-48588109D02*
X167195238Y-48540490D01*
X167195238Y-48540490D02*
X167147619Y-48492870D01*
X106024819Y-138256147D02*
X105548628Y-138589480D01*
X106024819Y-138827575D02*
X105024819Y-138827575D01*
X105024819Y-138827575D02*
X105024819Y-138446623D01*
X105024819Y-138446623D02*
X105072438Y-138351385D01*
X105072438Y-138351385D02*
X105120057Y-138303766D01*
X105120057Y-138303766D02*
X105215295Y-138256147D01*
X105215295Y-138256147D02*
X105358152Y-138256147D01*
X105358152Y-138256147D02*
X105453390Y-138303766D01*
X105453390Y-138303766D02*
X105501009Y-138351385D01*
X105501009Y-138351385D02*
X105548628Y-138446623D01*
X105548628Y-138446623D02*
X105548628Y-138827575D01*
X105024819Y-137922813D02*
X105024819Y-137303766D01*
X105024819Y-137303766D02*
X105405771Y-137637099D01*
X105405771Y-137637099D02*
X105405771Y-137494242D01*
X105405771Y-137494242D02*
X105453390Y-137399004D01*
X105453390Y-137399004D02*
X105501009Y-137351385D01*
X105501009Y-137351385D02*
X105596247Y-137303766D01*
X105596247Y-137303766D02*
X105834342Y-137303766D01*
X105834342Y-137303766D02*
X105929580Y-137351385D01*
X105929580Y-137351385D02*
X105977200Y-137399004D01*
X105977200Y-137399004D02*
X106024819Y-137494242D01*
X106024819Y-137494242D02*
X106024819Y-137779956D01*
X106024819Y-137779956D02*
X105977200Y-137875194D01*
X105977200Y-137875194D02*
X105929580Y-137922813D01*
X105120057Y-136922813D02*
X105072438Y-136875194D01*
X105072438Y-136875194D02*
X105024819Y-136779956D01*
X105024819Y-136779956D02*
X105024819Y-136541861D01*
X105024819Y-136541861D02*
X105072438Y-136446623D01*
X105072438Y-136446623D02*
X105120057Y-136399004D01*
X105120057Y-136399004D02*
X105215295Y-136351385D01*
X105215295Y-136351385D02*
X105310533Y-136351385D01*
X105310533Y-136351385D02*
X105453390Y-136399004D01*
X105453390Y-136399004D02*
X106024819Y-136970432D01*
X106024819Y-136970432D02*
X106024819Y-136351385D01*
%TO.C,R2*%
D12*
X246245276Y-116590790D02*
X246754724Y-116590790D01*
X246245276Y-117635790D02*
X246754724Y-117635790D01*
%TO.C,J4*%
X189310000Y-51493290D02*
X189310000Y-50113290D01*
X190690000Y-51493290D02*
X189310000Y-51493290D01*
X191960000Y-48733290D02*
X199690000Y-48733290D01*
X191960000Y-51493290D02*
X191960000Y-48733290D01*
X191960000Y-51493290D02*
X199690000Y-51493290D01*
X199690000Y-51493290D02*
X199690000Y-48733290D01*
%TO.C,SW1*%
X239300000Y-108163290D02*
X239300000Y-108063290D01*
X239300000Y-109663290D02*
X243700000Y-109663290D01*
X243700000Y-106563290D02*
X239300000Y-106563290D01*
X243700000Y-108163290D02*
X243700000Y-108063290D01*
%TO.C,IN2*%
X107053194Y-131902196D02*
X107706266Y-132680497D01*
X107636920Y-131412392D02*
X107053194Y-131902196D01*
X107706266Y-132680497D02*
X108289992Y-132190693D01*
X107636920Y-131412392D02*
G75*
G02*
X108289992Y-132190693I13363080J10549809D01*
G01*
D13*
X123465647Y-138113686D02*
G75*
G02*
X117940868Y-138018390I-2465648J17251167D01*
G01*
%TO.C,R6*%
D12*
X246254724Y-127590790D02*
X245745276Y-127590790D01*
X246254724Y-128635790D02*
X245745276Y-128635790D01*
%TO.C,J2*%
X143546824Y-83711729D02*
X144522632Y-82735922D01*
X144522632Y-84687536D02*
X143546824Y-83711729D01*
X145420657Y-85585562D02*
X147294490Y-87459395D01*
X145420657Y-85585562D02*
X147372272Y-83633947D01*
X147294490Y-87459395D02*
X149246105Y-85507780D01*
X147372272Y-83633947D02*
X149246105Y-85507780D01*
%TO.C,R41*%
X147977500Y-137358566D02*
X147977500Y-137868014D01*
X149022500Y-137358566D02*
X149022500Y-137868014D01*
%TO.C,R31*%
X64977500Y-137358566D02*
X64977500Y-137868014D01*
X66022500Y-137358566D02*
X66022500Y-137868014D01*
%TO.C,R3*%
X245745276Y-126090790D02*
X246254724Y-126090790D01*
X245745276Y-127135790D02*
X246254724Y-127135790D01*
%TO.C,R5*%
X246754724Y-118590790D02*
X246245276Y-118590790D01*
X246754724Y-119635790D02*
X246245276Y-119635790D01*
%TO.C,R1*%
X246245276Y-106590790D02*
X246754724Y-106590790D01*
X246245276Y-107635790D02*
X246754724Y-107635790D01*
%TO.C,IN4*%
X191553193Y-130902196D02*
X192206265Y-131680497D01*
X192136919Y-130412392D02*
X191553193Y-130902196D01*
X192206265Y-131680497D02*
X192789991Y-131190693D01*
X192136919Y-130412392D02*
G75*
G02*
X192789991Y-131190693I13363080J10549809D01*
G01*
D13*
X207965646Y-137113686D02*
G75*
G02*
X202440867Y-137018389I-2465647J17251103D01*
G01*
%TO.C,SW3*%
D12*
X239250000Y-127363290D02*
X239250000Y-127263290D01*
X239250000Y-128863290D02*
X243650000Y-128863290D01*
X243650000Y-125763290D02*
X239250000Y-125763290D01*
X243650000Y-127363290D02*
X243650000Y-127263290D01*
%TO.C,R4*%
X246754724Y-108590790D02*
X246245276Y-108590790D01*
X246754724Y-109635790D02*
X246245276Y-109635790D01*
%TO.C,R42*%
X190477500Y-137358566D02*
X190477500Y-137868014D01*
X191522500Y-137358566D02*
X191522500Y-137868014D01*
%TO.C,SW2*%
X239300000Y-118163290D02*
X239300000Y-118063290D01*
X239300000Y-119663290D02*
X243700000Y-119663290D01*
X243700000Y-116563290D02*
X239300000Y-116563290D01*
X243700000Y-118163290D02*
X243700000Y-118063290D01*
%TO.C,IN1*%
X64553194Y-131902196D02*
X65206266Y-132680497D01*
X65136920Y-131412392D02*
X64553194Y-131902196D01*
X65206266Y-132680497D02*
X65789992Y-132190693D01*
X65136920Y-131412392D02*
G75*
G02*
X65789992Y-132190693I13363080J10549809D01*
G01*
D13*
X80965647Y-138113686D02*
G75*
G02*
X75440868Y-138018390I-2465648J17251167D01*
G01*
%TO.C,C3*%
D12*
X240288748Y-129703290D02*
X241711252Y-129703290D01*
X240288748Y-131523290D02*
X241711252Y-131523290D01*
%TO.C,C1*%
X240288748Y-110203290D02*
X241711252Y-110203290D01*
X240288748Y-112023290D02*
X241711252Y-112023290D01*
%TO.C,C2*%
X240288748Y-120203290D02*
X241711252Y-120203290D01*
X240288748Y-122023290D02*
X241711252Y-122023290D01*
%TO.C,IN3*%
X149053193Y-131902196D02*
X149706265Y-132680496D01*
X149636919Y-131412392D02*
X149053193Y-131902196D01*
X149706265Y-132680496D02*
X150289991Y-132190693D01*
X149636919Y-131412392D02*
G75*
G02*
X150289991Y-132190693I13363080J10549809D01*
G01*
D13*
X165465646Y-138113686D02*
G75*
G02*
X159940867Y-138018390I-2465648J17251167D01*
G01*
%TO.C,J3*%
D12*
X165720000Y-49133290D02*
X167100000Y-49133291D01*
X165720000Y-51783290D02*
X165720000Y-54433290D01*
X165720000Y-51783290D02*
X168480000Y-51783290D01*
X165720000Y-54433290D02*
X168480000Y-54433290D01*
X165720001Y-50513290D02*
X165720000Y-49133290D01*
X168480000Y-51783290D02*
X168480000Y-54433290D01*
%TO.C,R32*%
X106477500Y-137868014D02*
X106477500Y-137358566D01*
X107522500Y-137868014D02*
X107522500Y-137358566D01*
%TD*%
%LPC*%
D14*
%TO.C,U3*%
X83600000Y-65683290D03*
D15*
X81060000Y-82343290D03*
D16*
X83600000Y-82343290D03*
X86140000Y-82343290D03*
%TD*%
D14*
%TO.C,Q1*%
X50800000Y-64983290D03*
D15*
X48260000Y-81643290D03*
D16*
X50800000Y-81643290D03*
X53340000Y-81643290D03*
%TD*%
D17*
%TO.C,R2*%
X245587500Y-117113290D03*
X247412500Y-117113290D03*
%TD*%
D18*
%TO.C,J1*%
X59700000Y-52113290D03*
D19*
X62900000Y-58413290D03*
D20*
X54400000Y-58413290D03*
X59700000Y-58413290D03*
D21*
X53500000Y-51113290D03*
X63300000Y-51113290D03*
%TD*%
D22*
%TO.C,P1*%
X103750000Y-52850000D03*
X110750000Y-52850000D03*
D23*
X101330000Y-49000000D03*
D24*
X102600000Y-53320000D03*
X111900000Y-53320000D03*
D23*
X113170000Y-49000000D03*
%TD*%
D25*
%TO.C,J4*%
X190690000Y-50113290D03*
D26*
X193230000Y-50113290D03*
X195770000Y-50113290D03*
X198310000Y-50113290D03*
%TD*%
D27*
%TO.C,SW1*%
X239450000Y-107313290D03*
X243550000Y-107313290D03*
X239450000Y-108913290D03*
X243550000Y-108913290D03*
%TD*%
D28*
%TO.C,IN2*%
X120791425Y-135211058D03*
D29*
X128570082Y-133045486D03*
X133959663Y-127024614D03*
X135233776Y-119040371D03*
X131992738Y-111638581D03*
X125266198Y-107161474D03*
X117182006Y-107029782D03*
X110316714Y-111291969D03*
X106833292Y-118576403D03*
X107842663Y-126590284D03*
X113074569Y-132825426D03*
%TD*%
D30*
%TO.C,R6*%
X246912500Y-128113290D03*
X245087500Y-128113290D03*
%TD*%
D31*
%TO.C,Y1*%
X143255000Y-67383290D03*
X143255000Y-64843290D03*
%TD*%
D32*
%TO.C,U7*%
X122610000Y-88303290D03*
D33*
X125150000Y-88303290D03*
X127689999Y-88303290D03*
X130230000Y-88303290D03*
X132770000Y-88303290D03*
X135310000Y-88303290D03*
X137850000Y-88303290D03*
X140390001Y-88303290D03*
X140390000Y-95923290D03*
X137850000Y-95923290D03*
X135310000Y-95923290D03*
X132770000Y-95923290D03*
X130230000Y-95923290D03*
X127690000Y-95923290D03*
X125150000Y-95923290D03*
X122610000Y-95923290D03*
%TD*%
D32*
%TO.C,U8*%
X154420001Y-88613290D03*
D33*
X156960001Y-88613290D03*
X159500000Y-88613290D03*
X162040001Y-88613290D03*
X164580001Y-88613290D03*
X167120001Y-88613290D03*
X169660001Y-88613290D03*
X172200002Y-88613290D03*
X172200001Y-96233290D03*
X169660001Y-96233290D03*
X167120001Y-96233290D03*
X164580001Y-96233290D03*
X162040001Y-96233290D03*
X159500001Y-96233290D03*
X156960001Y-96233290D03*
X154420001Y-96233290D03*
%TD*%
D34*
%TO.C,J2*%
X145498439Y-83711729D03*
D26*
X147294490Y-85507780D03*
%TD*%
D35*
%TO.C,R41*%
X148500000Y-136700790D03*
X148500000Y-138525790D03*
%TD*%
D36*
%TO.C,D1*%
X52380000Y-89113290D03*
D37*
X67620000Y-89113290D03*
%TD*%
D35*
%TO.C,R31*%
X65500000Y-136700790D03*
X65500000Y-138525790D03*
%TD*%
D17*
%TO.C,R3*%
X245087500Y-126613290D03*
X246912500Y-126613290D03*
%TD*%
D30*
%TO.C,R5*%
X247412500Y-119113290D03*
X245587500Y-119113290D03*
%TD*%
D38*
%TO.C,BT1*%
X226500000Y-53613290D03*
D39*
X226500000Y-74413290D03*
%TD*%
D17*
%TO.C,R1*%
X245587500Y-107113290D03*
X247412500Y-107113290D03*
%TD*%
D38*
%TO.C,BZ1*%
X204000000Y-64613290D03*
D39*
X204000000Y-57013289D03*
%TD*%
D32*
%TO.C,U6*%
X94300000Y-88493290D03*
D33*
X96840000Y-88493290D03*
X99379999Y-88493290D03*
X101920000Y-88493290D03*
X104460000Y-88493290D03*
X107000000Y-88493290D03*
X109540000Y-88493290D03*
X112080001Y-88493290D03*
X112080000Y-96113290D03*
X109540000Y-96113290D03*
X107000000Y-96113290D03*
X104460000Y-96113290D03*
X101920000Y-96113290D03*
X99380000Y-96113290D03*
X96840000Y-96113290D03*
X94300000Y-96113290D03*
%TD*%
D40*
%TO.C,C10*%
X51500000Y-97613290D03*
D41*
X81499999Y-97613290D03*
%TD*%
D28*
%TO.C,IN4*%
X205291424Y-134211058D03*
D29*
X213070081Y-132045486D03*
X218459662Y-126024614D03*
X219733776Y-118040372D03*
X216492736Y-110638580D03*
X209766196Y-106161474D03*
X201682005Y-106029782D03*
X194816714Y-110291968D03*
X191333291Y-117576403D03*
X192342662Y-125590283D03*
X197574568Y-131825426D03*
%TD*%
D27*
%TO.C,SW3*%
X239400000Y-126513290D03*
X243500000Y-126513290D03*
X239400000Y-128113290D03*
X243500000Y-128113290D03*
%TD*%
D30*
%TO.C,R4*%
X247412500Y-109113290D03*
X245587500Y-109113290D03*
%TD*%
D35*
%TO.C,R42*%
X191000000Y-136700790D03*
X191000000Y-138525790D03*
%TD*%
D27*
%TO.C,SW2*%
X239450000Y-117313290D03*
X243550000Y-117313290D03*
X239450000Y-118913290D03*
X243550000Y-118913290D03*
%TD*%
D28*
%TO.C,IN1*%
X78291425Y-135211058D03*
D29*
X86070082Y-133045486D03*
X91459663Y-127024614D03*
X92733776Y-119040371D03*
X89492738Y-111638581D03*
X82766198Y-107161474D03*
X74682006Y-107029782D03*
X67816714Y-111291969D03*
X64333292Y-118576403D03*
X65342663Y-126590284D03*
X70574569Y-132825426D03*
%TD*%
D42*
%TO.C,TP1*%
X111500000Y-73138290D03*
%TD*%
D32*
%TO.C,U9*%
X194610000Y-88803290D03*
D33*
X197150000Y-88803290D03*
X199689999Y-88803290D03*
X202230000Y-88803290D03*
X204770000Y-88803290D03*
X207310000Y-88803290D03*
X209850000Y-88803290D03*
X212390001Y-88803290D03*
X212390000Y-96423290D03*
X209850000Y-96423290D03*
X207310000Y-96423290D03*
X204770000Y-96423290D03*
X202230000Y-96423290D03*
X199690000Y-96423290D03*
X197150000Y-96423290D03*
X194610000Y-96423290D03*
%TD*%
D43*
%TO.C,C3*%
X239437500Y-130613290D03*
X242562500Y-130613290D03*
%TD*%
%TO.C,C1*%
X239437500Y-111113290D03*
X242562500Y-111113290D03*
%TD*%
%TO.C,C2*%
X239437500Y-121113290D03*
X242562500Y-121113290D03*
%TD*%
D28*
%TO.C,IN3*%
X162791424Y-135211058D03*
D29*
X170570081Y-133045486D03*
X175959662Y-127024614D03*
X177233776Y-119040372D03*
X173992736Y-111638580D03*
X167266196Y-107161474D03*
X159182005Y-107029782D03*
X152316714Y-111291968D03*
X148833291Y-118576403D03*
X149842662Y-126590283D03*
X155074568Y-132825426D03*
%TD*%
D25*
%TO.C,J3*%
X167100000Y-50513290D03*
D26*
X167100000Y-53053290D03*
%TD*%
D44*
%TO.C,R32*%
X107000000Y-138525790D03*
X107000000Y-136700790D03*
%TD*%
%LPD*%
M02*
