%TF.GenerationSoftware,KiCad,Pcbnew,10.0.4*%
%TF.CreationDate,2026-08-05T15:57:54+02:00*%
%TF.ProjectId,zegarek,7a656761-7265-46b2-9e6b-696361645f70,rev?*%
%TF.SameCoordinates,Original*%
%TF.FileFunction,Copper,L2,Inr*%
%TF.FilePolarity,Positive*%
%FSLAX46Y46*%
G04 Gerber Fmt 4.6, Leading zero omitted, Abs format (unit mm)*
G04 Created by KiCad (PCBNEW 10.0.4) date 2026-08-05 15:57:54*
%MOMM*%
%LPD*%
G01*
G04 APERTURE LIST*
G04 Aperture macros list*
%AMRoundRect*
0 Rectangle with rounded corners*
0 $1 Rounding radius*
0 $2 $3 $4 $5 $6 $7 $8 $9 X,Y pos of 4 corners*
0 Add a 4 corners polygon primitive as box body*
4,1,4,$2,$3,$4,$5,$6,$7,$8,$9,$2,$3,0*
0 Add four circle primitives for the rounded corners*
1,1,$1+$1,$2,$3*
1,1,$1+$1,$4,$5*
1,1,$1+$1,$6,$7*
1,1,$1+$1,$8,$9*
0 Add four rect primitives between the rounded corners*
20,1,$1+$1,$2,$3,$4,$5,0*
20,1,$1+$1,$4,$5,$6,$7,0*
20,1,$1+$1,$6,$7,$8,$9,0*
20,1,$1+$1,$8,$9,$2,$3,0*%
%AMRotRect*
0 Rectangle, with rotation*
0 The origin of the aperture is its center*
0 $1 length*
0 $2 width*
0 $3 Rotation angle, in degrees counterclockwise*
0 Add horizontal line*
21,1,$1,$2,0,0,$3*%
G04 Aperture macros list end*
%TA.AperFunction,ComponentPad*%
%ADD10R,1.905000X2.000000*%
%TD*%
%TA.AperFunction,ComponentPad*%
%ADD11O,1.905000X2.000000*%
%TD*%
%TA.AperFunction,ComponentPad*%
%ADD12R,1.800000X3.000000*%
%TD*%
%TA.AperFunction,ComponentPad*%
%ADD13O,1.800000X3.000000*%
%TD*%
%TA.AperFunction,ComponentPad*%
%ADD14O,1.600000X3.000000*%
%TD*%
%TA.AperFunction,ComponentPad*%
%ADD15O,0.900000X1.800000*%
%TD*%
%TA.AperFunction,ComponentPad*%
%ADD16O,0.900000X1.500000*%
%TD*%
%TA.AperFunction,ComponentPad*%
%ADD17R,1.700000X1.700000*%
%TD*%
%TA.AperFunction,ComponentPad*%
%ADD18C,1.700000*%
%TD*%
%TA.AperFunction,ComponentPad*%
%ADD19RoundRect,1.125000X-1.101193X1.148313X-1.148313X-1.101193X1.101193X-1.148313X1.148313X1.101193X0*%
%TD*%
%TA.AperFunction,ComponentPad*%
%ADD20C,4.500000*%
%TD*%
%TA.AperFunction,ComponentPad*%
%ADD21C,1.000000*%
%TD*%
%TA.AperFunction,ComponentPad*%
%ADD22RoundRect,0.250000X-0.550000X0.950000X-0.550000X-0.950000X0.550000X-0.950000X0.550000X0.950000X0*%
%TD*%
%TA.AperFunction,ComponentPad*%
%ADD23O,1.600000X2.400000*%
%TD*%
%TA.AperFunction,ComponentPad*%
%ADD24RotRect,1.700000X1.700000X45.000000*%
%TD*%
%TA.AperFunction,ComponentPad*%
%ADD25RoundRect,0.250000X-1.350000X-1.350000X1.350000X-1.350000X1.350000X1.350000X-1.350000X1.350000X0*%
%TD*%
%TA.AperFunction,ComponentPad*%
%ADD26C,3.200000*%
%TD*%
%TA.AperFunction,ComponentPad*%
%ADD27R,2.000000X2.000000*%
%TD*%
%TA.AperFunction,ComponentPad*%
%ADD28C,2.000000*%
%TD*%
%TA.AperFunction,ComponentPad*%
%ADD29RoundRect,0.250001X-0.949999X-0.949999X0.949999X-0.949999X0.949999X0.949999X-0.949999X0.949999X0*%
%TD*%
%TA.AperFunction,ComponentPad*%
%ADD30C,2.400000*%
%TD*%
%TA.AperFunction,ComponentPad*%
%ADD31C,1.800000*%
%TD*%
%TA.AperFunction,ViaPad*%
%ADD32C,0.600000*%
%TD*%
%TA.AperFunction,ViaPad*%
%ADD33C,1.000000*%
%TD*%
%TA.AperFunction,ViaPad*%
%ADD34C,3.500000*%
%TD*%
%TA.AperFunction,ViaPad*%
%ADD35C,0.500000*%
%TD*%
%TA.AperFunction,Conductor*%
%ADD36C,1.000000*%
%TD*%
%TA.AperFunction,Conductor*%
%ADD37C,0.300000*%
%TD*%
%TA.AperFunction,Conductor*%
%ADD38C,0.200000*%
%TD*%
%TA.AperFunction,Conductor*%
%ADD39C,0.500000*%
%TD*%
G04 APERTURE END LIST*
D10*
%TO.N,+12V*%
%TO.C,U3*%
X81060000Y-82343290D03*
D11*
%TO.N,GND*%
X83600000Y-82343290D03*
%TO.N,+5V*%
X86140000Y-82343290D03*
%TD*%
D10*
%TO.N,Net-(Q1-G)*%
%TO.C,Q1*%
X48260000Y-81643290D03*
D11*
%TO.N,Net-(D1-A)*%
X50800000Y-81643290D03*
%TO.N,GND*%
X53340000Y-81643290D03*
%TD*%
D12*
%TO.N,+12V*%
%TO.C,J1*%
X62900000Y-58413290D03*
D13*
%TO.N,GND*%
X54400000Y-58413290D03*
%TO.N,N/C*%
X59700000Y-58413290D03*
D14*
X53500000Y-51113290D03*
X63300000Y-51113290D03*
%TD*%
D15*
%TO.N,unconnected-(P1-SHIELD-PadSH)_1*%
%TO.C,P1*%
X101330000Y-49000000D03*
D16*
%TO.N,unconnected-(P1-SHIELD-PadSH)_3*%
X102600000Y-53320000D03*
%TO.N,unconnected-(P1-SHIELD-PadSH)*%
X111900000Y-53320000D03*
D15*
%TO.N,unconnected-(P1-SHIELD-PadSH)_2*%
X113170000Y-49000000D03*
%TD*%
D17*
%TO.N,+3V3*%
%TO.C,J4*%
X190690000Y-50113290D03*
D18*
%TO.N,/MCU/TMS*%
X193230000Y-50113290D03*
%TO.N,/MCU/TCK*%
X195770000Y-50113290D03*
%TO.N,GND*%
X198310000Y-50113290D03*
%TD*%
D19*
%TO.N,Net-(IN2-A)*%
%TO.C,IN2*%
X120791425Y-135211058D03*
D20*
%TO.N,Net-(IN2-K_1)*%
X128570082Y-133045486D03*
%TO.N,Net-(IN2-K_2)*%
X133959663Y-127024614D03*
%TO.N,Net-(IN2-K_3)*%
X135233776Y-119040371D03*
%TO.N,Net-(IN2-K_4)*%
X131992738Y-111638581D03*
%TO.N,Net-(IN2-K_5)*%
X125266198Y-107161474D03*
%TO.N,Net-(IN2-K_6)*%
X117182006Y-107029782D03*
%TO.N,Net-(IN2-K_7)*%
X110316714Y-111291969D03*
%TO.N,Net-(IN2-K_8)*%
X106833292Y-118576403D03*
%TO.N,Net-(IN2-K_9)*%
X107842663Y-126590284D03*
%TO.N,Net-(IN2-K_0)*%
X113074569Y-132825426D03*
%TD*%
D21*
%TO.N,Net-(U4-PC14)*%
%TO.C,Y1*%
X143255000Y-67383290D03*
%TO.N,Net-(C18-Pad1)*%
X143255000Y-64843290D03*
%TD*%
D22*
%TO.N,Net-(IN2-K_8)*%
%TO.C,U7*%
X122610000Y-88303290D03*
D23*
%TO.N,Net-(IN2-K_9)*%
X125150000Y-88303290D03*
%TO.N,Net-(U7-A)*%
X127689999Y-88303290D03*
%TO.N,Net-(U7-D)*%
X130230000Y-88303290D03*
%TO.N,+5V*%
X132770000Y-88303290D03*
%TO.N,Net-(U7-B)*%
X135310000Y-88303290D03*
%TO.N,Net-(U7-C)*%
X137850000Y-88303290D03*
%TO.N,Net-(IN2-K_2)*%
X140390001Y-88303290D03*
%TO.N,Net-(IN2-K_3)*%
X140390000Y-95923290D03*
%TO.N,Net-(IN2-K_7)*%
X137850000Y-95923290D03*
%TO.N,Net-(IN2-K_6)*%
X135310000Y-95923290D03*
%TO.N,GND*%
X132770000Y-95923290D03*
%TO.N,Net-(IN2-K_4)*%
X130230000Y-95923290D03*
%TO.N,Net-(IN2-K_5)*%
X127690000Y-95923290D03*
%TO.N,Net-(IN2-K_1)*%
X125150000Y-95923290D03*
%TO.N,Net-(IN2-K_0)*%
X122610000Y-95923290D03*
%TD*%
D22*
%TO.N,Net-(IN3-K_8)*%
%TO.C,U8*%
X154420001Y-88613290D03*
D23*
%TO.N,Net-(IN3-K_9)*%
X156960001Y-88613290D03*
%TO.N,Net-(U8-A)*%
X159500000Y-88613290D03*
%TO.N,Net-(U8-D)*%
X162040001Y-88613290D03*
%TO.N,+5V*%
X164580001Y-88613290D03*
%TO.N,Net-(U8-B)*%
X167120001Y-88613290D03*
%TO.N,Net-(U8-C)*%
X169660001Y-88613290D03*
%TO.N,Net-(IN3-K_2)*%
X172200002Y-88613290D03*
%TO.N,Net-(IN3-K_3)*%
X172200001Y-96233290D03*
%TO.N,Net-(IN3-K_7)*%
X169660001Y-96233290D03*
%TO.N,Net-(IN3-K_6)*%
X167120001Y-96233290D03*
%TO.N,GND*%
X164580001Y-96233290D03*
%TO.N,Net-(IN3-K_4)*%
X162040001Y-96233290D03*
%TO.N,Net-(IN3-K_5)*%
X159500001Y-96233290D03*
%TO.N,Net-(IN3-K_1)*%
X156960001Y-96233290D03*
%TO.N,Net-(IN3-K_0)*%
X154420001Y-96233290D03*
%TD*%
D24*
%TO.N,Net-(J2-Pin_1)*%
%TO.C,J2*%
X145498439Y-83711729D03*
D18*
%TO.N,Net-(J2-Pin_2)*%
X147294490Y-85507780D03*
%TD*%
D25*
%TO.N,+100V*%
%TO.C,D1*%
X52380000Y-89113290D03*
D26*
%TO.N,Net-(D1-A)*%
X67620000Y-89113290D03*
%TD*%
D27*
%TO.N,+BATT*%
%TO.C,BT1*%
X226500000Y-53613290D03*
D28*
%TO.N,GND*%
X226500000Y-74413290D03*
%TD*%
D27*
%TO.N,/MCU/BUZZER*%
%TO.C,BZ1*%
X204000000Y-64613290D03*
D28*
%TO.N,Net-(BZ1--)*%
X204000000Y-57013289D03*
%TD*%
D22*
%TO.N,Net-(IN1-K_8)*%
%TO.C,U6*%
X94300000Y-88493290D03*
D23*
%TO.N,Net-(IN1-K_9)*%
X96840000Y-88493290D03*
%TO.N,Net-(U6-A)*%
X99379999Y-88493290D03*
%TO.N,Net-(U6-D)*%
X101920000Y-88493290D03*
%TO.N,+5V*%
X104460000Y-88493290D03*
%TO.N,Net-(U6-B)*%
X107000000Y-88493290D03*
%TO.N,Net-(U6-C)*%
X109540000Y-88493290D03*
%TO.N,Net-(IN1-K_2)*%
X112080001Y-88493290D03*
%TO.N,Net-(IN1-K_3)*%
X112080000Y-96113290D03*
%TO.N,Net-(IN1-K_7)*%
X109540000Y-96113290D03*
%TO.N,Net-(IN1-K_6)*%
X107000000Y-96113290D03*
%TO.N,GND*%
X104460000Y-96113290D03*
%TO.N,Net-(IN1-K_4)*%
X101920000Y-96113290D03*
%TO.N,Net-(IN1-K_5)*%
X99380000Y-96113290D03*
%TO.N,Net-(IN1-K_1)*%
X96840000Y-96113290D03*
%TO.N,Net-(IN1-K_0)*%
X94300000Y-96113290D03*
%TD*%
D29*
%TO.N,+100V*%
%TO.C,C10*%
X51500000Y-97613290D03*
D30*
%TO.N,GND*%
X81499999Y-97613290D03*
%TD*%
D19*
%TO.N,Net-(IN4-A)*%
%TO.C,IN4*%
X205291424Y-134211058D03*
D20*
%TO.N,Net-(IN4-K_1)*%
X213070081Y-132045486D03*
%TO.N,Net-(IN4-K_2)*%
X218459662Y-126024614D03*
%TO.N,Net-(IN4-K_3)*%
X219733776Y-118040372D03*
%TO.N,Net-(IN4-K_4)*%
X216492736Y-110638580D03*
%TO.N,Net-(IN4-K_5)*%
X209766196Y-106161474D03*
%TO.N,Net-(IN4-K_6)*%
X201682005Y-106029782D03*
%TO.N,Net-(IN4-K_7)*%
X194816714Y-110291968D03*
%TO.N,Net-(IN4-K_8)*%
X191333291Y-117576403D03*
%TO.N,Net-(IN4-K_9)*%
X192342662Y-125590283D03*
%TO.N,Net-(IN4-K_0)*%
X197574568Y-131825426D03*
%TD*%
D19*
%TO.N,Net-(IN1-A)*%
%TO.C,IN1*%
X78291425Y-135211058D03*
D20*
%TO.N,Net-(IN1-K_1)*%
X86070082Y-133045486D03*
%TO.N,Net-(IN1-K_2)*%
X91459663Y-127024614D03*
%TO.N,Net-(IN1-K_3)*%
X92733776Y-119040371D03*
%TO.N,Net-(IN1-K_4)*%
X89492738Y-111638581D03*
%TO.N,Net-(IN1-K_5)*%
X82766198Y-107161474D03*
%TO.N,Net-(IN1-K_6)*%
X74682006Y-107029782D03*
%TO.N,Net-(IN1-K_7)*%
X67816714Y-111291969D03*
%TO.N,Net-(IN1-K_8)*%
X64333292Y-118576403D03*
%TO.N,Net-(IN1-K_9)*%
X65342663Y-126590284D03*
%TO.N,Net-(IN1-K_0)*%
X70574569Y-132825426D03*
%TD*%
D31*
%TO.N,Net-(U5-~{RTS})*%
%TO.C,TP1*%
X111500000Y-73138290D03*
%TD*%
D22*
%TO.N,Net-(IN4-K_8)*%
%TO.C,U9*%
X194610000Y-88803290D03*
D23*
%TO.N,Net-(IN4-K_9)*%
X197150000Y-88803290D03*
%TO.N,Net-(U9-A)*%
X199689999Y-88803290D03*
%TO.N,Net-(U9-D)*%
X202230000Y-88803290D03*
%TO.N,+5V*%
X204770000Y-88803290D03*
%TO.N,Net-(U9-B)*%
X207310000Y-88803290D03*
%TO.N,Net-(U9-C)*%
X209850000Y-88803290D03*
%TO.N,Net-(IN4-K_2)*%
X212390001Y-88803290D03*
%TO.N,Net-(IN4-K_3)*%
X212390000Y-96423290D03*
%TO.N,Net-(IN4-K_7)*%
X209850000Y-96423290D03*
%TO.N,Net-(IN4-K_6)*%
X207310000Y-96423290D03*
%TO.N,GND*%
X204770000Y-96423290D03*
%TO.N,Net-(IN4-K_4)*%
X202230000Y-96423290D03*
%TO.N,Net-(IN4-K_5)*%
X199690000Y-96423290D03*
%TO.N,Net-(IN4-K_1)*%
X197150000Y-96423290D03*
%TO.N,Net-(IN4-K_0)*%
X194610000Y-96423290D03*
%TD*%
D19*
%TO.N,Net-(IN3-A)*%
%TO.C,IN3*%
X162791424Y-135211058D03*
D20*
%TO.N,Net-(IN3-K_1)*%
X170570081Y-133045486D03*
%TO.N,Net-(IN3-K_2)*%
X175959662Y-127024614D03*
%TO.N,Net-(IN3-K_3)*%
X177233776Y-119040372D03*
%TO.N,Net-(IN3-K_4)*%
X173992736Y-111638580D03*
%TO.N,Net-(IN3-K_5)*%
X167266196Y-107161474D03*
%TO.N,Net-(IN3-K_6)*%
X159182005Y-107029782D03*
%TO.N,Net-(IN3-K_7)*%
X152316714Y-111291968D03*
%TO.N,Net-(IN3-K_8)*%
X148833291Y-118576403D03*
%TO.N,Net-(IN3-K_9)*%
X149842662Y-126590283D03*
%TO.N,Net-(IN3-K_0)*%
X155074568Y-132825426D03*
%TD*%
D17*
%TO.N,/MCU/DEBUG_RX*%
%TO.C,J3*%
X167100000Y-50513290D03*
D18*
%TO.N,/MCU/DEBUG_TX*%
X167100000Y-53053290D03*
%TD*%
D32*
%TO.N,GND*%
X150400000Y-63700000D03*
X105900000Y-83113290D03*
X198550000Y-86575000D03*
D33*
%TO.N,+3V3*%
X93700000Y-65813290D03*
D32*
%TO.N,GND*%
X197050000Y-83250000D03*
%TO.N,+3V3*%
X163900000Y-53813290D03*
%TO.N,GND*%
X152200000Y-84813290D03*
%TO.N,+3V3*%
X105500000Y-62213290D03*
%TO.N,GND*%
X188400000Y-55613290D03*
X149775000Y-50525000D03*
X129300000Y-59600000D03*
%TO.N,+3V3*%
X247400000Y-120513290D03*
%TO.N,GND*%
X101900000Y-62413290D03*
X58100000Y-74113290D03*
X73225000Y-67775000D03*
X143750000Y-50525000D03*
D33*
%TO.N,+5V*%
X89762500Y-85350790D03*
D32*
%TO.N,GND*%
X152075000Y-55800000D03*
X102700000Y-73613290D03*
X134200000Y-83313290D03*
X53400000Y-77313290D03*
X78100000Y-97713290D03*
X143700000Y-69100000D03*
X203350000Y-83050000D03*
X97425000Y-58275000D03*
X112000000Y-55075000D03*
X73150000Y-63675000D03*
X67000000Y-54013290D03*
D34*
X48300000Y-51613290D03*
D32*
%TO.N,/MCU/BTNDN*%
X166100000Y-74413290D03*
%TO.N,GND*%
X165800000Y-83613290D03*
X65800000Y-55913290D03*
X183000000Y-65613290D03*
D33*
%TO.N,+3V3*%
X93700000Y-64013290D03*
D32*
%TO.N,GND*%
X71175000Y-65950000D03*
X248500000Y-117113290D03*
X128400000Y-68513290D03*
X97425000Y-60000000D03*
X54400000Y-60713290D03*
X57400000Y-65913290D03*
D33*
%TO.N,+3V3*%
X93700000Y-62313290D03*
%TO.N,Net-(U6-A)*%
X120900000Y-80513290D03*
D32*
%TO.N,GND*%
X131400000Y-83313290D03*
X159000000Y-69213290D03*
X162000000Y-77200000D03*
X90500000Y-50313290D03*
X248500000Y-107113290D03*
%TO.N,+3V3*%
X247400000Y-111813290D03*
%TO.N,GND*%
X130396180Y-61717110D03*
X135875000Y-50575000D03*
X75000000Y-100913290D03*
D34*
X246900000Y-136513290D03*
D32*
X55200000Y-81000000D03*
X119250000Y-67825000D03*
X160450000Y-60563290D03*
X166800000Y-68900000D03*
X145300000Y-61600000D03*
%TO.N,Net-(U7-C)*%
X175200000Y-59313290D03*
%TO.N,GND*%
X83100000Y-53913290D03*
X122475000Y-50675000D03*
X56400000Y-81000000D03*
%TO.N,+3V3*%
X129200000Y-57613289D03*
%TO.N,GND*%
X114800000Y-58075000D03*
X65300000Y-95013290D03*
X157775000Y-50850000D03*
%TO.N,Net-(U9-B)*%
X186000000Y-64913290D03*
D34*
%TO.N,GND*%
X247900000Y-51113290D03*
D32*
X81700000Y-55613290D03*
X54300000Y-76413290D03*
X92000000Y-52113290D03*
X55200000Y-75413290D03*
X119400000Y-53800000D03*
X139300000Y-50525000D03*
X103100000Y-83113290D03*
X161700000Y-57313290D03*
%TO.N,Net-(U9-C)*%
X190500000Y-68413290D03*
%TO.N,GND*%
X243700000Y-121113290D03*
X52700000Y-58413290D03*
X76200000Y-99413290D03*
%TO.N,Net-(U9-A)*%
X189500000Y-69313290D03*
%TO.N,+3V3*%
X246912500Y-129325790D03*
%TO.N,GND*%
X119375000Y-71700000D03*
X148700000Y-72213290D03*
%TO.N,Net-(U8-D)*%
X170500000Y-77713290D03*
D33*
%TO.N,Net-(U6-B)*%
X111100000Y-81313290D03*
D32*
%TO.N,+3V3*%
X161800000Y-78413290D03*
%TO.N,/MCU/BTNUP*%
X164400000Y-75513290D03*
%TO.N,GND*%
X102800000Y-72213290D03*
X242600000Y-112800000D03*
X164200000Y-51325000D03*
X84200000Y-88513290D03*
X49800000Y-86500000D03*
X69525000Y-67775000D03*
X163100000Y-83613290D03*
X155750000Y-57175000D03*
X56400000Y-82300000D03*
X161575000Y-51575000D03*
X158900000Y-49825000D03*
X88100000Y-88513290D03*
%TO.N,+3V3*%
X170300000Y-66413290D03*
%TO.N,GND*%
X68800000Y-97413290D03*
X163100000Y-50375000D03*
X119250000Y-65625000D03*
X185000000Y-52613290D03*
X97300000Y-56375000D03*
X49800000Y-85700000D03*
%TO.N,+3V3*%
X108400000Y-76713290D03*
%TO.N,/MCU/DEBUG_TX*%
X164900000Y-49113290D03*
%TO.N,Net-(U9-B)*%
X189350000Y-68263290D03*
%TO.N,GND*%
X78500000Y-87113290D03*
%TO.N,Net-(U8-B)*%
X173300000Y-76113290D03*
%TO.N,GND*%
X165400000Y-78313290D03*
X248100000Y-126613290D03*
X57000000Y-69713290D03*
%TO.N,Net-(U8-A)*%
X173500000Y-74113290D03*
%TO.N,/MCU/BTNOK*%
X153200000Y-73913290D03*
%TO.N,GND*%
X85400000Y-53513290D03*
X163000000Y-69513290D03*
X97250000Y-54500000D03*
%TO.N,+3V3*%
X147200000Y-68713290D03*
%TO.N,GND*%
X158350000Y-55250000D03*
X102650000Y-55025000D03*
X116925000Y-56200000D03*
X102300000Y-66113290D03*
X158500000Y-77713290D03*
X199100000Y-52713290D03*
%TO.N,Net-(U7-D)*%
X176400000Y-60313290D03*
%TO.N,GND*%
X103000000Y-67013290D03*
X55300000Y-67913290D03*
X216000000Y-56313290D03*
X56200000Y-58413290D03*
X56900000Y-74113290D03*
X159000000Y-73013290D03*
X154075000Y-58700000D03*
X244100000Y-130613290D03*
X141400000Y-61717110D03*
X179300000Y-62013290D03*
X112725000Y-60175000D03*
%TO.N,Net-(U7-A)*%
X143100000Y-79913290D03*
%TO.N,GND*%
X73000000Y-95113290D03*
X52100000Y-78613290D03*
X198050000Y-84550000D03*
X206450000Y-83075000D03*
X49500000Y-78713290D03*
X177000000Y-74313290D03*
X204950000Y-81325000D03*
X68300000Y-55913290D03*
X55100000Y-82300000D03*
X128400000Y-63713290D03*
X69600000Y-63600000D03*
X150900000Y-71600000D03*
X213000000Y-56313290D03*
%TO.N,+BATT*%
X211700000Y-53613290D03*
%TO.N,Net-(U9-C)*%
X187000000Y-64913290D03*
%TO.N,Net-(U8-C)*%
X173500000Y-78413290D03*
%TO.N,GND*%
X86300000Y-90213290D03*
X181900000Y-49613290D03*
%TO.N,+3V3*%
X163800000Y-59613290D03*
%TO.N,GND*%
X55800000Y-81613290D03*
D35*
%TO.N,+BATT*%
X153800000Y-69213290D03*
D32*
%TO.N,GND*%
X161000000Y-67613290D03*
X150400000Y-77213290D03*
X136000000Y-61717110D03*
%TO.N,+3V3*%
X147500000Y-79913290D03*
%TO.N,GND*%
X89100000Y-52113290D03*
X60200000Y-81713290D03*
X66300000Y-100713290D03*
X160075000Y-52950000D03*
%TO.N,Net-(U9-A)*%
X183824265Y-63089025D03*
%TO.N,GND*%
X80200000Y-85413290D03*
D34*
X48700000Y-137213290D03*
%TD*%
%TO.N,+3V3*%
D36*
X165400000Y-70513290D02*
X170100000Y-70513290D01*
X193100000Y-70513290D02*
X203400000Y-70513290D01*
X127500000Y-70513290D02*
X147500000Y-70513290D01*
%TO.N,+5V*%
X164000000Y-91813290D02*
X164580001Y-91233289D01*
%TO.N,+3V3*%
D37*
X147500000Y-70513290D02*
X147200000Y-70213290D01*
%TO.N,+5V*%
D36*
X204770000Y-90683290D02*
X204770000Y-88803290D01*
%TO.N,+3V3*%
D37*
X190690000Y-59703290D02*
X193100000Y-62113290D01*
X244900000Y-120513290D02*
X247400000Y-120513290D01*
X129200000Y-57613289D02*
X129100001Y-57613289D01*
X126200000Y-70513290D02*
X127500000Y-70513290D01*
X170300000Y-70313290D02*
X170100000Y-70513290D01*
X163800000Y-70413290D02*
X163800000Y-59613290D01*
D38*
X105500000Y-62213290D02*
X105500000Y-70513290D01*
D36*
X105500000Y-70513290D02*
X108400000Y-70513290D01*
D37*
X126200000Y-60513290D02*
X126200000Y-70513290D01*
X244700000Y-120713290D02*
X244900000Y-120513290D01*
D36*
X203400000Y-70513290D02*
X244700000Y-111813290D01*
%TO.N,+5V*%
X103737500Y-85350790D02*
X131637500Y-85350790D01*
X164000000Y-91813290D02*
X203700000Y-91813290D01*
X104500000Y-86113290D02*
X104460000Y-86153290D01*
%TO.N,+3V3*%
D37*
X161600000Y-70513290D02*
X160175000Y-70513290D01*
D36*
X163900000Y-70513290D02*
X165400000Y-70513290D01*
D37*
X147200000Y-70213290D02*
X147200000Y-68713290D01*
D36*
X244700000Y-120713290D02*
X244700000Y-129413290D01*
X244700000Y-111813290D02*
X244700000Y-120713290D01*
D39*
X165400000Y-70513290D02*
X165400000Y-55313290D01*
D36*
X93700000Y-65813290D02*
X98400000Y-70513290D01*
D37*
X160175000Y-76800000D02*
X161788290Y-78413290D01*
%TO.N,+5V*%
D36*
X131637500Y-85350790D02*
X142737500Y-85350790D01*
%TO.N,+3V3*%
D37*
X170300000Y-66413290D02*
X170300000Y-70313290D01*
%TO.N,+5V*%
D36*
X164580001Y-91233289D02*
X164580001Y-88613290D01*
%TO.N,+3V3*%
X147500000Y-70513290D02*
X161600000Y-70513290D01*
X93700000Y-65813290D02*
X93700000Y-62313290D01*
D38*
X108400000Y-76713290D02*
X108400000Y-70513290D01*
%TO.N,+5V*%
D36*
X131637500Y-85350790D02*
X132770000Y-86483290D01*
%TO.N,+3V3*%
X98400000Y-70513290D02*
X105500000Y-70513290D01*
D37*
X163900000Y-70513290D02*
X163800000Y-70413290D01*
D36*
X161600000Y-70513290D02*
X163900000Y-70513290D01*
%TO.N,+5V*%
X142737500Y-85350790D02*
X149200000Y-91813290D01*
%TO.N,+3V3*%
D39*
X165400000Y-55313290D02*
X163900000Y-53813290D01*
D37*
X244700000Y-129413290D02*
X244787500Y-129325790D01*
X161788290Y-78413290D02*
X161800000Y-78413290D01*
%TO.N,+5V*%
D36*
X203700000Y-91813290D02*
X204800000Y-90713290D01*
%TO.N,+3V3*%
D37*
X247400000Y-111813290D02*
X244700000Y-111813290D01*
X190690000Y-50113290D02*
X190690000Y-59703290D01*
D36*
X108400000Y-70513290D02*
X127500000Y-70513290D01*
%TO.N,+5V*%
X104460000Y-86153290D02*
X104460000Y-88493290D01*
X132770000Y-86483290D02*
X132770000Y-88303290D01*
X103737500Y-85350790D02*
X104500000Y-86113290D01*
%TO.N,+3V3*%
D37*
X160175000Y-70513290D02*
X160175000Y-76800000D01*
%TO.N,+5V*%
D36*
X204800000Y-90713290D02*
X204770000Y-90683290D01*
%TO.N,+3V3*%
D37*
X193100000Y-62113290D02*
X193100000Y-70513290D01*
X244787500Y-129325790D02*
X246912500Y-129325790D01*
D36*
X170100000Y-70513290D02*
X193100000Y-70513290D01*
%TO.N,+5V*%
X149200000Y-91813290D02*
X164000000Y-91813290D01*
X89762500Y-85350790D02*
X103737500Y-85350790D01*
%TO.N,+3V3*%
D37*
X129100001Y-57613289D02*
X126200000Y-60513290D01*
X147500000Y-79913290D02*
X147500000Y-70513290D01*
%TD*%
M02*
