M48
; DRILL file KiCad 10.0.4 date 2026-08-06T16:37:36
; FORMAT={-:-/ absolute / inch / decimal}
; #@! TF.CreationDate,2026-08-06T16:37:36+02:00
; #@! TF.GenerationSoftware,Kicad,Pcbnew,10.0.4
; #@! TF.FileFunction,Plated,1,4,PTH
FMAT,2
INCH
; #@! TA.AperFunction,Plated,PTH,ViaDrill
T1C0.0118
; #@! TA.AperFunction,Plated,PTH,ViaDrill
T2C0.0197
; #@! TA.AperFunction,Plated,PTH,ComponentDrill
T3C0.0197
; #@! TA.AperFunction,Plated,PTH,ComponentDrill
T4C0.0236
; #@! TA.AperFunction,Plated,PTH,ComponentDrill
T5C0.0315
; #@! TA.AperFunction,Plated,PTH,ComponentDrill
T6C0.0354
; #@! TA.AperFunction,Plated,PTH,ComponentDrill
T7C0.0394
; #@! TA.AperFunction,Plated,PTH,ComponentDrill
T8C0.0433
; #@! TA.AperFunction,Plated,PTH,ComponentDrill
T9C0.0472
; #@! TA.AperFunction,Plated,PTH,ComponentDrill
T10C0.0591
; #@! TA.AperFunction,Plated,PTH,ComponentDrill
T11C0.0630
; #@! TA.AperFunction,Plated,PTH,ComponentDrill
T12C0.0984
; #@! TA.AperFunction,Plated,PTH,ViaDrill
T13C0.1181
%
G90
G05
T1
X1.9488Y-3.0989
X1.9606Y-3.374
X1.9606Y-3.4055
X2.0512Y-3.095
X2.0748Y-2.2997
X2.1024Y-3.0438
X2.1378Y-3.0084
X2.1417Y-2.3903
X2.1693Y-3.2402
X2.1732Y-2.969
X2.1732Y-3.189
X2.1772Y-2.6738
X2.1969Y-3.2131
X2.2126Y-2.2997
X2.2205Y-3.189
X2.2205Y-3.2402
X2.2402Y-2.9178
X2.2441Y-2.7446
X2.2598Y-2.595
X2.2874Y-2.9178
X2.3701Y-3.2171
X2.5709Y-3.7407
X2.5906Y-2.2013
X2.6102Y-3.9651
X2.6378Y-2.1265
X2.689Y-2.2013
X2.7087Y-3.8352
X2.7372Y-2.6683
X2.7402Y-2.5039
X2.8022Y-2.5965
X2.874Y-3.7446
X2.8799Y-2.5069
X2.8829Y-2.6683
X2.9528Y-3.973
X3.0Y-3.9139
X3.0748Y-3.847
X3.0906Y-3.4297
X3.1575Y-3.3627
X3.2165Y-2.1895
X3.2717Y-2.1226
X3.315Y-3.4848
X3.3622Y-2.1068
X3.3976Y-3.5517
X3.4685Y-3.4848
X3.5079Y-2.0517
X3.563Y-1.9808
X3.622Y-2.0517
X3.8287Y-2.1457
X3.8307Y-2.2195
X3.8356Y-2.2943
X3.8356Y-2.3622
X4.0118Y-2.4572
X4.0276Y-2.6029
X4.0413Y-2.1663
X4.0433Y-2.8982
X4.0472Y-2.843
X4.0551Y-2.6383
X4.0591Y-3.2722
X4.1535Y-2.4493
X4.1693Y-3.2722
X4.2677Y-3.0202
X4.4094Y-2.1683
X4.438Y-2.3691
X4.5197Y-2.2864
X4.6033Y-2.2126
X4.6949Y-2.5837
X4.6949Y-2.6703
X4.6998Y-2.8228
X4.7008Y-2.1181
X4.8219Y-1.9951
X5.0551Y-2.5084
X5.0551Y-2.6974
X5.0866Y-2.2682
X5.0906Y-2.3465
X5.1337Y-2.4298
X5.1732Y-3.2801
X5.2835Y-3.2801
X5.3494Y-1.9911
X5.3543Y-2.4298
X5.4843Y-1.9892
X5.5669Y-2.4298
X5.6339Y-3.1462
X5.6575Y-2.7205
X5.6594Y-1.9892
X5.7205Y-2.4252
X5.7953Y-2.7052
X5.8071Y-3.1462
X5.8543Y-2.843
X5.8967Y-1.9892
X5.9213Y-2.5079
X5.9213Y-3.0399
X5.9409Y-2.8189
X5.9872Y-2.1969
X5.9921Y-3.3391
X6.0315Y-2.91
X6.0551Y-2.7249
X6.0659Y-2.311
X6.1319Y-2.251
X6.2116Y-2.002
X6.2343Y-2.1752
X6.2402Y-3.0596
X6.2559Y-1.9616
X6.2598Y-2.7249
X6.2598Y-2.8745
X6.3022Y-2.0846
X6.3169Y-2.3844
X6.3386Y-2.6619
X6.3612Y-2.0305
X6.3661Y-2.2564
X6.3701Y-3.0871
X6.378Y-3.0394
X6.4173Y-2.7367
X6.4213Y-1.9833
X6.4213Y-3.2919
X6.4488Y-2.347
X6.4528Y-2.1186
X6.4646Y-2.0207
X6.4724Y-2.973
X6.4921Y-1.9336
X6.5118Y-3.0832
X6.5276Y-3.2919
X6.5394Y-2.9297
X6.5669Y-2.7126
X6.7047Y-2.6147
X6.7126Y-3.0596
X6.8228Y-2.9966
X6.8307Y-2.9178
X6.8307Y-3.0871
X6.8976Y-2.3352
X6.9449Y-2.3745
X6.9685Y-2.9257
X7.0591Y-2.4415
X7.1614Y-1.9533
X7.2047Y-2.5832
X7.2372Y-2.4838
X7.2835Y-2.0714
X7.3228Y-2.5556
X7.3622Y-2.5556
X7.4173Y-2.1895
X7.4547Y-2.6875
X7.4606Y-2.7289
X7.5Y-2.6934
X7.7579Y-3.2776
X7.7972Y-3.3287
X7.8169Y-3.4085
X7.8386Y-2.0753
X8.0059Y-3.2697
X8.0689Y-3.2018
X8.128Y-3.2707
X8.3346Y-2.1108
X8.3858Y-2.2171
X8.5039Y-2.2171
X9.5512Y-4.4409
X9.5945Y-4.7682
X9.6102Y-5.1423
X9.721Y-5.0916
X9.7402Y-4.4021
X9.7402Y-4.7446
X9.7677Y-4.9848
X9.7835Y-4.2171
X9.7835Y-4.6108
T2
X3.534Y-3.3603
X3.689Y-2.4533
X3.689Y-2.5202
X3.689Y-2.5911
X4.374Y-3.2013
X4.7598Y-3.1698
T3
X5.64Y-2.5529
X5.64Y-2.6529
T5
X3.7126Y-3.484
X3.7126Y-3.784
X3.8126Y-3.484
X3.8126Y-3.784
X3.9126Y-3.484
X3.9126Y-3.784
X4.0126Y-3.484
X4.0126Y-3.784
X4.1126Y-3.484
X4.1126Y-3.784
X4.2126Y-3.484
X4.2126Y-3.784
X4.3126Y-3.484
X4.3126Y-3.784
X4.4126Y-3.784
X4.4126Y-3.484
X4.8272Y-3.4765
X4.8272Y-3.7765
X4.9272Y-3.4765
X4.9272Y-3.7765
X5.0272Y-3.4765
X5.0272Y-3.7765
X5.1272Y-3.4765
X5.1272Y-3.7765
X5.2272Y-3.4765
X5.2272Y-3.7765
X5.3272Y-3.4765
X5.3272Y-3.7765
X5.4272Y-3.4765
X5.4272Y-3.7765
X5.5272Y-3.7765
X5.5272Y-3.4765
X6.0795Y-3.4887
X6.0795Y-3.7887
X6.1795Y-3.4887
X6.1795Y-3.7887
X6.2795Y-3.4887
X6.2795Y-3.7887
X6.3795Y-3.4887
X6.3795Y-3.7887
X6.4795Y-3.4887
X6.4795Y-3.7887
X6.5795Y-3.4887
X6.5795Y-3.7887
X6.6795Y-3.4887
X6.6795Y-3.7887
X6.7795Y-3.7887
X6.7795Y-3.4887
X7.6618Y-3.4962
X7.6618Y-3.7962
X7.7618Y-3.4962
X7.7618Y-3.7962
X7.8618Y-3.4962
X7.8618Y-3.7962
X7.9618Y-3.4962
X7.9618Y-3.7962
X8.0618Y-3.4962
X8.0618Y-3.7962
X8.1618Y-3.4962
X8.1618Y-3.7962
X8.2618Y-3.4962
X8.2618Y-3.7962
X8.3618Y-3.7962
X8.3618Y-3.4962
T6
X4.3898Y-2.8795
T7
X5.7283Y-3.2957
X5.799Y-3.3664
X6.5787Y-1.9887
X6.5787Y-2.0887
X7.5075Y-1.973
X7.6075Y-1.973
X7.7075Y-1.973
X7.8075Y-1.973
T8
X1.9Y-3.2143
X2.0Y-3.2143
X2.1Y-3.2143
X3.1913Y-3.2419
X3.2913Y-3.2419
X3.3913Y-3.2419
X8.0315Y-2.2446
X8.0315Y-2.5438
T9
X2.0276Y-3.843
X3.2087Y-3.843
T10
X8.9173Y-2.1108
X8.9173Y-2.9297
T11
X2.0622Y-3.5084
X2.6622Y-3.5084
T12
X2.5328Y-4.6684
X2.5725Y-4.9839
X2.6699Y-4.3816
X2.7785Y-5.2293
X2.9402Y-4.2138
X3.0823Y-5.3233
X3.2585Y-4.219
X3.3886Y-5.238
X3.5233Y-4.3952
X3.6008Y-5.001
X3.6509Y-4.6866
X4.206Y-4.6684
X4.2458Y-4.9839
X4.3432Y-4.3816
X4.4518Y-5.2293
X4.6135Y-4.2138
X4.7556Y-5.3233
X4.9317Y-4.219
X5.0618Y-5.238
X5.1966Y-4.3952
X5.274Y-5.001
X5.3242Y-4.6866
X5.8596Y-4.6684
X5.8993Y-4.9839
X5.9967Y-4.3816
X6.1053Y-5.2293
X6.267Y-4.2138
X6.4091Y-5.3233
X6.5853Y-4.219
X6.7154Y-5.238
X6.8501Y-4.3952
X6.9275Y-5.001
X6.9777Y-4.6866
X7.5328Y-4.629
X7.5725Y-4.9445
X7.6699Y-4.3422
X7.7785Y-5.19
X7.9402Y-4.1744
X8.0823Y-5.2839
X8.2585Y-4.1796
X8.3886Y-5.1986
X8.5233Y-4.3558
X8.6008Y-4.9616
X8.6509Y-4.6473
T13
X1.9016Y-2.032
X1.9173Y-5.4021
X9.7205Y-5.3745
X9.7598Y-2.0123
T4
G00X2.1063Y-2.0438
M15
G01X2.1063Y-1.9808
M16
G05
G00X2.4921Y-2.0438
M15
G01X2.4921Y-1.9808
M16
G05
G00X3.9894Y-1.9114
M15
G01X3.9894Y-1.9469
M16
G05
G00X4.0394Y-2.0874
M15
G01X4.0394Y-2.111
M16
G05
G00X4.4055Y-2.0874
M15
G01X4.4055Y-2.111
M16
G05
G00X4.4555Y-1.9114
M15
G01X4.4555Y-1.9469
M16
G05
T5
G00X2.1417Y-2.3234
M15
G01X2.1417Y-2.2761
M16
G05
G00X2.3504Y-2.3234
M15
G01X2.3504Y-2.2761
M16
G05
G00X2.4764Y-2.3234
M15
G01X2.4764Y-2.2761
M16
G05
M30
