%TF.GenerationSoftware,KiCad,Pcbnew,10.0.4*%
%TF.CreationDate,2026-08-05T15:57:54+02:00*%
%TF.ProjectId,zegarek,7a656761-7265-46b2-9e6b-696361645f70,rev?*%
%TF.SameCoordinates,Original*%
%TF.FileFunction,Legend,Bot*%
%TF.FilePolarity,Positive*%
%FSLAX46Y46*%
G04 Gerber Fmt 4.6, Leading zero omitted, Abs format (unit mm)*
G04 Created by KiCad (PCBNEW 10.0.4) date 2026-08-05 15:57:54*
%MOMM*%
%LPD*%
G01*
G04 APERTURE LIST*
G04 Aperture macros list*
%AMRoundRect*
0 Rectangle with rounded corners*
0 $1 Rounding radius*
0 $2 $3 $4 $5 $6 $7 $8 $9 X,Y pos of 4 corners*
0 Add a 4 corners polygon primitive as box body*
4,1,4,$2,$3,$4,$5,$6,$7,$8,$9,$2,$3,0*
0 Add four circle primitives for the rounded corners*
1,1,$1+$1,$2,$3*
1,1,$1+$1,$4,$5*
1,1,$1+$1,$6,$7*
1,1,$1+$1,$8,$9*
0 Add four rect primitives between the rounded corners*
20,1,$1+$1,$2,$3,$4,$5,0*
20,1,$1+$1,$4,$5,$6,$7,0*
20,1,$1+$1,$6,$7,$8,$9,0*
20,1,$1+$1,$8,$9,$2,$3,0*%
%AMRotRect*
0 Rectangle, with rotation*
0 The origin of the aperture is its center*
0 $1 length*
0 $2 width*
0 $3 Rotation angle, in degrees counterclockwise*
0 Add horizontal line*
21,1,$1,$2,0,0,$3*%
%AMFreePoly0*
4,1,23,0.499999,-0.750000,0.000000,-0.750000,0.000000,-0.745722,-0.065263,-0.745722,-0.191342,-0.711940,-0.304381,-0.646677,-0.396677,-0.554382,-0.461940,-0.441342,-0.495722,-0.315263,-0.495722,-0.250000,-0.500000,-0.250000,-0.500000,0.250000,-0.495722,0.250000,-0.495722,0.315263,-0.461940,0.441342,-0.396677,0.554382,-0.304381,0.646677,-0.191342,0.711940,-0.065263,0.745722,0.000000,0.745722,
0.000000,0.750000,0.499999,0.750000,0.499999,-0.750000,0.499999,-0.750000,$1*%
%AMFreePoly1*
4,1,23,0.000000,0.745722,0.065263,0.745722,0.191342,0.711940,0.304381,0.646677,0.396677,0.554382,0.461940,0.441342,0.495722,0.315263,0.495722,0.250000,0.500000,0.250000,0.500000,-0.250000,0.495722,-0.250000,0.495722,-0.315263,0.461940,-0.441342,0.396677,-0.554382,0.304381,-0.646677,0.191342,-0.711940,0.065263,-0.745722,0.000000,-0.745722,0.000000,-0.750000,-0.499999,-0.750000,
-0.499999,0.750000,0.000000,0.750000,0.000000,0.745722,0.000000,0.745722,$1*%
%AMFreePoly2*
4,1,9,3.862500,-0.866500,0.737500,-0.866500,0.737500,-0.450000,-0.737500,-0.450000,-0.737500,0.450000,0.737500,0.450000,0.737500,0.866500,3.862500,0.866500,3.862500,-0.866500,3.862500,-0.866500,$1*%
G04 Aperture macros list end*
%ADD10C,0.150000*%
%ADD11C,0.120000*%
%ADD12C,0.000000*%
%ADD13C,3.500000*%
%ADD14R,1.905000X2.000000*%
%ADD15O,1.905000X2.000000*%
%ADD16RoundRect,0.237500X0.237500X-0.300000X0.237500X0.300000X-0.237500X0.300000X-0.237500X-0.300000X0*%
%ADD17RoundRect,0.237500X0.044194X0.380070X-0.380070X-0.044194X-0.044194X-0.380070X0.380070X0.044194X0*%
%ADD18C,2.130000*%
%ADD19R,1.800000X3.000000*%
%ADD20O,1.800000X3.000000*%
%ADD21O,1.600000X3.000000*%
%ADD22C,0.600000*%
%ADD23RoundRect,0.200000X-0.200000X-0.500000X0.200000X-0.500000X0.200000X0.500000X-0.200000X0.500000X0*%
%ADD24RoundRect,0.075000X-0.075000X-0.625000X0.075000X-0.625000X0.075000X0.625000X-0.075000X0.625000X0*%
%ADD25O,0.900000X1.800000*%
%ADD26O,0.900000X1.500000*%
%ADD27RoundRect,0.250000X0.400000X0.625000X-0.400000X0.625000X-0.400000X-0.625000X0.400000X-0.625000X0*%
%ADD28RoundRect,0.250000X-0.625000X0.400000X-0.625000X-0.400000X0.625000X-0.400000X0.625000X0.400000X0*%
%ADD29RoundRect,0.237500X0.237500X-0.250000X0.237500X0.250000X-0.237500X0.250000X-0.237500X-0.250000X0*%
%ADD30R,1.700000X1.700000*%
%ADD31C,1.700000*%
%ADD32RoundRect,0.237500X-0.008839X-0.344715X0.344715X0.008839X0.008839X0.344715X-0.344715X-0.008839X0*%
%ADD33RoundRect,0.237500X0.008839X0.344715X-0.344715X-0.008839X-0.008839X-0.344715X0.344715X0.008839X0*%
%ADD34RoundRect,0.237500X-0.250000X-0.237500X0.250000X-0.237500X0.250000X0.237500X-0.250000X0.237500X0*%
%ADD35RoundRect,1.125000X-1.101193X1.148313X-1.148313X-1.101193X1.101193X-1.148313X1.148313X1.101193X0*%
%ADD36C,4.500000*%
%ADD37RoundRect,0.250000X-0.412500X-0.650000X0.412500X-0.650000X0.412500X0.650000X-0.412500X0.650000X0*%
%ADD38RoundRect,0.250000X0.751301X0.167938X0.167938X0.751301X-0.751301X-0.167938X-0.167938X-0.751301X0*%
%ADD39C,1.000000*%
%ADD40RoundRect,0.237500X0.250000X0.237500X-0.250000X0.237500X-0.250000X-0.237500X0.250000X-0.237500X0*%
%ADD41RoundRect,0.237500X0.287500X0.237500X-0.287500X0.237500X-0.287500X-0.237500X0.287500X-0.237500X0*%
%ADD42RoundRect,0.250000X-0.550000X0.950000X-0.550000X-0.950000X0.550000X-0.950000X0.550000X0.950000X0*%
%ADD43O,1.600000X2.400000*%
%ADD44RoundRect,0.250000X-0.650000X0.412500X-0.650000X-0.412500X0.650000X-0.412500X0.650000X0.412500X0*%
%ADD45RoundRect,0.237500X0.344715X-0.008839X-0.008839X0.344715X-0.344715X0.008839X0.008839X-0.344715X0*%
%ADD46RoundRect,0.237500X-0.344715X0.008839X0.008839X-0.344715X0.344715X-0.008839X-0.008839X0.344715X0*%
%ADD47R,3.600000X2.700000*%
%ADD48RotRect,1.700000X1.700000X45.000000*%
%ADD49RoundRect,0.250000X0.650000X-0.412500X0.650000X0.412500X-0.650000X0.412500X-0.650000X-0.412500X0*%
%ADD50RoundRect,0.250000X-1.350000X-1.350000X1.350000X-1.350000X1.350000X1.350000X-1.350000X1.350000X0*%
%ADD51C,3.200000*%
%ADD52R,2.000000X2.000000*%
%ADD53C,2.000000*%
%ADD54FreePoly0,225.000000*%
%ADD55FreePoly1,225.000000*%
%ADD56RoundRect,0.250000X0.412500X0.650000X-0.412500X0.650000X-0.412500X-0.650000X0.412500X-0.650000X0*%
%ADD57RoundRect,0.250001X-0.949999X-0.949999X0.949999X-0.949999X0.949999X0.949999X-0.949999X0.949999X0*%
%ADD58C,2.400000*%
%ADD59R,0.900000X1.000000*%
%ADD60C,1.800000*%
%ADD61RoundRect,0.225000X-0.225000X0.425000X-0.225000X-0.425000X0.225000X-0.425000X0.225000X0.425000X0*%
%ADD62FreePoly2,270.000000*%
%ADD63RoundRect,0.075000X-0.548008X0.441942X0.441942X-0.548008X0.548008X-0.441942X-0.441942X0.548008X0*%
%ADD64RoundRect,0.075000X-0.548008X-0.441942X-0.441942X-0.548008X0.548008X0.441942X0.441942X0.548008X0*%
%ADD65RoundRect,0.237500X0.035355X0.371231X-0.371231X-0.035355X-0.035355X-0.371231X0.371231X0.035355X0*%
%ADD66RoundRect,0.150000X0.150000X-0.825000X0.150000X0.825000X-0.150000X0.825000X-0.150000X-0.825000X0*%
%ADD67RoundRect,0.150000X-0.150000X0.825000X-0.150000X-0.825000X0.150000X-0.825000X0.150000X0.825000X0*%
G04 APERTURE END LIST*
D10*
X84361904Y-83748109D02*
X84361904Y-84557632D01*
X84361904Y-84557632D02*
X84314285Y-84652870D01*
X84314285Y-84652870D02*
X84266666Y-84700490D01*
X84266666Y-84700490D02*
X84171428Y-84748109D01*
X84171428Y-84748109D02*
X83980952Y-84748109D01*
X83980952Y-84748109D02*
X83885714Y-84700490D01*
X83885714Y-84700490D02*
X83838095Y-84652870D01*
X83838095Y-84652870D02*
X83790476Y-84557632D01*
X83790476Y-84557632D02*
X83790476Y-83748109D01*
X83409523Y-83748109D02*
X82790476Y-83748109D01*
X82790476Y-83748109D02*
X83123809Y-84129061D01*
X83123809Y-84129061D02*
X82980952Y-84129061D01*
X82980952Y-84129061D02*
X82885714Y-84176680D01*
X82885714Y-84176680D02*
X82838095Y-84224299D01*
X82838095Y-84224299D02*
X82790476Y-84319537D01*
X82790476Y-84319537D02*
X82790476Y-84557632D01*
X82790476Y-84557632D02*
X82838095Y-84652870D01*
X82838095Y-84652870D02*
X82885714Y-84700490D01*
X82885714Y-84700490D02*
X82980952Y-84748109D01*
X82980952Y-84748109D02*
X83266666Y-84748109D01*
X83266666Y-84748109D02*
X83361904Y-84700490D01*
X83361904Y-84700490D02*
X83409523Y-84652870D01*
X50895238Y-84143347D02*
X50990476Y-84095728D01*
X50990476Y-84095728D02*
X51085714Y-84000490D01*
X51085714Y-84000490D02*
X51228571Y-83857632D01*
X51228571Y-83857632D02*
X51323809Y-83810013D01*
X51323809Y-83810013D02*
X51419047Y-83810013D01*
X51371428Y-84048109D02*
X51466666Y-84000490D01*
X51466666Y-84000490D02*
X51561904Y-83905251D01*
X51561904Y-83905251D02*
X51609523Y-83714775D01*
X51609523Y-83714775D02*
X51609523Y-83381442D01*
X51609523Y-83381442D02*
X51561904Y-83190966D01*
X51561904Y-83190966D02*
X51466666Y-83095728D01*
X51466666Y-83095728D02*
X51371428Y-83048109D01*
X51371428Y-83048109D02*
X51180952Y-83048109D01*
X51180952Y-83048109D02*
X51085714Y-83095728D01*
X51085714Y-83095728D02*
X50990476Y-83190966D01*
X50990476Y-83190966D02*
X50942857Y-83381442D01*
X50942857Y-83381442D02*
X50942857Y-83714775D01*
X50942857Y-83714775D02*
X50990476Y-83905251D01*
X50990476Y-83905251D02*
X51085714Y-84000490D01*
X51085714Y-84000490D02*
X51180952Y-84048109D01*
X51180952Y-84048109D02*
X51371428Y-84048109D01*
X49990476Y-84048109D02*
X50561904Y-84048109D01*
X50276190Y-84048109D02*
X50276190Y-83048109D01*
X50276190Y-83048109D02*
X50371428Y-83190966D01*
X50371428Y-83190966D02*
X50466666Y-83286204D01*
X50466666Y-83286204D02*
X50561904Y-83333823D01*
X147016434Y-63157142D02*
X147064054Y-63109523D01*
X147064054Y-63109523D02*
X147111673Y-62966666D01*
X147111673Y-62966666D02*
X147111673Y-62871428D01*
X147111673Y-62871428D02*
X147064054Y-62728571D01*
X147064054Y-62728571D02*
X146968815Y-62633333D01*
X146968815Y-62633333D02*
X146873577Y-62585714D01*
X146873577Y-62585714D02*
X146683101Y-62538095D01*
X146683101Y-62538095D02*
X146540244Y-62538095D01*
X146540244Y-62538095D02*
X146349768Y-62585714D01*
X146349768Y-62585714D02*
X146254530Y-62633333D01*
X146254530Y-62633333D02*
X146159292Y-62728571D01*
X146159292Y-62728571D02*
X146111673Y-62871428D01*
X146111673Y-62871428D02*
X146111673Y-62966666D01*
X146111673Y-62966666D02*
X146159292Y-63109523D01*
X146159292Y-63109523D02*
X146206911Y-63157142D01*
X147111673Y-64109523D02*
X147111673Y-63538095D01*
X147111673Y-63823809D02*
X146111673Y-63823809D01*
X146111673Y-63823809D02*
X146254530Y-63728571D01*
X146254530Y-63728571D02*
X146349768Y-63633333D01*
X146349768Y-63633333D02*
X146397387Y-63538095D01*
X146540244Y-64680952D02*
X146492625Y-64585714D01*
X146492625Y-64585714D02*
X146445006Y-64538095D01*
X146445006Y-64538095D02*
X146349768Y-64490476D01*
X146349768Y-64490476D02*
X146302149Y-64490476D01*
X146302149Y-64490476D02*
X146206911Y-64538095D01*
X146206911Y-64538095D02*
X146159292Y-64585714D01*
X146159292Y-64585714D02*
X146111673Y-64680952D01*
X146111673Y-64680952D02*
X146111673Y-64871428D01*
X146111673Y-64871428D02*
X146159292Y-64966666D01*
X146159292Y-64966666D02*
X146206911Y-65014285D01*
X146206911Y-65014285D02*
X146302149Y-65061904D01*
X146302149Y-65061904D02*
X146349768Y-65061904D01*
X146349768Y-65061904D02*
X146445006Y-65014285D01*
X146445006Y-65014285D02*
X146492625Y-64966666D01*
X146492625Y-64966666D02*
X146540244Y-64871428D01*
X146540244Y-64871428D02*
X146540244Y-64680952D01*
X146540244Y-64680952D02*
X146587863Y-64585714D01*
X146587863Y-64585714D02*
X146635482Y-64538095D01*
X146635482Y-64538095D02*
X146730720Y-64490476D01*
X146730720Y-64490476D02*
X146921196Y-64490476D01*
X146921196Y-64490476D02*
X147016434Y-64538095D01*
X147016434Y-64538095D02*
X147064054Y-64585714D01*
X147064054Y-64585714D02*
X147111673Y-64680952D01*
X147111673Y-64680952D02*
X147111673Y-64871428D01*
X147111673Y-64871428D02*
X147064054Y-64966666D01*
X147064054Y-64966666D02*
X147016434Y-65014285D01*
X147016434Y-65014285D02*
X146921196Y-65061904D01*
X146921196Y-65061904D02*
X146730720Y-65061904D01*
X146730720Y-65061904D02*
X146635482Y-65014285D01*
X146635482Y-65014285D02*
X146587863Y-64966666D01*
X146587863Y-64966666D02*
X146540244Y-64871428D01*
X147016434Y-67857142D02*
X147064054Y-67809523D01*
X147064054Y-67809523D02*
X147111673Y-67666666D01*
X147111673Y-67666666D02*
X147111673Y-67571428D01*
X147111673Y-67571428D02*
X147064054Y-67428571D01*
X147064054Y-67428571D02*
X146968815Y-67333333D01*
X146968815Y-67333333D02*
X146873577Y-67285714D01*
X146873577Y-67285714D02*
X146683101Y-67238095D01*
X146683101Y-67238095D02*
X146540244Y-67238095D01*
X146540244Y-67238095D02*
X146349768Y-67285714D01*
X146349768Y-67285714D02*
X146254530Y-67333333D01*
X146254530Y-67333333D02*
X146159292Y-67428571D01*
X146159292Y-67428571D02*
X146111673Y-67571428D01*
X146111673Y-67571428D02*
X146111673Y-67666666D01*
X146111673Y-67666666D02*
X146159292Y-67809523D01*
X146159292Y-67809523D02*
X146206911Y-67857142D01*
X147111673Y-68809523D02*
X147111673Y-68238095D01*
X147111673Y-68523809D02*
X146111673Y-68523809D01*
X146111673Y-68523809D02*
X146254530Y-68428571D01*
X146254530Y-68428571D02*
X146349768Y-68333333D01*
X146349768Y-68333333D02*
X146397387Y-68238095D01*
X146111673Y-69142857D02*
X146111673Y-69809523D01*
X146111673Y-69809523D02*
X147111673Y-69380952D01*
X148997667Y-61001820D02*
X149065011Y-61001820D01*
X149065011Y-61001820D02*
X149199698Y-60934476D01*
X149199698Y-60934476D02*
X149267041Y-60867133D01*
X149267041Y-60867133D02*
X149334385Y-60732446D01*
X149334385Y-60732446D02*
X149334385Y-60597759D01*
X149334385Y-60597759D02*
X149300713Y-60496744D01*
X149300713Y-60496744D02*
X149199698Y-60328385D01*
X149199698Y-60328385D02*
X149098683Y-60227370D01*
X149098683Y-60227370D02*
X148930324Y-60126354D01*
X148930324Y-60126354D02*
X148829309Y-60092683D01*
X148829309Y-60092683D02*
X148694622Y-60092683D01*
X148694622Y-60092683D02*
X148559935Y-60160026D01*
X148559935Y-60160026D02*
X148492591Y-60227370D01*
X148492591Y-60227370D02*
X148425248Y-60362057D01*
X148425248Y-60362057D02*
X148425248Y-60429400D01*
X148391576Y-61742598D02*
X148795637Y-61338537D01*
X148593606Y-61540568D02*
X147886500Y-60833461D01*
X147886500Y-60833461D02*
X148054858Y-60867133D01*
X148054858Y-60867133D02*
X148189545Y-60867133D01*
X148189545Y-60867133D02*
X148290561Y-60833461D01*
X147448767Y-61271194D02*
X147011034Y-61708927D01*
X147011034Y-61708927D02*
X147516110Y-61742599D01*
X147516110Y-61742599D02*
X147415095Y-61843614D01*
X147415095Y-61843614D02*
X147381423Y-61944629D01*
X147381423Y-61944629D02*
X147381423Y-62011973D01*
X147381423Y-62011973D02*
X147415095Y-62112988D01*
X147415095Y-62112988D02*
X147583454Y-62281347D01*
X147583454Y-62281347D02*
X147684469Y-62315018D01*
X147684469Y-62315018D02*
X147751812Y-62315018D01*
X147751812Y-62315018D02*
X147852828Y-62281347D01*
X147852828Y-62281347D02*
X148054858Y-62079316D01*
X148054858Y-62079316D02*
X148088530Y-61978301D01*
X148088530Y-61978301D02*
X148088530Y-61910957D01*
X54389160Y-60468109D02*
X54389160Y-61182394D01*
X54389160Y-61182394D02*
X54436779Y-61325251D01*
X54436779Y-61325251D02*
X54532017Y-61420490D01*
X54532017Y-61420490D02*
X54674874Y-61468109D01*
X54674874Y-61468109D02*
X54770112Y-61468109D01*
X53389160Y-61468109D02*
X53960588Y-61468109D01*
X53674874Y-61468109D02*
X53674874Y-60468109D01*
X53674874Y-60468109D02*
X53770112Y-60610966D01*
X53770112Y-60610966D02*
X53865350Y-60706204D01*
X53865350Y-60706204D02*
X53960588Y-60753823D01*
X107988094Y-56454819D02*
X107988094Y-55454819D01*
X107988094Y-55454819D02*
X107607142Y-55454819D01*
X107607142Y-55454819D02*
X107511904Y-55502438D01*
X107511904Y-55502438D02*
X107464285Y-55550057D01*
X107464285Y-55550057D02*
X107416666Y-55645295D01*
X107416666Y-55645295D02*
X107416666Y-55788152D01*
X107416666Y-55788152D02*
X107464285Y-55883390D01*
X107464285Y-55883390D02*
X107511904Y-55931009D01*
X107511904Y-55931009D02*
X107607142Y-55978628D01*
X107607142Y-55978628D02*
X107988094Y-55978628D01*
X106464285Y-56454819D02*
X107035713Y-56454819D01*
X106749999Y-56454819D02*
X106749999Y-55454819D01*
X106749999Y-55454819D02*
X106845237Y-55597676D01*
X106845237Y-55597676D02*
X106940475Y-55692914D01*
X106940475Y-55692914D02*
X107035713Y-55740533D01*
X64266666Y-66638110D02*
X64599999Y-66161919D01*
X64838094Y-66638110D02*
X64838094Y-65638110D01*
X64838094Y-65638110D02*
X64457142Y-65638110D01*
X64457142Y-65638110D02*
X64361904Y-65685729D01*
X64361904Y-65685729D02*
X64314285Y-65733348D01*
X64314285Y-65733348D02*
X64266666Y-65828586D01*
X64266666Y-65828586D02*
X64266666Y-65971443D01*
X64266666Y-65971443D02*
X64314285Y-66066681D01*
X64314285Y-66066681D02*
X64361904Y-66114300D01*
X64361904Y-66114300D02*
X64457142Y-66161919D01*
X64457142Y-66161919D02*
X64838094Y-66161919D01*
X63695237Y-66066681D02*
X63790475Y-66019062D01*
X63790475Y-66019062D02*
X63838094Y-65971443D01*
X63838094Y-65971443D02*
X63885713Y-65876205D01*
X63885713Y-65876205D02*
X63885713Y-65828586D01*
X63885713Y-65828586D02*
X63838094Y-65733348D01*
X63838094Y-65733348D02*
X63790475Y-65685729D01*
X63790475Y-65685729D02*
X63695237Y-65638110D01*
X63695237Y-65638110D02*
X63504761Y-65638110D01*
X63504761Y-65638110D02*
X63409523Y-65685729D01*
X63409523Y-65685729D02*
X63361904Y-65733348D01*
X63361904Y-65733348D02*
X63314285Y-65828586D01*
X63314285Y-65828586D02*
X63314285Y-65876205D01*
X63314285Y-65876205D02*
X63361904Y-65971443D01*
X63361904Y-65971443D02*
X63409523Y-66019062D01*
X63409523Y-66019062D02*
X63504761Y-66066681D01*
X63504761Y-66066681D02*
X63695237Y-66066681D01*
X63695237Y-66066681D02*
X63790475Y-66114300D01*
X63790475Y-66114300D02*
X63838094Y-66161919D01*
X63838094Y-66161919D02*
X63885713Y-66257157D01*
X63885713Y-66257157D02*
X63885713Y-66447633D01*
X63885713Y-66447633D02*
X63838094Y-66542871D01*
X63838094Y-66542871D02*
X63790475Y-66590491D01*
X63790475Y-66590491D02*
X63695237Y-66638110D01*
X63695237Y-66638110D02*
X63504761Y-66638110D01*
X63504761Y-66638110D02*
X63409523Y-66590491D01*
X63409523Y-66590491D02*
X63361904Y-66542871D01*
X63361904Y-66542871D02*
X63314285Y-66447633D01*
X63314285Y-66447633D02*
X63314285Y-66257157D01*
X63314285Y-66257157D02*
X63361904Y-66161919D01*
X63361904Y-66161919D02*
X63409523Y-66114300D01*
X63409523Y-66114300D02*
X63504761Y-66066681D01*
X61424820Y-73446623D02*
X60948629Y-73113290D01*
X61424820Y-72875195D02*
X60424820Y-72875195D01*
X60424820Y-72875195D02*
X60424820Y-73256147D01*
X60424820Y-73256147D02*
X60472439Y-73351385D01*
X60472439Y-73351385D02*
X60520058Y-73399004D01*
X60520058Y-73399004D02*
X60615296Y-73446623D01*
X60615296Y-73446623D02*
X60758153Y-73446623D01*
X60758153Y-73446623D02*
X60853391Y-73399004D01*
X60853391Y-73399004D02*
X60901010Y-73351385D01*
X60901010Y-73351385D02*
X60948629Y-73256147D01*
X60948629Y-73256147D02*
X60948629Y-72875195D01*
X61424820Y-73922814D02*
X61424820Y-74113290D01*
X61424820Y-74113290D02*
X61377201Y-74208528D01*
X61377201Y-74208528D02*
X61329581Y-74256147D01*
X61329581Y-74256147D02*
X61186724Y-74351385D01*
X61186724Y-74351385D02*
X60996248Y-74399004D01*
X60996248Y-74399004D02*
X60615296Y-74399004D01*
X60615296Y-74399004D02*
X60520058Y-74351385D01*
X60520058Y-74351385D02*
X60472439Y-74303766D01*
X60472439Y-74303766D02*
X60424820Y-74208528D01*
X60424820Y-74208528D02*
X60424820Y-74018052D01*
X60424820Y-74018052D02*
X60472439Y-73922814D01*
X60472439Y-73922814D02*
X60520058Y-73875195D01*
X60520058Y-73875195D02*
X60615296Y-73827576D01*
X60615296Y-73827576D02*
X60853391Y-73827576D01*
X60853391Y-73827576D02*
X60948629Y-73875195D01*
X60948629Y-73875195D02*
X60996248Y-73922814D01*
X60996248Y-73922814D02*
X61043867Y-74018052D01*
X61043867Y-74018052D02*
X61043867Y-74208528D01*
X61043867Y-74208528D02*
X60996248Y-74303766D01*
X60996248Y-74303766D02*
X60948629Y-74351385D01*
X60948629Y-74351385D02*
X60853391Y-74399004D01*
X51684819Y-88170432D02*
X51208628Y-87837099D01*
X51684819Y-87599004D02*
X50684819Y-87599004D01*
X50684819Y-87599004D02*
X50684819Y-87979956D01*
X50684819Y-87979956D02*
X50732438Y-88075194D01*
X50732438Y-88075194D02*
X50780057Y-88122813D01*
X50780057Y-88122813D02*
X50875295Y-88170432D01*
X50875295Y-88170432D02*
X51018152Y-88170432D01*
X51018152Y-88170432D02*
X51113390Y-88122813D01*
X51113390Y-88122813D02*
X51161009Y-88075194D01*
X51161009Y-88075194D02*
X51208628Y-87979956D01*
X51208628Y-87979956D02*
X51208628Y-87599004D01*
X51684819Y-89122813D02*
X51684819Y-88551385D01*
X51684819Y-88837099D02*
X50684819Y-88837099D01*
X50684819Y-88837099D02*
X50827676Y-88741861D01*
X50827676Y-88741861D02*
X50922914Y-88646623D01*
X50922914Y-88646623D02*
X50970533Y-88551385D01*
X51684819Y-90075194D02*
X51684819Y-89503766D01*
X51684819Y-89789480D02*
X50684819Y-89789480D01*
X50684819Y-89789480D02*
X50827676Y-89694242D01*
X50827676Y-89694242D02*
X50922914Y-89599004D01*
X50922914Y-89599004D02*
X50970533Y-89503766D01*
X198142857Y-79738109D02*
X198476190Y-79261918D01*
X198714285Y-79738109D02*
X198714285Y-78738109D01*
X198714285Y-78738109D02*
X198333333Y-78738109D01*
X198333333Y-78738109D02*
X198238095Y-78785728D01*
X198238095Y-78785728D02*
X198190476Y-78833347D01*
X198190476Y-78833347D02*
X198142857Y-78928585D01*
X198142857Y-78928585D02*
X198142857Y-79071442D01*
X198142857Y-79071442D02*
X198190476Y-79166680D01*
X198190476Y-79166680D02*
X198238095Y-79214299D01*
X198238095Y-79214299D02*
X198333333Y-79261918D01*
X198333333Y-79261918D02*
X198714285Y-79261918D01*
X197285714Y-79071442D02*
X197285714Y-79738109D01*
X197523809Y-78690490D02*
X197761904Y-79404775D01*
X197761904Y-79404775D02*
X197142857Y-79404775D01*
X196571428Y-78738109D02*
X196476190Y-78738109D01*
X196476190Y-78738109D02*
X196380952Y-78785728D01*
X196380952Y-78785728D02*
X196333333Y-78833347D01*
X196333333Y-78833347D02*
X196285714Y-78928585D01*
X196285714Y-78928585D02*
X196238095Y-79119061D01*
X196238095Y-79119061D02*
X196238095Y-79357156D01*
X196238095Y-79357156D02*
X196285714Y-79547632D01*
X196285714Y-79547632D02*
X196333333Y-79642870D01*
X196333333Y-79642870D02*
X196380952Y-79690490D01*
X196380952Y-79690490D02*
X196476190Y-79738109D01*
X196476190Y-79738109D02*
X196571428Y-79738109D01*
X196571428Y-79738109D02*
X196666666Y-79690490D01*
X196666666Y-79690490D02*
X196714285Y-79642870D01*
X196714285Y-79642870D02*
X196761904Y-79547632D01*
X196761904Y-79547632D02*
X196809523Y-79357156D01*
X196809523Y-79357156D02*
X196809523Y-79119061D01*
X196809523Y-79119061D02*
X196761904Y-78928585D01*
X196761904Y-78928585D02*
X196714285Y-78833347D01*
X196714285Y-78833347D02*
X196666666Y-78785728D01*
X196666666Y-78785728D02*
X196571428Y-78738109D01*
X199095854Y-55382972D02*
X198994839Y-54810553D01*
X199499915Y-54978911D02*
X198792808Y-54271805D01*
X198792808Y-54271805D02*
X198523434Y-54541179D01*
X198523434Y-54541179D02*
X198489762Y-54642194D01*
X198489762Y-54642194D02*
X198489762Y-54709537D01*
X198489762Y-54709537D02*
X198523434Y-54810553D01*
X198523434Y-54810553D02*
X198624449Y-54911568D01*
X198624449Y-54911568D02*
X198725465Y-54945240D01*
X198725465Y-54945240D02*
X198792808Y-54945240D01*
X198792808Y-54945240D02*
X198893823Y-54911568D01*
X198893823Y-54911568D02*
X199163197Y-54642194D01*
X198153045Y-54911568D02*
X197681640Y-55382972D01*
X197681640Y-55382972D02*
X198691793Y-55787033D01*
X171265011Y-57469163D02*
X171163996Y-56896744D01*
X171669072Y-57065102D02*
X170961965Y-56357996D01*
X170961965Y-56357996D02*
X170692591Y-56627370D01*
X170692591Y-56627370D02*
X170658919Y-56728385D01*
X170658919Y-56728385D02*
X170658919Y-56795728D01*
X170658919Y-56795728D02*
X170692591Y-56896744D01*
X170692591Y-56896744D02*
X170793606Y-56997759D01*
X170793606Y-56997759D02*
X170894622Y-57031431D01*
X170894622Y-57031431D02*
X170961965Y-57031431D01*
X170961965Y-57031431D02*
X171062980Y-56997759D01*
X171062980Y-56997759D02*
X171332354Y-56728385D01*
X170322202Y-56997759D02*
X169884469Y-57435492D01*
X169884469Y-57435492D02*
X170389545Y-57469163D01*
X170389545Y-57469163D02*
X170288530Y-57570179D01*
X170288530Y-57570179D02*
X170254858Y-57671194D01*
X170254858Y-57671194D02*
X170254858Y-57738537D01*
X170254858Y-57738537D02*
X170288530Y-57839553D01*
X170288530Y-57839553D02*
X170456889Y-58007911D01*
X170456889Y-58007911D02*
X170557904Y-58041583D01*
X170557904Y-58041583D02*
X170625248Y-58041583D01*
X170625248Y-58041583D02*
X170726263Y-58007911D01*
X170726263Y-58007911D02*
X170928293Y-57805881D01*
X170928293Y-57805881D02*
X170961965Y-57704866D01*
X170961965Y-57704866D02*
X170961965Y-57637522D01*
X170254858Y-58479316D02*
X170120171Y-58614003D01*
X170120171Y-58614003D02*
X170019156Y-58647675D01*
X170019156Y-58647675D02*
X169951812Y-58647675D01*
X169951812Y-58647675D02*
X169783454Y-58614003D01*
X169783454Y-58614003D02*
X169615095Y-58512988D01*
X169615095Y-58512988D02*
X169345721Y-58243614D01*
X169345721Y-58243614D02*
X169312049Y-58142599D01*
X169312049Y-58142599D02*
X169312049Y-58075255D01*
X169312049Y-58075255D02*
X169345721Y-57974240D01*
X169345721Y-57974240D02*
X169480408Y-57839553D01*
X169480408Y-57839553D02*
X169581423Y-57805881D01*
X169581423Y-57805881D02*
X169648767Y-57805881D01*
X169648767Y-57805881D02*
X169749782Y-57839553D01*
X169749782Y-57839553D02*
X169918141Y-58007912D01*
X169918141Y-58007912D02*
X169951812Y-58108927D01*
X169951812Y-58108927D02*
X169951812Y-58176270D01*
X169951812Y-58176270D02*
X169918141Y-58277286D01*
X169918141Y-58277286D02*
X169783454Y-58411973D01*
X169783454Y-58411973D02*
X169682438Y-58445644D01*
X169682438Y-58445644D02*
X169615095Y-58445644D01*
X169615095Y-58445644D02*
X169514080Y-58411973D01*
X49342857Y-86198109D02*
X49676190Y-85721918D01*
X49914285Y-86198109D02*
X49914285Y-85198109D01*
X49914285Y-85198109D02*
X49533333Y-85198109D01*
X49533333Y-85198109D02*
X49438095Y-85245728D01*
X49438095Y-85245728D02*
X49390476Y-85293347D01*
X49390476Y-85293347D02*
X49342857Y-85388585D01*
X49342857Y-85388585D02*
X49342857Y-85531442D01*
X49342857Y-85531442D02*
X49390476Y-85626680D01*
X49390476Y-85626680D02*
X49438095Y-85674299D01*
X49438095Y-85674299D02*
X49533333Y-85721918D01*
X49533333Y-85721918D02*
X49914285Y-85721918D01*
X48390476Y-86198109D02*
X48961904Y-86198109D01*
X48676190Y-86198109D02*
X48676190Y-85198109D01*
X48676190Y-85198109D02*
X48771428Y-85340966D01*
X48771428Y-85340966D02*
X48866666Y-85436204D01*
X48866666Y-85436204D02*
X48961904Y-85483823D01*
X47771428Y-85198109D02*
X47676190Y-85198109D01*
X47676190Y-85198109D02*
X47580952Y-85245728D01*
X47580952Y-85245728D02*
X47533333Y-85293347D01*
X47533333Y-85293347D02*
X47485714Y-85388585D01*
X47485714Y-85388585D02*
X47438095Y-85579061D01*
X47438095Y-85579061D02*
X47438095Y-85817156D01*
X47438095Y-85817156D02*
X47485714Y-86007632D01*
X47485714Y-86007632D02*
X47533333Y-86102870D01*
X47533333Y-86102870D02*
X47580952Y-86150490D01*
X47580952Y-86150490D02*
X47676190Y-86198109D01*
X47676190Y-86198109D02*
X47771428Y-86198109D01*
X47771428Y-86198109D02*
X47866666Y-86150490D01*
X47866666Y-86150490D02*
X47914285Y-86102870D01*
X47914285Y-86102870D02*
X47961904Y-86007632D01*
X47961904Y-86007632D02*
X48009523Y-85817156D01*
X48009523Y-85817156D02*
X48009523Y-85579061D01*
X48009523Y-85579061D02*
X47961904Y-85388585D01*
X47961904Y-85388585D02*
X47914285Y-85293347D01*
X47914285Y-85293347D02*
X47866666Y-85245728D01*
X47866666Y-85245728D02*
X47771428Y-85198109D01*
X146730357Y-54008109D02*
X147063690Y-53531918D01*
X147301785Y-54008109D02*
X147301785Y-53008109D01*
X147301785Y-53008109D02*
X146920833Y-53008109D01*
X146920833Y-53008109D02*
X146825595Y-53055728D01*
X146825595Y-53055728D02*
X146777976Y-53103347D01*
X146777976Y-53103347D02*
X146730357Y-53198585D01*
X146730357Y-53198585D02*
X146730357Y-53341442D01*
X146730357Y-53341442D02*
X146777976Y-53436680D01*
X146777976Y-53436680D02*
X146825595Y-53484299D01*
X146825595Y-53484299D02*
X146920833Y-53531918D01*
X146920833Y-53531918D02*
X147301785Y-53531918D01*
X146349404Y-53103347D02*
X146301785Y-53055728D01*
X146301785Y-53055728D02*
X146206547Y-53008109D01*
X146206547Y-53008109D02*
X145968452Y-53008109D01*
X145968452Y-53008109D02*
X145873214Y-53055728D01*
X145873214Y-53055728D02*
X145825595Y-53103347D01*
X145825595Y-53103347D02*
X145777976Y-53198585D01*
X145777976Y-53198585D02*
X145777976Y-53293823D01*
X145777976Y-53293823D02*
X145825595Y-53436680D01*
X145825595Y-53436680D02*
X146397023Y-54008109D01*
X146397023Y-54008109D02*
X145777976Y-54008109D01*
X144920833Y-53008109D02*
X145111309Y-53008109D01*
X145111309Y-53008109D02*
X145206547Y-53055728D01*
X145206547Y-53055728D02*
X145254166Y-53103347D01*
X145254166Y-53103347D02*
X145349404Y-53246204D01*
X145349404Y-53246204D02*
X145397023Y-53436680D01*
X145397023Y-53436680D02*
X145397023Y-53817632D01*
X145397023Y-53817632D02*
X145349404Y-53912870D01*
X145349404Y-53912870D02*
X145301785Y-53960490D01*
X145301785Y-53960490D02*
X145206547Y-54008109D01*
X145206547Y-54008109D02*
X145016071Y-54008109D01*
X145016071Y-54008109D02*
X144920833Y-53960490D01*
X144920833Y-53960490D02*
X144873214Y-53912870D01*
X144873214Y-53912870D02*
X144825595Y-53817632D01*
X144825595Y-53817632D02*
X144825595Y-53579537D01*
X144825595Y-53579537D02*
X144873214Y-53484299D01*
X144873214Y-53484299D02*
X144920833Y-53436680D01*
X144920833Y-53436680D02*
X145016071Y-53389061D01*
X145016071Y-53389061D02*
X145206547Y-53389061D01*
X145206547Y-53389061D02*
X145301785Y-53436680D01*
X145301785Y-53436680D02*
X145349404Y-53484299D01*
X145349404Y-53484299D02*
X145397023Y-53579537D01*
X58966666Y-70122871D02*
X59014285Y-70170491D01*
X59014285Y-70170491D02*
X59157142Y-70218110D01*
X59157142Y-70218110D02*
X59252380Y-70218110D01*
X59252380Y-70218110D02*
X59395237Y-70170491D01*
X59395237Y-70170491D02*
X59490475Y-70075252D01*
X59490475Y-70075252D02*
X59538094Y-69980014D01*
X59538094Y-69980014D02*
X59585713Y-69789538D01*
X59585713Y-69789538D02*
X59585713Y-69646681D01*
X59585713Y-69646681D02*
X59538094Y-69456205D01*
X59538094Y-69456205D02*
X59490475Y-69360967D01*
X59490475Y-69360967D02*
X59395237Y-69265729D01*
X59395237Y-69265729D02*
X59252380Y-69218110D01*
X59252380Y-69218110D02*
X59157142Y-69218110D01*
X59157142Y-69218110D02*
X59014285Y-69265729D01*
X59014285Y-69265729D02*
X58966666Y-69313348D01*
X58109523Y-69218110D02*
X58299999Y-69218110D01*
X58299999Y-69218110D02*
X58395237Y-69265729D01*
X58395237Y-69265729D02*
X58442856Y-69313348D01*
X58442856Y-69313348D02*
X58538094Y-69456205D01*
X58538094Y-69456205D02*
X58585713Y-69646681D01*
X58585713Y-69646681D02*
X58585713Y-70027633D01*
X58585713Y-70027633D02*
X58538094Y-70122871D01*
X58538094Y-70122871D02*
X58490475Y-70170491D01*
X58490475Y-70170491D02*
X58395237Y-70218110D01*
X58395237Y-70218110D02*
X58204761Y-70218110D01*
X58204761Y-70218110D02*
X58109523Y-70170491D01*
X58109523Y-70170491D02*
X58061904Y-70122871D01*
X58061904Y-70122871D02*
X58014285Y-70027633D01*
X58014285Y-70027633D02*
X58014285Y-69789538D01*
X58014285Y-69789538D02*
X58061904Y-69694300D01*
X58061904Y-69694300D02*
X58109523Y-69646681D01*
X58109523Y-69646681D02*
X58204761Y-69599062D01*
X58204761Y-69599062D02*
X58395237Y-69599062D01*
X58395237Y-69599062D02*
X58490475Y-69646681D01*
X58490475Y-69646681D02*
X58538094Y-69694300D01*
X58538094Y-69694300D02*
X58585713Y-69789538D01*
X176587337Y-62791489D02*
X176486322Y-62219070D01*
X176991398Y-62387428D02*
X176284291Y-61680322D01*
X176284291Y-61680322D02*
X176014917Y-61949696D01*
X176014917Y-61949696D02*
X175981245Y-62050711D01*
X175981245Y-62050711D02*
X175981245Y-62118054D01*
X175981245Y-62118054D02*
X176014917Y-62219070D01*
X176014917Y-62219070D02*
X176115932Y-62320085D01*
X176115932Y-62320085D02*
X176216948Y-62353757D01*
X176216948Y-62353757D02*
X176284291Y-62353757D01*
X176284291Y-62353757D02*
X176385306Y-62320085D01*
X176385306Y-62320085D02*
X176654680Y-62050711D01*
X175678200Y-62421100D02*
X175610856Y-62421100D01*
X175610856Y-62421100D02*
X175509841Y-62454772D01*
X175509841Y-62454772D02*
X175341482Y-62623131D01*
X175341482Y-62623131D02*
X175307810Y-62724146D01*
X175307810Y-62724146D02*
X175307810Y-62791489D01*
X175307810Y-62791489D02*
X175341482Y-62892505D01*
X175341482Y-62892505D02*
X175408826Y-62959848D01*
X175408826Y-62959848D02*
X175543513Y-63027192D01*
X175543513Y-63027192D02*
X176351635Y-63027192D01*
X176351635Y-63027192D02*
X175913902Y-63464924D01*
X174836406Y-63599612D02*
X175307810Y-64071016D01*
X174735390Y-63161879D02*
X175408825Y-63498596D01*
X175408825Y-63498596D02*
X174971093Y-63936329D01*
X163108454Y-50913972D02*
X163108454Y-50981316D01*
X163108454Y-50981316D02*
X163175798Y-51116003D01*
X163175798Y-51116003D02*
X163243141Y-51183346D01*
X163243141Y-51183346D02*
X163377828Y-51250690D01*
X163377828Y-51250690D02*
X163512515Y-51250690D01*
X163512515Y-51250690D02*
X163613530Y-51217018D01*
X163613530Y-51217018D02*
X163781889Y-51116003D01*
X163781889Y-51116003D02*
X163882904Y-51014988D01*
X163882904Y-51014988D02*
X163983920Y-50846629D01*
X163983920Y-50846629D02*
X164017591Y-50745614D01*
X164017591Y-50745614D02*
X164017591Y-50610927D01*
X164017591Y-50610927D02*
X163950248Y-50476240D01*
X163950248Y-50476240D02*
X163882904Y-50408896D01*
X163882904Y-50408896D02*
X163748217Y-50341553D01*
X163748217Y-50341553D02*
X163680874Y-50341553D01*
X162367676Y-50307881D02*
X162771737Y-50711942D01*
X162569706Y-50509911D02*
X163276813Y-49802805D01*
X163276813Y-49802805D02*
X163243141Y-49971163D01*
X163243141Y-49971163D02*
X163243141Y-50105850D01*
X163243141Y-50105850D02*
X163276813Y-50206866D01*
X162738065Y-49398743D02*
X162738065Y-49331400D01*
X162738065Y-49331400D02*
X162704393Y-49230385D01*
X162704393Y-49230385D02*
X162536034Y-49062026D01*
X162536034Y-49062026D02*
X162435019Y-49028354D01*
X162435019Y-49028354D02*
X162367675Y-49028354D01*
X162367675Y-49028354D02*
X162266660Y-49062026D01*
X162266660Y-49062026D02*
X162199317Y-49129369D01*
X162199317Y-49129369D02*
X162131973Y-49264056D01*
X162131973Y-49264056D02*
X162131973Y-50072178D01*
X162131973Y-50072178D02*
X161694240Y-49634446D01*
X183555357Y-54498109D02*
X183888690Y-54021918D01*
X184126785Y-54498109D02*
X184126785Y-53498109D01*
X184126785Y-53498109D02*
X183745833Y-53498109D01*
X183745833Y-53498109D02*
X183650595Y-53545728D01*
X183650595Y-53545728D02*
X183602976Y-53593347D01*
X183602976Y-53593347D02*
X183555357Y-53688585D01*
X183555357Y-53688585D02*
X183555357Y-53831442D01*
X183555357Y-53831442D02*
X183602976Y-53926680D01*
X183602976Y-53926680D02*
X183650595Y-53974299D01*
X183650595Y-53974299D02*
X183745833Y-54021918D01*
X183745833Y-54021918D02*
X184126785Y-54021918D01*
X183174404Y-53593347D02*
X183126785Y-53545728D01*
X183126785Y-53545728D02*
X183031547Y-53498109D01*
X183031547Y-53498109D02*
X182793452Y-53498109D01*
X182793452Y-53498109D02*
X182698214Y-53545728D01*
X182698214Y-53545728D02*
X182650595Y-53593347D01*
X182650595Y-53593347D02*
X182602976Y-53688585D01*
X182602976Y-53688585D02*
X182602976Y-53783823D01*
X182602976Y-53783823D02*
X182650595Y-53926680D01*
X182650595Y-53926680D02*
X183222023Y-54498109D01*
X183222023Y-54498109D02*
X182602976Y-54498109D01*
X181650595Y-54498109D02*
X182222023Y-54498109D01*
X181936309Y-54498109D02*
X181936309Y-53498109D01*
X181936309Y-53498109D02*
X182031547Y-53640966D01*
X182031547Y-53640966D02*
X182126785Y-53736204D01*
X182126785Y-53736204D02*
X182222023Y-53783823D01*
X151708454Y-79013972D02*
X151708454Y-79081316D01*
X151708454Y-79081316D02*
X151775798Y-79216003D01*
X151775798Y-79216003D02*
X151843141Y-79283346D01*
X151843141Y-79283346D02*
X151977828Y-79350690D01*
X151977828Y-79350690D02*
X152112515Y-79350690D01*
X152112515Y-79350690D02*
X152213530Y-79317018D01*
X152213530Y-79317018D02*
X152381889Y-79216003D01*
X152381889Y-79216003D02*
X152482904Y-79114988D01*
X152482904Y-79114988D02*
X152583920Y-78946629D01*
X152583920Y-78946629D02*
X152617591Y-78845614D01*
X152617591Y-78845614D02*
X152617591Y-78710927D01*
X152617591Y-78710927D02*
X152550248Y-78576240D01*
X152550248Y-78576240D02*
X152482904Y-78508896D01*
X152482904Y-78508896D02*
X152348217Y-78441553D01*
X152348217Y-78441553D02*
X152280874Y-78441553D01*
X150967676Y-78407881D02*
X151371737Y-78811942D01*
X151169706Y-78609911D02*
X151876813Y-77902805D01*
X151876813Y-77902805D02*
X151843141Y-78071163D01*
X151843141Y-78071163D02*
X151843141Y-78205850D01*
X151843141Y-78205850D02*
X151876813Y-78306866D01*
X150832988Y-77330385D02*
X150361584Y-77801789D01*
X151270721Y-77229369D02*
X150934004Y-77902804D01*
X150934004Y-77902804D02*
X150496271Y-77465072D01*
X170165011Y-56369163D02*
X170063996Y-55796744D01*
X170569072Y-55965102D02*
X169861965Y-55257996D01*
X169861965Y-55257996D02*
X169592591Y-55527370D01*
X169592591Y-55527370D02*
X169558919Y-55628385D01*
X169558919Y-55628385D02*
X169558919Y-55695728D01*
X169558919Y-55695728D02*
X169592591Y-55796744D01*
X169592591Y-55796744D02*
X169693606Y-55897759D01*
X169693606Y-55897759D02*
X169794622Y-55931431D01*
X169794622Y-55931431D02*
X169861965Y-55931431D01*
X169861965Y-55931431D02*
X169962980Y-55897759D01*
X169962980Y-55897759D02*
X170232354Y-55628385D01*
X169222202Y-55897759D02*
X168784469Y-56335492D01*
X168784469Y-56335492D02*
X169289545Y-56369163D01*
X169289545Y-56369163D02*
X169188530Y-56470179D01*
X169188530Y-56470179D02*
X169154858Y-56571194D01*
X169154858Y-56571194D02*
X169154858Y-56638537D01*
X169154858Y-56638537D02*
X169188530Y-56739553D01*
X169188530Y-56739553D02*
X169356889Y-56907911D01*
X169356889Y-56907911D02*
X169457904Y-56941583D01*
X169457904Y-56941583D02*
X169525248Y-56941583D01*
X169525248Y-56941583D02*
X169626263Y-56907911D01*
X169626263Y-56907911D02*
X169828293Y-56705881D01*
X169828293Y-56705881D02*
X169861965Y-56604866D01*
X169861965Y-56604866D02*
X169861965Y-56537522D01*
X168548767Y-56571194D02*
X168077362Y-57042599D01*
X168077362Y-57042599D02*
X169087515Y-57446660D01*
X146642857Y-55498109D02*
X146976190Y-55021918D01*
X147214285Y-55498109D02*
X147214285Y-54498109D01*
X147214285Y-54498109D02*
X146833333Y-54498109D01*
X146833333Y-54498109D02*
X146738095Y-54545728D01*
X146738095Y-54545728D02*
X146690476Y-54593347D01*
X146690476Y-54593347D02*
X146642857Y-54688585D01*
X146642857Y-54688585D02*
X146642857Y-54831442D01*
X146642857Y-54831442D02*
X146690476Y-54926680D01*
X146690476Y-54926680D02*
X146738095Y-54974299D01*
X146738095Y-54974299D02*
X146833333Y-55021918D01*
X146833333Y-55021918D02*
X147214285Y-55021918D01*
X146309523Y-54498109D02*
X145690476Y-54498109D01*
X145690476Y-54498109D02*
X146023809Y-54879061D01*
X146023809Y-54879061D02*
X145880952Y-54879061D01*
X145880952Y-54879061D02*
X145785714Y-54926680D01*
X145785714Y-54926680D02*
X145738095Y-54974299D01*
X145738095Y-54974299D02*
X145690476Y-55069537D01*
X145690476Y-55069537D02*
X145690476Y-55307632D01*
X145690476Y-55307632D02*
X145738095Y-55402870D01*
X145738095Y-55402870D02*
X145785714Y-55450490D01*
X145785714Y-55450490D02*
X145880952Y-55498109D01*
X145880952Y-55498109D02*
X146166666Y-55498109D01*
X146166666Y-55498109D02*
X146261904Y-55450490D01*
X146261904Y-55450490D02*
X146309523Y-55402870D01*
X145071428Y-54498109D02*
X144976190Y-54498109D01*
X144976190Y-54498109D02*
X144880952Y-54545728D01*
X144880952Y-54545728D02*
X144833333Y-54593347D01*
X144833333Y-54593347D02*
X144785714Y-54688585D01*
X144785714Y-54688585D02*
X144738095Y-54879061D01*
X144738095Y-54879061D02*
X144738095Y-55117156D01*
X144738095Y-55117156D02*
X144785714Y-55307632D01*
X144785714Y-55307632D02*
X144833333Y-55402870D01*
X144833333Y-55402870D02*
X144880952Y-55450490D01*
X144880952Y-55450490D02*
X144976190Y-55498109D01*
X144976190Y-55498109D02*
X145071428Y-55498109D01*
X145071428Y-55498109D02*
X145166666Y-55450490D01*
X145166666Y-55450490D02*
X145214285Y-55402870D01*
X145214285Y-55402870D02*
X145261904Y-55307632D01*
X145261904Y-55307632D02*
X145309523Y-55117156D01*
X145309523Y-55117156D02*
X145309523Y-54879061D01*
X145309523Y-54879061D02*
X145261904Y-54688585D01*
X145261904Y-54688585D02*
X145214285Y-54593347D01*
X145214285Y-54593347D02*
X145166666Y-54545728D01*
X145166666Y-54545728D02*
X145071428Y-54498109D01*
X140728690Y-69031918D02*
X140728690Y-69508109D01*
X141062023Y-68508109D02*
X140728690Y-69031918D01*
X140728690Y-69031918D02*
X140395357Y-68508109D01*
X139538214Y-69508109D02*
X140109642Y-69508109D01*
X139823928Y-69508109D02*
X139823928Y-68508109D01*
X139823928Y-68508109D02*
X139919166Y-68650966D01*
X139919166Y-68650966D02*
X140014404Y-68746204D01*
X140014404Y-68746204D02*
X140109642Y-68793823D01*
X132435750Y-58638110D02*
X132769083Y-58161919D01*
X133007178Y-58638110D02*
X133007178Y-57638110D01*
X133007178Y-57638110D02*
X132626226Y-57638110D01*
X132626226Y-57638110D02*
X132530988Y-57685729D01*
X132530988Y-57685729D02*
X132483369Y-57733348D01*
X132483369Y-57733348D02*
X132435750Y-57828586D01*
X132435750Y-57828586D02*
X132435750Y-57971443D01*
X132435750Y-57971443D02*
X132483369Y-58066681D01*
X132483369Y-58066681D02*
X132530988Y-58114300D01*
X132530988Y-58114300D02*
X132626226Y-58161919D01*
X132626226Y-58161919D02*
X133007178Y-58161919D01*
X131483369Y-58638110D02*
X132054797Y-58638110D01*
X131769083Y-58638110D02*
X131769083Y-57638110D01*
X131769083Y-57638110D02*
X131864321Y-57780967D01*
X131864321Y-57780967D02*
X131959559Y-57876205D01*
X131959559Y-57876205D02*
X132054797Y-57923824D01*
X131150035Y-57638110D02*
X130530988Y-57638110D01*
X130530988Y-57638110D02*
X130864321Y-58019062D01*
X130864321Y-58019062D02*
X130721464Y-58019062D01*
X130721464Y-58019062D02*
X130626226Y-58066681D01*
X130626226Y-58066681D02*
X130578607Y-58114300D01*
X130578607Y-58114300D02*
X130530988Y-58209538D01*
X130530988Y-58209538D02*
X130530988Y-58447633D01*
X130530988Y-58447633D02*
X130578607Y-58542871D01*
X130578607Y-58542871D02*
X130626226Y-58590491D01*
X130626226Y-58590491D02*
X130721464Y-58638110D01*
X130721464Y-58638110D02*
X131007178Y-58638110D01*
X131007178Y-58638110D02*
X131102416Y-58590491D01*
X131102416Y-58590491D02*
X131150035Y-58542871D01*
X183470594Y-54638109D02*
X183470594Y-53638109D01*
X183470594Y-53638109D02*
X183232499Y-53638109D01*
X183232499Y-53638109D02*
X183089642Y-53685728D01*
X183089642Y-53685728D02*
X182994404Y-53780966D01*
X182994404Y-53780966D02*
X182946785Y-53876204D01*
X182946785Y-53876204D02*
X182899166Y-54066680D01*
X182899166Y-54066680D02*
X182899166Y-54209537D01*
X182899166Y-54209537D02*
X182946785Y-54400013D01*
X182946785Y-54400013D02*
X182994404Y-54495251D01*
X182994404Y-54495251D02*
X183089642Y-54590490D01*
X183089642Y-54590490D02*
X183232499Y-54638109D01*
X183232499Y-54638109D02*
X183470594Y-54638109D01*
X182042023Y-53971442D02*
X182042023Y-54638109D01*
X182280118Y-53590490D02*
X182518213Y-54304775D01*
X182518213Y-54304775D02*
X181899166Y-54304775D01*
X144865011Y-76769163D02*
X144763996Y-76196744D01*
X145269072Y-76365102D02*
X144561965Y-75657996D01*
X144561965Y-75657996D02*
X144292591Y-75927370D01*
X144292591Y-75927370D02*
X144258919Y-76028385D01*
X144258919Y-76028385D02*
X144258919Y-76095728D01*
X144258919Y-76095728D02*
X144292591Y-76196744D01*
X144292591Y-76196744D02*
X144393606Y-76297759D01*
X144393606Y-76297759D02*
X144494622Y-76331431D01*
X144494622Y-76331431D02*
X144561965Y-76331431D01*
X144561965Y-76331431D02*
X144662980Y-76297759D01*
X144662980Y-76297759D02*
X144932354Y-76028385D01*
X143955874Y-76398774D02*
X143888530Y-76398774D01*
X143888530Y-76398774D02*
X143787515Y-76432446D01*
X143787515Y-76432446D02*
X143619156Y-76600805D01*
X143619156Y-76600805D02*
X143585484Y-76701820D01*
X143585484Y-76701820D02*
X143585484Y-76769163D01*
X143585484Y-76769163D02*
X143619156Y-76870179D01*
X143619156Y-76870179D02*
X143686500Y-76937522D01*
X143686500Y-76937522D02*
X143821187Y-77004866D01*
X143821187Y-77004866D02*
X144629309Y-77004866D01*
X144629309Y-77004866D02*
X144191576Y-77442598D01*
X143248767Y-76971194D02*
X142777362Y-77442599D01*
X142777362Y-77442599D02*
X143787515Y-77846660D01*
X172365011Y-58569163D02*
X172263996Y-57996744D01*
X172769072Y-58165102D02*
X172061965Y-57457996D01*
X172061965Y-57457996D02*
X171792591Y-57727370D01*
X171792591Y-57727370D02*
X171758919Y-57828385D01*
X171758919Y-57828385D02*
X171758919Y-57895728D01*
X171758919Y-57895728D02*
X171792591Y-57996744D01*
X171792591Y-57996744D02*
X171893606Y-58097759D01*
X171893606Y-58097759D02*
X171994622Y-58131431D01*
X171994622Y-58131431D02*
X172061965Y-58131431D01*
X172061965Y-58131431D02*
X172162980Y-58097759D01*
X172162980Y-58097759D02*
X172432354Y-57828385D01*
X171422202Y-58097759D02*
X170984469Y-58535492D01*
X170984469Y-58535492D02*
X171489545Y-58569163D01*
X171489545Y-58569163D02*
X171388530Y-58670179D01*
X171388530Y-58670179D02*
X171354858Y-58771194D01*
X171354858Y-58771194D02*
X171354858Y-58838537D01*
X171354858Y-58838537D02*
X171388530Y-58939553D01*
X171388530Y-58939553D02*
X171556889Y-59107911D01*
X171556889Y-59107911D02*
X171657904Y-59141583D01*
X171657904Y-59141583D02*
X171725248Y-59141583D01*
X171725248Y-59141583D02*
X171826263Y-59107911D01*
X171826263Y-59107911D02*
X172028293Y-58905881D01*
X172028293Y-58905881D02*
X172061965Y-58804866D01*
X172061965Y-58804866D02*
X172061965Y-58737522D01*
X170883454Y-59242599D02*
X170917125Y-59141583D01*
X170917125Y-59141583D02*
X170917125Y-59074240D01*
X170917125Y-59074240D02*
X170883454Y-58973225D01*
X170883454Y-58973225D02*
X170849782Y-58939553D01*
X170849782Y-58939553D02*
X170748767Y-58905881D01*
X170748767Y-58905881D02*
X170681423Y-58905881D01*
X170681423Y-58905881D02*
X170580408Y-58939553D01*
X170580408Y-58939553D02*
X170445721Y-59074240D01*
X170445721Y-59074240D02*
X170412049Y-59175255D01*
X170412049Y-59175255D02*
X170412049Y-59242599D01*
X170412049Y-59242599D02*
X170445721Y-59343614D01*
X170445721Y-59343614D02*
X170479393Y-59377286D01*
X170479393Y-59377286D02*
X170580408Y-59410957D01*
X170580408Y-59410957D02*
X170647751Y-59410957D01*
X170647751Y-59410957D02*
X170748767Y-59377286D01*
X170748767Y-59377286D02*
X170883454Y-59242599D01*
X170883454Y-59242599D02*
X170984469Y-59208927D01*
X170984469Y-59208927D02*
X171051812Y-59208927D01*
X171051812Y-59208927D02*
X171152828Y-59242599D01*
X171152828Y-59242599D02*
X171287515Y-59377286D01*
X171287515Y-59377286D02*
X171321186Y-59478301D01*
X171321186Y-59478301D02*
X171321186Y-59545644D01*
X171321186Y-59545644D02*
X171287515Y-59646660D01*
X171287515Y-59646660D02*
X171152828Y-59781347D01*
X171152828Y-59781347D02*
X171051812Y-59815018D01*
X171051812Y-59815018D02*
X170984469Y-59815018D01*
X170984469Y-59815018D02*
X170883454Y-59781347D01*
X170883454Y-59781347D02*
X170748767Y-59646660D01*
X170748767Y-59646660D02*
X170715095Y-59545644D01*
X170715095Y-59545644D02*
X170715095Y-59478301D01*
X170715095Y-59478301D02*
X170748767Y-59377286D01*
X119734819Y-91351385D02*
X120544342Y-91351385D01*
X120544342Y-91351385D02*
X120639580Y-91399004D01*
X120639580Y-91399004D02*
X120687200Y-91446623D01*
X120687200Y-91446623D02*
X120734819Y-91541861D01*
X120734819Y-91541861D02*
X120734819Y-91732337D01*
X120734819Y-91732337D02*
X120687200Y-91827575D01*
X120687200Y-91827575D02*
X120639580Y-91875194D01*
X120639580Y-91875194D02*
X120544342Y-91922813D01*
X120544342Y-91922813D02*
X119734819Y-91922813D01*
X119734819Y-92303766D02*
X119734819Y-92970432D01*
X119734819Y-92970432D02*
X120734819Y-92541861D01*
X147209579Y-68470432D02*
X147257199Y-68422813D01*
X147257199Y-68422813D02*
X147304818Y-68279956D01*
X147304818Y-68279956D02*
X147304818Y-68184718D01*
X147304818Y-68184718D02*
X147257199Y-68041861D01*
X147257199Y-68041861D02*
X147161960Y-67946623D01*
X147161960Y-67946623D02*
X147066722Y-67899004D01*
X147066722Y-67899004D02*
X146876246Y-67851385D01*
X146876246Y-67851385D02*
X146733389Y-67851385D01*
X146733389Y-67851385D02*
X146542913Y-67899004D01*
X146542913Y-67899004D02*
X146447675Y-67946623D01*
X146447675Y-67946623D02*
X146352437Y-68041861D01*
X146352437Y-68041861D02*
X146304818Y-68184718D01*
X146304818Y-68184718D02*
X146304818Y-68279956D01*
X146304818Y-68279956D02*
X146352437Y-68422813D01*
X146352437Y-68422813D02*
X146400056Y-68470432D01*
X146400056Y-68851385D02*
X146352437Y-68899004D01*
X146352437Y-68899004D02*
X146304818Y-68994242D01*
X146304818Y-68994242D02*
X146304818Y-69232337D01*
X146304818Y-69232337D02*
X146352437Y-69327575D01*
X146352437Y-69327575D02*
X146400056Y-69375194D01*
X146400056Y-69375194D02*
X146495294Y-69422813D01*
X146495294Y-69422813D02*
X146590532Y-69422813D01*
X146590532Y-69422813D02*
X146733389Y-69375194D01*
X146733389Y-69375194D02*
X147304818Y-68803766D01*
X147304818Y-68803766D02*
X147304818Y-69422813D01*
X146304818Y-70041861D02*
X146304818Y-70137099D01*
X146304818Y-70137099D02*
X146352437Y-70232337D01*
X146352437Y-70232337D02*
X146400056Y-70279956D01*
X146400056Y-70279956D02*
X146495294Y-70327575D01*
X146495294Y-70327575D02*
X146685770Y-70375194D01*
X146685770Y-70375194D02*
X146923865Y-70375194D01*
X146923865Y-70375194D02*
X147114341Y-70327575D01*
X147114341Y-70327575D02*
X147209579Y-70279956D01*
X147209579Y-70279956D02*
X147257199Y-70232337D01*
X147257199Y-70232337D02*
X147304818Y-70137099D01*
X147304818Y-70137099D02*
X147304818Y-70041861D01*
X147304818Y-70041861D02*
X147257199Y-69946623D01*
X147257199Y-69946623D02*
X147209579Y-69899004D01*
X147209579Y-69899004D02*
X147114341Y-69851385D01*
X147114341Y-69851385D02*
X146923865Y-69803766D01*
X146923865Y-69803766D02*
X146685770Y-69803766D01*
X146685770Y-69803766D02*
X146495294Y-69851385D01*
X146495294Y-69851385D02*
X146400056Y-69899004D01*
X146400056Y-69899004D02*
X146352437Y-69946623D01*
X146352437Y-69946623D02*
X146304818Y-70041861D01*
X146730357Y-58508109D02*
X147063690Y-58031918D01*
X147301785Y-58508109D02*
X147301785Y-57508109D01*
X147301785Y-57508109D02*
X146920833Y-57508109D01*
X146920833Y-57508109D02*
X146825595Y-57555728D01*
X146825595Y-57555728D02*
X146777976Y-57603347D01*
X146777976Y-57603347D02*
X146730357Y-57698585D01*
X146730357Y-57698585D02*
X146730357Y-57841442D01*
X146730357Y-57841442D02*
X146777976Y-57936680D01*
X146777976Y-57936680D02*
X146825595Y-57984299D01*
X146825595Y-57984299D02*
X146920833Y-58031918D01*
X146920833Y-58031918D02*
X147301785Y-58031918D01*
X146349404Y-57603347D02*
X146301785Y-57555728D01*
X146301785Y-57555728D02*
X146206547Y-57508109D01*
X146206547Y-57508109D02*
X145968452Y-57508109D01*
X145968452Y-57508109D02*
X145873214Y-57555728D01*
X145873214Y-57555728D02*
X145825595Y-57603347D01*
X145825595Y-57603347D02*
X145777976Y-57698585D01*
X145777976Y-57698585D02*
X145777976Y-57793823D01*
X145777976Y-57793823D02*
X145825595Y-57936680D01*
X145825595Y-57936680D02*
X146397023Y-58508109D01*
X146397023Y-58508109D02*
X145777976Y-58508109D01*
X145301785Y-58508109D02*
X145111309Y-58508109D01*
X145111309Y-58508109D02*
X145016071Y-58460490D01*
X145016071Y-58460490D02*
X144968452Y-58412870D01*
X144968452Y-58412870D02*
X144873214Y-58270013D01*
X144873214Y-58270013D02*
X144825595Y-58079537D01*
X144825595Y-58079537D02*
X144825595Y-57698585D01*
X144825595Y-57698585D02*
X144873214Y-57603347D01*
X144873214Y-57603347D02*
X144920833Y-57555728D01*
X144920833Y-57555728D02*
X145016071Y-57508109D01*
X145016071Y-57508109D02*
X145206547Y-57508109D01*
X145206547Y-57508109D02*
X145301785Y-57555728D01*
X145301785Y-57555728D02*
X145349404Y-57603347D01*
X145349404Y-57603347D02*
X145397023Y-57698585D01*
X145397023Y-57698585D02*
X145397023Y-57936680D01*
X145397023Y-57936680D02*
X145349404Y-58031918D01*
X145349404Y-58031918D02*
X145301785Y-58079537D01*
X145301785Y-58079537D02*
X145206547Y-58127156D01*
X145206547Y-58127156D02*
X145016071Y-58127156D01*
X145016071Y-58127156D02*
X144920833Y-58079537D01*
X144920833Y-58079537D02*
X144873214Y-58031918D01*
X144873214Y-58031918D02*
X144825595Y-57936680D01*
X213109580Y-54570432D02*
X213157200Y-54522813D01*
X213157200Y-54522813D02*
X213204819Y-54379956D01*
X213204819Y-54379956D02*
X213204819Y-54284718D01*
X213204819Y-54284718D02*
X213157200Y-54141861D01*
X213157200Y-54141861D02*
X213061961Y-54046623D01*
X213061961Y-54046623D02*
X212966723Y-53999004D01*
X212966723Y-53999004D02*
X212776247Y-53951385D01*
X212776247Y-53951385D02*
X212633390Y-53951385D01*
X212633390Y-53951385D02*
X212442914Y-53999004D01*
X212442914Y-53999004D02*
X212347676Y-54046623D01*
X212347676Y-54046623D02*
X212252438Y-54141861D01*
X212252438Y-54141861D02*
X212204819Y-54284718D01*
X212204819Y-54284718D02*
X212204819Y-54379956D01*
X212204819Y-54379956D02*
X212252438Y-54522813D01*
X212252438Y-54522813D02*
X212300057Y-54570432D01*
X213204819Y-55522813D02*
X213204819Y-54951385D01*
X213204819Y-55237099D02*
X212204819Y-55237099D01*
X212204819Y-55237099D02*
X212347676Y-55141861D01*
X212347676Y-55141861D02*
X212442914Y-55046623D01*
X212442914Y-55046623D02*
X212490533Y-54951385D01*
X213204819Y-55999004D02*
X213204819Y-56189480D01*
X213204819Y-56189480D02*
X213157200Y-56284718D01*
X213157200Y-56284718D02*
X213109580Y-56332337D01*
X213109580Y-56332337D02*
X212966723Y-56427575D01*
X212966723Y-56427575D02*
X212776247Y-56475194D01*
X212776247Y-56475194D02*
X212395295Y-56475194D01*
X212395295Y-56475194D02*
X212300057Y-56427575D01*
X212300057Y-56427575D02*
X212252438Y-56379956D01*
X212252438Y-56379956D02*
X212204819Y-56284718D01*
X212204819Y-56284718D02*
X212204819Y-56094242D01*
X212204819Y-56094242D02*
X212252438Y-55999004D01*
X212252438Y-55999004D02*
X212300057Y-55951385D01*
X212300057Y-55951385D02*
X212395295Y-55903766D01*
X212395295Y-55903766D02*
X212633390Y-55903766D01*
X212633390Y-55903766D02*
X212728628Y-55951385D01*
X212728628Y-55951385D02*
X212776247Y-55999004D01*
X212776247Y-55999004D02*
X212823866Y-56094242D01*
X212823866Y-56094242D02*
X212823866Y-56284718D01*
X212823866Y-56284718D02*
X212776247Y-56379956D01*
X212776247Y-56379956D02*
X212728628Y-56427575D01*
X212728628Y-56427575D02*
X212633390Y-56475194D01*
X148244126Y-81278301D02*
X148816545Y-81177286D01*
X148648187Y-81682362D02*
X149355293Y-80975255D01*
X149355293Y-80975255D02*
X149085919Y-80705881D01*
X149085919Y-80705881D02*
X148984904Y-80672209D01*
X148984904Y-80672209D02*
X148917561Y-80672209D01*
X148917561Y-80672209D02*
X148816545Y-80705881D01*
X148816545Y-80705881D02*
X148715530Y-80806896D01*
X148715530Y-80806896D02*
X148681858Y-80907912D01*
X148681858Y-80907912D02*
X148681858Y-80975255D01*
X148681858Y-80975255D02*
X148715530Y-81076270D01*
X148715530Y-81076270D02*
X148984904Y-81345644D01*
X147570691Y-80604866D02*
X147974752Y-81008927D01*
X147772721Y-80806896D02*
X148479828Y-80099790D01*
X148479828Y-80099790D02*
X148446156Y-80268148D01*
X148446156Y-80268148D02*
X148446156Y-80402835D01*
X148446156Y-80402835D02*
X148479828Y-80503851D01*
X147436003Y-79527370D02*
X146964599Y-79998774D01*
X147873736Y-79426354D02*
X147537019Y-80099789D01*
X147537019Y-80099789D02*
X147099286Y-79662057D01*
X170121800Y-75600627D02*
X170694219Y-75499612D01*
X170525861Y-76004688D02*
X171232967Y-75297581D01*
X171232967Y-75297581D02*
X170963593Y-75028207D01*
X170963593Y-75028207D02*
X170862578Y-74994535D01*
X170862578Y-74994535D02*
X170795235Y-74994535D01*
X170795235Y-74994535D02*
X170694219Y-75028207D01*
X170694219Y-75028207D02*
X170593204Y-75129222D01*
X170593204Y-75129222D02*
X170559532Y-75230238D01*
X170559532Y-75230238D02*
X170559532Y-75297581D01*
X170559532Y-75297581D02*
X170593204Y-75398596D01*
X170593204Y-75398596D02*
X170862578Y-75667970D01*
X170593204Y-74657818D02*
X170155471Y-74220085D01*
X170155471Y-74220085D02*
X170121800Y-74725161D01*
X170121800Y-74725161D02*
X170020784Y-74624146D01*
X170020784Y-74624146D02*
X169919769Y-74590474D01*
X169919769Y-74590474D02*
X169852426Y-74590474D01*
X169852426Y-74590474D02*
X169751410Y-74624146D01*
X169751410Y-74624146D02*
X169583052Y-74792505D01*
X169583052Y-74792505D02*
X169549380Y-74893520D01*
X169549380Y-74893520D02*
X169549380Y-74960864D01*
X169549380Y-74960864D02*
X169583052Y-75061879D01*
X169583052Y-75061879D02*
X169785082Y-75263909D01*
X169785082Y-75263909D02*
X169886097Y-75297581D01*
X169886097Y-75297581D02*
X169953441Y-75297581D01*
X169515708Y-73580322D02*
X169852426Y-73917039D01*
X169852426Y-73917039D02*
X169549380Y-74287428D01*
X169549380Y-74287428D02*
X169549380Y-74220085D01*
X169549380Y-74220085D02*
X169515708Y-74119070D01*
X169515708Y-74119070D02*
X169347349Y-73950711D01*
X169347349Y-73950711D02*
X169246334Y-73917039D01*
X169246334Y-73917039D02*
X169178990Y-73917039D01*
X169178990Y-73917039D02*
X169077975Y-73950711D01*
X169077975Y-73950711D02*
X168909616Y-74119070D01*
X168909616Y-74119070D02*
X168875945Y-74220085D01*
X168875945Y-74220085D02*
X168875945Y-74287428D01*
X168875945Y-74287428D02*
X168909616Y-74388444D01*
X168909616Y-74388444D02*
X169077975Y-74556802D01*
X169077975Y-74556802D02*
X169178990Y-74590474D01*
X169178990Y-74590474D02*
X169246334Y-74590474D01*
X63604819Y-79546623D02*
X63604819Y-79070433D01*
X63604819Y-79070433D02*
X62604819Y-79070433D01*
X63604819Y-80403766D02*
X63604819Y-79832338D01*
X63604819Y-80118052D02*
X62604819Y-80118052D01*
X62604819Y-80118052D02*
X62747676Y-80022814D01*
X62747676Y-80022814D02*
X62842914Y-79927576D01*
X62842914Y-79927576D02*
X62890533Y-79832338D01*
X151544820Y-91661385D02*
X152354343Y-91661385D01*
X152354343Y-91661385D02*
X152449581Y-91709004D01*
X152449581Y-91709004D02*
X152497201Y-91756623D01*
X152497201Y-91756623D02*
X152544820Y-91851861D01*
X152544820Y-91851861D02*
X152544820Y-92042337D01*
X152544820Y-92042337D02*
X152497201Y-92137575D01*
X152497201Y-92137575D02*
X152449581Y-92185194D01*
X152449581Y-92185194D02*
X152354343Y-92232813D01*
X152354343Y-92232813D02*
X151544820Y-92232813D01*
X151973391Y-92851861D02*
X151925772Y-92756623D01*
X151925772Y-92756623D02*
X151878153Y-92709004D01*
X151878153Y-92709004D02*
X151782915Y-92661385D01*
X151782915Y-92661385D02*
X151735296Y-92661385D01*
X151735296Y-92661385D02*
X151640058Y-92709004D01*
X151640058Y-92709004D02*
X151592439Y-92756623D01*
X151592439Y-92756623D02*
X151544820Y-92851861D01*
X151544820Y-92851861D02*
X151544820Y-93042337D01*
X151544820Y-93042337D02*
X151592439Y-93137575D01*
X151592439Y-93137575D02*
X151640058Y-93185194D01*
X151640058Y-93185194D02*
X151735296Y-93232813D01*
X151735296Y-93232813D02*
X151782915Y-93232813D01*
X151782915Y-93232813D02*
X151878153Y-93185194D01*
X151878153Y-93185194D02*
X151925772Y-93137575D01*
X151925772Y-93137575D02*
X151973391Y-93042337D01*
X151973391Y-93042337D02*
X151973391Y-92851861D01*
X151973391Y-92851861D02*
X152021010Y-92756623D01*
X152021010Y-92756623D02*
X152068629Y-92709004D01*
X152068629Y-92709004D02*
X152163867Y-92661385D01*
X152163867Y-92661385D02*
X152354343Y-92661385D01*
X152354343Y-92661385D02*
X152449581Y-92709004D01*
X152449581Y-92709004D02*
X152497201Y-92756623D01*
X152497201Y-92756623D02*
X152544820Y-92851861D01*
X152544820Y-92851861D02*
X152544820Y-93042337D01*
X152544820Y-93042337D02*
X152497201Y-93137575D01*
X152497201Y-93137575D02*
X152449581Y-93185194D01*
X152449581Y-93185194D02*
X152354343Y-93232813D01*
X152354343Y-93232813D02*
X152163867Y-93232813D01*
X152163867Y-93232813D02*
X152068629Y-93185194D01*
X152068629Y-93185194D02*
X152021010Y-93137575D01*
X152021010Y-93137575D02*
X151973391Y-93042337D01*
X176915594Y-48648109D02*
X176915594Y-47648109D01*
X176915594Y-47648109D02*
X176677499Y-47648109D01*
X176677499Y-47648109D02*
X176534642Y-47695728D01*
X176534642Y-47695728D02*
X176439404Y-47790966D01*
X176439404Y-47790966D02*
X176391785Y-47886204D01*
X176391785Y-47886204D02*
X176344166Y-48076680D01*
X176344166Y-48076680D02*
X176344166Y-48219537D01*
X176344166Y-48219537D02*
X176391785Y-48410013D01*
X176391785Y-48410013D02*
X176439404Y-48505251D01*
X176439404Y-48505251D02*
X176534642Y-48600490D01*
X176534642Y-48600490D02*
X176677499Y-48648109D01*
X176677499Y-48648109D02*
X176915594Y-48648109D01*
X175963213Y-47743347D02*
X175915594Y-47695728D01*
X175915594Y-47695728D02*
X175820356Y-47648109D01*
X175820356Y-47648109D02*
X175582261Y-47648109D01*
X175582261Y-47648109D02*
X175487023Y-47695728D01*
X175487023Y-47695728D02*
X175439404Y-47743347D01*
X175439404Y-47743347D02*
X175391785Y-47838585D01*
X175391785Y-47838585D02*
X175391785Y-47933823D01*
X175391785Y-47933823D02*
X175439404Y-48076680D01*
X175439404Y-48076680D02*
X176010832Y-48648109D01*
X176010832Y-48648109D02*
X175391785Y-48648109D01*
X77009579Y-83646623D02*
X77057199Y-83599004D01*
X77057199Y-83599004D02*
X77104818Y-83456147D01*
X77104818Y-83456147D02*
X77104818Y-83360909D01*
X77104818Y-83360909D02*
X77057199Y-83218052D01*
X77057199Y-83218052D02*
X76961960Y-83122814D01*
X76961960Y-83122814D02*
X76866722Y-83075195D01*
X76866722Y-83075195D02*
X76676246Y-83027576D01*
X76676246Y-83027576D02*
X76533389Y-83027576D01*
X76533389Y-83027576D02*
X76342913Y-83075195D01*
X76342913Y-83075195D02*
X76247675Y-83122814D01*
X76247675Y-83122814D02*
X76152437Y-83218052D01*
X76152437Y-83218052D02*
X76104818Y-83360909D01*
X76104818Y-83360909D02*
X76104818Y-83456147D01*
X76104818Y-83456147D02*
X76152437Y-83599004D01*
X76152437Y-83599004D02*
X76200056Y-83646623D01*
X76533389Y-84218052D02*
X76485770Y-84122814D01*
X76485770Y-84122814D02*
X76438151Y-84075195D01*
X76438151Y-84075195D02*
X76342913Y-84027576D01*
X76342913Y-84027576D02*
X76295294Y-84027576D01*
X76295294Y-84027576D02*
X76200056Y-84075195D01*
X76200056Y-84075195D02*
X76152437Y-84122814D01*
X76152437Y-84122814D02*
X76104818Y-84218052D01*
X76104818Y-84218052D02*
X76104818Y-84408528D01*
X76104818Y-84408528D02*
X76152437Y-84503766D01*
X76152437Y-84503766D02*
X76200056Y-84551385D01*
X76200056Y-84551385D02*
X76295294Y-84599004D01*
X76295294Y-84599004D02*
X76342913Y-84599004D01*
X76342913Y-84599004D02*
X76438151Y-84551385D01*
X76438151Y-84551385D02*
X76485770Y-84503766D01*
X76485770Y-84503766D02*
X76533389Y-84408528D01*
X76533389Y-84408528D02*
X76533389Y-84218052D01*
X76533389Y-84218052D02*
X76581008Y-84122814D01*
X76581008Y-84122814D02*
X76628627Y-84075195D01*
X76628627Y-84075195D02*
X76723865Y-84027576D01*
X76723865Y-84027576D02*
X76914341Y-84027576D01*
X76914341Y-84027576D02*
X77009579Y-84075195D01*
X77009579Y-84075195D02*
X77057199Y-84122814D01*
X77057199Y-84122814D02*
X77104818Y-84218052D01*
X77104818Y-84218052D02*
X77104818Y-84408528D01*
X77104818Y-84408528D02*
X77057199Y-84503766D01*
X77057199Y-84503766D02*
X77009579Y-84551385D01*
X77009579Y-84551385D02*
X76914341Y-84599004D01*
X76914341Y-84599004D02*
X76723865Y-84599004D01*
X76723865Y-84599004D02*
X76628627Y-84551385D01*
X76628627Y-84551385D02*
X76581008Y-84503766D01*
X76581008Y-84503766D02*
X76533389Y-84408528D01*
X85309580Y-56446623D02*
X85357200Y-56399004D01*
X85357200Y-56399004D02*
X85404819Y-56256147D01*
X85404819Y-56256147D02*
X85404819Y-56160909D01*
X85404819Y-56160909D02*
X85357200Y-56018052D01*
X85357200Y-56018052D02*
X85261961Y-55922814D01*
X85261961Y-55922814D02*
X85166723Y-55875195D01*
X85166723Y-55875195D02*
X84976247Y-55827576D01*
X84976247Y-55827576D02*
X84833390Y-55827576D01*
X84833390Y-55827576D02*
X84642914Y-55875195D01*
X84642914Y-55875195D02*
X84547676Y-55922814D01*
X84547676Y-55922814D02*
X84452438Y-56018052D01*
X84452438Y-56018052D02*
X84404819Y-56160909D01*
X84404819Y-56160909D02*
X84404819Y-56256147D01*
X84404819Y-56256147D02*
X84452438Y-56399004D01*
X84452438Y-56399004D02*
X84500057Y-56446623D01*
X84738152Y-57303766D02*
X85404819Y-57303766D01*
X84357200Y-57065671D02*
X85071485Y-56827576D01*
X85071485Y-56827576D02*
X85071485Y-57446623D01*
X56709579Y-80046623D02*
X56757199Y-79999004D01*
X56757199Y-79999004D02*
X56804818Y-79856147D01*
X56804818Y-79856147D02*
X56804818Y-79760909D01*
X56804818Y-79760909D02*
X56757199Y-79618052D01*
X56757199Y-79618052D02*
X56661960Y-79522814D01*
X56661960Y-79522814D02*
X56566722Y-79475195D01*
X56566722Y-79475195D02*
X56376246Y-79427576D01*
X56376246Y-79427576D02*
X56233389Y-79427576D01*
X56233389Y-79427576D02*
X56042913Y-79475195D01*
X56042913Y-79475195D02*
X55947675Y-79522814D01*
X55947675Y-79522814D02*
X55852437Y-79618052D01*
X55852437Y-79618052D02*
X55804818Y-79760909D01*
X55804818Y-79760909D02*
X55804818Y-79856147D01*
X55804818Y-79856147D02*
X55852437Y-79999004D01*
X55852437Y-79999004D02*
X55900056Y-80046623D01*
X55804818Y-80379957D02*
X55804818Y-81046623D01*
X55804818Y-81046623D02*
X56804818Y-80618052D01*
X143865011Y-75669163D02*
X143763996Y-75096744D01*
X144269072Y-75265102D02*
X143561965Y-74557996D01*
X143561965Y-74557996D02*
X143292591Y-74827370D01*
X143292591Y-74827370D02*
X143258919Y-74928385D01*
X143258919Y-74928385D02*
X143258919Y-74995728D01*
X143258919Y-74995728D02*
X143292591Y-75096744D01*
X143292591Y-75096744D02*
X143393606Y-75197759D01*
X143393606Y-75197759D02*
X143494622Y-75231431D01*
X143494622Y-75231431D02*
X143561965Y-75231431D01*
X143561965Y-75231431D02*
X143662980Y-75197759D01*
X143662980Y-75197759D02*
X143932354Y-74928385D01*
X142955874Y-75298774D02*
X142888530Y-75298774D01*
X142888530Y-75298774D02*
X142787515Y-75332446D01*
X142787515Y-75332446D02*
X142619156Y-75500805D01*
X142619156Y-75500805D02*
X142585484Y-75601820D01*
X142585484Y-75601820D02*
X142585484Y-75669163D01*
X142585484Y-75669163D02*
X142619156Y-75770179D01*
X142619156Y-75770179D02*
X142686500Y-75837522D01*
X142686500Y-75837522D02*
X142821187Y-75904866D01*
X142821187Y-75904866D02*
X143629309Y-75904866D01*
X143629309Y-75904866D02*
X143191576Y-76342598D01*
X142248767Y-75871194D02*
X141811034Y-76308927D01*
X141811034Y-76308927D02*
X142316110Y-76342599D01*
X142316110Y-76342599D02*
X142215095Y-76443614D01*
X142215095Y-76443614D02*
X142181423Y-76544629D01*
X142181423Y-76544629D02*
X142181423Y-76611973D01*
X142181423Y-76611973D02*
X142215095Y-76712988D01*
X142215095Y-76712988D02*
X142383454Y-76881347D01*
X142383454Y-76881347D02*
X142484469Y-76915018D01*
X142484469Y-76915018D02*
X142551812Y-76915018D01*
X142551812Y-76915018D02*
X142652828Y-76881347D01*
X142652828Y-76881347D02*
X142854858Y-76679316D01*
X142854858Y-76679316D02*
X142888530Y-76578301D01*
X142888530Y-76578301D02*
X142888530Y-76510957D01*
X50084819Y-86470432D02*
X49608628Y-86137099D01*
X50084819Y-85899004D02*
X49084819Y-85899004D01*
X49084819Y-85899004D02*
X49084819Y-86279956D01*
X49084819Y-86279956D02*
X49132438Y-86375194D01*
X49132438Y-86375194D02*
X49180057Y-86422813D01*
X49180057Y-86422813D02*
X49275295Y-86470432D01*
X49275295Y-86470432D02*
X49418152Y-86470432D01*
X49418152Y-86470432D02*
X49513390Y-86422813D01*
X49513390Y-86422813D02*
X49561009Y-86375194D01*
X49561009Y-86375194D02*
X49608628Y-86279956D01*
X49608628Y-86279956D02*
X49608628Y-85899004D01*
X50084819Y-87422813D02*
X50084819Y-86851385D01*
X50084819Y-87137099D02*
X49084819Y-87137099D01*
X49084819Y-87137099D02*
X49227676Y-87041861D01*
X49227676Y-87041861D02*
X49322914Y-86946623D01*
X49322914Y-86946623D02*
X49370533Y-86851385D01*
X49180057Y-87803766D02*
X49132438Y-87851385D01*
X49132438Y-87851385D02*
X49084819Y-87946623D01*
X49084819Y-87946623D02*
X49084819Y-88184718D01*
X49084819Y-88184718D02*
X49132438Y-88279956D01*
X49132438Y-88279956D02*
X49180057Y-88327575D01*
X49180057Y-88327575D02*
X49275295Y-88375194D01*
X49275295Y-88375194D02*
X49370533Y-88375194D01*
X49370533Y-88375194D02*
X49513390Y-88327575D01*
X49513390Y-88327575D02*
X50084819Y-87756147D01*
X50084819Y-87756147D02*
X50084819Y-88375194D01*
X60738094Y-93288109D02*
X60738094Y-92288109D01*
X60738094Y-92288109D02*
X60499999Y-92288109D01*
X60499999Y-92288109D02*
X60357142Y-92335728D01*
X60357142Y-92335728D02*
X60261904Y-92430966D01*
X60261904Y-92430966D02*
X60214285Y-92526204D01*
X60214285Y-92526204D02*
X60166666Y-92716680D01*
X60166666Y-92716680D02*
X60166666Y-92859537D01*
X60166666Y-92859537D02*
X60214285Y-93050013D01*
X60214285Y-93050013D02*
X60261904Y-93145251D01*
X60261904Y-93145251D02*
X60357142Y-93240490D01*
X60357142Y-93240490D02*
X60499999Y-93288109D01*
X60499999Y-93288109D02*
X60738094Y-93288109D01*
X59214285Y-93288109D02*
X59785713Y-93288109D01*
X59499999Y-93288109D02*
X59499999Y-92288109D01*
X59499999Y-92288109D02*
X59595237Y-92430966D01*
X59595237Y-92430966D02*
X59690475Y-92526204D01*
X59690475Y-92526204D02*
X59785713Y-92573823D01*
X52641904Y-92168109D02*
X52641904Y-91168109D01*
X52070476Y-92168109D02*
X52499047Y-91596680D01*
X52070476Y-91168109D02*
X52641904Y-91739537D01*
X162842857Y-80622871D02*
X162890476Y-80670491D01*
X162890476Y-80670491D02*
X163033333Y-80718110D01*
X163033333Y-80718110D02*
X163128571Y-80718110D01*
X163128571Y-80718110D02*
X163271428Y-80670491D01*
X163271428Y-80670491D02*
X163366666Y-80575252D01*
X163366666Y-80575252D02*
X163414285Y-80480014D01*
X163414285Y-80480014D02*
X163461904Y-80289538D01*
X163461904Y-80289538D02*
X163461904Y-80146681D01*
X163461904Y-80146681D02*
X163414285Y-79956205D01*
X163414285Y-79956205D02*
X163366666Y-79860967D01*
X163366666Y-79860967D02*
X163271428Y-79765729D01*
X163271428Y-79765729D02*
X163128571Y-79718110D01*
X163128571Y-79718110D02*
X163033333Y-79718110D01*
X163033333Y-79718110D02*
X162890476Y-79765729D01*
X162890476Y-79765729D02*
X162842857Y-79813348D01*
X162461904Y-79813348D02*
X162414285Y-79765729D01*
X162414285Y-79765729D02*
X162319047Y-79718110D01*
X162319047Y-79718110D02*
X162080952Y-79718110D01*
X162080952Y-79718110D02*
X161985714Y-79765729D01*
X161985714Y-79765729D02*
X161938095Y-79813348D01*
X161938095Y-79813348D02*
X161890476Y-79908586D01*
X161890476Y-79908586D02*
X161890476Y-80003824D01*
X161890476Y-80003824D02*
X161938095Y-80146681D01*
X161938095Y-80146681D02*
X162509523Y-80718110D01*
X162509523Y-80718110D02*
X161890476Y-80718110D01*
X160938095Y-80718110D02*
X161509523Y-80718110D01*
X161223809Y-80718110D02*
X161223809Y-79718110D01*
X161223809Y-79718110D02*
X161319047Y-79860967D01*
X161319047Y-79860967D02*
X161414285Y-79956205D01*
X161414285Y-79956205D02*
X161509523Y-80003824D01*
X161460967Y-52554353D02*
X161460967Y-52621697D01*
X161460967Y-52621697D02*
X161528311Y-52756384D01*
X161528311Y-52756384D02*
X161595654Y-52823727D01*
X161595654Y-52823727D02*
X161730341Y-52891071D01*
X161730341Y-52891071D02*
X161865028Y-52891071D01*
X161865028Y-52891071D02*
X161966043Y-52857399D01*
X161966043Y-52857399D02*
X162134402Y-52756384D01*
X162134402Y-52756384D02*
X162235417Y-52655369D01*
X162235417Y-52655369D02*
X162336433Y-52487010D01*
X162336433Y-52487010D02*
X162370104Y-52385995D01*
X162370104Y-52385995D02*
X162370104Y-52251308D01*
X162370104Y-52251308D02*
X162302761Y-52116621D01*
X162302761Y-52116621D02*
X162235417Y-52049277D01*
X162235417Y-52049277D02*
X162100730Y-51981934D01*
X162100730Y-51981934D02*
X162033387Y-51981934D01*
X160720189Y-51948262D02*
X161124250Y-52352323D01*
X160922219Y-52150292D02*
X161629326Y-51443186D01*
X161629326Y-51443186D02*
X161595654Y-51611544D01*
X161595654Y-51611544D02*
X161595654Y-51746231D01*
X161595654Y-51746231D02*
X161629326Y-51847247D01*
X160046753Y-51274827D02*
X160450814Y-51678888D01*
X160248784Y-51476857D02*
X160955891Y-50769750D01*
X160955891Y-50769750D02*
X160922219Y-50938109D01*
X160922219Y-50938109D02*
X160922219Y-51072796D01*
X160922219Y-51072796D02*
X160955891Y-51173811D01*
X222231009Y-51327575D02*
X222278628Y-51470432D01*
X222278628Y-51470432D02*
X222326247Y-51518051D01*
X222326247Y-51518051D02*
X222421485Y-51565670D01*
X222421485Y-51565670D02*
X222564342Y-51565670D01*
X222564342Y-51565670D02*
X222659580Y-51518051D01*
X222659580Y-51518051D02*
X222707200Y-51470432D01*
X222707200Y-51470432D02*
X222754819Y-51375194D01*
X222754819Y-51375194D02*
X222754819Y-50994242D01*
X222754819Y-50994242D02*
X221754819Y-50994242D01*
X221754819Y-50994242D02*
X221754819Y-51327575D01*
X221754819Y-51327575D02*
X221802438Y-51422813D01*
X221802438Y-51422813D02*
X221850057Y-51470432D01*
X221850057Y-51470432D02*
X221945295Y-51518051D01*
X221945295Y-51518051D02*
X222040533Y-51518051D01*
X222040533Y-51518051D02*
X222135771Y-51470432D01*
X222135771Y-51470432D02*
X222183390Y-51422813D01*
X222183390Y-51422813D02*
X222231009Y-51327575D01*
X222231009Y-51327575D02*
X222231009Y-50994242D01*
X221754819Y-51851385D02*
X221754819Y-52422813D01*
X222754819Y-52137099D02*
X221754819Y-52137099D01*
X222754819Y-53279956D02*
X222754819Y-52708528D01*
X222754819Y-52994242D02*
X221754819Y-52994242D01*
X221754819Y-52994242D02*
X221897676Y-52899004D01*
X221897676Y-52899004D02*
X221992914Y-52803766D01*
X221992914Y-52803766D02*
X222040533Y-52708528D01*
X166709581Y-83970432D02*
X166757201Y-83922813D01*
X166757201Y-83922813D02*
X166804820Y-83779956D01*
X166804820Y-83779956D02*
X166804820Y-83684718D01*
X166804820Y-83684718D02*
X166757201Y-83541861D01*
X166757201Y-83541861D02*
X166661962Y-83446623D01*
X166661962Y-83446623D02*
X166566724Y-83399004D01*
X166566724Y-83399004D02*
X166376248Y-83351385D01*
X166376248Y-83351385D02*
X166233391Y-83351385D01*
X166233391Y-83351385D02*
X166042915Y-83399004D01*
X166042915Y-83399004D02*
X165947677Y-83446623D01*
X165947677Y-83446623D02*
X165852439Y-83541861D01*
X165852439Y-83541861D02*
X165804820Y-83684718D01*
X165804820Y-83684718D02*
X165804820Y-83779956D01*
X165804820Y-83779956D02*
X165852439Y-83922813D01*
X165852439Y-83922813D02*
X165900058Y-83970432D01*
X165900058Y-84351385D02*
X165852439Y-84399004D01*
X165852439Y-84399004D02*
X165804820Y-84494242D01*
X165804820Y-84494242D02*
X165804820Y-84732337D01*
X165804820Y-84732337D02*
X165852439Y-84827575D01*
X165852439Y-84827575D02*
X165900058Y-84875194D01*
X165900058Y-84875194D02*
X165995296Y-84922813D01*
X165995296Y-84922813D02*
X166090534Y-84922813D01*
X166090534Y-84922813D02*
X166233391Y-84875194D01*
X166233391Y-84875194D02*
X166804820Y-84303766D01*
X166804820Y-84303766D02*
X166804820Y-84922813D01*
X165804820Y-85256147D02*
X165804820Y-85922813D01*
X165804820Y-85922813D02*
X166804820Y-85494242D01*
X212931009Y-59932337D02*
X212978628Y-60075194D01*
X212978628Y-60075194D02*
X213026247Y-60122813D01*
X213026247Y-60122813D02*
X213121485Y-60170432D01*
X213121485Y-60170432D02*
X213264342Y-60170432D01*
X213264342Y-60170432D02*
X213359580Y-60122813D01*
X213359580Y-60122813D02*
X213407200Y-60075194D01*
X213407200Y-60075194D02*
X213454819Y-59979956D01*
X213454819Y-59979956D02*
X213454819Y-59599004D01*
X213454819Y-59599004D02*
X212454819Y-59599004D01*
X212454819Y-59599004D02*
X212454819Y-59932337D01*
X212454819Y-59932337D02*
X212502438Y-60027575D01*
X212502438Y-60027575D02*
X212550057Y-60075194D01*
X212550057Y-60075194D02*
X212645295Y-60122813D01*
X212645295Y-60122813D02*
X212740533Y-60122813D01*
X212740533Y-60122813D02*
X212835771Y-60075194D01*
X212835771Y-60075194D02*
X212883390Y-60027575D01*
X212883390Y-60027575D02*
X212931009Y-59932337D01*
X212931009Y-59932337D02*
X212931009Y-59599004D01*
X212454819Y-60503766D02*
X212454819Y-61170432D01*
X212454819Y-61170432D02*
X213454819Y-60503766D01*
X213454819Y-60503766D02*
X213454819Y-61170432D01*
X213454819Y-62075194D02*
X213454819Y-61503766D01*
X213454819Y-61789480D02*
X212454819Y-61789480D01*
X212454819Y-61789480D02*
X212597676Y-61694242D01*
X212597676Y-61694242D02*
X212692914Y-61599004D01*
X212692914Y-61599004D02*
X212740533Y-61503766D01*
X206073867Y-64232338D02*
X206073867Y-64994243D01*
X206454820Y-64613290D02*
X205692915Y-64613290D01*
X155771343Y-51925360D02*
X156276419Y-52430436D01*
X156276419Y-52430436D02*
X156411106Y-52497779D01*
X156411106Y-52497779D02*
X156545793Y-52497779D01*
X156545793Y-52497779D02*
X156680480Y-52430436D01*
X156680480Y-52430436D02*
X156747824Y-52363092D01*
X156141732Y-52969184D02*
X155434625Y-52262077D01*
X155434625Y-52262077D02*
X155165251Y-52531451D01*
X155165251Y-52531451D02*
X155131580Y-52632467D01*
X155131580Y-52632467D02*
X155131580Y-52699810D01*
X155131580Y-52699810D02*
X155165251Y-52800825D01*
X155165251Y-52800825D02*
X155266267Y-52901841D01*
X155266267Y-52901841D02*
X155367282Y-52935512D01*
X155367282Y-52935512D02*
X155434625Y-52935512D01*
X155434625Y-52935512D02*
X155535641Y-52901841D01*
X155535641Y-52901841D02*
X155805015Y-52632467D01*
X155064236Y-54046680D02*
X155468297Y-53642619D01*
X155266267Y-53844650D02*
X154559160Y-53137543D01*
X154559160Y-53137543D02*
X154727519Y-53171215D01*
X154727519Y-53171215D02*
X154862206Y-53171215D01*
X154862206Y-53171215D02*
X154963221Y-53137543D01*
X106642857Y-71622870D02*
X106690476Y-71670490D01*
X106690476Y-71670490D02*
X106833333Y-71718109D01*
X106833333Y-71718109D02*
X106928571Y-71718109D01*
X106928571Y-71718109D02*
X107071428Y-71670490D01*
X107071428Y-71670490D02*
X107166666Y-71575251D01*
X107166666Y-71575251D02*
X107214285Y-71480013D01*
X107214285Y-71480013D02*
X107261904Y-71289537D01*
X107261904Y-71289537D02*
X107261904Y-71146680D01*
X107261904Y-71146680D02*
X107214285Y-70956204D01*
X107214285Y-70956204D02*
X107166666Y-70860966D01*
X107166666Y-70860966D02*
X107071428Y-70765728D01*
X107071428Y-70765728D02*
X106928571Y-70718109D01*
X106928571Y-70718109D02*
X106833333Y-70718109D01*
X106833333Y-70718109D02*
X106690476Y-70765728D01*
X106690476Y-70765728D02*
X106642857Y-70813347D01*
X106261904Y-70813347D02*
X106214285Y-70765728D01*
X106214285Y-70765728D02*
X106119047Y-70718109D01*
X106119047Y-70718109D02*
X105880952Y-70718109D01*
X105880952Y-70718109D02*
X105785714Y-70765728D01*
X105785714Y-70765728D02*
X105738095Y-70813347D01*
X105738095Y-70813347D02*
X105690476Y-70908585D01*
X105690476Y-70908585D02*
X105690476Y-71003823D01*
X105690476Y-71003823D02*
X105738095Y-71146680D01*
X105738095Y-71146680D02*
X106309523Y-71718109D01*
X106309523Y-71718109D02*
X105690476Y-71718109D01*
X104833333Y-71051442D02*
X104833333Y-71718109D01*
X105071428Y-70670490D02*
X105309523Y-71384775D01*
X105309523Y-71384775D02*
X104690476Y-71384775D01*
X167921800Y-77800627D02*
X168494219Y-77699612D01*
X168325861Y-78204688D02*
X169032967Y-77497581D01*
X169032967Y-77497581D02*
X168763593Y-77228207D01*
X168763593Y-77228207D02*
X168662578Y-77194535D01*
X168662578Y-77194535D02*
X168595235Y-77194535D01*
X168595235Y-77194535D02*
X168494219Y-77228207D01*
X168494219Y-77228207D02*
X168393204Y-77329222D01*
X168393204Y-77329222D02*
X168359532Y-77430238D01*
X168359532Y-77430238D02*
X168359532Y-77497581D01*
X168359532Y-77497581D02*
X168393204Y-77598596D01*
X168393204Y-77598596D02*
X168662578Y-77867970D01*
X168393204Y-76857818D02*
X167955471Y-76420085D01*
X167955471Y-76420085D02*
X167921800Y-76925161D01*
X167921800Y-76925161D02*
X167820784Y-76824146D01*
X167820784Y-76824146D02*
X167719769Y-76790474D01*
X167719769Y-76790474D02*
X167652426Y-76790474D01*
X167652426Y-76790474D02*
X167551410Y-76824146D01*
X167551410Y-76824146D02*
X167383052Y-76992505D01*
X167383052Y-76992505D02*
X167349380Y-77093520D01*
X167349380Y-77093520D02*
X167349380Y-77160864D01*
X167349380Y-77160864D02*
X167383052Y-77261879D01*
X167383052Y-77261879D02*
X167585082Y-77463909D01*
X167585082Y-77463909D02*
X167686097Y-77497581D01*
X167686097Y-77497581D02*
X167753441Y-77497581D01*
X167349380Y-75813993D02*
X167484067Y-75948680D01*
X167484067Y-75948680D02*
X167517738Y-76049696D01*
X167517738Y-76049696D02*
X167517738Y-76117039D01*
X167517738Y-76117039D02*
X167484067Y-76285398D01*
X167484067Y-76285398D02*
X167383051Y-76453757D01*
X167383051Y-76453757D02*
X167113677Y-76723131D01*
X167113677Y-76723131D02*
X167012662Y-76756802D01*
X167012662Y-76756802D02*
X166945319Y-76756802D01*
X166945319Y-76756802D02*
X166844303Y-76723131D01*
X166844303Y-76723131D02*
X166709616Y-76588444D01*
X166709616Y-76588444D02*
X166675945Y-76487428D01*
X166675945Y-76487428D02*
X166675945Y-76420085D01*
X166675945Y-76420085D02*
X166709616Y-76319070D01*
X166709616Y-76319070D02*
X166877975Y-76150711D01*
X166877975Y-76150711D02*
X166978990Y-76117039D01*
X166978990Y-76117039D02*
X167046334Y-76117039D01*
X167046334Y-76117039D02*
X167147349Y-76150711D01*
X167147349Y-76150711D02*
X167282036Y-76285398D01*
X167282036Y-76285398D02*
X167315708Y-76386413D01*
X167315708Y-76386413D02*
X167315708Y-76453757D01*
X167315708Y-76453757D02*
X167282036Y-76554772D01*
X91424819Y-91541385D02*
X92234342Y-91541385D01*
X92234342Y-91541385D02*
X92329580Y-91589004D01*
X92329580Y-91589004D02*
X92377200Y-91636623D01*
X92377200Y-91636623D02*
X92424819Y-91731861D01*
X92424819Y-91731861D02*
X92424819Y-91922337D01*
X92424819Y-91922337D02*
X92377200Y-92017575D01*
X92377200Y-92017575D02*
X92329580Y-92065194D01*
X92329580Y-92065194D02*
X92234342Y-92112813D01*
X92234342Y-92112813D02*
X91424819Y-92112813D01*
X91424819Y-93017575D02*
X91424819Y-92827099D01*
X91424819Y-92827099D02*
X91472438Y-92731861D01*
X91472438Y-92731861D02*
X91520057Y-92684242D01*
X91520057Y-92684242D02*
X91662914Y-92589004D01*
X91662914Y-92589004D02*
X91853390Y-92541385D01*
X91853390Y-92541385D02*
X92234342Y-92541385D01*
X92234342Y-92541385D02*
X92329580Y-92589004D01*
X92329580Y-92589004D02*
X92377200Y-92636623D01*
X92377200Y-92636623D02*
X92424819Y-92731861D01*
X92424819Y-92731861D02*
X92424819Y-92922337D01*
X92424819Y-92922337D02*
X92377200Y-93017575D01*
X92377200Y-93017575D02*
X92329580Y-93065194D01*
X92329580Y-93065194D02*
X92234342Y-93112813D01*
X92234342Y-93112813D02*
X91996247Y-93112813D01*
X91996247Y-93112813D02*
X91901009Y-93065194D01*
X91901009Y-93065194D02*
X91853390Y-93017575D01*
X91853390Y-93017575D02*
X91805771Y-92922337D01*
X91805771Y-92922337D02*
X91805771Y-92731861D01*
X91805771Y-92731861D02*
X91853390Y-92636623D01*
X91853390Y-92636623D02*
X91901009Y-92589004D01*
X91901009Y-92589004D02*
X91996247Y-92541385D01*
X169021800Y-76700627D02*
X169594219Y-76599612D01*
X169425861Y-77104688D02*
X170132967Y-76397581D01*
X170132967Y-76397581D02*
X169863593Y-76128207D01*
X169863593Y-76128207D02*
X169762578Y-76094535D01*
X169762578Y-76094535D02*
X169695235Y-76094535D01*
X169695235Y-76094535D02*
X169594219Y-76128207D01*
X169594219Y-76128207D02*
X169493204Y-76229222D01*
X169493204Y-76229222D02*
X169459532Y-76330238D01*
X169459532Y-76330238D02*
X169459532Y-76397581D01*
X169459532Y-76397581D02*
X169493204Y-76498596D01*
X169493204Y-76498596D02*
X169762578Y-76767970D01*
X169493204Y-75757818D02*
X169055471Y-75320085D01*
X169055471Y-75320085D02*
X169021800Y-75825161D01*
X169021800Y-75825161D02*
X168920784Y-75724146D01*
X168920784Y-75724146D02*
X168819769Y-75690474D01*
X168819769Y-75690474D02*
X168752426Y-75690474D01*
X168752426Y-75690474D02*
X168651410Y-75724146D01*
X168651410Y-75724146D02*
X168483052Y-75892505D01*
X168483052Y-75892505D02*
X168449380Y-75993520D01*
X168449380Y-75993520D02*
X168449380Y-76060864D01*
X168449380Y-76060864D02*
X168483052Y-76161879D01*
X168483052Y-76161879D02*
X168685082Y-76363909D01*
X168685082Y-76363909D02*
X168786097Y-76397581D01*
X168786097Y-76397581D02*
X168853441Y-76397581D01*
X168213677Y-74949696D02*
X167742273Y-75421100D01*
X168651410Y-74848680D02*
X168314693Y-75522115D01*
X168314693Y-75522115D02*
X167876960Y-75084383D01*
X180095594Y-51638109D02*
X180095594Y-50638109D01*
X180095594Y-50638109D02*
X179857499Y-50638109D01*
X179857499Y-50638109D02*
X179714642Y-50685728D01*
X179714642Y-50685728D02*
X179619404Y-50780966D01*
X179619404Y-50780966D02*
X179571785Y-50876204D01*
X179571785Y-50876204D02*
X179524166Y-51066680D01*
X179524166Y-51066680D02*
X179524166Y-51209537D01*
X179524166Y-51209537D02*
X179571785Y-51400013D01*
X179571785Y-51400013D02*
X179619404Y-51495251D01*
X179619404Y-51495251D02*
X179714642Y-51590490D01*
X179714642Y-51590490D02*
X179857499Y-51638109D01*
X179857499Y-51638109D02*
X180095594Y-51638109D01*
X179190832Y-50638109D02*
X178571785Y-50638109D01*
X178571785Y-50638109D02*
X178905118Y-51019061D01*
X178905118Y-51019061D02*
X178762261Y-51019061D01*
X178762261Y-51019061D02*
X178667023Y-51066680D01*
X178667023Y-51066680D02*
X178619404Y-51114299D01*
X178619404Y-51114299D02*
X178571785Y-51209537D01*
X178571785Y-51209537D02*
X178571785Y-51447632D01*
X178571785Y-51447632D02*
X178619404Y-51542870D01*
X178619404Y-51542870D02*
X178667023Y-51590490D01*
X178667023Y-51590490D02*
X178762261Y-51638109D01*
X178762261Y-51638109D02*
X179047975Y-51638109D01*
X179047975Y-51638109D02*
X179143213Y-51590490D01*
X179143213Y-51590490D02*
X179190832Y-51542870D01*
X67142857Y-104092870D02*
X67190476Y-104140490D01*
X67190476Y-104140490D02*
X67333333Y-104188109D01*
X67333333Y-104188109D02*
X67428571Y-104188109D01*
X67428571Y-104188109D02*
X67571428Y-104140490D01*
X67571428Y-104140490D02*
X67666666Y-104045251D01*
X67666666Y-104045251D02*
X67714285Y-103950013D01*
X67714285Y-103950013D02*
X67761904Y-103759537D01*
X67761904Y-103759537D02*
X67761904Y-103616680D01*
X67761904Y-103616680D02*
X67714285Y-103426204D01*
X67714285Y-103426204D02*
X67666666Y-103330966D01*
X67666666Y-103330966D02*
X67571428Y-103235728D01*
X67571428Y-103235728D02*
X67428571Y-103188109D01*
X67428571Y-103188109D02*
X67333333Y-103188109D01*
X67333333Y-103188109D02*
X67190476Y-103235728D01*
X67190476Y-103235728D02*
X67142857Y-103283347D01*
X66190476Y-104188109D02*
X66761904Y-104188109D01*
X66476190Y-104188109D02*
X66476190Y-103188109D01*
X66476190Y-103188109D02*
X66571428Y-103330966D01*
X66571428Y-103330966D02*
X66666666Y-103426204D01*
X66666666Y-103426204D02*
X66761904Y-103473823D01*
X65571428Y-103188109D02*
X65476190Y-103188109D01*
X65476190Y-103188109D02*
X65380952Y-103235728D01*
X65380952Y-103235728D02*
X65333333Y-103283347D01*
X65333333Y-103283347D02*
X65285714Y-103378585D01*
X65285714Y-103378585D02*
X65238095Y-103569061D01*
X65238095Y-103569061D02*
X65238095Y-103807156D01*
X65238095Y-103807156D02*
X65285714Y-103997632D01*
X65285714Y-103997632D02*
X65333333Y-104092870D01*
X65333333Y-104092870D02*
X65380952Y-104140490D01*
X65380952Y-104140490D02*
X65476190Y-104188109D01*
X65476190Y-104188109D02*
X65571428Y-104188109D01*
X65571428Y-104188109D02*
X65666666Y-104140490D01*
X65666666Y-104140490D02*
X65714285Y-104092870D01*
X65714285Y-104092870D02*
X65761904Y-103997632D01*
X65761904Y-103997632D02*
X65809523Y-103807156D01*
X65809523Y-103807156D02*
X65809523Y-103569061D01*
X65809523Y-103569061D02*
X65761904Y-103378585D01*
X65761904Y-103378585D02*
X65714285Y-103283347D01*
X65714285Y-103283347D02*
X65666666Y-103235728D01*
X65666666Y-103235728D02*
X65571428Y-103188109D01*
X132435752Y-59498108D02*
X132769085Y-59021917D01*
X133007180Y-59498108D02*
X133007180Y-58498108D01*
X133007180Y-58498108D02*
X132626228Y-58498108D01*
X132626228Y-58498108D02*
X132530990Y-58545727D01*
X132530990Y-58545727D02*
X132483371Y-58593346D01*
X132483371Y-58593346D02*
X132435752Y-58688584D01*
X132435752Y-58688584D02*
X132435752Y-58831441D01*
X132435752Y-58831441D02*
X132483371Y-58926679D01*
X132483371Y-58926679D02*
X132530990Y-58974298D01*
X132530990Y-58974298D02*
X132626228Y-59021917D01*
X132626228Y-59021917D02*
X133007180Y-59021917D01*
X131483371Y-59498108D02*
X132054799Y-59498108D01*
X131769085Y-59498108D02*
X131769085Y-58498108D01*
X131769085Y-58498108D02*
X131864323Y-58640965D01*
X131864323Y-58640965D02*
X131959561Y-58736203D01*
X131959561Y-58736203D02*
X132054799Y-58783822D01*
X130578609Y-58498108D02*
X131054799Y-58498108D01*
X131054799Y-58498108D02*
X131102418Y-58974298D01*
X131102418Y-58974298D02*
X131054799Y-58926679D01*
X131054799Y-58926679D02*
X130959561Y-58879060D01*
X130959561Y-58879060D02*
X130721466Y-58879060D01*
X130721466Y-58879060D02*
X130626228Y-58926679D01*
X130626228Y-58926679D02*
X130578609Y-58974298D01*
X130578609Y-58974298D02*
X130530990Y-59069536D01*
X130530990Y-59069536D02*
X130530990Y-59307631D01*
X130530990Y-59307631D02*
X130578609Y-59402869D01*
X130578609Y-59402869D02*
X130626228Y-59450489D01*
X130626228Y-59450489D02*
X130721466Y-59498108D01*
X130721466Y-59498108D02*
X130959561Y-59498108D01*
X130959561Y-59498108D02*
X131054799Y-59450489D01*
X131054799Y-59450489D02*
X131102418Y-59402869D01*
X186930357Y-57498109D02*
X187263690Y-57021918D01*
X187501785Y-57498109D02*
X187501785Y-56498109D01*
X187501785Y-56498109D02*
X187120833Y-56498109D01*
X187120833Y-56498109D02*
X187025595Y-56545728D01*
X187025595Y-56545728D02*
X186977976Y-56593347D01*
X186977976Y-56593347D02*
X186930357Y-56688585D01*
X186930357Y-56688585D02*
X186930357Y-56831442D01*
X186930357Y-56831442D02*
X186977976Y-56926680D01*
X186977976Y-56926680D02*
X187025595Y-56974299D01*
X187025595Y-56974299D02*
X187120833Y-57021918D01*
X187120833Y-57021918D02*
X187501785Y-57021918D01*
X186549404Y-56593347D02*
X186501785Y-56545728D01*
X186501785Y-56545728D02*
X186406547Y-56498109D01*
X186406547Y-56498109D02*
X186168452Y-56498109D01*
X186168452Y-56498109D02*
X186073214Y-56545728D01*
X186073214Y-56545728D02*
X186025595Y-56593347D01*
X186025595Y-56593347D02*
X185977976Y-56688585D01*
X185977976Y-56688585D02*
X185977976Y-56783823D01*
X185977976Y-56783823D02*
X186025595Y-56926680D01*
X186025595Y-56926680D02*
X186597023Y-57498109D01*
X186597023Y-57498109D02*
X185977976Y-57498109D01*
X185597023Y-56593347D02*
X185549404Y-56545728D01*
X185549404Y-56545728D02*
X185454166Y-56498109D01*
X185454166Y-56498109D02*
X185216071Y-56498109D01*
X185216071Y-56498109D02*
X185120833Y-56545728D01*
X185120833Y-56545728D02*
X185073214Y-56593347D01*
X185073214Y-56593347D02*
X185025595Y-56688585D01*
X185025595Y-56688585D02*
X185025595Y-56783823D01*
X185025595Y-56783823D02*
X185073214Y-56926680D01*
X185073214Y-56926680D02*
X185644642Y-57498109D01*
X185644642Y-57498109D02*
X185025595Y-57498109D01*
X180375357Y-51498109D02*
X180708690Y-51021918D01*
X180946785Y-51498109D02*
X180946785Y-50498109D01*
X180946785Y-50498109D02*
X180565833Y-50498109D01*
X180565833Y-50498109D02*
X180470595Y-50545728D01*
X180470595Y-50545728D02*
X180422976Y-50593347D01*
X180422976Y-50593347D02*
X180375357Y-50688585D01*
X180375357Y-50688585D02*
X180375357Y-50831442D01*
X180375357Y-50831442D02*
X180422976Y-50926680D01*
X180422976Y-50926680D02*
X180470595Y-50974299D01*
X180470595Y-50974299D02*
X180565833Y-51021918D01*
X180565833Y-51021918D02*
X180946785Y-51021918D01*
X179422976Y-51498109D02*
X179994404Y-51498109D01*
X179708690Y-51498109D02*
X179708690Y-50498109D01*
X179708690Y-50498109D02*
X179803928Y-50640966D01*
X179803928Y-50640966D02*
X179899166Y-50736204D01*
X179899166Y-50736204D02*
X179994404Y-50783823D01*
X178946785Y-51498109D02*
X178756309Y-51498109D01*
X178756309Y-51498109D02*
X178661071Y-51450490D01*
X178661071Y-51450490D02*
X178613452Y-51402870D01*
X178613452Y-51402870D02*
X178518214Y-51260013D01*
X178518214Y-51260013D02*
X178470595Y-51069537D01*
X178470595Y-51069537D02*
X178470595Y-50688585D01*
X178470595Y-50688585D02*
X178518214Y-50593347D01*
X178518214Y-50593347D02*
X178565833Y-50545728D01*
X178565833Y-50545728D02*
X178661071Y-50498109D01*
X178661071Y-50498109D02*
X178851547Y-50498109D01*
X178851547Y-50498109D02*
X178946785Y-50545728D01*
X178946785Y-50545728D02*
X178994404Y-50593347D01*
X178994404Y-50593347D02*
X179042023Y-50688585D01*
X179042023Y-50688585D02*
X179042023Y-50926680D01*
X179042023Y-50926680D02*
X178994404Y-51021918D01*
X178994404Y-51021918D02*
X178946785Y-51069537D01*
X178946785Y-51069537D02*
X178851547Y-51117156D01*
X178851547Y-51117156D02*
X178661071Y-51117156D01*
X178661071Y-51117156D02*
X178565833Y-51069537D01*
X178565833Y-51069537D02*
X178518214Y-51021918D01*
X178518214Y-51021918D02*
X178470595Y-50926680D01*
X137626225Y-61470491D02*
X137483368Y-61518110D01*
X137483368Y-61518110D02*
X137245273Y-61518110D01*
X137245273Y-61518110D02*
X137150035Y-61470491D01*
X137150035Y-61470491D02*
X137102416Y-61422871D01*
X137102416Y-61422871D02*
X137054797Y-61327633D01*
X137054797Y-61327633D02*
X137054797Y-61232395D01*
X137054797Y-61232395D02*
X137102416Y-61137157D01*
X137102416Y-61137157D02*
X137150035Y-61089538D01*
X137150035Y-61089538D02*
X137245273Y-61041919D01*
X137245273Y-61041919D02*
X137435749Y-60994300D01*
X137435749Y-60994300D02*
X137530987Y-60946681D01*
X137530987Y-60946681D02*
X137578606Y-60899062D01*
X137578606Y-60899062D02*
X137626225Y-60803824D01*
X137626225Y-60803824D02*
X137626225Y-60708586D01*
X137626225Y-60708586D02*
X137578606Y-60613348D01*
X137578606Y-60613348D02*
X137530987Y-60565729D01*
X137530987Y-60565729D02*
X137435749Y-60518110D01*
X137435749Y-60518110D02*
X137197654Y-60518110D01*
X137197654Y-60518110D02*
X137054797Y-60565729D01*
X136721463Y-60518110D02*
X136483368Y-61518110D01*
X136483368Y-61518110D02*
X136292892Y-60803824D01*
X136292892Y-60803824D02*
X136102416Y-61518110D01*
X136102416Y-61518110D02*
X135864321Y-60518110D01*
X135054797Y-60851443D02*
X135054797Y-61518110D01*
X135292892Y-60470491D02*
X135530987Y-61184776D01*
X135530987Y-61184776D02*
X134911940Y-61184776D01*
X92709580Y-53046623D02*
X92757200Y-52999004D01*
X92757200Y-52999004D02*
X92804819Y-52856147D01*
X92804819Y-52856147D02*
X92804819Y-52760909D01*
X92804819Y-52760909D02*
X92757200Y-52618052D01*
X92757200Y-52618052D02*
X92661961Y-52522814D01*
X92661961Y-52522814D02*
X92566723Y-52475195D01*
X92566723Y-52475195D02*
X92376247Y-52427576D01*
X92376247Y-52427576D02*
X92233390Y-52427576D01*
X92233390Y-52427576D02*
X92042914Y-52475195D01*
X92042914Y-52475195D02*
X91947676Y-52522814D01*
X91947676Y-52522814D02*
X91852438Y-52618052D01*
X91852438Y-52618052D02*
X91804819Y-52760909D01*
X91804819Y-52760909D02*
X91804819Y-52856147D01*
X91804819Y-52856147D02*
X91852438Y-52999004D01*
X91852438Y-52999004D02*
X91900057Y-53046623D01*
X91804819Y-53951385D02*
X91804819Y-53475195D01*
X91804819Y-53475195D02*
X92281009Y-53427576D01*
X92281009Y-53427576D02*
X92233390Y-53475195D01*
X92233390Y-53475195D02*
X92185771Y-53570433D01*
X92185771Y-53570433D02*
X92185771Y-53808528D01*
X92185771Y-53808528D02*
X92233390Y-53903766D01*
X92233390Y-53903766D02*
X92281009Y-53951385D01*
X92281009Y-53951385D02*
X92376247Y-53999004D01*
X92376247Y-53999004D02*
X92614342Y-53999004D01*
X92614342Y-53999004D02*
X92709580Y-53951385D01*
X92709580Y-53951385D02*
X92757200Y-53903766D01*
X92757200Y-53903766D02*
X92804819Y-53808528D01*
X92804819Y-53808528D02*
X92804819Y-53570433D01*
X92804819Y-53570433D02*
X92757200Y-53475195D01*
X92757200Y-53475195D02*
X92709580Y-53427576D01*
X148933532Y-66814036D02*
X149266865Y-66337845D01*
X149504960Y-66814036D02*
X149504960Y-65814036D01*
X149504960Y-65814036D02*
X149124008Y-65814036D01*
X149124008Y-65814036D02*
X149028770Y-65861655D01*
X149028770Y-65861655D02*
X148981151Y-65909274D01*
X148981151Y-65909274D02*
X148933532Y-66004512D01*
X148933532Y-66004512D02*
X148933532Y-66147369D01*
X148933532Y-66147369D02*
X148981151Y-66242607D01*
X148981151Y-66242607D02*
X149028770Y-66290226D01*
X149028770Y-66290226D02*
X149124008Y-66337845D01*
X149124008Y-66337845D02*
X149504960Y-66337845D01*
X147981151Y-66814036D02*
X148552579Y-66814036D01*
X148266865Y-66814036D02*
X148266865Y-65814036D01*
X148266865Y-65814036D02*
X148362103Y-65956893D01*
X148362103Y-65956893D02*
X148457341Y-66052131D01*
X148457341Y-66052131D02*
X148552579Y-66099750D01*
X147409722Y-66242607D02*
X147504960Y-66194988D01*
X147504960Y-66194988D02*
X147552579Y-66147369D01*
X147552579Y-66147369D02*
X147600198Y-66052131D01*
X147600198Y-66052131D02*
X147600198Y-66004512D01*
X147600198Y-66004512D02*
X147552579Y-65909274D01*
X147552579Y-65909274D02*
X147504960Y-65861655D01*
X147504960Y-65861655D02*
X147409722Y-65814036D01*
X147409722Y-65814036D02*
X147219246Y-65814036D01*
X147219246Y-65814036D02*
X147124008Y-65861655D01*
X147124008Y-65861655D02*
X147076389Y-65909274D01*
X147076389Y-65909274D02*
X147028770Y-66004512D01*
X147028770Y-66004512D02*
X147028770Y-66052131D01*
X147028770Y-66052131D02*
X147076389Y-66147369D01*
X147076389Y-66147369D02*
X147124008Y-66194988D01*
X147124008Y-66194988D02*
X147219246Y-66242607D01*
X147219246Y-66242607D02*
X147409722Y-66242607D01*
X147409722Y-66242607D02*
X147504960Y-66290226D01*
X147504960Y-66290226D02*
X147552579Y-66337845D01*
X147552579Y-66337845D02*
X147600198Y-66433083D01*
X147600198Y-66433083D02*
X147600198Y-66623559D01*
X147600198Y-66623559D02*
X147552579Y-66718797D01*
X147552579Y-66718797D02*
X147504960Y-66766417D01*
X147504960Y-66766417D02*
X147409722Y-66814036D01*
X147409722Y-66814036D02*
X147219246Y-66814036D01*
X147219246Y-66814036D02*
X147124008Y-66766417D01*
X147124008Y-66766417D02*
X147076389Y-66718797D01*
X147076389Y-66718797D02*
X147028770Y-66623559D01*
X147028770Y-66623559D02*
X147028770Y-66433083D01*
X147028770Y-66433083D02*
X147076389Y-66337845D01*
X147076389Y-66337845D02*
X147124008Y-66290226D01*
X147124008Y-66290226D02*
X147219246Y-66242607D01*
X163008454Y-59013972D02*
X163008454Y-59081316D01*
X163008454Y-59081316D02*
X163075798Y-59216003D01*
X163075798Y-59216003D02*
X163143141Y-59283346D01*
X163143141Y-59283346D02*
X163277828Y-59350690D01*
X163277828Y-59350690D02*
X163412515Y-59350690D01*
X163412515Y-59350690D02*
X163513530Y-59317018D01*
X163513530Y-59317018D02*
X163681889Y-59216003D01*
X163681889Y-59216003D02*
X163782904Y-59114988D01*
X163782904Y-59114988D02*
X163883920Y-58946629D01*
X163883920Y-58946629D02*
X163917591Y-58845614D01*
X163917591Y-58845614D02*
X163917591Y-58710927D01*
X163917591Y-58710927D02*
X163850248Y-58576240D01*
X163850248Y-58576240D02*
X163782904Y-58508896D01*
X163782904Y-58508896D02*
X163648217Y-58441553D01*
X163648217Y-58441553D02*
X163580874Y-58441553D01*
X163311500Y-58172179D02*
X163311500Y-58104835D01*
X163311500Y-58104835D02*
X163277828Y-58003820D01*
X163277828Y-58003820D02*
X163109469Y-57835461D01*
X163109469Y-57835461D02*
X163008454Y-57801789D01*
X163008454Y-57801789D02*
X162941111Y-57801789D01*
X162941111Y-57801789D02*
X162840095Y-57835461D01*
X162840095Y-57835461D02*
X162772752Y-57902805D01*
X162772752Y-57902805D02*
X162705408Y-58037492D01*
X162705408Y-58037492D02*
X162705408Y-58845614D01*
X162705408Y-58845614D02*
X162267676Y-58407881D01*
X162638065Y-57498743D02*
X162638065Y-57431400D01*
X162638065Y-57431400D02*
X162604393Y-57330385D01*
X162604393Y-57330385D02*
X162436034Y-57162026D01*
X162436034Y-57162026D02*
X162335019Y-57128354D01*
X162335019Y-57128354D02*
X162267675Y-57128354D01*
X162267675Y-57128354D02*
X162166660Y-57162026D01*
X162166660Y-57162026D02*
X162099317Y-57229369D01*
X162099317Y-57229369D02*
X162031973Y-57364056D01*
X162031973Y-57364056D02*
X162031973Y-58172178D01*
X162031973Y-58172178D02*
X161594240Y-57734446D01*
X106709581Y-83470432D02*
X106757201Y-83422813D01*
X106757201Y-83422813D02*
X106804820Y-83279956D01*
X106804820Y-83279956D02*
X106804820Y-83184718D01*
X106804820Y-83184718D02*
X106757201Y-83041861D01*
X106757201Y-83041861D02*
X106661962Y-82946623D01*
X106661962Y-82946623D02*
X106566724Y-82899004D01*
X106566724Y-82899004D02*
X106376248Y-82851385D01*
X106376248Y-82851385D02*
X106233391Y-82851385D01*
X106233391Y-82851385D02*
X106042915Y-82899004D01*
X106042915Y-82899004D02*
X105947677Y-82946623D01*
X105947677Y-82946623D02*
X105852439Y-83041861D01*
X105852439Y-83041861D02*
X105804820Y-83184718D01*
X105804820Y-83184718D02*
X105804820Y-83279956D01*
X105804820Y-83279956D02*
X105852439Y-83422813D01*
X105852439Y-83422813D02*
X105900058Y-83470432D01*
X105900058Y-83851385D02*
X105852439Y-83899004D01*
X105852439Y-83899004D02*
X105804820Y-83994242D01*
X105804820Y-83994242D02*
X105804820Y-84232337D01*
X105804820Y-84232337D02*
X105852439Y-84327575D01*
X105852439Y-84327575D02*
X105900058Y-84375194D01*
X105900058Y-84375194D02*
X105995296Y-84422813D01*
X105995296Y-84422813D02*
X106090534Y-84422813D01*
X106090534Y-84422813D02*
X106233391Y-84375194D01*
X106233391Y-84375194D02*
X106804820Y-83803766D01*
X106804820Y-83803766D02*
X106804820Y-84422813D01*
X105804820Y-85327575D02*
X105804820Y-84851385D01*
X105804820Y-84851385D02*
X106281010Y-84803766D01*
X106281010Y-84803766D02*
X106233391Y-84851385D01*
X106233391Y-84851385D02*
X106185772Y-84946623D01*
X106185772Y-84946623D02*
X106185772Y-85184718D01*
X106185772Y-85184718D02*
X106233391Y-85279956D01*
X106233391Y-85279956D02*
X106281010Y-85327575D01*
X106281010Y-85327575D02*
X106376248Y-85375194D01*
X106376248Y-85375194D02*
X106614343Y-85375194D01*
X106614343Y-85375194D02*
X106709581Y-85327575D01*
X106709581Y-85327575D02*
X106757201Y-85279956D01*
X106757201Y-85279956D02*
X106804820Y-85184718D01*
X106804820Y-85184718D02*
X106804820Y-84946623D01*
X106804820Y-84946623D02*
X106757201Y-84851385D01*
X106757201Y-84851385D02*
X106709581Y-84803766D01*
X108454819Y-71176385D02*
X108454819Y-71747813D01*
X109454819Y-71462099D02*
X108454819Y-71462099D01*
X109454819Y-72081147D02*
X108454819Y-72081147D01*
X108454819Y-72081147D02*
X108454819Y-72462099D01*
X108454819Y-72462099D02*
X108502438Y-72557337D01*
X108502438Y-72557337D02*
X108550057Y-72604956D01*
X108550057Y-72604956D02*
X108645295Y-72652575D01*
X108645295Y-72652575D02*
X108788152Y-72652575D01*
X108788152Y-72652575D02*
X108883390Y-72604956D01*
X108883390Y-72604956D02*
X108931009Y-72557337D01*
X108931009Y-72557337D02*
X108978628Y-72462099D01*
X108978628Y-72462099D02*
X108978628Y-72081147D01*
X109454819Y-73604956D02*
X109454819Y-73033528D01*
X109454819Y-73319242D02*
X108454819Y-73319242D01*
X108454819Y-73319242D02*
X108597676Y-73224004D01*
X108597676Y-73224004D02*
X108692914Y-73128766D01*
X108692914Y-73128766D02*
X108740533Y-73033528D01*
X82792319Y-56151385D02*
X83601842Y-56151385D01*
X83601842Y-56151385D02*
X83697080Y-56199004D01*
X83697080Y-56199004D02*
X83744700Y-56246623D01*
X83744700Y-56246623D02*
X83792319Y-56341861D01*
X83792319Y-56341861D02*
X83792319Y-56532337D01*
X83792319Y-56532337D02*
X83744700Y-56627575D01*
X83744700Y-56627575D02*
X83697080Y-56675194D01*
X83697080Y-56675194D02*
X83601842Y-56722813D01*
X83601842Y-56722813D02*
X82792319Y-56722813D01*
X83792319Y-57722813D02*
X83792319Y-57151385D01*
X83792319Y-57437099D02*
X82792319Y-57437099D01*
X82792319Y-57437099D02*
X82935176Y-57341861D01*
X82935176Y-57341861D02*
X83030414Y-57246623D01*
X83030414Y-57246623D02*
X83078033Y-57151385D01*
X191734819Y-91851385D02*
X192544342Y-91851385D01*
X192544342Y-91851385D02*
X192639580Y-91899004D01*
X192639580Y-91899004D02*
X192687200Y-91946623D01*
X192687200Y-91946623D02*
X192734819Y-92041861D01*
X192734819Y-92041861D02*
X192734819Y-92232337D01*
X192734819Y-92232337D02*
X192687200Y-92327575D01*
X192687200Y-92327575D02*
X192639580Y-92375194D01*
X192639580Y-92375194D02*
X192544342Y-92422813D01*
X192544342Y-92422813D02*
X191734819Y-92422813D01*
X192734819Y-92946623D02*
X192734819Y-93137099D01*
X192734819Y-93137099D02*
X192687200Y-93232337D01*
X192687200Y-93232337D02*
X192639580Y-93279956D01*
X192639580Y-93279956D02*
X192496723Y-93375194D01*
X192496723Y-93375194D02*
X192306247Y-93422813D01*
X192306247Y-93422813D02*
X191925295Y-93422813D01*
X191925295Y-93422813D02*
X191830057Y-93375194D01*
X191830057Y-93375194D02*
X191782438Y-93327575D01*
X191782438Y-93327575D02*
X191734819Y-93232337D01*
X191734819Y-93232337D02*
X191734819Y-93041861D01*
X191734819Y-93041861D02*
X191782438Y-92946623D01*
X191782438Y-92946623D02*
X191830057Y-92899004D01*
X191830057Y-92899004D02*
X191925295Y-92851385D01*
X191925295Y-92851385D02*
X192163390Y-92851385D01*
X192163390Y-92851385D02*
X192258628Y-92899004D01*
X192258628Y-92899004D02*
X192306247Y-92946623D01*
X192306247Y-92946623D02*
X192353866Y-93041861D01*
X192353866Y-93041861D02*
X192353866Y-93232337D01*
X192353866Y-93232337D02*
X192306247Y-93327575D01*
X192306247Y-93327575D02*
X192258628Y-93375194D01*
X192258628Y-93375194D02*
X192163390Y-93422813D01*
X154691659Y-74499126D02*
X154119239Y-75071546D01*
X154119239Y-75071546D02*
X154018224Y-75105218D01*
X154018224Y-75105218D02*
X153950880Y-75105218D01*
X153950880Y-75105218D02*
X153849865Y-75071546D01*
X153849865Y-75071546D02*
X153715178Y-74936859D01*
X153715178Y-74936859D02*
X153681506Y-74835844D01*
X153681506Y-74835844D02*
X153681506Y-74768500D01*
X153681506Y-74768500D02*
X153715178Y-74667485D01*
X153715178Y-74667485D02*
X154287598Y-74095065D01*
X153412132Y-73691004D02*
X152940728Y-74162409D01*
X153849865Y-73589989D02*
X153513147Y-74263424D01*
X153513147Y-74263424D02*
X153075415Y-73825691D01*
X84709580Y-86746623D02*
X84757200Y-86699004D01*
X84757200Y-86699004D02*
X84804819Y-86556147D01*
X84804819Y-86556147D02*
X84804819Y-86460909D01*
X84804819Y-86460909D02*
X84757200Y-86318052D01*
X84757200Y-86318052D02*
X84661961Y-86222814D01*
X84661961Y-86222814D02*
X84566723Y-86175195D01*
X84566723Y-86175195D02*
X84376247Y-86127576D01*
X84376247Y-86127576D02*
X84233390Y-86127576D01*
X84233390Y-86127576D02*
X84042914Y-86175195D01*
X84042914Y-86175195D02*
X83947676Y-86222814D01*
X83947676Y-86222814D02*
X83852438Y-86318052D01*
X83852438Y-86318052D02*
X83804819Y-86460909D01*
X83804819Y-86460909D02*
X83804819Y-86556147D01*
X83804819Y-86556147D02*
X83852438Y-86699004D01*
X83852438Y-86699004D02*
X83900057Y-86746623D01*
X84804819Y-87222814D02*
X84804819Y-87413290D01*
X84804819Y-87413290D02*
X84757200Y-87508528D01*
X84757200Y-87508528D02*
X84709580Y-87556147D01*
X84709580Y-87556147D02*
X84566723Y-87651385D01*
X84566723Y-87651385D02*
X84376247Y-87699004D01*
X84376247Y-87699004D02*
X83995295Y-87699004D01*
X83995295Y-87699004D02*
X83900057Y-87651385D01*
X83900057Y-87651385D02*
X83852438Y-87603766D01*
X83852438Y-87603766D02*
X83804819Y-87508528D01*
X83804819Y-87508528D02*
X83804819Y-87318052D01*
X83804819Y-87318052D02*
X83852438Y-87222814D01*
X83852438Y-87222814D02*
X83900057Y-87175195D01*
X83900057Y-87175195D02*
X83995295Y-87127576D01*
X83995295Y-87127576D02*
X84233390Y-87127576D01*
X84233390Y-87127576D02*
X84328628Y-87175195D01*
X84328628Y-87175195D02*
X84376247Y-87222814D01*
X84376247Y-87222814D02*
X84423866Y-87318052D01*
X84423866Y-87318052D02*
X84423866Y-87508528D01*
X84423866Y-87508528D02*
X84376247Y-87603766D01*
X84376247Y-87603766D02*
X84328628Y-87651385D01*
X84328628Y-87651385D02*
X84233390Y-87699004D01*
X207209581Y-83970432D02*
X207257201Y-83922813D01*
X207257201Y-83922813D02*
X207304820Y-83779956D01*
X207304820Y-83779956D02*
X207304820Y-83684718D01*
X207304820Y-83684718D02*
X207257201Y-83541861D01*
X207257201Y-83541861D02*
X207161962Y-83446623D01*
X207161962Y-83446623D02*
X207066724Y-83399004D01*
X207066724Y-83399004D02*
X206876248Y-83351385D01*
X206876248Y-83351385D02*
X206733391Y-83351385D01*
X206733391Y-83351385D02*
X206542915Y-83399004D01*
X206542915Y-83399004D02*
X206447677Y-83446623D01*
X206447677Y-83446623D02*
X206352439Y-83541861D01*
X206352439Y-83541861D02*
X206304820Y-83684718D01*
X206304820Y-83684718D02*
X206304820Y-83779956D01*
X206304820Y-83779956D02*
X206352439Y-83922813D01*
X206352439Y-83922813D02*
X206400058Y-83970432D01*
X206400058Y-84351385D02*
X206352439Y-84399004D01*
X206352439Y-84399004D02*
X206304820Y-84494242D01*
X206304820Y-84494242D02*
X206304820Y-84732337D01*
X206304820Y-84732337D02*
X206352439Y-84827575D01*
X206352439Y-84827575D02*
X206400058Y-84875194D01*
X206400058Y-84875194D02*
X206495296Y-84922813D01*
X206495296Y-84922813D02*
X206590534Y-84922813D01*
X206590534Y-84922813D02*
X206733391Y-84875194D01*
X206733391Y-84875194D02*
X207304820Y-84303766D01*
X207304820Y-84303766D02*
X207304820Y-84922813D01*
X206733391Y-85494242D02*
X206685772Y-85399004D01*
X206685772Y-85399004D02*
X206638153Y-85351385D01*
X206638153Y-85351385D02*
X206542915Y-85303766D01*
X206542915Y-85303766D02*
X206495296Y-85303766D01*
X206495296Y-85303766D02*
X206400058Y-85351385D01*
X206400058Y-85351385D02*
X206352439Y-85399004D01*
X206352439Y-85399004D02*
X206304820Y-85494242D01*
X206304820Y-85494242D02*
X206304820Y-85684718D01*
X206304820Y-85684718D02*
X206352439Y-85779956D01*
X206352439Y-85779956D02*
X206400058Y-85827575D01*
X206400058Y-85827575D02*
X206495296Y-85875194D01*
X206495296Y-85875194D02*
X206542915Y-85875194D01*
X206542915Y-85875194D02*
X206638153Y-85827575D01*
X206638153Y-85827575D02*
X206685772Y-85779956D01*
X206685772Y-85779956D02*
X206733391Y-85684718D01*
X206733391Y-85684718D02*
X206733391Y-85494242D01*
X206733391Y-85494242D02*
X206781010Y-85399004D01*
X206781010Y-85399004D02*
X206828629Y-85351385D01*
X206828629Y-85351385D02*
X206923867Y-85303766D01*
X206923867Y-85303766D02*
X207114343Y-85303766D01*
X207114343Y-85303766D02*
X207209581Y-85351385D01*
X207209581Y-85351385D02*
X207257201Y-85399004D01*
X207257201Y-85399004D02*
X207304820Y-85494242D01*
X207304820Y-85494242D02*
X207304820Y-85684718D01*
X207304820Y-85684718D02*
X207257201Y-85779956D01*
X207257201Y-85779956D02*
X207209581Y-85827575D01*
X207209581Y-85827575D02*
X207114343Y-85875194D01*
X207114343Y-85875194D02*
X206923867Y-85875194D01*
X206923867Y-85875194D02*
X206828629Y-85827575D01*
X206828629Y-85827575D02*
X206781010Y-85779956D01*
X206781010Y-85779956D02*
X206733391Y-85684718D01*
X69209581Y-56846623D02*
X69257201Y-56799004D01*
X69257201Y-56799004D02*
X69304820Y-56656147D01*
X69304820Y-56656147D02*
X69304820Y-56560909D01*
X69304820Y-56560909D02*
X69257201Y-56418052D01*
X69257201Y-56418052D02*
X69161962Y-56322814D01*
X69161962Y-56322814D02*
X69066724Y-56275195D01*
X69066724Y-56275195D02*
X68876248Y-56227576D01*
X68876248Y-56227576D02*
X68733391Y-56227576D01*
X68733391Y-56227576D02*
X68542915Y-56275195D01*
X68542915Y-56275195D02*
X68447677Y-56322814D01*
X68447677Y-56322814D02*
X68352439Y-56418052D01*
X68352439Y-56418052D02*
X68304820Y-56560909D01*
X68304820Y-56560909D02*
X68304820Y-56656147D01*
X68304820Y-56656147D02*
X68352439Y-56799004D01*
X68352439Y-56799004D02*
X68400058Y-56846623D01*
X68304820Y-57703766D02*
X68304820Y-57513290D01*
X68304820Y-57513290D02*
X68352439Y-57418052D01*
X68352439Y-57418052D02*
X68400058Y-57370433D01*
X68400058Y-57370433D02*
X68542915Y-57275195D01*
X68542915Y-57275195D02*
X68733391Y-57227576D01*
X68733391Y-57227576D02*
X69114343Y-57227576D01*
X69114343Y-57227576D02*
X69209581Y-57275195D01*
X69209581Y-57275195D02*
X69257201Y-57322814D01*
X69257201Y-57322814D02*
X69304820Y-57418052D01*
X69304820Y-57418052D02*
X69304820Y-57608528D01*
X69304820Y-57608528D02*
X69257201Y-57703766D01*
X69257201Y-57703766D02*
X69209581Y-57751385D01*
X69209581Y-57751385D02*
X69114343Y-57799004D01*
X69114343Y-57799004D02*
X68876248Y-57799004D01*
X68876248Y-57799004D02*
X68781010Y-57751385D01*
X68781010Y-57751385D02*
X68733391Y-57703766D01*
X68733391Y-57703766D02*
X68685772Y-57608528D01*
X68685772Y-57608528D02*
X68685772Y-57418052D01*
X68685772Y-57418052D02*
X68733391Y-57322814D01*
X68733391Y-57322814D02*
X68781010Y-57275195D01*
X68781010Y-57275195D02*
X68876248Y-57227576D01*
X158749589Y-54736701D02*
X158985291Y-54500999D01*
X159355680Y-54871388D02*
X158648573Y-54164281D01*
X158648573Y-54164281D02*
X158311856Y-54500999D01*
X158143497Y-55342793D02*
X158076153Y-55477480D01*
X158076153Y-55477480D02*
X158076153Y-55544823D01*
X158076153Y-55544823D02*
X158109825Y-55645839D01*
X158109825Y-55645839D02*
X158210840Y-55746854D01*
X158210840Y-55746854D02*
X158311856Y-55780526D01*
X158311856Y-55780526D02*
X158379199Y-55780526D01*
X158379199Y-55780526D02*
X158480214Y-55746854D01*
X158480214Y-55746854D02*
X158749588Y-55477480D01*
X158749588Y-55477480D02*
X158042482Y-54770373D01*
X158042482Y-54770373D02*
X157806779Y-55006075D01*
X157806779Y-55006075D02*
X157773108Y-55107091D01*
X157773108Y-55107091D02*
X157773108Y-55174434D01*
X157773108Y-55174434D02*
X157806779Y-55275449D01*
X157806779Y-55275449D02*
X157874123Y-55342793D01*
X157874123Y-55342793D02*
X157975138Y-55376465D01*
X157975138Y-55376465D02*
X158042482Y-55376465D01*
X158042482Y-55376465D02*
X158143497Y-55342793D01*
X158143497Y-55342793D02*
X158379199Y-55107091D01*
X157672092Y-56554976D02*
X158076153Y-56150915D01*
X157874123Y-56352945D02*
X157167016Y-55645839D01*
X157167016Y-55645839D02*
X157335375Y-55679510D01*
X157335375Y-55679510D02*
X157470062Y-55679510D01*
X157470062Y-55679510D02*
X157571077Y-55645839D01*
X171221800Y-74500627D02*
X171794219Y-74399612D01*
X171625861Y-74904688D02*
X172332967Y-74197581D01*
X172332967Y-74197581D02*
X172063593Y-73928207D01*
X172063593Y-73928207D02*
X171962578Y-73894535D01*
X171962578Y-73894535D02*
X171895235Y-73894535D01*
X171895235Y-73894535D02*
X171794219Y-73928207D01*
X171794219Y-73928207D02*
X171693204Y-74029222D01*
X171693204Y-74029222D02*
X171659532Y-74130238D01*
X171659532Y-74130238D02*
X171659532Y-74197581D01*
X171659532Y-74197581D02*
X171693204Y-74298596D01*
X171693204Y-74298596D02*
X171962578Y-74567970D01*
X171693204Y-73557818D02*
X171255471Y-73120085D01*
X171255471Y-73120085D02*
X171221800Y-73625161D01*
X171221800Y-73625161D02*
X171120784Y-73524146D01*
X171120784Y-73524146D02*
X171019769Y-73490474D01*
X171019769Y-73490474D02*
X170952426Y-73490474D01*
X170952426Y-73490474D02*
X170851410Y-73524146D01*
X170851410Y-73524146D02*
X170683052Y-73692505D01*
X170683052Y-73692505D02*
X170649380Y-73793520D01*
X170649380Y-73793520D02*
X170649380Y-73860864D01*
X170649380Y-73860864D02*
X170683052Y-73961879D01*
X170683052Y-73961879D02*
X170885082Y-74163909D01*
X170885082Y-74163909D02*
X170986097Y-74197581D01*
X170986097Y-74197581D02*
X171053441Y-74197581D01*
X171019769Y-72884383D02*
X170582036Y-72446650D01*
X170582036Y-72446650D02*
X170548364Y-72951726D01*
X170548364Y-72951726D02*
X170447349Y-72850711D01*
X170447349Y-72850711D02*
X170346334Y-72817039D01*
X170346334Y-72817039D02*
X170278990Y-72817039D01*
X170278990Y-72817039D02*
X170177975Y-72850711D01*
X170177975Y-72850711D02*
X170009616Y-73019070D01*
X170009616Y-73019070D02*
X169975945Y-73120085D01*
X169975945Y-73120085D02*
X169975945Y-73187428D01*
X169975945Y-73187428D02*
X170009616Y-73288444D01*
X170009616Y-73288444D02*
X170211647Y-73490474D01*
X170211647Y-73490474D02*
X170312662Y-73524146D01*
X170312662Y-73524146D02*
X170380006Y-73524146D01*
X61654819Y-73151385D02*
X62464342Y-73151385D01*
X62464342Y-73151385D02*
X62559580Y-73199004D01*
X62559580Y-73199004D02*
X62607200Y-73246623D01*
X62607200Y-73246623D02*
X62654819Y-73341861D01*
X62654819Y-73341861D02*
X62654819Y-73532337D01*
X62654819Y-73532337D02*
X62607200Y-73627575D01*
X62607200Y-73627575D02*
X62559580Y-73675194D01*
X62559580Y-73675194D02*
X62464342Y-73722813D01*
X62464342Y-73722813D02*
X61654819Y-73722813D01*
X61750057Y-74151385D02*
X61702438Y-74199004D01*
X61702438Y-74199004D02*
X61654819Y-74294242D01*
X61654819Y-74294242D02*
X61654819Y-74532337D01*
X61654819Y-74532337D02*
X61702438Y-74627575D01*
X61702438Y-74627575D02*
X61750057Y-74675194D01*
X61750057Y-74675194D02*
X61845295Y-74722813D01*
X61845295Y-74722813D02*
X61940533Y-74722813D01*
X61940533Y-74722813D02*
X62083390Y-74675194D01*
X62083390Y-74675194D02*
X62654819Y-74103766D01*
X62654819Y-74103766D02*
X62654819Y-74722813D01*
X157208454Y-56513972D02*
X157208454Y-56581316D01*
X157208454Y-56581316D02*
X157275798Y-56716003D01*
X157275798Y-56716003D02*
X157343141Y-56783346D01*
X157343141Y-56783346D02*
X157477828Y-56850690D01*
X157477828Y-56850690D02*
X157612515Y-56850690D01*
X157612515Y-56850690D02*
X157713530Y-56817018D01*
X157713530Y-56817018D02*
X157881889Y-56716003D01*
X157881889Y-56716003D02*
X157982904Y-56614988D01*
X157982904Y-56614988D02*
X158083920Y-56446629D01*
X158083920Y-56446629D02*
X158117591Y-56345614D01*
X158117591Y-56345614D02*
X158117591Y-56210927D01*
X158117591Y-56210927D02*
X158050248Y-56076240D01*
X158050248Y-56076240D02*
X157982904Y-56008896D01*
X157982904Y-56008896D02*
X157848217Y-55941553D01*
X157848217Y-55941553D02*
X157780874Y-55941553D01*
X156467676Y-55907881D02*
X156871737Y-56311942D01*
X156669706Y-56109911D02*
X157376813Y-55402805D01*
X157376813Y-55402805D02*
X157343141Y-55571163D01*
X157343141Y-55571163D02*
X157343141Y-55705850D01*
X157343141Y-55705850D02*
X157376813Y-55806866D01*
X156568691Y-54594682D02*
X156703378Y-54729369D01*
X156703378Y-54729369D02*
X156737049Y-54830385D01*
X156737049Y-54830385D02*
X156737049Y-54897728D01*
X156737049Y-54897728D02*
X156703378Y-55066087D01*
X156703378Y-55066087D02*
X156602362Y-55234446D01*
X156602362Y-55234446D02*
X156332988Y-55503820D01*
X156332988Y-55503820D02*
X156231973Y-55537491D01*
X156231973Y-55537491D02*
X156164630Y-55537491D01*
X156164630Y-55537491D02*
X156063614Y-55503820D01*
X156063614Y-55503820D02*
X155928927Y-55369133D01*
X155928927Y-55369133D02*
X155895256Y-55268117D01*
X155895256Y-55268117D02*
X155895256Y-55200774D01*
X155895256Y-55200774D02*
X155928927Y-55099759D01*
X155928927Y-55099759D02*
X156097286Y-54931400D01*
X156097286Y-54931400D02*
X156198301Y-54897728D01*
X156198301Y-54897728D02*
X156265645Y-54897728D01*
X156265645Y-54897728D02*
X156366660Y-54931400D01*
X156366660Y-54931400D02*
X156501347Y-55066087D01*
X156501347Y-55066087D02*
X156535019Y-55167102D01*
X156535019Y-55167102D02*
X156535019Y-55234446D01*
X156535019Y-55234446D02*
X156501347Y-55335461D01*
X111180357Y-78623109D02*
X111513690Y-78146918D01*
X111751785Y-78623109D02*
X111751785Y-77623109D01*
X111751785Y-77623109D02*
X111370833Y-77623109D01*
X111370833Y-77623109D02*
X111275595Y-77670728D01*
X111275595Y-77670728D02*
X111227976Y-77718347D01*
X111227976Y-77718347D02*
X111180357Y-77813585D01*
X111180357Y-77813585D02*
X111180357Y-77956442D01*
X111180357Y-77956442D02*
X111227976Y-78051680D01*
X111227976Y-78051680D02*
X111275595Y-78099299D01*
X111275595Y-78099299D02*
X111370833Y-78146918D01*
X111370833Y-78146918D02*
X111751785Y-78146918D01*
X110799404Y-77718347D02*
X110751785Y-77670728D01*
X110751785Y-77670728D02*
X110656547Y-77623109D01*
X110656547Y-77623109D02*
X110418452Y-77623109D01*
X110418452Y-77623109D02*
X110323214Y-77670728D01*
X110323214Y-77670728D02*
X110275595Y-77718347D01*
X110275595Y-77718347D02*
X110227976Y-77813585D01*
X110227976Y-77813585D02*
X110227976Y-77908823D01*
X110227976Y-77908823D02*
X110275595Y-78051680D01*
X110275595Y-78051680D02*
X110847023Y-78623109D01*
X110847023Y-78623109D02*
X110227976Y-78623109D01*
X109608928Y-77623109D02*
X109513690Y-77623109D01*
X109513690Y-77623109D02*
X109418452Y-77670728D01*
X109418452Y-77670728D02*
X109370833Y-77718347D01*
X109370833Y-77718347D02*
X109323214Y-77813585D01*
X109323214Y-77813585D02*
X109275595Y-78004061D01*
X109275595Y-78004061D02*
X109275595Y-78242156D01*
X109275595Y-78242156D02*
X109323214Y-78432632D01*
X109323214Y-78432632D02*
X109370833Y-78527870D01*
X109370833Y-78527870D02*
X109418452Y-78575490D01*
X109418452Y-78575490D02*
X109513690Y-78623109D01*
X109513690Y-78623109D02*
X109608928Y-78623109D01*
X109608928Y-78623109D02*
X109704166Y-78575490D01*
X109704166Y-78575490D02*
X109751785Y-78527870D01*
X109751785Y-78527870D02*
X109799404Y-78432632D01*
X109799404Y-78432632D02*
X109847023Y-78242156D01*
X109847023Y-78242156D02*
X109847023Y-78004061D01*
X109847023Y-78004061D02*
X109799404Y-77813585D01*
X109799404Y-77813585D02*
X109751785Y-77718347D01*
X109751785Y-77718347D02*
X109704166Y-77670728D01*
X109704166Y-77670728D02*
X109608928Y-77623109D01*
X149721800Y-84800627D02*
X150294219Y-84699612D01*
X150125861Y-85204688D02*
X150832967Y-84497581D01*
X150832967Y-84497581D02*
X150563593Y-84228207D01*
X150563593Y-84228207D02*
X150462578Y-84194535D01*
X150462578Y-84194535D02*
X150395235Y-84194535D01*
X150395235Y-84194535D02*
X150294219Y-84228207D01*
X150294219Y-84228207D02*
X150193204Y-84329222D01*
X150193204Y-84329222D02*
X150159532Y-84430238D01*
X150159532Y-84430238D02*
X150159532Y-84497581D01*
X150159532Y-84497581D02*
X150193204Y-84598596D01*
X150193204Y-84598596D02*
X150462578Y-84867970D01*
X149048365Y-84127192D02*
X149452426Y-84531253D01*
X149250395Y-84329222D02*
X149957502Y-83622116D01*
X149957502Y-83622116D02*
X149923830Y-83790474D01*
X149923830Y-83790474D02*
X149923830Y-83925161D01*
X149923830Y-83925161D02*
X149957502Y-84026177D01*
X149519769Y-83184383D02*
X149048364Y-82712978D01*
X149048364Y-82712978D02*
X148644303Y-83723131D01*
X175487337Y-61691489D02*
X175386322Y-61119070D01*
X175891398Y-61287428D02*
X175184291Y-60580322D01*
X175184291Y-60580322D02*
X174914917Y-60849696D01*
X174914917Y-60849696D02*
X174881245Y-60950711D01*
X174881245Y-60950711D02*
X174881245Y-61018054D01*
X174881245Y-61018054D02*
X174914917Y-61119070D01*
X174914917Y-61119070D02*
X175015932Y-61220085D01*
X175015932Y-61220085D02*
X175116948Y-61253757D01*
X175116948Y-61253757D02*
X175184291Y-61253757D01*
X175184291Y-61253757D02*
X175285306Y-61220085D01*
X175285306Y-61220085D02*
X175554680Y-60950711D01*
X174578200Y-61321100D02*
X174510856Y-61321100D01*
X174510856Y-61321100D02*
X174409841Y-61354772D01*
X174409841Y-61354772D02*
X174241482Y-61523131D01*
X174241482Y-61523131D02*
X174207810Y-61624146D01*
X174207810Y-61624146D02*
X174207810Y-61691489D01*
X174207810Y-61691489D02*
X174241482Y-61792505D01*
X174241482Y-61792505D02*
X174308826Y-61859848D01*
X174308826Y-61859848D02*
X174443513Y-61927192D01*
X174443513Y-61927192D02*
X175251635Y-61927192D01*
X175251635Y-61927192D02*
X174813902Y-62364924D01*
X174005780Y-62364925D02*
X174039451Y-62263909D01*
X174039451Y-62263909D02*
X174039451Y-62196566D01*
X174039451Y-62196566D02*
X174005780Y-62095551D01*
X174005780Y-62095551D02*
X173972108Y-62061879D01*
X173972108Y-62061879D02*
X173871093Y-62028207D01*
X173871093Y-62028207D02*
X173803749Y-62028207D01*
X173803749Y-62028207D02*
X173702734Y-62061879D01*
X173702734Y-62061879D02*
X173568047Y-62196566D01*
X173568047Y-62196566D02*
X173534375Y-62297581D01*
X173534375Y-62297581D02*
X173534375Y-62364925D01*
X173534375Y-62364925D02*
X173568047Y-62465940D01*
X173568047Y-62465940D02*
X173601719Y-62499612D01*
X173601719Y-62499612D02*
X173702734Y-62533283D01*
X173702734Y-62533283D02*
X173770077Y-62533283D01*
X173770077Y-62533283D02*
X173871093Y-62499612D01*
X173871093Y-62499612D02*
X174005780Y-62364925D01*
X174005780Y-62364925D02*
X174106795Y-62331253D01*
X174106795Y-62331253D02*
X174174138Y-62331253D01*
X174174138Y-62331253D02*
X174275154Y-62364925D01*
X174275154Y-62364925D02*
X174409841Y-62499612D01*
X174409841Y-62499612D02*
X174443512Y-62600627D01*
X174443512Y-62600627D02*
X174443512Y-62667970D01*
X174443512Y-62667970D02*
X174409841Y-62768986D01*
X174409841Y-62768986D02*
X174275154Y-62903673D01*
X174275154Y-62903673D02*
X174174138Y-62937344D01*
X174174138Y-62937344D02*
X174106795Y-62937344D01*
X174106795Y-62937344D02*
X174005780Y-62903673D01*
X174005780Y-62903673D02*
X173871093Y-62768986D01*
X173871093Y-62768986D02*
X173837421Y-62667970D01*
X173837421Y-62667970D02*
X173837421Y-62600627D01*
X173837421Y-62600627D02*
X173871093Y-62499612D01*
X135009581Y-83670432D02*
X135057201Y-83622813D01*
X135057201Y-83622813D02*
X135104820Y-83479956D01*
X135104820Y-83479956D02*
X135104820Y-83384718D01*
X135104820Y-83384718D02*
X135057201Y-83241861D01*
X135057201Y-83241861D02*
X134961962Y-83146623D01*
X134961962Y-83146623D02*
X134866724Y-83099004D01*
X134866724Y-83099004D02*
X134676248Y-83051385D01*
X134676248Y-83051385D02*
X134533391Y-83051385D01*
X134533391Y-83051385D02*
X134342915Y-83099004D01*
X134342915Y-83099004D02*
X134247677Y-83146623D01*
X134247677Y-83146623D02*
X134152439Y-83241861D01*
X134152439Y-83241861D02*
X134104820Y-83384718D01*
X134104820Y-83384718D02*
X134104820Y-83479956D01*
X134104820Y-83479956D02*
X134152439Y-83622813D01*
X134152439Y-83622813D02*
X134200058Y-83670432D01*
X134200058Y-84051385D02*
X134152439Y-84099004D01*
X134152439Y-84099004D02*
X134104820Y-84194242D01*
X134104820Y-84194242D02*
X134104820Y-84432337D01*
X134104820Y-84432337D02*
X134152439Y-84527575D01*
X134152439Y-84527575D02*
X134200058Y-84575194D01*
X134200058Y-84575194D02*
X134295296Y-84622813D01*
X134295296Y-84622813D02*
X134390534Y-84622813D01*
X134390534Y-84622813D02*
X134533391Y-84575194D01*
X134533391Y-84575194D02*
X135104820Y-84003766D01*
X135104820Y-84003766D02*
X135104820Y-84622813D01*
X134104820Y-85479956D02*
X134104820Y-85289480D01*
X134104820Y-85289480D02*
X134152439Y-85194242D01*
X134152439Y-85194242D02*
X134200058Y-85146623D01*
X134200058Y-85146623D02*
X134342915Y-85051385D01*
X134342915Y-85051385D02*
X134533391Y-85003766D01*
X134533391Y-85003766D02*
X134914343Y-85003766D01*
X134914343Y-85003766D02*
X135009581Y-85051385D01*
X135009581Y-85051385D02*
X135057201Y-85099004D01*
X135057201Y-85099004D02*
X135104820Y-85194242D01*
X135104820Y-85194242D02*
X135104820Y-85384718D01*
X135104820Y-85384718D02*
X135057201Y-85479956D01*
X135057201Y-85479956D02*
X135009581Y-85527575D01*
X135009581Y-85527575D02*
X134914343Y-85575194D01*
X134914343Y-85575194D02*
X134676248Y-85575194D01*
X134676248Y-85575194D02*
X134581010Y-85527575D01*
X134581010Y-85527575D02*
X134533391Y-85479956D01*
X134533391Y-85479956D02*
X134485772Y-85384718D01*
X134485772Y-85384718D02*
X134485772Y-85194242D01*
X134485772Y-85194242D02*
X134533391Y-85099004D01*
X134533391Y-85099004D02*
X134581010Y-85051385D01*
X134581010Y-85051385D02*
X134676248Y-85003766D01*
X155546753Y-58175673D02*
X155546753Y-58243017D01*
X155546753Y-58243017D02*
X155614097Y-58377704D01*
X155614097Y-58377704D02*
X155681440Y-58445047D01*
X155681440Y-58445047D02*
X155816127Y-58512391D01*
X155816127Y-58512391D02*
X155950814Y-58512391D01*
X155950814Y-58512391D02*
X156051829Y-58478719D01*
X156051829Y-58478719D02*
X156220188Y-58377704D01*
X156220188Y-58377704D02*
X156321203Y-58276689D01*
X156321203Y-58276689D02*
X156422219Y-58108330D01*
X156422219Y-58108330D02*
X156455890Y-58007315D01*
X156455890Y-58007315D02*
X156455890Y-57872628D01*
X156455890Y-57872628D02*
X156388547Y-57737941D01*
X156388547Y-57737941D02*
X156321203Y-57670597D01*
X156321203Y-57670597D02*
X156186516Y-57603254D01*
X156186516Y-57603254D02*
X156119173Y-57603254D01*
X154805975Y-57569582D02*
X155210036Y-57973643D01*
X155008005Y-57771612D02*
X155715112Y-57064506D01*
X155715112Y-57064506D02*
X155681440Y-57232864D01*
X155681440Y-57232864D02*
X155681440Y-57367551D01*
X155681440Y-57367551D02*
X155715112Y-57468567D01*
X154873318Y-56222712D02*
X155210036Y-56559429D01*
X155210036Y-56559429D02*
X154906990Y-56929818D01*
X154906990Y-56929818D02*
X154906990Y-56862475D01*
X154906990Y-56862475D02*
X154873318Y-56761460D01*
X154873318Y-56761460D02*
X154704959Y-56593101D01*
X154704959Y-56593101D02*
X154603944Y-56559429D01*
X154603944Y-56559429D02*
X154536600Y-56559429D01*
X154536600Y-56559429D02*
X154435585Y-56593101D01*
X154435585Y-56593101D02*
X154267226Y-56761460D01*
X154267226Y-56761460D02*
X154233555Y-56862475D01*
X154233555Y-56862475D02*
X154233555Y-56929818D01*
X154233555Y-56929818D02*
X154267226Y-57030834D01*
X154267226Y-57030834D02*
X154435585Y-57199192D01*
X154435585Y-57199192D02*
X154536600Y-57232864D01*
X154536600Y-57232864D02*
X154603944Y-57232864D01*
X167112865Y-67341484D02*
X167160485Y-67293865D01*
X167160485Y-67293865D02*
X167208104Y-67151008D01*
X167208104Y-67151008D02*
X167208104Y-67055770D01*
X167208104Y-67055770D02*
X167160485Y-66912913D01*
X167160485Y-66912913D02*
X167065246Y-66817675D01*
X167065246Y-66817675D02*
X166970008Y-66770056D01*
X166970008Y-66770056D02*
X166779532Y-66722437D01*
X166779532Y-66722437D02*
X166636675Y-66722437D01*
X166636675Y-66722437D02*
X166446199Y-66770056D01*
X166446199Y-66770056D02*
X166350961Y-66817675D01*
X166350961Y-66817675D02*
X166255723Y-66912913D01*
X166255723Y-66912913D02*
X166208104Y-67055770D01*
X166208104Y-67055770D02*
X166208104Y-67151008D01*
X166208104Y-67151008D02*
X166255723Y-67293865D01*
X166255723Y-67293865D02*
X166303342Y-67341484D01*
X166303342Y-67722437D02*
X166255723Y-67770056D01*
X166255723Y-67770056D02*
X166208104Y-67865294D01*
X166208104Y-67865294D02*
X166208104Y-68103389D01*
X166208104Y-68103389D02*
X166255723Y-68198627D01*
X166255723Y-68198627D02*
X166303342Y-68246246D01*
X166303342Y-68246246D02*
X166398580Y-68293865D01*
X166398580Y-68293865D02*
X166493818Y-68293865D01*
X166493818Y-68293865D02*
X166636675Y-68246246D01*
X166636675Y-68246246D02*
X167208104Y-67674818D01*
X167208104Y-67674818D02*
X167208104Y-68293865D01*
X166208104Y-68627199D02*
X166208104Y-69246246D01*
X166208104Y-69246246D02*
X166589056Y-68912913D01*
X166589056Y-68912913D02*
X166589056Y-69055770D01*
X166589056Y-69055770D02*
X166636675Y-69151008D01*
X166636675Y-69151008D02*
X166684294Y-69198627D01*
X166684294Y-69198627D02*
X166779532Y-69246246D01*
X166779532Y-69246246D02*
X167017627Y-69246246D01*
X167017627Y-69246246D02*
X167112865Y-69198627D01*
X167112865Y-69198627D02*
X167160485Y-69151008D01*
X167160485Y-69151008D02*
X167208104Y-69055770D01*
X167208104Y-69055770D02*
X167208104Y-68770056D01*
X167208104Y-68770056D02*
X167160485Y-68674818D01*
X167160485Y-68674818D02*
X167112865Y-68627199D01*
X146730357Y-56998109D02*
X147063690Y-56521918D01*
X147301785Y-56998109D02*
X147301785Y-55998109D01*
X147301785Y-55998109D02*
X146920833Y-55998109D01*
X146920833Y-55998109D02*
X146825595Y-56045728D01*
X146825595Y-56045728D02*
X146777976Y-56093347D01*
X146777976Y-56093347D02*
X146730357Y-56188585D01*
X146730357Y-56188585D02*
X146730357Y-56331442D01*
X146730357Y-56331442D02*
X146777976Y-56426680D01*
X146777976Y-56426680D02*
X146825595Y-56474299D01*
X146825595Y-56474299D02*
X146920833Y-56521918D01*
X146920833Y-56521918D02*
X147301785Y-56521918D01*
X146349404Y-56093347D02*
X146301785Y-56045728D01*
X146301785Y-56045728D02*
X146206547Y-55998109D01*
X146206547Y-55998109D02*
X145968452Y-55998109D01*
X145968452Y-55998109D02*
X145873214Y-56045728D01*
X145873214Y-56045728D02*
X145825595Y-56093347D01*
X145825595Y-56093347D02*
X145777976Y-56188585D01*
X145777976Y-56188585D02*
X145777976Y-56283823D01*
X145777976Y-56283823D02*
X145825595Y-56426680D01*
X145825595Y-56426680D02*
X146397023Y-56998109D01*
X146397023Y-56998109D02*
X145777976Y-56998109D01*
X144873214Y-55998109D02*
X145349404Y-55998109D01*
X145349404Y-55998109D02*
X145397023Y-56474299D01*
X145397023Y-56474299D02*
X145349404Y-56426680D01*
X145349404Y-56426680D02*
X145254166Y-56379061D01*
X145254166Y-56379061D02*
X145016071Y-56379061D01*
X145016071Y-56379061D02*
X144920833Y-56426680D01*
X144920833Y-56426680D02*
X144873214Y-56474299D01*
X144873214Y-56474299D02*
X144825595Y-56569537D01*
X144825595Y-56569537D02*
X144825595Y-56807632D01*
X144825595Y-56807632D02*
X144873214Y-56902870D01*
X144873214Y-56902870D02*
X144920833Y-56950490D01*
X144920833Y-56950490D02*
X145016071Y-56998109D01*
X145016071Y-56998109D02*
X145254166Y-56998109D01*
X145254166Y-56998109D02*
X145349404Y-56950490D01*
X145349404Y-56950490D02*
X145397023Y-56902870D01*
X99549819Y-65826385D02*
X100359342Y-65826385D01*
X100359342Y-65826385D02*
X100454580Y-65874004D01*
X100454580Y-65874004D02*
X100502200Y-65921623D01*
X100502200Y-65921623D02*
X100549819Y-66016861D01*
X100549819Y-66016861D02*
X100549819Y-66207337D01*
X100549819Y-66207337D02*
X100502200Y-66302575D01*
X100502200Y-66302575D02*
X100454580Y-66350194D01*
X100454580Y-66350194D02*
X100359342Y-66397813D01*
X100359342Y-66397813D02*
X99549819Y-66397813D01*
X99549819Y-67350194D02*
X99549819Y-66874004D01*
X99549819Y-66874004D02*
X100026009Y-66826385D01*
X100026009Y-66826385D02*
X99978390Y-66874004D01*
X99978390Y-66874004D02*
X99930771Y-66969242D01*
X99930771Y-66969242D02*
X99930771Y-67207337D01*
X99930771Y-67207337D02*
X99978390Y-67302575D01*
X99978390Y-67302575D02*
X100026009Y-67350194D01*
X100026009Y-67350194D02*
X100121247Y-67397813D01*
X100121247Y-67397813D02*
X100359342Y-67397813D01*
X100359342Y-67397813D02*
X100454580Y-67350194D01*
X100454580Y-67350194D02*
X100502200Y-67302575D01*
X100502200Y-67302575D02*
X100549819Y-67207337D01*
X100549819Y-67207337D02*
X100549819Y-66969242D01*
X100549819Y-66969242D02*
X100502200Y-66874004D01*
X100502200Y-66874004D02*
X100454580Y-66826385D01*
X148621800Y-85800627D02*
X149194219Y-85699612D01*
X149025861Y-86204688D02*
X149732967Y-85497581D01*
X149732967Y-85497581D02*
X149463593Y-85228207D01*
X149463593Y-85228207D02*
X149362578Y-85194535D01*
X149362578Y-85194535D02*
X149295235Y-85194535D01*
X149295235Y-85194535D02*
X149194219Y-85228207D01*
X149194219Y-85228207D02*
X149093204Y-85329222D01*
X149093204Y-85329222D02*
X149059532Y-85430238D01*
X149059532Y-85430238D02*
X149059532Y-85497581D01*
X149059532Y-85497581D02*
X149093204Y-85598596D01*
X149093204Y-85598596D02*
X149362578Y-85867970D01*
X147948365Y-85127192D02*
X148352426Y-85531253D01*
X148150395Y-85329222D02*
X148857502Y-84622116D01*
X148857502Y-84622116D02*
X148823830Y-84790474D01*
X148823830Y-84790474D02*
X148823830Y-84925161D01*
X148823830Y-84925161D02*
X148857502Y-85026177D01*
X148049380Y-83813993D02*
X148184067Y-83948680D01*
X148184067Y-83948680D02*
X148217738Y-84049696D01*
X148217738Y-84049696D02*
X148217738Y-84117039D01*
X148217738Y-84117039D02*
X148184067Y-84285398D01*
X148184067Y-84285398D02*
X148083051Y-84453757D01*
X148083051Y-84453757D02*
X147813677Y-84723131D01*
X147813677Y-84723131D02*
X147712662Y-84756802D01*
X147712662Y-84756802D02*
X147645319Y-84756802D01*
X147645319Y-84756802D02*
X147544303Y-84723131D01*
X147544303Y-84723131D02*
X147409616Y-84588444D01*
X147409616Y-84588444D02*
X147375945Y-84487428D01*
X147375945Y-84487428D02*
X147375945Y-84420085D01*
X147375945Y-84420085D02*
X147409616Y-84319070D01*
X147409616Y-84319070D02*
X147577975Y-84150711D01*
X147577975Y-84150711D02*
X147678990Y-84117039D01*
X147678990Y-84117039D02*
X147746334Y-84117039D01*
X147746334Y-84117039D02*
X147847349Y-84150711D01*
X147847349Y-84150711D02*
X147982036Y-84285398D01*
X147982036Y-84285398D02*
X148015708Y-84386413D01*
X148015708Y-84386413D02*
X148015708Y-84453757D01*
X148015708Y-84453757D02*
X147982036Y-84554772D01*
%TO.C,U3*%
D11*
X78490000Y-78643290D02*
X78490000Y-69173290D01*
X78490000Y-78643290D02*
X88710000Y-78643290D01*
X78490000Y-69173290D02*
X88710000Y-69173290D01*
X78490000Y-68933290D02*
X78490000Y-68573290D01*
X78490000Y-68213290D02*
X78490000Y-67853290D01*
X78490000Y-67493290D02*
X78490000Y-67133290D01*
X78490000Y-66773290D02*
X78490000Y-66413290D01*
X78490000Y-66053290D02*
X78490000Y-65693290D01*
X78490000Y-65333290D02*
X78490000Y-64973290D01*
X78490000Y-64613290D02*
X78490000Y-64253290D01*
X78490000Y-63893290D02*
X78490000Y-63533290D01*
X78490000Y-63173290D02*
X78490000Y-62813290D01*
X78490000Y-62773290D02*
X78850000Y-62773290D01*
X79210000Y-62773290D02*
X79570000Y-62773290D01*
X79930000Y-62773290D02*
X80290000Y-62773290D01*
X80575000Y-78643290D02*
X80575000Y-81083290D01*
X80650000Y-62773290D02*
X81010000Y-62773290D01*
X81370000Y-62773290D02*
X81730000Y-62773290D01*
X81545000Y-78643290D02*
X81545000Y-81083290D01*
X82090000Y-62773290D02*
X82450000Y-62773290D01*
X82810000Y-62773290D02*
X83170000Y-62773290D01*
X83115000Y-78643290D02*
X83115000Y-81083290D01*
X83530000Y-62773290D02*
X83890000Y-62773290D01*
X84085000Y-78643290D02*
X84085000Y-81083290D01*
X84250000Y-62773290D02*
X84610000Y-62773290D01*
X84970000Y-62773290D02*
X85330000Y-62773290D01*
X85655000Y-78643290D02*
X85655000Y-81083290D01*
X85690000Y-62773290D02*
X86050000Y-62773290D01*
X86410000Y-62773290D02*
X86770000Y-62773290D01*
X86625000Y-78643290D02*
X86625000Y-81083290D01*
X87130000Y-62773290D02*
X87490000Y-62773290D01*
X87850000Y-62773290D02*
X88210000Y-62773290D01*
X88570000Y-62773290D02*
X88710000Y-62773290D01*
X88710000Y-78643290D02*
X88710000Y-69173290D01*
X88710000Y-68933290D02*
X88710000Y-68573290D01*
X88710000Y-68213290D02*
X88710000Y-67853290D01*
X88710000Y-67493290D02*
X88710000Y-67133290D01*
X88710000Y-66773290D02*
X88710000Y-66413290D01*
X88710000Y-66053290D02*
X88710000Y-65693290D01*
X88710000Y-65333290D02*
X88710000Y-64973290D01*
X88710000Y-64613290D02*
X88710000Y-64253290D01*
X88710000Y-63893290D02*
X88710000Y-63533290D01*
X88710000Y-63173290D02*
X88710000Y-62813290D01*
%TO.C,Q1*%
X45690000Y-77943290D02*
X45690000Y-68473290D01*
X45690000Y-77943290D02*
X55910000Y-77943290D01*
X45690000Y-68473290D02*
X55910000Y-68473290D01*
X45690000Y-68233290D02*
X45690000Y-67873290D01*
X45690000Y-67513290D02*
X45690000Y-67153290D01*
X45690000Y-66793290D02*
X45690000Y-66433290D01*
X45690000Y-66073290D02*
X45690000Y-65713290D01*
X45690000Y-65353290D02*
X45690000Y-64993290D01*
X45690000Y-64633290D02*
X45690000Y-64273290D01*
X45690000Y-63913290D02*
X45690000Y-63553290D01*
X45690000Y-63193290D02*
X45690000Y-62833290D01*
X45690000Y-62473290D02*
X45690000Y-62113290D01*
X45690000Y-62073290D02*
X46050000Y-62073290D01*
X46410000Y-62073290D02*
X46770000Y-62073290D01*
X47130000Y-62073290D02*
X47490000Y-62073290D01*
X47775000Y-77943290D02*
X47775000Y-80383290D01*
X47850000Y-62073290D02*
X48210000Y-62073290D01*
X48570000Y-62073290D02*
X48930000Y-62073290D01*
X48745000Y-77943290D02*
X48745000Y-80383290D01*
X49290000Y-62073290D02*
X49650000Y-62073290D01*
X50010000Y-62073290D02*
X50370000Y-62073290D01*
X50315000Y-77943290D02*
X50315000Y-80383290D01*
X50730000Y-62073290D02*
X51090000Y-62073290D01*
X51285000Y-77943290D02*
X51285000Y-80383290D01*
X51450000Y-62073290D02*
X51810000Y-62073290D01*
X52170000Y-62073290D02*
X52530000Y-62073290D01*
X52855000Y-77943290D02*
X52855000Y-80383290D01*
X52890000Y-62073290D02*
X53250000Y-62073290D01*
X53610000Y-62073290D02*
X53970000Y-62073290D01*
X53825000Y-77943290D02*
X53825000Y-80383290D01*
X54330000Y-62073290D02*
X54690000Y-62073290D01*
X55050000Y-62073290D02*
X55410000Y-62073290D01*
X55770000Y-62073290D02*
X55910000Y-62073290D01*
X55910000Y-77943290D02*
X55910000Y-68473290D01*
X55910000Y-68233290D02*
X55910000Y-67873290D01*
X55910000Y-67513290D02*
X55910000Y-67153290D01*
X55910000Y-66793290D02*
X55910000Y-66433290D01*
X55910000Y-66073290D02*
X55910000Y-65713290D01*
X55910000Y-65353290D02*
X55910000Y-64993290D01*
X55910000Y-64633290D02*
X55910000Y-64273290D01*
X55910000Y-63913290D02*
X55910000Y-63553290D01*
X55910000Y-63193290D02*
X55910000Y-62833290D01*
X55910000Y-62473290D02*
X55910000Y-62113290D01*
%TO.C,C18*%
X145736854Y-63946267D02*
X145736854Y-63653733D01*
X144716854Y-63946267D02*
X144716854Y-63653733D01*
%TO.C,C17*%
X145736854Y-68646267D02*
X145736854Y-68353733D01*
X144716854Y-68646267D02*
X144716854Y-68353733D01*
%TO.C,C13*%
X149764051Y-62470488D02*
X149557198Y-62677341D01*
X149042802Y-61749239D02*
X148835949Y-61956092D01*
%TO.C,J1*%
X53100000Y-52813290D02*
X53100000Y-59913290D01*
X53600000Y-59913290D02*
X53100000Y-59913290D01*
X58900000Y-59913290D02*
X55200000Y-59913290D01*
X61700000Y-59913290D02*
X60500000Y-59913290D01*
X63800000Y-52813290D02*
X63800000Y-56613290D01*
X64100000Y-60213290D02*
X63100000Y-60213290D01*
X64100000Y-60213290D02*
X64100000Y-59213290D01*
%TO.C,P1*%
X101220000Y-50660000D02*
X101220000Y-50160000D01*
X101220000Y-50660000D02*
X102350000Y-50660000D01*
X102350000Y-52410000D02*
X102350000Y-50660000D01*
X102350000Y-54330000D02*
X102350000Y-54230000D01*
X102350000Y-54334000D02*
X103090000Y-54334000D01*
X111410000Y-54334000D02*
X112150000Y-54334000D01*
X112150000Y-50660000D02*
X113280000Y-50660000D01*
X112150000Y-52410000D02*
X112150000Y-50660000D01*
X112150000Y-54330000D02*
X112150000Y-54230000D01*
X113280000Y-50160000D02*
X113280000Y-50660000D01*
%TO.C,R8*%
X64827064Y-68923290D02*
X63372936Y-68923290D01*
X64827064Y-67103290D02*
X63372936Y-67103290D01*
%TO.C,R9*%
X63710000Y-72886226D02*
X63710000Y-74340354D01*
X61890000Y-72886226D02*
X61890000Y-74340354D01*
%TO.C,R11*%
X49277500Y-89068014D02*
X49277500Y-88558566D01*
X50322500Y-89068014D02*
X50322500Y-88558566D01*
%TO.C,R40*%
X198227064Y-82023290D02*
X196772936Y-82023290D01*
X198227064Y-80203290D02*
X196772936Y-80203290D01*
%TO.C,R7*%
X197095655Y-53978709D02*
X197455889Y-53618475D01*
X197834581Y-54717635D02*
X198194815Y-54357401D01*
%TO.C,R39*%
X171310654Y-58063710D02*
X170950420Y-58423944D01*
X172049580Y-58802636D02*
X171689346Y-59162870D01*
%TO.C,R10*%
X48445276Y-83790790D02*
X48954724Y-83790790D01*
X48445276Y-84835790D02*
X48954724Y-84835790D01*
%TO.C,R26*%
X145832776Y-51600790D02*
X146342224Y-51600790D01*
X145832776Y-52645790D02*
X146342224Y-52645790D01*
%TO.C,C6*%
X58088748Y-67003290D02*
X59511252Y-67003290D01*
X58088748Y-68823290D02*
X59511252Y-68823290D01*
%TO.C,R24*%
X174250420Y-61723944D02*
X174610654Y-61363710D01*
X174989346Y-62462870D02*
X175349580Y-62102636D01*
%TO.C,C12*%
X161459464Y-52659688D02*
X160453602Y-51653826D01*
X162746398Y-51372754D02*
X161740536Y-50366892D01*
%TO.C,R21*%
X182657776Y-52090790D02*
X183167224Y-52090790D01*
X182657776Y-53135790D02*
X183167224Y-53135790D01*
%TO.C,C14*%
X150059464Y-80759688D02*
X149053602Y-79753826D01*
X151346398Y-79472754D02*
X150340536Y-78466892D01*
%TO.C,R37*%
X170210654Y-56963710D02*
X169850420Y-57323944D01*
X170949580Y-57702636D02*
X170589346Y-58062870D01*
%TO.C,R30*%
X145745276Y-53090790D02*
X146254724Y-53090790D01*
X145745276Y-54135790D02*
X146254724Y-54135790D01*
%TO.C,Y1*%
X140515000Y-65513290D02*
X141885000Y-64843290D01*
X140515000Y-66713290D02*
X141885000Y-67383290D01*
X141885000Y-64843290D02*
X142695000Y-64843290D01*
X141885000Y-67383290D02*
X142695000Y-67383290D01*
X129495000Y-64353290D02*
X129495000Y-67873290D01*
X140515000Y-67873290D01*
X140515000Y-64353290D01*
X129495000Y-64353290D01*
%TO.C,R13*%
X132047617Y-59090791D02*
X131538169Y-59090791D01*
X132047617Y-60135791D02*
X131538169Y-60135791D01*
%TO.C,D4*%
X181932500Y-54878290D02*
X184392500Y-54878290D01*
X184392500Y-54878290D02*
X184392500Y-56348290D01*
X184392500Y-56348290D02*
X181932500Y-56348290D01*
%TO.C,R27*%
X144910654Y-77363710D02*
X144550420Y-77723944D01*
X145649580Y-78102636D02*
X145289346Y-78462870D01*
%TO.C,R38*%
X172410654Y-59163710D02*
X172050420Y-59523944D01*
X173149580Y-59902636D02*
X172789346Y-60262870D01*
%TO.C,U7*%
X121280000Y-89863291D02*
X141720000Y-89863290D01*
X121280000Y-91113290D02*
X121280000Y-89863291D01*
X121280000Y-94363290D02*
X121280000Y-93113291D01*
X141720000Y-89863290D02*
X141720000Y-94363291D01*
X141720000Y-94363291D02*
X121280000Y-94363290D01*
X121280000Y-91113290D02*
G75*
G02*
X121280000Y-93113292I-1J-1000001D01*
G01*
%TO.C,C20*%
X147790000Y-68402038D02*
X147790000Y-69824542D01*
X149610000Y-68402038D02*
X149610000Y-69824542D01*
%TO.C,R29*%
X145832776Y-56100790D02*
X146342224Y-56100790D01*
X145832776Y-57145790D02*
X146342224Y-57145790D01*
%TO.C,C19*%
X213690000Y-54502038D02*
X213690000Y-55924542D01*
X215510000Y-54502038D02*
X215510000Y-55924542D01*
%TO.C,R14*%
X146910654Y-82062870D02*
X146550420Y-81702636D01*
X147649580Y-81323944D02*
X147289346Y-80963710D01*
%TO.C,R35*%
X170450420Y-74002636D02*
X170810654Y-74362870D01*
X171189346Y-73263710D02*
X171549580Y-73623944D01*
%TO.C,L1*%
X64200000Y-74413290D02*
X64200000Y-85013290D01*
X64200000Y-85013290D02*
X67400000Y-85013290D01*
X67400000Y-74413290D02*
X64200000Y-74413290D01*
X71600000Y-85013290D02*
X74800000Y-85013290D01*
X74800000Y-74413290D02*
X71600000Y-74413290D01*
X74800000Y-85013290D02*
X74800000Y-74413290D01*
%TO.C,U8*%
X153090001Y-90173291D02*
X173530001Y-90173290D01*
X153090001Y-91423290D02*
X153090001Y-90173291D01*
X153090001Y-94673290D02*
X153090001Y-93423291D01*
X173530001Y-90173290D02*
X173530001Y-94673291D01*
X173530001Y-94673291D02*
X153090001Y-94673290D01*
X153090001Y-91423290D02*
G75*
G02*
X153090001Y-93423292I-1J-1000001D01*
G01*
%TO.C,D2*%
X175377500Y-48888290D02*
X177837500Y-48888290D01*
X177837500Y-48888290D02*
X177837500Y-50358290D01*
X177837500Y-50358290D02*
X175377500Y-50358290D01*
%TO.C,C8*%
X77590000Y-83102038D02*
X77590000Y-84524542D01*
X79410000Y-83102038D02*
X79410000Y-84524542D01*
%TO.C,C4*%
X82190000Y-57324542D02*
X82190000Y-55902038D01*
X84010000Y-57324542D02*
X84010000Y-55902038D01*
%TO.C,C7*%
X57290000Y-79502038D02*
X57290000Y-80924542D01*
X59110000Y-79502038D02*
X59110000Y-80924542D01*
%TO.C,R23*%
X143910654Y-76263710D02*
X143550420Y-76623944D01*
X144649580Y-77002636D02*
X144289346Y-77362870D01*
%TO.C,R12*%
X47677500Y-87368014D02*
X47677500Y-86858566D01*
X48722500Y-87368014D02*
X48722500Y-86858566D01*
%TO.C,D1*%
X54220000Y-89113290D02*
X55130000Y-89113290D01*
X56555000Y-91833290D02*
X56555000Y-86393290D01*
X56675000Y-91833290D02*
X56675000Y-86393290D01*
X56795000Y-91833290D02*
X56795000Y-86393290D01*
X65780000Y-89113290D02*
X64870000Y-89113290D01*
X55130000Y-86393290D02*
X64870000Y-86393290D01*
X64870000Y-91833290D01*
X55130000Y-91833290D01*
X55130000Y-86393290D01*
%TO.C,C21*%
X161488748Y-77503290D02*
X162911252Y-77503290D01*
X161488748Y-79323290D02*
X162911252Y-79323290D01*
%TO.C,C11*%
X159811977Y-54300069D02*
X158806115Y-53294207D01*
X161098911Y-53013135D02*
X160093049Y-52007273D01*
%TO.C,BT1*%
X226000000Y-55513290D02*
X227000000Y-55513290D01*
X226500000Y-55013290D02*
X226500000Y-56013290D01*
X229600000Y-54513291D02*
G75*
G02*
X223400000Y-54513291I-3100000J-11499999D01*
G01*
%TO.C,C27*%
X163590000Y-85324542D02*
X163590000Y-83902038D01*
X165410000Y-85324542D02*
X165410000Y-83902038D01*
%TO.C,BZ1*%
X212100000Y-60813290D02*
G75*
G02*
X195900000Y-60813290I-8100000J0D01*
G01*
X195900000Y-60813290D02*
G75*
G02*
X212100000Y-60813290I8100000J0D01*
G01*
%TO.C,JP1*%
X155638299Y-54950726D02*
X156062564Y-55374991D01*
X156628249Y-52970827D02*
X155638299Y-53960777D01*
X157052513Y-55374991D02*
X158042463Y-54385041D01*
X158042463Y-53395092D02*
X157618198Y-52970827D01*
X155638299Y-54950726D02*
G75*
G02*
X155638299Y-53960777I494975J494974D01*
G01*
X156628249Y-52970827D02*
G75*
G02*
X157618199Y-52970826I494975J-494971D01*
G01*
X157052513Y-55374991D02*
G75*
G02*
X156062564Y-55374992I-494975J494975D01*
G01*
X158042463Y-53395092D02*
G75*
G02*
X158042463Y-54385040I-494974J-494974D01*
G01*
%TO.C,C24*%
X106711252Y-72203290D02*
X105288748Y-72203290D01*
X106711252Y-74023290D02*
X105288748Y-74023290D01*
%TO.C,R36*%
X168250420Y-76202636D02*
X168610654Y-76562870D01*
X168989346Y-75463710D02*
X169349580Y-75823944D01*
%TO.C,U6*%
X92970000Y-90053291D02*
X113410000Y-90053290D01*
X92970000Y-91303290D02*
X92970000Y-90053291D01*
X92970000Y-94553290D02*
X92970000Y-93303291D01*
X113410000Y-90053290D02*
X113410000Y-94553291D01*
X113410000Y-94553291D02*
X92970000Y-94553290D01*
X92970000Y-91303290D02*
G75*
G02*
X92970000Y-93303292I-1J-1000001D01*
G01*
%TO.C,R34*%
X169350420Y-75102636D02*
X169710654Y-75462870D01*
X170089346Y-74363710D02*
X170449580Y-74723944D01*
%TO.C,D3*%
X178557500Y-51878290D02*
X181017500Y-51878290D01*
X181017500Y-51878290D02*
X181017500Y-53348290D01*
X181017500Y-53348290D02*
X178557500Y-53348290D01*
%TO.C,C10*%
X51780000Y-100213291D02*
X53579999Y-100213291D01*
X52679999Y-101113290D02*
X52680000Y-99313291D01*
X52940000Y-97613291D02*
X53879999Y-97613289D01*
X53879999Y-102733291D02*
X53880000Y-92493290D01*
X53879999Y-102733291D02*
X55680000Y-102733290D01*
X53880000Y-92493290D02*
X55680001Y-92493290D01*
X55680000Y-102733290D02*
X56580000Y-101833290D01*
X55680001Y-92493290D02*
X56580000Y-93393290D01*
X56580000Y-93393290D02*
X57480001Y-92493291D01*
X56580000Y-101833290D02*
X57480000Y-102733290D01*
X57480000Y-102733290D02*
X79120001Y-102733290D01*
X57480001Y-92493291D02*
X79120000Y-92493290D01*
X79120001Y-102733290D02*
X79120000Y-92493290D01*
X80060000Y-97613290D02*
X79120000Y-97613289D01*
%TO.C,R15*%
X131538171Y-57090789D02*
X132047619Y-57090789D01*
X131538171Y-58135789D02*
X132047619Y-58135789D01*
%TO.C,R22*%
X186032776Y-55090790D02*
X186542224Y-55090790D01*
X186032776Y-56135790D02*
X186542224Y-56135790D01*
%TO.C,R19*%
X179477776Y-49090790D02*
X179987224Y-49090790D01*
X179477776Y-50135790D02*
X179987224Y-50135790D01*
%TO.C,SW4*%
X134092893Y-58563290D02*
X134092893Y-58663290D01*
X134092894Y-57063290D02*
X138492892Y-57063290D01*
X138492892Y-60163290D02*
X134092894Y-60163290D01*
X138492893Y-58563290D02*
X138492893Y-58663290D01*
%TO.C,C5*%
X89590000Y-53924542D02*
X89590000Y-52502038D01*
X91410000Y-53924542D02*
X91410000Y-52502038D01*
%TO.C,R18*%
X148035951Y-64406717D02*
X148545399Y-64406717D01*
X148035951Y-65451717D02*
X148545399Y-65451717D01*
%TO.C,C22*%
X161359464Y-60759688D02*
X160353602Y-59753826D01*
X162646398Y-59472754D02*
X161640536Y-58466892D01*
%TO.C,C25*%
X103590000Y-84824542D02*
X103590000Y-83402038D01*
X105410000Y-84824542D02*
X105410000Y-83402038D01*
%TO.C,TP1*%
X113200000Y-73138290D02*
G75*
G02*
X109800000Y-73138290I-1700000J0D01*
G01*
X109800000Y-73138290D02*
G75*
G02*
X113200000Y-73138290I1700000J0D01*
G01*
%TO.C,U1*%
X84477500Y-55693290D02*
X84477500Y-58273290D01*
X85457500Y-58273290D02*
X84477500Y-58273290D01*
X88217500Y-58273290D02*
X89197500Y-58273290D01*
X89197500Y-58273290D02*
X89197500Y-55553290D01*
X84627500Y-55143290D02*
X84297500Y-54903290D01*
X84297500Y-55383290D01*
X84627500Y-55143290D01*
G36*
X84627500Y-55143290D02*
G01*
X84297500Y-55383290D01*
X84297500Y-54903290D01*
X84627500Y-55143290D01*
G37*
%TO.C,U9*%
X193280000Y-90363291D02*
X213720000Y-90363290D01*
X193280000Y-91613290D02*
X193280000Y-90363291D01*
X193280000Y-94863290D02*
X193280000Y-93613291D01*
X213720000Y-90363290D02*
X213720000Y-94863291D01*
X213720000Y-94863291D02*
X193280000Y-94863290D01*
X193280000Y-91613290D02*
G75*
G02*
X193280000Y-93613292I-1J-1000001D01*
G01*
%TO.C,U4*%
X151773369Y-69113290D02*
X152445120Y-69785041D01*
X152445120Y-68441539D02*
X151773369Y-69113290D01*
X158328249Y-75668170D02*
X159000000Y-76339921D01*
X159000000Y-61886659D02*
X158328249Y-62558410D01*
X159000000Y-76339921D02*
X159671751Y-75668170D01*
X159671751Y-62558410D02*
X159000000Y-61886659D01*
X165554880Y-69785041D02*
X166226631Y-69113290D01*
X166226631Y-69113290D02*
X165554880Y-68441539D01*
X151992572Y-67988990D02*
X151419815Y-68080914D01*
X151900648Y-68561747D01*
X151992572Y-67988990D01*
G36*
X151900648Y-68561747D02*
G01*
X151419815Y-68080914D01*
X151992572Y-67988990D01*
X151900648Y-68561747D01*
G37*
%TO.C,C9*%
X85290001Y-86202038D02*
X85290001Y-87624542D01*
X87110001Y-86202038D02*
X87110001Y-87624542D01*
%TO.C,C28*%
X204090000Y-85324542D02*
X204090000Y-83902038D01*
X205910000Y-85324542D02*
X205910000Y-83902038D01*
%TO.C,C6*%
X66090000Y-57724542D02*
X66090000Y-56302038D01*
X67910000Y-57724542D02*
X67910000Y-56302038D01*
%TO.C,FB1*%
X158980760Y-55904175D02*
X158738551Y-56146384D01*
X159702009Y-56625424D02*
X159459800Y-56867633D01*
%TO.C,R33*%
X171550420Y-72902636D02*
X171910654Y-73262870D01*
X172289346Y-72163710D02*
X172649580Y-72523944D01*
%TO.C,U2*%
X56240001Y-71853290D02*
X56240001Y-75973290D01*
X56240001Y-75973290D02*
X56335000Y-75973290D01*
X56335000Y-71853290D02*
X56240001Y-71853290D01*
X61265000Y-75973290D02*
X61359999Y-75973290D01*
X61359999Y-71853290D02*
X61265000Y-71853290D01*
X61359999Y-75973290D02*
X61359999Y-71853290D01*
X61270000Y-76513290D02*
X61600000Y-76753290D01*
X61600000Y-76273290D01*
X61270000Y-76513290D01*
G36*
X61600000Y-76753290D02*
G01*
X61270000Y-76513290D01*
X61600000Y-76273290D01*
X61600000Y-76753290D01*
G37*
%TO.C,C16*%
X155559464Y-58259688D02*
X154553602Y-57253826D01*
X156846398Y-56972754D02*
X155840536Y-55966892D01*
%TO.C,R20*%
X110282776Y-76215790D02*
X110792224Y-76215790D01*
X110282776Y-77260790D02*
X110792224Y-77260790D01*
%TO.C,R17*%
X150050420Y-83202636D02*
X150410654Y-83562870D01*
X150789346Y-82463710D02*
X151149580Y-82823944D01*
%TO.C,R28*%
X173150420Y-60623944D02*
X173510654Y-60263710D01*
X173889346Y-61362870D02*
X174249580Y-61002636D01*
%TO.C,C26*%
X131890000Y-85024542D02*
X131890000Y-83602038D01*
X133710000Y-85024542D02*
X133710000Y-83602038D01*
%TO.C,C15*%
X153897763Y-59921389D02*
X152891901Y-58915527D01*
X155184697Y-58634455D02*
X154178835Y-57628593D01*
%TO.C,C23*%
X167693286Y-67273090D02*
X167693286Y-68695594D01*
X169513286Y-67273090D02*
X169513286Y-68695594D01*
%TO.C,R25*%
X145832776Y-54590790D02*
X146342224Y-54590790D01*
X145832776Y-55635790D02*
X146342224Y-55635790D01*
%TO.C,U5*%
X100935000Y-64528290D02*
X100935000Y-68648290D01*
X100935000Y-68648290D02*
X100990000Y-68648290D01*
X100990000Y-64528290D02*
X100935000Y-64528290D01*
X111000000Y-68648290D02*
X111055000Y-68648290D01*
X111055000Y-64528290D02*
X111000000Y-64528290D01*
X111055000Y-68648290D02*
X111055000Y-64528290D01*
X100985000Y-63988290D02*
X100655000Y-63748290D01*
X100655000Y-64228290D01*
X100985000Y-63988290D01*
G36*
X100985000Y-63988290D02*
G01*
X100655000Y-64228290D01*
X100655000Y-63748290D01*
X100985000Y-63988290D01*
G37*
%TO.C,R16*%
X148950420Y-84202636D02*
X149310654Y-84562870D01*
X149689346Y-83463710D02*
X150049580Y-83823944D01*
%TD*%
%LPC*%
D12*
%TO.C,JP1*%
G36*
X157476777Y-54597173D02*
G01*
X157264645Y-54809305D01*
X156203985Y-53748645D01*
X156416117Y-53536513D01*
X157476777Y-54597173D01*
G37*
%TD*%
D13*
%TO.C,U3*%
X83600000Y-65683290D03*
D14*
X81060000Y-82343290D03*
D15*
X83600000Y-82343290D03*
X86140000Y-82343290D03*
%TD*%
D13*
%TO.C,Q1*%
X50800000Y-64983290D03*
D14*
X48260000Y-81643290D03*
D15*
X50800000Y-81643290D03*
X53340000Y-81643290D03*
%TD*%
D16*
%TO.C,C18*%
X145226854Y-64662500D03*
X145226854Y-62937500D03*
%TD*%
%TO.C,C17*%
X145226854Y-69362500D03*
X145226854Y-67637500D03*
%TD*%
D17*
%TO.C,C13*%
X148690120Y-62823170D03*
X149909880Y-61603410D03*
%TD*%
D18*
%TO.C,J1*%
X59700000Y-52113290D03*
D19*
X62900000Y-58413290D03*
D20*
X54400000Y-58413290D03*
X59700000Y-58413290D03*
D21*
X53500000Y-51113290D03*
X63300000Y-51113290D03*
%TD*%
D22*
%TO.C,P1*%
X103750000Y-52850000D03*
X110750000Y-52850000D03*
D23*
X103750000Y-54100000D03*
X104750000Y-54100000D03*
D24*
X106000000Y-54100000D03*
X107000000Y-54100000D03*
X107500000Y-54100000D03*
X108500000Y-54100000D03*
D23*
X109750000Y-54100000D03*
X110750000Y-54100000D03*
X110750000Y-54100000D03*
X109750000Y-54100000D03*
D24*
X109000000Y-54100000D03*
X108000000Y-54100000D03*
X106500000Y-54100000D03*
X105500000Y-54100000D03*
D23*
X104750000Y-54100000D03*
X103750000Y-54100000D03*
D25*
X101330000Y-49000000D03*
D26*
X102600000Y-53320000D03*
X111900000Y-53320000D03*
D25*
X113170000Y-49000000D03*
%TD*%
D27*
%TO.C,R8*%
X62549999Y-68013290D03*
X65650001Y-68013290D03*
%TD*%
D28*
%TO.C,R9*%
X62800000Y-75163291D03*
X62800000Y-72063289D03*
%TD*%
D29*
%TO.C,R11*%
X49800000Y-89725790D03*
X49800000Y-87900790D03*
%TD*%
D27*
%TO.C,R40*%
X195950000Y-81113290D03*
X199050000Y-81113290D03*
%TD*%
D30*
%TO.C,J4*%
X190690000Y-50113290D03*
D31*
X193230000Y-50113290D03*
X195770000Y-50113290D03*
X198310000Y-50113290D03*
%TD*%
D32*
%TO.C,R7*%
X197000000Y-54813290D03*
X198290470Y-53522820D03*
%TD*%
D33*
%TO.C,R39*%
X172145235Y-57968055D03*
X170854765Y-59258525D03*
%TD*%
D34*
%TO.C,R10*%
X47787500Y-84313290D03*
X49612500Y-84313290D03*
%TD*%
%TO.C,R26*%
X145175000Y-52123290D03*
X147000000Y-52123290D03*
%TD*%
D35*
%TO.C,IN2*%
X120791425Y-135211058D03*
D36*
X128570082Y-133045486D03*
X133959663Y-127024614D03*
X135233776Y-119040371D03*
X131992738Y-111638581D03*
X125266198Y-107161474D03*
X117182006Y-107029782D03*
X110316714Y-111291969D03*
X106833292Y-118576403D03*
X107842663Y-126590284D03*
X113074569Y-132825426D03*
%TD*%
D37*
%TO.C,C6*%
X57237500Y-67913290D03*
X60362500Y-67913290D03*
%TD*%
D32*
%TO.C,R24*%
X174154765Y-62558525D03*
X175445235Y-61268055D03*
%TD*%
D38*
%TO.C,C12*%
X162704854Y-52618144D03*
X160495146Y-50408436D03*
%TD*%
D34*
%TO.C,R21*%
X182000000Y-52613290D03*
X183825000Y-52613290D03*
%TD*%
D38*
%TO.C,C14*%
X151304854Y-80718144D03*
X149095146Y-78508436D03*
%TD*%
D33*
%TO.C,R37*%
X171045235Y-56868055D03*
X169754765Y-58158525D03*
%TD*%
D34*
%TO.C,R30*%
X145087500Y-53613290D03*
X146912500Y-53613290D03*
%TD*%
D39*
%TO.C,Y1*%
X143255000Y-67383290D03*
X143255000Y-64843290D03*
%TD*%
D40*
%TO.C,R13*%
X132705393Y-59613291D03*
X130880393Y-59613291D03*
%TD*%
D41*
%TO.C,D4*%
X183607500Y-55613290D03*
X181857500Y-55613290D03*
%TD*%
D33*
%TO.C,R27*%
X145745235Y-77268055D03*
X144454765Y-78558525D03*
%TD*%
%TO.C,R38*%
X173245235Y-59068055D03*
X171954765Y-60358525D03*
%TD*%
D42*
%TO.C,U7*%
X122610000Y-88303290D03*
D43*
X125150000Y-88303290D03*
X127689999Y-88303290D03*
X130230000Y-88303290D03*
X132770000Y-88303290D03*
X135310000Y-88303290D03*
X137850000Y-88303290D03*
X140390001Y-88303290D03*
X140390000Y-95923290D03*
X137850000Y-95923290D03*
X135310000Y-95923290D03*
X132770000Y-95923290D03*
X130230000Y-95923290D03*
X127690000Y-95923290D03*
X125150000Y-95923290D03*
X122610000Y-95923290D03*
%TD*%
D44*
%TO.C,C20*%
X148700000Y-67550790D03*
X148700000Y-70675790D03*
%TD*%
D34*
%TO.C,R29*%
X145175000Y-56623290D03*
X147000000Y-56623290D03*
%TD*%
D44*
%TO.C,C19*%
X214600000Y-53650790D03*
X214600000Y-56775790D03*
%TD*%
D45*
%TO.C,R14*%
X147745235Y-82158525D03*
X146454765Y-80868055D03*
%TD*%
D46*
%TO.C,R35*%
X170354765Y-73168055D03*
X171645235Y-74458525D03*
%TD*%
D47*
%TO.C,L1*%
X69500000Y-75563290D03*
X69500000Y-83863290D03*
%TD*%
D42*
%TO.C,U8*%
X154420001Y-88613290D03*
D43*
X156960001Y-88613290D03*
X159500000Y-88613290D03*
X162040001Y-88613290D03*
X164580001Y-88613290D03*
X167120001Y-88613290D03*
X169660001Y-88613290D03*
X172200002Y-88613290D03*
X172200001Y-96233290D03*
X169660001Y-96233290D03*
X167120001Y-96233290D03*
X164580001Y-96233290D03*
X162040001Y-96233290D03*
X159500001Y-96233290D03*
X156960001Y-96233290D03*
X154420001Y-96233290D03*
%TD*%
D48*
%TO.C,J2*%
X145498439Y-83711729D03*
D31*
X147294490Y-85507780D03*
%TD*%
D41*
%TO.C,D2*%
X177052500Y-49623290D03*
X175302500Y-49623290D03*
%TD*%
D44*
%TO.C,C8*%
X78500000Y-82250790D03*
X78500000Y-85375790D03*
%TD*%
D49*
%TO.C,C4*%
X83100000Y-58175790D03*
X83100000Y-55050790D03*
%TD*%
D44*
%TO.C,C7*%
X58200000Y-78650790D03*
X58200000Y-81775790D03*
%TD*%
D33*
%TO.C,R23*%
X144745235Y-76168055D03*
X143454765Y-77458525D03*
%TD*%
D29*
%TO.C,R12*%
X48200000Y-88025790D03*
X48200000Y-86200790D03*
%TD*%
D50*
%TO.C,D1*%
X52380000Y-89113290D03*
D51*
X67620000Y-89113290D03*
%TD*%
D37*
%TO.C,C21*%
X160637500Y-78413290D03*
X163762500Y-78413290D03*
%TD*%
D38*
%TO.C,C11*%
X161057367Y-54258525D03*
X158847659Y-52048817D03*
%TD*%
D52*
%TO.C,BT1*%
X226500000Y-53613290D03*
D53*
X226500000Y-74413290D03*
%TD*%
D49*
%TO.C,C27*%
X164500000Y-86175790D03*
X164500000Y-83050790D03*
%TD*%
D52*
%TO.C,BZ1*%
X204000000Y-64613290D03*
D53*
X204000000Y-57013289D03*
%TD*%
D54*
%TO.C,JP1*%
X157300000Y-53713290D03*
D55*
X156380762Y-54632528D03*
%TD*%
D56*
%TO.C,C24*%
X107562500Y-73113290D03*
X104437500Y-73113290D03*
%TD*%
D46*
%TO.C,R36*%
X168154765Y-75368055D03*
X169445235Y-76658525D03*
%TD*%
D42*
%TO.C,U6*%
X94300000Y-88493290D03*
D43*
X96840000Y-88493290D03*
X99379999Y-88493290D03*
X101920000Y-88493290D03*
X104460000Y-88493290D03*
X107000000Y-88493290D03*
X109540000Y-88493290D03*
X112080001Y-88493290D03*
X112080000Y-96113290D03*
X109540000Y-96113290D03*
X107000000Y-96113290D03*
X104460000Y-96113290D03*
X101920000Y-96113290D03*
X99380000Y-96113290D03*
X96840000Y-96113290D03*
X94300000Y-96113290D03*
%TD*%
D46*
%TO.C,R34*%
X169254765Y-74268055D03*
X170545235Y-75558525D03*
%TD*%
D41*
%TO.C,D3*%
X180232500Y-52613290D03*
X178482500Y-52613290D03*
%TD*%
D57*
%TO.C,C10*%
X51500000Y-97613290D03*
D58*
X81499999Y-97613290D03*
%TD*%
D35*
%TO.C,IN4*%
X205291424Y-134211058D03*
D36*
X213070081Y-132045486D03*
X218459662Y-126024614D03*
X219733776Y-118040372D03*
X216492736Y-110638580D03*
X209766196Y-106161474D03*
X201682005Y-106029782D03*
X194816714Y-110291968D03*
X191333291Y-117576403D03*
X192342662Y-125590283D03*
X197574568Y-131825426D03*
%TD*%
D34*
%TO.C,R15*%
X130880395Y-57613289D03*
X132705395Y-57613289D03*
%TD*%
%TO.C,R22*%
X185375000Y-55613290D03*
X187200000Y-55613290D03*
%TD*%
%TO.C,R19*%
X178820000Y-49613290D03*
X180645000Y-49613290D03*
%TD*%
D59*
%TO.C,SW4*%
X134242894Y-59413290D03*
X138342892Y-59413290D03*
X134242894Y-57813290D03*
X138342892Y-57813290D03*
%TD*%
D49*
%TO.C,C5*%
X90500000Y-54775790D03*
X90500000Y-51650790D03*
%TD*%
D35*
%TO.C,IN1*%
X78291425Y-135211058D03*
D36*
X86070082Y-133045486D03*
X91459663Y-127024614D03*
X92733776Y-119040371D03*
X89492738Y-111638581D03*
X82766198Y-107161474D03*
X74682006Y-107029782D03*
X67816714Y-111291969D03*
X64333292Y-118576403D03*
X65342663Y-126590284D03*
X70574569Y-132825426D03*
%TD*%
D34*
%TO.C,R18*%
X147378175Y-64929217D03*
X149203175Y-64929217D03*
%TD*%
D38*
%TO.C,C22*%
X162604854Y-60718144D03*
X160395146Y-58508436D03*
%TD*%
D49*
%TO.C,C25*%
X104500000Y-85675790D03*
X104500000Y-82550790D03*
%TD*%
D60*
%TO.C,TP1*%
X111500000Y-73138290D03*
%TD*%
D61*
%TO.C,U1*%
X85337500Y-54963290D03*
D62*
X86837500Y-55050790D03*
D61*
X88337500Y-54963290D03*
%TD*%
D42*
%TO.C,U9*%
X194610000Y-88803290D03*
D43*
X197150000Y-88803290D03*
X199689999Y-88803290D03*
X202230000Y-88803290D03*
X204770000Y-88803290D03*
X207310000Y-88803290D03*
X209850000Y-88803290D03*
X212390001Y-88803290D03*
X212390000Y-96423290D03*
X209850000Y-96423290D03*
X207310000Y-96423290D03*
X204770000Y-96423290D03*
X202230000Y-96423290D03*
X199690000Y-96423290D03*
X197150000Y-96423290D03*
X194610000Y-96423290D03*
%TD*%
D63*
%TO.C,U4*%
X152335519Y-67752109D03*
X152689072Y-67398556D03*
X153042625Y-67045003D03*
X153396179Y-66691449D03*
X153749732Y-66337896D03*
X154103286Y-65984342D03*
X154456839Y-65630789D03*
X154810392Y-65277236D03*
X155163946Y-64923682D03*
X155517499Y-64570129D03*
X155871052Y-64216576D03*
X156224606Y-63863022D03*
X156578159Y-63509469D03*
X156931713Y-63155915D03*
X157285266Y-62802362D03*
X157638819Y-62448809D03*
D64*
X160361181Y-62448809D03*
X160714734Y-62802362D03*
X161068287Y-63155915D03*
X161421841Y-63509469D03*
X161775394Y-63863022D03*
X162128948Y-64216576D03*
X162482501Y-64570129D03*
X162836054Y-64923682D03*
X163189608Y-65277236D03*
X163543161Y-65630789D03*
X163896714Y-65984342D03*
X164250268Y-66337896D03*
X164603821Y-66691449D03*
X164957375Y-67045003D03*
X165310928Y-67398556D03*
X165664481Y-67752109D03*
D63*
X165664481Y-70474471D03*
X165310928Y-70828024D03*
X164957375Y-71181577D03*
X164603821Y-71535131D03*
X164250268Y-71888684D03*
X163896714Y-72242238D03*
X163543161Y-72595791D03*
X163189608Y-72949344D03*
X162836054Y-73302898D03*
X162482501Y-73656451D03*
X162128948Y-74010004D03*
X161775394Y-74363558D03*
X161421841Y-74717111D03*
X161068287Y-75070665D03*
X160714734Y-75424218D03*
X160361181Y-75777771D03*
D64*
X157638819Y-75777771D03*
X157285266Y-75424218D03*
X156931713Y-75070665D03*
X156578159Y-74717111D03*
X156224606Y-74363558D03*
X155871052Y-74010004D03*
X155517499Y-73656451D03*
X155163946Y-73302898D03*
X154810392Y-72949344D03*
X154456839Y-72595791D03*
X154103286Y-72242238D03*
X153749732Y-71888684D03*
X153396179Y-71535131D03*
X153042625Y-71181577D03*
X152689072Y-70828024D03*
X152335519Y-70474471D03*
%TD*%
D44*
%TO.C,C9*%
X86200001Y-85350790D03*
X86200001Y-88475790D03*
%TD*%
D49*
%TO.C,C28*%
X205000000Y-86175790D03*
X205000000Y-83050790D03*
%TD*%
%TO.C,C6*%
X67000000Y-58575790D03*
X67000000Y-55450790D03*
%TD*%
D65*
%TO.C,FB1*%
X159838998Y-55767186D03*
X158601562Y-57004622D03*
%TD*%
D46*
%TO.C,R33*%
X171454765Y-72068055D03*
X172745235Y-73358525D03*
%TD*%
D66*
%TO.C,U2*%
X60705000Y-76388290D03*
X59435000Y-76388290D03*
X58165000Y-76388290D03*
X56895000Y-76388290D03*
X56895000Y-71438290D03*
X58165000Y-71438290D03*
X59435000Y-71438290D03*
X60705000Y-71438290D03*
%TD*%
D38*
%TO.C,C16*%
X156804854Y-58218144D03*
X154595146Y-56008436D03*
%TD*%
D34*
%TO.C,R20*%
X109625000Y-76738290D03*
X111450000Y-76738290D03*
%TD*%
D46*
%TO.C,R17*%
X149954765Y-82368055D03*
X151245235Y-83658525D03*
%TD*%
D32*
%TO.C,R28*%
X173054765Y-61458525D03*
X174345235Y-60168055D03*
%TD*%
D49*
%TO.C,C26*%
X132800000Y-85875790D03*
X132800000Y-82750790D03*
%TD*%
D38*
%TO.C,C15*%
X155143153Y-59879845D03*
X152933445Y-57670137D03*
%TD*%
D44*
%TO.C,C23*%
X168603286Y-66421842D03*
X168603286Y-69546842D03*
%TD*%
D35*
%TO.C,IN3*%
X162791424Y-135211058D03*
D36*
X170570081Y-133045486D03*
X175959662Y-127024614D03*
X177233776Y-119040372D03*
X173992736Y-111638580D03*
X167266196Y-107161474D03*
X159182005Y-107029782D03*
X152316714Y-111291968D03*
X148833291Y-118576403D03*
X149842662Y-126590283D03*
X155074568Y-132825426D03*
%TD*%
D34*
%TO.C,R25*%
X145175000Y-55113290D03*
X147000000Y-55113290D03*
%TD*%
D30*
%TO.C,J3*%
X167100000Y-50513290D03*
D31*
X167100000Y-53053290D03*
%TD*%
D67*
%TO.C,U5*%
X101550000Y-64113290D03*
X102820000Y-64113290D03*
X104090000Y-64113290D03*
X105360000Y-64113290D03*
X106630000Y-64113290D03*
X107900000Y-64113290D03*
X109170000Y-64113290D03*
X110440000Y-64113290D03*
X110440000Y-69063290D03*
X109170000Y-69063290D03*
X107900000Y-69063290D03*
X106630000Y-69063290D03*
X105360000Y-69063290D03*
X104090000Y-69063290D03*
X102820000Y-69063290D03*
X101550000Y-69063290D03*
%TD*%
D46*
%TO.C,R16*%
X148854765Y-83368055D03*
X150145235Y-84658525D03*
%TD*%
%LPD*%
M02*
