%TF.GenerationSoftware,KiCad,Pcbnew,10.0.4*%
%TF.CreationDate,2026-08-05T15:57:54+02:00*%
%TF.ProjectId,zegarek,7a656761-7265-46b2-9e6b-696361645f70,rev?*%
%TF.SameCoordinates,Original*%
%TF.FileFunction,Copper,L1,Top*%
%TF.FilePolarity,Positive*%
%FSLAX46Y46*%
G04 Gerber Fmt 4.6, Leading zero omitted, Abs format (unit mm)*
G04 Created by KiCad (PCBNEW 10.0.4) date 2026-08-05 15:57:54*
%MOMM*%
%LPD*%
G01*
G04 APERTURE LIST*
G04 Aperture macros list*
%AMRoundRect*
0 Rectangle with rounded corners*
0 $1 Rounding radius*
0 $2 $3 $4 $5 $6 $7 $8 $9 X,Y pos of 4 corners*
0 Add a 4 corners polygon primitive as box body*
4,1,4,$2,$3,$4,$5,$6,$7,$8,$9,$2,$3,0*
0 Add four circle primitives for the rounded corners*
1,1,$1+$1,$2,$3*
1,1,$1+$1,$4,$5*
1,1,$1+$1,$6,$7*
1,1,$1+$1,$8,$9*
0 Add four rect primitives between the rounded corners*
20,1,$1+$1,$2,$3,$4,$5,0*
20,1,$1+$1,$4,$5,$6,$7,0*
20,1,$1+$1,$6,$7,$8,$9,0*
20,1,$1+$1,$8,$9,$2,$3,0*%
%AMRotRect*
0 Rectangle, with rotation*
0 The origin of the aperture is its center*
0 $1 length*
0 $2 width*
0 $3 Rotation angle, in degrees counterclockwise*
0 Add horizontal line*
21,1,$1,$2,0,0,$3*%
G04 Aperture macros list end*
%ADD10C,0.300000*%
%TA.AperFunction,NonConductor*%
%ADD11C,0.300000*%
%TD*%
%TA.AperFunction,ComponentPad*%
%ADD12R,1.905000X2.000000*%
%TD*%
%TA.AperFunction,ComponentPad*%
%ADD13O,1.905000X2.000000*%
%TD*%
%TA.AperFunction,SMDPad,CuDef*%
%ADD14RoundRect,0.237500X-0.250000X-0.237500X0.250000X-0.237500X0.250000X0.237500X-0.250000X0.237500X0*%
%TD*%
%TA.AperFunction,ComponentPad*%
%ADD15R,1.800000X3.000000*%
%TD*%
%TA.AperFunction,ComponentPad*%
%ADD16O,1.800000X3.000000*%
%TD*%
%TA.AperFunction,ComponentPad*%
%ADD17O,1.600000X3.000000*%
%TD*%
%TA.AperFunction,ComponentPad*%
%ADD18O,0.900000X1.800000*%
%TD*%
%TA.AperFunction,ComponentPad*%
%ADD19O,0.900000X1.500000*%
%TD*%
%TA.AperFunction,ComponentPad*%
%ADD20R,1.700000X1.700000*%
%TD*%
%TA.AperFunction,ComponentPad*%
%ADD21C,1.700000*%
%TD*%
%TA.AperFunction,SMDPad,CuDef*%
%ADD22R,0.900000X1.000000*%
%TD*%
%TA.AperFunction,ComponentPad*%
%ADD23RoundRect,1.125000X-1.101193X1.148313X-1.148313X-1.101193X1.101193X-1.148313X1.148313X1.101193X0*%
%TD*%
%TA.AperFunction,ComponentPad*%
%ADD24C,4.500000*%
%TD*%
%TA.AperFunction,SMDPad,CuDef*%
%ADD25RoundRect,0.237500X0.250000X0.237500X-0.250000X0.237500X-0.250000X-0.237500X0.250000X-0.237500X0*%
%TD*%
%TA.AperFunction,ComponentPad*%
%ADD26C,1.000000*%
%TD*%
%TA.AperFunction,ComponentPad*%
%ADD27RoundRect,0.250000X-0.550000X0.950000X-0.550000X-0.950000X0.550000X-0.950000X0.550000X0.950000X0*%
%TD*%
%TA.AperFunction,ComponentPad*%
%ADD28O,1.600000X2.400000*%
%TD*%
%TA.AperFunction,ComponentPad*%
%ADD29RotRect,1.700000X1.700000X45.000000*%
%TD*%
%TA.AperFunction,SMDPad,CuDef*%
%ADD30RoundRect,0.237500X-0.237500X0.250000X-0.237500X-0.250000X0.237500X-0.250000X0.237500X0.250000X0*%
%TD*%
%TA.AperFunction,ComponentPad*%
%ADD31RoundRect,0.250000X-1.350000X-1.350000X1.350000X-1.350000X1.350000X1.350000X-1.350000X1.350000X0*%
%TD*%
%TA.AperFunction,ComponentPad*%
%ADD32C,3.200000*%
%TD*%
%TA.AperFunction,ComponentPad*%
%ADD33R,2.000000X2.000000*%
%TD*%
%TA.AperFunction,ComponentPad*%
%ADD34C,2.000000*%
%TD*%
%TA.AperFunction,ComponentPad*%
%ADD35RoundRect,0.250001X-0.949999X-0.949999X0.949999X-0.949999X0.949999X0.949999X-0.949999X0.949999X0*%
%TD*%
%TA.AperFunction,ComponentPad*%
%ADD36C,2.400000*%
%TD*%
%TA.AperFunction,ComponentPad*%
%ADD37C,1.800000*%
%TD*%
%TA.AperFunction,SMDPad,CuDef*%
%ADD38RoundRect,0.250000X-0.412500X-0.650000X0.412500X-0.650000X0.412500X0.650000X-0.412500X0.650000X0*%
%TD*%
%TA.AperFunction,SMDPad,CuDef*%
%ADD39RoundRect,0.237500X0.237500X-0.250000X0.237500X0.250000X-0.237500X0.250000X-0.237500X-0.250000X0*%
%TD*%
%TA.AperFunction,ViaPad*%
%ADD40C,0.600000*%
%TD*%
%TA.AperFunction,ViaPad*%
%ADD41C,1.000000*%
%TD*%
%TA.AperFunction,ViaPad*%
%ADD42C,3.500000*%
%TD*%
%TA.AperFunction,ViaPad*%
%ADD43C,0.500000*%
%TD*%
%TA.AperFunction,Conductor*%
%ADD44C,1.000000*%
%TD*%
%TA.AperFunction,Conductor*%
%ADD45C,0.200000*%
%TD*%
%TA.AperFunction,Conductor*%
%ADD46C,0.300000*%
%TD*%
%TA.AperFunction,Conductor*%
%ADD47C,0.800000*%
%TD*%
G04 APERTURE END LIST*
D10*
D11*
X241050828Y-62613346D02*
X241050828Y-61827632D01*
X241050828Y-61827632D02*
X242050828Y-62613346D01*
X242050828Y-62613346D02*
X242050828Y-61827632D01*
X241979400Y-60684774D02*
X242050828Y-60827631D01*
X242050828Y-60827631D02*
X242050828Y-61113346D01*
X242050828Y-61113346D02*
X241979400Y-61256203D01*
X241979400Y-61256203D02*
X241836542Y-61327631D01*
X241836542Y-61327631D02*
X241265114Y-61327631D01*
X241265114Y-61327631D02*
X241122257Y-61256203D01*
X241122257Y-61256203D02*
X241050828Y-61113346D01*
X241050828Y-61113346D02*
X241050828Y-60827631D01*
X241050828Y-60827631D02*
X241122257Y-60684774D01*
X241122257Y-60684774D02*
X241265114Y-60613346D01*
X241265114Y-60613346D02*
X241407971Y-60613346D01*
X241407971Y-60613346D02*
X241550828Y-61327631D01*
X241050828Y-59327632D02*
X242265114Y-59327632D01*
X242265114Y-59327632D02*
X242407971Y-59399060D01*
X242407971Y-59399060D02*
X242479400Y-59470489D01*
X242479400Y-59470489D02*
X242550828Y-59613346D01*
X242550828Y-59613346D02*
X242550828Y-59827632D01*
X242550828Y-59827632D02*
X242479400Y-59970489D01*
X241979400Y-59327632D02*
X242050828Y-59470489D01*
X242050828Y-59470489D02*
X242050828Y-59756203D01*
X242050828Y-59756203D02*
X241979400Y-59899060D01*
X241979400Y-59899060D02*
X241907971Y-59970489D01*
X241907971Y-59970489D02*
X241765114Y-60041917D01*
X241765114Y-60041917D02*
X241336542Y-60041917D01*
X241336542Y-60041917D02*
X241193685Y-59970489D01*
X241193685Y-59970489D02*
X241122257Y-59899060D01*
X241122257Y-59899060D02*
X241050828Y-59756203D01*
X241050828Y-59756203D02*
X241050828Y-59470489D01*
X241050828Y-59470489D02*
X241122257Y-59327632D01*
X242050828Y-57970489D02*
X241265114Y-57970489D01*
X241265114Y-57970489D02*
X241122257Y-58041917D01*
X241122257Y-58041917D02*
X241050828Y-58184774D01*
X241050828Y-58184774D02*
X241050828Y-58470489D01*
X241050828Y-58470489D02*
X241122257Y-58613346D01*
X241979400Y-57970489D02*
X242050828Y-58113346D01*
X242050828Y-58113346D02*
X242050828Y-58470489D01*
X242050828Y-58470489D02*
X241979400Y-58613346D01*
X241979400Y-58613346D02*
X241836542Y-58684774D01*
X241836542Y-58684774D02*
X241693685Y-58684774D01*
X241693685Y-58684774D02*
X241550828Y-58613346D01*
X241550828Y-58613346D02*
X241479400Y-58470489D01*
X241479400Y-58470489D02*
X241479400Y-58113346D01*
X241479400Y-58113346D02*
X241407971Y-57970489D01*
X242050828Y-57256203D02*
X241050828Y-57256203D01*
X241336542Y-57256203D02*
X241193685Y-57184774D01*
X241193685Y-57184774D02*
X241122257Y-57113346D01*
X241122257Y-57113346D02*
X241050828Y-56970488D01*
X241050828Y-56970488D02*
X241050828Y-56827631D01*
X241979400Y-55756203D02*
X242050828Y-55899060D01*
X242050828Y-55899060D02*
X242050828Y-56184775D01*
X242050828Y-56184775D02*
X241979400Y-56327632D01*
X241979400Y-56327632D02*
X241836542Y-56399060D01*
X241836542Y-56399060D02*
X241265114Y-56399060D01*
X241265114Y-56399060D02*
X241122257Y-56327632D01*
X241122257Y-56327632D02*
X241050828Y-56184775D01*
X241050828Y-56184775D02*
X241050828Y-55899060D01*
X241050828Y-55899060D02*
X241122257Y-55756203D01*
X241122257Y-55756203D02*
X241265114Y-55684775D01*
X241265114Y-55684775D02*
X241407971Y-55684775D01*
X241407971Y-55684775D02*
X241550828Y-56399060D01*
X242050828Y-55041918D02*
X240550828Y-55041918D01*
X241479400Y-54899061D02*
X242050828Y-54470489D01*
X241050828Y-54470489D02*
X241622257Y-55041918D01*
X241050828Y-52827632D02*
X242050828Y-52470489D01*
X242050828Y-52470489D02*
X241050828Y-52113346D01*
X240550828Y-51256203D02*
X240550828Y-51113346D01*
X240550828Y-51113346D02*
X240622257Y-50970489D01*
X240622257Y-50970489D02*
X240693685Y-50899061D01*
X240693685Y-50899061D02*
X240836542Y-50827632D01*
X240836542Y-50827632D02*
X241122257Y-50756203D01*
X241122257Y-50756203D02*
X241479400Y-50756203D01*
X241479400Y-50756203D02*
X241765114Y-50827632D01*
X241765114Y-50827632D02*
X241907971Y-50899061D01*
X241907971Y-50899061D02*
X241979400Y-50970489D01*
X241979400Y-50970489D02*
X242050828Y-51113346D01*
X242050828Y-51113346D02*
X242050828Y-51256203D01*
X242050828Y-51256203D02*
X241979400Y-51399061D01*
X241979400Y-51399061D02*
X241907971Y-51470489D01*
X241907971Y-51470489D02*
X241765114Y-51541918D01*
X241765114Y-51541918D02*
X241479400Y-51613346D01*
X241479400Y-51613346D02*
X241122257Y-51613346D01*
X241122257Y-51613346D02*
X240836542Y-51541918D01*
X240836542Y-51541918D02*
X240693685Y-51470489D01*
X240693685Y-51470489D02*
X240622257Y-51399061D01*
X240622257Y-51399061D02*
X240550828Y-51256203D01*
D10*
D11*
X245485912Y-58458779D02*
X243985912Y-58458779D01*
X244914484Y-58315922D02*
X245485912Y-57887350D01*
X244485912Y-57887350D02*
X245057341Y-58458779D01*
X244485912Y-57387350D02*
X245485912Y-57101636D01*
X245485912Y-57101636D02*
X244771626Y-56815921D01*
X244771626Y-56815921D02*
X245485912Y-56530207D01*
X245485912Y-56530207D02*
X244485912Y-56244493D01*
X245485912Y-55458778D02*
X245414484Y-55601635D01*
X245414484Y-55601635D02*
X245343055Y-55673064D01*
X245343055Y-55673064D02*
X245200198Y-55744492D01*
X245200198Y-55744492D02*
X244771626Y-55744492D01*
X244771626Y-55744492D02*
X244628769Y-55673064D01*
X244628769Y-55673064D02*
X244557341Y-55601635D01*
X244557341Y-55601635D02*
X244485912Y-55458778D01*
X244485912Y-55458778D02*
X244485912Y-55244492D01*
X244485912Y-55244492D02*
X244557341Y-55101635D01*
X244557341Y-55101635D02*
X244628769Y-55030207D01*
X244628769Y-55030207D02*
X244771626Y-54958778D01*
X244771626Y-54958778D02*
X245200198Y-54958778D01*
X245200198Y-54958778D02*
X245343055Y-55030207D01*
X245343055Y-55030207D02*
X245414484Y-55101635D01*
X245414484Y-55101635D02*
X245485912Y-55244492D01*
X245485912Y-55244492D02*
X245485912Y-55458778D01*
X244485912Y-54315921D02*
X245771626Y-54315921D01*
X245771626Y-54315921D02*
X245914484Y-54387349D01*
X245914484Y-54387349D02*
X245985912Y-54530206D01*
X245985912Y-54530206D02*
X245985912Y-54601635D01*
X243985912Y-54315921D02*
X244057341Y-54387349D01*
X244057341Y-54387349D02*
X244128769Y-54315921D01*
X244128769Y-54315921D02*
X244057341Y-54244492D01*
X244057341Y-54244492D02*
X243985912Y-54315921D01*
X243985912Y-54315921D02*
X244128769Y-54315921D01*
X245414484Y-52958778D02*
X245485912Y-53101635D01*
X245485912Y-53101635D02*
X245485912Y-53387349D01*
X245485912Y-53387349D02*
X245414484Y-53530206D01*
X245414484Y-53530206D02*
X245343055Y-53601635D01*
X245343055Y-53601635D02*
X245200198Y-53673063D01*
X245200198Y-53673063D02*
X244771626Y-53673063D01*
X244771626Y-53673063D02*
X244628769Y-53601635D01*
X244628769Y-53601635D02*
X244557341Y-53530206D01*
X244557341Y-53530206D02*
X244485912Y-53387349D01*
X244485912Y-53387349D02*
X244485912Y-53101635D01*
X244485912Y-53101635D02*
X244557341Y-52958778D01*
X245485912Y-52315921D02*
X244485912Y-52315921D01*
X243985912Y-52315921D02*
X244057341Y-52387349D01*
X244057341Y-52387349D02*
X244128769Y-52315921D01*
X244128769Y-52315921D02*
X244057341Y-52244492D01*
X244057341Y-52244492D02*
X243985912Y-52315921D01*
X243985912Y-52315921D02*
X244128769Y-52315921D01*
X245485912Y-51601635D02*
X243985912Y-51601635D01*
X244914484Y-51458778D02*
X245485912Y-51030206D01*
X244485912Y-51030206D02*
X245057341Y-51601635D01*
X246900828Y-58673064D02*
X246900828Y-58101636D01*
X246400828Y-58458779D02*
X247686542Y-58458779D01*
X247686542Y-58458779D02*
X247829400Y-58387350D01*
X247829400Y-58387350D02*
X247900828Y-58244493D01*
X247900828Y-58244493D02*
X247900828Y-58101636D01*
X247900828Y-57387350D02*
X247829400Y-57530207D01*
X247829400Y-57530207D02*
X247757971Y-57601636D01*
X247757971Y-57601636D02*
X247615114Y-57673064D01*
X247615114Y-57673064D02*
X247186542Y-57673064D01*
X247186542Y-57673064D02*
X247043685Y-57601636D01*
X247043685Y-57601636D02*
X246972257Y-57530207D01*
X246972257Y-57530207D02*
X246900828Y-57387350D01*
X246900828Y-57387350D02*
X246900828Y-57173064D01*
X246900828Y-57173064D02*
X246972257Y-57030207D01*
X246972257Y-57030207D02*
X247043685Y-56958779D01*
X247043685Y-56958779D02*
X247186542Y-56887350D01*
X247186542Y-56887350D02*
X247615114Y-56887350D01*
X247615114Y-56887350D02*
X247757971Y-56958779D01*
X247757971Y-56958779D02*
X247829400Y-57030207D01*
X247829400Y-57030207D02*
X247900828Y-57173064D01*
X247900828Y-57173064D02*
X247900828Y-57387350D01*
X246900828Y-56244493D02*
X248400828Y-56244493D01*
X246972257Y-56244493D02*
X246900828Y-56101636D01*
X246900828Y-56101636D02*
X246900828Y-55815921D01*
X246900828Y-55815921D02*
X246972257Y-55673064D01*
X246972257Y-55673064D02*
X247043685Y-55601636D01*
X247043685Y-55601636D02*
X247186542Y-55530207D01*
X247186542Y-55530207D02*
X247615114Y-55530207D01*
X247615114Y-55530207D02*
X247757971Y-55601636D01*
X247757971Y-55601636D02*
X247829400Y-55673064D01*
X247829400Y-55673064D02*
X247900828Y-55815921D01*
X247900828Y-55815921D02*
X247900828Y-56101636D01*
X247900828Y-56101636D02*
X247829400Y-56244493D01*
D12*
%TO.P,U3,1,VI_1*%
%TO.N,+12V*%
X81060000Y-82343290D03*
D13*
%TO.P,U3,2,GND_2*%
%TO.N,GND*%
X83600000Y-82343290D03*
%TO.P,U3,3,VO_3*%
%TO.N,+5V*%
X86140000Y-82343290D03*
%TD*%
D12*
%TO.P,Q1,1,G_1*%
%TO.N,Net-(Q1-G)*%
X48260000Y-81643290D03*
D13*
%TO.P,Q1,2,D_2*%
%TO.N,Net-(D1-A)*%
X50800000Y-81643290D03*
%TO.P,Q1,3,S_3*%
%TO.N,GND*%
X53340000Y-81643290D03*
%TD*%
D14*
%TO.P,R2,1*%
%TO.N,Net-(R2-Pad1)*%
X245587500Y-117113290D03*
%TO.P,R2,2*%
%TO.N,GND*%
X247412500Y-117113290D03*
%TD*%
D15*
%TO.P,J1,1*%
%TO.N,+12V*%
X62900000Y-58413290D03*
D16*
%TO.P,J1,2*%
%TO.N,GND*%
X54400000Y-58413290D03*
%TO.P,J1,3*%
%TO.N,N/C*%
X59700000Y-58413290D03*
D17*
%TO.P,J1,SH*%
X53500000Y-51113290D03*
X63300000Y-51113290D03*
%TD*%
D18*
%TO.P,P1,SH,SHIELD_SH*%
%TO.N,unconnected-(P1-SHIELD-PadSH)_1*%
X101330000Y-49000000D03*
D19*
%TO.N,unconnected-(P1-SHIELD-PadSH)_3*%
X102600000Y-53320000D03*
%TO.N,unconnected-(P1-SHIELD-PadSH)*%
X111900000Y-53320000D03*
D18*
%TO.N,unconnected-(P1-SHIELD-PadSH)_2*%
X113170000Y-49000000D03*
%TD*%
D20*
%TO.P,J4,1,Pin_1_1*%
%TO.N,+3V3*%
X190690000Y-50113290D03*
D21*
%TO.P,J4,2,Pin_2_2*%
%TO.N,/MCU/TMS*%
X193230000Y-50113290D03*
%TO.P,J4,3,Pin_3_3*%
%TO.N,/MCU/TCK*%
X195770000Y-50113290D03*
%TO.P,J4,4,Pin_4_4*%
%TO.N,GND*%
X198310000Y-50113290D03*
%TD*%
D22*
%TO.P,SW1,1,1_1*%
%TO.N,Net-(R1-Pad1)*%
X239450000Y-107313290D03*
X243550000Y-107313290D03*
%TO.P,SW1,2,2_2*%
%TO.N,/MCU/BTNOK*%
X239450000Y-108913290D03*
X243550000Y-108913290D03*
%TD*%
D23*
%TO.P,IN2,1,A_1*%
%TO.N,Net-(IN2-A)*%
X120791425Y-135211058D03*
D24*
%TO.P,IN2,3,K_1_3*%
%TO.N,Net-(IN2-K_1)*%
X128570082Y-133045486D03*
%TO.P,IN2,4,K_2_4*%
%TO.N,Net-(IN2-K_2)*%
X133959663Y-127024614D03*
%TO.P,IN2,5,K_3_5*%
%TO.N,Net-(IN2-K_3)*%
X135233776Y-119040371D03*
%TO.P,IN2,6,K_4_6*%
%TO.N,Net-(IN2-K_4)*%
X131992738Y-111638581D03*
%TO.P,IN2,7,K_5_7*%
%TO.N,Net-(IN2-K_5)*%
X125266198Y-107161474D03*
%TO.P,IN2,8,K_6_8*%
%TO.N,Net-(IN2-K_6)*%
X117182006Y-107029782D03*
%TO.P,IN2,9,K_7_9*%
%TO.N,Net-(IN2-K_7)*%
X110316714Y-111291969D03*
%TO.P,IN2,10,K_8_10*%
%TO.N,Net-(IN2-K_8)*%
X106833292Y-118576403D03*
%TO.P,IN2,11,K_9_11*%
%TO.N,Net-(IN2-K_9)*%
X107842663Y-126590284D03*
%TO.P,IN2,12,K_0_12*%
%TO.N,Net-(IN2-K_0)*%
X113074569Y-132825426D03*
%TD*%
D25*
%TO.P,R6,1*%
%TO.N,+3V3*%
X246912500Y-128113290D03*
%TO.P,R6,2*%
%TO.N,/MCU/BTNDN*%
X245087500Y-128113290D03*
%TD*%
D26*
%TO.P,Y1,1,1_1*%
%TO.N,Net-(U4-PC14)*%
X143255000Y-67383290D03*
%TO.P,Y1,2,2_2*%
%TO.N,Net-(C18-Pad1)*%
X143255000Y-64843290D03*
%TD*%
D27*
%TO.P,U7,1,~{Q8}_1*%
%TO.N,Net-(IN2-K_8)*%
X122610000Y-88303290D03*
D28*
%TO.P,U7,2,~{Q9}_2*%
%TO.N,Net-(IN2-K_9)*%
X125150000Y-88303290D03*
%TO.P,U7,3,A_3*%
%TO.N,Net-(U7-A)*%
X127689999Y-88303290D03*
%TO.P,U7,4,D_4*%
%TO.N,Net-(U7-D)*%
X130230000Y-88303290D03*
%TO.P,U7,5,VCC_5*%
%TO.N,+5V*%
X132770000Y-88303290D03*
%TO.P,U7,6,B_6*%
%TO.N,Net-(U7-B)*%
X135310000Y-88303290D03*
%TO.P,U7,7,C_7*%
%TO.N,Net-(U7-C)*%
X137850000Y-88303290D03*
%TO.P,U7,8,~{Q2}_8*%
%TO.N,Net-(IN2-K_2)*%
X140390001Y-88303290D03*
%TO.P,U7,9,~{Q3}_9*%
%TO.N,Net-(IN2-K_3)*%
X140390000Y-95923290D03*
%TO.P,U7,10,~{Q7}_10*%
%TO.N,Net-(IN2-K_7)*%
X137850000Y-95923290D03*
%TO.P,U7,11,~{Q6}_11*%
%TO.N,Net-(IN2-K_6)*%
X135310000Y-95923290D03*
%TO.P,U7,12,GND_12*%
%TO.N,GND*%
X132770000Y-95923290D03*
%TO.P,U7,13,~{Q4}_13*%
%TO.N,Net-(IN2-K_4)*%
X130230000Y-95923290D03*
%TO.P,U7,14,~{Q5}_14*%
%TO.N,Net-(IN2-K_5)*%
X127690000Y-95923290D03*
%TO.P,U7,15,~{Q1}_15*%
%TO.N,Net-(IN2-K_1)*%
X125150000Y-95923290D03*
%TO.P,U7,16,~{Q0}_16*%
%TO.N,Net-(IN2-K_0)*%
X122610000Y-95923290D03*
%TD*%
D27*
%TO.P,U8,1,~{Q8}_1*%
%TO.N,Net-(IN3-K_8)*%
X154420001Y-88613290D03*
D28*
%TO.P,U8,2,~{Q9}_2*%
%TO.N,Net-(IN3-K_9)*%
X156960001Y-88613290D03*
%TO.P,U8,3,A_3*%
%TO.N,Net-(U8-A)*%
X159500000Y-88613290D03*
%TO.P,U8,4,D_4*%
%TO.N,Net-(U8-D)*%
X162040001Y-88613290D03*
%TO.P,U8,5,VCC_5*%
%TO.N,+5V*%
X164580001Y-88613290D03*
%TO.P,U8,6,B_6*%
%TO.N,Net-(U8-B)*%
X167120001Y-88613290D03*
%TO.P,U8,7,C_7*%
%TO.N,Net-(U8-C)*%
X169660001Y-88613290D03*
%TO.P,U8,8,~{Q2}_8*%
%TO.N,Net-(IN3-K_2)*%
X172200002Y-88613290D03*
%TO.P,U8,9,~{Q3}_9*%
%TO.N,Net-(IN3-K_3)*%
X172200001Y-96233290D03*
%TO.P,U8,10,~{Q7}_10*%
%TO.N,Net-(IN3-K_7)*%
X169660001Y-96233290D03*
%TO.P,U8,11,~{Q6}_11*%
%TO.N,Net-(IN3-K_6)*%
X167120001Y-96233290D03*
%TO.P,U8,12,GND_12*%
%TO.N,GND*%
X164580001Y-96233290D03*
%TO.P,U8,13,~{Q4}_13*%
%TO.N,Net-(IN3-K_4)*%
X162040001Y-96233290D03*
%TO.P,U8,14,~{Q5}_14*%
%TO.N,Net-(IN3-K_5)*%
X159500001Y-96233290D03*
%TO.P,U8,15,~{Q1}_15*%
%TO.N,Net-(IN3-K_1)*%
X156960001Y-96233290D03*
%TO.P,U8,16,~{Q0}_16*%
%TO.N,Net-(IN3-K_0)*%
X154420001Y-96233290D03*
%TD*%
D29*
%TO.P,J2,1,Pin_1_1*%
%TO.N,Net-(J2-Pin_1)*%
X145498439Y-83711729D03*
D21*
%TO.P,J2,2,Pin_2_2*%
%TO.N,Net-(J2-Pin_2)*%
X147294490Y-85507780D03*
%TD*%
D30*
%TO.P,R41,1*%
%TO.N,Net-(IN3-A)*%
X148500000Y-136700790D03*
%TO.P,R41,2*%
%TO.N,+100V*%
X148500000Y-138525790D03*
%TD*%
D31*
%TO.P,D1,1,K_1*%
%TO.N,+100V*%
X52380000Y-89113290D03*
D32*
%TO.P,D1,2,A_2*%
%TO.N,Net-(D1-A)*%
X67620000Y-89113290D03*
%TD*%
D30*
%TO.P,R31,1*%
%TO.N,Net-(IN1-A)*%
X65500000Y-136700790D03*
%TO.P,R31,2*%
%TO.N,+100V*%
X65500000Y-138525790D03*
%TD*%
D14*
%TO.P,R3,1*%
%TO.N,Net-(R3-Pad1)*%
X245087500Y-126613290D03*
%TO.P,R3,2*%
%TO.N,GND*%
X246912500Y-126613290D03*
%TD*%
D25*
%TO.P,R5,1*%
%TO.N,+3V3*%
X247412500Y-119113290D03*
%TO.P,R5,2*%
%TO.N,/MCU/BTNUP*%
X245587500Y-119113290D03*
%TD*%
D33*
%TO.P,BT1,1,+_1*%
%TO.N,+BATT*%
X226500000Y-53613290D03*
D34*
%TO.P,BT1,2,-_2*%
%TO.N,GND*%
X226500000Y-74413290D03*
%TD*%
D14*
%TO.P,R1,1*%
%TO.N,Net-(R1-Pad1)*%
X245587500Y-107113290D03*
%TO.P,R1,2*%
%TO.N,GND*%
X247412500Y-107113290D03*
%TD*%
D33*
%TO.P,BZ1,1,+_1*%
%TO.N,/MCU/BUZZER*%
X204000000Y-64613290D03*
D34*
%TO.P,BZ1,2,-_2*%
%TO.N,Net-(BZ1--)*%
X204000000Y-57013289D03*
%TD*%
D27*
%TO.P,U6,1,~{Q8}_1*%
%TO.N,Net-(IN1-K_8)*%
X94300000Y-88493290D03*
D28*
%TO.P,U6,2,~{Q9}_2*%
%TO.N,Net-(IN1-K_9)*%
X96840000Y-88493290D03*
%TO.P,U6,3,A_3*%
%TO.N,Net-(U6-A)*%
X99379999Y-88493290D03*
%TO.P,U6,4,D_4*%
%TO.N,Net-(U6-D)*%
X101920000Y-88493290D03*
%TO.P,U6,5,VCC_5*%
%TO.N,+5V*%
X104460000Y-88493290D03*
%TO.P,U6,6,B_6*%
%TO.N,Net-(U6-B)*%
X107000000Y-88493290D03*
%TO.P,U6,7,C_7*%
%TO.N,Net-(U6-C)*%
X109540000Y-88493290D03*
%TO.P,U6,8,~{Q2}_8*%
%TO.N,Net-(IN1-K_2)*%
X112080001Y-88493290D03*
%TO.P,U6,9,~{Q3}_9*%
%TO.N,Net-(IN1-K_3)*%
X112080000Y-96113290D03*
%TO.P,U6,10,~{Q7}_10*%
%TO.N,Net-(IN1-K_7)*%
X109540000Y-96113290D03*
%TO.P,U6,11,~{Q6}_11*%
%TO.N,Net-(IN1-K_6)*%
X107000000Y-96113290D03*
%TO.P,U6,12,GND_12*%
%TO.N,GND*%
X104460000Y-96113290D03*
%TO.P,U6,13,~{Q4}_13*%
%TO.N,Net-(IN1-K_4)*%
X101920000Y-96113290D03*
%TO.P,U6,14,~{Q5}_14*%
%TO.N,Net-(IN1-K_5)*%
X99380000Y-96113290D03*
%TO.P,U6,15,~{Q1}_15*%
%TO.N,Net-(IN1-K_1)*%
X96840000Y-96113290D03*
%TO.P,U6,16,~{Q0}_16*%
%TO.N,Net-(IN1-K_0)*%
X94300000Y-96113290D03*
%TD*%
D35*
%TO.P,C10,1*%
%TO.N,+100V*%
X51500000Y-97613290D03*
D36*
%TO.P,C10,2*%
%TO.N,GND*%
X81499999Y-97613290D03*
%TD*%
D23*
%TO.P,IN4,1,A_1*%
%TO.N,Net-(IN4-A)*%
X205291424Y-134211058D03*
D24*
%TO.P,IN4,3,K_1_3*%
%TO.N,Net-(IN4-K_1)*%
X213070081Y-132045486D03*
%TO.P,IN4,4,K_2_4*%
%TO.N,Net-(IN4-K_2)*%
X218459662Y-126024614D03*
%TO.P,IN4,5,K_3_5*%
%TO.N,Net-(IN4-K_3)*%
X219733776Y-118040372D03*
%TO.P,IN4,6,K_4_6*%
%TO.N,Net-(IN4-K_4)*%
X216492736Y-110638580D03*
%TO.P,IN4,7,K_5_7*%
%TO.N,Net-(IN4-K_5)*%
X209766196Y-106161474D03*
%TO.P,IN4,8,K_6_8*%
%TO.N,Net-(IN4-K_6)*%
X201682005Y-106029782D03*
%TO.P,IN4,9,K_7_9*%
%TO.N,Net-(IN4-K_7)*%
X194816714Y-110291968D03*
%TO.P,IN4,10,K_8_10*%
%TO.N,Net-(IN4-K_8)*%
X191333291Y-117576403D03*
%TO.P,IN4,11,K_9_11*%
%TO.N,Net-(IN4-K_9)*%
X192342662Y-125590283D03*
%TO.P,IN4,12,K_0_12*%
%TO.N,Net-(IN4-K_0)*%
X197574568Y-131825426D03*
%TD*%
D22*
%TO.P,SW3,1,1_1*%
%TO.N,Net-(R3-Pad1)*%
X239400000Y-126513290D03*
X243500000Y-126513290D03*
%TO.P,SW3,2,2_2*%
%TO.N,/MCU/BTNDN*%
X239400000Y-128113290D03*
X243500000Y-128113290D03*
%TD*%
D25*
%TO.P,R4,1*%
%TO.N,+3V3*%
X247412500Y-109113290D03*
%TO.P,R4,2*%
%TO.N,/MCU/BTNOK*%
X245587500Y-109113290D03*
%TD*%
D30*
%TO.P,R42,1*%
%TO.N,Net-(IN4-A)*%
X191000000Y-136700790D03*
%TO.P,R42,2*%
%TO.N,+100V*%
X191000000Y-138525790D03*
%TD*%
D22*
%TO.P,SW2,1,1_1*%
%TO.N,Net-(R2-Pad1)*%
X239450000Y-117313290D03*
X243550000Y-117313290D03*
%TO.P,SW2,2,2_2*%
%TO.N,/MCU/BTNUP*%
X239450000Y-118913290D03*
X243550000Y-118913290D03*
%TD*%
D23*
%TO.P,IN1,1,A_1*%
%TO.N,Net-(IN1-A)*%
X78291425Y-135211058D03*
D24*
%TO.P,IN1,3,K_1_3*%
%TO.N,Net-(IN1-K_1)*%
X86070082Y-133045486D03*
%TO.P,IN1,4,K_2_4*%
%TO.N,Net-(IN1-K_2)*%
X91459663Y-127024614D03*
%TO.P,IN1,5,K_3_5*%
%TO.N,Net-(IN1-K_3)*%
X92733776Y-119040371D03*
%TO.P,IN1,6,K_4_6*%
%TO.N,Net-(IN1-K_4)*%
X89492738Y-111638581D03*
%TO.P,IN1,7,K_5_7*%
%TO.N,Net-(IN1-K_5)*%
X82766198Y-107161474D03*
%TO.P,IN1,8,K_6_8*%
%TO.N,Net-(IN1-K_6)*%
X74682006Y-107029782D03*
%TO.P,IN1,9,K_7_9*%
%TO.N,Net-(IN1-K_7)*%
X67816714Y-111291969D03*
%TO.P,IN1,10,K_8_10*%
%TO.N,Net-(IN1-K_8)*%
X64333292Y-118576403D03*
%TO.P,IN1,11,K_9_11*%
%TO.N,Net-(IN1-K_9)*%
X65342663Y-126590284D03*
%TO.P,IN1,12,K_0_12*%
%TO.N,Net-(IN1-K_0)*%
X70574569Y-132825426D03*
%TD*%
D37*
%TO.P,TP1,1,1_1*%
%TO.N,Net-(U5-~{RTS})*%
X111500000Y-73138290D03*
%TD*%
D27*
%TO.P,U9,1,~{Q8}_1*%
%TO.N,Net-(IN4-K_8)*%
X194610000Y-88803290D03*
D28*
%TO.P,U9,2,~{Q9}_2*%
%TO.N,Net-(IN4-K_9)*%
X197150000Y-88803290D03*
%TO.P,U9,3,A_3*%
%TO.N,Net-(U9-A)*%
X199689999Y-88803290D03*
%TO.P,U9,4,D_4*%
%TO.N,Net-(U9-D)*%
X202230000Y-88803290D03*
%TO.P,U9,5,VCC_5*%
%TO.N,+5V*%
X204770000Y-88803290D03*
%TO.P,U9,6,B_6*%
%TO.N,Net-(U9-B)*%
X207310000Y-88803290D03*
%TO.P,U9,7,C_7*%
%TO.N,Net-(U9-C)*%
X209850000Y-88803290D03*
%TO.P,U9,8,~{Q2}_8*%
%TO.N,Net-(IN4-K_2)*%
X212390001Y-88803290D03*
%TO.P,U9,9,~{Q3}_9*%
%TO.N,Net-(IN4-K_3)*%
X212390000Y-96423290D03*
%TO.P,U9,10,~{Q7}_10*%
%TO.N,Net-(IN4-K_7)*%
X209850000Y-96423290D03*
%TO.P,U9,11,~{Q6}_11*%
%TO.N,Net-(IN4-K_6)*%
X207310000Y-96423290D03*
%TO.P,U9,12,GND_12*%
%TO.N,GND*%
X204770000Y-96423290D03*
%TO.P,U9,13,~{Q4}_13*%
%TO.N,Net-(IN4-K_4)*%
X202230000Y-96423290D03*
%TO.P,U9,14,~{Q5}_14*%
%TO.N,Net-(IN4-K_5)*%
X199690000Y-96423290D03*
%TO.P,U9,15,~{Q1}_15*%
%TO.N,Net-(IN4-K_1)*%
X197150000Y-96423290D03*
%TO.P,U9,16,~{Q0}_16*%
%TO.N,Net-(IN4-K_0)*%
X194610000Y-96423290D03*
%TD*%
D38*
%TO.P,C3,1*%
%TO.N,/MCU/BTNDN*%
X239437500Y-130613290D03*
%TO.P,C3,2*%
%TO.N,GND*%
X242562500Y-130613290D03*
%TD*%
%TO.P,C1,1*%
%TO.N,/MCU/BTNOK*%
X239437500Y-111113290D03*
%TO.P,C1,2*%
%TO.N,GND*%
X242562500Y-111113290D03*
%TD*%
%TO.P,C2,1*%
%TO.N,/MCU/BTNUP*%
X239437500Y-121113290D03*
%TO.P,C2,2*%
%TO.N,GND*%
X242562500Y-121113290D03*
%TD*%
D23*
%TO.P,IN3,1,A_1*%
%TO.N,Net-(IN3-A)*%
X162791424Y-135211058D03*
D24*
%TO.P,IN3,3,K_1_3*%
%TO.N,Net-(IN3-K_1)*%
X170570081Y-133045486D03*
%TO.P,IN3,4,K_2_4*%
%TO.N,Net-(IN3-K_2)*%
X175959662Y-127024614D03*
%TO.P,IN3,5,K_3_5*%
%TO.N,Net-(IN3-K_3)*%
X177233776Y-119040372D03*
%TO.P,IN3,6,K_4_6*%
%TO.N,Net-(IN3-K_4)*%
X173992736Y-111638580D03*
%TO.P,IN3,7,K_5_7*%
%TO.N,Net-(IN3-K_5)*%
X167266196Y-107161474D03*
%TO.P,IN3,8,K_6_8*%
%TO.N,Net-(IN3-K_6)*%
X159182005Y-107029782D03*
%TO.P,IN3,9,K_7_9*%
%TO.N,Net-(IN3-K_7)*%
X152316714Y-111291968D03*
%TO.P,IN3,10,K_8_10*%
%TO.N,Net-(IN3-K_8)*%
X148833291Y-118576403D03*
%TO.P,IN3,11,K_9_11*%
%TO.N,Net-(IN3-K_9)*%
X149842662Y-126590283D03*
%TO.P,IN3,12,K_0_12*%
%TO.N,Net-(IN3-K_0)*%
X155074568Y-132825426D03*
%TD*%
D20*
%TO.P,J3,1,Pin_1_1*%
%TO.N,/MCU/DEBUG_RX*%
X167100000Y-50513290D03*
D21*
%TO.P,J3,2,Pin_2_2*%
%TO.N,/MCU/DEBUG_TX*%
X167100000Y-53053290D03*
%TD*%
D39*
%TO.P,R32,1*%
%TO.N,+100V*%
X107000000Y-138525790D03*
%TO.P,R32,2*%
%TO.N,Net-(IN2-A)*%
X107000000Y-136700790D03*
%TD*%
D40*
%TO.N,GND*%
X150400000Y-63700000D03*
X105900000Y-83113290D03*
X198550000Y-86575000D03*
D41*
%TO.N,+3V3*%
X93700000Y-65813290D03*
D40*
%TO.N,GND*%
X197050000Y-83250000D03*
%TO.N,+3V3*%
X163900000Y-53813290D03*
%TO.N,GND*%
X152200000Y-84813290D03*
%TO.N,+3V3*%
X105500000Y-62213290D03*
%TO.N,GND*%
X188400000Y-55613290D03*
X149775000Y-50525000D03*
X129300000Y-59600000D03*
%TO.N,+3V3*%
X247400000Y-120513290D03*
%TO.N,GND*%
X101900000Y-62413290D03*
X58100000Y-74113290D03*
X73225000Y-67775000D03*
X143750000Y-50525000D03*
D41*
%TO.N,+5V*%
X89762500Y-85350790D03*
D40*
%TO.N,GND*%
X152075000Y-55800000D03*
X102700000Y-73613290D03*
X134200000Y-83313290D03*
X53400000Y-77313290D03*
X78100000Y-97713290D03*
X143700000Y-69100000D03*
X203350000Y-83050000D03*
X97425000Y-58275000D03*
X112000000Y-55075000D03*
X73150000Y-63675000D03*
X67000000Y-54013290D03*
D42*
X48300000Y-51613290D03*
D40*
%TO.N,/MCU/BTNDN*%
X166100000Y-74413290D03*
%TO.N,GND*%
X165800000Y-83613290D03*
X65800000Y-55913290D03*
X183000000Y-65613290D03*
D41*
%TO.N,+3V3*%
X93700000Y-64013290D03*
D40*
%TO.N,GND*%
X71175000Y-65950000D03*
X248500000Y-117113290D03*
X128400000Y-68513290D03*
X97425000Y-60000000D03*
X54400000Y-60713290D03*
X57400000Y-65913290D03*
D41*
%TO.N,+3V3*%
X93700000Y-62313290D03*
%TO.N,Net-(U6-A)*%
X120900000Y-80513290D03*
D40*
%TO.N,GND*%
X131400000Y-83313290D03*
X159000000Y-69213290D03*
X162000000Y-77200000D03*
X90500000Y-50313290D03*
X248500000Y-107113290D03*
%TO.N,+3V3*%
X247400000Y-111813290D03*
%TO.N,GND*%
X130396180Y-61717110D03*
X135875000Y-50575000D03*
X75000000Y-100913290D03*
D42*
X246900000Y-136513290D03*
D40*
X55200000Y-81000000D03*
X119250000Y-67825000D03*
X160450000Y-60563290D03*
X166800000Y-68900000D03*
X145300000Y-61600000D03*
%TO.N,Net-(U7-C)*%
X175200000Y-59313290D03*
%TO.N,GND*%
X83100000Y-53913290D03*
X122475000Y-50675000D03*
X56400000Y-81000000D03*
%TO.N,+3V3*%
X129200000Y-57613289D03*
%TO.N,GND*%
X114800000Y-58075000D03*
X65300000Y-95013290D03*
X157775000Y-50850000D03*
%TO.N,Net-(U9-B)*%
X186000000Y-64913290D03*
D42*
%TO.N,GND*%
X247900000Y-51113290D03*
D40*
X81700000Y-55613290D03*
X54300000Y-76413290D03*
X92000000Y-52113290D03*
X55200000Y-75413290D03*
X119400000Y-53800000D03*
X139300000Y-50525000D03*
X103100000Y-83113290D03*
X161700000Y-57313290D03*
%TO.N,Net-(U9-C)*%
X190500000Y-68413290D03*
%TO.N,GND*%
X243700000Y-121113290D03*
X52700000Y-58413290D03*
X76200000Y-99413290D03*
%TO.N,Net-(U9-A)*%
X189500000Y-69313290D03*
%TO.N,+3V3*%
X246912500Y-129325790D03*
%TO.N,GND*%
X119375000Y-71700000D03*
X148700000Y-72213290D03*
%TO.N,Net-(U8-D)*%
X170500000Y-77713290D03*
D41*
%TO.N,Net-(U6-B)*%
X111100000Y-81313290D03*
D40*
%TO.N,+3V3*%
X161800000Y-78413290D03*
%TO.N,/MCU/BTNUP*%
X164400000Y-75513290D03*
%TO.N,GND*%
X102800000Y-72213290D03*
X242600000Y-112800000D03*
X164200000Y-51325000D03*
X84200000Y-88513290D03*
X49800000Y-86500000D03*
X69525000Y-67775000D03*
X163100000Y-83613290D03*
X155750000Y-57175000D03*
X56400000Y-82300000D03*
X161575000Y-51575000D03*
X158900000Y-49825000D03*
X88100000Y-88513290D03*
%TO.N,+3V3*%
X170300000Y-66413290D03*
%TO.N,GND*%
X68800000Y-97413290D03*
X163100000Y-50375000D03*
X119250000Y-65625000D03*
X185000000Y-52613290D03*
X97300000Y-56375000D03*
X49800000Y-85700000D03*
%TO.N,+3V3*%
X108400000Y-76713290D03*
%TO.N,/MCU/DEBUG_TX*%
X164900000Y-49113290D03*
%TO.N,Net-(U9-B)*%
X189350000Y-68263290D03*
%TO.N,GND*%
X78500000Y-87113290D03*
%TO.N,Net-(U8-B)*%
X173300000Y-76113290D03*
%TO.N,GND*%
X165400000Y-78313290D03*
X248100000Y-126613290D03*
X57000000Y-69713290D03*
%TO.N,Net-(U8-A)*%
X173500000Y-74113290D03*
%TO.N,/MCU/BTNOK*%
X153200000Y-73913290D03*
%TO.N,GND*%
X85400000Y-53513290D03*
X163000000Y-69513290D03*
X97250000Y-54500000D03*
%TO.N,+3V3*%
X147200000Y-68713290D03*
%TO.N,GND*%
X158350000Y-55250000D03*
X102650000Y-55025000D03*
X116925000Y-56200000D03*
X102300000Y-66113290D03*
X158500000Y-77713290D03*
X199100000Y-52713290D03*
%TO.N,Net-(U7-D)*%
X176400000Y-60313290D03*
%TO.N,GND*%
X103000000Y-67013290D03*
X55300000Y-67913290D03*
X216000000Y-56313290D03*
X56200000Y-58413290D03*
X56900000Y-74113290D03*
X159000000Y-73013290D03*
X154075000Y-58700000D03*
X244100000Y-130613290D03*
X141400000Y-61717110D03*
X179300000Y-62013290D03*
X112725000Y-60175000D03*
%TO.N,Net-(U7-A)*%
X143100000Y-79913290D03*
%TO.N,GND*%
X73000000Y-95113290D03*
X52100000Y-78613290D03*
X198050000Y-84550000D03*
X206450000Y-83075000D03*
X49500000Y-78713290D03*
X177000000Y-74313290D03*
X204950000Y-81325000D03*
X68300000Y-55913290D03*
X55100000Y-82300000D03*
X128400000Y-63713290D03*
X69600000Y-63600000D03*
X150900000Y-71600000D03*
X213000000Y-56313290D03*
%TO.N,+BATT*%
X211700000Y-53613290D03*
%TO.N,Net-(U9-C)*%
X187000000Y-64913290D03*
%TO.N,Net-(U8-C)*%
X173500000Y-78413290D03*
%TO.N,GND*%
X86300000Y-90213290D03*
X181900000Y-49613290D03*
%TO.N,+3V3*%
X163800000Y-59613290D03*
%TO.N,GND*%
X55800000Y-81613290D03*
D43*
%TO.N,+BATT*%
X153800000Y-69213290D03*
D40*
%TO.N,GND*%
X161000000Y-67613290D03*
X150400000Y-77213290D03*
X136000000Y-61717110D03*
%TO.N,+3V3*%
X147500000Y-79913290D03*
%TO.N,GND*%
X89100000Y-52113290D03*
X60200000Y-81713290D03*
X66300000Y-100713290D03*
X160075000Y-52950000D03*
%TO.N,Net-(U9-A)*%
X183824265Y-63089025D03*
%TO.N,GND*%
X80200000Y-85413290D03*
D42*
X48700000Y-137213290D03*
%TD*%
%TO.N,Net-(IN1-K_6)*%
D44*
X84400000Y-111513290D02*
X94800000Y-101113290D01*
%TO.N,Net-(IN2-A)*%
X107000000Y-136700790D02*
X119301693Y-136700790D01*
%TO.N,Net-(IN3-K_9)*%
X156000000Y-86113290D02*
X154000000Y-86113290D01*
%TO.N,Net-(U7-C)*%
D45*
X176100000Y-59013290D02*
X177000000Y-59913290D01*
%TO.N,Net-(IN2-K_6)*%
D44*
X134300000Y-93313290D02*
X135310000Y-94323290D01*
%TO.N,Net-(IN3-K_0)*%
X154420001Y-107533291D02*
X156000000Y-109113290D01*
%TO.N,/MCU/BTNDN*%
D45*
X239437500Y-130613290D02*
X236900000Y-130613290D01*
%TO.N,Net-(IN4-K_9)*%
D44*
X196500000Y-85913290D02*
X197150000Y-86563290D01*
%TO.N,/MCU/BTNDN*%
D45*
X235900000Y-91613290D02*
X217400000Y-73113290D01*
%TO.N,Net-(IN1-A)*%
D44*
X65500000Y-136700790D02*
X76801693Y-136700790D01*
%TO.N,Net-(R1-Pad1)*%
D45*
X243550000Y-107313290D02*
X245387500Y-107313290D01*
%TO.N,Net-(IN2-K_6)*%
D44*
X119300000Y-96013290D02*
X122000000Y-93313290D01*
%TO.N,Net-(IN3-K_0)*%
X154420001Y-96233290D02*
X154420001Y-107533291D01*
%TO.N,+100V*%
X51500000Y-132613290D02*
X57412500Y-138525790D01*
%TO.N,Net-(IN1-K_6)*%
X105000000Y-101113290D02*
X107000000Y-99113290D01*
%TO.N,Net-(IN1-K_9)*%
X80800000Y-102913290D02*
X91000000Y-92713290D01*
%TO.N,Net-(IN4-K_9)*%
X193600000Y-85913290D02*
X196500000Y-85913290D01*
%TO.N,Net-(U7-C)*%
D45*
X144400000Y-81513290D02*
X138900000Y-81513290D01*
%TO.N,Net-(IN1-K_9)*%
D44*
X59900000Y-112813290D02*
X69800000Y-102913290D01*
X69800000Y-102913290D02*
X80800000Y-102913290D01*
%TO.N,GND*%
D46*
X246912500Y-126613290D02*
X248100000Y-126613290D01*
%TO.N,Net-(U6-A)*%
D45*
X99379999Y-88493290D02*
X99379999Y-82733291D01*
%TO.N,Net-(IN2-K_9)*%
D44*
X125150000Y-89963290D02*
X125150000Y-88303290D01*
%TO.N,Net-(IN3-K_9)*%
X154000000Y-86113290D02*
X145500000Y-94613290D01*
%TO.N,Net-(IN1-K_5)*%
X91014382Y-98913290D02*
X98400000Y-98913290D01*
%TO.N,/MCU/BTNOK*%
D45*
X155300000Y-71813290D02*
X153200000Y-73913290D01*
%TO.N,Net-(U6-B)*%
X108200000Y-81313290D02*
X107000000Y-82513290D01*
%TO.N,Net-(IN1-K_9)*%
D44*
X95100000Y-92713290D02*
X96840000Y-90973290D01*
X96840000Y-90973290D02*
X96840000Y-88493290D01*
%TO.N,Net-(U7-C)*%
D45*
X175500000Y-59013290D02*
X176100000Y-59013290D01*
%TO.N,Net-(IN3-A)*%
D44*
X161301692Y-136700790D02*
X162791424Y-135211058D01*
%TO.N,Net-(IN2-K_6)*%
X122000000Y-93313290D02*
X134300000Y-93313290D01*
X117182006Y-107029782D02*
X119300000Y-104911788D01*
%TO.N,Net-(U9-B)*%
D45*
X186000000Y-64913290D02*
X189350000Y-68263290D01*
%TO.N,Net-(IN3-K_8)*%
D44*
X154420001Y-88613290D02*
X148833291Y-94200000D01*
%TO.N,Net-(IN1-K_7)*%
X109540000Y-99173290D02*
X109540000Y-96113290D01*
%TO.N,Net-(U6-A)*%
D45*
X99379999Y-82733291D02*
X101600000Y-80513290D01*
%TO.N,Net-(IN2-K_9)*%
D44*
X117400000Y-101613290D02*
X117400000Y-95413290D01*
%TO.N,Net-(U9-A)*%
D45*
X184800000Y-64613290D02*
X184800000Y-64064760D01*
%TO.N,Net-(IN1-K_5)*%
D44*
X99380000Y-97933290D02*
X99380000Y-96113290D01*
%TO.N,/MCU/BTNDN*%
D45*
X236900000Y-130613290D02*
X235900000Y-129613290D01*
%TO.N,Net-(U6-B)*%
X107000000Y-82513290D02*
X107000000Y-88493290D01*
%TO.N,/MCU/BTNUP*%
X237500000Y-121113290D02*
X239437500Y-121113290D01*
%TO.N,Net-(IN2-K_8)*%
D44*
X115700000Y-94313290D02*
X121710000Y-88303290D01*
%TO.N,Net-(R3-Pad1)*%
D45*
X244987500Y-126513290D02*
X245087500Y-126613290D01*
%TO.N,/MCU/BTNUP*%
X239450000Y-118913290D02*
X243550000Y-118913290D01*
%TO.N,Net-(IN3-K_7)*%
D44*
X168500000Y-93113290D02*
X169660001Y-94273291D01*
%TO.N,+BATT*%
D47*
X205700000Y-59613290D02*
X195600000Y-59613290D01*
%TO.N,Net-(IN1-K_6)*%
D44*
X94800000Y-101113290D02*
X105000000Y-101113290D01*
%TO.N,Net-(U8-D)*%
D45*
X170500000Y-77713290D02*
X162040001Y-86173289D01*
%TO.N,+3V3*%
D46*
X247412500Y-119113290D02*
X247412500Y-120500790D01*
%TO.N,Net-(U7-C)*%
D45*
X172248529Y-65313290D02*
X160600000Y-65313290D01*
%TO.N,+100V*%
D44*
X51500000Y-97613290D02*
X51500000Y-132613290D01*
%TO.N,Net-(U7-A)*%
D45*
X143100000Y-79913290D02*
X129900000Y-79913290D01*
%TO.N,Net-(IN4-K_7)*%
D44*
X206000000Y-104613290D02*
X209850000Y-100763290D01*
%TO.N,Net-(R3-Pad1)*%
D45*
X243500000Y-126513290D02*
X239400000Y-126513290D01*
%TO.N,/MCU/BTNOK*%
X238300000Y-111113290D02*
X237600000Y-110413290D01*
X237600000Y-91313290D02*
X218100000Y-71813290D01*
%TO.N,GND*%
D46*
X242562500Y-111113290D02*
X242562500Y-112762500D01*
%TO.N,Net-(IN1-K_5)*%
D44*
X82766198Y-107161474D02*
X91014382Y-98913290D01*
%TO.N,Net-(IN3-K_9)*%
X145500000Y-122247621D02*
X149842662Y-126590283D01*
%TO.N,Net-(U7-D)*%
D45*
X159900000Y-64913290D02*
X143900000Y-80913290D01*
%TO.N,+100V*%
D44*
X65500000Y-138525790D02*
X191000000Y-138525790D01*
%TO.N,Net-(IN3-K_0)*%
X156000000Y-109113290D02*
X156000000Y-116113290D01*
%TO.N,/MCU/BTNUP*%
D45*
X164400000Y-75513290D02*
X164400000Y-75264761D01*
%TO.N,Net-(IN2-A)*%
D44*
X119301693Y-136700790D02*
X120791425Y-135211058D01*
%TO.N,Net-(IN2-K_9)*%
X121400000Y-91413290D02*
X123700000Y-91413290D01*
%TO.N,Net-(IN1-K_6)*%
X107000000Y-99113290D02*
X107000000Y-96113290D01*
%TO.N,/MCU/DEBUG_TX*%
D46*
X165540000Y-53053290D02*
X167100000Y-53053290D01*
%TO.N,+BATT*%
D47*
X162400000Y-60613290D02*
X153900000Y-69113290D01*
%TO.N,Net-(IN3-A)*%
D44*
X148500000Y-136700790D02*
X161301692Y-136700790D01*
%TO.N,Net-(IN3-K_7)*%
X152316713Y-94796577D02*
X154000000Y-93113290D01*
%TO.N,Net-(IN2-K_0)*%
X121500000Y-124399995D02*
X121500000Y-97033290D01*
%TO.N,Net-(U6-B)*%
D45*
X111100000Y-81313290D02*
X108200000Y-81313290D01*
%TO.N,/MCU/BTNUP*%
X217800000Y-72413290D02*
X236700000Y-91313290D01*
%TO.N,GND*%
D46*
X247362500Y-117113290D02*
X248500000Y-117113290D01*
%TO.N,Net-(U8-C)*%
D45*
X173500000Y-78413290D02*
X169660001Y-82253289D01*
%TO.N,/MCU/BTNOK*%
X243550000Y-108913290D02*
X245387500Y-108913290D01*
%TO.N,Net-(IN2-K_8)*%
D44*
X121710000Y-88303290D02*
X122610000Y-88303290D01*
%TO.N,Net-(IN1-K_9)*%
X59900000Y-121147621D02*
X59900000Y-112813290D01*
%TO.N,Net-(IN4-K_0)*%
X191500000Y-112613290D02*
X191500000Y-99533290D01*
%TO.N,/MCU/BTNUP*%
D45*
X243750000Y-119113290D02*
X243550000Y-118913290D01*
%TO.N,/MCU/BTNDN*%
X235900000Y-129613290D02*
X235900000Y-91613290D01*
%TO.N,Net-(IN2-K_8)*%
D44*
X115700000Y-99513290D02*
X115700000Y-94313290D01*
%TO.N,Net-(IN4-K_9)*%
X186500000Y-119747621D02*
X186500000Y-93013290D01*
%TO.N,Net-(IN3-K_0)*%
X156000000Y-116113290D02*
X155074568Y-117038722D01*
%TO.N,/MCU/BTNUP*%
D45*
X245587500Y-119113290D02*
X243750000Y-119113290D01*
%TO.N,Net-(U9-C)*%
X187000000Y-64913290D02*
X190500000Y-68413290D01*
%TO.N,/MCU/BTNOK*%
X239437500Y-109175790D02*
X239437500Y-111113290D01*
%TO.N,/MCU/BTNDN*%
X167400000Y-73113290D02*
X166100000Y-74413290D01*
%TO.N,Net-(IN1-K_9)*%
D44*
X91000000Y-92713290D02*
X95100000Y-92713290D01*
%TO.N,/MCU/BTNUP*%
D45*
X236700000Y-91313290D02*
X236700000Y-120313290D01*
%TO.N,Net-(U8-D)*%
X162040001Y-86173289D02*
X162040001Y-88613290D01*
%TO.N,Net-(IN1-K_7)*%
D44*
X67816714Y-111291969D02*
X67816714Y-114630004D01*
%TO.N,Net-(R1-Pad1)*%
D45*
X239450000Y-107313290D02*
X243550000Y-107313290D01*
%TO.N,Net-(U7-D)*%
X130230000Y-81683290D02*
X130230000Y-88303290D01*
%TO.N,Net-(IN2-K_9)*%
D44*
X113900000Y-105113290D02*
X117400000Y-101613290D01*
%TO.N,Net-(IN1-K_7)*%
X68700000Y-115513290D02*
X93200000Y-115513290D01*
%TO.N,/MCU/BTNOK*%
D45*
X237600000Y-110413290D02*
X237600000Y-91313290D01*
%TO.N,Net-(U7-C)*%
X137850000Y-82563290D02*
X137850000Y-88303290D01*
%TO.N,Net-(IN1-A)*%
D44*
X76801693Y-136700790D02*
X78291425Y-135211058D01*
%TO.N,/MCU/BTNOK*%
D45*
X218100000Y-71813290D02*
X155300000Y-71813290D01*
%TO.N,+BATT*%
D47*
X194200000Y-58213290D02*
X173700000Y-58213290D01*
%TO.N,Net-(IN2-K_0)*%
D44*
X113074569Y-132825426D02*
X121500000Y-124399995D01*
%TO.N,Net-(R2-Pad1)*%
D45*
X243550000Y-117313290D02*
X239450000Y-117313290D01*
%TO.N,GND*%
D46*
X242562500Y-130613290D02*
X244100000Y-130613290D01*
%TO.N,Net-(IN1-K_7)*%
D44*
X93200000Y-115513290D02*
X109540000Y-99173290D01*
%TO.N,+100V*%
X52380000Y-89113290D02*
X51500000Y-89993290D01*
%TO.N,Net-(IN2-K_6)*%
X119300000Y-104911788D02*
X119300000Y-96013290D01*
%TO.N,Net-(IN2-K_8)*%
X106833292Y-108379998D02*
X115700000Y-99513290D01*
%TO.N,Net-(IN1-K_7)*%
X67816714Y-114630004D02*
X68700000Y-115513290D01*
%TO.N,GND*%
D46*
X242562500Y-121113290D02*
X243700000Y-121113290D01*
%TO.N,Net-(U7-A)*%
D45*
X127689999Y-82123291D02*
X127689999Y-88303290D01*
%TO.N,+BATT*%
D47*
X173700000Y-58213290D02*
X171300000Y-60613290D01*
X171300000Y-60613290D02*
X162400000Y-60613290D01*
%TO.N,Net-(U8-B)*%
D45*
X167120001Y-82293289D02*
X173300000Y-76113290D01*
%TO.N,+3V3*%
D46*
X246912500Y-128113290D02*
X246912500Y-129325790D01*
%TO.N,Net-(IN3-K_9)*%
D44*
X156960001Y-88613290D02*
X156960001Y-87073291D01*
%TO.N,Net-(IN2-K_9)*%
X123700000Y-91413290D02*
X125150000Y-89963290D01*
%TO.N,+3V3*%
D46*
X247400000Y-109125790D02*
X247412500Y-109113290D01*
%TO.N,Net-(U7-D)*%
D45*
X171800000Y-64913290D02*
X159900000Y-64913290D01*
%TO.N,Net-(IN4-K_7)*%
D44*
X206000000Y-108113290D02*
X206000000Y-104613290D01*
%TO.N,Net-(R3-Pad1)*%
D45*
X243500000Y-126513290D02*
X244987500Y-126513290D01*
%TO.N,Net-(IN1-K_9)*%
D44*
X65342663Y-126590284D02*
X59900000Y-121147621D01*
%TO.N,Net-(R2-Pad1)*%
D45*
X245637500Y-117113290D02*
X243750000Y-117113290D01*
%TO.N,Net-(IN3-K_9)*%
D44*
X145500000Y-94613290D02*
X145500000Y-122247621D01*
%TO.N,Net-(U7-C)*%
D45*
X177000000Y-60561819D02*
X172248529Y-65313290D01*
%TO.N,/MCU/BTNUP*%
X239450000Y-121100790D02*
X239437500Y-121113290D01*
%TO.N,Net-(IN4-K_0)*%
D44*
X197574568Y-131825426D02*
X197574568Y-118687858D01*
%TO.N,/MCU/DEBUG_TX*%
D46*
X164900000Y-52413290D02*
X165540000Y-53053290D01*
%TO.N,Net-(IN2-K_8)*%
D44*
X106833292Y-118576403D02*
X106833292Y-108379998D01*
%TO.N,+100V*%
X51500000Y-89993290D02*
X51500000Y-97613290D01*
%TO.N,Net-(U7-C)*%
D45*
X175200000Y-59313290D02*
X175500000Y-59013290D01*
%TO.N,Net-(IN3-K_7)*%
D44*
X169660001Y-94273291D02*
X169660001Y-96233290D01*
%TO.N,/MCU/BTNUP*%
D45*
X236700000Y-120313290D02*
X237500000Y-121113290D01*
%TO.N,GND*%
D46*
X247412500Y-107113290D02*
X248500000Y-107113290D01*
%TO.N,Net-(U8-A)*%
D45*
X159500000Y-88613290D02*
X159500000Y-86013290D01*
%TO.N,Net-(IN1-K_5)*%
D44*
X98400000Y-98913290D02*
X99380000Y-97933290D01*
%TO.N,Net-(U7-D)*%
D45*
X131000000Y-80913290D02*
X130230000Y-81683290D01*
%TO.N,+100V*%
D44*
X57412500Y-138525790D02*
X65500000Y-138525790D01*
%TO.N,Net-(IN1-K_6)*%
X74682006Y-107029782D02*
X74682006Y-110495296D01*
%TO.N,+3V3*%
D46*
X247412500Y-120500790D02*
X247400000Y-120513290D01*
%TO.N,/MCU/BTNOK*%
D45*
X239450000Y-108913290D02*
X239450000Y-109163290D01*
%TO.N,Net-(IN3-K_8)*%
D44*
X148833291Y-94200000D02*
X148833291Y-118576403D01*
%TO.N,Net-(R2-Pad1)*%
D45*
X243750000Y-117113290D02*
X243550000Y-117313290D01*
%TO.N,+BATT*%
D47*
X195600000Y-59613290D02*
X194200000Y-58213290D01*
%TO.N,Net-(IN4-K_9)*%
D44*
X197150000Y-86563290D02*
X197150000Y-88803290D01*
%TO.N,Net-(IN3-K_6)*%
X167120001Y-99091785D02*
X167120001Y-96233290D01*
%TO.N,+3V3*%
D46*
X247000000Y-129413290D02*
X246912500Y-129325790D01*
%TO.N,Net-(IN3-K_0)*%
D44*
X155074568Y-117038722D02*
X155074568Y-132825426D01*
%TO.N,/MCU/BTNDN*%
D45*
X243500000Y-128113290D02*
X245087500Y-128113290D01*
%TO.N,Net-(IN2-K_9)*%
D44*
X117400000Y-95413290D02*
X121400000Y-91413290D01*
%TO.N,/MCU/BTNOK*%
D45*
X243550000Y-108913290D02*
X239450000Y-108913290D01*
%TO.N,Net-(IN1-K_6)*%
D44*
X74682006Y-110495296D02*
X75700000Y-111513290D01*
%TO.N,/MCU/BTNUP*%
D45*
X167251471Y-72413290D02*
X217800000Y-72413290D01*
%TO.N,Net-(U7-C)*%
X160600000Y-65313290D02*
X144400000Y-81513290D01*
%TO.N,Net-(IN4-K_9)*%
D44*
X192342662Y-125590283D02*
X186500000Y-119747621D01*
%TO.N,GND*%
D46*
X242562500Y-112762500D02*
X242600000Y-112800000D01*
%TO.N,Net-(IN2-K_9)*%
D44*
X107842663Y-126590284D02*
X113900000Y-120532947D01*
%TO.N,Net-(U7-A)*%
D45*
X129900000Y-79913290D02*
X127689999Y-82123291D01*
%TO.N,Net-(IN4-K_0)*%
D44*
X191500000Y-99533290D02*
X194610000Y-96423290D01*
%TO.N,/MCU/BTNDN*%
D45*
X217400000Y-73113290D02*
X167400000Y-73113290D01*
%TO.N,Net-(IN3-K_7)*%
D44*
X154000000Y-93113290D02*
X168500000Y-93113290D01*
%TO.N,Net-(IN1-K_6)*%
X75700000Y-111513290D02*
X84400000Y-111513290D01*
%TO.N,Net-(IN4-K_9)*%
X186500000Y-93013290D02*
X193600000Y-85913290D01*
%TO.N,Net-(IN4-K_7)*%
X194816713Y-110291968D02*
X203821322Y-110291968D01*
%TO.N,/MCU/BTNOK*%
D45*
X239437500Y-111113290D02*
X238300000Y-111113290D01*
%TO.N,+BATT*%
X153800000Y-69213290D02*
X153900000Y-69113290D01*
%TO.N,Net-(U8-B)*%
X167120001Y-88613290D02*
X167120001Y-82293289D01*
%TO.N,Net-(IN4-K_7)*%
D44*
X209850000Y-100763290D02*
X209850000Y-96423290D01*
%TO.N,Net-(IN4-K_6)*%
X201682005Y-106029781D02*
X207310000Y-100401786D01*
%TO.N,Net-(IN2-K_9)*%
X113900000Y-120532947D02*
X113900000Y-105113290D01*
%TO.N,+BATT*%
D47*
X211700000Y-53613290D02*
X205700000Y-59613290D01*
%TO.N,/MCU/BTNDN*%
D45*
X239437500Y-128150790D02*
X239400000Y-128113290D01*
%TO.N,Net-(U7-C)*%
X138900000Y-81513290D02*
X137850000Y-82563290D01*
%TO.N,Net-(IN4-K_0)*%
D44*
X197574568Y-118687858D02*
X191500000Y-112613290D01*
%TO.N,Net-(IN3-K_6)*%
X159182005Y-107029781D02*
X167120001Y-99091785D01*
%TO.N,+3V3*%
D46*
X247400000Y-111813290D02*
X247400000Y-109125790D01*
%TO.N,Net-(IN2-K_6)*%
D44*
X135310000Y-94323290D02*
X135310000Y-95923290D01*
%TO.N,/MCU/BTNOK*%
D45*
X245387500Y-108913290D02*
X245587500Y-109113290D01*
%TO.N,Net-(U6-A)*%
X101600000Y-80513290D02*
X120900000Y-80513290D01*
%TO.N,Net-(IN2-K_0)*%
D44*
X121500000Y-97033290D02*
X122610000Y-95923290D01*
%TO.N,Net-(U8-A)*%
D45*
X159500000Y-86013290D02*
X171400000Y-74113290D01*
%TO.N,Net-(IN3-K_7)*%
D44*
X152316713Y-111291968D02*
X152316713Y-94796577D01*
%TO.N,Net-(U8-A)*%
D45*
X171400000Y-74113290D02*
X173500000Y-74113290D01*
%TO.N,/MCU/BTNDN*%
X239400000Y-128113290D02*
X243500000Y-128113290D01*
%TO.N,/MCU/BTNOK*%
X239450000Y-109163290D02*
X239437500Y-109175790D01*
%TO.N,/MCU/DEBUG_TX*%
D46*
X164900000Y-49113290D02*
X164900000Y-52413290D01*
%TO.N,Net-(R1-Pad1)*%
D45*
X245387500Y-107313290D02*
X245587500Y-107113290D01*
%TO.N,Net-(U7-C)*%
X177000000Y-59913290D02*
X177000000Y-60561819D01*
%TO.N,Net-(U7-D)*%
X176400000Y-60313290D02*
X171800000Y-64913290D01*
%TO.N,Net-(IN4-K_7)*%
D44*
X203821322Y-110291968D02*
X206000000Y-108113290D01*
%TO.N,Net-(U9-A)*%
D45*
X189500000Y-69313290D02*
X184800000Y-64613290D01*
%TO.N,Net-(U8-C)*%
X169660001Y-82253289D02*
X169660001Y-88613290D01*
%TO.N,Net-(U9-A)*%
X184800000Y-64064760D02*
X183824265Y-63089025D01*
%TO.N,Net-(IN3-K_9)*%
D44*
X156960001Y-87073291D02*
X156000000Y-86113290D01*
%TO.N,/MCU/BTNDN*%
D45*
X239437500Y-130613290D02*
X239437500Y-128150790D01*
%TO.N,Net-(IN4-K_6)*%
D44*
X207310000Y-100401786D02*
X207310000Y-96423290D01*
%TO.N,/MCU/BTNUP*%
D45*
X239450000Y-118913290D02*
X239450000Y-121100790D01*
%TO.N,Net-(IN4-A)*%
D44*
X191000000Y-136700790D02*
X202801692Y-136700790D01*
%TO.N,/MCU/BTNUP*%
D45*
X164400000Y-75264761D02*
X167251471Y-72413290D01*
%TO.N,Net-(U7-D)*%
X143900000Y-80913290D02*
X131000000Y-80913290D01*
%TO.N,Net-(IN4-A)*%
D44*
X202801692Y-136700790D02*
X205291424Y-134211058D01*
%TD*%
M02*
